<svg version="1.0" xmlns="http://www.w3.org/2000/svg"
 width="148.000000pt" height="148.000000pt" viewBox="0 0 148.000000 148.000000"
 preserveAspectRatio="xMidYMid meet">

<g transform="translate(0.000000,148.000000) scale(0.100000,-0.100000)"
fill="#000000" stroke="none">
<path d="M892 1365 c19 -45 41 -84 59 -105 14 -17 10 -5 -12 35 -28 53 -60 99
-47 70z"/>
<path d="M721 1355 c1 -19 18 -51 18 -35 0 8 -4 22 -9 30 -5 8 -9 11 -9 5z"/>
<path d="M892 1285 c0 -11 4 -33 8 -50 7 -27 8 -27 8 -5 0 14 -4 36 -8 50 -6
20 -8 21 -8 5z"/>
<path d="M600 1280 c8 -5 20 -10 25 -10 6 0 3 5 -5 10 -8 5 -19 10 -25 10 -5
0 -3 -5 5 -10z"/>
<path d="M1083 1210 c0 -41 2 -58 4 -37 2 20 2 54 0 75 -2 20 -4 3 -4 -38z"/>
<path d="M650 1260 c8 -5 20 -10 25 -10 6 0 3 5 -5 10 -8 5 -19 10 -25 10 -5
0 -3 -5 5 -10z"/>
<path d="M1022 1195 c0 -16 2 -22 5 -12 2 9 2 23 0 30 -3 6 -5 -1 -5 -18z"/>
<path d="M518 1193 c7 -3 16 -2 19 1 4 3 -2 6 -13 5 -11 0 -14 -3 -6 -6z"/>
<path d="M512 1164 c15 -15 30 -26 33 -23 2 3 -10 16 -28 29 l-32 23 27 -29z"/>
<path d="M325 1130 c19 -8 113 -14 104 -6 -2 2 -31 6 -64 9 -38 4 -53 3 -40
-3z"/>
<path d="M1168 1098 c-29 -54 -49 -55 -65 -3 l-13 40 6 -38 c5 -37 4 -38 -18
-31 -47 15 -213 19 -283 7 -65 -12 -286 -82 -328 -105 -14 -7 -17 -16 -12 -38
5 -22 2 -29 -12 -33 -16 -4 -17 -5 0 -6 13 -1 17 -10 17 -37 0 -34 -1 -36 -27
-30 -23 5 -25 4 -10 -4 25 -16 14 -27 -37 -34 -40 -6 -44 -10 -50 -40 -8 -43
-27 -59 -60 -50 -21 5 -35 -2 -75 -37 -27 -24 -83 -69 -124 -99 l-76 -55 0
-97 -1 -98 35 17 c32 15 38 15 100 -2 50 -13 76 -27 102 -54 46 -47 87 -100
81 -106 -2 -3 -24 9 -47 27 -52 38 -172 88 -212 88 -42 0 -59 -48 -59 -165 l0
-92 51 -11 c33 -8 166 -12 391 -12 l340 0 52 41 51 41 -44 -41 -44 -41 187 1
c149 0 188 3 192 14 11 29 -7 34 -52 14 -65 -29 -73 -19 -19 24 26 20 51 34
56 32 4 -3 11 15 15 40 3 25 11 48 17 52 6 4 7 1 2 -6 -4 -7 2 -22 15 -36 19
-20 21 -27 10 -40 -14 -17 -6 -80 11 -91 8 -4 9 6 4 34 -4 24 -2 49 4 61 9 17
7 25 -11 43 -22 22 -22 22 -6 112 8 50 13 96 9 103 -8 16 -92 103 -124 130
l-27 23 0 -29 c0 -16 -17 -54 -39 -87 -21 -32 -50 -80 -65 -106 -40 -71 -60
-72 -154 -7 -173 119 -189 133 -196 186 -5 42 -9 48 -30 48 -13 0 -22 -3 -19
-7 2 -5 11 -8 19 -8 8 0 15 -7 15 -15 1 -8 3 -19 4 -25 1 -5 3 -19 4 -30 0
-10 22 -35 48 -55 26 -20 48 -43 49 -51 1 -9 6 -19 10 -22 4 -4 4 1 1 11 -8
22 -6 21 38 -4 40 -24 41 -35 3 -20 -17 6 -29 6 -36 -1 -12 -12 -26 0 -150
112 -59 55 -99 120 -87 140 4 6 2 10 -3 10 -12 0 -34 59 -26 71 3 5 10 7 15 4
12 -8 11 2 -1 26 -9 15 -4 25 23 55 29 32 36 35 55 25 21 -11 52 -59 52 -81 0
-15 29 -44 37 -37 3 3 55 -19 116 -49 95 -48 113 -54 134 -45 32 15 66 14 82
-1 10 -11 11 -10 6 5 -6 13 -2 17 15 17 12 0 31 -5 42 -11 19 -10 26 -7 55 25
22 24 33 46 33 66 0 31 22 50 58 50 11 0 39 -16 62 -35 39 -33 90 -47 90 -25
0 11 -47 67 -122 144 -47 48 -48 51 -48 111 0 54 3 63 23 73 21 11 21 11 -4 6
-24 -5 -25 -3 -21 29 2 22 -2 39 -13 50 -15 16 -15 19 3 42 13 17 22 21 25 13
2 -7 7 2 11 20 11 49 1 49 -26 0z m-168 -97 c1 -12 6 -10 21 9 20 24 21 24 35
5 16 -22 20 -120 4 -110 -6 3 -7 17 -4 31 7 29 -2 74 -16 74 -5 0 -15 -20 -21
-45 -16 -63 -29 -66 -29 -6 0 27 -5 53 -10 56 -12 8 -30 -36 -30 -75 0 -16 -5
-32 -11 -36 -18 -11 -5 80 15 112 14 20 20 23 32 13 8 -6 14 -19 14 -28z
m-335 -291 c18 -8 18 -9 -5 -10 -22 -1 -19 -4 20 -25 48 -25 44 -32 -8 -14
-17 6 -38 21 -47 35 -14 22 -14 24 2 23 10 0 27 -4 38 -9z m-350 -300 c43 -44
77 -81 74 -84 -2 -2 -40 33 -85 80 -44 46 -77 84 -74 84 3 0 41 -36 85 -80z
m879 -34 c24 -31 27 -39 15 -46 -9 -6 -15 -5 -18 1 -2 6 -14 14 -26 19 -17 6
-22 15 -18 28 2 11 0 23 -6 26 -6 4 -11 17 -11 29 l0 22 18 -21 c9 -12 30 -38
46 -58z m-829 14 c10 -11 16 -20 13 -20 -3 0 -13 9 -23 20 -10 11 -16 20 -13
20 3 0 13 -9 23 -20z m-6 -64 c9 -11 9 -16 -1 -22 -7 -4 -10 -4 -6 1 4 4 3 14
-3 22 -6 7 -9 13 -6 13 2 0 10 -6 16 -14z m217 -214 c-13 -13 -20 -10 -60 23
-25 21 -46 39 -46 40 0 2 27 -8 60 -23 53 -22 59 -27 46 -40z m229 23 c20 -9
24 -14 12 -14 -27 -1 -110 20 -122 31 -13 13 70 0 110 -17z m112 -117 c-3 -8
-6 -5 -6 6 -1 11 2 17 5 13 3 -3 4 -12 1 -19z"/>
<path d="M386 1090 c12 -12 28 -20 35 -18 9 3 0 12 -21 22 l-35 18 21 -22z"/>
<path d="M525 1060 c11 -5 29 -8 40 -8 16 0 15 2 -5 8 -34 11 -60 11 -35 0z"/>
<path d="M283 1053 c15 -2 37 -2 50 0 12 2 0 4 -28 4 -27 0 -38 -2 -22 -4z"/>
<path d="M395 995 c17 -8 39 -14 50 -14 11 0 0 7 -25 15 -56 17 -64 17 -25 -1z"/>
<path d="M1220 996 c0 -7 71 -49 75 -44 3 2 -13 15 -35 27 -22 12 -40 20 -40
17z"/>
<path d="M350 930 c-20 -6 -21 -8 -5 -8 11 0 29 3 40 8 25 11 -1 11 -35 0z"/>
<path d="M395 870 c11 -5 27 -9 35 -9 9 0 8 4 -5 9 -11 5 -27 9 -35 9 -9 0 -8
-4 5 -9z"/>
<path d="M338 833 c7 -3 16 -2 19 1 4 3 -2 6 -13 5 -11 0 -14 -3 -6 -6z"/>
<path d="M536 693 c-6 -14 -5 -15 5 -6 7 7 10 15 7 18 -3 3 -9 -2 -12 -12z"/>
<path d="M567 607 c-3 -7 -2 -19 3 -26 5 -10 8 -9 13 2 3 7 2 19 -3 26 -5 10
-8 9 -13 -2z"/>
<path d="M501 582 c6 -18 15 -35 20 -38 5 -3 4 7 -3 23 -17 41 -30 53 -17 15z"/>
<path d="M948 490 c-10 -11 -14 -21 -10 -24 12 -7 27 7 30 27 4 21 2 20 -20
-3z"/>
<path d="M980 491 c0 -6 4 -13 10 -16 6 -3 7 1 4 9 -7 18 -14 21 -14 7z"/>
<path d="M895 340 c-15 -6 -11 -7 17 -7 23 1 33 4 25 9 -14 9 -16 9 -42 -2z"/>
</g>
</svg>
