<svg height="511.9" viewBox="0 0 511.9 511.9" width="511.9" xmlns="http://www.w3.org/2000/svg"><path d="m458.2 392.9c6.5 58.7-21.1 109.7-88.6 113.5-91.6 4.2-183.2 4.2-274.8 0-67.5-3.8-95.2-54.8-88.6-113.5 4.7-44.5 9.4-89 12.8-133.6 4.8-59.3 32.4-107.6 91.9-107.5h242.8c59.5 0 87.1 48.3 91.9 107.5 3.1 44.6 7.9 89.1 12.6 133.6z" fill="#8e6049"/><path d="m365.6 291.7c-.3-24.9-1.7-49.7-3.5-68.3-1.7-18.6-3.9-31.1-3.9-31.1-.2-1.3-.7-2.6-1.3-3.7v-62.9c0-68.8-56-124.7-124.8-124.7s-124.8 56-124.8 124.7v62.9c-.6 1.2-1 2.4-1.3 3.7 0 0-2.2 12.4-3.9 31.1-1.8 18.6-3.3 43.5-3.5 68.3-.2 12.4-.1 24.9.1 36.5.5 11.6.1 22.5 1.8 31.8 1.6 9.3 4.5 17.1 7.4 22.5 1.3 2.7 2.7 4.9 3.7 6.3 1.1 1.5 1.6 2.2 1.6 2.2.5.6 1 1.2 1.7 1.7 3.4 2.5 8.2 1.7 10.7-1.7 0 0 .6-.8 1.6-2.2 1-1.5 2.4-3.6 3.7-6.3 2.9-5.4 5.8-13.2 7.4-22.5 1.8-9.3 1.4-20.2 1.8-31.8.2-11.6.3-24.1.1-36.5-.3-24.9-1.7-49.7-3.5-68.3-1.7-18.6-3.9-31.1-3.9-31.1-.2-1.3-.7-2.6-1.3-3.7v-62.9c0-55.4 45.1-100.5 100.5-100.5s100.5 45.1 100.5 100.5v62.9c-.6 1.2-1 2.4-1.3 3.7 0 0-2.2 12.4-3.9 31.1-1.8 18.6-3.3 43.5-3.5 68.3-.2 12.4-.1 24.9.1 36.5.5 11.6.1 22.5 1.8 31.8 1.6 9.3 4.5 17.1 7.4 22.5 1.3 2.7 2.7 4.9 3.7 6.3 1.1 1.5 1.6 2.2 1.6 2.2.5.6 1 1.2 1.7 1.7 3.4 2.5 8.2 1.7 10.7-1.7 0 0 .6-.8 1.6-2.2 1-1.5 2.4-3.6 3.7-6.3 2.9-5.4 5.8-13.2 7.4-22.5 1.8-9.3 1.4-20.2 1.8-31.8s.5-24 .3-36.5z" fill="#68442a"/><g fill="#422714"><circle cx="119.5" cy="232.8" r="7.6"/><circle cx="119.5" cy="270.4" r="7.6"/><circle cx="344.7" cy="232.8" r="7.6"/><circle cx="344.7" cy="270.4" r="7.6"/></g><path d="m136.5 293.4h-33.9c-10.9 0-19.7 8.8-19.7 19.7v13.7c0 10.9 8.8 19.7 19.7 19.7h33.9c10.9 0 19.7-8.8 19.7-19.7v-13.7c0-10.9-8.9-19.7-19.7-19.7zm9.6 33.4c0 5.3-4.3 9.6-9.6 9.6h-11.9v-10.5c0-2.8-2.3-5.1-5.1-5.1s-5.1 2.3-5.1 5.1v10.5h-11.9c-5.3 0-9.6-4.3-9.6-9.6v-13.7c0-5.3 4.3-9.6 9.6-9.6h33.9c5.3 0 9.6 4.3 9.6 9.6v13.7z" fill="#d1cfc3"/><path d="m361.7 293.4h-33.9c-10.9 0-19.7 8.8-19.7 19.7v13.7c0 10.9 8.8 19.7 19.7 19.7h33.9c10.9 0 19.7-8.8 19.7-19.7v-13.7c0-10.9-8.8-19.7-19.7-19.7zm9.6 33.4c0 5.3-4.3 9.6-9.6 9.6h-11.9v-10.5c0-2.8-2.3-5.1-5.1-5.1s-5.1 2.3-5.1 5.1v10.5h-11.9c-5.3 0-9.6-4.3-9.6-9.6v-13.7c0-5.3 4.3-9.6 9.6-9.6h33.9c5.3 0 9.6 4.3 9.6 9.6v13.7z" fill="#d1cfc3"/><path d="m505.8 392.9c-4.7-44.5-9.4-89-12.8-133.6-4.8-59.3-32.4-107.6-91.9-107.5-15.9 0-31.8 0-47.7 0 59.5 0 87.1 48.3 91.9 107.5 3.3 44.6 8.1 89.1 12.8 133.6 6.5 58.7-21.1 109.7-88.6 113.5-37.8 1.7-75.7 2.7-113.6 3 53.8.4 107.5-.6 161.2-3 67.6-3.8 95.3-54.8 88.7-113.5z" fill="#68442a"/><path d="m232.1 25.2c-11.7 0-22.9 2-33.3 5.7-26.8 22.9-43.8 56.9-43.8 94.8v26.1h3.4 20.9v-26.1c0-47.2 32.7-86.9 76.6-97.6-7.6-1.9-15.6-2.9-23.8-2.9z" fill="#422714"/><path d="m279.8.9c-8.2 0-16.1.8-23.8 2.3 21.5 4.2 41.1 13.9 57.2 27.7 39.1 13.8 67.1 51.1 67.1 94.8v26.1h20.9c1.1 0 2.3 0 3.4.1v-26.1c0-68.9-56-124.9-124.8-124.9z" fill="#422714"/></svg>