<svg id="katman_1" xmlns="http://www.w3.org/2000/svg" version="1.1" viewBox="0 0 512 512" width="512" height="512">
  <!-- Generator: Adobe Illustrator 29.0.1, SVG Export Plug-In . SVG Version: 2.1.0 Build 192)  -->
  <defs>
    <style>
      .st0 {
        fill: #68130e;
      }

      .st1 {
        fill: #fff;
      }

      .st2 {
        fill: #661510;
      }

      .st3 {
        fill: #fcc896;
      }

      .st4 {
        fill: #621712;
      }

      .st5 {
        fill: #66110c;
      }

      .st6 {
        fill: #ea1a39;
      }

      .st7 {
        fill: #faf8f7;
      }

      .st8 {
        fill: #67120e;
      }

      .st9 {
        fill: #56e4cf;
      }

      .st10 {
        fill: #eb1a3a;
      }

      .st11 {
        fill: none;
        stroke: #661510;
        stroke-miterlimit: 10;
        stroke-width: 4px;
      }

      .st12 {
        fill: #7b1121;
      }

      .st13 {
        fill: #fdfcfc;
      }

      .st14 {
        fill: #fdfdfd;
      }

      .st15 {
        fill: #eb1a39;
      }
    </style>
  </defs>
  <g>
    <path class="st14" d="M348.99,43.4c-13.36,4.22-24.91,9.54-35.4,18.97-11.24-21.51-41.23-17.84-56.02-2.08-19.38-16.18-39.97-19.82-62.14-6.33-13.38,8.14-24.61,20.62-28.95,35.9-20.37-1.3-47.4,15.12-50.7,36.1-.82,5.23.86,10.67.47,14.6-.23,2.27-3.58,6.35-4.25,9.54-1.92,9.13,2.52,18.76,9.62,24.42,1.9,1.52,5.42,2.31,6.22,3.82,3.46,6.5,1.55,20.61-.33,27.7-63.1-20.38-114.21,69.05-48.84,102.3-12.4,24.57-25.75,47.8-20.73,76.54,8.98,51.43,73.71,75.71,119.25,83.28,8.38,1.39,22.37,1.36,29.42,3.51,2.03.62,6.78,5.21,10.33,6.63,18.31,7.32,28.59-1.92,44.05-6.57,10.48-3.16,24.85-4.17,36.14-6.76,54.47-12.48,133.3-35.46,146.67-97.83-3.93-14.61-5.17-30.85-9.72-45.14-2.83-8.89-14.32-27.43-15.2-33.72-.69-4.94,2.48-9.36,3.66-14.18,4.04-16.43,3.79-35.68-9.15-48.15-2.93-2.83-11.52-7.08-11.52-11.43v-16.46c12.18,9.17,28.75,7.2,40.4-2,1.62-1.28,2.52-3.88,3.52-4.46,1.49-.87,3.87-.45,5.69-1.29,9.91-4.56,11.57-11.75,15.23-21.19v313.29H46.71V43.4h302.28Z"/>
    <path class="st2" d="M353.98,43.4c2.21,1.71,7.96,1.66,9.98,0h2.99c14.08,3.59,28.14,10.36,37.42,21.94,2.16,2.69,5.72,10.41,7.51,11.44,3.01,1.74,10.71,2.37,14.91,4.05,19.2,7.69,26.9,35.25,18.97,53.35,11.91,4.52,18.09,17.11,20.95,28.95v5.99c-3.66,9.44-5.32,16.62-15.23,21.19-1.83.84-4.2.42-5.69,1.29-1,.59-1.9,3.19-3.52,4.46-11.66,9.2-28.22,11.16-40.4,2v16.46c0,4.34,8.59,8.6,11.52,11.43,12.93,12.47,13.19,31.72,9.15,48.15-1.18,4.81-4.35,9.24-3.66,14.18.88,6.29,12.37,24.83,15.2,33.72,4.55,14.29,5.79,30.53,9.72,45.14-13.37,62.37-92.2,85.35-146.67,97.83-11.29,2.59-25.66,3.6-36.14,6.76-15.46,4.65-25.73,13.9-44.05,6.57-3.55-1.42-8.3-6.01-10.33-6.63-7.05-2.15-21.04-2.11-29.42-3.51-45.54-7.56-110.27-31.84-119.25-83.28-5.02-28.74,8.33-51.97,20.73-76.54-65.37-33.25-14.26-122.68,48.84-102.3,1.88-7.09,3.79-21.21.33-27.7-.8-1.5-4.32-2.3-6.22-3.82-7.09-5.66-11.54-15.28-9.62-24.42.67-3.19,4.02-7.27,4.25-9.54.4-3.93-1.29-9.37-.47-14.6,3.3-20.98,30.33-37.39,50.7-36.1,4.34-15.28,15.57-27.76,28.95-35.9,22.16-13.48,42.75-9.85,62.14,6.33,14.79-15.76,44.78-19.43,56.02,2.08,10.5-9.43,22.05-14.75,35.4-18.97h4.99ZM439.54,130.96c4.04-4.81-.56-18.57-3.21-23.74-3.98-7.77-8.41-12.05-16.52-15.4-5.27-2.17-15.53-3.11-18.89-5.05-2.23-1.29-8.13-12.58-11.05-15.89-16.39-18.6-41.56-24.8-63.51-11.7-5.94,3.54-11.83,10.04-14.46,16.47-1.53,3.76-1.34,12.61-6.25,11.69-4.64-5.45,4.88-16.03,4.27-20.24-.4-2.76-4.57-7.48-6.79-9.24-15.39-12.24-39.12-2.52-46.78,14.12-.75,1.63-1.77,7.2-2.71,7.41-7.05,1.58-2.82-6.28-3.42-7.04-.16-.21-1.58.95-2.91.52-3.2-1.04-12.09-10.59-17.71-13.31-4.62-2.23-13.57-4.85-18.61-4.78-16.47.23-39.72,21.57-40.62,38-.13,2.32,1.9,10.01-.46,10.5-3.8.78-3.16-7.64-3.48-7.98-.72-.76-5.98.73-7.49.79-7.3.3-9.27.31-16.33,3.83-13.58,6.75-24.57,21.69-21.83,37.55.51,2.97,4.07,7.34,3.64,9.01-1.36,5.29-6.22-.07-6.87.71.66,2.86-.98,5.81-.91,8.38.12,4.63,4.9,14.46,9.88,15.56-.57-17.09,24.33-24.97,37.67-29.67,60.05-21.16,175.66-22.17,231.02,11.9,10.46,6.44,15.93,17.53,30.6,12.28,2.65-.95,3.74-2.6,5.47-3.51,4.91-2.56,6.33-.27,2.57,3.56-5.49,5.6-15.95,5.23-22.98,3.45,2.65,10.9-16.36,20.44-2.71,28.14,10.73,6.06,24.93,2.41,32.63-6.7,1.14-1.34,1.32-4.2,2.99-5.06s3.53.63,5.28.4c2.27-.3,6.19-4.5,7.52-6.48,10.03-14.91,1.41-33.51-13.12-41.42-1.79-.98-6.44-1.65-7.22-2.76-2.66-3.79,2.2-2.96,3.31-4.29ZM396.26,158.75c-19.44-14.75-72.57-24.28-97.65-26.54-47.09-4.25-116.11,1.29-158.01,24.55-6.82,3.78-10.16,5.15-10.17,13.86,0,6.02,3.74,12.29,4.1,18.92.32,5.86-3,15.19-2.07,18.83.84,3.31,10.34-1.39,12.8-2.04,52.54-13.97,123.36-17.93,176.83-7.8,7.74,1.47,17.56,5.46,24.47,6.46,6.28.91,13.71.23,20.61,1.33,10.84,1.73,20.45,6.24,30.7,9.69-2.87-10.33-2.63-21.13,1.23-31.2,4.99-13.01,13.24-13.86-2.84-26.06ZM230.27,203.04c-23.29,1.12-59.68,4.1-81.99,9.29-2.01.47-4.38.42-5.78,2.18,13.57,11.14,25.01,29.01,20.94,47.39,11.16-2.54,23.1-3.22,34.16.31,1.64.52,3.25.23,2.75,2.69-21.05-3.76-32.58-5.52-51.01,7.35-12.78,8.93-9.99,15.41-16.83,22.58-.14.15-1.3.4-2,1-6.32,5.42-22.18,14.97-30.43,14.97h-14.47c.67,1.64,4.59,2.83,6.18,3.29,8.39,2.42,14.65,1.64,22.97-.58.84-.22,8.43-4.63,6.76-1.23-.6,1.22-8.62,5-10.41,5.56-9.42,2.94-20.07,2.28-28-4.02-22.91,37.01-22.44,85.53,15.16,112.53,26.42,18.98,67.16,33.18,99.63,35.1,6.33.37,5.67-4.88,9.72-3.84,1.14.29,10.61,9.44,14.68,11.33,11.97,5.54,24.23,4.62,35.79-1.12,5.31-2.64,14.75-11.15,18.6-12.33,4.24-1.31-2.17,5.39-2.51,5.96,1.12.07,2.25.04,3.37-.1,17.97-2.25,48.5-10.97,66.68-16.13,30.25-8.59,70.64-27.26,82.76-58.9,6.53-17.06-.98-49.69-7.4-66.79-.85-2.26-7.06-17.03-7.76-17.69-1.75-1.67-1.67.64-2.07,1.41-4.66,9.14-9.98,21.78-21.85,22.52,1.33-5.79,7.43-8.49,11.38-14.05,1.44-2.02,4.57-6.47,4.09-8.88-13.22,14.19-36.09,28.09-55.9,28.92-14.39.6-47.24-7.36-58.66-16.13-31.7-24.33-16.61-69.45,10.39-91.04,6.3-5.04,13.87-8.04,20.58-12.31.99-.63,1.78.09,1.28-2.23l-56.86-6.99c.56-3.02-1.53-1.93-3.45-2s-4.08-.08-6.08,0-4-1.03-3.45,2c-2.32-.03-4.66-.02-6.98,0,.56-3.02-1.53-1.92-3.45-2-2.33-.09-4.75-.08-7.07,0-1.92.07-4-1.02-3.45,2ZM90.4,216.3c-25.82,2.43-42.06,32.67-36.24,56.61,8.22,33.81,42.73,41.12,70.1,23.15,10.35-6.8,9.09-11.91,15.71-19.21,6.26-6.91,13.62-5.32,12.49-16.45-2.65-26.21-37.32-46.42-62.06-44.1ZM401.51,232.33c-18.37-18.43-64.8-19.92-87.96-11.35-24.36,9.01-41.04,46.46-34.93,70.89,7.6,30.35,58.81,39.61,84.35,31.42,16.01-5.14,39.44-21.06,45.59-37.22s5.18-41.46-7.06-53.74Z"/>
    <path class="st14" d="M366.95,43.4h99.76v119.73c-2.86-11.84-9.04-24.43-20.95-28.95,7.92-18.1.23-45.66-18.97-53.35-4.19-1.68-11.9-2.31-14.91-4.05-1.79-1.04-5.36-8.75-7.51-11.44-9.28-11.58-23.34-18.35-37.42-21.94Z"/>
    <path class="st12" d="M363.95,43.4c-2.02,1.66-7.77,1.71-9.98,0h9.98Z"/>
    <path class="st3" d="M230.27,203.04c4.61-.22,9.34.04,13.97,0,2.32-.02,4.66-.03,6.98,0,4.31.06,8.66-.04,12.97,0l56.86,6.99c.5,2.33-.29,1.6-1.28,2.23-6.71,4.27-14.28,7.28-20.58,12.31-27,21.58-42.09,66.71-10.39,91.04,11.43,8.77,44.27,16.73,58.66,16.13,19.8-.83,42.68-14.74,55.9-28.92.49,2.41-2.65,6.86-4.09,8.88-3.95,5.56-10.05,8.27-11.38,14.05,11.87-.74,17.2-13.39,21.85-22.52.4-.78.32-3.09,2.07-1.41.7.67,6.91,15.43,7.76,17.69,6.41,17.1,13.93,49.73,7.4,66.79-12.12,31.65-52.52,50.31-82.76,58.9-18.18,5.16-48.7,13.88-66.68,16.13-1.13.14-2.25.18-3.37.1.34-.57,6.75-7.27,2.51-5.96-3.85,1.19-13.29,9.7-18.6,12.33-11.55,5.74-23.82,6.66-35.79,1.12-4.07-1.89-13.54-11.04-14.68-11.33-4.05-1.04-3.39,4.21-9.72,3.84-32.47-1.91-73.21-16.12-99.63-35.1-37.6-27-38.07-75.52-15.16-112.53,7.93,6.3,18.58,6.96,28,4.02,1.79-.56,9.81-4.34,10.41-5.56,1.67-3.4-5.92,1.01-6.76,1.23-8.32,2.22-14.57,3.01-22.97.58-1.6-.46-5.51-1.66-6.18-3.29h14.47c8.24,0,24.11-9.54,30.43-14.97-8.07,36.88,20.11,55.48,53.39,57.86,14.4,1.03,25.79-.41,38.41-7.45,7.78-4.34,27.84-19.69,27.67-29.15-.02-1.01-1.44-4.48-1.75-7.28-.14-1.3.16-2.69,0-3.99-.64-5.29-.51-5.93-3.99-9.98-2.68-7.75-1.83-4.63-6.98-8.98-3.4-2.87-6.36-6.45-9.98-8.98.56-2.75-.22-2.43-1.83-3.64-4.65-3.5-17.42-8.41-23.11-9.33-.63-.1-1.38.11-2,0,.5-2.46-1.11-2.16-2.75-2.69-11.06-3.53-23-2.85-34.16-.31,4.07-18.37-7.36-36.25-20.94-47.39,1.4-1.76,3.77-1.72,5.78-2.18,22.32-5.19,58.7-8.17,81.99-9.29ZM314.07,331.76l-23.94-7.99c-2.74,2.54,12.59,8.92,14.14,9.29,1.27.3,13.25,1.86,9.8-1.3ZM155.2,348.92c-.77-.39-2.08.62-3.44.04-19.6-8.27-43.56-24.02-59.62-.21-10.63,15.77-4.61,29.79,4.42,44.38,41.7,67.32,143.6,67.8,211.73,49.08,34.81-9.56,76.88-38.77,76.6-79.03-.08-11.31-8.15-27.04-20.44-28.44-19.91-2.27-56.08,13.67-77.31,18.47-35.72,8.08-99.73,11.9-131.95-4.29Z"/>
    <path class="st9" d="M439.54,130.96c-1.11,1.33-5.97.5-3.31,4.29.78,1.11,5.42,1.78,7.22,2.76,14.53,7.91,23.15,26.51,13.12,41.42-1.33,1.97-5.25,6.17-7.52,6.48-1.75.23-3.54-1.3-5.28-.4s-1.86,3.72-2.99,5.06c-7.71,9.1-21.9,12.75-32.63,6.7-13.65-7.71,5.36-17.24,2.71-28.14,7.03,1.78,17.5,2.15,22.98-3.45,3.76-3.84,2.35-6.12-2.57-3.56-1.73.9-2.82,2.56-5.47,3.51-14.67,5.25-20.14-5.85-30.6-12.28-55.36-34.06-170.97-33.05-231.02-11.9-13.34,4.7-38.24,12.59-37.67,29.67-4.98-1.1-9.76-10.92-9.88-15.56-.07-2.57,1.57-5.52.91-8.38.65-.78,5.51,4.58,6.87-.71.43-1.67-3.13-6.04-3.64-9.01-2.73-15.86,8.25-30.79,21.83-37.55,7.06-3.51,9.03-3.52,16.33-3.83,1.51-.06,6.76-1.55,7.49-.79.32.34-.33,8.76,3.48,7.98,2.36-.49.34-8.18.46-10.5.9-16.43,24.15-37.77,40.62-38,5.04-.07,13.99,2.55,18.61,4.78,5.62,2.72,14.52,12.27,17.71,13.31,1.33.43,2.75-.73,2.91-.52.59.76-3.64,8.62,3.42,7.04.94-.21,1.96-5.78,2.71-7.41,7.66-16.64,31.39-26.36,46.78-14.12,2.22,1.77,6.39,6.49,6.79,9.24.61,4.21-8.91,14.79-4.27,20.24,4.91.92,4.72-7.93,6.25-11.69,2.62-6.43,8.52-12.93,14.46-16.47,21.96-13.11,47.13-6.91,63.51,11.7,2.92,3.31,8.82,14.6,11.05,15.89,3.36,1.94,13.62,2.88,18.89,5.05,8.12,3.35,12.54,7.63,16.52,15.4,2.66,5.18,7.25,18.94,3.21,23.74ZM383.9,83.31c1.18-1.2-2.41-8.44-3.54-9.91-3.96-5.13-11.56-7-17.84-5.98-3.49.57-8.01,4.84-3.97,5.89,3.81,1,10.93-6.4,18.39,2.51,1.13,1.35,4.31,10.18,6.96,7.49ZM208.15,80.12c.29-.17,2.15-3.86,4.2-5.25,1.4-.95,9.57-3.12,4.96-6.06-3.35-2.14-14.63,6.81-13.99,9.98.28,1.38,3.51,2.08,4.82,1.32ZM284.14,72.33c3.73-5.11-15.55-4.9-13.93,1.44.77,3.02,13.5-.84,13.93-1.44ZM392.06,93.09c1.48.86,3.81.23,4.81-1.31-.84-3.08-4.63-6.41-6.99-2.95-.08.44,1.97,4.14,2.18,4.26ZM406.86,122.22c3.29-9.48-8.74-18.81-17.46-19.03-3.61-.09-10.31,3.26-11.47,2.65-1.6-.83-3.32-6.74-4.99-9.05-8.97-12.39-23.39-8.99-34.9-2.49-.24,1.78,2.21.95,3.25.75,7.16-1.38,10.5-4.49,18.71-1.29,8.09,3.16,10.18,15.12,12.92,17.03s10.27-3.8,18.92,2.02c5.19,3.49,8.69,13.12,10.03,13.92,1.78,1.06,5,.17,7.27.72,11,2.66,18.17,16.32,12.7,26.69,3.73.64,7.12-4.65,7.75-7.7,2.94-14.24-8.27-27.53-22.71-24.22ZM265.18,105.26c3-2.92-7.46-6.6-9.56-6.89-6.96-.97-18.91.38-20.36,8.89,8.07-.52,11.16-6.71,20.23-4.76,1.91.41,7.9,4.5,9.69,2.76ZM339.01,119.23c3.49-3.61-7.38-11.14-11.73-11.71-3.71-.49-15.57,1.95-17.18,5.25-.84,1.73.63,1.62,2.06,1.06,6.63-2.6,14.38-5.12,20.37.43,1.03.95,4.38,7.16,6.49,4.97ZM342.01,121.21c.17.25,4.99,2.89,5.29,2.86,3.47-.26,5.18-4.52,2.25-6.93-3.19-2.63-8.63,2.51-7.55,4.07ZM397.92,139.15c6.91,4.69,4.04-17.91-4.41-11.85-4.06,2.91,1.04,5.84,3.24,8.55.72.89,1.02,3.2,1.17,3.3ZM410.52,144.84c7.35-6.53-6.08-11.81-3.66,1.33,1.37.17,2.68-.45,3.66-1.33ZM451.74,159.14c-7.93-.67-4.97,10.41-9.01,13.43-1.66,1.24-4.78.95-6.46,2.52l-.49-2.99c-4.79.11-3.95,5.49-5.02,8.26-.49,1.26-2.34.11-1.95,1.71,2.28.32,2.77-2.01,4.73-2.73,2.2-.81,4.39-.58,7.13-1.85,6.29-2.91,12.63-11.11,11.07-18.35ZM423.82,183.09c-2.33,1.45-10.19-2.78-10.98-1.99-3.41,3.41,8.84,6.29,10.97,4.98v-2.99Z"/>
    <path class="st14" d="M401.51,232.33c12.24,12.28,12.9,38.38,7.06,53.74-6.15,16.16-29.58,32.08-45.59,37.22-25.54,8.2-76.76-1.07-84.35-31.42-6.12-24.44,10.57-61.88,34.93-70.89s69.58-7.09,87.96,11.35ZM389.66,267.09c-13.6,1.9-23.49,20.52-6.23,21.78s22.56-24.06,6.23-21.78Z"/>
    <path class="st10" d="M396.26,158.75c16.08,12.2,7.83,13.05,2.84,26.06-3.86,10.07-4.1,20.87-1.23,31.2-10.25-3.46-19.86-7.97-30.7-9.69-6.9-1.1-14.33-.43-20.61-1.33-6.91-1-16.73-5-24.47-6.46-53.47-10.13-124.29-6.16-176.83,7.8-2.46.65-11.96,5.36-12.8,2.04-.92-3.64,2.39-12.97,2.07-18.83-.36-6.63-4.11-12.9-4.1-18.92.01-8.71,3.35-10.08,10.17-13.86,41.9-23.26,110.92-28.8,158.01-24.55,25.09,2.26,78.21,11.79,97.65,26.54ZM255.21,140.18c-3.58,2.7-1.88,2.64,0,5.99.22.4-.63,1.86.59,2.05,6.95.11,13.96-.33,20.9-.05,1.92.08,4-1.03,3.45,2-.53.46-1.3,1.34-2,2-1.08,1.02-1.97,1.98-2.99,2.99-5.04,4.98-10.31,8.96-15,13.43-.98.94-8.21,8.97-8.47,9.55-1.24,2.72,1.18,5.77,3.52,6.95,4.07,2.04,15.29,1.37,19.95,0,3.18.12,7.64-.91,9.98,1l-8.97.99c5.94-.15,11.25.72,16.95-.99,2.01-.6,3.66.36,4.58-2.97,1.1-3.99-2.15-3.6-2.58-4.01s.42-2.48-2.47-3.01c-7.57-.16-15.47-.3-22.99-.98-2.93-.26-.25-1.3-.48-3,1.8-1.61,3.99-4.08,5.99-5.99,3.53.22,7.25-3.83,7.98-6.98,2.67-1.9,6.5-3,5.99-6.98.64-.58,1.17-1.27,2-2,.52-.45,4.17-1.83,4.81-3.64,1.73-4.96-.75-3.74-1.81-4.34-.39-.22-.71-.88-1-1,.1-1.7.36-2.33-1.49-1.99l-.51.99c-1.19-.19-2.7.08-3.99,0,.56-3.01-1.53-1.93-3.45-2-6.96-.23-16.27-.62-23.04-.05-3.16.27-3.1.28-5.44,2.04ZM214.31,186.08c.11.12-.29,1.16.67,2.05,6.9,6.35,19.24,2.79,25.27-3.04,9.3-9,14.35-23.42,6.82-35.26-6.96-10.94-17.92-9.87-28.3-4.68-15.75,7.89-15.26,28.59-4.46,40.93ZM340.01,148.16c-1.1-.84-.58-2.45-5.44-4.04-7.79-2.55-13.3-2.81-19.92,1.67-2.97,2.01-1.29.92-2.57,2.37-1.2,1.36-1.55,1.78-2.99,2.99-2.44,2.05-2.39-.13-3.99,4.99-4.57,14.6-6.01,24.47,4.99,35.92.14.15-.46,1.38.59,2.09,4.24,2.85,15.43,1.94,20.2.23,2.37-.85,2.1-1.54,3.15-2.32,7.21-5.32,11.61-9.02,13.97-17.96,4.11.37,1.04-2.33,1-2.99-.16-2.3.05-4.67,0-6.98,0-.16,1.15-.96.85-3.17-.54-4.04-3.55-8.03-6.33-10.84-.78-.79-2.22-.71-2.5-.95-.4-.35-.77-.83-1-1ZM173.41,150.16c-3.04.35-3.83-.27-7.73,1.7-.27.14-4.91,3.28-4.24,4.28-.34.21-.62.78-1,1-.52.29-1.66-.6-2,.5-1.05,3.39,1.28,2.12,2,2.49.67.35.66.61,1,1,.14.16-.39,1.4.18,1.84.68.52,2.68-.39,2.88.72,1.36,7.52.96,15.83,1.93,23.38.08.6.1,2.88,0,2.99-.13.15-3.68-.4-1.52,2.02,1.73,1.94,3.36.92,4.52.97,10.62.5,23.28.66,31.95-6.46,10.92-8.98,2.88-18.87-9-18.49-.93-.8,7.65-9.24,1.68-15.65-4.32-4.64-14.87-2.97-20.64-2.31Z"/>
    <path class="st15" d="M200.34,264.9c.62.11,1.37-.1,2,0-.1.47,1.37.43,1.9.84.67.53.5,1.47,1.01,1.68,7.05,2.9,15.77,6.07,22.03,10.44,3.62,2.53,6.58,6.11,9.98,8.98,1.15,4.09,4.69,6.31,6.98,8.98,1.07,3.09,1.33,7.57,3.99,9.98.16,1.3-.14,2.69,0,3.99-12.27,38.43-69.63,41.46-97.68,19.37-9.29-7.31-11.39-12.64-15.05-23.36-.34-1.01-.95-1.86-1-2-.94-2.94-2.18-5.78-2-8.98,6.83-7.17,4.05-13.65,16.83-22.58,18.43-12.88,29.96-11.11,51.01-7.35ZM185.88,330.75c7.45.61,16.3,0,23.94,0,.17,0,1.57-1.34,1.5-1.99-14.84-.02-31.76.44-45.58-5.81-3.3-1.49-7.82-5.77-10.77-6.2-3.31-.48-.62,2.43.48,3.52,6.32,6.25,21.77,9.76,30.44,10.46ZM185.37,335.73c-.21-5.01-7.49-2.42-10.96-2.98.62,5.02,7.66,3.28,10.96,2.98Z"/>
    <path class="st13" d="M90.4,216.3c24.74-2.33,59.41,17.89,62.06,44.1,1.13,11.13-6.23,9.54-12.49,16.45-6.61,7.3-5.35,12.41-15.71,19.21-27.37,17.97-61.88,10.66-70.1-23.15-5.82-23.94,10.42-54.18,36.24-56.61ZM70.39,267.03c-10.68,1.51-6.28,28.66,6.54,26.63,13.75-2.18,2.56-27.92-6.54-26.63Z"/>
    <path class="st5" d="M132.51,294.83c-.18,3.2,1.05,6.04,2,8.98-1.69,1.75-1.4,2.29,1,2,3.66,10.72,5.76,16.05,15.05,23.36,28.05,22.08,85.42,19.06,97.68-19.37.31,2.8,1.73,6.28,1.75,7.28.17,9.46-19.89,24.81-27.67,29.15-12.63,7.04-24.02,8.48-38.41,7.45-33.28-2.37-61.45-20.98-53.39-57.86.69-.59,1.86-.85,2-1Z"/>
    <path class="st5" d="M230.27,203.04c-.56-3.01,1.53-1.93,3.45-2,2.33-.08,4.75-.09,7.07,0,1.92.08,4-1.03,3.45,2-4.63.04-9.35-.22-13.97,0Z"/>
    <path class="st5" d="M251.22,203.04c-.56-3.02,1.53-1.92,3.45-2s4.08-.07,6.08,0,4-1.02,3.45,2c-4.31-.04-8.66.06-12.97,0Z"/>
    <path class="st2" d="M155.2,348.92c32.22,16.19,96.23,12.37,131.95,4.29,21.23-4.8,57.4-20.75,77.31-18.47,12.29,1.4,20.36,17.13,20.44,28.44.28,40.26-41.79,69.47-76.6,79.03-68.14,18.72-170.03,18.23-211.73-49.08-9.04-14.59-15.06-28.61-4.42-44.38,16.05-23.8,40.02-8.06,59.62.21,1.36.57,2.67-.43,3.44-.04ZM361.96,405.58c.27-.03,3.74,3.29,1-2,3.81-8.14,10.74-14.83,14.01-24.41,3.63-10.64,5.25-36.68-9.56-39.4-16.31-3-46.64,9.92-63.29,14.43-46.63,12.65-99.55,16.34-145.91.23-20.32-7.06-53.13-30.62-65.34.01-7.5,18.81,14.33,45.88,27.66,57.62,18.57,16.36,48.22,29.05,72.66,33.1,41.88,6.93,119.95-2.54,154.74-28.2,2.88-2.12,11.57-11.12,14.05-11.39Z"/>
    <path class="st2" d="M314.07,331.76c3.45,3.16-8.52,1.61-9.8,1.3-1.55-.37-16.88-6.76-14.14-9.29l23.94,7.99Z"/>
    <path class="st2" d="M199.96,262.95c5.69.93,20.85,7.78,25.49,11.28,1.61,1.21,2.38.89,1.83,3.64-6.26-4.37-14.98-7.54-22.03-10.44-.45-.18-1.28-.14-2.02-.45-.03-.01-.46-.09-.83-.37-.77-.59-1.78-1.61-1.84-1.62-1.38-.31-1-.25-.61-2.03Z"/>
    <path class="st0" d="M244.24,295.83c-2.3-2.67-5.83-4.89-6.98-8.98,5.15,4.35,4.3,1.23,6.98,8.98Z"/>
    <path class="st12" d="M248.23,305.81c-2.66-2.41-2.92-6.89-3.99-9.98,3.48,4.05,3.35,4.69,3.99,9.98Z"/>
    <path class="st4" d="M406.86,122.22c14.44-3.31,25.65,9.98,22.71,24.22-.63,3.05-4.02,8.34-7.75,7.7,5.46-10.37-1.7-24.04-12.7-26.69-2.26-.55-5.48.35-7.27-.72-1.34-.8-4.83-10.43-10.03-13.92-8.65-5.81-16.21-.13-18.92-2.02s-4.83-13.87-12.92-17.03c-8.21-3.21-11.55-.1-18.71,1.29-1.03.2-3.49,1.03-3.25-.75,11.52-6.5,25.93-9.9,34.9,2.49,1.68,2.31,3.39,8.22,4.99,9.05,1.16.61,7.87-2.74,11.47-2.65,8.73.22,20.75,9.55,17.46,19.03Z"/>
    <path class="st4" d="M265.18,105.26c-1.79,1.74-7.78-2.35-9.69-2.76-9.07-1.95-12.16,4.24-20.23,4.76,1.45-8.5,13.4-9.85,20.36-8.89,2.1.29,12.56,3.97,9.56,6.89Z"/>
    <path class="st4" d="M383.9,83.31c-2.65,2.68-5.83-6.14-6.96-7.49-7.46-8.91-14.58-1.52-18.39-2.51-4.04-1.06.47-5.33,3.97-5.89,6.29-1.02,13.88.86,17.84,5.98,1.14,1.47,4.73,8.72,3.54,9.91Z"/>
    <path class="st4" d="M451.74,159.14c1.56,7.24-4.78,15.44-11.07,18.35-2.74,1.27-4.93,1.04-7.13,1.85-1.97.72-2.46,3.06-4.73,2.73-.39-1.6,1.47-.45,1.95-1.71,1.07-2.77.23-8.16,5.02-8.26l.49,2.99c1.68-1.57,4.8-1.29,6.46-2.52,4.05-3.02,1.08-14.1,9.01-13.43Z"/>
    <path class="st4" d="M339.01,119.23c-2.11,2.18-5.46-4.02-6.49-4.97-5.99-5.55-13.74-3.03-20.37-.43-1.43.56-2.9.67-2.06-1.06,1.61-3.3,13.47-5.74,17.18-5.25,4.35.58,15.22,8.11,11.73,11.71Z"/>
    <path class="st4" d="M397.92,139.15c-.15-.1-.45-2.42-1.17-3.3-2.2-2.71-7.31-5.64-3.24-8.55,8.45-6.06,11.32,16.54,4.41,11.85Z"/>
    <path class="st4" d="M208.15,80.12c-1.32.76-4.55.06-4.82-1.32-.63-3.17,10.64-12.12,13.99-9.98,4.61,2.93-3.56,5.11-4.96,6.06-2.05,1.39-3.91,5.08-4.2,5.25Z"/>
    <path class="st4" d="M284.14,72.33c-.43.59-13.17,4.45-13.93,1.44-1.61-6.34,17.66-6.55,13.93-1.44Z"/>
    <path class="st4" d="M342.01,121.21c-1.09-1.56,4.36-6.69,7.55-4.07,2.93,2.41,1.22,6.67-2.25,6.93-.3.02-5.12-2.62-5.29-2.86Z"/>
    <path class="st4" d="M410.52,144.84c-.99.88-2.29,1.5-3.66,1.33-2.42-13.14,11.01-7.86,3.66-1.33Z"/>
    <path class="st4" d="M423.82,183.09v2.99c-2.13,1.31-14.38-1.57-10.98-4.98.79-.79,8.65,3.44,10.98,1.99Z"/>
    <path class="st4" d="M392.06,93.09c-.21-.12-2.26-3.82-2.18-4.26,2.36-3.45,6.15-.13,6.99,2.95-.99,1.54-3.33,2.17-4.81,1.31Z"/>
    <path class="st2" d="M389.66,267.09c16.33-2.28,11.84,23.1-6.23,21.78s-7.37-19.88,6.23-21.78Z"/>
    <path class="st1" d="M173.41,150.16c5.77-.67,16.31-2.34,20.64,2.31,5.97,6.41-2.61,14.84-1.68,15.65,11.88-.38,19.92,9.51,9,18.49-8.67,7.12-21.32,6.97-31.95,6.46l-2.99-2.99c.1-.11.08-2.39,0-2.99,2.72-.87,1.42-2.11,1.36-3.75-.31-8.09-1.85-16.29-.37-24.18l-5.98,2c-.33-.39-.33-.65-1-1v-2.99c.38-.21.65-.79,1-1,3.77-2.24,8.24-3.64,11.97-5.99ZM173.41,170.11c19.62-3.99,25.32-21.45-.9-13.86l.9,13.86ZM172.41,186.07c3.41-.22,7.1.36,10.46,0s17.74-4.71,16.41-9.34c-3.5-4.78-9.22-1.83-13.51-1.72-1.92.05-3.58-.97-5.74-.85-9.35.51-5.53,5.06-7.62,11.91Z"/>
    <path class="st1" d="M340.01,148.16c.22.17.6.65,1,1-.48,3.99,3.35,3.72,5.19,7.29,1.31,2.53,1.1,5.49,2.79,7.68.05,2.31-.16,4.68,0,6.98-1.45.56-.76,2.08-1,2.99-2.35,8.94-6.76,12.64-13.97,17.96-8.19,1.71-15.84,3.5-23.94,0-11-11.45-9.56-21.31-4.99-35.92,2.48.49,3.31-2.95,3.99-4.99,1.44-1.22,1.79-1.64,2.99-2.99,9.36-5.25,18.4-4.16,27.93,0ZM319.06,152.16c-8.36,3.75-11.56,18.65-9.54,27,1.05,4.34,2.55,2.94,3.56,3.93.11.11-.28,1.46.66,2.04,6.01,3.71,15.32,1.3,20.29-3.04.88-.77,1.22-1.03,2-2s.69-1.48,1-2c1.84-3.06,3.79-5.12,4.04-9.51.28-5-2.41-8.48-3.04-12.44-.48-3.05,3.92-2.47-3.99-3.99-3.57-.68-11.78-1.43-14.96,0Z"/>
    <path class="st1" d="M287.14,140.18c1.29.08,2.8-.19,3.99,0,.11.02,1.33.73,2,1,.29.11.6.78,1,1,.69,3.59-.81,5.48-2.99,7.98-.83.72-1.36,1.41-2,2-2.22,2.04-3.88,3.96-5.99,5.99-2.71,2.61-5.3,5.43-7.98,7.98-2,1.9-4.19,4.38-5.99,5.99-1.07.96-5.4,2.05-5.99,4.98l31.92,2.01c.76,1.19-.75,6.55-2,6.98-1.67.59-5.85-.41-7.98,0-2.34-1.9-6.8-.87-9.98-1-6.62-.26-13.54-2.13-19.95,0-2.34-1.17-4.76-4.22-3.52-6.95.26-.58,7.49-8.61,8.47-9.55,4.69-4.47,9.96-8.45,15-13.43l2.99-2.99c.7-.66,1.46-1.53,2-2,1.64-1.42,4.63-1.41,3.99-3.99h-28.93c-1.88-3.35-3.58-3.29,0-5.99,10.51.47,21.47-.64,31.92,0Z"/>
    <path class="st1" d="M240.25,185.08c-8.85,4.42-16.9,5.58-25.94,1-10.8-12.34-11.29-33.05,4.46-40.93,10.38-5.2,21.34-6.27,28.3,4.68,7.53,11.83,2.48,26.26-6.82,35.26ZM223.29,151.16c-.33.03-.67-.04-1,0l-.55-.97c-1.67-.3-2.95.31-3.44,1.97-.4.19-.66.74-1,1-2.52,1.88-3.61,4.9-3.99,7.98-.31,2.49-.33,8.03.05,10.46.36,2.29,1.57,2.61,1.95,3.51.48,1.14.24,2.51,1.28,3.7,2.28,2.62,11.1,4.9,13.69,1.29.33-.02.67.04,1,0,11.89-1.48,15.28-18.42,7.98-26.94-.72-.84-.85-1.31-2-2-3.95-2.35-6.22-1.96-10.61-1.82-1.86.06-3.88-1.43-3.36,1.82Z"/>
    <path class="st15" d="M269.18,172.11c.23,1.7-2.45,2.73.48,3,7.52.68,15.42.82,22.99.98,2.89.53,2.04,2.6,2.47,3.01s3.68.03,2.58,4.01c-.92,3.33-2.57,2.37-4.58,2.97,1.25-.44,2.76-5.8,2-6.98l-31.92-2.01c.58-2.93,4.92-4.02,5.99-4.98Z"/>
    <path class="st6" d="M166.42,187.08c-.97-7.55-.57-15.86-1.93-23.38-.2-1.1-2.2-.2-2.88-.72-.58-.44-.04-1.67-.18-1.84l5.98-2c-1.48,7.89.06,16.09.37,24.18.06,1.64,1.36,2.88-1.36,3.75Z"/>
    <path class="st6" d="M255.21,140.18c2.34-1.77,2.28-1.78,5.44-2.04,6.77-.57,16.08-.18,23.04.05,1.92.06,4-1.02,3.45,2-10.45-.64-21.41.47-31.92,0Z"/>
    <path class="st6" d="M255.21,146.17h28.93c.64,2.58-2.35,2.57-3.99,3.99.56-3.02-1.53-1.92-3.45-2-6.94-.27-13.95.16-20.9.05-1.22-.19-.37-1.65-.59-2.05Z"/>
    <path class="st6" d="M312.08,148.16c1.28-1.45-.4-.36,2.57-2.37,6.62-4.48,12.13-4.22,19.92-1.67,4.86,1.59,4.34,3.2,5.44,4.04-9.53-4.16-18.57-5.25-27.93,0Z"/>
    <path class="st6" d="M240.25,185.08c-6.03,5.83-18.37,9.39-25.27,3.04-.96-.89-.56-1.92-.67-2.05,9.04,4.59,17.09,3.42,25.94-1Z"/>
    <path class="st6" d="M334.03,192.06c-1.05.78-.78,1.47-3.15,2.32-4.77,1.71-15.96,2.62-20.2-.23-1.05-.71-.45-1.94-.59-2.09,8.1,3.5,15.75,1.71,23.94,0Z"/>
    <path class="st6" d="M348.99,164.13c-1.69-2.19-1.49-5.15-2.79-7.68-1.83-3.56-5.67-3.3-5.19-7.29.27.24,1.72.17,2.5.95,2.78,2.81,5.79,6.8,6.33,10.84.3,2.21-.85,3.01-.85,3.17Z"/>
    <path class="st6" d="M275.17,185.08c-4.66,1.37-15.88,2.04-19.95,0,6.42-2.13,13.33-.26,19.95,0Z"/>
    <path class="st15" d="M283.15,159.14c-.73,3.15-4.46,7.2-7.98,6.98,2.68-2.56,5.27-5.37,7.98-7.98v1Z"/>
    <path class="st6" d="M173.41,150.16c-3.73,2.35-8.2,3.74-11.97,5.99-.67-1,3.97-4.14,4.24-4.28,3.9-1.98,4.69-1.35,7.73-1.7Z"/>
    <path class="st6" d="M285.14,186.08c2.13-.41,6.31.59,7.98,0-5.7,1.71-11.01.84-16.95.99l8.97-.99Z"/>
    <path class="st6" d="M294.12,142.18c1.06.6,3.54-.61,1.81,4.34-.63,1.81-4.29,3.19-4.81,3.64,2.19-2.51,3.68-4.4,2.99-7.98Z"/>
    <path class="st6" d="M283.15,159.14v-1c2.1-2.03,3.76-3.95,5.99-5.99.51,3.98-3.32,5.08-5.99,6.98Z"/>
    <path class="st6" d="M309.08,151.16c-.68,2.04-1.51,5.47-3.99,4.99,1.6-5.12,1.55-2.93,3.99-4.99Z"/>
    <path class="st6" d="M166.42,190.07l2.99,2.99c-1.15-.05-2.79.96-4.52-.97-2.16-2.42,1.4-1.87,1.52-2.02Z"/>
    <path class="st6" d="M348.99,171.11c.05.66,3.11,3.36-1,2.99.24-.92-.46-2.44,1-2.99Z"/>
    <path class="st6" d="M160.44,157.14v2.99c-.72-.37-3.05.9-2-2.49.34-1.1,1.49-.21,2-.5Z"/>
    <path class="st6" d="M291.13,140.18l.51-.99c1.84-.35,1.58.29,1.49,1.99-.66-.26-1.89-.98-2-1Z"/>
    <path class="st6" d="M275.17,155.15c1.02-1.01,1.91-1.98,2.99-2.99l-2.99,2.99Z"/>
    <path class="st0" d="M185.88,330.75c-8.67-.71-24.12-4.21-30.44-10.46-1.1-1.09-3.78-4-.48-3.52,2.95.43,7.47,4.7,10.77,6.2,13.82,6.25,30.74,5.79,45.58,5.81.07.64-1.33,1.99-1.5,1.99-7.65,0-16.49.61-23.94,0Z"/>
    <path class="st0" d="M185.37,335.73c-3.3.29-10.34,2.04-10.96-2.98,3.48.56,10.75-2.03,10.96,2.98Z"/>
    <path class="st2" d="M135.5,305.81c-2.39.29-2.69-.25-1-2,.04.14.65.99,1,2Z"/>
    <path class="st5" d="M70.39,267.03c9.1-1.28,20.29,24.46,6.54,26.63-12.82,2.03-17.22-25.12-6.54-26.63Z"/>
    <path class="st6" d="M362.96,403.58c-.27.57-1.02,1.13-1,2-2.47.28-11.17,9.27-14.05,11.39-34.79,25.66-112.86,35.14-154.74,28.2-24.43-4.04-54.08-16.74-72.66-33.1-13.33-11.74-35.16-38.82-27.66-57.62,12.21-30.64,45.02-7.08,65.34-.01,46.36,16.11,99.28,12.42,145.91-.23,16.64-4.51,46.98-17.43,63.29-14.43,14.82,2.72,13.19,28.77,9.56,39.4-3.26,9.57-10.19,16.27-14.01,24.41ZM351.98,358.67c-.5-1.58-1.91-2.65-3.51-2.96-12.85-2.5-51.6,13.71-67.5,17.25-45.82,10.23-86.35,5.2-131.52-4.8-9.81-2.17-25.59-8.93-34.57-6.66-1.06.27-5.24,2-5.37,2.73-1.29,7.25,9.53-1.16,11.01.44-2.28,11.88.5,31.22,9.44,39.95,9.7,9.46,33.98,18.6,47.24,21.6,44.29,10.02,137.96,3.18,158.98-44.91,3.89-8.9,3.97-22.8,15.79-22.63ZM361.96,387.62c.17-.74.34-3.57-.49-3.99-1.7,1.04-8.67,9.75-7.48,10.96,1.72.07,3.78-1.87,4.98-2.99-.19.33.06,1.77-.54,2.91-.83,1.57-3.03,3.01-3.45,5.06,2.44,2.38,11.4-13.23,11.91-15.53,1.12-4.96-4.41,2.86-4.93,3.56Z"/>
    <path class="st6" d="M360.96,388.62c.17-.4.95-.77,1-1-.28.37-.78.66-1,1Z"/>
    <path class="st6" d="M359.96,390.61c.31-.51.51-1.23,1-2-.34.78-.36,1.2-1,2Z"/>
    <path class="st6" d="M358.97,391.61c.22-.39.79-.66,1-1-.3.37-.65.68-1,1Z"/>
    <path class="st0" d="M362.96,403.58c2.75,5.28-.73,1.97-1,2-.03-.86.73-1.42,1-2Z"/>
    <path class="st10" d="M172.41,186.07c2.09-6.85-1.72-11.4,7.62-11.91,2.15-.12,3.82.9,5.74.85,4.29-.11,10-3.06,13.51,1.72,1.34,4.62-12.93,8.96-16.41,9.34s-7.05-.22-10.46,0Z"/>
    <path class="st10" d="M173.41,170.11l-.9-13.86c26.22-7.58,20.52,9.87.9,13.86Z"/>
    <path class="st10" d="M334.03,152.16c-.2,1.55,2.19,4.09,3.99,3.99.63,3.96,3.32,7.44,3.04,12.44-.24,4.39-2.2,6.45-4.04,9.51l-1,2c-.78.97-1.12,1.23-2,2-4.67,1.12-17.2,4.55-20.95,1-.21-.2-1.84-4.86-1.94-5.55-1.33-9.24,2.09-18.37,7.92-25.38,3.18-1.43,11.4-.68,14.96,0Z"/>
    <path class="st6" d="M313.08,183.09c3.75,3.55,16.28.12,20.95-1-4.97,4.34-14.28,6.75-20.29,3.04-.93-.58-.55-1.93-.66-2.04-1-.99-2.51.41-3.56-3.93-2.02-8.35,1.18-23.25,9.54-27-5.84,7.02-9.25,16.15-7.92,25.38.1.68,1.72,5.34,1.94,5.55Z"/>
    <path class="st6" d="M334.03,152.16c7.91,1.52,3.51.94,3.99,3.99-1.8.1-4.19-2.44-3.99-3.99Z"/>
    <path class="st6" d="M336.02,180.09l1-2c-.31.52-.25,1.07-1,2Z"/>
    <path class="st10" d="M223.29,151.16c4.52-.38,9.4.27,13.97,0,1.15.68,1.27,1.15,2,2,1.51,6.77,2.81,15.91-.98,22.23-.78,1.3-6.19,1.91-7,4.71-.33.04-.67-.02-1,0-6.22.41-11.27.41-14.96-4.99-.38-.9-1.59-1.22-1.95-3.51-.38-2.42-.36-7.96-.05-10.46,2.77.68,3.43-5.5,3.99-7.98.34-.25.6-.81,1-1,.19-.09,3.61-.95,3.99-1,.33-.04.67.03,1,0Z"/>
    <path class="st15" d="M231.27,180.09c.81-2.79,6.22-3.4,7-4.71,3.79-6.32,2.49-15.46.98-22.23,7.3,8.52,3.91,25.46-7.98,26.94Z"/>
    <path class="st15" d="M237.26,151.16c-4.57.27-9.45-.38-13.97,0-.52-3.25,1.5-1.76,3.36-1.82,4.39-.14,6.66-.53,10.61,1.82Z"/>
    <path class="st6" d="M215.31,175.1c3.69,5.39,8.75,5.4,14.96,4.99-2.59,3.61-11.41,1.33-13.69-1.29-1.03-1.19-.79-2.56-1.28-3.7Z"/>
    <path class="st6" d="M217.3,153.15c-.56,2.48-1.23,8.66-3.99,7.98.38-3.08,1.47-6.1,3.99-7.98Z"/>
    <path class="st6" d="M222.29,151.16c-.38.05-3.81.91-3.99,1,.49-1.66,1.77-2.27,3.44-1.97l.55.97Z"/>
    <path class="st8" d="M351.98,358.67c-11.81-.17-11.89,13.73-15.79,22.63-21.03,48.09-114.69,54.93-158.98,44.91-13.26-3-37.54-12.14-47.24-21.6-8.94-8.72-11.72-28.06-9.44-39.95-1.49-1.6-12.3,6.81-11.01-.44.13-.72,4.31-2.46,5.37-2.73,8.98-2.27,24.76,4.49,34.57,6.66,45.17,10,85.69,15.03,131.52,4.8,15.89-3.55,54.65-19.75,67.5-17.25,1.6.31,3.02,1.38,3.51,2.96ZM339.01,360.69c-1.3-.93-16.74,3.8-17.5,4.94-1.3,1.95-.06,11.03-.54,14.42-1.73,12.22-22.3,21.19-32.89,16.11-8.9-4.27-8.73-16.37-9.99-17.45-.41-.35-8.55.66-8.86.98-1.09,1.12,2.98,14.77-6.7,21.74-7.16,5.15-23.22,6.92-30.97,2.37s-7.21-20.05-8.28-21.15c-.43-.44-9.55.32-11.39-.02-.62,12.09-.26,18.85-12.99,23.02-23.73,7.76-40.91-4.8-32.47-29.96-12.09-3.95-8.64,1.92-12.42,9.01-4.92,9.22-13.31,8.77-22.02,9.92-1.26.17-1.86-.48-1.49,1.51,1.32,7.23,31.47,19.89,38.67,22.2,42.83,13.7,102.81,7.55,141.59-15.55,17.14-10.21,21.82-24.07,28.26-42.07ZM153.45,372.67l-27.88-6.96c-2.1,11.52-3.38,25.41,12.31,23.8,11.09-1.14,11.88-8.08,15.57-16.84ZM317.06,367.66l-34.92,8.99c2.98,29.46,40.1,15.69,34.92-8.99ZM206.32,381.64l-35.88-4.98c-5.52,20.62,5.58,30.7,25.69,24.2,10.79-3.48,10.68-8.66,10.19-19.22ZM265.19,380.63c-.86-.86-15.98,1.83-18.47,1.99-5.71.37-12.57-.71-17.97,0-1.44.19-1.68-.57-1.43,1.44,1.32,10.92,5.05,18.59,17.15,18.24,13.59-.39,21.86-7.56,20.73-21.68ZM129.01,393.61v1c.65-.33.65-.67,0-1Z"/>
    <path class="st0" d="M361.96,387.62c.52-.7,6.05-8.52,4.93-3.56-.52,2.29-9.47,17.91-11.91,15.53.42-2.05,2.61-3.5,3.45-5.06.61-1.14.36-2.58.54-2.91.34-.32.7-.63,1-1,.64-.79.66-1.21,1-2,.22-.34.72-.62,1-1Z"/>
    <path class="st0" d="M361.96,387.62c-.05.23-.83.6-1,1-.49.77-.69,1.48-1,2-.21.34-.77.61-1,1-1.2,1.12-3.26,3.06-4.98,2.99-1.19-1.22,5.78-9.93,7.48-10.96.84.41.66,3.24.49,3.99Z"/>
    <path class="st12" d="M339.01,360.69c-6.44,17.99-11.12,31.86-28.26,42.07-38.78,23.1-98.76,29.25-141.59,15.55-7.2-2.3-37.34-14.97-38.67-22.2-.36-1.99.24-1.34,1.49-1.51,8.71-1.15,17.1-.71,22.02-9.92,3.79-7.09.33-12.96,12.42-9.01-8.44,25.16,8.74,37.73,32.47,29.96,12.73-4.17,12.37-10.92,12.99-23.02,1.84.34,10.96-.42,11.39.02,1.07,1.1.5,16.59,8.28,21.15s23.81,2.78,30.97-2.37c9.68-6.97,5.61-20.61,6.7-21.74.31-.32,8.45-1.33,8.86-.98,1.25,1.08,1.08,13.18,9.99,17.45,10.59,5.08,31.16-3.89,32.89-16.11.48-3.39-.76-12.47.54-14.42.76-1.14,16.2-5.87,17.5-4.94Z"/>
    <path class="st7" d="M206.32,381.64c.49,10.56.6,15.74-10.19,19.22-20.12,6.49-31.21-3.58-25.69-24.2l35.88,4.98Z"/>
    <path class="st7" d="M265.19,380.63c1.13,14.12-7.13,21.29-20.73,21.68-12.1.35-15.82-7.32-17.15-18.24-.24-2.01,0-1.25,1.43-1.44,5.41-.72,12.27.36,17.97,0,2.49-.16,17.61-2.85,18.47-1.99Z"/>
    <path class="st7" d="M317.06,367.66c5.19,24.68-31.94,38.45-34.92,8.99l34.92-8.99Z"/>
    <path class="st7" d="M153.45,372.67c-3.68,8.75-4.48,15.7-15.57,16.84-15.69,1.61-14.42-12.29-12.31-23.8l27.88,6.96Z"/>
    <path class="st12" d="M129.01,393.61c.65.33.65.67,0,1v-1Z"/>
  </g>
  <path class="st11" d="M131.68,301.61s-.13-27.99,36.03-39.4c36.16-11.41,72.51,26.84,72.51,26.84,0,0,12.46,7.86,7.08,29.63"/>
</svg>