<svg xmlns="http://www.w3.org/2000/svg" version="1.1" width="200" height="200" viewBox="0 0 200 200" style="shape-rendering:geometricPrecision; text-rendering:geometricPrecision; image-rendering:optimizeQuality; fill-rule:evenodd; clip-rule:evenodd" xmlns:xlink="http://www.w3.org/1999/xlink">
<g><path style="opacity:1" fill="#8fc8c1" d="M -0.5,-0.5 C 66.1667,-0.5 132.833,-0.5 199.5,-0.5C 199.5,66.1667 199.5,132.833 199.5,199.5C 132.833,199.5 66.1667,199.5 -0.5,199.5C -0.5,132.833 -0.5,66.1667 -0.5,-0.5 Z"/></g>
<g><path style="opacity:1" fill="#091312" d="M 98.5,34.5 C 100.716,35.2026 102.549,36.5359 104,38.5C 106.5,42.3333 109,46.1667 111.5,50C 117.363,49.2832 123.196,49.4498 129,50.5C 130.047,57.8921 129.214,65.0588 126.5,72C 129.037,77.5512 132.037,82.8845 135.5,88C 133.129,90.706 130.463,93.0394 127.5,95C 132.086,95.1971 136.586,95.6971 141,96.5C 152.276,113.221 162.109,130.721 170.5,149C 170.167,150.167 169.833,151.333 169.5,152.5C 122.636,152.527 75.8029,152.527 29,152.5C 28.0885,148.548 28.7552,144.881 31,141.5C 39.3719,125.808 48.5385,110.641 58.5,96C 62.8333,95.6667 67.1667,95.3333 71.5,95C 68.5372,93.0394 65.8706,90.706 63.5,88C 66.7801,82.7677 69.7801,77.4344 72.5,72C 70.9603,67.0488 69.627,62.0488 68.5,57C 68.6313,54.7473 69.1313,52.5806 70,50.5C 75.769,49.7541 81.6024,49.5875 87.5,50C 90.8078,44.5406 94.4744,39.3739 98.5,34.5 Z"/></g>
<g><path style="opacity:1" fill="#47c899" d="M 98.5,37.5 C 100.951,39.1226 102.951,41.2893 104.5,44C 101.167,44.6667 97.8333,44.6667 94.5,44C 96.2318,42.0281 97.5652,39.8614 98.5,37.5 Z"/></g>
<g><path style="opacity:1" fill="#42c197" d="M 92.5,46.5 C 94.8333,46.5 97.1667,46.5 99.5,46.5C 99.4208,47.9305 99.7542,49.2638 100.5,50.5C 94.7372,52.2698 89.7372,55.2698 85.5,59.5C 86.8984,55.0573 89.2317,50.724 92.5,46.5 Z"/></g>
<g><path style="opacity:1" fill="#42c197" d="M 101.5,46.5 C 103.199,46.3398 104.866,46.5065 106.5,47C 109.917,50.6707 112.083,54.8374 113,59.5C 109.816,55.9959 105.982,53.6626 101.5,52.5C 101.5,50.5 101.5,48.5 101.5,46.5 Z"/></g>
<g><path style="opacity:1" fill="#3db48e" d="M 71.5,51.5 C 76.2153,51.506 80.882,52.006 85.5,53C 83.2994,54.0432 80.9661,54.8765 78.5,55.5C 80.1561,57.4122 80.4895,59.4122 79.5,61.5C 76.3466,58.5099 73.68,55.1766 71.5,51.5 Z"/></g>
<g><path style="opacity:1" fill="#3cb38d" d="M 116.5,51.5 C 120.226,51.1774 123.893,51.5108 127.5,52.5C 124.805,55.5256 122.138,58.5256 119.5,61.5C 118.511,59.4122 118.844,57.4122 120.5,55.5C 118.034,54.8765 115.701,54.0432 113.5,53C 114.737,52.7679 115.737,52.2679 116.5,51.5 Z"/></g>
<g><path style="opacity:1" fill="#e2e2e2" d="M 94.5,57.5 C 96.1408,59.2029 97.1408,61.3695 97.5,64C 99.1124,64.7203 100.612,64.5536 102,63.5C 102.192,61.4233 102.692,59.4233 103.5,57.5C 111.412,60.7928 111.412,63.9595 103.5,67C 97.7842,68.5459 93.1176,67.0459 89.5,62.5C 91.3936,61.0546 93.0603,59.3879 94.5,57.5 Z"/></g>
<g><path style="opacity:1" fill="#fefefe" d="M 98.5,59.5 C 100.337,59.6395 100.67,60.3061 99.5,61.5C 98.7025,61.0431 98.3691,60.3764 98.5,59.5 Z"/></g>
<g><path style="opacity:1" fill="#30a087" d="M 73.5,77.5 C 74.552,77.3505 75.552,77.5172 76.5,78C 75.4086,80.0639 75.2419,82.2305 76,84.5C 77.2022,82.3225 77.7022,79.9892 77.5,77.5C 78.791,77.2627 79.791,77.596 80.5,78.5C 78.5054,79.2333 78.3387,79.9 80,80.5C 83.0922,79.076 85.9255,77.2426 88.5,75C 87.1667,75 85.8333,75 84.5,75C 85.8333,74 87.1667,73 88.5,72C 84.2169,73.2595 79.8836,74.4262 75.5,75.5C 77.551,70.4051 80.3844,65.7385 84,61.5C 87.9134,65.2099 92.4134,68.0432 97.5,70C 96.2532,71.4579 96.2532,72.9579 97.5,74.5C 94.3907,76.3878 91.0573,77.7211 87.5,78.5C 86.1667,79.1667 86.1667,79.8333 87.5,80.5C 91.4317,78.9672 95.4317,77.6339 99.5,76.5C 103.29,77.9302 107.124,79.2635 111,80.5C 113,79.8333 113,79.1667 111,78.5C 107.595,77.6456 104.429,76.3123 101.5,74.5C 102.747,72.9579 102.747,71.4579 101.5,70C 106.989,68.2706 111.322,65.1039 114.5,60.5C 117.734,64.6218 120.734,68.9551 123.5,73.5C 119.181,74.9775 115.181,74.3108 111.5,71.5C 111.167,71.6667 110.833,71.8333 110.5,72C 115.97,75.0918 115.637,76.0918 109.5,75C 112.826,77.72 116.493,79.3867 120.5,80C 119.167,79 117.833,78 116.5,77C 119.554,76.1786 122.554,76.3452 125.5,77.5C 126.58,79.9962 127.914,82.3295 129.5,84.5C 120.19,85.4983 110.857,85.8316 101.5,85.5C 101.785,83.712 101.452,82.0453 100.5,80.5C 99.9478,82.0026 99.9478,83.6693 100.5,85.5C 90.1452,85.8319 79.8119,85.4986 69.5,84.5C 71.0981,82.3021 72.4314,79.9687 73.5,77.5 Z"/></g>
<g><path style="opacity:1" fill="#132e27" d="M 111.5,69.5 C 112.097,68.8614 112.93,68.528 114,68.5C 116.737,68.3757 117.571,69.3757 116.5,71.5C 114.805,70.8256 113.138,70.1589 111.5,69.5 Z"/></g>
<g><path style="opacity:1" fill="#0c1814" d="M 82.5,68.5 C 88.3239,68.3466 88.6572,69.0133 83.5,70.5C 81.279,70.5613 80.9456,69.8946 82.5,68.5 Z"/></g>
<g><path style="opacity:1" fill="#164339" d="M 73.5,77.5 C 76.3035,76.3622 79.3035,76.1955 82.5,77C 81.9558,77.7172 81.2891,78.2172 80.5,78.5C 79.791,77.596 78.791,77.2627 77.5,77.5C 77.7022,79.9892 77.2022,82.3225 76,84.5C 75.2419,82.2305 75.4086,80.0639 76.5,78C 75.552,77.5172 74.552,77.3505 73.5,77.5 Z"/></g>
<g><path style="opacity:1" fill="#042b25" d="M 85.5,88.5 C 94.8393,88.3335 104.173,88.5002 113.5,89C 112.833,90 112.167,91 111.5,92C 103.13,92.6842 94.7969,92.3509 86.5,91C 85.7476,90.3292 85.4142,89.4959 85.5,88.5 Z"/></g>
<g><path style="opacity:1" fill="#024139" d="M 74.5,94.5 C 76.3035,93.838 78.3035,93.5046 80.5,93.5C 83.0373,93.3967 85.3706,93.8967 87.5,95C 83.0804,95.7684 78.7471,95.6018 74.5,94.5 Z"/></g>
<g><path style="opacity:1" fill="#024038" d="M 88.5,93.5 C 95.9209,93.1095 103.254,93.6095 110.5,95C 106.833,95.1667 103.167,95.3333 99.5,95.5C 95.4348,95.4888 91.7681,94.8222 88.5,93.5 Z"/></g>
<g><path style="opacity:1" fill="#1d817b" d="M 151.5,119.5 C 150.5,119.5 149.5,119.5 148.5,119.5C 147.833,119.5 147.167,119.5 146.5,119.5C 146.768,117.901 146.434,116.568 145.5,115.5C 145.251,113.064 144.251,111.064 142.5,109.5C 142.167,109.833 141.833,110.167 141.5,110.5C 142.747,112.323 143.414,114.323 143.5,116.5C 128.676,117.496 113.676,117.829 98.5,117.5C 98.8134,114.753 98.48,112.086 97.5,109.5C 96.2706,112.199 96.2706,114.865 97.5,117.5C 90.1667,117.5 82.8333,117.5 75.5,117.5C 75.5,116.167 75.5,114.833 75.5,113.5C 75.719,112.325 75.3857,111.325 74.5,110.5C 73.5713,111.689 73.238,113.022 73.5,114.5C 72.596,115.209 72.2627,116.209 72.5,117.5C 64.6484,117.825 56.9818,117.492 49.5,116.5C 52.1779,110.315 55.5113,104.481 59.5,99C 62.5,98.3333 65.5,98.3333 68.5,99C 67.7599,100.785 67.0933,102.618 66.5,104.5C 63.3595,105.091 60.3595,105.924 57.5,107C 84.5,107.667 111.5,107.667 138.5,107C 135.833,106.667 133.167,106.333 130.5,106C 129.565,103.619 129.232,101.119 129.5,98.5C 132.85,98.335 136.183,98.5017 139.5,99C 143.902,105.642 147.902,112.475 151.5,119.5 Z"/></g>
<g><path style="opacity:1" fill="#228c81" d="M 107.5,98.5 C 114.167,98.5 120.833,98.5 127.5,98.5C 127.292,100.92 127.626,103.253 128.5,105.5C 121.569,105.776 114.569,105.776 107.5,105.5C 107.5,103.167 107.5,100.833 107.5,98.5 Z"/></g>
<g><path style="opacity:1" fill="#208479" d="M 88.5,98.5 C 94.5,98.5 100.5,98.5 106.5,98.5C 106.5,100.833 106.5,103.167 106.5,105.5C 100.167,105.5 93.8333,105.5 87.5,105.5C 87.298,103.05 87.6314,100.717 88.5,98.5 Z"/></g>
<g><path style="opacity:1" fill="#238e83" d="M 69.5,98.5 C 75.1667,98.5 80.8333,98.5 86.5,98.5C 86.0074,100.806 85.6741,103.139 85.5,105.5C 79.8333,105.5 74.1667,105.5 68.5,105.5C 68.6741,103.139 69.0074,100.806 69.5,98.5 Z"/></g>
<g><path style="opacity:1" fill="#020a09" d="M 98.5,117.5 C 114.335,118.363 130.335,119.029 146.5,119.5C 147.167,119.5 147.833,119.5 148.5,119.5C 115.669,120.664 82.6692,120.831 49.5,120C 57.4954,119.357 65.4954,118.857 73.5,118.5C 73.5,117.167 73.5,115.833 73.5,114.5C 73.238,113.022 73.5713,111.689 74.5,110.5C 75.3857,111.325 75.719,112.325 75.5,113.5C 74.5489,114.919 74.2155,116.585 74.5,118.5C 82.3516,118.825 90.0182,118.492 97.5,117.5C 96.2706,114.865 96.2706,112.199 97.5,109.5C 98.48,112.086 98.8134,114.753 98.5,117.5 Z"/></g>
<g><path style="opacity:1" fill="#071817" d="M 119.5,110.5 C 120.693,110.97 121.36,111.97 121.5,113.5C 121.167,114.5 120.833,115.5 120.5,116.5C 119.534,114.604 119.201,112.604 119.5,110.5 Z"/></g>
<g><path style="opacity:1" fill="#061111" d="M 145.5,115.5 C 145.591,117.698 144.925,118.031 143.5,116.5C 143.414,114.323 142.747,112.323 141.5,110.5C 141.833,110.167 142.167,109.833 142.5,109.5C 144.251,111.064 145.251,113.064 145.5,115.5 Z"/></g>
<g><path style="opacity:1" fill="#0d4342" d="M 75.5,113.5 C 75.5,114.833 75.5,116.167 75.5,117.5C 82.8333,117.5 90.1667,117.5 97.5,117.5C 90.0182,118.492 82.3516,118.825 74.5,118.5C 74.2155,116.585 74.5489,114.919 75.5,113.5 Z"/></g>
<g><path style="opacity:1" fill="#135f5e" d="M 145.5,115.5 C 146.434,116.568 146.768,117.901 146.5,119.5C 130.335,119.029 114.335,118.363 98.5,117.5C 113.676,117.829 128.676,117.496 143.5,116.5C 144.925,118.031 145.591,117.698 145.5,115.5 Z"/></g>
<g><path style="opacity:1" fill="#137075" d="M 73.5,114.5 C 73.5,115.833 73.5,117.167 73.5,118.5C 65.4954,118.857 57.4954,119.357 49.5,120C 82.6692,120.831 115.669,120.664 148.5,119.5C 149.5,119.5 150.5,119.5 151.5,119.5C 153.653,121.794 155.32,124.46 156.5,127.5C 152.03,128.486 147.363,128.819 142.5,128.5C 141.836,126.513 140.669,124.846 139,123.5C 139.347,126.725 140.181,129.892 141.5,133C 132.84,133.5 124.173,133.666 115.5,133.5C 115.938,130.107 115.105,127.107 113,124.5C 112.687,127.595 113.187,130.595 114.5,133.5C 104.522,134.499 94.5222,134.832 84.5,134.5C 84.7878,131.134 84.9545,127.8 85,124.5C 83.3956,127.247 82.5622,130.247 82.5,133.5C 73.1429,133.832 63.8096,133.498 54.5,132.5C 55.8129,129.595 56.3129,126.595 56,123.5C 54.8797,125.03 54.0464,126.697 53.5,128.5C 49.6286,128.815 45.9619,128.482 42.5,127.5C 44.0875,123.317 46.4208,119.65 49.5,116.5C 56.9818,117.492 64.6484,117.825 72.5,117.5C 72.2627,116.209 72.596,115.209 73.5,114.5 Z"/></g>
<g><path style="opacity:1" fill="#095e6b" d="M 42.5,127.5 C 45.9619,128.482 49.6286,128.815 53.5,128.5C 53.5,130.167 53.5,131.833 53.5,133.5C 49.0505,133.421 44.7171,134.088 40.5,135.5C 42.6667,135.833 44.8333,136.167 47,136.5C 64.2095,135.039 81.3762,135.205 98.5,137C 97.1969,140.468 97.1969,143.968 98.5,147.5C 87.2342,149.178 75.9009,149.845 64.5,149.5C 65.7557,145.913 66.2557,142.246 66,138.5C 64.1013,141.876 63.268,145.543 63.5,149.5C 52.8414,150.043 42.1747,150.377 31.5,150.5C 33.8157,142.201 37.4824,134.535 42.5,127.5 Z"/></g>
<g><path style="opacity:1" fill="#0b636f" d="M 156.5,127.5 C 159.991,132.474 162.991,137.808 165.5,143.5C 164.082,145.308 162.082,145.975 159.5,145.5C 158.052,143.445 156.719,141.278 155.5,139C 154.184,138.472 153.517,138.972 153.5,140.5C 146.825,140.666 140.158,140.5 133.5,140C 132.874,139.25 132.374,138.416 132,137.5C 131.503,140.146 131.336,142.813 131.5,145.5C 121.167,145.5 110.833,145.5 100.5,145.5C 100.806,142.615 100.473,139.948 99.5,137.5C 119.004,136.833 138.671,136.167 158.5,135.5C 153.248,134.177 147.915,133.51 142.5,133.5C 142.5,131.833 142.5,130.167 142.5,128.5C 147.363,128.819 152.03,128.486 156.5,127.5 Z"/></g>
<g><path style="opacity:1" fill="#020d0f" d="M 159.5,145.5 C 161.095,147.374 160.761,148.207 158.5,148C 157.182,145.176 155.515,142.676 153.5,140.5C 153.517,138.972 154.184,138.472 155.5,139C 156.719,141.278 158.052,143.445 159.5,145.5 Z"/></g>
<g><path style="opacity:1" fill="#065768" d="M 99.5,137.5 C 100.473,139.948 100.806,142.615 100.5,145.5C 110.833,145.5 121.167,145.5 131.5,145.5C 131.336,142.813 131.503,140.146 132,137.5C 132.374,138.416 132.874,139.25 133.5,140C 140.158,140.5 146.825,140.666 153.5,140.5C 155.515,142.676 157.182,145.176 158.5,148C 160.761,148.207 161.095,147.374 159.5,145.5C 162.082,145.975 164.082,145.308 165.5,143.5C 167.163,145.438 167.829,147.772 167.5,150.5C 144.825,149.949 122.158,149.282 99.5,148.5C 99.5,144.833 99.5,141.167 99.5,137.5 Z"/></g>
</svg>
