<svg version="1.1" id="Layer_1" xmlns="http://www.w3.org/2000/svg" x="0px" y="0px"
	 viewBox="0 0 1000 1000" style="enable-background:new 0 0 1000 1000;">
<style type="text/css">
	.st0{fill:#18453F;}
	.st1{fill:#010101;}
	.st2{fill:#0C8542;}
	.st3{fill:#2FB44A;}
	.st4{fill:#8EC73F;}
</style>
<g>
	<rect y="2.1" class="st0" width="1000" height="995.8"/>
	<g>
		<path class="st1" d="M48.7,595c-7.9,0-15.8,0-23.7,0c0-15.8,0-31.7,0-47.5c70.2,0,140.3,0,210.5,0.1c2.6,0,3.5-0.6,3.4-3.3
			c-0.2-6.8-0.1-13.7-0.1-20.5l0,0c6.9,0,13.8,0.1,20.8,0c2.3,0,3.1,0.5,3,2.9c-0.2,6.1,0,12.3-0.1,18.4c0,1.9,0.5,2.6,2.5,2.5
			c6.2-0.1,12.5,0,18.7-0.1c2.1,0,2.7,0.6,2.6,2.7c-0.1,6,0.1,12.1-0.1,18.1c-0.1,2.6,0.8,3.1,3.2,3.1c5.9-0.2,11.9,0,17.8-0.1
			c2.1,0,2.9,0.4,2.9,2.8c-0.2,7-0.1,14-0.1,21.1l0,0c-14.8,0-29.7-0.1-44.5,0.1c-2.6,0-3.1-0.8-3-3.2c0.2-5.6-0.1-11.3,0.1-16.9
			c0.1-3-0.7-3.8-3.7-3.8c-68.8,0.1-137.5,0.1-206.3,0.1c-0.5,0-1,0.1-1.5,0c-1.9-0.3-2.4,0.6-2.3,2.4
			C48.8,580.7,48.8,587.9,48.7,595C48.8,595,48.7,595,48.7,595z"/>
		<path class="st1" d="M975,595c-7.9,0-15.8,0-23.7,0c0,0,0,0,0,0c0-6.7-0.1-13.5,0.1-20.2c0.1-2.8-0.6-3.6-3.6-3.6
			c-46.3,0.1-92.6,0.1-138.9,0.1c-22.8,0-45.5,0-68.3-0.1c-2.5,0-3.2,0.7-3.1,3.1c0.2,5.8,0,11.7,0.1,17.5c0.1,2.4-0.4,3.2-3,3.2
			c-14.8-0.1-29.7-0.1-44.5-0.1l0,0c0-7,0.1-14-0.1-21.1c-0.1-2.3,0.8-2.8,2.9-2.8c5.9,0.1,11.9-0.1,17.8,0.1
			c2.4,0.1,3.3-0.5,3.2-3.1c-0.2-6,0-12.1-0.1-18.1c0-2.1,0.5-2.7,2.6-2.7c6.2,0.1,12.5,0,18.7,0.1c2,0,2.5-0.6,2.5-2.5
			c-0.1-6.1,0.1-12.3-0.1-18.4c-0.1-2.4,0.8-3,3-2.9c6.9,0.1,13.8,0,20.8,0c0,0,0,0,0,0c0,7,0.1,14.1-0.1,21.1
			c-0.1,2.3,0.6,2.7,2.8,2.7c28.3-0.1,56.6-0.1,84.9-0.1c42.1,0,84.1,0,126.2,0C975,563.3,975,579.2,975,595z"/>
		<path class="st1" d="M381.3,428.7c7,0,14-0.1,21.1,0.1c2.3,0.1,2.7-0.6,2.7-2.8c-0.1-45.4,0-90.8-0.1-136.2c0-2.9,0.6-3.8,3.6-3.7
			c6.7,0.3,13.5,0.1,20.2,0.1l0,0c0,62.4,0,124.7-0.1,187.1c0,2.4,0.7,3,3,3c6.9-0.1,13.8,0,20.8,0c0,15.8,0,31.6,0,47.4
			c-7,0-14,0-21.1,0.1c-2.1,0-2.7-0.5-2.7-2.6c0.1-6.2,0-12.5,0.1-18.7c0-2-0.6-2.5-2.5-2.5c-6.2,0.1-12.5,0-18.7,0.1
			c-2.1,0-2.7-0.7-2.6-2.7c0.1-6-0.1-12.1,0.1-18.1c0.1-2.6-0.8-3.1-3.2-3.1c-5.6,0.2-11.3-0.1-16.9,0.1c-2.9,0.1-3.8-0.5-3.8-3.7
			C381.4,458,381.2,443.4,381.3,428.7L381.3,428.7z"/>
		<path class="st1" d="M571.3,286.2c7,0,14,0.1,21.1,0c2.3-0.1,2.7,0.6,2.7,2.8c-0.1,45.4,0,90.8-0.1,136.2c0,2.9,0.6,3.8,3.6,3.7
			c6.7-0.3,13.5-0.1,20.2-0.1l0,0c0,14.6-0.1,29.3,0.1,43.9c0,3.1-0.9,3.8-3.8,3.7c-5.6-0.2-11.3,0-16.9-0.1
			c-2.4-0.1-3.3,0.5-3.2,3.1c0.2,6,0,12.1,0.1,18.1c0,2-0.5,2.7-2.6,2.7c-6.2-0.1-12.5,0-18.7-0.1c-1.9,0-2.6,0.5-2.5,2.5
			c0.1,6.2,0,12.5,0.1,18.7c0,2.1-0.6,2.7-2.7,2.6c-7-0.1-14-0.1-21.1-0.1c0-15.8,0-31.6,0-47.4c6.9,0,13.8-0.1,20.8,0
			c2.3,0,3-0.6,3-2.9C571.2,411,571.2,348.6,571.3,286.2L571.3,286.2z"/>
		<path class="st1" d="M143.7,333.8c-7.2,0-14.4-0.1-21.7,0c-1.7,0-2.1-0.5-2.1-2.1c0-46.1,0-92.2,0-138.3c0-1.7,0.4-2.1,2.1-2.1
			c22.4,0.1,44.7,0.1,67.1,0c2.1,0,2.1,0.8,2.1,2.4c0,15,0,30.1,0,45.1c0,0,0,0,0,0c-7,0-14-0.1-21.1,0c-2,0-2.8-0.5-2.7-2.6
			c0.1-6.2,0-12.5,0.1-18.7c0-2-0.6-2.5-2.5-2.5c-6.1,0.1-12.3,0.2-18.4,0c-2.5-0.1-2.9,0.8-2.9,3
			C143.8,256.6,143.8,295.1,143.7,333.8L143.7,333.8z"/>
		<path class="st1" d="M832.5,215c0-7.2,0.1-14.4,0-21.7c0-1.7,0.5-2.1,2.1-2.1c14.4,0.1,28.9,0.1,43.3,0c1.7,0,2.1,0.5,2.1,2.1
			c0,46.1,0,92.2,0,138.3c0,1.6-0.4,2.2-2.1,2.1c-7.2-0.1-14.4,0-21.7,0c0,0,0,0,0,0c0-38.6,0-77.3,0.1-115.9c0-2.5-0.8-2.9-3-2.9
			C846.3,215.1,839.4,215,832.5,215L832.5,215z"/>
		<path class="st1" d="M428.7,286.2c0-38.6,0-77.2,0-115.7c0-2.4,0.5-3.1,3-3.1c6.9,0.2,13.8,0.1,20.8,0l0,0c0,23.8,0,47.5,0.1,71.3
			c0,1.3-0.1,2.6-0.1,3.8c0,14.5,0,29-0.1,43.6C444.6,286.2,436.7,286.2,428.7,286.2L428.7,286.2z"/>
		<path class="st1" d="M547.5,167.5c7,0,14,0.1,21.1,0c2.3-0.1,2.7,0.6,2.7,2.8c-0.1,38.1-0.1,76.2-0.1,114.3c0,0.6,0,1.2,0,1.8l0,0
			c-7.9,0-15.8,0-23.7-0.1c0-1.7-0.1-3.4-0.1-5c0-14.1-0.1-28.3-0.1-42.4C547.4,215,547.5,191.3,547.5,167.5L547.5,167.5z"/>
		<path class="st1" d="M452.5,167.5c0-30.7,0-61.3,0-92c0-2.4,0.5-3.1,3-3.1c6.9,0.2,13.8,0.1,20.8,0c0,0,0,0,0,0
			c0,30.4,0,60.8,0,91.3c0,2.9-0.5,3.9-3.7,3.8C466,167.3,459.2,167.5,452.5,167.5L452.5,167.5z"/>
		<path class="st1" d="M523.8,72.5c7,0,14,0.1,21.1,0c2.3-0.1,2.7,0.6,2.7,2.8c-0.1,30.8,0,61.5,0,92.3c0,0,0,0,0,0
			c-6.7,0-13.4-0.2-20.1,0.1c-3.2,0.1-3.7-1-3.7-3.8C523.8,133.4,523.7,102.9,523.8,72.5L523.8,72.5z"/>
		<path class="st1" d="M856.3,333.8c0,22.7-0.1,45.5,0,68.2c0,2.4-0.5,3.1-3,3.1c-6.9-0.2-13.8-0.1-20.8,0c0,0,0,0,0,0
			c0-15.8,0-31.7-0.1-47.5c0.1-7.9,0.1-15.8,0.2-23.7C840.4,333.8,848.3,333.8,856.3,333.8L856.3,333.8z"/>
		<path class="st1" d="M167.5,405c-7,0-14-0.1-21.1,0c-2.2,0.1-2.7-0.6-2.7-2.7c0.1-22.8,0-45.7,0-68.5l0,0c7.9,0,15.8,0,23.7,0.1
			c0.1,7.9,0.1,15.8,0.2,23.7C167.6,373.3,167.6,389.1,167.5,405C167.5,405,167.5,405,167.5,405z"/>
		<path class="st1" d="M215,476.3c-7.1,0-14.2-0.1-21.4,0c-2,0-2.4-0.5-2.4-2.4c0.1-15,0-30.1,0-45.1l0,0c7.9,0,15.8,0.1,23.7,0.1
			C215,444.6,215,460.4,215,476.3L215,476.3z"/>
		<path class="st1" d="M808.8,428.8c0,14.9-0.1,29.9,0,44.8c0,2.2-0.5,2.8-2.7,2.7c-7-0.2-14,0-21.1,0c0,0,0,0,0,0
			c0-15.8,0.1-31.6,0.1-47.4C792.9,428.8,800.8,428.8,808.8,428.8C808.7,428.7,808.8,428.8,808.8,428.8z"/>
		<path class="st1" d="M476.2,72.5c0-7.2,0.1-14.4,0-21.7c0-1.7,0.5-2.1,2.1-2.1c14.4,0.1,28.9,0.1,43.3,0c1.7,0,2.2,0.4,2.1,2.1
			c-0.1,7.2,0,14.4,0,21.7c0,0,0,0,0,0C507.9,72.5,492.1,72.5,476.2,72.5C476.3,72.5,476.2,72.5,476.2,72.5z"/>
		<path class="st1" d="M785,476.3c0,14.9-0.1,29.9,0,44.8c0,2.2-0.5,2.8-2.7,2.7c-7-0.2-14,0-21.1,0l0,0c0-15.8,0.1-31.6,0.1-47.4
			C769.2,476.3,777.1,476.3,785,476.3L785,476.3z"/>
		<path class="st1" d="M238.7,523.8c-7.1,0-14.2-0.1-21.4,0c-2,0-2.4-0.5-2.4-2.4c0.1-15,0-30.1,0-45.1l0,0c7.9,0,15.8,0.1,23.7,0.1
			C238.7,492.1,238.7,507.9,238.7,523.8C238.8,523.7,238.7,523.8,238.7,523.8z"/>
		<path class="st1" d="M310,357.5c7.2,0,14.4,0.1,21.6,0c1.7,0,2.1,0.4,2.1,2.1c-0.1,7.2,0,14.4,0,21.6l0,0c-7.1,0-14.2-0.1-21.3,0
			c-1.9,0-2.5-0.6-2.5-2.5C310.1,371.7,310,364.6,310,357.5L310,357.5z"/>
		<path class="st1" d="M666.2,381.2c0-7.2,0.1-14.4,0-21.6c0-1.7,0.4-2.1,2.1-2.1c7.2,0.1,14.4,0,21.6,0l0,0c0,7.1-0.1,14.2,0,21.3
			c0,1.9-0.6,2.5-2.5,2.5C680.4,381.2,673.4,381.3,666.2,381.2C666.3,381.3,666.2,381.2,666.2,381.2z"/>
		<path class="st1" d="M333.8,381.2c7.2,0,14.4,0.1,21.6,0c1.7,0,2.1,0.4,2.1,2.1c-0.1,7.2,0,14.4,0,21.6l0,0
			c-7.1,0-14.2-0.1-21.3,0c-1.9,0-2.5-0.6-2.5-2.5C333.8,395.4,333.7,388.4,333.8,381.2L333.8,381.2z"/>
		<path class="st1" d="M642.5,405c0-7.2,0.1-14.4,0-21.6c0-1.7,0.4-2.1,2.1-2.1c7.2,0.1,14.4,0,21.6,0l0,0c0,7.1-0.1,14.2,0,21.3
			c0,1.9-0.6,2.5-2.5,2.5C656.7,404.9,649.6,405,642.5,405C642.5,405,642.5,405,642.5,405z"/>
		<path class="st1" d="M191.2,428.8c-7.2,0-14.4-0.1-21.6,0c-1.7,0-2.1-0.4-2.1-2.1c0.1-7.2,0-14.4,0-21.6l0,0
			c7.9,0,15.8,0.1,23.7,0.1C191.2,413,191.2,420.8,191.2,428.8C191.3,428.7,191.2,428.8,191.2,428.8z"/>
		<path class="st1" d="M357.5,405c7.2,0,14.4,0.1,21.6,0c1.7,0,2.1,0.4,2.1,2.1c-0.1,7.2,0,14.4,0,21.6l0,0c-7.1,0-14.2-0.1-21.3,0
			c-1.9,0-2.5-0.6-2.5-2.5C357.6,419.2,357.5,412.1,357.5,405L357.5,405z"/>
		<path class="st1" d="M618.7,428.7c0-7.2,0.1-14.4,0-21.6c0-1.7,0.4-2.1,2.1-2.1c7.2,0.1,14.4,0,21.6,0l0,0c0,7.1-0.1,14.2,0,21.3
			c0,1.9-0.6,2.5-2.5,2.5C632.9,428.7,625.9,428.8,618.7,428.7L618.7,428.7z"/>
		<path class="st1" d="M832.5,405c0,7.2-0.1,14.4,0,21.6c0,1.7-0.4,2.1-2.1,2.1c-7.2-0.1-14.4,0-21.6,0l0,0c0-7.9,0.1-15.8,0.1-23.7
			C816.7,405,824.6,405,832.5,405L832.5,405z"/>
		<path class="st1" d="M808.7,238.7c0-7.2,0.1-14.4,0-21.6c0-1.7,0.4-2.1,2.1-2.1c7.2,0.1,14.4,0,21.6,0l0,0c0,7.1-0.1,14.2,0,21.3
			c0,1.9-0.6,2.5-2.5,2.5C822.9,238.7,815.8,238.8,808.7,238.7L808.7,238.7z"/>
		<path class="st1" d="M191.3,238.7c7.2,0,14.4,0.1,21.6,0c1.7,0,2.1,0.4,2.1,2.1c-0.1,7.2,0,14.4,0,21.6l0,0
			c-7.1,0-14.2-0.1-21.3,0c-1.9,0-2.5-0.6-2.5-2.5C191.3,252.9,191.2,245.9,191.3,238.7L191.3,238.7z"/>
		<path class="st1" d="M785,262.5c0-7.2,0.1-14.4,0-21.6c0-1.7,0.4-2.1,2.1-2.1c7.2,0.1,14.4,0,21.6,0c0,0,0,0,0,0
			c0,7.1-0.1,14.2,0,21.3c0,1.9-0.6,2.5-2.5,2.5C799.2,262.4,792.1,262.5,785,262.5L785,262.5z"/>
		<path class="st1" d="M215,262.5c7.2,0,14.4,0.1,21.6,0c1.7,0,2.1,0.4,2.1,2.1c-0.1,7.2,0,14.4,0,21.6l0,0c-7.1,0-14.2-0.1-21.3,0
			c-1.9,0-2.5-0.6-2.5-2.5C215.1,276.7,215,269.6,215,262.5L215,262.5z"/>
		<path class="st1" d="M761.2,286.2c0-7.2,0.1-14.4,0-21.6c0-1.7,0.4-2.1,2.1-2.1c7.2,0.1,14.4,0,21.6,0l0,0c0,7.1-0.1,14.2,0,21.3
			c0,1.9-0.6,2.5-2.5,2.5C775.4,286.2,768.3,286.3,761.2,286.2C761.3,286.3,761.2,286.2,761.2,286.2z"/>
		<path class="st1" d="M238.8,286.2c7.2,0,14.4,0.1,21.6,0c1.7,0,2.1,0.4,2.1,2.1c-0.1,7.2,0,14.4,0,21.6l0,0
			c-7.1,0-14.2-0.1-21.3,0c-1.9,0-2.5-0.6-2.5-2.5C238.8,300.4,238.7,293.4,238.8,286.2L238.8,286.2z"/>
		<path class="st1" d="M737.5,310c0-7.2,0.1-14.4,0-21.6c0-1.7,0.4-2.1,2.1-2.1c7.2,0.1,14.4,0,21.6,0l0,0c0,7.1-0.1,14.2,0,21.3
			c0,1.9-0.6,2.5-2.5,2.5C751.7,309.9,744.6,310,737.5,310L737.5,310z"/>
		<path class="st1" d="M262.5,310c7.2,0,14.4,0.1,21.6,0c1.7,0,2.1,0.4,2.1,2.1c-0.1,7.2,0,14.4,0,21.6l0,0c-7.1,0-14.2-0.1-21.3,0
			c-1.9,0-2.5-0.6-2.5-2.5C262.6,324.2,262.5,317.1,262.5,310C262.5,310,262.5,310,262.5,310z"/>
		<path class="st1" d="M713.7,333.7c0-7.2,0.1-14.4,0-21.6c0-1.7,0.4-2.1,2.1-2.1c7.2,0.1,14.4,0,21.6,0l0,0c0,7.1-0.1,14.2,0,21.3
			c0,1.9-0.6,2.5-2.5,2.5C727.9,333.7,720.8,333.8,713.7,333.7L713.7,333.7z"/>
		<path class="st1" d="M286.3,333.7c7.2,0,14.4,0.1,21.6,0c1.7,0,2.1,0.4,2.1,2.1c-0.1,7.2,0,14.4,0,21.6l0,0
			c-7.1,0-14.2-0.1-21.3,0c-1.9,0-2.5-0.6-2.5-2.5C286.3,347.9,286.2,340.9,286.3,333.7L286.3,333.7z"/>
		<path class="st1" d="M690,357.5c0-7.2,0.1-14.4,0-21.6c0-1.7,0.4-2.1,2.1-2.1c7.2,0.1,14.4,0,21.6,0l0,0c0,7.1-0.1,14.2,0,21.3
			c0,1.9-0.6,2.5-2.5,2.5C704.2,357.4,697.1,357.5,690,357.5L690,357.5z"/>
		<path class="st1" d="M856.3,690c0,7.1-0.1,14.2,0,21.4c0,2-0.5,2.4-2.4,2.4c-14.1-0.1-28.3,0-42.4-0.1c-2.2,0-2.8,0.5-2.7,2.7
			c0.2,6.1-0.1,12.3,0.1,18.4c0.1,2.2-0.6,2.7-2.7,2.7c-37.6-0.1-75.2,0-112.8-0.1c-2.6,0-3.4,0.6-3.4,3.3
			c0.2,6.8,0.1,13.6,0.1,20.5l0,0c-6.9,0-13.8-0.1-20.8,0c-2.3,0-3.1-0.5-3-2.9c0.2-6.1,0-12.3,0.1-18.4c0-1.9-0.5-2.6-2.5-2.5
			c-6.2,0.1-12.5,0-18.7,0.1c-2.1,0-2.7-0.6-2.6-2.7c0.1-5.7,0-11.5,0-17.2c0-4.4-0.5-3.9,4-3.9c45.1,0,90.2,0,135.3,0.1
			c2.6,0,3.3-0.7,3.3-3.3c-0.2-6.8,0-13.6,0-20.5C808.8,690,832.5,690,856.3,690L856.3,690z"/>
		<path class="st1" d="M310,761.2c0-7-0.1-14.1,0.1-21.1c0.1-2.3-0.6-2.7-2.8-2.7c-37.6,0.1-75.2,0-112.8,0.1
			c-2.7,0-3.5-0.6-3.4-3.3c0.2-6,0-12.1,0.1-18.1c0-1.9-0.5-2.4-2.4-2.4c-14.1,0.1-28.3,0-42.4,0.1c-2.2,0-2.8-0.5-2.8-2.7
			c0.2-7,0-14,0-21.1l0,0c23.7,0,47.4,0.1,71.2,0.1c0,6.5,0,13.1,0.1,19.6c0,4.7-0.6,4.1,4.1,4.1c45.1,0,90.2,0,135.3,0
			c2.4,0,3.3,0.5,3.2,3.1c-0.2,6-0.1,12.1,0,18.1c0,2.1-0.5,2.7-2.6,2.7c-6.2-0.1-12.5,0-18.7-0.1c-2,0-2.5,0.6-2.5,2.5
			c0.1,6.1-0.1,12.3,0.1,18.4c0.1,2.4-0.8,3-3,2.9C323.9,761.2,316.9,761.3,310,761.2L310,761.2z"/>
		<path class="st1" d="M737.5,808.7c7.2,0,14.4,0.1,21.7,0c1.7,0,2.1,0.5,2.1,2.1c-0.1,14.4-0.1,28.9,0,43.3c0,2.5-1.3,2.1-2.8,2.1
			c-35.8,0-71.6,0-107.4,0c-25.6,0-51.2,0-76.9,0.1c-2.4,0-3.1-0.5-3.1-3c0.2-6.9,0.1-13.8,0-20.8l0,0c23.8,0,47.5,0,71.3-0.1
			c7.9,0,15.8,0,23.7,0c7.9,0,15.8,0,23.7,0c15.1,0,30.2,0,45.3,0.1c1.9,0,2.3-0.8,2.3-2.5C737.4,823,737.5,815.9,737.5,808.7
			L737.5,808.7z"/>
		<path class="st1" d="M428.8,832.5c0,7-0.1,14.1,0,21.1c0.1,2.3-0.6,2.7-2.8,2.7c-37-0.1-74-0.1-111-0.1c-24.5,0-49.1,0-73.6,0.1
			c-2.2,0-2.8-0.5-2.8-2.7c0.1-14.1,0.1-28.3,0-42.4c0-1.9,0.4-2.5,2.4-2.4c7.1,0.1,14.2,0,21.4,0l0,0c0,7.1,0,14.2,0,21.3
			c0,1.7,0.3,2.5,2.3,2.5c15.1-0.1,30.2-0.1,45.3-0.1c7.9,0,15.8,0,23.7,0c7.9,0,15.8,0,23.7,0C381.2,832.4,405,832.5,428.8,832.5
			L428.8,832.5z"/>
		<path class="st1" d="M571.2,832.5c-7,0-14,0.1-21.1-0.1c-2.3-0.1-2.7,0.6-2.7,2.8c0.1,29.8,0,59.5,0.1,89.3c0,2.4-0.5,3.1-3,3.1
			c-6.9-0.2-13.8-0.1-20.8,0l0,0c0-39.4,0-78.9,0-118.3c0-15,0.1-30-0.1-45.1c0-2.4,0.7-3,3-2.9c6.9,0.2,13.8,0.1,20.7,0.1
			c0,14.4,0,28.8,0.1,43.3c0,4.8-0.6,4.1,4.3,4.2c5.2,0,10.5,0.2,15.7-0.1c2.9-0.1,3.9,0.5,3.8,3.7
			C571.1,819,571.3,825.8,571.2,832.5L571.2,832.5z"/>
		<path class="st1" d="M476.2,927.5c-7,0-14-0.1-21.1,0c-2.3,0.1-2.7-0.6-2.7-2.8c0.1-29.8,0-59.5,0.1-89.3c0-2.4-0.5-3.1-3-3.1
			c-6.9,0.2-13.8,0.1-20.8,0.1l0,0c0-6.7,0.2-13.4-0.1-20.1c-0.1-3.2,1-3.8,3.8-3.7c5.2,0.2,10.5,0.1,15.7,0.1
			c4.9,0,4.3,0.6,4.3-4.2c0-14.4,0.1-28.8,0.1-43.3c6.6,0,13.2-0.1,19.9-0.1c4.2,0,3.8-0.5,3.8,3.8
			C476.3,819.2,476.3,873.3,476.2,927.5L476.2,927.5z"/>
		<path class="st1" d="M951.3,595c0,7.1-0.1,14.2,0,21.4c0,2-0.5,2.4-2.4,2.4c-15-0.1-30.1,0-45.1,0l0,0c0-6.9,0.1-13.8,0-20.7
			c-0.1-2.5,0.8-3.1,3.2-3.1C921.6,595,936.4,595,951.3,595L951.3,595z"/>
		<path class="st1" d="M96.2,618.8c-14.9,0-29.9-0.1-44.8,0c-2.2,0-2.8-0.5-2.7-2.7c0.2-7,0-14,0-21.1l0,0c14.9,0,29.8,0.1,44.7,0
			c2.2,0,2.9,0.5,2.9,2.8C96.2,604.7,96.3,611.7,96.2,618.8L96.2,618.8z"/>
		<path class="st1" d="M120,666.3c-7.1,0-14.2-0.1-21.4,0c-2,0-2.4-0.5-2.4-2.4c0.1-15,0-30.1,0-45.1l0,0c7.9,0,15.8,0.1,23.7,0.1
			C120,634.6,120,650.4,120,666.3L120,666.3z"/>
		<path class="st1" d="M903.8,618.8c0,14.9-0.1,29.9,0,44.8c0,2.2-0.5,2.8-2.7,2.7c-7-0.2-14,0-21.1,0l0,0c0-15.8,0.1-31.6,0.1-47.4
			C887.9,618.8,895.8,618.8,903.8,618.8L903.8,618.8z"/>
		<path class="st1" d="M523.8,927.5c0,7.2-0.1,14.4,0,21.7c0,1.7-0.5,2.1-2.1,2.1c-14.4-0.1-28.9-0.1-43.3,0c-1.7,0-2.2-0.4-2.1-2.1
			c0.1-7.2,0-14.4,0-21.7l0,0C492.1,927.5,507.9,927.5,523.8,927.5L523.8,927.5z"/>
		<path class="st1" d="M143.7,690c-7.2,0-14.4-0.1-21.6,0c-1.7,0-2.1-0.4-2.1-2.1c0.1-7.2,0-14.4,0-21.6l0,0
			c7.9,0,15.8,0.1,23.7,0.1C143.7,674.2,143.8,682.1,143.7,690L143.7,690z"/>
		<path class="st1" d="M880,666.3c0,7.2-0.1,14.4,0,21.6c0,1.7-0.4,2.1-2.1,2.1c-7.2-0.1-14.4,0-21.6,0l0,0c0-7.9,0.1-15.8,0.1-23.7
			C864.2,666.3,872.1,666.3,880,666.3L880,666.3z"/>
		<path class="st1" d="M286.2,785c0-7.2,0.1-14.4,0-21.6c0-1.7,0.4-2.1,2.1-2.1c7.2,0.1,14.4,0,21.6,0l0,0c0,7.1-0.1,14.2,0,21.3
			c0,1.9-0.6,2.5-2.5,2.5C300.5,784.9,293.4,785,286.2,785L286.2,785z"/>
		<path class="st1" d="M262.5,808.7c0-7.2,0.1-14.4,0-21.6c0-1.7,0.4-2.1,2.1-2.1c7.2,0.1,14.4,0,21.6,0l0,0c0,7.1-0.1,14.2,0,21.3
			c0,1.9-0.6,2.5-2.5,2.5C276.7,808.7,269.6,808.8,262.5,808.7L262.5,808.7z"/>
		<path class="st1" d="M713.8,785c7.2,0,14.4,0.1,21.6,0c1.7,0,2.1,0.4,2.1,2.1c-0.1,7.2,0,14.4,0,21.6l0,0c-7.1,0-14.2-0.1-21.3,0
			c-1.9,0-2.5-0.6-2.5-2.5C713.8,799.2,713.7,792.1,713.8,785C713.7,785,713.8,785,713.8,785z"/>
		<path class="st1" d="M690,761.2c7.2,0,14.4,0.1,21.6,0c1.7,0,2.1,0.4,2.1,2.1c-0.1,7.2,0,14.4,0,21.6l0,0c-7.1,0-14.2-0.1-21.3,0
			c-1.9,0-2.5-0.6-2.5-2.5C690.1,775.4,690,768.4,690,761.2L690,761.2z"/>
		<path class="st2" d="M119.9,618.8c-7.9,0-15.8-0.1-23.7-0.1c0-7-0.1-14,0-21c0-2.3-0.7-2.8-2.9-2.8c-14.9,0.1-29.8,0-44.7,0
			c0-7.1,0-14.3,0-21.4c0-1.8,0.5-2.6,2.3-2.4c0.5,0.1,1,0,1.5,0c68.8,0,137.5,0,206.3-0.1c3,0,3.9,0.8,3.7,3.8
			c-0.3,5.6,0,11.3-0.1,16.9c-0.1,2.4,0.4,3.2,3,3.2c14.8-0.1,29.7-0.1,44.5-0.1c0,7.1,0,14.2-0.1,21.3c0,2,0.6,2.5,2.5,2.5
			c6.3-0.1,12.6-0.1,18.9,0c1.8,0,2.4-0.5,2.4-2.4c-0.1-6.3-0.1-12.6,0-18.9c0-1.9-0.5-2.6-2.5-2.5c-7.1,0.1-14.2,0.1-21.3,0.1
			c0-7-0.1-14,0.1-21.1c0.1-2.3-0.8-2.8-2.9-2.8c-5.9,0.1-11.9-0.1-17.8,0.1c-2.4,0.1-3.3-0.5-3.2-3.1c0.2-6,0-12.1,0.1-18.1
			c0-2.1-0.5-2.7-2.6-2.7c-6.2,0.1-12.5,0-18.7,0.1c-2,0-2.5-0.6-2.5-2.5c0.1-6.1-0.1-12.3,0.1-18.4c0.1-2.4-0.8-3-3-2.9
			c-6.9,0.1-13.8,0-20.8,0c0-15.8-0.1-31.6-0.1-47.4c0,0,0.1-0.1,0.1-0.1c7.9,0,15.8,0,23.7,0.1l0,0c0,7.1,0.1,14.2,0,21.3
			c0,1.9,0.6,2.6,2.5,2.5c7.1-0.1,14.2,0,21.3,0l0,0c0,7.1,0.1,14.2,0,21.3c0,1.9,0.6,2.6,2.5,2.5c7.1-0.1,14.2,0,21.3,0l0,0
			c0,7.1,0.1,14.2,0,21.3c0,1.9,0.6,2.6,2.5,2.5c7.1-0.1,14.2,0,21.3,0l0,0c0,7.1,0.1,14.2,0,21.3c0,1.9,0.6,2.6,2.5,2.5
			c7.1-0.1,14.2,0,21.3,0l0,0c0,7.1,0.1,14.2,0,21.3c0,1.9,0.6,2.6,2.5,2.5c7.1-0.1,14.2,0,21.3,0l0,0c0,15.8,0,31.6,0,47.4
			c-25,0-50,0.1-75.1,0.1c-14.5,0-29.1-0.1-43.6-0.1c0-6.7-0.2-13.4,0-20.2c0.1-2.9-0.8-3.6-3.6-3.6c-22.5,0.1-45.1,0-67.6,0
			c0-7-0.1-14,0-21.1c0-1.8-0.3-2.7-2.4-2.7c-22.2,0.1-44.3,0.1-66.5,0c-1.8,0-2.5,0.5-2.4,2.3c0.1,7.1,0.1,14.2,0.1,21.4
			L119.9,618.8z"/>
		<path class="st2" d="M903.7,618.7c-7.9,0-15.8,0.1-23.7,0.1c0,0-0.1-0.1-0.1-0.1c0-7,0-14,0.1-21.1c0-2.1-0.7-2.7-2.7-2.6
			c-22,0.1-43.9,0.1-65.9,0c-2,0-2.8,0.5-2.7,2.7c0.1,7,0,14,0,21.1c-22.7,0-45.5,0.1-68.2,0c-2.3,0-3.1,0.5-3,3
			c0.2,6.9,0,13.8,0,20.8c-25.3,0-50.6,0.1-76,0.1c-14.2,0-28.5-0.1-42.7-0.1c0-15.8,0-31.6,0-47.4l0,0c7.1,0,14.2-0.1,21.3,0
			c1.9,0,2.6-0.6,2.5-2.5c-0.1-7.1,0-14.2,0-21.3l0,0c7.1,0,14.2-0.1,21.3,0c1.9,0,2.6-0.6,2.5-2.5c-0.1-7.1,0-14.2,0-21.3l0,0
			c7.1,0,14.2-0.1,21.3,0c1.9,0,2.6-0.6,2.5-2.5c-0.1-7.1,0-14.2,0-21.3l0,0c7.1,0,14.2-0.1,21.3,0c1.9,0,2.6-0.6,2.5-2.5
			c-0.1-7.1,0-14.2,0-21.3l0,0c7.1,0,14.2-0.1,21.3,0c1.9,0,2.6-0.6,2.5-2.5c-0.1-7.1,0-14.2,0-21.3l0,0c7.9,0,15.8,0,23.7-0.1
			c0,0,0.1,0.1,0.1,0.1c0,15.8-0.1,31.6-0.1,47.4c-6.9,0-13.8,0.1-20.8,0c-2.3,0-3.1,0.5-3,2.9c0.2,6.1,0,12.3,0.1,18.4
			c0,1.9-0.5,2.6-2.5,2.5c-6.2-0.1-12.5,0-18.7-0.1c-2.1,0-2.7,0.6-2.6,2.7c0.1,6-0.1,12.1,0.1,18.1c0.1,2.6-0.8,3.1-3.2,3.1
			c-5.9-0.2-11.9,0-17.8-0.1c-2.1,0-2.9,0.4-2.9,2.8c0.2,7,0.1,14,0.1,21.1c-7.1,0-14.2,0-21.3-0.1c-2,0-2.5,0.6-2.5,2.5
			c0.1,6.3,0.1,12.6,0,18.9c0,1.8,0.5,2.4,2.4,2.4c6.3-0.1,12.6-0.1,18.9,0c1.9,0,2.6-0.5,2.5-2.5c-0.1-7.1-0.1-14.2-0.1-21.3
			c14.8,0,29.7-0.1,44.5,0.1c2.6,0,3.1-0.8,3-3.2c-0.2-5.8,0.1-11.7-0.1-17.5c-0.1-2.5,0.6-3.2,3.1-3.1c22.8,0.1,45.5,0.1,68.3,0.1
			c46.3,0,92.6,0,138.9-0.1c2.9,0,3.6,0.8,3.6,3.6c-0.2,6.7-0.1,13.5-0.1,20.2c-14.8,0-29.6,0.1-44.4,0c-2.4,0-3.2,0.5-3.2,3.1
			C903.8,604.9,903.7,611.8,903.7,618.7z"/>
		<path class="st2" d="M286.2,333.8c0,7.1,0.1,14.2,0,21.3c0,1.9,0.6,2.5,2.5,2.5c7.1-0.1,14.2,0,21.3,0c0,7.1,0.1,14.2,0,21.3
			c0,1.9,0.6,2.5,2.5,2.5c7.1-0.1,14.2,0,21.3,0c0,7.1,0.1,14.2,0,21.3c0,1.9,0.6,2.5,2.5,2.5c7.1-0.1,14.2,0,21.3,0
			c0,7.1,0.1,14.2,0,21.3c0,1.9,0.6,2.5,2.5,2.5c7.1-0.1,14.2,0,21.3,0c0,14.6,0.1,29.3-0.1,43.9c0,3.1,0.9,3.8,3.8,3.7
			c5.6-0.2,11.3,0,16.9-0.1c2.4-0.1,3.3,0.5,3.2,3.1c-0.2,6,0,12.1-0.1,18.1c0,2,0.5,2.7,2.6,2.7c6.2-0.1,12.5,0,18.7-0.1
			c1.9,0,2.6,0.5,2.5,2.5c-0.1,6.2,0,12.5-0.1,18.7c0,2.1,0.6,2.7,2.7,2.6c7-0.1,14-0.1,21.1-0.1c0,15,0,30,0.1,45
			c0,2.2-0.9,2.6-2.8,2.6c-7-0.1-14,0-21,0c0,0,0,0,0,0c0-7.1-0.1-14.2,0-21.3c0-1.9-0.6-2.6-2.5-2.5c-7.1,0.1-14.2,0-21.3,0l0,0
			c0-7.1-0.1-14.2,0-21.3c0-1.9-0.6-2.6-2.5-2.5c-7.1,0.1-14.2,0-21.3,0l0,0c0-7.1-0.1-14.2,0-21.3c0-1.9-0.6-2.6-2.5-2.5
			c-7.1,0.1-14.2,0-21.3,0l0,0c0-7.1-0.1-14.2,0-21.3c0-1.9-0.6-2.6-2.5-2.5c-7.1,0.1-14.2,0-21.3,0l0,0c0-7.1-0.1-14.2,0-21.3
			c0-1.9-0.6-2.6-2.5-2.5c-7.1,0.1-14.2,0-21.3,0l0,0c0-6.8-0.1-13.7,0.1-20.5c0.1-2.5-0.5-3.4-3.2-3.4c-6.8,0.2-13.6,0-20.5,0
			c0-7.9-0.1-15.8-0.1-23.7c0-7.1,0-14.2,0.1-21.3c0-1.9-0.6-2.6-2.5-2.5c-7.1,0.1-14.2,0-21.3,0l0,0c0-7.1-0.1-14.2,0-21.3
			c0-1.9-0.6-2.6-2.5-2.5c-7.1,0.1-14.2,0-21.3,0l0,0c0-7.1-0.1-14.2,0-21.3c0-1.9-0.6-2.6-2.5-2.5c-7.1,0.1-14.2,0-21.3,0l0,0
			c0-6.9-0.1-13.9,0.1-20.8c0-2.3-0.5-3.1-2.9-3.1c-6,0.2-12.1,0-18.1,0.1c-2.3,0.1-2.8-0.7-2.8-2.9c0.1-6.1,0-12.3,0.1-18.4
			c0-1.9-0.6-2.6-2.5-2.5c-5.9,0.1-11.9,0.2-17.8,0c-2.6-0.1-3.5,0.6-3.5,3.4c0.1,14.7,0,29.5,0,44.2c-7.9,0-15.8,0-23.7-0.1
			c0-38.6,0-77.2-0.1-115.8c0-2.2,0.4-3.1,2.9-3c6.1,0.2,12.3,0.1,18.4,0c1.9,0,2.6,0.5,2.5,2.5c-0.1,6.2,0,12.5-0.1,18.7
			c0,2.1,0.7,2.7,2.7,2.6c7-0.1,14,0,21.1,0c0,7.1,0.1,14.2,0,21.3c0,1.9,0.6,2.5,2.5,2.5c7.1-0.1,14.2,0,21.3,0
			c0,7.1,0.1,14.2,0,21.3c0,1.9,0.6,2.5,2.5,2.5c7.1-0.1,14.2,0,21.3,0c0,7.1,0.1,14.2,0,21.3c0,1.9,0.6,2.5,2.5,2.5
			c7.1-0.1,14.2,0,21.3,0c0,7.1,0.1,14.2,0,21.3c0,1.9,0.6,2.5,2.5,2.5C272.1,333.7,279.2,333.8,286.2,333.8z"/>
		<path class="st3" d="M428.7,571.3c7,0,14-0.1,21,0c1.9,0,2.8-0.4,2.8-2.6c-0.1-15-0.1-30-0.1-45c0-15.8,0-31.6,0-47.4
			c0-1.3,0.1-2.6,0.1-3.9c0-55.8,0-111.5,0-167.3c0-6.3,0-12.7-0.1-19c0-14.5,0-29,0.1-43.6c0-1.3,0.1-2.6,0.1-3.8
			c7.9,0,15.8,0,23.7,0c0,1.3,0,2.6,0,3.9c0,123.8,0,247.6,0,371.5c0,0.8-0.1,1.6,0,2.4c0.2,1.9-0.6,2.4-2.4,2.3
			c-6.2-0.1-12.5-0.1-18.7,0c-2.3,0.1-2.8-0.8-2.7-2.9c0.1-6.1,0-12.3,0.1-18.4c0-1.9-0.6-2.6-2.5-2.5c-6.1,0.1-12.3-0.1-18.4,0.1
			c-2.4,0.1-3-0.8-2.9-3C428.8,585.1,428.7,578.2,428.7,571.3z"/>
		<path class="st2" d="M452.4,286.2c0,6.3,0.1,12.7,0.1,19c0,55.8,0,111.5,0,167.3c0,1.3,0,2.6-0.1,3.9c-6.9,0-13.8-0.1-20.8,0
			c-2.3,0-3-0.6-3-3c0.1-62.4,0.1-124.7,0.1-187.1C436.7,286.2,444.6,286.2,452.4,286.2z"/>
		<path class="st2" d="M690,357.5c7.1,0,14.2-0.1,21.3,0c1.9,0,2.5-0.6,2.5-2.5c-0.1-7.1,0-14.2,0-21.3c7.1,0,14.2-0.1,21.3,0
			c1.9,0,2.5-0.6,2.5-2.5c-0.1-7.1,0-14.2,0-21.3c7.1,0,14.2-0.1,21.3,0c1.9,0,2.5-0.6,2.5-2.5c-0.1-7.1,0-14.2,0-21.3
			c7.1,0,14.2-0.1,21.3,0c1.9,0,2.5-0.6,2.5-2.5c-0.1-7.1,0-14.2,0-21.3c7.1,0,14.2-0.1,21.3,0c1.9,0,2.5-0.6,2.5-2.5
			c-0.1-7.1,0-14.2,0-21.3c7.1,0,14.2-0.1,21.3,0c1.9,0,2.5-0.6,2.5-2.5c-0.1-7.1,0-14.2,0-21.3c6.9,0,13.8,0.1,20.7-0.1
			c2.2,0,3.1,0.4,3,2.9c-0.1,38.6-0.1,77.3-0.1,115.9c-7.9,0-15.8,0-23.7,0.1c0-14.9-0.1-29.9,0-44.8c0-1.9-0.4-2.8-2.6-2.8
			c-6.2,0.1-12.5,0.1-18.7,0c-1.9,0-2.6,0.6-2.5,2.5c0.1,6.1,0,12.3,0.1,18.4c0,2.2-0.5,3-2.8,2.9c-6-0.2-12.1,0.1-18.1-0.1
			c-2.4-0.1-3,0.8-2.9,3.1c0.1,6.9,0,13.8,0.1,20.8c0,0,0,0,0,0c-7.1,0-14.2,0.1-21.3,0c-1.9,0-2.6,0.6-2.5,2.5
			c0.1,7.1,0,14.2,0,21.3l0,0c-7.1,0-14.2,0.1-21.3,0c-1.9,0-2.6,0.6-2.5,2.5c0.1,7.1,0,14.2,0,21.3l0,0c-7.1,0-14.2,0.1-21.3,0
			c-2,0-2.5,0.6-2.5,2.5c0.1,7.1,0.1,14.2,0.1,21.3c0,7.9-0.1,15.8-0.1,23.7c-6.8,0-13.7,0.2-20.5,0c-2.7-0.1-3.3,0.8-3.2,3.4
			c0.2,6.8,0.1,13.6,0.1,20.5l0,0c-7.1,0-14.2,0.1-21.3,0c-1.9,0-2.6,0.6-2.5,2.5c0.1,7.1,0,14.2,0,21.3l0,0c-7.1,0-14.2,0.1-21.3,0
			c-1.9,0-2.6,0.6-2.5,2.5c0.1,7.1,0,14.2,0,21.3l0,0c-7.1,0-14.2,0.1-21.3,0c-1.9,0-2.6,0.6-2.5,2.5c0.1,7.1,0,14.2,0,21.3l0,0
			c-7.1,0-14.2,0.1-21.3,0c-1.9,0-2.6,0.6-2.5,2.5c0.1,7.1,0,14.2,0,21.3l0,0c-7.1,0-14.2,0.1-21.3,0c-1.9,0-2.6,0.6-2.5,2.5
			c0.1,7.1,0,14.2,0,21.3l0,0c-7,0-14-0.1-21,0c-1.9,0-2.8-0.4-2.8-2.6c0.1-15,0.1-30,0.1-45c7,0,14,0,21.1,0.1
			c2.1,0,2.7-0.5,2.7-2.6c-0.1-6.2,0-12.5-0.1-18.7c0-2,0.6-2.5,2.5-2.5c6.2,0.1,12.5,0,18.7,0.1c2.1,0,2.7-0.7,2.6-2.7
			c-0.1-6,0.1-12.1-0.1-18.1c-0.1-2.6,0.8-3.1,3.2-3.1c5.6,0.2,11.3-0.1,16.9,0.1c2.9,0.1,3.8-0.5,3.8-3.7
			c-0.2-14.6-0.1-29.3-0.1-43.9c7.1,0,14.2-0.1,21.3,0c1.9,0,2.5-0.6,2.5-2.5c-0.1-7.1,0-14.2,0-21.3c7.1,0,14.2-0.1,21.3,0
			c1.9,0,2.5-0.6,2.5-2.5c-0.1-7.1,0-14.2,0-21.3c7.1,0,14.2-0.1,21.3,0c1.9,0,2.5-0.6,2.5-2.5C689.9,371.7,690,364.6,690,357.5z"/>
		<path class="st3" d="M547.6,523.7c0,15,0,30-0.1,45c0,2.2,0.9,2.6,2.8,2.6c7-0.1,14,0,21,0c0,6.9-0.1,13.8,0,20.8
			c0,2.3-0.5,3.1-2.9,3c-6.1-0.2-12.3,0-18.4-0.1c-2,0-2.5,0.6-2.5,2.5c0.1,5.9-0.1,11.9,0.1,17.8c0.1,3-0.9,3.6-3.7,3.5
			c-5.6-0.2-11.3-0.2-16.9,0c-2.6,0.1-3.3-0.6-3.3-3.3c0.1-18.7,0.1-37.4,0.1-56.1c0-106.9,0-213.8,0-320.7c7.9,0,15.8,0,23.7,0
			c0,14.1,0.1,28.3,0.1,42.4c0,1.7,0,3.4,0.1,5c0,1.3-0.1,2.6-0.1,3.9c0,55.8,0,111.5,0,167.3c0,6.3,0,12.7,0.1,19
			C547.6,492.1,547.6,507.9,547.6,523.7z"/>
		<path class="st2" d="M547.6,476.3c0-6.3-0.1-12.7-0.1-19c0-55.8,0-111.5,0-167.3c0-1.3,0-2.6,0.1-3.9c7.9,0,15.8,0,23.7,0.1
			c0,62.4,0,124.7,0.1,187.1c0,2.4-0.7,3-3,2.9C561.4,476.2,554.5,476.3,547.6,476.3z"/>
		<path class="st2" d="M547.4,238.8c-7.9,0-15.8,0-23.7,0c0,0,0,0,0,0c0-14.7-0.1-29.5,0.1-44.2c0-2.8-0.9-3.4-3.5-3.4
			c-13.5,0.1-27.1,0.1-40.6,0c-2.6,0-3.5,0.6-3.5,3.4c0.1,14.7,0.1,29.5,0.1,44.2l0,0c-7.9,0-15.8,0-23.7,0c0-23.8,0-47.5-0.1-71.3
			c6.7,0,13.4-0.2,20.1,0.1c3.2,0.1,3.7-1,3.7-3.8c-0.1-30.4-0.1-60.8,0-91.3c15.8,0,31.6,0,47.5,0c0,30.4,0,60.8,0,91.3
			c0,2.9,0.5,3.9,3.7,3.8c6.7-0.3,13.4-0.1,20.1-0.1C547.5,191.3,547.4,215,547.4,238.8z"/>
		<path class="st3" d="M785,333.8c0-6.9,0.1-13.9-0.1-20.8c0-2.3,0.5-3.1,2.9-3.1c6,0.2,12.1,0,18.1,0.1c2.3,0.1,2.8-0.7,2.8-2.9
			c-0.1-6.1,0-12.3-0.1-18.4c0-1.9,0.6-2.6,2.5-2.5c6.2,0.1,12.5,0.1,18.7,0c2.2,0,2.6,0.8,2.6,2.8c0,14.9,0,29.9,0,44.8
			c0,7.9-0.1,15.8-0.2,23.7c-7.9,0-15.7,0-23.6,0.1c0-7.1-0.1-14.2,0-21.3c0-1.9-0.5-2.6-2.5-2.5C799.2,333.8,792.1,333.8,785,333.8
			z"/>
		<path class="st2" d="M808.8,357.5c7.9,0,15.7,0,23.6-0.1c0,15.8,0,31.7,0.1,47.5c-7.9,0-15.8,0.1-23.7,0.1c0,0-0.1-0.1-0.1-0.1
			c0-7.9,0-15.8,0-23.7C808.7,373.3,808.8,365.4,808.8,357.5z"/>
		<path class="st3" d="M167.5,333.8c0-14.7,0.1-29.5,0-44.2c0-2.8,0.9-3.5,3.5-3.4c5.9,0.2,11.9,0.1,17.8,0c2,0,2.6,0.6,2.5,2.5
			c-0.1,6.1,0,12.3-0.1,18.4c0,2.2,0.5,3,2.8,2.9c6-0.2,12.1,0.1,18.1-0.1c2.4-0.1,3,0.8,2.9,3.1c-0.1,6.9,0,13.8-0.1,20.8
			c-7,0-14,0.1-21-0.1c-2.2,0-2.8,0.6-2.8,2.8c0.1,7,0,14,0,21c-7.9,0-15.7,0-23.6-0.1C167.6,349.6,167.5,341.7,167.5,333.8z"/>
		<path class="st2" d="M167.6,357.5c7.9,0,15.7,0,23.6,0.1c0,7.9,0.1,15.8,0.1,23.7c0,7.9,0,15.8,0,23.7l-0.1,0.1
			c-7.9,0-15.8-0.1-23.7-0.1C167.6,389.1,167.6,373.3,167.6,357.5z"/>
		<path class="st2" d="M238.7,476.3c-7.9,0-15.8-0.1-23.7-0.1c0-15.8-0.1-31.6-0.1-47.4c0,0,0.1-0.1,0.1-0.1
			c7.9,0,15.7,0.1,23.6,0.1c0,7.9,0.1,15.8,0.1,23.7c0,7.9,0,15.8,0,23.7L238.7,476.3z"/>
		<path class="st2" d="M191.3,428.7c0-7.9-0.1-15.8-0.1-23.7c0,0,0.1-0.1,0.1-0.1c7.9,0,15.8,0,23.7,0.1l0,0c0,7.9,0,15.8,0.1,23.7
			c0,0-0.1,0.1-0.1,0.1C207.1,428.8,199.2,428.8,191.3,428.7z"/>
		<path class="st2" d="M785,476.2c-7.9,0-15.8,0.1-23.7,0.1c0,0-0.1-0.1-0.1-0.1c0-7.9,0-15.8,0-23.7c0-7.9,0.1-15.8,0.1-23.7
			c7.9,0,15.7-0.1,23.6-0.1c0,0,0.1,0.1,0.1,0.1C785,444.6,785,460.4,785,476.2z"/>
		<path class="st2" d="M808.8,405.1c0,7.9-0.1,15.8-0.1,23.7c-7.9,0-15.8,0.1-23.7,0.1c0,0-0.1-0.1-0.1-0.1c0-7.9,0-15.8,0.1-23.7
			l0,0c7.9,0,15.8,0,23.7-0.1L808.8,405.1z"/>
		<path class="st2" d="M690,761.3c0,7.1,0.1,14.2,0,21.3c0,1.9,0.6,2.5,2.5,2.5c7.1-0.1,14.2,0,21.3,0c0,7.1,0.1,14.2,0,21.3
			c0,1.9,0.6,2.5,2.5,2.5c7.1-0.1,14.2,0,21.3,0c0,7.1,0,14.2,0,21.3c0,1.7-0.3,2.5-2.3,2.5c-15.1-0.1-30.2-0.1-45.3-0.1
			c0-6.9-0.1-13.8,0.1-20.8c0.1-2.5-0.8-3-3.1-2.9c-6.9,0.1-13.8,0-20.8,0l0,0c0-7-0.1-14,0-20.9c0-2.2-0.5-2.9-2.8-2.9
			c-7,0.1-14,0-20.9,0c0-7-0.1-14,0-21c0-2.1-0.6-2.7-2.7-2.7c-7,0.1-14,0-21,0c0-7-0.1-14,0-21c0-2.1-0.6-2.7-2.7-2.7
			c-7,0.1-14,0-21,0c0-7-0.1-14,0-21c0-2.1-0.6-2.7-2.7-2.7c-7,0.1-14,0-21,0c0-6.6,0-13.3-0.1-19.9c0-3.8,0-3.8,3.9-3.8
			c68.7,0,137.3,0,206,0c1.3,0,2.6,0,3.9-0.1c0,0,0.1,0.1,0.1,0.1c0,6.8-0.2,13.6,0,20.5c0.1,2.6-0.7,3.3-3.3,3.3
			c-45.1-0.1-90.2-0.1-135.3-0.1c-4.5,0-4-0.5-4,3.9c0,5.7,0.1,11.5,0,17.2c0,2.1,0.5,2.7,2.6,2.7c6.2-0.1,12.5,0,18.7-0.1
			c2,0,2.5,0.6,2.5,2.5c-0.1,6.1,0.1,12.3-0.1,18.4c-0.1,2.4,0.8,3,3,2.9C676.1,761.2,683.1,761.3,690,761.3z"/>
		<path class="st2" d="M856.3,666.3c0,7.9-0.1,15.8-0.1,23.7c-23.7,0-47.4,0.1-71.2,0.1c0,0-0.1-0.1-0.1-0.1
			c0-7.9,0.1-15.7,0.1-23.6c7.9,0,15.8-0.1,23.7-0.1c15.8,0,31.7,0,47.5,0L856.3,666.3z"/>
		<path class="st2" d="M262.5,808.8c7.1,0,14.2-0.1,21.3,0c1.9,0,2.5-0.6,2.5-2.5c-0.1-7.1,0-14.2,0-21.3c7.1,0,14.2-0.1,21.3,0
			c1.9,0,2.5-0.6,2.5-2.5c-0.1-7.1,0-14.2,0-21.3c6.9,0,13.8-0.1,20.8,0c2.3,0,3.1-0.5,3-2.9c-0.2-6.1,0-12.3-0.1-18.4
			c0-1.9,0.5-2.6,2.5-2.5c6.2,0.1,12.5,0,18.7,0.1c2.1,0,2.7-0.6,2.6-2.7c-0.1-6-0.2-12.1,0-18.1c0.1-2.6-0.8-3.1-3.2-3.1
			c-45.1,0.1-90.2,0.1-135.3,0c-4.7,0-4.1,0.6-4.1-4.1c0-6.5,0-13.1-0.1-19.6c0,0,0.1-0.1,0.1-0.1c1.3,0,2.6,0.1,3.9,0.1
			c68.4,0,136.7,0,205.1,0c0.8,0,1.6,0.1,2.4,0c1.8-0.2,2.4,0.5,2.4,2.3c-0.1,7.1-0.1,14.2-0.1,21.4c-7,0-14,0.1-21,0
			c-2.1,0-2.7,0.6-2.7,2.7c0.1,7,0,14,0,21c-7,0-14,0.1-21,0c-2.1,0-2.7,0.6-2.7,2.7c0.1,7,0,14,0,21c-7,0-14,0.1-21,0
			c-2.1,0-2.7,0.6-2.7,2.7c0.1,7,0,14,0,21c-7,0-14,0.1-20.9,0c-2.3,0-2.8,0.7-2.8,2.9c0.1,7,0,14,0,20.9l0,0
			c-6.9,0-13.8,0.1-20.8-0.1c-2.3,0-3.1,0.5-3.1,2.9c0.2,6.9,0.1,13.8,0.1,20.8c-15.1,0-30.2,0-45.3,0.1c-1.9,0-2.3-0.8-2.3-2.5
			C262.6,823,262.5,815.9,262.5,808.8z"/>
		<path class="st2" d="M143.8,690c0-7.9-0.1-15.8-0.1-23.7c0,0,0.1-0.1,0.1-0.1c15.8,0,31.7,0,47.5,0c7.9,0,15.8,0.1,23.7,0.1
			c0,7.9,0.1,15.7,0.1,23.6c0,0-0.1,0.1-0.1,0.1C191.2,690,167.5,690,143.8,690z"/>
		<path class="st2" d="M571.3,832.5c0-6.7-0.2-13.4,0.1-20.1c0.1-3.2-1-3.8-3.8-3.7c-5.2,0.2-10.5,0.1-15.7,0.1
			c-4.9,0-4.3,0.6-4.3-4.2c0-14.4-0.1-28.8-0.1-43.3c0,0,0.1-0.1,0.1-0.1c7.9,0,15.7,0.1,23.6,0.1c0,7,0.1,14,0,21
			c0,2.1,0.6,2.7,2.7,2.7c7-0.1,14,0,21,0c0,7,0.1,14,0,21c0,1.9,0.4,2.8,2.6,2.8c7.1-0.1,14.2-0.1,21.3-0.1
			c7.9,0,15.8,0.1,23.7,0.1l0,0c0,7.9,0,15.8,0.1,23.7C618.8,832.4,595,832.5,571.3,832.5z"/>
		<path class="st4" d="M642.5,832.4c0-7.9,0-15.8-0.1-23.7c7.9,0,15.8,0,23.8,0c0,0,0,0,0,0c0,7.9,0,15.8,0,23.7
			C658.3,832.4,650.4,832.4,642.5,832.4z"/>
		<path class="st3" d="M666.2,832.4c0-7.9,0-15.8,0-23.7c6.9,0,13.8,0.1,20.8,0c2.2,0,3.1,0.5,3.1,2.9c-0.2,6.9-0.1,13.8-0.1,20.8
			C682.1,832.4,674.1,832.4,666.2,832.4z"/>
		<path class="st2" d="M452.6,761.3c0,14.4,0,28.8-0.1,43.3c0,4.8,0.6,4.1-4.3,4.2c-5.2,0-10.5,0.2-15.7-0.1
			c-2.9-0.1-3.9,0.5-3.8,3.7c0.3,6.7,0.1,13.4,0.1,20.1c-23.8,0-47.5,0-71.3-0.1c0-7.9,0-15.8,0.1-23.7c0,0,0,0,0,0
			c7.9,0,15.8-0.1,23.7-0.1c7,0,14-0.1,21,0.1c2.5,0.1,2.9-0.9,2.9-3.1c-0.1-6.9,0-13.8,0-20.7c7,0,14-0.1,21,0
			c2.1,0,2.7-0.6,2.7-2.7c-0.1-7,0-14,0-21c7.9,0,15.7-0.1,23.6-0.1L452.6,761.3z"/>
		<path class="st3" d="M310,832.4c0-6.9,0.1-13.8-0.1-20.8c-0.1-2.5,0.8-3,3.1-2.9c6.9,0.1,13.8,0,20.8,0.1c0,7.9,0,15.8,0,23.7
			C325.9,832.4,317.9,832.4,310,832.4z"/>
		<path class="st4" d="M333.8,832.4c0-7.9,0-15.8,0-23.7c0,0,0,0,0,0c7.9,0,15.8,0,23.8,0c0,7.9,0,15.8-0.1,23.7
			C349.6,832.4,341.7,832.4,333.8,832.4z"/>
		<path class="st2" d="M523.7,927.5c-15.8,0-31.6,0-47.5,0c0-54.1,0-108.3,0-162.5c0-4.3,0.4-3.8-3.8-3.8c-6.6,0-13.2,0-19.9,0.1
			c0,0-0.1-0.1-0.1-0.1c0-7.9,0.1-15.7,0.1-23.6c7,0,14-0.1,21,0c2.1,0,2.7-0.6,2.7-2.7c-0.1-7,0-14,0-21c15.8,0,31.6,0,47.4,0
			c0,7,0.1,14,0,21c0,2.1,0.6,2.7,2.7,2.7c7-0.1,14,0,21,0c0,7.9,0.1,15.7,0.1,23.6c0,0-0.1,0.1-0.1,0.1c-6.9,0-13.8,0-20.7-0.1
			c-2.3-0.1-3,0.6-3,2.9c0.1,15,0.1,30,0.1,45.1C523.7,848.6,523.7,888.1,523.7,927.5z"/>
		<path class="st2" d="M143.7,666.3c-7.9,0-15.8-0.1-23.7-0.1c0-15.8-0.1-31.6-0.1-47.4c0,0,0.1-0.1,0.1-0.1
			c7.9,0,15.8,0.1,23.7,0.1c0,7.9,0,15.8,0,23.7c0,7.9,0,15.8,0,23.7L143.7,666.3z"/>
		<path class="st2" d="M880,666.2c-7.9,0-15.8,0.1-23.7,0.1c0,0-0.1-0.1-0.1-0.1c0-7.9,0-15.8,0-23.7c0-7.9,0-15.8,0-23.7
			c7.9,0,15.8-0.1,23.7-0.1c0,0,0.1,0.1,0.1,0.1C880,634.6,880,650.4,880,666.2z"/>
		<path class="st4" d="M523.7,713.8c-15.8,0-31.6,0-47.4,0c-7.9,0-15.9,0-23.8-0.1c0-14.6-0.1-29.3,0.1-43.9c0-3.2-1-3.7-3.8-3.7
			c-76.8,0.1-153.7,0.1-230.5,0.1c-1.1,0-2.2,0.1-3.3,0.1c-7.9,0-15.8-0.1-23.7-0.1c0-7.9,0-15.8-0.1-23.7c23.8,0,47.5,0,71.3-0.1
			c14.5,0,29.1,0.1,43.6,0.1c25,0,50-0.1,75.1-0.1c15.1,0,30.2,0,45.3,0.1c2,0,2.2-0.9,2.2-2.5c-0.1-6.2-0.1-12.4,0-18.7
			c0-2.1-0.6-2.7-2.7-2.7c-6.1,0.1-12.2-0.1-18.4,0.1c-2.3,0.1-2.8-0.7-2.8-2.9c0.1-5.8-0.1-11.7,0.1-17.5c0.1-2.6-0.5-3.6-3.4-3.5
			c-6.8,0.2-13.6,0.1-20.4,0.1c0,0,0,0,0,0c0-7.1-0.1-14.2,0-21.3c0-1.9-0.6-2.5-2.5-2.5c-7.1,0.1-14.2,0-21.3,0c0,0,0,0,0,0
			c0-7.1-0.1-14.2,0-21.3c0-1.9-0.6-2.5-2.5-2.5c-7.1,0.1-14.2,0-21.3,0c0,0,0,0,0,0c0-7.1-0.1-14.2,0-21.3c0-1.9-0.6-2.5-2.5-2.5
			c-7.1,0.1-14.2,0-21.3,0c0,0,0,0,0,0c0-7.1-0.1-14.2,0-21.3c0-1.9-0.6-2.5-2.5-2.5c-7.1,0.1-14.2,0-21.3,0c0,0,0,0,0,0
			c0-7.1-0.1-14.2,0-21.3c0-1.9-0.6-2.5-2.5-2.5c-7.1,0.1-14.2,0-21.3,0c0,0,0,0,0,0c0-7-0.1-14,0-21c0-2.2-0.5-2.9-2.8-2.8
			c-7,0.1-14,0-20.9,0c0-7.9-0.1-15.8-0.1-23.7c0-7.2,0-14.4,0.1-21.6c0-2-0.9-2.2-2.5-2.2c-7.1,0.1-14.2,0-21.3,0c0,0,0,0,0,0
			c0-7-0.1-14,0-21c0-2.2-0.5-2.9-2.8-2.8c-7,0.1-14,0-20.9,0c0-7.9-0.1-15.8-0.1-23.7c0-7,0.1-14,0-21c0-2.2,0.6-2.9,2.8-2.8
			c7,0.1,14,0.1,21,0.1c0,0,0,0,0,0c0,7.1,0.1,14.2,0,21.3c0,1.9,0.6,2.5,2.5,2.5c7.1-0.1,14.2,0,21.3,0c0,0,0,0,0,0
			c0,7.1,0.1,14.2,0,21.3c0,1.9,0.6,2.5,2.5,2.5c7.1-0.1,14.2,0,21.3,0c0,0,0,0,0,0c0,7,0.1,14,0,21c0,2.2,0.5,2.9,2.8,2.8
			c7-0.1,14,0,20.9,0c0,7.9,0.1,15.8,0.1,23.7c0,7.2,0,14.4-0.1,21.6c0,2,0.9,2.2,2.5,2.2c7.1-0.1,14.2,0,21.3,0c0,0,0,0,0,0
			c0,7.1,0.1,14.2,0,21.3c0,1.9,0.6,2.5,2.5,2.5c7.1-0.1,14.2,0,21.3,0c0,0,0,0,0,0c0,7.1,0.1,14.2,0,21.3c0,1.9,0.6,2.5,2.5,2.5
			c7.1-0.1,14.2,0,21.3,0c0,0,0,0,0,0c0,7.1,0.1,14.2,0,21.3c0,1.9,0.6,2.5,2.5,2.5c7.1-0.1,14.2,0,21.3,0c0,0,0,0,0,0
			c0,7.1,0.1,14.2,0,21.3c0,1.9,0.6,2.5,2.5,2.5c7.1-0.1,14.2,0,21.3,0c0,0,0,0,0,0c0,7.1,0.1,14.2,0,21.3c0,1.9,0.6,2.5,2.5,2.5
			c7.1-0.1,14.2,0,21.3,0c0,0,0,0,0,0c0,6.9,0.1,13.8,0,20.8c0,2.3,0.5,3.1,2.9,3c6.1-0.2,12.3,0,18.4-0.1c2,0,2.5,0.6,2.5,2.5
			c-0.1,6.1,0,12.3-0.1,18.4c0,2.1,0.4,3,2.7,2.9c6.2-0.2,12.5-0.1,18.7,0c1.8,0,2.6-0.5,2.4-2.3c-0.1-0.8,0-1.6,0-2.4
			c0-123.8,0-247.6,0-371.5c0-1.3,0-2.6,0-3.9c0,0,0,0,0,0c15.8,0,31.7,0,47.5,0c0,0,0,0,0,0c0,106.9,0,213.8,0,320.7
			c0,18.7,0.1,37.4-0.1,56.1c0,2.7,0.7,3.3,3.3,3.3c5.6-0.2,11.3-0.2,16.9,0c2.8,0.1,3.8-0.5,3.7-3.5c-0.2-5.9,0-11.9-0.1-17.8
			c0-1.9,0.6-2.6,2.5-2.5c6.1,0.1,12.3-0.1,18.4,0.1c2.4,0.1,3-0.8,2.9-3c-0.1-6.9,0-13.8,0-20.8c0,0,0,0,0,0c7.1,0,14.2-0.1,21.3,0
			c1.9,0,2.5-0.6,2.5-2.5c-0.1-7.1,0-14.2,0-21.3c0,0,0,0,0,0c7.1,0,14.2-0.1,21.3,0c1.9,0,2.5-0.6,2.5-2.5c-0.1-7.1,0-14.2,0-21.3
			c0,0,0,0,0,0c7.1,0,14.2-0.1,21.3,0c1.9,0,2.5-0.6,2.5-2.5c-0.1-7.1,0-14.2,0-21.3c0,0,0,0,0,0c7.1,0,14.2-0.1,21.3,0
			c1.9,0,2.5-0.6,2.5-2.5c-0.1-7.1,0-14.2,0-21.3c0,0,0,0,0,0c7.1,0,14.2-0.1,21.3,0c1.9,0,2.5-0.6,2.5-2.5c-0.1-7.1,0-14.2,0-21.3
			c0,0,0,0,0,0c7.1,0,14.2,0,21.3,0c1.6,0,2.5-0.3,2.5-2.2c-0.1-7.2-0.1-14.4-0.1-21.6c0-7.9,0.1-15.8,0.1-23.7c7,0,14-0.1,20.9,0
			c2.3,0,2.8-0.7,2.8-2.8c-0.1-7,0-14,0-21c0,0,0,0,0,0c7.1,0,14.2-0.1,21.3,0c1.9,0,2.5-0.6,2.5-2.5c-0.1-7.1,0-14.2,0-21.3
			c0,0,0,0,0,0c7.1,0,14.2-0.1,21.3,0c1.9,0,2.5-0.6,2.5-2.5c-0.1-7.1,0-14.2,0-21.3c0,0,0,0,0,0c7.1,0,14.2,0,21.3-0.1
			c2,0,2.5,0.6,2.5,2.5c-0.1,7.1,0,14.2,0,21.3c0,7.9-0.1,15.8-0.1,23.7c-7,0-14,0.1-20.9,0c-2.3,0-2.8,0.7-2.8,2.8c0.1,7,0,14,0,21
			c0,0,0,0,0,0c-7.1,0-14.2,0-21.3,0c-1.6,0-2.5,0.3-2.5,2.2c0.1,7.2,0.1,14.4,0.1,21.6c0,7.9-0.1,15.8-0.1,23.7c-7,0-14,0.1-20.9,0
			c-2.3,0-2.8,0.7-2.8,2.8c0.1,7,0,14,0,21c0,0,0,0,0,0c-7.1,0-14.2,0.1-21.3,0c-1.9,0-2.5,0.6-2.5,2.5c0.1,7.1,0,14.2,0,21.3
			c0,0,0,0,0,0c-7.1,0-14.2,0.1-21.3,0c-1.9,0-2.5,0.6-2.5,2.5c0.1,7.1,0,14.2,0,21.3c0,0,0,0,0,0c-7.1,0-14.2,0.1-21.3,0
			c-1.9,0-2.5,0.6-2.5,2.5c0.1,7.1,0,14.2,0,21.3c0,0,0,0,0,0c-7.1,0-14.2,0.1-21.3,0c-1.9,0-2.5,0.6-2.5,2.5c0.1,7.1,0,14.2,0,21.3
			c0,0,0,0,0,0c-7.1,0-14.2,0.1-21.3,0c-1.9,0-2.5,0.6-2.5,2.5c0.1,7.1,0,14.2,0,21.3c0,0,0,0,0,0c-6.7,0-13.4,0.1-20.1,0
			c-2.8-0.1-3.8,0.5-3.7,3.5c0.3,5.7,0,11.5,0.1,17.2c0.1,2.4-0.5,3.3-3.1,3.2c-6.1-0.2-12.2,0-18.4-0.1c-1.8,0-2.4,0.5-2.4,2.3
			c0.1,6.4,0.1,12.8,0,19.3c0,1.7,0.6,2.2,2.2,2.2c15.1-0.1,30.2-0.1,45.3-0.1c14.2,0,28.5,0.1,42.7,0.1c25.3,0,50.6-0.1,76-0.1
			c23.8,0,47.5,0,71.3,0.1c0,7.9,0,15.8-0.1,23.7c-7.9,0-15.8,0.1-23.7,0.1c-0.5,0-1-0.1-1.5-0.1c-77.7,0-155.5,0-233.2-0.1
			c-2.5,0-2.9,0.9-2.9,3.1c0.1,14.8,0.1,29.7,0.1,44.5C539.6,713.8,531.7,713.8,523.7,713.8z"/>
		<path class="st3" d="M381.3,595c6.8,0,13.6,0.2,20.4-0.1c2.9-0.1,3.4,0.9,3.4,3.5c-0.2,5.8,0,11.7-0.1,17.5
			c-0.1,2.2,0.5,2.9,2.8,2.9c6.1-0.2,12.2,0,18.4-0.1c2,0,2.7,0.5,2.7,2.7c-0.1,6.2-0.1,12.4,0,18.7c0,1.6-0.2,2.5-2.2,2.5
			c-15.1-0.1-30.2-0.1-45.3-0.1C381.2,626.6,381.2,610.8,381.3,595z"/>
		<path class="st3" d="M143.8,618.8c-7.9,0-15.8-0.1-23.7-0.1c0-7.1,0-14.2-0.1-21.4c0-1.9,0.7-2.3,2.4-2.3c22.2,0,44.3,0.1,66.5,0
			c2.1,0,2.4,0.9,2.4,2.7c-0.1,7,0,14,0,21.1c0,0-0.1,0.1-0.1,0.1C175.4,618.8,159.6,618.8,143.8,618.8z"/>
		<path class="st3" d="M262.5,642.4c-23.8,0-47.5,0-71.3,0.1c0,0,0,0,0,0c0-7.9-0.1-15.8-0.1-23.7c0,0,0.1-0.1,0.1-0.1
			c22.5,0,45.1,0.1,67.6,0c2.8,0,3.7,0.7,3.6,3.6C262.4,629,262.5,635.7,262.5,642.4z"/>
		<path class="st3" d="M310,523.7c7.1,0,14.2,0.1,21.3,0c1.9,0,2.5,0.6,2.5,2.5c-0.1,7.1,0,14.2,0,21.3c-7.1,0-14.2-0.1-21.3,0
			c-1.9,0-2.6-0.6-2.5-2.5C310.1,537.9,310,530.8,310,523.7z"/>
		<path class="st3" d="M357.5,571.2c7.1,0,14.2,0.1,21.3,0c1.9,0,2.5,0.6,2.5,2.5c-0.1,7.1,0,14.2,0,21.3c-7.1,0-14.2-0.1-21.3,0
			c-1.9,0-2.6-0.6-2.5-2.5C357.6,585.4,357.5,578.3,357.5,571.2z"/>
		<path class="st1" d="M310,595c7.1,0,14.2,0,21.3-0.1c2,0,2.5,0.6,2.5,2.5c-0.1,6.3-0.1,12.6,0,18.9c0,1.8-0.5,2.4-2.4,2.4
			c-6.3-0.1-12.6-0.1-18.9,0c-1.9,0-2.6-0.5-2.5-2.5C310.1,609.2,310,602.1,310,595C310,595,310,595,310,595z"/>
		<path class="st3" d="M333.8,547.5c7.1,0,14.2,0.1,21.3,0c1.9,0,2.5,0.6,2.5,2.5c-0.1,7.1,0,14.2,0,21.3c-7.1,0-14.2-0.1-21.3,0
			c-1.9,0-2.6-0.6-2.5-2.5C333.8,561.7,333.8,554.6,333.8,547.5z"/>
		<path class="st3" d="M286.3,500c7.1,0,14.2,0.1,21.3,0c1.9,0,2.5,0.6,2.5,2.5c-0.1,7.1,0,14.2,0,21.3c-7.1,0-14.2-0.1-21.3,0
			c-1.9,0-2.6-0.6-2.5-2.5C286.3,514.2,286.3,507.1,286.3,500z"/>
		<path class="st3" d="M262.5,476.2c7.1,0,14.2,0.1,21.3,0c1.9,0,2.5,0.6,2.5,2.5c-0.1,7.1,0,14.2,0,21.3c-7.1,0-14.2-0.1-21.3,0
			c-1.9,0-2.6-0.6-2.5-2.5C262.6,490.4,262.5,483.3,262.5,476.2z"/>
		<path class="st3" d="M238.8,452.5c7,0,14,0.1,20.9,0c2.3,0,2.8,0.7,2.8,2.8c-0.1,7,0,14,0,21c-7.9,0-15.8,0-23.7-0.1
			C238.8,468.3,238.8,460.4,238.8,452.5z"/>
		<path class="st3" d="M618.8,642.4c-15.1,0-30.2,0-45.3,0.1c-1.7,0-2.2-0.5-2.2-2.2c0.1-6.4,0.1-12.8,0-19.3c0-1.8,0.6-2.4,2.4-2.3
			c6.1,0.1,12.3-0.1,18.4,0.1c2.5,0.1,3.1-0.8,3.1-3.2c-0.2-5.7,0.1-11.5-0.1-17.2c-0.1-3,0.9-3.6,3.7-3.5c6.7,0.2,13.4,0.1,20.1,0
			C618.8,610.8,618.8,626.6,618.8,642.4z"/>
		<path class="st3" d="M879.9,618.7c-7.9,0-15.8,0.1-23.7,0.1c-15.8,0-31.6,0-47.4,0l-0.1-0.1c0-7,0.1-14,0-21.1
			c0-2.1,0.7-2.7,2.7-2.7c22,0.1,43.9,0.1,65.9,0c2,0,2.8,0.5,2.7,2.6C879.9,604.6,879.9,611.7,879.9,618.7z"/>
		<path class="st3" d="M808.8,642.5c-23.8,0-47.5,0-71.3-0.1c0-6.9,0.1-13.8,0-20.8c-0.1-2.4,0.8-3,3-3c22.7,0.1,45.5,0,68.2,0
			c0,0,0.1,0.1,0.1,0.1C808.8,626.7,808.7,634.6,808.8,642.5L808.8,642.5z"/>
		<path class="st3" d="M666.2,547.5c0-7.1,0.1-14.2,0-21.3c0-1.9,0.6-2.5,2.5-2.5c7.1,0.1,14.2,0,21.3,0c0,7.1-0.1,14.2,0,21.3
			c0,1.9-0.6,2.6-2.5,2.5C680.4,547.4,673.3,547.5,666.2,547.5z"/>
		<path class="st3" d="M642.5,571.2c0-7.1,0.1-14.2,0-21.3c0-1.9,0.6-2.5,2.5-2.5c7.1,0.1,14.2,0,21.3,0c0,7.1-0.1,14.2,0,21.3
			c0,1.9-0.6,2.6-2.5,2.5C656.7,571.2,649.6,571.2,642.5,571.2z"/>
		<path class="st3" d="M618.7,595c0-7.1,0.1-14.2,0-21.3c0-1.9,0.6-2.5,2.5-2.5c7.1,0.1,14.2,0,21.3,0c0,7.1-0.1,14.2,0,21.3
			c0,1.9-0.6,2.6-2.5,2.5C632.9,594.9,625.8,595,618.7,595z"/>
		<path class="st3" d="M690,523.7c0-7.1,0.1-14.2,0-21.3c0-1.9,0.6-2.5,2.5-2.5c7.1,0.1,14.2,0,21.3,0c0,7.1-0.1,14.2,0,21.3
			c0,1.9-0.6,2.6-2.5,2.5C704.2,523.7,697.1,523.7,690,523.7z"/>
		<path class="st1" d="M690,595c0,7.1,0,14.2,0.1,21.3c0,2-0.6,2.5-2.5,2.5c-6.3-0.1-12.6-0.1-18.9,0c-1.8,0-2.4-0.5-2.4-2.4
			c0.1-6.3,0.1-12.6,0-18.9c0-1.9,0.5-2.6,2.5-2.5C675.8,595.1,682.9,595,690,595C690,595,690,595,690,595z"/>
		<path class="st3" d="M713.7,500c0-7.1,0.1-14.2,0-21.3c0-1.9,0.6-2.5,2.5-2.5c7.1,0.1,14.2,0,21.3,0c0,7.1-0.1,14.2,0,21.3
			c0,1.9-0.6,2.6-2.5,2.5C727.9,499.9,720.8,500,713.7,500z"/>
		<path class="st3" d="M737.5,476.2c0-7,0.1-14,0-21c0-2.2,0.5-2.9,2.8-2.8c7,0.1,14,0,20.9,0c0,7.9,0,15.8,0,23.7
			C753.3,476.2,745.4,476.2,737.5,476.2z"/>
		<path class="st3" d="M262.5,381.3c-7.1,0-14.2-0.1-21.3,0c-1.9,0-2.5-0.6-2.5-2.5c0.1-7.1,0-14.2,0-21.3c7.1,0,14.2,0.1,21.3,0
			c1.9,0,2.6,0.6,2.5,2.5C262.4,367.1,262.5,374.2,262.5,381.3z"/>
		<path class="st3" d="M286.2,405c-7,0-14-0.1-20.9,0c-2.3,0-2.8-0.7-2.8-2.8c0.1-7,0-14,0-21c7.1,0,14.2,0.1,21.3,0
			c2,0,2.5,0.6,2.5,2.5C286.2,390.9,286.2,398,286.2,405z"/>
		<path class="st3" d="M310,452.5c-7.1,0-14.2,0-21.3,0c-1.6,0-2.5-0.3-2.5-2.2c0.1-7.2,0.1-14.4,0.1-21.6c6.8,0,13.7,0.2,20.5,0
			c2.7-0.1,3.3,0.8,3.2,3.4C309.9,438.9,310,445.7,310,452.5z"/>
		<path class="st3" d="M428.7,571.3c-7.1,0-14.2-0.1-21.3,0c-1.9,0-2.5-0.6-2.5-2.5c0.1-7.1,0-14.2,0-21.3c7.1,0,14.2,0.1,21.3,0
			c1.9,0,2.6,0.6,2.5,2.5C428.7,557.1,428.7,564.2,428.7,571.3z"/>
		<path class="st3" d="M405,547.5c-7.1,0-14.2-0.1-21.3,0c-1.9,0-2.5-0.6-2.5-2.5c0.1-7.1,0-14.2,0-21.3c7.1,0,14.2,0.1,21.3,0
			c1.9,0,2.6,0.6,2.5,2.5C404.9,533.3,405,540.4,405,547.5z"/>
		<path class="st3" d="M238.8,357.5c-7.1,0-14.2-0.1-21.3,0c-1.9,0-2.5-0.6-2.5-2.5c0.1-7.1,0-14.2,0-21.3c7.1,0,14.2,0.1,21.3,0
			c1.9,0,2.6,0.6,2.5,2.5C238.7,343.3,238.8,350.4,238.8,357.5z"/>
		<path class="st3" d="M381.3,523.8c-7.1,0-14.2-0.1-21.3,0c-1.9,0-2.5-0.6-2.5-2.5c0.1-7.1,0-14.2,0-21.3c7.1,0,14.2,0.1,21.3,0
			c1.9,0,2.6,0.6,2.5,2.5C381.2,509.6,381.3,516.7,381.3,523.8z"/>
		<path class="st3" d="M357.5,500c-7.1,0-14.2-0.1-21.3,0c-1.9,0-2.5-0.6-2.5-2.5c0.1-7.1,0-14.2,0-21.3c7.1,0,14.2,0.1,21.3,0
			c1.9,0,2.6,0.6,2.5,2.5C357.4,485.8,357.5,492.9,357.5,500z"/>
		<path class="st3" d="M333.8,476.3c-7.1,0-14.2-0.1-21.3,0c-1.9,0-2.5-0.6-2.5-2.5c0.1-7.1,0-14.2,0-21.3c7.1,0,14.2,0.1,21.3,0
			c1.9,0,2.6,0.6,2.5,2.5C333.7,462.1,333.8,469.2,333.8,476.3z"/>
		<path class="st3" d="M761.3,357.5c0,7.1-0.1,14.2,0,21.3c0,1.9-0.6,2.5-2.5,2.5c-7.1-0.1-14.2,0-21.3,0c0-7.1,0.1-14.2,0-21.3
			c0-1.9,0.6-2.6,2.5-2.5C747.1,357.6,754.2,357.5,761.3,357.5z"/>
		<path class="st3" d="M737.5,381.3c0,7-0.1,14,0,21c0,2.2-0.5,2.9-2.8,2.8c-7-0.1-14,0-20.9,0c0-7.1,0-14.2-0.1-21.3
			c0-1.9,0.6-2.6,2.5-2.5C723.3,381.3,730.4,381.3,737.5,381.3z"/>
		<path class="st3" d="M618.8,523.8c0,7.1-0.1,14.2,0,21.3c0,1.9-0.6,2.5-2.5,2.5c-7.1-0.1-14.2,0-21.3,0c0-7.1,0.1-14.2,0-21.3
			c0-1.9,0.6-2.6,2.5-2.5C604.6,523.8,611.7,523.8,618.8,523.8z"/>
		<path class="st3" d="M595,547.5c0,7.1-0.1,14.2,0,21.3c0,1.9-0.6,2.5-2.5,2.5c-7.1-0.1-14.2,0-21.3,0c0-7.1,0.1-14.2,0-21.3
			c0-1.9,0.6-2.6,2.5-2.5C580.8,547.6,587.9,547.5,595,547.5z"/>
		<path class="st3" d="M642.5,500c0,7.1-0.1,14.2,0,21.3c0,1.9-0.6,2.5-2.5,2.5c-7.1-0.1-14.2,0-21.3,0c0-7.1,0.1-14.2,0-21.3
			c0-1.9,0.6-2.6,2.5-2.5C628.3,500.1,635.4,500,642.5,500z"/>
		<path class="st3" d="M666.3,476.3c0,7.1-0.1,14.2,0,21.3c0,1.9-0.6,2.5-2.5,2.5c-7.1-0.1-14.2,0-21.3,0c0-7.1,0.1-14.2,0-21.3
			c0-1.9,0.6-2.6,2.5-2.5C652.1,476.3,659.2,476.3,666.3,476.3z"/>
		<path class="st3" d="M785,333.8c0,7.1-0.1,14.2,0,21.3c0,1.9-0.6,2.5-2.5,2.5c-7.1-0.1-14.2,0-21.3,0c0-7.1,0.1-14.2,0-21.3
			c0-1.9,0.6-2.6,2.5-2.5C770.8,333.8,777.9,333.8,785,333.8z"/>
		<path class="st3" d="M713.7,428.7c0,7.2,0,14.4,0.1,21.6c0,2-0.9,2.2-2.5,2.2c-7.1-0.1-14.2,0-21.3,0c0-6.8,0.1-13.7-0.1-20.5
			c-0.1-2.5,0.5-3.4,3.2-3.4C700,428.9,706.8,428.7,713.7,428.7z"/>
		<path class="st3" d="M690,452.5c0,7.1-0.1,14.2,0,21.3c0,1.9-0.6,2.5-2.5,2.5c-7.1-0.1-14.2,0-21.3,0c0-7.1,0.1-14.2,0-21.3
			c0-1.9,0.6-2.6,2.5-2.5C675.8,452.6,682.9,452.5,690,452.5z"/>
		<path class="st3" d="M523.7,238.8c-15.8,0-31.7,0-47.5,0c0-14.7,0.1-29.5-0.1-44.2c0-2.8,0.9-3.4,3.5-3.4
			c13.5,0.1,27.1,0.1,40.6,0c2.6,0,3.5,0.6,3.5,3.4C523.7,209.3,523.7,224,523.7,238.8z"/>
		<path class="st3" d="M785,405c0-7,0.1-14,0-21c0-2.2,0.5-2.9,2.8-2.8c7,0.1,14,0,20.9,0c0,7.9,0,15.8,0,23.7
			C800.8,405,792.9,405,785,405z"/>
		<path class="st3" d="M191.3,381.2c7,0,14,0.1,20.9,0c2.3,0,2.8,0.7,2.8,2.8c-0.1,7,0,14,0,21c-7.9,0-15.8,0-23.7-0.1
			C191.3,397,191.3,389.1,191.3,381.2z"/>
		<path class="st3" d="M215,405c7.1,0,14.2,0,21.3,0c1.6,0,2.5,0.3,2.5,2.2c-0.1,7.2-0.1,14.4-0.1,21.6c-7.9,0-15.7-0.1-23.6-0.1
			C215.1,420.8,215,412.9,215,405z"/>
		<path class="st3" d="M761.3,428.8c0-7.2,0-14.4-0.1-21.6c0-2,0.9-2.2,2.5-2.2c7.1,0.1,14.2,0,21.3,0c0,7.9,0,15.8-0.1,23.7
			C777.1,428.7,769.2,428.7,761.3,428.8z"/>
		<path class="st3" d="M547.5,713.8c0-14.8,0-29.7-0.1-44.5c0-2.2,0.4-3.1,2.9-3.1c77.7,0.1,155.5,0.1,233.2,0.1
			c0.5,0,1,0.1,1.5,0.1c0,7.9-0.1,15.7-0.1,23.6c-1.3,0-2.6,0.1-3.9,0.1c-68.7,0-137.3,0-206,0c-3.9,0-3.9,0-3.9,3.8
			c0,6.6,0,13.3,0.1,19.9c0,0-0.1,0.1-0.1,0.1C563.3,713.8,555.4,713.8,547.5,713.8L547.5,713.8z"/>
		<path class="st3" d="M571.3,713.7c7,0,14,0.1,21,0c2.1,0,2.7,0.6,2.7,2.7c-0.1,7,0,14,0,21c0,0-0.1,0.1-0.1,0.1
			c-7.9,0-15.8-0.1-23.7-0.1c0,0,0,0,0,0c0-7.9-0.1-15.8-0.1-23.7L571.3,713.7z"/>
		<path class="st3" d="M595.1,737.4c7,0,14,0.1,21,0c2.1,0,2.7,0.6,2.7,2.7c-0.1,7,0,14,0,21c0,0-0.1,0.1-0.1,0.1
			c-7.9,0-15.8-0.1-23.7-0.1l0,0c0-7.9-0.1-15.8-0.1-23.7L595.1,737.4z"/>
		<path class="st3" d="M618.8,761.2c7,0,14,0.1,21,0c2.1,0,2.7,0.6,2.7,2.7c-0.1,7,0,14,0,21c0,0-0.1,0.1-0.1,0.1
			c-7.9,0-15.8-0.1-23.7-0.1l0,0c0-7.9-0.1-15.8-0.1-23.7L618.8,761.2z"/>
		<path class="st3" d="M666.2,808.8c-7.9,0-15.8,0-23.8,0c0,0,0,0,0,0c0-7.9,0-15.8-0.1-23.7c0,0,0.1-0.1,0.1-0.1c7,0,14,0.1,20.9,0
			c2.3,0,2.8,0.7,2.8,2.9C666.2,794.8,666.2,801.8,666.2,808.8z"/>
		<path class="st3" d="M808.7,666.2c0-7.9,0-15.8,0.1-23.7c0,0,0,0,0,0c15.8,0,31.6,0,47.5-0.1c0,7.9,0,15.8,0,23.7
			C840.3,666.2,824.5,666.2,808.7,666.2z"/>
		<path class="st3" d="M215,666.3c1.1,0,2.2-0.1,3.3-0.1c76.8,0,153.7,0,230.5-0.1c2.9,0,3.9,0.5,3.8,3.7
			c-0.2,14.6-0.1,29.3-0.1,43.9l0,0c-7.9,0-15.8,0.1-23.7,0.1l-0.1-0.1c0-7.1,0-14.2,0.1-21.4c0-1.9-0.6-2.5-2.4-2.3
			c-0.8,0.1-1.6,0-2.4,0c-68.4,0-136.7,0-205.1,0c-1.3,0-2.6,0-3.9-0.1C215,682.1,215,674.2,215,666.3z"/>
		<path class="st3" d="M404.9,737.4c0-7,0.1-14,0-21c0-2.1,0.6-2.7,2.7-2.7c7,0.1,14,0,21,0c0,0,0.1,0.1,0.1,0.1
			c0,7.9-0.1,15.8-0.1,23.7l0,0c-7.9,0-15.8,0.1-23.7,0.1L404.9,737.4z"/>
		<path class="st3" d="M381.2,761.2c0-7,0.1-14,0-21c0-2.1,0.6-2.7,2.7-2.7c7,0.1,14,0,21,0c0,0,0.1,0.1,0.1,0.1
			c0,7.9-0.1,15.8-0.1,23.7c0,0,0,0,0,0c-7.9,0-15.8,0.1-23.7,0.1L381.2,761.2z"/>
		<path class="st3" d="M357.4,784.9c0-7,0.1-14,0-21c0-2.1,0.6-2.7,2.7-2.7c7,0.1,14,0,21,0c0,0,0.1,0.1,0.1,0.1
			c0,7.9-0.1,15.8-0.1,23.7l0,0c-7.9,0-15.8,0-23.7,0.1L357.4,784.9z"/>
		<path class="st3" d="M357.5,808.7c-7.9,0-15.8,0-23.8,0c0-7,0.1-14,0-20.9c0-2.2,0.5-2.9,2.8-2.9c7,0.1,14,0,20.9,0
			c0,0,0.1,0.1,0.1,0.1C357.5,793,357.5,800.9,357.5,808.7L357.5,808.7z"/>
		<path class="st3" d="M191.2,642.5c0,7.9,0,15.8,0.1,23.7c-15.8,0-31.7,0-47.5,0c0-7.9,0-15.8,0-23.7
			C159.6,642.5,175.5,642.5,191.2,642.5L191.2,642.5z"/>
		<path class="st3" d="M547.6,761.2c0-7.9-0.1-15.7-0.1-23.6c0,0,0.1-0.1,0.1-0.1c7.9,0,15.8,0.1,23.7,0.1c0,0,0,0,0,0
			c0,7.9,0.1,15.8,0.1,23.7l-0.1,0.1C563.3,761.3,555.4,761.2,547.6,761.2z"/>
		<path class="st3" d="M594.9,785.1c-7,0-14-0.1-21,0c-2.1,0-2.7-0.6-2.7-2.7c0.1-7,0-14,0-21c0,0,0.1-0.1,0.1-0.1
			c7.9,0,15.8,0.1,23.7,0.1c0,0,0,0,0,0c0,7.9,0.1,15.8,0.1,23.7L594.9,785.1z"/>
		<path class="st3" d="M618.8,808.7c-7.1,0-14.2,0-21.3,0.1c-2.2,0-2.6-0.8-2.6-2.8c0.1-7,0-14,0-21c0,0,0.1-0.1,0.1-0.1
			c7.9,0,15.8,0.1,23.7,0.1c0,0,0,0,0,0C618.7,792.9,618.8,800.8,618.8,808.7z"/>
		<path class="st4" d="M618.8,808.7c0-7.9,0-15.8-0.1-23.7c7.9,0,15.8,0.1,23.7,0.1c0,7.9,0,15.8,0.1,23.7
			C634.6,808.8,626.7,808.7,618.8,808.7z"/>
		<path class="st3" d="M428.8,761.3c0,7-0.1,14,0,21c0,2.1-0.6,2.7-2.7,2.7c-7-0.1-14,0-21,0c0,0-0.1-0.1-0.1-0.1
			c0-7.9,0.1-15.8,0.1-23.7c0,0,0,0,0,0c7.9,0,15.8-0.1,23.7-0.1L428.8,761.3z"/>
		<path class="st3" d="M452.6,737.6c0,7.9-0.1,15.7-0.1,23.6c-7.9,0-15.7,0.1-23.6,0.1c0,0-0.1-0.1-0.1-0.1c0-7.9,0.1-15.8,0.1-23.7
			c0,0,0,0,0,0c7.9,0,15.8-0.1,23.7-0.1L452.6,737.6z"/>
		<path class="st4" d="M357.5,808.8c0-7.9,0-15.8,0.1-23.7c7.9,0,15.8,0,23.7-0.1c0,7.9,0,15.8-0.1,23.7
			C373.3,808.7,365.4,808.8,357.5,808.8z"/>
		<path class="st3" d="M381.2,808.7c0-7.9,0-15.8,0.1-23.7c0,0,0,0,0,0c7.9,0,15.8-0.1,23.7-0.1c0,0,0.1,0.1,0.1,0.1
			c0,6.9-0.1,13.8,0,20.7c0,2.2-0.4,3.2-2.9,3.1C395.2,808.6,388.2,808.7,381.2,808.7z"/>
		<path class="st3" d="M452.5,713.8c7.9,0,15.9,0,23.8,0.1c0,7-0.1,14,0,21c0,2.1-0.7,2.7-2.7,2.7c-7-0.1-14,0-21,0
			c0,0-0.1-0.1-0.1-0.1C452.5,729.5,452.5,721.6,452.5,713.8L452.5,713.8z"/>
		<path class="st3" d="M523.7,713.8c7.9,0,15.9,0,23.8-0.1c0,0,0,0,0,0c0,7.9,0.1,15.8,0.1,23.7c0,0-0.1,0.1-0.1,0.1
			c-7,0-14-0.1-21,0c-2.1,0-2.7-0.6-2.7-2.7C523.8,727.9,523.7,720.8,523.7,713.8z"/>
		<path class="st4" d="M191.3,642.5c-15.8,0-31.6,0-47.5-0.1c0-7.9,0-15.8,0-23.7c15.8,0,31.6,0,47.4,0
			C191.2,626.7,191.3,634.6,191.3,642.5z"/>
		<path class="st4" d="M856.2,642.5c-15.8,0-31.6,0-47.5,0.1c0-7.9,0.1-15.8,0.1-23.7c15.8,0,31.6,0,47.4,0
			C856.2,626.7,856.2,634.6,856.2,642.5z"/>
		<path class="st4" d="M547.6,737.4c0-7.9-0.1-15.8-0.1-23.7c7.9,0,15.8,0.1,23.7,0.1c0,7.9,0.1,15.8,0.1,23.7
			C563.4,737.5,555.5,737.5,547.6,737.4z"/>
		<path class="st4" d="M595,761.3c-7.9,0-15.8-0.1-23.7-0.1c0-7.9-0.1-15.8-0.1-23.7c7.9,0,15.8,0.1,23.7,0.1
			C595,745.5,595,753.4,595,761.3z"/>
		<path class="st4" d="M618.8,785c-7.9,0-15.8-0.1-23.7-0.1c0-7.9-0.1-15.8-0.1-23.7c7.9,0,15.8,0.1,23.7,0.1
			C618.7,769.2,618.7,777.1,618.8,785z"/>
		<path class="st4" d="M452.5,713.7c0,7.9-0.1,15.8-0.1,23.7c-7.9,0-15.8,0.1-23.7,0.1c0-7.9,0.1-15.8,0.1-23.7
			C436.7,713.8,444.6,713.8,452.5,713.7z"/>
		<path class="st4" d="M428.8,737.5c0,7.9-0.1,15.8-0.1,23.7c-7.9,0-15.8,0.1-23.7,0.1c0-7.9,0.1-15.8,0.1-23.7
			C413,737.5,420.9,737.5,428.8,737.5z"/>
		<path class="st4" d="M404.9,784.9c-7.9,0-15.8,0.1-23.7,0.1c0-7.9,0.1-15.8,0.1-23.7c7.9,0,15.8-0.1,23.7-0.1
			C405,769.1,405,777,404.9,784.9z"/>
	</g>
</g>
</svg>
