<svg xmlns="http://www.w3.org/2000/svg" version="1.1" xmlns:xlink="http://www.w3.org/1999/xlink" preserveAspectRatio="none" x="0px" y="0px" width="100" height="100" viewBox="0 0 100 100">
<defs>
<linearGradient id="Gradient_1" gradientUnits="userSpaceOnUse" x1="66.6" y1="191.35000000000002" x2="66.6" y2="338.75" spreadMethod="pad">
<stop  offset="0%" stop-color="#BBD7D1"/>

<stop  offset="27.84313725490196%" stop-color="#D0ECE5"/>

<stop  offset="70.58823529411765%" stop-color="#4B8072"/>

<stop  offset="100%" stop-color="#77AA9D"/>
</linearGradient>

<radialGradient id="Gradient_2" gradientUnits="userSpaceOnUse" cx="0" cy="0" r="210.3" fx="0" fy="0" gradientTransform="matrix( 1, 0, 0, 1, 247.3,123.15) " spreadMethod="pad">
<stop  offset="15.686274509803921%" stop-color="#E1F0ED"/>

<stop  offset="100%" stop-color="#A9C4BD"/>
</radialGradient>

<linearGradient id="Gradient_3" gradientUnits="userSpaceOnUse" x1="29.937499999999993" y1="297.125" x2="152.6625" y2="264.275" spreadMethod="pad">
<stop  offset="15.686274509803921%" stop-color="#BBD7D1"/>

<stop  offset="100%" stop-color="#4B8072"/>
</linearGradient>

<linearGradient id="Gradient_4" gradientUnits="userSpaceOnUse" x1="29.85" y1="83.9" x2="71.35" y2="83.9" spreadMethod="pad">
<stop  offset="0.39215686274509803%" stop-color="#89AAA3"/>

<stop  offset="29.41176470588235%" stop-color="#DAE7E5"/>

<stop  offset="100%" stop-color="#A1B4AF"/>
</linearGradient>

<linearGradient id="Gradient_5" gradientUnits="userSpaceOnUse" x1="178.2" y1="102.35" x2="327.3" y2="102.35" spreadMethod="pad">
<stop  offset="0%" stop-color="#B4C9C6"/>

<stop  offset="26.274509803921568%" stop-color="#FFFFFF"/>

<stop  offset="72.15686274509804%" stop-color="#B4C6C4"/>

<stop  offset="100%" stop-color="#C1D4E5"/>
</linearGradient>

<linearGradient id="Gradient_6" gradientUnits="userSpaceOnUse" x1="252.15" y1="121.3875" x2="252.15" y2="89.5125" spreadMethod="pad">
<stop  offset="0%" stop-color="#B4C9C6" stop-opacity="0"/>

<stop  offset="100%" stop-color="#899593" stop-opacity="0.4"/>
</linearGradient>

<radialGradient id="Gradient_7" gradientUnits="userSpaceOnUse" cx="0" cy="0" r="24.72500000000001" fx="0" fy="0" gradientTransform="matrix( 0.9999999999999997, 0, 0, 0.5788675429726995, 50.7,7.5) " spreadMethod="pad">
<stop  offset="26.274509803921568%" stop-color="#FFFFFF"/>

<stop  offset="100%" stop-color="#B4C6C4"/>
</radialGradient>

<radialGradient id="Gradient_8" gradientUnits="userSpaceOnUse" cx="0" cy="0" r="26.69999999999999" fx="0" fy="0" gradientTransform="matrix( 1.0000000000000004, 0, 0, 1.0000000000000004, 311.3,119.05) " spreadMethod="pad">
<stop  offset="0%" stop-color="#FFFFFF"/>

<stop  offset="36.86274509803921%" stop-color="#7EFFE3" stop-opacity="0.6313725490196078"/>

<stop  offset="100%" stop-color="#96FCE4" stop-opacity="0"/>
</radialGradient>

<g id="Layer1_0_FILL">
<path fill="url(#Gradient_1)" stroke="none" d="
M 39.95 309.8
Q 59.64140625 329.6671875 87.7 332.8 98.146484375 235.6232421875 87.7 171.95 63.8248046875 175.9544921875 39.95 200.25
L 39.95 309.8 Z"/>
</g>

<g id="Layer1_1_FILL">
<path fill="url(#Gradient_1)" stroke="none" d="
M 39.95 309.8
Q 59.64140625 329.6671875 87.7 332.8 98.146484375 235.6232421875 87.7 171.95 63.8248046875 175.9544921875 39.95 200.25
L 39.95 309.8 Z"/>
</g>

<g id="Layer1_2_FILL">
<path fill="url(#Gradient_2)" stroke="none" d="
M 411.6 127.2
Q 401 98.45 366.7 68.85 332.45 39.25 253.3 36.1
L 246 36.1
Q 166.85 39.25 132.6 68.85 98.3 98.45 87.7 127.2
L 87.7 313.6
Q 116 348.9 128.65 365 150.15 392.45 184.35 429.55 246.65 465.7 314.95 429.55 348.7 393.15 367.3 370.45 376.9544921875 358.687109375 396.6 333.25
L 396.05 333.95 411.6 313.6 411.6 127.2 Z"/>
</g>

<g id="Layer1_3_FILL">
<path fill="url(#Gradient_3)" stroke="none" d="
M 93.75 149.7
Q 86.5046875 148.958203125 83.3 182.9 80.1447265625 216.84765625 84.05 270.45 88.0015625 324.1087890625 87.35 336.95 86.7494140625 349.7837890625 130.55 395.95 174.4025390625 442.1244140625 138.8 398.75 103.19765625 355.36015625 103.2 283.9 103.2015625 212.4486328125 102.1 181.45 100.9962890625 150.443359375 93.75 149.7 Z"/>
</g>

<g id="Layer1_4_FILL">
<path fill="url(#Gradient_3)" stroke="none" d="
M 93.75 149.7
Q 86.5046875 148.958203125 83.3 182.9 80.1447265625 216.84765625 84.05 270.45 88.0015625 324.1087890625 87.35 336.95 86.7494140625 349.7837890625 130.55 395.95 174.4025390625 442.1244140625 138.8 398.75 103.19765625 355.36015625 103.2 283.9 103.2015625 212.4486328125 102.1 181.45 100.9962890625 150.443359375 93.75 149.7 Z"/>
</g>

<g id="Layer1_6_MEMBER_0_FILL">
<path fill="#072722" fill-opacity="0.2980392156862745" stroke="none" d="
M 106.2 186.05
L 107.15 186.1
Q 106.7 185.9 106.2 185.8
L 106.2 186.05
M 392.6 184
L 390.9 182.05
Q 274.45 203 107.15 186.1
L 106.2 187.4 106.2 276.15
Q 97.0314453125 309.632421875 122 325.95 124.9310546875 326.9255859375 128.3 327.3 155.75 333.4 183.05 336.55 244.95 343.2 298.55 336.55 334.0943359375 332.4203125 369.3 323.15
L 369.3 323.2
Q 397.600390625 303.92265625 392.6 263.95
L 392.6 184
M 390.9 182.05
L 392.6 181.75 392.6 181.35
Q 391.75 181.55 390.9 182.05 Z"/>
</g>

<g id="Layer1_6_MEMBER_1_MEMBER_0_FILL">
<path fill="#B8D3CE" stroke="none" d="
M 384.45 298.7
L 384.45 170.8
Q 246.15 183.75 111.6 176.35
L 113.8 299.8
Q 250.25 327.35 384.45 298.7 Z"/>
</g>

<g id="Layer1_6_MEMBER_1_MEMBER_1_FILL">
<path fill="#FFFFFF" stroke="none" d="
M 384.4 175.6
L 402.2 154.15
Q 277.3880859375 176.2099609375 96.35 158.7
L 113.8 180.1
Q 254.96875 199.7509765625 384.4 175.6 Z"/>
</g>

<g id="Layer1_6_MEMBER_1_MEMBER_2_FILL">
<path fill="#9AC2BA" stroke="none" d="
M 109.8 179.45
Q 102.5150390625 160.2359375 95.35 158.6
L 95.35 283.15
Q 102.5359375 298.4404296875 118.65 300.1
L 109.8 179.45 Z"/>
</g>

<g id="Layer1_6_MEMBER_1_MEMBER_3_FILL">
<path fill="#9AC2BA" stroke="none" d="
M 109.8 179.45
Q 102.5150390625 160.2359375 95.35 158.6
L 95.35 283.15
Q 102.5359375 298.4404296875 118.65 300.1
L 109.8 179.45 Z"/>
</g>

<g id="Layer1_7_FILL">
<path fill="#96FCE4" stroke="none" d="
M 135.3 248.95
Q 135.3 268 148.75 281.45 162.25 294.95 181.3 294.95 200.35 294.95 213.8 281.45 227.3 268 227.3 248.95 227.3 229.9 213.8 216.4 200.35 202.95 181.3 202.95 162.25 202.95 148.75 216.4 135.3 229.9 135.3 248.95 Z"/>
</g>

<g id="Layer1_8_FILL">
<path fill="#96FCE4" stroke="none" d="
M 135.3 248.95
Q 135.3 268 148.75 281.45 162.25 294.95 181.3 294.95 200.35 294.95 213.8 281.45 227.3 268 227.3 248.95 227.3 229.9 213.8 216.4 200.35 202.95 181.3 202.95 162.25 202.95 148.75 216.4 135.3 229.9 135.3 248.95 Z"/>
</g>

<g id="Layer1_9_FILL">
<path fill="#073F35" stroke="none" d="
M 316.05 455.55
L 304.65 427.75
Q 254.7052734375 384.3640625 205.25 430.75
L 194.6 455.55
Q 255.35 468.35 316.05 455.55 Z"/>
</g>

<g id="Layer1_10_FILL">
<path fill="url(#Gradient_4)" stroke="none" d="
M 33.2 70.05
L 29.85 70.05 37.05 95.3
Q 40.85 97.8 50.6 97.8 60.4 97.8 64.2 95.3
L 71.35 70.05 68.05 70.05 61.95 84.1 39.3 84.1 33.2 70.05 Z"/>
</g>

<g id="Layer1_11_FILL">
<path fill="#072722" stroke="none" d="
M 135.65 339.35
Q 134.05 339.35 132.9 342.2 131.75 345.1 131.75 349.15 131.75 353.2 132.9 356.05 134.05 358.95 135.65 358.95 137.25 358.95 138.4 356.05 139.55 353.2 139.55 349.15 139.55 345.1 138.4 342.2 137.25 339.35 135.65 339.35 Z"/>
</g>

<g id="Layer1_12_FILL">
<path fill="#072722" stroke="none" d="
M 135.65 339.35
Q 134.05 339.35 132.9 342.2 131.75 345.1 131.75 349.15 131.75 353.2 132.9 356.05 134.05 358.95 135.65 358.95 137.25 358.95 138.4 356.05 139.55 353.2 139.55 349.15 139.55 345.1 138.4 342.2 137.25 339.35 135.65 339.35 Z"/>
</g>

<g id="Layer1_13_FILL">
<path fill="#FFFFFF" stroke="none" d="
M 172.95 407.5
L 178.65 423.8 323.25 423.8 328.75 407.5 172.95 407.5 Z"/>
</g>

<g id="Layer1_14_FILL">
<path fill="#AFCDC7" stroke="none" d="
M 248.5 343.05
L 279.65 328.55 246.45 274.4 218.25 328.55 248.5 343.05 Z"/>
</g>

<g id="Layer1_15_FILL">
<path fill="#EEFFFB" stroke="none" d="
M 275.85 343.55
L 254.2 308.3 254.2 353.6 275.85 343.55 Z"/>
</g>

<g id="Layer1_16_FILL">
<path fill="#072722" fill-opacity="0.2980392156862745" stroke="none" d="
M 167.3 149.1
Q 167.3 157.15 190.7 162.8 214.15 168.5 247.3 168.5 280.45 168.5 303.85 162.8 327.3 157.15 327.3 149.1 327.3 141.05 303.85 135.35 280.45 129.7 247.3 129.7 214.15 129.7 190.7 135.35 167.3 141.05 167.3 149.1 Z"/>
</g>

<g id="Layer1_17_FILL">
<path fill="url(#Gradient_5)" stroke="none" d="
M 327.3 139.4
L 327.3 53.35 178.2 53.35 178.2 139.4
Q 252.75 163.4072265625 327.3 139.4 Z"/>
</g>

<g id="Layer1_18_FILL">
<path fill="url(#Gradient_6)" stroke="none" d="
M 192.9 134.65
Q 252.7974609375 155.678125 312.65 134.65
L 312.65 77.6 192.9 77.6 192.9 134.65 Z"/>
</g>

<g id="Layer1_19_FILL">
<path fill="url(#Gradient_7)" stroke="none" d="
M 65.8 10.15
Q 65 9.45 63.95 9.05 63.75 7.7 62.8 6.65 61.6 5.4 59.9 5.4 58.35 5.4 57.25 6.35 56.65 5.3 55.6 4.4 53.15 2.25 49.65 2.25 46.15 2.25 43.7 4.4 43 5 42.5 5.65 41.65 5.4 40.7 5.4 38.3 5.4 36.6 7.2 35.65 8.15 35.25 9.35 34.6 9.7 34.05 10.15 32.05 11.75 32.05 14.05 32.05 16.35 34.05 17.95 36.1 19.55 38.95 19.55 41.8 19.55 43.8 17.95 43.85 17.9 43.95 17.85 44.4 18.3 45.05 18.75 47.8 20.7 51.65 20.7 55.3 20.7 57.95 19 59.3 19.55 60.95 19.55 63.8 19.55 65.8 17.95 67.85 16.35 67.85 14.05 67.85 11.75 65.8 10.15 Z"/>
</g>

<g id="Layer1_20_FILL">
<path fill="#FFFFFF" stroke="none" d="
M 220.85 48.25
Q 227.95 44.35 227.95 38.85 227.95 33.35 220.85 29.45 213.8 25.55 203.8 25.55 193.8 25.55 186.7 29.45 179.65 33.35 179.65 38.85 179.65 44.35 186.7 48.25 193.8 52.15 203.8 52.15 213.8 52.15 220.85 48.25 Z"/>
</g>

<g id="Layer1_21_FILL">
<path fill="#FFFFFF" stroke="none" d="
M 270.15 45.95
Q 280.55 39.75 280.55 30.95 280.55 22.15 270.15 15.95 259.8 9.75 245.15 9.75 230.5 9.75 220.1 15.95 209.75 22.15 209.75 30.95 209.75 39.75 220.1 45.95 230.5 52.15 245.15 52.15 259.8 52.15 270.15 45.95 Z"/>
</g>

<g id="Layer1_22_FILL">
<path fill="#FFFFFF" stroke="none" d="
M 316.4 41.2
Q 319.9 37.7 319.9 32.75 319.9 27.8 316.4 24.3 312.9 20.8 307.95 20.8 303 20.8 299.5 24.3 296 27.8 296 32.75 296 37.7 299.5 41.2 303 44.7 307.95 44.7 312.9 44.7 316.4 41.2 Z"/>
</g>

<g id="Layer1_23_FILL">
<path fill="#FFFFFF" stroke="none" d="
M 276.85 46
Q 266.8 40.6 252.55 40.6 238.3 40.6 228.25 46 218.2 51.45 218.2 59.1 218.2 66.75 228.25 72.15 238.3 77.6 252.55 77.6 266.8 77.6 276.85 72.15 286.9 66.75 286.9 59.1 286.9 51.45 276.85 46 Z"/>
</g>

<g id="Layer1_24_FILL">
<path fill="#7F9993" stroke="none" d="
M 276.55 344.2
L 254.2 350.7 233.1 343.65 254.75 355.5 276.55 344.2 Z"/>
</g>

<g id="Layer1_25_MEMBER_0_FILL">
<path fill="url(#Gradient_8)" stroke="none" d="
M 330.15 135.35
Q 337.95 128.6 337.95 119.05 337.95 109.5 330.15 102.75 322.35 96 311.3 96 300.25 96 292.45 102.75 284.65 109.5 284.65 119.05 284.65 128.6 292.45 135.35 300.25 142.1 311.3 142.1 322.35 142.1 330.15 135.35 Z"/>
</g>

<g id="Layer1_25_MEMBER_1_FILL">
<path fill="url(#Gradient_8)" stroke="none" d="
M 330.15 135.35
Q 337.95 128.6 337.95 119.05 337.95 109.5 330.15 102.75 322.35 96 311.3 96 300.25 96 292.45 102.75 284.65 109.5 284.65 119.05 284.65 128.6 292.45 135.35 300.25 142.1 311.3 142.1 322.35 142.1 330.15 135.35 Z"/>
</g>

<path id="Layer1_0_1_STROKES" stroke="#072722" stroke-width="2" stroke-linejoin="round" stroke-linecap="round" fill="none" d="
M 14.604851531982423 46.86214370727539
Q 18.64166657626629 42.505071207880974 22.678547668457032 41.78691940307617 24.44486684203148 53.20585884749889 22.678547668457032 70.633203125 17.93432651758194 70.07137534618377 14.604851531982423 66.50846252441406
L 14.604851531982423 46.86214370727539 Z"/>

<path id="Layer1_1_1_STROKES" stroke="#072722" stroke-width="2" stroke-linejoin="round" stroke-linecap="round" fill="none" d="
M 85.44514846801758 46.86214370727539
Q 81.40833342373371 42.505071207880974 77.37145233154297 41.78691940307617 75.60513315796852 53.20585884749889 77.37145233154297 70.633203125 82.11567348241806 70.07137534618377 85.44514846801758 66.50846252441406
L 85.44514846801758 46.86214370727539 Z"/>

<path id="Layer1_5_1_STROKES" stroke="#072722" stroke-width="2" stroke-linejoin="round" stroke-linecap="round" fill="none" d="
M 50.67863311767579 22.974049377441407
L 49.444329833984376 22.974049377441407
Q 36.0614387512207 23.538959503173828 30.270358276367183 28.847321319580075 24.470823669433592 34.15568313598633 22.678547668457032 39.31160888671875
L 22.678547668457032 72.73994140625001
Q 27.46358642578125 79.07052154541014 29.602481842041016 81.95783996582031 33.23775863647461 86.8806282043457 39.02038497924804 93.53401412963868 49.55423355102539 100.01703033447265 61.10257797241211 93.53401412963868 66.80911712646484 87.0061637878418 69.95405426025391 82.93522415161132 71.58646130263806 80.82570795416832 74.90817565917969 76.2639045715332
L 74.81940727233886 76.3939235687256 77.44441528320313 72.73994140625001 77.44441528320313 39.31160888671875
Q 75.65213928222656 34.15568313598633 69.85260467529297 28.847321319580075 64.06152420043945 23.538959503173828 50.67863311767579 22.974049377441407 Z"/>

<path id="Layer1_6_MEMBER_2_1_STROKES" stroke="#072722" stroke-width="2" stroke-linejoin="round" stroke-linecap="round" fill="none" d="
M 73.94440460205077 39.428643798828126
L 74.23184509277344 39.778350067138675 74.23184509277344 61.63947525024413
Q 73.36952362060546 63.67494506835938 70.4951187133789 64.67922973632812 64.44196014404297 66.38292694091797 58.32962265014649 67.13614044189453 49.26679306030273 68.32872848510742 38.800577545166014 67.13614044189453 34.18462142944336 66.5712303161621 29.543302917480467 65.47727737426757 28.93460540771484 65.40554275512694 28.410449218749996 65.20827255249023 26.694260406494138 64.53576049804687 25.806576538085935 62.437522888183594
L 25.806576538085935 40.38809432983398 25.967205047607422 40.15495681762695 25.806576538085935 40.145989990234376 25.806576538085935 40.101155853271486
Q 25.891117858886716 40.11908950805664 25.967205047607422 40.15495681762695 54.254730987548825 43.18574447631836 73.94440460205077 39.428643798828126 Z
M 73.94440460205077 39.428643798828126
Q 74.0881248474121 39.338975524902345 74.23184509277344 39.30310821533203
L 74.23184509277344 39.37484283447266 73.94440460205077 39.428643798828126 Z"/>

<path id="Layer1_7_1_STROKES" stroke="#072722" stroke-width="2" stroke-linejoin="round" stroke-linecap="round" fill="none" d="
M 44.13248443603516 54.41772766113281
Q 44.13248443603516 58.076806640625 41.84986877441407 60.66025085449218 39.57570724487305 63.25329895019531 36.35468292236328 63.25329895019531 33.13365859985352 63.25329895019531 30.85104293823242 60.66025085449218 28.576881408691406 58.076806640625 28.576881408691406 54.41772766113281 28.576881408691406 50.75864868164063 30.85104293823242 48.165600585937504 33.13365859985352 45.58215637207031 36.35468292236328 45.58215637207031 39.57570724487305 45.58215637207031 41.84986877441407 48.165600585937504 44.13248443603516 50.75864868164063 44.13248443603516 54.41772766113281 Z"/>

<path id="Layer1_8_1_STROKES" stroke="#072722" stroke-width="2" stroke-linejoin="round" stroke-linecap="round" fill="none" d="
M 70.98248443603515 54.41772766113281
Q 70.98248443603515 58.076806640625 68.69986877441406 60.66025085449218 66.42570724487305 63.25329895019531 63.204682922363276 63.25329895019531 59.98365859985351 63.25329895019531 57.70104293823242 60.66025085449218 55.4268814086914 58.076806640625 55.4268814086914 54.41772766113281 55.4268814086914 50.75864868164063 57.70104293823242 48.165600585937504 59.98365859985351 45.58215637207031 63.204682922363276 45.58215637207031 66.42570724487305 45.58215637207031 68.69986877441406 48.165600585937504 70.98248443603515 50.75864868164063 70.98248443603515 54.41772766113281 Z"/>

<path id="Layer1_9_1_STROKES" stroke="#072722" stroke-width="2" stroke-linejoin="round" stroke-linecap="round" fill="none" d="
M 40.81091384887695 84.1585594177246
Q 49.909458646178244 75.10659172534942 59.09805068969726 83.57312545776367
L 61.19536819458008 88.99814682006836
Q 50.02807235717773 91.49599838256836 38.851577758789055 88.99814682006836
L 40.81091384887695 84.1585594177246 Z"/>

<path id="Layer1_10_1_STROKES" stroke="#072722" stroke-width="2" stroke-linejoin="round" stroke-linecap="round" fill="none" d="
M 61.95 84.1
L 68.05 70.05 71.35 70.05 64.2 95.3
Q 60.4 97.8 50.6 97.8 40.85 97.8 37.05 95.3
L 29.85 70.05 33.2 70.05 39.3 84.1 61.95 84.1 Z"/>

<path id="Layer1_14_1_STROKES" stroke="#072722" stroke-width="2" stroke-linejoin="round" stroke-linecap="round" fill="none" d="
M 49.520417022705075 58.00994873046875
L 55.13396072387695 67.72102279663086 49.86703643798828 70.32140274047852 44.75228652954102 67.72102279663086 49.520417022705075 58.00994873046875 Z"/>

<path id="Layer1_17_1_STROKES" stroke="#072722" stroke-width="2" stroke-linejoin="round" stroke-linecap="round" fill="none" d="
M 38.0197265625 11.493485260009766
L 61.170996093750006 11.493485260009766 61.170996093750006 27.773605346679688
Q 49.595361328125 32.31562198102474 38.0197265625 27.773605346679688
L 38.0197265625 11.493485260009766 Z"/>

<path id="Layer1_19_MEMBER_0_1_STROKES" stroke="#072722" stroke-width="2" stroke-linejoin="round" stroke-linecap="round" fill="none" d="
M 40.608979034423825 18.911225891113283
Q 39.64026136398316 19.147718048095705 38.54892120361328 19.147718048095705 35.69516143798828 19.147718048095705 33.679693603515624 17.539571380615236 31.66422576904297 15.931424713134765 31.66422576904297 13.632720947265625 31.66422576904297 11.352936553955077 33.679693603515624 9.735330200195312 34.232609558105466 9.290724945068359 34.84795150756836 8.969095611572266 35.26709747314453 7.7677154541015625 36.19456939697265 6.783908081054687 37.89790725708008 4.977108001708984 40.30576705932617 4.977108001708984 41.25999298095703 4.977108001708984 42.10720291137695 5.270358276367187 42.60661087036133 4.589260864257813 43.302214813232425 3.9838409423828125 45.772500610351564 1.8554115295410156 49.25943832397461 1.8554115295410156 52.746376037597656 1.8554115295410156 55.20774383544922 3.9838409423828125 56.260067749023435 4.90143051147461 56.866491699218756 5.970375061035156 57.98124160766602 4.977108001708984 59.48838348388672 4.977108001708984 61.20063934326171 4.977108001708984 62.40456924438476 6.2541656494140625 63.37663116455079 7.285271453857423 63.563909149169916 8.656925964355468 64.58056106567383 9.04477310180664 65.42777099609376 9.735330200195312 67.4432388305664 11.352936553955077 67.4432388305664 13.632720947265625 67.4432388305664 15.931424713134765 65.42777099609376 17.539571380615236 63.42122116088868 19.147718048095705 60.5585433959961 19.147718048095705 58.90871353149414 19.147718048095705 57.54425964355468 18.61797561645508 54.90453186035157 20.301799774169922 51.28382415771485 20.301799774169922 48.8612635910511 20.301799774169922 46.87833251953125 19.540295028686526"/>
</defs>

<g transform="matrix( 0.1690826416015625, 0, 0, 0.1793365478515625, 7.85,10.95) ">
<use xlink:href="#Layer1_0_FILL"/>

<use xlink:href="#Layer1_0_1_STROKES" transform="matrix( 5.9142608642578125, 0, 0, 5.5760955810546875, -46.4,-61.05) "/>
</g>

<g transform="matrix( -0.1690826416015625, 0, 0, 0.1793365478515625, 92.2,10.95) ">
<use xlink:href="#Layer1_1_FILL"/>

<use xlink:href="#Layer1_1_1_STROKES" transform="matrix( -5.9142608642578125, 0, 0, 5.5760955810546875, 545.25,-61.05) "/>
</g>

<g transform="matrix( 0.1690826416015625, 0, 0, 0.1793365478515625, 7.85,16.5) ">
<use xlink:href="#Layer1_2_FILL"/>
</g>

<g transform="matrix( 0.1690826416015625, 0, 0, 0.1793365478515625, 7.85,10.95) ">
<use xlink:href="#Layer1_3_FILL"/>
</g>

<g transform="matrix( -0.1690826416015625, 0, 0, 0.1793365478515625, 92.2,10.95) ">
<use xlink:href="#Layer1_4_FILL"/>
</g>

<g transform="matrix( 0.1690826416015625, 0, 0, 0.1793365478515625, 7.85,16.5) ">
<use xlink:href="#Layer1_5_1_STROKES" transform="matrix( 5.9142608642578125, 0, 0, 5.5760955810546875, -46.4,-92) "/>
</g>

<g transform="matrix( 0.1690826416015625, 0, 0, 0.1793365478515625, 7.85,11.55) ">
<use xlink:href="#Layer1_6_MEMBER_0_FILL"/>
</g>

<g transform="matrix( 0.1600799560546875, 0, 0, 0.1793365478515625, 10.4,10.95) ">
<use xlink:href="#Layer1_6_MEMBER_1_MEMBER_0_FILL"/>
</g>

<g transform="matrix( 0.1600799560546875, 0, 0, 0.1793365478515625, 10.4,10.95) ">
<use xlink:href="#Layer1_6_MEMBER_1_MEMBER_1_FILL"/>
</g>

<g transform="matrix( 0.1600799560546875, 0, 0, 0.1793365478515625, 10.75,10.95) ">
<use xlink:href="#Layer1_6_MEMBER_1_MEMBER_2_FILL"/>
</g>

<g transform="matrix( -0.1600799560546875, 0, 0, 0.1793365478515625, 89.7,10.15) ">
<use xlink:href="#Layer1_6_MEMBER_1_MEMBER_3_FILL"/>
</g>

<g transform="matrix( 0.1690826416015625, 0, 0, 0.1793365478515625, 7.85,10.95) ">
<use xlink:href="#Layer1_6_MEMBER_2_1_STROKES" transform="matrix( 5.9142608642578125, 0, 0, 5.5760955810546875, -46.4,-61.05) "/>
</g>

<g transform="matrix( 0.1690826416015625, 0, 0, 0.19207763671875, 5.7,6.6) ">
<use xlink:href="#Layer1_7_FILL"/>

<use xlink:href="#Layer1_7_1_STROKES" transform="matrix( 5.9142608642578125, 0, 0, 5.2062225341796875, -33.7,-34.35) "/>
</g>

<g transform="matrix( 0.1690826416015625, 0, 0, 0.19207763671875, 32.55,6.6) ">
<use xlink:href="#Layer1_8_FILL"/>

<use xlink:href="#Layer1_8_1_STROKES" transform="matrix( 5.9142608642578125, 0, 0, 5.2062225341796875, -192.5,-34.35) "/>
</g>

<g transform="matrix( 0.1839752197265625, 0, 0, 0.1951446533203125, 3.05,0.1) ">
<use xlink:href="#Layer1_9_FILL"/>

<use xlink:href="#Layer1_9_1_STROKES" transform="matrix( 5.4355010986328125, 0, 0, 5.1243896484375, -16.55,-0.5) "/>
</g>

<g transform="matrix( 1, 0, 0, 1, -0.4,-0.4) ">
<use xlink:href="#Layer1_10_FILL"/>

<use xlink:href="#Layer1_10_1_STROKES"/>
</g>

<g transform="matrix( 0.1391754150390625, -0.06927490234375, 0.05828857421875, 0.1654052734375, -6.65,25.8) ">
<use xlink:href="#Layer1_11_FILL"/>
</g>

<g transform="matrix( -0.1391754150390625, -0.06927490234375, -0.05828857421875, 0.1654052734375, 107.1,25.8) ">
<use xlink:href="#Layer1_12_FILL"/>
</g>

<g transform="matrix( 0.15087890625, 0, 0, 0.1793365478515625, 12.4,11.5) ">
<use xlink:href="#Layer1_13_FILL"/>
</g>

<g transform="matrix( 0.1690826416015625, 0, 0, 0.1793365478515625, 7.85,8.8) ">
<use xlink:href="#Layer1_14_FILL"/>

<use xlink:href="#Layer1_14_1_STROKES" transform="matrix( 5.9142608642578125, 0, 0, 5.5760955810546875, -46.4,-49.05) "/>
</g>

<g transform="matrix( 0.1839752197265625, 0, 0, 0.1951446533203125, 3.05,0.1) ">
<use xlink:href="#Layer1_15_FILL"/>
</g>

<g transform="matrix( 0.1876373291015625, 0, 0, 0.3429107666015625, 3.3,-23.45) ">
<use xlink:href="#Layer1_16_FILL"/>
</g>

<g transform="matrix( 0.1552734375, 0, 0, 0.1891937255859375, 10.35,1.4) ">
<use xlink:href="#Layer1_17_FILL"/>

<use xlink:href="#Layer1_17_1_STROKES" transform="matrix( 6.44024658203125, 0, 0, 5.28558349609375, -66.65,-7.35) "/>
</g>

<g transform="matrix( 0.1783599853515625, 0, 0, 0.1891937255859375, 4.5,1.6) ">
<use xlink:href="#Layer1_18_FILL"/>
</g>

<g transform="matrix( 1, 0, 0, 1, -0.4,-0.4) ">
<use xlink:href="#Layer1_19_FILL"/>
</g>

<g transform="matrix( 0.1783599853515625, 0, 0, 0.1891937255859375, 4.5,1.6) ">
<use xlink:href="#Layer1_19_MEMBER_0_1_STROKES" transform="matrix( 5.60662841796875, 0, 0, 5.28558349609375, -25.2,-8.45) "/>
</g>

<g transform="matrix( 0.1783599853515625, 0, 0, 0.1891937255859375, 4.5,1.6) ">
<use xlink:href="#Layer1_20_FILL"/>
</g>

<g transform="matrix( 0.1783599853515625, 0, 0, 0.1891937255859375, 4.5,1.6) ">
<use xlink:href="#Layer1_21_FILL"/>
</g>

<g transform="matrix( 0.1783599853515625, 0, 0, 0.1891937255859375, 4.7,2.3) ">
<use xlink:href="#Layer1_22_FILL"/>
</g>

<g transform="matrix( 0.2388916015625, 0, 0, 0.1891937255859375, -8.15,1.4) ">
<use xlink:href="#Layer1_23_FILL"/>
</g>

<g transform="matrix( 0.1839752197265625, 0, 0, 0.1951446533203125, 3.05,0.1) ">
<use xlink:href="#Layer1_24_FILL"/>
</g>

<g transform="matrix( 0.5069732666015625, 0.0129241943359375, -0.0174713134765625, 0.5386962890625, -119.5,-13.4) ">
<use xlink:href="#Layer1_25_MEMBER_0_FILL"/>
</g>

<g transform="matrix( 0.5069732666015625, 0.0129241943359375, -0.0174713134765625, 0.5386962890625, -92.65,-13.4) ">
<use xlink:href="#Layer1_25_MEMBER_1_FILL"/>
</g>
</svg>
