<svg version="1.1" id="Layer_1" xmlns="http://www.w3.org/2000/svg" xmlns:xlink="http://www.w3.org/1999/xlink" x="0px" y="0px"
	 width="417" height="398" viewBox="0 0 417 398" enable-background="new 0 0 417 398" xml:space="preserve">
<path fill="#000001" opacity="1.000000" stroke="none" 
	d="
M122.000000,1.000001 
	C151.020889,1.000000 180.041794,1.000000 209.668396,1.345625 
	C213.409698,2.647000 216.648499,3.353395 219.663361,4.600927 
	C234.027023,10.544488 248.628326,15.566824 260.010162,27.449282 
	C267.552765,35.323681 277.630249,40.726730 286.324432,47.552654 
	C296.449341,55.501846 306.484924,63.567604 314.444183,73.899429 
	C317.344574,77.664368 320.962097,80.884171 324.314697,84.291374 
	C327.947296,87.983078 331.761902,91.501106 335.295685,95.283112 
	C338.888092,99.127853 341.760254,103.786858 345.787231,107.055023 
	C354.396576,114.042152 361.520966,121.911461 365.165253,132.563782 
	C367.478790,139.326248 370.802917,145.729248 373.402313,152.251236 
	C376.094940,159.007141 379.211121,164.502609 384.539673,169.217606 
	C387.113861,171.495407 388.903412,174.660004 391.496063,178.000000 
	C399.691010,178.000000 408.845490,178.000000 418.000000,178.000000 
	C418.000000,178.750000 418.000000,179.500000 417.531342,180.624222 
	C408.514160,180.998444 399.965668,180.998444 390.244141,180.998444 
	C392.311523,186.192551 393.837860,190.272385 395.557098,194.269226 
	C396.931915,197.465393 395.615479,199.756393 391.998474,199.964127 
	C390.276398,200.063019 388.543945,199.981110 386.562408,199.981110 
	C390.211090,208.368500 393.582550,216.076935 396.914795,223.802261 
	C398.017303,226.358368 399.083862,228.933990 400.048981,231.544266 
	C401.100739,234.388763 402.625549,237.236435 402.853302,240.167496 
	C403.234161,245.069290 400.768799,246.216537 396.369141,243.866211 
	C384.690277,237.627258 376.106415,227.948334 367.537598,218.218536 
	C361.999969,211.930542 358.776337,203.644135 350.995453,199.125061 
	C350.995453,204.190948 351.389771,209.225922 350.915955,214.177856 
	C349.821350,225.618362 347.842285,236.873581 339.949463,245.995117 
	C338.131592,248.096039 335.806610,249.776413 334.100342,251.952484 
	C327.287506,260.641174 319.046967,266.897186 307.534851,266.922943 
	C298.247437,266.943756 288.948303,265.895905 279.673462,266.118378 
	C271.477966,266.314972 264.168640,265.596710 258.691925,258.441620 
	C257.695496,257.139832 254.128906,256.264191 252.774918,257.022919 
	C242.677521,262.681244 232.836731,268.797729 222.930908,274.796021 
	C222.717072,274.925507 222.686432,275.357544 222.877701,274.878326 
	C226.786148,279.521454 231.441650,283.358551 233.841934,288.292725 
	C237.628571,296.076843 240.423233,304.456543 242.689087,312.840515 
	C245.941513,324.875153 246.275650,337.001556 241.609268,349.000092 
	C240.106155,352.864960 239.253281,357.188446 239.111526,361.336578 
	C238.758041,371.681671 239.048615,382.047485 238.902710,392.402466 
	C238.882278,393.853699 238.164154,396.214722 237.233292,396.519714 
	C235.808685,396.986511 233.393402,396.593018 232.313705,395.584778 
	C226.874786,390.505737 222.111084,384.648499 216.387634,379.943604 
	C209.670654,374.421967 209.312836,363.092590 198.880554,361.172577 
	C198.630585,361.126587 198.451279,360.688599 198.241989,360.431030 
	C197.622940,359.669281 192.787918,349.125183 192.431625,348.042938 
	C192.276459,347.571564 191.778015,347.213196 191.435471,346.803497 
	C190.959717,346.876709 190.483963,346.949921 190.008209,347.023132 
	C190.008209,350.269104 190.273315,353.543427 189.929565,356.752594 
	C189.619873,359.643860 189.544403,363.864380 187.764175,365.009979 
	C184.516785,367.099701 185.103256,369.522339 185.001160,372.183777 
	C184.658234,381.122162 184.332382,390.061218 184.000000,399.000000 
	C183.250000,399.000000 182.500000,399.000000 181.387070,398.576233 
	C181.348907,396.050232 181.942078,393.949707 181.954941,391.845581 
	C182.039551,378.026276 181.852371,364.203339 182.118652,350.388641 
	C182.174149,347.510254 183.660553,344.627289 184.666153,341.810181 
	C185.381424,339.806488 187.687759,337.125092 187.062454,336.096039 
	C183.673630,330.519012 179.593124,325.362244 175.000000,319.024597 
	C175.000000,323.023407 175.204559,325.529480 174.917374,327.977905 
	C174.764008,329.285492 174.081589,330.957184 173.076477,331.650116 
	C170.969528,333.102753 158.223175,330.650757 156.266464,328.793030 
	C150.242020,323.073273 144.282532,317.280884 138.124634,311.708099 
	C135.885727,309.681915 133.158646,308.195221 129.596420,305.730408 
	C130.735260,309.769714 131.411621,312.168701 132.087997,314.567688 
	C131.661728,314.764435 131.235443,314.961151 130.809174,315.157867 
	C129.903595,314.549927 128.657272,314.145935 128.150467,313.299255 
	C125.739487,309.271729 122.238068,307.001495 118.135201,304.706055 
	C114.665977,302.765106 111.792564,298.611969 110.157730,294.794525 
	C107.342979,288.221893 105.890579,281.203247 101.255417,275.285248 
	C98.180870,271.359741 95.935486,266.485260 94.433128,261.686737 
	C90.637894,249.564697 84.342918,239.114594 75.579933,230.012039 
	C74.406235,228.792862 73.325150,227.060013 73.087135,225.435242 
	C71.798676,216.639633 66.388878,210.552399 60.310017,204.735504 
	C56.986832,201.555511 53.984112,198.030655 50.942734,194.568329 
	C45.903946,188.832123 41.735256,181.981140 35.777359,177.484909 
	C26.846422,170.744995 21.539333,162.582321 20.401108,151.694901 
	C20.019459,148.044327 21.207676,144.210648 20.706013,140.595612 
	C19.713980,133.446899 18.383303,126.582054 25.175024,121.181534 
	C27.424742,119.392647 29.196861,116.852463 30.769243,114.388916 
	C37.031418,104.577553 46.230377,97.661942 54.440819,89.739487 
	C61.954510,82.489349 71.344093,76.663612 73.179337,64.841858 
	C73.957016,59.832436 75.946518,54.865059 78.176033,50.261547 
	C81.472214,43.455547 85.094460,36.740761 89.257271,30.435703 
	C96.851021,18.934088 105.446457,8.336231 119.074493,3.348292 
	C120.187111,2.941065 121.031158,1.800051 122.000000,1.000001 
M88.158165,130.209686 
	C88.103928,137.356125 87.953201,144.503708 88.039146,151.648468 
	C88.077858,154.867432 88.588608,158.080734 88.917343,162.081192 
	C89.006157,163.643784 89.094963,165.206375 89.215515,167.327438 
	C97.336212,160.813049 105.997726,156.759186 115.560188,154.695938 
	C116.520355,154.488770 117.892220,154.537537 118.545784,155.090576 
	C119.057648,155.523712 119.148354,157.141876 118.749924,157.856522 
	C115.001877,164.579300 109.930389,169.937790 102.638687,172.917084 
	C100.459702,173.807388 98.353287,174.875275 96.504944,175.727493 
	C101.139549,182.891586 109.739326,184.284531 113.489906,191.599503 
	C114.828163,194.209610 118.136513,195.920013 120.760620,197.729233 
	C123.364281,199.524353 126.291458,200.842026 128.983307,202.519073 
	C134.808167,206.148071 139.764420,211.184509 147.138840,212.186783 
	C150.374969,212.626587 153.376389,214.675125 156.528198,215.878433 
	C162.856247,218.294434 169.064636,221.957993 175.594681,222.695312 
	C185.792923,223.846848 196.220001,223.131454 206.545380,222.944580 
	C214.210861,222.805862 221.341370,224.046249 227.911118,228.346725 
	C237.732056,234.775406 247.596786,241.164337 257.734802,247.068954 
	C262.215698,249.678711 267.304352,252.325226 272.304749,252.751038 
	C284.990234,253.831299 297.785431,253.973969 310.528809,253.824036 
	C314.701263,253.774948 320.092224,252.909637 322.749939,250.246262 
	C328.272278,244.712158 333.230438,238.171906 336.721954,231.195221 
	C339.494659,225.654846 339.740845,218.850067 340.774261,214.133408 
	C337.631042,211.048660 335.293427,209.098907 333.368011,206.803406 
	C326.255432,198.323685 317.360321,191.142197 313.635010,180.158936 
	C312.105194,175.648575 311.359131,170.883759 307.785156,167.187454 
	C304.593628,163.886703 301.315613,160.447021 299.067657,156.503250 
	C294.544861,148.568665 290.760468,140.216217 286.532715,132.108536 
	C285.268707,129.684525 283.102844,127.674698 282.116180,125.173012 
	C279.539978,118.641006 277.484528,111.905418 275.012115,105.329704 
	C274.175476,103.104523 272.875885,101.000160 271.503418,99.039696 
	C267.415192,93.199959 263.311096,87.362885 258.972107,81.709816 
	C255.462692,77.137566 252.246033,71.973495 247.747559,68.614792 
	C241.234665,63.752029 233.988770,59.556255 226.499741,56.391068 
	C215.869095,51.898098 204.818359,48.422161 192.838181,49.872108 
	C189.914627,50.225941 187.652496,50.651123 185.496185,52.896778 
	C179.092300,59.565903 171.341064,61.007751 163.409607,56.600060 
	C159.849670,54.621723 157.728622,55.353527 155.469101,58.034512 
	C151.711166,62.493462 147.230392,65.398392 141.075684,65.065857 
	C140.104553,65.013390 138.782990,65.646683 138.132889,66.401596 
	C134.182358,70.989159 128.923416,72.699837 122.960503,73.326515 
	C122.960503,75.704788 123.088058,77.864197 122.925613,80.001556 
	C122.753662,82.263931 122.270393,84.500862 121.984596,86.756691 
	C120.742241,96.562599 119.476982,97.376305 109.141769,98.142273 
	C105.614952,98.403648 102.097816,100.226471 98.840096,101.861549 
	C97.791153,102.388016 97.513161,104.572273 97.010292,106.041870 
	C95.572395,110.244026 94.234558,114.480469 92.791634,118.680847 
	C91.529762,122.354156 90.178734,125.996834 88.158165,130.209686 
M100.515205,170.023819 
	C100.783127,168.380264 101.051048,166.736694 101.318970,165.093140 
	C100.821518,164.756668 100.324066,164.420212 99.826622,164.083740 
	C96.422218,166.175049 93.017822,168.266342 89.430275,170.470139 
	C91.179092,171.585327 92.543564,172.455429 93.545662,173.094437 
	C95.836220,171.989594 97.780273,171.051865 100.515205,170.023819 
M343.012634,200.826309 
	C343.013336,198.523239 343.333344,196.161072 342.921265,193.934387 
	C342.539886,191.873367 341.375061,189.957321 340.555237,187.977448 
	C339.684265,188.306839 338.813293,188.636246 337.942322,188.965637 
	C339.382080,193.451294 340.821838,197.936951 342.261597,202.422592 
	C342.492035,202.332382 342.750854,202.279587 342.940491,202.135590 
	C343.030487,202.067261 342.988403,201.824875 343.012634,200.826309 
z"/>
<path fill="#FFFFFF" opacity="1.000000" stroke="none" 
	d="
M121.531342,1.000001 
	C121.031158,1.800051 120.187111,2.941065 119.074493,3.348292 
	C105.446457,8.336231 96.851021,18.934088 89.257271,30.435703 
	C85.094460,36.740761 81.472214,43.455547 78.176033,50.261547 
	C75.946518,54.865059 73.957016,59.832436 73.179337,64.841858 
	C71.344093,76.663612 61.954510,82.489349 54.440819,89.739487 
	C46.230377,97.661942 37.031418,104.577553 30.769243,114.388916 
	C29.196861,116.852463 27.424742,119.392647 25.175024,121.181534 
	C18.383303,126.582054 19.713980,133.446899 20.706013,140.595612 
	C21.207676,144.210648 20.019459,148.044327 20.401108,151.694901 
	C21.539333,162.582321 26.846422,170.744995 35.777359,177.484909 
	C41.735256,181.981140 45.903946,188.832123 50.942734,194.568329 
	C53.984112,198.030655 56.986832,201.555511 60.310017,204.735504 
	C66.388878,210.552399 71.798676,216.639633 73.087135,225.435242 
	C73.325150,227.060013 74.406235,228.792862 75.579933,230.012039 
	C84.342918,239.114594 90.637894,249.564697 94.433128,261.686737 
	C95.935486,266.485260 98.180870,271.359741 101.255417,275.285248 
	C105.890579,281.203247 107.342979,288.221893 110.157730,294.794525 
	C111.792564,298.611969 114.665977,302.765106 118.135201,304.706055 
	C122.238068,307.001495 125.739487,309.271729 128.150467,313.299255 
	C128.657272,314.145935 129.903595,314.549927 130.809174,315.157867 
	C131.235443,314.961151 131.661728,314.764435 132.087997,314.567688 
	C131.411621,312.168701 130.735260,309.769714 129.596420,305.730408 
	C133.158646,308.195221 135.885727,309.681915 138.124634,311.708099 
	C144.282532,317.280884 150.242020,323.073273 156.266464,328.793030 
	C158.223175,330.650757 170.969528,333.102753 173.076477,331.650116 
	C174.081589,330.957184 174.764008,329.285492 174.917374,327.977905 
	C175.204559,325.529480 175.000000,323.023407 175.000000,319.024597 
	C179.593124,325.362244 183.673630,330.519012 187.062454,336.096039 
	C187.687759,337.125092 185.381424,339.806488 184.666153,341.810181 
	C183.660553,344.627289 182.174149,347.510254 182.118652,350.388641 
	C181.852371,364.203339 182.039551,378.026276 181.954941,391.845581 
	C181.942078,393.949707 181.348907,396.050232 181.012070,398.576233 
	C121.037567,399.000000 61.075138,399.000000 1.056353,399.000000 
	C1.056353,266.453979 1.056353,133.907959 1.056353,1.000000 
	C41.020168,1.000000 81.041428,1.000000 121.531342,1.000001 
z"/>
<path fill="#202363" opacity="1.000000" stroke="none" 
	d="
M184.468658,399.000000 
	C184.332382,390.061218 184.658234,381.122162 185.001160,372.183777 
	C185.103256,369.522339 184.516785,367.099701 187.764175,365.009979 
	C189.544403,363.864380 189.619873,359.643860 189.929565,356.752594 
	C190.273315,353.543427 190.008209,350.269104 190.008209,347.023132 
	C190.483963,346.949921 190.959717,346.876709 191.435471,346.803497 
	C191.778015,347.213196 192.276459,347.571564 192.431625,348.042938 
	C192.787918,349.125183 197.622940,359.669281 198.241989,360.431030 
	C198.451279,360.688599 198.630585,361.126587 198.880554,361.172577 
	C209.312836,363.092590 209.670654,374.421967 216.387634,379.943604 
	C222.111084,384.648499 226.874786,390.505737 232.313705,395.584778 
	C233.393402,396.593018 235.808685,396.986511 237.233292,396.519714 
	C238.164154,396.214722 238.882278,393.853699 238.902710,392.402466 
	C239.048615,382.047485 238.758041,371.681671 239.111526,361.336578 
	C239.253281,357.188446 240.106155,352.864960 241.609268,349.000092 
	C246.275650,337.001556 245.941513,324.875153 242.689087,312.840515 
	C240.423233,304.456543 237.628571,296.076843 233.841934,288.292725 
	C231.441650,283.358551 226.786148,279.521454 222.877701,274.878326 
	C222.686432,275.357544 222.717072,274.925507 222.930908,274.796021 
	C232.836731,268.797729 242.677521,262.681244 252.774918,257.022919 
	C254.128906,256.264191 257.695496,257.139832 258.691925,258.441620 
	C264.168640,265.596710 271.477966,266.314972 279.673462,266.118378 
	C288.948303,265.895905 298.247437,266.943756 307.534851,266.922943 
	C319.046967,266.897186 327.287506,260.641174 334.100342,251.952484 
	C335.806610,249.776413 338.131592,248.096039 339.949463,245.995117 
	C347.842285,236.873581 349.821350,225.618362 350.915955,214.177856 
	C351.389771,209.225922 350.995453,204.190948 350.995453,199.125061 
	C358.776337,203.644135 361.999969,211.930542 367.537598,218.218536 
	C376.106415,227.948334 384.690277,237.627258 396.369141,243.866211 
	C400.768799,246.216537 403.234161,245.069290 402.853302,240.167496 
	C402.625549,237.236435 401.100739,234.388763 400.048981,231.544266 
	C399.083862,228.933990 398.017303,226.358368 396.914795,223.802261 
	C393.582550,216.076935 390.211090,208.368500 386.562408,199.981110 
	C388.543945,199.981110 390.276398,200.063019 391.998474,199.964127 
	C395.615479,199.756393 396.931915,197.465393 395.557098,194.269226 
	C393.837860,190.272385 392.311523,186.192551 390.244141,180.998444 
	C399.965668,180.998444 408.514160,180.998444 417.531342,180.999222 
	C418.000000,253.596298 418.000000,326.192596 418.000000,399.000000 
	C340.312561,399.000000 262.624939,399.000000 184.468658,399.000000 
M299.000946,337.001526 
	C299.000946,337.001526 298.977173,337.052612 298.825592,336.617340 
	C298.667572,336.339386 298.439850,336.141754 297.888763,335.506775 
	C297.588287,335.020416 297.287811,334.534088 296.976746,333.468658 
	C296.704315,332.990906 296.431885,332.513153 296.000610,331.357239 
	C295.659760,330.266541 295.318878,329.175812 294.789001,327.602386 
	C294.512573,327.406403 294.236145,327.210449 294.001160,326.998444 
	C294.001160,326.998444 293.984558,327.039612 293.823669,326.607971 
	C293.661346,326.333618 293.432281,326.137115 292.855255,325.465912 
	C292.237823,324.929413 291.620392,324.392914 290.828857,323.143127 
	C288.568604,323.045624 286.308319,322.948151 283.410858,323.152283 
	C276.167908,328.240540 268.925751,333.329956 261.678802,338.412445 
	C261.415070,338.597382 261.111877,338.733978 260.813141,338.859955 
	C254.087311,341.695984 253.933807,343.306702 258.498413,349.138916 
	C262.945343,354.820831 266.733154,361.013550 270.980560,366.858276 
	C274.747009,372.041229 278.562531,377.211731 282.713562,382.083374 
	C285.205688,385.008057 291.656464,384.919250 292.742188,382.258331 
	C293.771393,379.735931 294.261047,376.994293 295.000458,374.352570 
	C296.712830,368.234528 298.432800,362.118591 300.842804,355.845703 
	C300.881561,353.534241 300.920319,351.222778 301.027527,348.425781 
	C301.027527,348.425781 301.143707,347.949432 301.651733,347.391785 
	C301.480621,344.944000 301.309479,342.496216 300.901306,339.528625 
	C300.591919,339.052643 300.282501,338.576660 299.785736,337.612061 
	C299.506470,337.414886 299.227203,337.217712 299.000946,337.001526 
M302.160248,334.365448 
	C302.312103,334.648193 302.534851,334.854431 302.940063,335.620850 
	C302.967987,336.050873 302.995880,336.480896 303.160797,337.355499 
	C303.309692,337.641968 303.532593,337.848541 303.963196,338.428040 
	C303.963196,338.428040 304.039978,338.893921 304.173615,339.345917 
	C304.323822,339.636719 304.549255,339.846771 304.959259,340.443787 
	C304.959259,340.443787 305.023163,340.919891 305.166412,341.364227 
	C305.320221,341.649384 305.546875,341.853821 306.197601,342.622742 
	C308.621552,348.396332 310.964294,354.206146 313.514465,359.923431 
	C314.380066,361.864014 315.379059,364.206787 317.022919,365.215332 
	C318.855255,366.339508 321.491394,366.153564 323.777679,366.537872 
	C323.893707,364.586090 324.618591,362.413177 324.005768,360.726135 
	C322.478119,356.520447 320.342041,352.535767 318.307831,348.155853 
	C320.938812,346.654358 323.140686,344.411743 325.484436,344.252075 
	C331.581635,343.836792 337.746979,344.218201 343.872986,344.524628 
	C346.553497,344.658691 349.787903,346.517639 350.860809,342.487671 
	C351.886902,338.633636 349.027496,337.189178 345.882324,336.487061 
	C344.286865,336.130920 342.608917,336.038055 340.966125,336.019928 
	C335.838287,335.963348 330.709412,335.999146 325.814117,335.999146 
	C324.120483,331.717499 322.565704,327.955231 321.139832,324.144745 
	C318.717010,317.669922 315.353851,315.300110 308.639313,316.071594 
	C305.574524,316.423767 302.465851,317.215027 299.638824,318.420807 
	C298.475952,318.916809 297.207428,321.144531 297.386749,322.381683 
	C297.723572,324.705444 299.078278,326.881714 300.003937,329.834595 
	C300.616333,330.892334 301.228729,331.950073 301.953735,333.461182 
	C301.953735,333.461182 302.018616,333.923828 302.160248,334.365448 
M357.798584,305.691040 
	C364.104736,312.181396 370.194000,318.912048 376.897156,324.962555 
	C378.263702,326.196045 382.761841,325.829895 384.333679,324.477692 
	C386.165833,322.901520 385.186218,320.138733 382.358429,318.516083 
	C379.967316,317.143982 378.101166,314.856964 376.014099,312.985077 
	C377.801941,310.384491 378.832825,307.874756 380.690491,306.422943 
	C383.383667,304.318176 384.112518,301.832550 381.933075,299.772095 
	C379.339874,297.320374 376.094177,297.876434 373.761749,300.847809 
	C372.290588,302.721985 371.026245,304.758484 369.823639,306.498627 
	C365.386963,302.254181 361.256775,298.302917 356.680359,293.924774 
	C358.695984,291.316620 360.307404,288.286072 362.766785,286.311798 
	C365.288025,284.287903 365.964020,282.017273 364.177368,280.048981 
	C362.243530,277.918640 359.141357,277.349762 356.749084,279.912109 
	C353.482025,283.411346 352.148682,288.922913 346.171173,289.699280 
	C345.785004,289.749451 344.978546,294.026123 345.844330,294.944366 
	C349.346283,298.658600 353.426636,301.827454 357.798584,305.691040 
M385.205750,277.491058 
	C390.351166,286.748932 395.418549,296.052063 400.731445,305.212830 
	C401.474518,306.494110 403.329773,307.370209 404.854187,307.853149 
	C405.571838,308.080475 407.549408,306.925720 407.546387,306.405548 
	C407.528534,303.369202 407.954590,299.884979 406.645782,297.380219 
	C401.571655,287.669830 395.872955,278.286896 390.510376,268.723969 
	C390.130585,268.046661 390.248505,266.643646 390.719208,266.016724 
	C392.371002,263.816589 393.733521,261.044983 390.766205,259.811127 
	C388.804626,258.995514 384.997681,259.841736 383.442291,261.382660 
	C379.798370,264.992554 377.048828,269.496704 373.864288,273.582001 
	C371.936432,276.055176 371.550232,278.708435 374.263489,280.438690 
	C376.548584,281.895935 378.827789,281.205383 380.506989,278.440613 
	C381.155029,277.373596 383.487274,277.329468 385.205750,277.491058 
M345.518433,323.963501 
	C348.076599,327.140594 350.396210,330.562256 353.295197,333.389893 
	C354.711060,334.770874 357.206146,335.045410 359.212708,335.820770 
	C359.794159,334.069885 361.002289,332.237335 360.787598,330.590240 
	C360.554871,328.804749 359.238007,326.980774 357.976685,325.538513 
	C350.218262,316.666992 342.330322,307.908875 334.512268,299.089294 
	C332.421997,296.731262 329.997650,294.332428 326.968658,296.848663 
	C323.559326,299.680817 325.946106,302.322815 328.206909,304.768768 
	C333.895844,310.923645 339.494537,317.161926 345.518433,323.963501 
z"/>
<path fill="#FEFEFE" opacity="1.000000" stroke="none" 
	d="
M418.000000,177.531342 
	C408.845490,178.000000 399.691010,178.000000 391.496063,178.000000 
	C388.903412,174.660004 387.113861,171.495407 384.539673,169.217606 
	C379.211121,164.502609 376.094940,159.007141 373.402313,152.251236 
	C370.802917,145.729248 367.478790,139.326248 365.165253,132.563782 
	C361.520966,121.911461 354.396576,114.042152 345.787231,107.055023 
	C341.760254,103.786858 338.888092,99.127853 335.295685,95.283112 
	C331.761902,91.501106 327.947296,87.983078 324.314697,84.291374 
	C320.962097,80.884171 317.344574,77.664368 314.444183,73.899429 
	C306.484924,63.567604 296.449341,55.501846 286.324432,47.552654 
	C277.630249,40.726730 267.552765,35.323681 260.010162,27.449282 
	C248.628326,15.566824 234.027023,10.544488 219.663361,4.600927 
	C216.648499,3.353395 213.409698,2.647000 210.137054,1.345625 
	C279.254486,1.000000 348.508942,1.000000 418.000000,1.000000 
	C418.000000,59.687347 418.000000,118.375015 418.000000,177.531342 
z"/>
<path fill="#FEE4C1" opacity="1.000000" stroke="none" 
	d="
M88.867096,129.653046 
	C90.178734,125.996834 91.529762,122.354156 92.791634,118.680847 
	C94.234558,114.480469 95.572395,110.244026 97.010292,106.041870 
	C97.513161,104.572273 97.791153,102.388016 98.840096,101.861549 
	C102.097816,100.226471 105.614952,98.403648 109.141769,98.142273 
	C119.476982,97.376305 120.742241,96.562599 121.984596,86.756691 
	C122.270393,84.500862 122.753662,82.263931 122.925613,80.001556 
	C123.088058,77.864197 122.960503,75.704788 122.960503,73.326515 
	C128.923416,72.699837 134.182358,70.989159 138.132889,66.401596 
	C138.782990,65.646683 140.104553,65.013390 141.075684,65.065857 
	C147.230392,65.398392 151.711166,62.493462 155.469101,58.034512 
	C157.728622,55.353527 159.849670,54.621723 163.409607,56.600060 
	C171.341064,61.007751 179.092300,59.565903 185.496185,52.896778 
	C187.652496,50.651123 189.914627,50.225941 192.838181,49.872108 
	C204.818359,48.422161 215.869095,51.898098 226.499741,56.391068 
	C233.988770,59.556255 241.234665,63.752029 247.747559,68.614792 
	C252.246033,71.973495 255.462692,77.137566 258.972107,81.709816 
	C263.311096,87.362885 267.415192,93.199959 271.503418,99.039696 
	C272.875885,101.000160 274.175476,103.104523 275.012115,105.329704 
	C277.484528,111.905418 279.539978,118.641006 282.116180,125.173012 
	C283.102844,127.674698 285.268707,129.684525 286.532715,132.108536 
	C290.760468,140.216217 294.544861,148.568665 299.067657,156.503250 
	C301.315613,160.447021 304.593628,163.886703 307.785156,167.187454 
	C311.359131,170.883759 312.105194,175.648575 313.635010,180.158936 
	C317.360321,191.142197 326.255432,198.323685 333.368011,206.803406 
	C335.293427,209.098907 337.631042,211.048660 340.774261,214.133408 
	C339.740845,218.850067 339.494659,225.654846 336.721954,231.195221 
	C333.230438,238.171906 328.272278,244.712158 322.749939,250.246262 
	C320.092224,252.909637 314.701263,253.774948 310.528809,253.824036 
	C297.785431,253.973969 284.990234,253.831299 272.304749,252.751038 
	C267.304352,252.325226 262.215698,249.678711 257.734802,247.068954 
	C247.596786,241.164337 237.732056,234.775406 227.911118,228.346725 
	C221.341370,224.046249 214.210861,222.805862 206.545380,222.944580 
	C196.220001,223.131454 185.792923,223.846848 175.594681,222.695312 
	C169.064636,221.957993 162.856247,218.294434 156.528198,215.878433 
	C153.376389,214.675125 150.374969,212.626587 147.138840,212.186783 
	C139.764420,211.184509 134.808167,206.148071 128.983307,202.519073 
	C126.291458,200.842026 123.364281,199.524353 120.760620,197.729233 
	C118.136513,195.920013 114.828163,194.209610 113.489906,191.599503 
	C109.739326,184.284531 101.139549,182.891586 96.504944,175.727493 
	C98.353287,174.875275 100.459702,173.807388 102.638687,172.917084 
	C109.930389,169.937790 115.001877,164.579300 118.749924,157.856522 
	C119.148354,157.141876 119.057648,155.523712 118.545784,155.090576 
	C117.892220,154.537537 116.520355,154.488770 115.560188,154.695938 
	C105.997726,156.759186 97.336212,160.813049 89.215515,167.327438 
	C89.094963,165.206375 89.006157,163.643784 88.934311,161.202194 
	C88.923218,150.099808 88.895157,139.876434 88.867096,129.653046 
M211.686829,192.820786 
	C211.474792,191.861542 211.262756,190.902298 210.999283,189.996140 
	C210.999283,189.996140 211.063385,189.959732 210.653625,189.180923 
	C207.225525,189.122208 203.774368,188.788116 200.375015,189.072739 
	C195.873688,189.449661 191.412857,190.310501 186.995728,190.993103 
	C186.995728,190.993103 186.976669,190.927872 186.429626,191.083618 
	C186.258072,191.408432 186.086533,191.733231 185.370255,192.256332 
	C185.253448,192.812210 185.136642,193.368073 184.245865,194.230865 
	C183.681137,199.099747 183.116409,203.968613 182.445496,209.752945 
	C188.210190,209.076508 192.637619,208.556976 197.004745,208.007492 
	C197.004745,208.007492 197.014786,208.074066 197.629181,207.890076 
	C197.919510,207.575806 198.209839,207.261520 198.480698,206.968857 
	C198.480698,206.968857 198.451813,206.965378 199.237534,206.964737 
	C199.515213,206.308243 199.792877,205.651733 200.712326,204.741547 
	C203.132446,203.171600 205.552567,201.601669 208.776703,199.987213 
	C209.543747,197.656906 210.310806,195.326599 211.010178,193.003281 
	C211.010178,193.003281 211.040771,193.064072 211.686829,192.820786 
M192.279877,115.968971 
	C182.480743,119.304024 171.621475,121.007172 166.740265,132.219727 
	C170.681778,136.494781 174.195068,136.565018 179.526154,134.305511 
	C187.198502,131.053680 192.495346,125.990738 196.595566,119.202499 
	C197.082001,118.397148 197.049072,116.422150 196.520889,116.058571 
	C195.709229,115.499870 194.259354,115.868370 192.279877,115.968971 
z"/>
<path fill="#EEEEEE" opacity="1.000000" stroke="none" 
	d="
M100.119766,170.068985 
	C97.780273,171.051865 95.836220,171.989594 93.545662,173.094437 
	C92.543564,172.455429 91.179092,171.585327 89.430275,170.470139 
	C93.017822,168.266342 96.422218,166.175049 99.826622,164.083740 
	C100.324066,164.420212 100.821518,164.756668 101.318970,165.093140 
	C101.051048,166.736694 100.783127,168.380264 100.119766,170.068985 
z"/>
<path fill="#F2E1C7" opacity="1.000000" stroke="none" 
	d="
M343.009399,201.243820 
	C342.988403,201.824875 343.030487,202.067261 342.940491,202.135590 
	C342.750854,202.279587 342.492035,202.332382 342.261597,202.422607 
	C340.821838,197.936951 339.382080,193.451294 337.942322,188.965637 
	C338.813293,188.636246 339.684265,188.306839 340.555237,187.977448 
	C341.375061,189.957321 342.539886,191.873367 342.921265,193.934387 
	C343.333344,196.161072 343.013336,198.523239 343.009399,201.243820 
z"/>
<path fill="#F6E5D1" opacity="1.000000" stroke="none" 
	d="
M88.512634,129.931366 
	C88.895157,139.876434 88.923218,150.099808 88.918228,160.809906 
	C88.588608,158.080734 88.077858,154.867432 88.039146,151.648468 
	C87.953201,144.503708 88.103928,137.356125 88.512634,129.931366 
z"/>
<path fill="#9E4BA4" opacity="1.000000" stroke="none" 
	d="
M300.149719,356.001801 
	C298.432800,362.118591 296.712830,368.234528 295.000458,374.352570 
	C294.261047,376.994293 293.771393,379.735931 292.742188,382.258331 
	C291.656464,384.919250 285.205688,385.008057 282.713562,382.083374 
	C278.562531,377.211731 274.747009,372.041229 270.980560,366.858276 
	C266.733154,361.013550 262.945343,354.820831 258.498413,349.138916 
	C253.933807,343.306702 254.087311,341.695984 260.813141,338.859955 
	C261.111877,338.733978 261.415070,338.597382 261.678802,338.412445 
	C268.925751,333.329956 276.167908,328.240540 284.124542,323.062164 
	C286.893127,323.266846 288.948059,323.561615 291.002960,323.856415 
	C291.620392,324.392914 292.237823,324.929413 293.020081,325.987366 
	C293.365051,326.815887 293.631592,326.992828 293.984558,327.039612 
	C293.984558,327.039612 294.001160,326.998444 294.082764,327.242279 
	C294.435608,327.685791 294.706818,327.885437 294.978027,328.085083 
	C295.318878,329.175812 295.659760,330.266541 296.040314,331.994873 
	C296.382477,333.104279 296.684906,333.575989 296.987335,334.047729 
	C297.287811,334.534088 297.588287,335.020416 298.043365,336.006958 
	C298.376221,336.805298 298.635956,336.987122 298.977173,337.052612 
	C298.977173,337.052612 299.000946,337.001526 299.071655,337.252289 
	C299.419312,337.702271 299.696198,337.901489 299.973114,338.100677 
	C300.282501,338.576660 300.591919,339.052643 300.964111,340.223694 
	C301.065826,343.262329 301.104767,345.605865 301.143707,347.949432 
	C301.143707,347.949432 301.027527,348.425781 300.686493,348.931244 
	C300.280212,351.625061 300.214966,353.813446 300.149719,356.001801 
M277.037476,337.553711 
	C275.991882,338.343872 275.013184,339.248383 273.889679,339.905273 
	C267.579773,343.594421 267.188812,345.820496 271.703766,351.264771 
	C273.042847,352.879486 273.888580,354.893982 275.056488,356.661774 
	C278.597748,362.021942 282.186035,367.351013 286.209381,373.370483 
	C288.006348,366.842926 289.801086,361.454712 290.925446,355.930054 
	C292.117889,350.070923 295.324432,343.831726 289.310669,338.542480 
	C288.850220,338.137512 288.646851,337.404755 288.404724,336.792419 
	C286.356537,331.612701 285.461945,331.368286 280.792419,334.774414 
	C279.730682,335.548889 278.692322,336.355469 277.037476,337.553711 
z"/>
<path fill="#9D4BA4" opacity="1.000000" stroke="none" 
	d="
M303.023804,336.910919 
	C302.995880,336.480896 302.967987,336.050873 302.863220,335.059570 
	C302.607880,334.203278 302.351990,334.011810 302.018616,333.923828 
	C302.018616,333.923828 301.953735,333.461182 301.940063,332.902863 
	C301.287476,331.269440 300.648590,330.194366 300.009674,329.119293 
	C299.078278,326.881714 297.723572,324.705444 297.386749,322.381683 
	C297.207428,321.144531 298.475952,318.916809 299.638824,318.420807 
	C302.465851,317.215027 305.574524,316.423767 308.639313,316.071594 
	C315.353851,315.300110 318.717010,317.669922 321.139832,324.144745 
	C322.565704,327.955231 324.120483,331.717499 325.814117,335.999146 
	C330.709412,335.999146 335.838287,335.963348 340.966125,336.019928 
	C342.608917,336.038055 344.286865,336.130920 345.882324,336.487061 
	C349.027496,337.189178 351.886902,338.633636 350.860809,342.487671 
	C349.787903,346.517639 346.553497,344.658691 343.872986,344.524628 
	C337.746979,344.218201 331.581635,343.836792 325.484436,344.252075 
	C323.140686,344.411743 320.938812,346.654358 318.307831,348.155853 
	C320.342041,352.535767 322.478119,356.520447 324.005768,360.726135 
	C324.618591,362.413177 323.893707,364.586090 323.777679,366.537872 
	C321.491394,366.153564 318.855255,366.339508 317.022919,365.215332 
	C315.379059,364.206787 314.380066,361.864014 313.514465,359.923431 
	C310.964294,354.206146 308.621552,348.396332 305.992767,342.058838 
	C305.609009,341.202209 305.354095,341.010529 305.023163,340.919891 
	C305.023163,340.919891 304.959259,340.443787 304.881714,339.965210 
	C304.628113,339.187714 304.373383,338.990112 304.039978,338.893921 
	C304.039978,338.893921 303.963196,338.428040 303.867859,337.962524 
	C303.595795,337.208649 303.346191,337.013306 303.023804,336.910919 
M316.830536,335.668396 
	C315.644714,332.941010 314.100769,330.306305 313.364594,327.462494 
	C312.463867,323.983154 310.628082,323.473938 307.416565,324.467712 
	C309.354187,328.687958 311.145874,332.698425 313.032288,336.663849 
	C314.470947,339.687988 315.845612,339.862701 316.830536,335.668396 
z"/>
<path fill="#9D4BA4" opacity="1.000000" stroke="none" 
	d="
M357.546021,305.444336 
	C353.426636,301.827454 349.346283,298.658600 345.844330,294.944366 
	C344.978546,294.026123 345.785004,289.749451 346.171173,289.699280 
	C352.148682,288.922913 353.482025,283.411346 356.749084,279.912109 
	C359.141357,277.349762 362.243530,277.918640 364.177368,280.048981 
	C365.964020,282.017273 365.288025,284.287903 362.766785,286.311798 
	C360.307404,288.286072 358.695984,291.316620 356.680359,293.924774 
	C361.256775,298.302917 365.386963,302.254181 369.823639,306.498627 
	C371.026245,304.758484 372.290588,302.721985 373.761749,300.847809 
	C376.094177,297.876434 379.339874,297.320374 381.933075,299.772095 
	C384.112518,301.832550 383.383667,304.318176 380.690491,306.422943 
	C378.832825,307.874756 377.801941,310.384491 376.014099,312.985077 
	C378.101166,314.856964 379.967316,317.143982 382.358429,318.516083 
	C385.186218,320.138733 386.165833,322.901520 384.333679,324.477692 
	C382.761841,325.829895 378.263702,326.196045 376.897156,324.962555 
	C370.194000,318.912048 364.104736,312.181396 357.546021,305.444336 
z"/>
<path fill="#9D4BA4" opacity="1.000000" stroke="none" 
	d="
M385.128967,277.155182 
	C383.487274,277.329468 381.155029,277.373596 380.506989,278.440613 
	C378.827789,281.205383 376.548584,281.895935 374.263489,280.438690 
	C371.550232,278.708435 371.936432,276.055176 373.864288,273.582001 
	C377.048828,269.496704 379.798370,264.992554 383.442291,261.382660 
	C384.997681,259.841736 388.804626,258.995514 390.766205,259.811127 
	C393.733521,261.044983 392.371002,263.816589 390.719208,266.016724 
	C390.248505,266.643646 390.130585,268.046661 390.510376,268.723969 
	C395.872955,278.286896 401.571655,287.669830 406.645782,297.380219 
	C407.954590,299.884979 407.528534,303.369202 407.546387,306.405548 
	C407.549408,306.925720 405.571838,308.080475 404.854187,307.853149 
	C403.329773,307.370209 401.474518,306.494110 400.731445,305.212830 
	C395.418549,296.052063 390.351166,286.748932 385.128967,277.155182 
z"/>
<path fill="#9D4CA4" opacity="1.000000" stroke="none" 
	d="
M345.323914,323.665131 
	C339.494537,317.161926 333.895844,310.923645 328.206909,304.768768 
	C325.946106,302.322815 323.559326,299.680817 326.968658,296.848663 
	C329.997650,294.332428 332.421997,296.731262 334.512268,299.089294 
	C342.330322,307.908875 350.218262,316.666992 357.976685,325.538513 
	C359.238007,326.980774 360.554871,328.804749 360.787598,330.590240 
	C361.002289,332.237335 359.794159,334.069885 359.212708,335.820770 
	C357.206146,335.045410 354.711060,334.770874 353.295197,333.389893 
	C350.396210,330.562256 348.076599,327.140594 345.323914,323.665131 
z"/>
<path fill="#2F1B62" opacity="1.000000" stroke="none" 
	d="
M300.496277,355.923767 
	C300.214966,353.813446 300.280212,351.625061 300.652252,349.174011 
	C300.920319,351.222778 300.881561,353.534241 300.496277,355.923767 
z"/>
<path fill="#2F1B62" opacity="1.000000" stroke="none" 
	d="
M290.915894,323.499756 
	C288.948059,323.561615 286.893127,323.266846 284.443146,322.911346 
	C286.308319,322.948151 288.568604,323.045624 290.915894,323.499756 
z"/>
<path fill="#2F1B62" opacity="1.000000" stroke="none" 
	d="
M301.397705,347.670593 
	C301.104767,345.605865 301.065826,343.262329 301.082642,340.483582 
	C301.309479,342.496216 301.480621,344.944000 301.397705,347.670593 
z"/>
<path fill="#2F1B62" opacity="1.000000" stroke="none" 
	d="
M300.006805,329.476929 
	C300.648590,330.194366 301.287476,331.269440 301.883728,332.676178 
	C301.228729,331.950073 300.616333,330.892334 300.006805,329.476929 
z"/>
<path fill="#2F1B62" opacity="1.000000" stroke="none" 
	d="
M296.982056,333.758179 
	C296.684906,333.575989 296.382477,333.104279 296.119751,332.333984 
	C296.431885,332.513153 296.704315,332.990906 296.982056,333.758179 
z"/>
<path fill="#2F1B62" opacity="1.000000" stroke="none" 
	d="
M293.904114,326.823792 
	C293.631592,326.992828 293.365051,326.815887 293.160675,326.263611 
	C293.432281,326.137115 293.661346,326.333618 293.904114,326.823792 
z"/>
<path fill="#2F1B62" opacity="1.000000" stroke="none" 
	d="
M294.883514,327.843750 
	C294.706818,327.885437 294.435608,327.685791 294.062073,327.250305 
	C294.236145,327.210449 294.512573,327.406403 294.883514,327.843750 
z"/>
<path fill="#2F1B62" opacity="1.000000" stroke="none" 
	d="
M302.089417,334.144653 
	C302.351990,334.011810 302.607880,334.203278 302.807373,334.741211 
	C302.534851,334.854431 302.312103,334.648193 302.089417,334.144653 
z"/>
<path fill="#2F1B62" opacity="1.000000" stroke="none" 
	d="
M298.901367,336.834961 
	C298.635956,336.987122 298.376221,336.805298 298.170227,336.265808 
	C298.439850,336.141754 298.667572,336.339386 298.901367,336.834961 
z"/>
<path fill="#2F1B62" opacity="1.000000" stroke="none" 
	d="
M299.879425,337.856384 
	C299.696198,337.901489 299.419312,337.702271 299.045166,337.261810 
	C299.227203,337.217712 299.506470,337.414886 299.879425,337.856384 
z"/>
<path fill="#2F1B62" opacity="1.000000" stroke="none" 
	d="
M303.092285,337.133209 
	C303.346191,337.013306 303.595795,337.208649 303.801025,337.736115 
	C303.532593,337.848541 303.309692,337.641968 303.092285,337.133209 
z"/>
<path fill="#2F1B62" opacity="1.000000" stroke="none" 
	d="
M304.106812,339.119934 
	C304.373383,338.990112 304.628113,339.187714 304.827057,339.731354 
	C304.549255,339.846771 304.323822,339.636719 304.106812,339.119934 
z"/>
<path fill="#2F1B62" opacity="1.000000" stroke="none" 
	d="
M305.094788,341.142059 
	C305.354095,341.010529 305.609009,341.202209 305.817139,341.736206 
	C305.546875,341.853821 305.320221,341.649384 305.094788,341.142059 
z"/>
<path fill="#DF2129" opacity="1.000000" stroke="none" 
	d="
M185.019836,193.923950 
	C185.136642,193.368073 185.253448,192.812210 185.963562,192.101807 
	C186.696808,191.607468 186.836731,191.267670 186.976669,190.927872 
	C186.976669,190.927872 186.995728,190.993103 187.376663,191.143234 
	C195.526199,190.848831 203.294785,190.404282 211.063385,189.959732 
	C211.063385,189.959732 210.999283,189.996140 210.790161,190.319794 
	C210.734283,191.450333 210.887527,192.257202 211.040771,193.064072 
	C211.040771,193.064072 211.010178,193.003281 210.687225,193.086517 
	C209.567078,195.457092 208.769882,197.744415 207.972687,200.031738 
	C205.552567,201.601669 203.132446,203.171600 200.050461,204.955719 
	C199.076324,205.768402 198.764069,206.366882 198.451813,206.965363 
	C198.451813,206.965378 198.480698,206.968857 198.085724,206.884171 
	C197.465439,207.224350 197.240112,207.649216 197.014801,208.074066 
	C197.014786,208.074066 197.004745,208.007492 196.590286,207.850616 
	C192.267929,207.693726 188.360031,207.693726 183.682449,207.693726 
	C184.167358,202.701157 184.593597,198.312561 185.019836,193.923950 
z"/>
<path fill="#0B0909" opacity="1.000000" stroke="none" 
	d="
M192.680084,115.906204 
	C194.259354,115.868370 195.709229,115.499870 196.520889,116.058571 
	C197.049072,116.422150 197.082001,118.397148 196.595566,119.202499 
	C192.495346,125.990738 187.198502,131.053680 179.526154,134.305511 
	C174.195068,136.565018 170.681778,136.494781 166.740265,132.219727 
	C171.621475,121.007172 182.480743,119.304024 192.680084,115.906204 
M179.402481,128.925690 
	C177.894333,124.561836 175.579926,124.935432 170.177338,130.530228 
	C173.762421,132.828568 176.957413,132.384445 179.402481,128.925690 
z"/>
<path fill="#340000" opacity="1.000000" stroke="none" 
	d="
M184.632843,194.077408 
	C184.593597,198.312561 184.167358,202.701157 183.682449,207.693726 
	C188.360031,207.693726 192.267929,207.693726 196.620438,207.865585 
	C192.637619,208.556976 188.210190,209.076508 182.445496,209.752945 
	C183.116409,203.968613 183.681137,199.099747 184.632843,194.077408 
z"/>
<path fill="#320000" opacity="1.000000" stroke="none" 
	d="
M210.858505,189.570328 
	C203.294785,190.404282 195.526199,190.848831 187.346115,191.128357 
	C191.412857,190.310501 195.873688,189.449661 200.375015,189.072739 
	C203.774368,188.788116 207.225525,189.122208 210.858505,189.570328 
z"/>
<path fill="#320000" opacity="1.000000" stroke="none" 
	d="
M208.374695,200.009476 
	C208.769882,197.744415 209.567078,195.457092 210.721069,193.083038 
	C210.310806,195.326599 209.543747,197.656906 208.374695,200.009476 
z"/>
<path fill="#320000" opacity="1.000000" stroke="none" 
	d="
M211.363800,192.942429 
	C210.887527,192.257202 210.734283,191.450333 210.815872,190.293259 
	C211.262756,190.902298 211.474792,191.861542 211.363800,192.942429 
z"/>
<path fill="#340000" opacity="1.000000" stroke="none" 
	d="
M198.844666,206.965057 
	C198.764069,206.366882 199.076324,205.768402 199.729584,205.082581 
	C199.792877,205.651733 199.515213,206.308243 198.844666,206.965057 
z"/>
<path fill="#340000" opacity="1.000000" stroke="none" 
	d="
M197.321991,207.982071 
	C197.240112,207.649216 197.465439,207.224350 198.095459,206.873367 
	C198.209839,207.261520 197.919510,207.575806 197.321991,207.982071 
z"/>
<path fill="#320000" opacity="1.000000" stroke="none" 
	d="
M186.703156,191.005737 
	C186.836731,191.267670 186.696808,191.607468 186.235931,192.002655 
	C186.086533,191.733231 186.258072,191.408432 186.703156,191.005737 
z"/>
<path fill="#242163" opacity="1.000000" stroke="none" 
	d="
M277.340332,337.350494 
	C278.692322,336.355469 279.730682,335.548889 280.792419,334.774414 
	C285.461945,331.368286 286.356537,331.612701 288.404724,336.792419 
	C288.646851,337.404755 288.850220,338.137512 289.310669,338.542480 
	C295.324432,343.831726 292.117889,350.070923 290.925446,355.930054 
	C289.801086,361.454712 288.006348,366.842926 286.209381,373.370483 
	C282.186035,367.351013 278.597748,362.021942 275.056488,356.661774 
	C273.888580,354.893982 273.042847,352.879486 271.703766,351.264771 
	C267.188812,345.820496 267.579773,343.594421 273.889679,339.905273 
	C275.013184,339.248383 275.991882,338.343872 277.340332,337.350494 
z"/>
<path fill="#2F1B61" opacity="1.000000" stroke="none" 
	d="
M316.878418,336.040497 
	C315.845612,339.862701 314.470947,339.687988 313.032288,336.663849 
	C311.145874,332.698425 309.354187,328.687958 307.416565,324.467712 
	C310.628082,323.473938 312.463867,323.983154 313.364594,327.462494 
	C314.100769,330.306305 315.644714,332.941010 316.878418,336.040497 
z"/>
<path fill="#F5F5F5" opacity="1.000000" stroke="none" 
	d="
M179.669434,129.228149 
	C176.957413,132.384445 173.762421,132.828568 170.177338,130.530228 
	C175.579926,124.935432 177.894333,124.561836 179.669434,129.228149 
z"/>
</svg>