<svg xmlns="http://www.w3.org/2000/svg" version="1.1" width="100" height="100" viewBox="0 0 100 100" style="shape-rendering:geometricPrecision; text-rendering:geometricPrecision; image-rendering:optimizeQuality; fill-rule:evenodd; clip-rule:evenodd" xmlns:xlink="http://www.w3.org/1999/xlink">
<g><path style="opacity:0.427" fill="#5d8091" d="M 42.5,-0.5 C 46.1667,-0.5 49.8333,-0.5 53.5,-0.5C 55.1667,0.166667 56.8333,0.833333 58.5,1.5C 57.5,1.5 56.5,1.5 55.5,1.5C 45.3863,1.04029 35.3863,1.70695 25.5,3.5C 26.842,2.20695 28.5087,1.37362 30.5,1C 34.6877,0.823821 38.6877,0.323821 42.5,-0.5 Z"/></g>
<g><path style="opacity:0.11" fill="#8ac8bb" d="M 58.5,1.5 C 61.089,1.46095 63.089,2.46095 64.5,4.5C 62.1815,4.00751 60.1815,3.00751 58.5,1.5 Z"/></g>
<g><path style="opacity:1" fill="#c8d5e3" d="M 55.5,2.5 C 57.7415,3.62073 60.0748,4.78739 62.5,6C 59.854,6.49742 57.1873,6.66409 54.5,6.5C 50.2984,6.18325 46.2984,6.51658 42.5,7.5C 38.2811,8.02098 34.6145,6.85431 31.5,4C 39.4529,2.77727 47.4529,2.27727 55.5,2.5 Z"/></g>
<g><path style="opacity:0.173" fill="#7ccfcd" d="M 25.5,3.5 C 24.5,5.16667 23.1667,6.5 21.5,7.5C 21.8333,5.16667 23.1667,3.83333 25.5,3.5 Z"/></g>
<g><path style="opacity:0.004" fill="#1f4e4e" d="M 6.5,7.5 C 6.89657,6.47498 7.56323,6.30831 8.5,7C 7.90558,7.46434 7.23891,7.63101 6.5,7.5 Z"/></g>
<g><path style="opacity:1" fill="#6d6a93" d="M 26.5,5.5 C 28.0522,8.11186 30.3855,9.44519 33.5,9.5C 33.8333,9.5 34.1667,9.5 34.5,9.5C 33.1986,10.64 32.0319,11.9733 31,13.5C 30.5007,18.4889 30.3341,23.4889 30.5,28.5C 28.6208,27.6586 26.6208,27.3253 24.5,27.5C 22.4579,22.122 21.9579,16.4553 23,10.5C 24.0298,8.6536 25.1964,6.98693 26.5,5.5 Z"/></g>
<g><path style="opacity:1" fill="#6d6f7c" d="M 42.5,7.5 C 46.2984,6.51658 50.2984,6.18325 54.5,6.5C 57.8333,7.16667 61.1667,7.83333 64.5,8.5C 57.8333,8.5 51.1667,8.5 44.5,8.5C 44.1583,7.66175 43.4916,7.32842 42.5,7.5 Z"/></g>
<g><path style="opacity:1" fill="#f2f3f3" d="M 44.5,8.5 C 51.1667,8.5 57.8333,8.5 64.5,8.5C 65.9402,9.94609 66.6068,11.7794 66.5,14C 65.8112,22.5375 63.8112,30.7042 60.5,38.5C 56.2918,39.9684 51.9585,40.9684 47.5,41.5C 43.824,40.8287 40.1573,40.162 36.5,39.5C 36.1667,38.5 35.5,37.8333 34.5,37.5C 34.5,34.5 34.5,31.5 34.5,28.5C 33.1667,28.5 31.8333,28.5 30.5,28.5C 30.3341,23.4889 30.5007,18.4889 31,13.5C 32.0319,11.9733 33.1986,10.64 34.5,9.5C 37.728,8.58627 41.0613,8.25293 44.5,8.5 Z"/></g>
<g><path style="opacity:1" fill="#525b74" d="M 39.5,17.5 C 39.1583,18.3382 38.4916,18.6716 37.5,18.5C 37.2865,16.8561 37.6198,15.3561 38.5,14C 41.146,13.5026 43.8127,13.3359 46.5,13.5C 46.5,14.5 46.5,15.5 46.5,16.5C 43.9407,16.1984 41.6074,16.5318 39.5,17.5 Z"/></g>
<g><path style="opacity:1" fill="#53596f" d="M 61.5,17.5 C 59.8333,17.5 58.1667,17.5 56.5,17.5C 53.7847,14.8553 54.4514,13.1886 58.5,12.5C 61.98,12.8772 62.98,14.5438 61.5,17.5 Z"/></g>
<g><path style="opacity:0.416" fill="#8cb6aa" d="M 67.5,8.5 C 68.9402,9.94609 69.6068,11.7794 69.5,14C 68.9748,20.6649 68.3082,27.1649 67.5,33.5C 67.5,25.1667 67.5,16.8333 67.5,8.5 Z"/></g>
<g><path style="opacity:1" fill="#0f1021" d="M 56.5,17.5 C 58.1667,17.5 59.8333,17.5 61.5,17.5C 62.9953,17.4148 63.9953,18.0815 64.5,19.5C 63.4179,19.7486 62.0846,19.9152 60.5,20C 62.4782,22.4973 62.9782,25.3307 62,28.5C 60.1799,31.2028 57.6799,32.0361 54.5,31C 51.8333,27.6667 51.8333,24.3333 54.5,21C 53.6634,19.9887 53.33,18.8221 53.5,17.5C 54.5,17.5 55.5,17.5 56.5,17.5 Z"/></g>
<g><path style="opacity:1" fill="#0d0e20" d="M 39.5,17.5 C 42.7341,17.2046 45.7341,17.8713 48.5,19.5C 47.9747,20.1924 47.3081,20.6924 46.5,21C 49.3656,25.221 48.699,28.8876 44.5,32C 38.1714,32.6675 35.6714,29.8342 37,23.5C 38.214,21.9512 39.714,20.7845 41.5,20C 39.5,20 37.5,20 35.5,20C 36.0442,19.2828 36.7109,18.7828 37.5,18.5C 38.4916,18.6716 39.1583,18.3382 39.5,17.5 Z"/></g>
<g><path style="opacity:0.02" fill="#c3fddc" d="M 19.5,23.5 C 19.5,25.5 19.5,27.5 19.5,29.5C 17.8333,29.5 16.1667,29.5 14.5,29.5C 15.5676,28.5655 16.901,28.2322 18.5,28.5C 18.2155,26.5853 18.5489,24.9187 19.5,23.5 Z"/></g>
<g><path style="opacity:1" fill="#1a263d" d="M 24.5,27.5 C 26.6208,27.3253 28.6208,27.6586 30.5,28.5C 31.8333,28.5 33.1667,28.5 34.5,28.5C 34.5,31.5 34.5,34.5 34.5,37.5C 33.5269,35.0521 33.1936,32.3854 33.5,29.5C 32.1667,29.5 30.8333,29.5 29.5,29.5C 29.5,30.8333 29.5,32.1667 29.5,33.5C 28.71,32.3915 28.21,31.0581 28,29.5C 26.6976,28.9152 25.531,28.2485 24.5,27.5 Z"/></g>
<g><path style="opacity:1" fill="#0a57a7" d="M 24.5,27.5 C 25.531,28.2485 26.6976,28.9152 28,29.5C 28.21,31.0581 28.71,32.3915 29.5,33.5C 28.7162,38.6615 30.0495,42.9948 33.5,46.5C 22.7297,44.6518 18.7297,38.3184 21.5,27.5C 22.5,27.5 23.5,27.5 24.5,27.5 Z"/></g>
<g><path style="opacity:0.31" fill="#c0e9da" d="M 14.5,29.5 C 12.0948,30.7682 9.42816,31.4349 6.5,31.5C 8.83825,29.9605 11.5049,29.2938 14.5,29.5 Z"/></g>
<g><path style="opacity:1" fill="#9daab4" d="M 6.5,31.5 C 5.83333,32.1667 5.16667,32.8333 4.5,33.5C 0.550962,33.6932 0.550962,34.1932 4.5,35C 2.80678,35.8466 1.14011,36.6799 -0.5,37.5C -0.5,36.1667 -0.5,34.8333 -0.5,33.5C 1.58805,32.0605 3.92138,31.3939 6.5,31.5 Z"/></g>
<g><path style="opacity:1" fill="#2a669f" d="M 5.5,52.5 C 4.83333,53.1667 4.16667,53.8333 3.5,54.5C 2.74527,50.2357 1.41194,46.2357 -0.5,42.5C -0.5,40.8333 -0.5,39.1667 -0.5,37.5C 1.14011,36.6799 2.80678,35.8466 4.5,35C 0.550962,34.1932 0.550962,33.6932 4.5,33.5C 8.5555,32.979 12.5555,32.479 16.5,32C 8.67859,36.6429 5.01192,43.4762 5.5,52.5 Z"/></g>
<g><path style="opacity:1" fill="#6feff3" d="M 53.5,47.5 C 46.7446,47.7934 40.0779,47.4601 33.5,46.5C 30.0495,42.9948 28.7162,38.6615 29.5,33.5C 29.5,32.1667 29.5,30.8333 29.5,29.5C 30.8333,29.5 32.1667,29.5 33.5,29.5C 33.1936,32.3854 33.5269,35.0521 34.5,37.5C 35.5,37.8333 36.1667,38.5 36.5,39.5C 42.7947,42.9037 49.4613,43.4037 56.5,41C 58.3197,40.7996 59.653,39.9663 60.5,38.5C 61.7498,38.4226 62.5831,37.756 63,36.5C 63.7943,33.5285 64.461,30.5285 65,27.5C 66.0909,33.0969 65.4242,38.4302 63,43.5C 59.8606,45.1498 56.6939,46.4831 53.5,47.5 Z"/></g>
<g><path style="opacity:1" fill="#1d1d2b" d="M 54.5,33.5 C 55.675,33.281 56.675,33.6143 57.5,34.5C 52.4885,36.8063 47.4885,36.973 42.5,35C 46.6877,34.8238 50.6877,34.3238 54.5,33.5 Z"/></g>
<g><path style="opacity:1" fill="#485d6b" d="M 60.5,38.5 C 59.653,39.9663 58.3197,40.7996 56.5,41C 49.4613,43.4037 42.7947,42.9037 36.5,39.5C 40.1573,40.162 43.824,40.8287 47.5,41.5C 51.9585,40.9684 56.2918,39.9684 60.5,38.5 Z"/></g>
<g><path style="opacity:0.306" fill="#2d9dc4" d="M 72.5,44.5 C 74.539,45.911 75.539,47.911 75.5,50.5C 73.9925,48.8185 72.9925,46.8185 72.5,44.5 Z"/></g>
<g><path style="opacity:1" fill="#eeeef2" d="M 75.5,55.5 C 77.1667,59.5 78.8333,63.5 80.5,67.5C 80.5654,67.9382 80.3988,68.2716 80,68.5C 78.992,66.741 77.492,65.5743 75.5,65C 76.1667,64.6667 76.8333,64.3333 77.5,64C 74.7695,63.2716 72.1029,63.4383 69.5,64.5C 67.9783,59.1276 68.3116,53.9609 70.5,49C 69.9896,47.1739 69.1562,47.0072 68,48.5C 67.51,49.7932 67.3433,51.1266 67.5,52.5C 66.6909,50.7078 66.1909,48.7078 66,46.5C 65.6667,48.1667 65.3333,49.8333 65,51.5C 64.3809,47.3042 65.0475,43.3042 67,39.5C 70.1317,44.7679 72.9651,50.1013 75.5,55.5 Z"/></g>
<g><path style="opacity:0.989" fill="#04041d" d="M -0.5,42.5 C 1.41194,46.2357 2.74527,50.2357 3.5,54.5C 7.16691,65.8341 10.8336,77.1674 14.5,88.5C 14.7828,89.2891 15.2828,89.9558 16,90.5C 16.2321,89.2625 16.7321,88.2625 17.5,87.5C 17.8333,91.5 18.1667,95.5 18.5,99.5C 15.5,99.5 12.5,99.5 9.5,99.5C 9.38222,96.3117 8.54888,93.3117 7,90.5C 6.02278,89.2264 5.18944,89.2264 4.5,90.5C 3.66175,90.1583 3.32842,89.4916 3.5,88.5C 4.58617,88.38 5.25284,87.7133 5.5,86.5C 5.19921,84.5784 4.53254,82.9117 3.5,81.5C 3.67158,80.5084 3.33825,79.8417 2.5,79.5C 2.47249,76.0836 1.47249,73.0836 -0.5,70.5C -0.5,61.1667 -0.5,51.8333 -0.5,42.5 Z"/></g>
<g><path style="opacity:1" fill="#82839e" d="M 80.5,67.5 C 81.3382,67.8417 81.6716,68.5084 81.5,69.5C 80.5041,69.4142 79.6708,69.7476 79,70.5C 77.7292,69.1175 76.2292,68.1175 74.5,67.5C 73.469,66.7515 72.3024,66.0848 71,65.5C 69.6439,66.3802 68.1439,66.7135 66.5,66.5C 66.2964,64.3146 65.6298,62.3146 64.5,60.5C 65.1499,60.8039 65.8165,61.1373 66.5,61.5C 67.4841,58.5719 67.8174,55.5719 67.5,52.5C 67.3433,51.1266 67.51,49.7932 68,48.5C 69.1562,47.0072 69.9896,47.1739 70.5,49C 68.3116,53.9609 67.9783,59.1276 69.5,64.5C 72.1029,63.4383 74.7695,63.2716 77.5,64C 76.8333,64.3333 76.1667,64.6667 75.5,65C 77.492,65.5743 78.992,66.741 80,68.5C 80.3988,68.2716 80.5654,67.9382 80.5,67.5 Z"/></g>
<g><path style="opacity:1" fill="#2b2e46" d="M 55.5,1.5 C 56.5,1.5 57.5,1.5 58.5,1.5C 60.1815,3.00751 62.1815,4.00751 64.5,4.5C 66.2624,5.26231 67.2624,6.59565 67.5,8.5C 67.5,16.8333 67.5,25.1667 67.5,33.5C 69.424,37.0171 71.0906,40.6837 72.5,44.5C 72.9925,46.8185 73.9925,48.8185 75.5,50.5C 77.341,52.8485 78.6743,55.5152 79.5,58.5C 77.8639,57.2511 76.6972,55.5844 76,53.5C 75.5357,54.0944 75.369,54.7611 75.5,55.5C 72.9651,50.1013 70.1317,44.7679 67,39.5C 65.0475,43.3042 64.3809,47.3042 65,51.5C 65.3333,49.8333 65.6667,48.1667 66,46.5C 66.1909,48.7078 66.6909,50.7078 67.5,52.5C 67.8174,55.5719 67.4841,58.5719 66.5,61.5C 65.8165,61.1373 65.1499,60.8039 64.5,60.5C 65.6298,62.3146 66.2964,64.3146 66.5,66.5C 68.1439,66.7135 69.6439,66.3802 71,65.5C 72.3024,66.0848 73.469,66.7515 74.5,67.5C 72.3453,67.372 70.3453,67.872 68.5,69C 71.5952,69.9354 73.9286,71.7687 75.5,74.5C 74.1667,74.1667 72.8333,73.8333 71.5,73.5C 69.8828,72.962 68.2161,72.6287 66.5,72.5C 66.2648,71.9033 65.7648,71.5699 65,71.5C 63.5,72 62,72.5 60.5,73C 61.5,73.3333 62.5,73.6667 63.5,74C 61.1667,74.3333 58.8333,74.6667 56.5,75C 59.9555,75.1802 63.2889,75.8468 66.5,77C 64.6243,77.9184 63.6243,79.4184 63.5,81.5C 62.8333,81.5 62.1667,81.5 61.5,81.5C 61.8333,80.8333 62.1667,80.1667 62.5,79.5C 62.8039,78.8501 63.1373,78.1835 63.5,77.5C 59.9502,76.9843 56.6169,75.9843 53.5,74.5C 53.1667,73.8333 52.8333,73.1667 52.5,72.5C 54.5,71.8333 56.5,71.1667 58.5,70.5C 54.9498,67.7197 50.9498,66.8864 46.5,68C 44.253,69.995 43.253,72.495 43.5,75.5C 43.4326,76.9587 43.7659,78.2921 44.5,79.5C 46.1536,82.2055 45.4869,84.2055 42.5,85.5C 41.7432,82.6303 40.7432,79.9636 39.5,77.5C 39.6808,73.3046 41.3475,69.8046 44.5,67C 37.075,65.947 29.4083,65.447 21.5,65.5C 22.6085,64.71 23.9419,64.21 25.5,64C 23.9419,63.79 22.6085,63.29 21.5,62.5C 22.8333,62.5 24.1667,62.5 25.5,62.5C 23.7,57.101 21.7,51.7676 19.5,46.5C 20.4916,46.6716 21.1583,46.3382 21.5,45.5C 22.1667,45.1667 22.8333,44.8333 23.5,44.5C 22.4251,48.938 24.0917,50.938 28.5,50.5C 28.5,50.8333 28.5,51.1667 28.5,51.5C 27.7659,52.7079 27.4326,54.0413 27.5,55.5C 26.1332,60.3864 28.1332,63.3864 33.5,64.5C 34.4212,62.9686 34.0878,61.6353 32.5,60.5C 31.3024,57.5738 30.3024,54.5738 29.5,51.5C 29.5,50.5 29.5,49.5 29.5,48.5C 30.8333,49.5 32.1667,50.5 33.5,51.5C 34.976,53.5 36.8094,55.1666 39,56.5C 40.0386,55.7562 40.5386,54.7562 40.5,53.5C 41.3446,52.3285 42.0113,50.9952 42.5,49.5C 44.099,49.2322 45.4324,49.5655 46.5,50.5C 45.1779,50.33 44.0113,50.6634 43,51.5C 42.9565,54.4752 43.1231,57.4752 43.5,60.5C 43.5,62.1667 43.5,63.8333 43.5,65.5C 45.5,65.5 47.5,65.5 49.5,65.5C 49.5,64.5 49.5,63.5 49.5,62.5C 50.3149,63.4293 51.1482,64.4293 52,65.5C 52.6667,61.8333 52.6667,58.1667 52,54.5C 50.1978,55.7893 49.0312,57.4559 48.5,59.5C 47.8333,59.5 47.5,59.1667 47.5,58.5C 47.5172,56.4352 47.8505,54.4352 48.5,52.5C 49.2216,52.9175 49.7216,53.5842 50,54.5C 50.3826,53.944 50.8826,53.6107 51.5,53.5C 53.8324,52.8383 54.4991,51.505 53.5,49.5C 58.6817,48.224 58.6817,47.5573 53.5,47.5C 56.6939,46.4831 59.8606,45.1498 63,43.5C 65.4242,38.4302 66.0909,33.0969 65,27.5C 64.461,30.5285 63.7943,33.5285 63,36.5C 62.5831,37.756 61.7498,38.4226 60.5,38.5C 63.8112,30.7042 65.8112,22.5375 66.5,14C 66.6068,11.7794 65.9402,9.94609 64.5,8.5C 61.1667,7.83333 57.8333,7.16667 54.5,6.5C 57.1873,6.66409 59.854,6.49742 62.5,6C 60.0748,4.78739 57.7415,3.62073 55.5,2.5C 55.5,2.16667 55.5,1.83333 55.5,1.5 Z"/></g>
<g><path style="opacity:1" fill="#e1e3e6" d="M 56.5,52.5 C 56.9528,53.4584 57.6195,54.2917 58.5,55C 57.5769,57.0408 57.2436,59.2075 57.5,61.5C 57.5,63.5 57.5,65.5 57.5,67.5C 55.6782,63.7856 54.6782,59.6189 54.5,55C 54.6842,53.6244 55.3509,52.7911 56.5,52.5 Z"/></g>
<g><path style="opacity:1" fill="#d4d5e2" d="M 56.5,52.5 C 57.9418,51.1805 58.6085,49.5138 58.5,47.5C 63.6444,48.8116 63.8111,50.8116 59,53.5C 58.3292,52.7476 57.4959,52.4142 56.5,52.5 Z"/></g>
<g><path style="opacity:1" fill="#111b4d" d="M 5.5,52.5 C 6.80385,58.5101 8.30385,64.5101 10,70.5C 10.92,73.9382 12.5867,76.9382 15,79.5C 15.8045,82.6965 15.6378,85.6965 14.5,88.5C 10.8336,77.1674 7.16691,65.8341 3.5,54.5C 4.16667,53.8333 4.83333,53.1667 5.5,52.5 Z"/></g>
<g><path style="opacity:0.255" fill="#97beaf" d="M -0.5,70.5 C 1.47249,73.0836 2.47249,76.0836 2.5,79.5C 1.20278,77.6287 0.202776,75.6287 -0.5,73.5C -0.5,72.5 -0.5,71.5 -0.5,70.5 Z"/></g>
<g><path style="opacity:0.075" fill="#a6e1d2" d="M 2.5,79.5 C 3.33825,79.8417 3.67158,80.5084 3.5,81.5C 3.51234,84.142 2.17901,85.4754 -0.5,85.5C -0.5,85.1667 -0.5,84.8333 -0.5,84.5C 1.75934,83.656 2.75934,81.9893 2.5,79.5 Z"/></g>
<g><path style="opacity:1" fill="#15192f" d="M 55.5,1.5 C 55.5,1.83333 55.5,2.16667 55.5,2.5C 47.4529,2.27727 39.4529,2.77727 31.5,4C 34.6145,6.85431 38.2811,8.02098 42.5,7.5C 43.4916,7.32842 44.1583,7.66175 44.5,8.5C 41.0613,8.25293 37.728,8.58627 34.5,9.5C 34.1667,9.5 33.8333,9.5 33.5,9.5C 34.5981,8.60305 34.5981,7.76971 33.5,7C 31.3225,5.79777 28.9892,5.29777 26.5,5.5C 25.1964,6.98693 24.0298,8.6536 23,10.5C 21.9579,16.4553 22.4579,22.122 24.5,27.5C 23.5,27.5 22.5,27.5 21.5,27.5C 18.7297,38.3184 22.7297,44.6518 33.5,46.5C 40.0779,47.4601 46.7446,47.7934 53.5,47.5C 58.6817,47.5573 58.6817,48.224 53.5,49.5C 54.4991,51.505 53.8324,52.8383 51.5,53.5C 52.2341,52.2921 52.5674,50.9587 52.5,49.5C 50.5168,49.1568 49.1834,49.8235 48.5,51.5C 47.8333,51.1667 47.1667,50.8333 46.5,50.5C 45.4324,49.5655 44.099,49.2322 42.5,49.5C 38.3556,49.67 34.3556,49.0033 30.5,47.5C 29.8933,47.6236 29.56,47.9569 29.5,48.5C 29.5,49.5 29.5,50.5 29.5,51.5C 29.1667,51.5 28.8333,51.5 28.5,51.5C 28.5,51.1667 28.5,50.8333 28.5,50.5C 28.2228,47.3171 26.5561,45.3171 23.5,44.5C 22.8333,44.8333 22.1667,45.1667 21.5,45.5C 21.5848,42.3511 20.5848,39.6845 18.5,37.5C 19.5109,35.5976 19.6776,33.5976 19,31.5C 15.558,34.432 12.7246,37.7653 10.5,41.5C 9.66175,41.8417 9.32842,42.5084 9.5,43.5C 6.6344,56.1469 8.96773,67.9802 16.5,79C 22.0412,82.5165 28.0412,84.1831 34.5,84C 33.6198,82.6439 33.2865,81.1439 33.5,79.5C 33.369,78.7611 33.5357,78.0944 34,77.5C 34.567,80.1677 35.067,82.8344 35.5,85.5C 36.8333,85.5 38.1667,85.5 39.5,85.5C 39.5,82.8333 39.5,80.1667 39.5,77.5C 40.7432,79.9636 41.7432,82.6303 42.5,85.5C 45.4869,84.2055 46.1536,82.2055 44.5,79.5C 46.7819,80.3897 49.1152,80.5564 51.5,80C 50.944,79.6174 50.6107,79.1174 50.5,78.5C 54.4338,79.3597 58.4338,79.693 62.5,79.5C 62.1667,80.1667 61.8333,80.8333 61.5,81.5C 60.448,81.3505 59.448,81.5172 58.5,82C 59.8721,82.4017 61.2054,82.9017 62.5,83.5C 63.2975,83.0431 63.6309,82.3764 63.5,81.5C 64.9175,83.7082 66.9175,84.5415 69.5,84C 67.5614,83.0922 66.5614,81.5922 66.5,79.5C 68.5529,79.4021 70.2196,80.0687 71.5,81.5C 71.3691,82.3764 71.7025,83.0431 72.5,83.5C 75.3987,79.7847 75.0654,76.4514 71.5,73.5C 72.8333,73.8333 74.1667,74.1667 75.5,74.5C 75.8333,75.8333 76.1667,77.1667 76.5,78.5C 76.281,79.675 76.6143,80.675 77.5,81.5C 80.1993,79.1019 81.5326,76.1019 81.5,72.5C 81.5,71.5 81.5,70.5 81.5,69.5C 81.6716,68.5084 81.3382,67.8417 80.5,67.5C 78.8333,63.5 77.1667,59.5 75.5,55.5C 75.369,54.7611 75.5357,54.0944 76,53.5C 76.6972,55.5844 77.8639,57.2511 79.5,58.5C 81.5872,63.2564 82.9206,68.2564 83.5,73.5C 83.1457,76.2506 82.479,78.9173 81.5,81.5C 82.2427,82.1818 82.9094,82.8485 83.5,83.5C 81.8333,83.5 80.1667,83.5 78.5,83.5C 76.9826,83.5106 75.8159,84.1772 75,85.5C 72.2171,89.9507 69.0504,94.1174 65.5,98C 66.4158,98.2784 67.0825,98.7784 67.5,99.5C 59.8333,99.5 52.1667,99.5 44.5,99.5C 44.5,95.8333 44.5,92.1667 44.5,88.5C 44.6309,87.6236 44.2975,86.9569 43.5,86.5C 34.3673,87.6043 25.7006,85.9376 17.5,81.5C 17.0798,83.326 17.0798,85.326 17.5,87.5C 16.7321,88.2625 16.2321,89.2625 16,90.5C 15.2828,89.9558 14.7828,89.2891 14.5,88.5C 15.6378,85.6965 15.8045,82.6965 15,79.5C 12.5867,76.9382 10.92,73.9382 10,70.5C 8.30385,64.5101 6.80385,58.5101 5.5,52.5C 5.01192,43.4762 8.67859,36.6429 16.5,32C 12.5555,32.479 8.5555,32.979 4.5,33.5C 5.16667,32.8333 5.83333,32.1667 6.5,31.5C 9.42816,31.4349 12.0948,30.7682 14.5,29.5C 16.1667,29.5 17.8333,29.5 19.5,29.5C 19.5,27.5 19.5,25.5 19.5,23.5C 19.3342,18.8215 19.5008,14.1548 20,9.5C 20.2784,8.5842 20.7784,7.91753 21.5,7.5C 23.1667,6.5 24.5,5.16667 25.5,3.5C 35.3863,1.70695 45.3863,1.04029 55.5,1.5 Z"/></g>
<g><path style="opacity:1" fill="#8d90b3" d="M 81.5,72.5 C 81.5326,76.1019 80.1993,79.1019 77.5,81.5C 76.6143,80.675 76.281,79.675 76.5,78.5C 78.4413,77.407 80.108,75.407 81.5,72.5 Z"/></g>
<g><path style="opacity:1" fill="#5b7da1" d="M 66.5,72.5 C 66.281,73.675 66.6143,74.675 67.5,75.5C 71.1748,76.4262 72.5082,78.4262 71.5,81.5C 70.2196,80.0687 68.5529,79.4021 66.5,79.5C 66.5614,81.5922 67.5614,83.0922 69.5,84C 66.9175,84.5415 64.9175,83.7082 63.5,81.5C 63.6243,79.4184 64.6243,77.9184 66.5,77C 63.2889,75.8468 59.9555,75.1802 56.5,75C 58.8333,74.6667 61.1667,74.3333 63.5,74C 62.5,73.6667 61.5,73.3333 60.5,73C 62,72.5 63.5,72 65,71.5C 65.7648,71.5699 66.2648,71.9033 66.5,72.5 Z"/></g>
<g><path style="opacity:1" fill="#0c65b6" d="M 43.5,75.5 C 46.461,75.4642 48.7943,76.4642 50.5,78.5C 50.6107,79.1174 50.944,79.6174 51.5,80C 49.1152,80.5564 46.7819,80.3897 44.5,79.5C 43.7659,78.2921 43.4326,76.9587 43.5,75.5 Z"/></g>
<g><path style="opacity:1" fill="#89e8eb" d="M 66.5,72.5 C 68.2161,72.6287 69.8828,72.962 71.5,73.5C 75.0654,76.4514 75.3987,79.7847 72.5,83.5C 71.7025,83.0431 71.3691,82.3764 71.5,81.5C 72.5082,78.4262 71.1748,76.4262 67.5,75.5C 66.6143,74.675 66.281,73.675 66.5,72.5 Z"/></g>
<g><path style="opacity:1" fill="#77e5ec" d="M 62.5,79.5 C 58.4338,79.693 54.4338,79.3597 50.5,78.5C 48.7943,76.4642 46.461,75.4642 43.5,75.5C 43.253,72.495 44.253,69.995 46.5,68C 50.9498,66.8864 54.9498,67.7197 58.5,70.5C 56.5,71.1667 54.5,71.8333 52.5,72.5C 52.8333,73.1667 53.1667,73.8333 53.5,74.5C 56.6169,75.9843 59.9502,76.9843 63.5,77.5C 63.1373,78.1835 62.8039,78.8501 62.5,79.5 Z"/></g>
<g><path style="opacity:1" fill="#a3aad1" d="M 14.5,43.5 C 12.1102,45.3764 11.1102,47.8764 11.5,51C 11.7584,56.3894 12.925,61.556 15,66.5C 16.6379,64.2663 18.8045,62.933 21.5,62.5C 22.6085,63.29 23.9419,63.79 25.5,64C 23.9419,64.21 22.6085,64.71 21.5,65.5C 19.8968,66.5964 18.3968,67.9297 17,69.5C 16.6667,69.1667 16.3333,68.8333 16,68.5C 15.7496,72.9444 17.9163,75.7777 22.5,77C 26.104,78.1539 29.7707,78.9872 33.5,79.5C 33.2865,81.1439 33.6198,82.6439 34.5,84C 28.0412,84.1831 22.0412,82.5165 16.5,79C 8.96773,67.9802 6.6344,56.1469 9.5,43.5C 11.2837,42.2801 12.9504,42.2801 14.5,43.5 Z"/></g>
<g><path style="opacity:1" fill="#ececef" d="M 74.5,67.5 C 76.2292,68.1175 77.7292,69.1175 79,70.5C 79.6708,69.7476 80.5041,69.4142 81.5,69.5C 81.5,70.5 81.5,71.5 81.5,72.5C 80.108,75.407 78.4413,77.407 76.5,78.5C 76.1667,77.1667 75.8333,75.8333 75.5,74.5C 73.9286,71.7687 71.5952,69.9354 68.5,69C 70.3453,67.872 72.3453,67.372 74.5,67.5 Z"/></g>
<g><path style="opacity:1" fill="#f2f4f7" d="M 21.5,65.5 C 29.4083,65.447 37.075,65.947 44.5,67C 41.3475,69.8046 39.6808,73.3046 39.5,77.5C 39.5,80.1667 39.5,82.8333 39.5,85.5C 38.1667,85.5 36.8333,85.5 35.5,85.5C 35.067,82.8344 34.567,80.1677 34,77.5C 33.5357,78.0944 33.369,78.7611 33.5,79.5C 29.7707,78.9872 26.104,78.1539 22.5,77C 17.9163,75.7777 15.7496,72.9444 16,68.5C 16.3333,68.8333 16.6667,69.1667 17,69.5C 18.3968,67.9297 19.8968,66.5964 21.5,65.5 Z"/></g>
<g><path style="opacity:1" fill="#696973" d="M 35.5,70.5 C 36.0967,70.7352 36.4301,71.2352 36.5,72C 36,73.5 35.5,75 35,76.5C 34.5099,74.4546 34.6765,72.4546 35.5,70.5 Z"/></g>
<g><path style="opacity:1" fill="#9d9ebc" d="M 64.5,60.5 C 62.2575,61.505 61.9241,63.005 63.5,65C 62.9761,67.4133 61.9761,69.5799 60.5,71.5C 59.2888,70.7261 59.2888,69.8928 60.5,69C 59.4734,68.4867 58.4734,67.9867 57.5,67.5C 57.5,65.5 57.5,63.5 57.5,61.5C 59.4587,58.9695 61.4587,56.3028 63.5,53.5C 64.4742,55.7427 64.8076,58.076 64.5,60.5 Z"/></g>
<g><path style="opacity:1" fill="#e4538b" d="M 47.5,58.5 C 47.5,59.1667 47.8333,59.5 48.5,59.5C 49.404,60.209 49.7373,61.209 49.5,62.5C 49.5,63.5 49.5,64.5 49.5,65.5C 47.5,65.5 45.5,65.5 43.5,65.5C 43.5,63.8333 43.5,62.1667 43.5,60.5C 44.2216,60.0825 44.7216,59.4158 45,58.5C 45.7697,59.5981 46.603,59.5981 47.5,58.5 Z"/></g>
<g><path style="opacity:1" fill="#777788" d="M 27.5,55.5 C 28.5498,55.9046 28.5498,56.5712 27.5,57.5C 29.3188,58.3199 30.9855,59.3199 32.5,60.5C 34.0878,61.6353 34.4212,62.9686 33.5,64.5C 28.1332,63.3864 26.1332,60.3864 27.5,55.5 Z"/></g>
<g><path style="opacity:1" fill="#16ceed" d="M 32.5,54.5 C 34.9413,55.5566 37.2746,56.89 39.5,58.5C 40.1667,57.8333 40.8333,57.1667 41.5,56.5C 41.8333,56.8333 42.1667,57.1667 42.5,57.5C 42.5123,59.4121 42.179,61.4121 41.5,63.5C 39.604,64.4656 37.604,64.7989 35.5,64.5C 34.5,61.1667 33.5,57.8333 32.5,54.5 Z"/></g>
<g><path style="opacity:1" fill="#1ad5f1" d="M 49.5,62.5 C 49.7373,61.209 49.404,60.209 48.5,59.5C 49.0312,57.4559 50.1978,55.7893 52,54.5C 52.6667,58.1667 52.6667,61.8333 52,65.5C 51.1482,64.4293 50.3149,63.4293 49.5,62.5 Z"/></g>
<g><path style="opacity:1" fill="#e6e7ea" d="M 33.5,51.5 C 36.0098,51.9267 38.3432,52.5933 40.5,53.5C 40.5386,54.7562 40.0386,55.7562 39,56.5C 36.8094,55.1666 34.976,53.5 33.5,51.5 Z"/></g>
<g><path style="opacity:1" fill="#e2e3e6" d="M 28.5,51.5 C 28.8333,51.5 29.1667,51.5 29.5,51.5C 30.3024,54.5738 31.3024,57.5738 32.5,60.5C 30.9855,59.3199 29.3188,58.3199 27.5,57.5C 28.5498,56.5712 28.5498,55.9046 27.5,55.5C 27.4326,54.0413 27.7659,52.7079 28.5,51.5 Z"/></g>
<g><path style="opacity:1" fill="#822665" d="M 46.5,50.5 C 47.1667,50.8333 47.8333,51.1667 48.5,51.5C 48.5,51.8333 48.5,52.1667 48.5,52.5C 47.8505,54.4352 47.5172,56.4352 47.5,58.5C 46.603,59.5981 45.7697,59.5981 45,58.5C 44.7216,59.4158 44.2216,60.0825 43.5,60.5C 43.1231,57.4752 42.9565,54.4752 43,51.5C 44.0113,50.6634 45.1779,50.33 46.5,50.5 Z"/></g>
<g><path style="opacity:1" fill="#a8aac7" d="M 51.5,53.5 C 50.8826,53.6107 50.3826,53.944 50,54.5C 49.7216,53.5842 49.2216,52.9175 48.5,52.5C 48.5,52.1667 48.5,51.8333 48.5,51.5C 49.1834,49.8235 50.5168,49.1568 52.5,49.5C 52.5674,50.9587 52.2341,52.2921 51.5,53.5 Z"/></g>
<g><path style="opacity:1" fill="#9a9ecb" d="M 29.5,48.5 C 29.56,47.9569 29.8933,47.6236 30.5,47.5C 34.3556,49.0033 38.3556,49.67 42.5,49.5C 42.0113,50.9952 41.3446,52.3285 40.5,53.5C 38.3432,52.5933 36.0098,51.9267 33.5,51.5C 32.1667,50.5 30.8333,49.5 29.5,48.5 Z"/></g>
<g><path style="opacity:1" fill="#a8abd0" d="M 23.5,44.5 C 26.5561,45.3171 28.2228,47.3171 28.5,50.5C 24.0917,50.938 22.4251,48.938 23.5,44.5 Z"/></g>
<g><path style="opacity:1" fill="#f7f7f9" d="M 14.5,43.5 C 16.4113,44.075 18.078,45.075 19.5,46.5C 21.7,51.7676 23.7,57.101 25.5,62.5C 24.1667,62.5 22.8333,62.5 21.5,62.5C 18.8045,62.933 16.6379,64.2663 15,66.5C 12.925,61.556 11.7584,56.3894 11.5,51C 11.1102,47.8764 12.1102,45.3764 14.5,43.5 Z"/></g>
<g><path style="opacity:1" fill="#6f7089" d="M 18.5,37.5 C 20.5848,39.6845 21.5848,42.3511 21.5,45.5C 21.1583,46.3382 20.4916,46.6716 19.5,46.5C 18.078,45.075 16.4113,44.075 14.5,43.5C 12.9504,42.2801 11.2837,42.2801 9.5,43.5C 9.32842,42.5084 9.66175,41.8417 10.5,41.5C 13.385,40.6178 16.0517,39.2845 18.5,37.5 Z"/></g>
<g><path style="opacity:1" fill="#a2abd7" d="M 18.5,37.5 C 16.0517,39.2845 13.385,40.6178 10.5,41.5C 12.7246,37.7653 15.558,34.432 19,31.5C 19.6776,33.5976 19.5109,35.5976 18.5,37.5 Z"/></g>
<g><path style="opacity:1" fill="#bac3d8" d="M 26.5,5.5 C 28.9892,5.29777 31.3225,5.79777 33.5,7C 34.5981,7.76971 34.5981,8.60305 33.5,9.5C 30.3855,9.44519 28.0522,8.11186 26.5,5.5 Z"/></g>
<g><path style="opacity:1" fill="#8fb9ca" d="M 61.5,81.5 C 62.1667,81.5 62.8333,81.5 63.5,81.5C 63.6309,82.3764 63.2975,83.0431 62.5,83.5C 61.2054,82.9017 59.8721,82.4017 58.5,82C 59.448,81.5172 60.448,81.3505 61.5,81.5 Z"/></g>
<g><path style="opacity:1" fill="#9ea5d0" d="M 44.5,88.5 C 38.9738,88.1786 33.6405,88.5119 28.5,89.5C 26.5648,88.8505 24.5648,88.5172 22.5,88.5C 22.5,92.1667 22.5,95.8333 22.5,99.5C 21.1667,99.5 19.8333,99.5 18.5,99.5C 18.1667,95.5 17.8333,91.5 17.5,87.5C 17.0798,85.326 17.0798,83.326 17.5,81.5C 25.7006,85.9376 34.3673,87.6043 43.5,86.5C 44.2975,86.9569 44.6309,87.6236 44.5,88.5 Z"/></g>
<g><path style="opacity:1" fill="#1adbfa" d="M 55.5,88.5 C 55.5,88.8333 55.5,89.1667 55.5,89.5C 52.8728,90.0916 50.2062,90.4249 47.5,90.5C 47.5,88.8333 47.5,87.1667 47.5,85.5C 49.5,85.1667 51.5,84.8333 53.5,84.5C 53.2291,86.3797 53.8958,87.713 55.5,88.5 Z"/></g>
<g><path style="opacity:1" fill="#9ea4cd" d="M 69.5,90.5 C 67.321,90.84 65.4877,91.84 64,93.5C 63.0764,91.5049 61.9097,91.1716 60.5,92.5C 59.5318,90.3926 59.1984,88.0593 59.5,85.5C 64.0019,86.3633 68.3352,86.8633 72.5,87C 71.3636,88.1451 70.3636,89.3117 69.5,90.5 Z"/></g>
<g><path style="opacity:0.18" fill="#7c5266" d="M 3.5,81.5 C 4.53254,82.9117 5.19921,84.5784 5.5,86.5C 5.25284,87.7133 4.58617,88.38 3.5,88.5C 2.43236,87.5655 1.09903,87.2322 -0.5,87.5C -0.5,86.8333 -0.5,86.1667 -0.5,85.5C 2.17901,85.4754 3.51234,84.142 3.5,81.5 Z"/></g>
<g><path style="opacity:0.885" fill="#15e5fc" d="M 78.5,83.5 C 80.1667,83.5 81.8333,83.5 83.5,83.5C 87.1201,84.4515 88.7868,86.7849 88.5,90.5C 85.6787,90.3159 84.0121,91.6493 83.5,94.5C 84.4565,96.0754 85.1231,97.742 85.5,99.5C 84.8333,99.5 84.1667,99.5 83.5,99.5C 80.9567,96.6378 77.79,94.6378 74,93.5C 74.0904,89.6435 75.5904,86.3101 78.5,83.5 Z"/></g>
<g><path style="opacity:0.977" fill="#fafbfc" d="M 28.5,89.5 C 33.6405,88.5119 38.9738,88.1786 44.5,88.5C 44.5,92.1667 44.5,95.8333 44.5,99.5C 42.8333,99.5 41.1667,99.5 39.5,99.5C 39.5,96.1667 39.5,92.8333 39.5,89.5C 35.8333,89.5 32.1667,89.5 28.5,89.5 Z"/></g>
<g><path style="opacity:1" fill="#115a9d" d="M 55.5,88.5 C 53.8958,87.713 53.2291,86.3797 53.5,84.5C 51.5,84.8333 49.5,85.1667 47.5,85.5C 47.5,87.1667 47.5,88.8333 47.5,90.5C 50.2062,90.4249 52.8728,90.0916 55.5,89.5C 57.0811,89.8019 57.7477,91.3019 57.5,94C 57.1667,95.1667 56.8333,96.3333 56.5,97.5C 55.8933,97.3764 55.56,97.0431 55.5,96.5C 54.2342,95.0871 53.5675,93.7538 53.5,92.5C 51.8849,93.154 50.2182,93.654 48.5,94C 47.6634,95.0113 47.33,96.1779 47.5,97.5C 48.8333,97.5 50.1667,97.5 51.5,97.5C 50.0813,98.4511 48.4147,98.7845 46.5,98.5C 46.3341,93.4889 46.5007,88.4889 47,83.5C 50.4428,82.6326 53.7761,82.2992 57,82.5C 57.1667,83.5 57.3333,84.5 57.5,85.5C 57.3601,87.0296 56.6935,88.0296 55.5,88.5 Z"/></g>
<g><path style="opacity:1" fill="#e9ebed" d="M 69.5,90.5 C 67.7867,93.2648 65.62,95.5981 63,97.5C 61.6283,96.0899 60.795,94.4233 60.5,92.5C 61.9097,91.1716 63.0764,91.5049 64,93.5C 65.4877,91.84 67.321,90.84 69.5,90.5 Z"/></g>
<g><path style="opacity:0.365" fill="#8b9d9a" d="M 4.5,90.5 C 5.18944,89.2264 6.02278,89.2264 7,90.5C 8.54888,93.3117 9.38222,96.3117 9.5,99.5C 9.16667,99.5 8.83333,99.5 8.5,99.5C 8.20776,95.9336 6.87443,92.9336 4.5,90.5 Z"/></g>
<g><path style="opacity:1" fill="#1bc4ed" d="M 55.5,96.5 C 54.2921,97.2341 52.9587,97.5674 51.5,97.5C 50.1667,97.5 48.8333,97.5 47.5,97.5C 47.33,96.1779 47.6634,95.0113 48.5,94C 50.2182,93.654 51.8849,93.154 53.5,92.5C 53.5675,93.7538 54.2342,95.0871 55.5,96.5 Z"/></g>
<g><path style="opacity:1" fill="#686982" d="M 28.5,89.5 C 32.1667,89.5 35.8333,89.5 39.5,89.5C 39.5,92.8333 39.5,96.1667 39.5,99.5C 38.8333,99.5 38.1667,99.5 37.5,99.5C 38.0545,95.9878 37.3878,92.9878 35.5,90.5C 31.8936,90.7892 28.3936,90.4558 25,89.5C 24.5017,92.8168 24.335,96.1501 24.5,99.5C 23.8333,99.5 23.1667,99.5 22.5,99.5C 22.5,95.8333 22.5,92.1667 22.5,88.5C 24.5648,88.5172 26.5648,88.8505 28.5,89.5 Z"/></g>
<g><path style="opacity:1" fill="#afb3d1" d="M 35.5,90.5 C 35.3893,91.1174 35.056,91.6174 34.5,92C 31.854,92.4974 29.1873,92.6641 26.5,92.5C 26.298,94.9496 26.6314,97.283 27.5,99.5C 26.5,99.5 25.5,99.5 24.5,99.5C 24.335,96.1501 24.5017,92.8168 25,89.5C 28.3936,90.4558 31.8936,90.7892 35.5,90.5 Z"/></g>
<g><path style="opacity:0.972" fill="#fafbfc" d="M 35.5,90.5 C 37.3878,92.9878 38.0545,95.9878 37.5,99.5C 34.1667,99.5 30.8333,99.5 27.5,99.5C 26.6314,97.283 26.298,94.9496 26.5,92.5C 29.1873,92.6641 31.854,92.4974 34.5,92C 35.056,91.6174 35.3893,91.1174 35.5,90.5 Z"/></g>
<g><path style="opacity:0.919" fill="#0a5dae" d="M 78.5,83.5 C 75.5904,86.3101 74.0904,89.6435 74,93.5C 77.79,94.6378 80.9567,96.6378 83.5,99.5C 78.1667,99.5 72.8333,99.5 67.5,99.5C 67.0825,98.7784 66.4158,98.2784 65.5,98C 69.0504,94.1174 72.2171,89.9507 75,85.5C 75.8159,84.1772 76.9826,83.5106 78.5,83.5 Z"/></g>
</svg>
