<svg xmlns="http://www.w3.org/2000/svg" viewBox="0 0 1080 1080" width="1080" height="1080">
	<path fill="#181718" d="M661.295 52.073C661.356 52.3013 661.42 52.5287 661.478 52.7579C661.726 53.7411 661.657 53.3439 661.697 54.3598C662.534 53.3845 663.061 52.7349 664.198 52.0736C661.269 59.7651 656.966 68.8564 649.624 73.3356L649.338 71.4631C652.404 68.431 654.769 63.9284 656.958 60.194C658.905 57.7358 660.138 55.3 660.929 52.2613L661.295 52.073Z"/>
	<path fill="#3D3D3D" d="M649.338 71.4631L649.624 73.3356C642.991 79.1686 634.243 83.4002 625.401 84.3132C622.457 84.6173 619.419 84.4434 616.505 84.8077L615.936 82.3171C627.492 82.3403 640.285 78.8087 649.338 71.4631Z"/>
	<path fill="#181718" d="M581.309 29.6538C586.588 16.8906 595.828 9.68217 608.111 3.97031L608.336 6.80018L607.865 7.12091C606.238 7.80043 604.866 8.41439 603.472 9.50359C594.402 14.2916 588.121 21.6017 583.512 30.6775C583.346 29.5519 583.357 30.062 583.477 28.7942C583.507 28.4766 583.545 28.1598 583.579 27.8427L581.309 29.6538Z"/>
	<path fill="#3D3D3D" d="M176.348 512.451C176.564 514.353 176.445 518.393 177.696 519.733C178.767 519.113 178.406 519.477 178.927 518.808L179.113 519.16L180.995 520.17C180.985 524.177 181.24 528.118 181.563 532.111L179.966 533.066C181.063 537.697 182.307 542.175 183.858 546.676C183.222 547.424 182.618 548.267 181.842 548.87C181.384 547.157 180.533 545.597 180.012 543.896C176.838 533.534 174.613 523.262 176.348 512.451Z"/>
	<path fill="#878C91" d="M179.113 519.16L180.995 520.17C180.985 524.177 181.24 528.118 181.563 532.111L179.966 533.066C178.79 528.25 178.778 524.08 179.113 519.16Z"/>
	<path fill="#3D3D3D" d="M608.111 3.97031C621.427 -0.175968 634.811 -0.453209 647.39 6.14707C655.846 10.584 663.34 19.26 666.042 28.4767C667.802 34.48 667.706 46.1617 664.452 51.7081C664.377 51.8361 664.282 51.9517 664.198 52.0736C663.061 52.7349 662.534 53.3845 661.697 54.3598C661.657 53.3439 661.726 53.7411 661.478 52.7579C661.42 52.5287 661.356 52.3013 661.295 52.073C663.332 44.478 663.884 36.236 661.442 28.6534Q661.167 27.822 660.851 27.0051Q660.536 26.1881 660.18 25.3876Q659.825 24.587 659.432 23.8048Q659.038 23.0225 658.606 22.2604Q658.175 21.4984 657.706 20.7583Q657.238 20.0183 656.734 19.302Q656.23 18.5857 655.692 17.8948Q655.154 17.204 654.582 16.5403Q654.011 15.8767 653.408 15.2417Q652.805 14.6067 652.171 14.002Q651.538 13.3973 650.875 12.8242Q650.213 12.2511 649.524 11.7111Q648.834 11.1711 648.119 10.6655Q647.404 10.1598 646.665 9.68967Q645.926 9.21955 645.165 8.7861Q644.404 8.35265 643.623 7.9569C632.019 2.07054 620.388 2.88541 608.336 6.80018L608.111 3.97031Z"/>
	<path fill="#181718" d="M567.472 56.8805C568.622 57.4916 569.164 57.4945 570.449 57.348L570.518 58.229C537.548 84.4942 510.75 107.381 499.599 150.175C497.758 157.24 495.87 164.931 495.055 172.173C494.631 175.947 495.259 182.951 493.006 185.833L491.384 186.609L490.825 186.452C489.494 183.23 493.627 160.439 494.489 156.017C502.678 113.993 532.879 80.3001 567.472 56.8805Z"/>
	<defs>
		<linearGradient id="gradient_0" gradientUnits="userSpaceOnUse" x1="721.07782" y1="78.690063" x2="758.58777" y2="129.14601">
			<stop offset="0" stop-color="#1B1A1C"/>
			<stop offset="1" stop-color="#413F3F"/>
		</linearGradient>
	</defs>
	<path fill="url(#gradient_0)" d="M627.806 156.6C632.13 149.773 639.219 143.055 645.065 137.435C660.596 122.504 678.038 108.484 696.288 96.9926C736.057 71.9522 804.747 44.4689 852.111 45.5698C853.804 46.9983 855.582 48.1782 857.437 49.3801C857.474 51.4405 857.041 54.6812 858.316 56.3145C858.197 62.4049 860.295 68.7024 859.594 74.5726C857.83 66.7408 856.271 58.8851 854.017 51.1743C852.214 49.9835 850.449 48.7716 848.516 47.7981C813.162 51.8617 776.48 62.2899 744.352 77.59C742.274 78.4905 739.924 80.2707 737.812 80.7311C732.703 82.2452 727.813 85.0074 723.049 87.3657Q717.925 89.9622 712.901 92.7457Q707.876 95.5292 702.958 98.496Q698.04 101.463 693.234 104.609Q688.428 107.755 683.742 111.076Q679.055 114.397 674.494 117.889Q669.933 121.38 665.504 125.037Q661.075 128.695 656.783 132.512Q652.492 136.33 648.344 140.304C643.561 144.937 638.83 149.776 634.349 154.703C631.462 157.877 628.814 161.422 625.645 164.309C625.221 163.323 625.257 162.989 625.314 161.948C626.639 160.095 627.419 158.862 627.806 156.6Z"/>
	<path fill="#878C91" d="M625.645 164.309C628.814 161.422 631.462 157.877 634.349 154.703C638.83 149.776 643.561 144.937 648.344 140.304Q652.492 136.33 656.783 132.512Q661.075 128.695 665.504 125.037Q669.933 121.38 674.494 117.889Q679.055 114.397 683.742 111.076Q688.428 107.755 693.234 104.609Q698.04 101.463 702.958 98.496Q707.876 95.5292 712.901 92.7457Q717.925 89.9622 723.049 87.3657C727.813 85.0074 732.703 82.2452 737.812 80.7311C737.722 80.8504 737.633 80.9707 737.542 81.0891C731.735 88.639 724.746 94.6854 718.833 102.862C703.457 124.122 682.121 168.826 685.462 195.112C685.967 199.084 687.131 202.201 689.115 205.649C683.358 204.07 677.787 200.27 672.085 198.199C651.789 190.83 630.153 185.278 608.548 183.969C614.326 177.481 619.827 170.761 625.645 164.309Z"/>
	<path fill="#DCFBE5" d="M608.336 6.80018C620.388 2.88541 632.019 2.07054 643.623 7.9569Q644.404 8.35265 645.165 8.7861Q645.926 9.21955 646.665 9.68967Q647.404 10.1598 648.119 10.6655Q648.834 11.1711 649.524 11.7111Q650.213 12.2511 650.875 12.8242Q651.538 13.3973 652.171 14.002Q652.805 14.6067 653.408 15.2417Q654.011 15.8767 654.582 16.5403Q655.154 17.204 655.692 17.8948Q656.23 18.5857 656.734 19.302Q657.238 20.0183 657.706 20.7583Q658.175 21.4984 658.606 22.2604Q659.038 23.0225 659.432 23.8048Q659.825 24.587 660.18 25.3876Q660.536 26.1881 660.851 27.0051Q661.167 27.822 661.442 28.6534C663.884 36.236 663.332 44.478 661.295 52.073L660.929 52.2613C660.138 55.3 658.905 57.7358 656.958 60.194C654.769 63.9284 652.404 68.431 649.338 71.4631C640.285 78.8087 627.492 82.3403 615.936 82.3171C612.251 81.9941 608.579 81.4509 605.054 80.2888C596.631 77.5119 588.23 69.5359 584.331 61.5777C579.319 51.3472 579.97 41.2117 583.512 30.6775C588.121 21.6017 594.402 14.2916 603.472 9.50359C604.866 8.41439 606.238 7.80043 607.865 7.12091L608.336 6.80018Z"/>
	<path fill="#AED4BB" d="M603.472 9.50359C604.866 8.41439 606.238 7.80043 607.865 7.12091C601.289 18.0583 598.769 28.8707 602.004 41.4551C603.795 48.4249 607.285 55.2715 613.656 59.0779C621.031 63.4847 634.27 65.624 642.591 63.4457C650.335 61.4185 654.459 56.1544 660.929 52.2613C660.138 55.3 658.905 57.7358 656.958 60.194C652.455 62.0559 648.611 65.1325 643.856 66.6688C634.68 69.633 621.832 67.614 613.413 63.1308C606.047 59.2083 601.6 51.6441 599.3 43.8635C595.625 31.428 597.335 20.7111 603.472 9.50359Z"/>
	<path fill="#FEFEEB" d="M633.292 14.3743Q634.525 14.3869 635.746 14.5521Q636.968 14.7173 638.159 15.0326Q639.351 15.3479 640.494 15.8084Q641.638 16.2689 642.715 16.8676Q643.357 17.2378 643.956 17.6731Q644.555 18.1084 645.106 18.604Q645.656 19.0996 646.152 19.6501Q646.648 20.2006 647.083 20.7999Q647.519 21.3992 647.889 22.0407Q648.259 22.6823 648.561 23.359Q648.862 24.0358 649.091 24.7403Q649.319 25.4449 649.473 26.1695C650.358 30.2695 649.297 34.5223 647.032 37.9978C644.093 42.5068 640.106 44.6939 634.974 45.8507C631.742 45.8166 629.003 45.2293 626.21 43.5277C622.27 41.128 619.502 37.0865 618.478 32.6073C617.595 28.7455 618.207 24.7899 620.433 21.4889C623.513 16.922 628.119 15.2723 633.292 14.3743Z"/>
	<path fill="#E2E6ED" d="M632.204 18.4722C632.852 18.5099 633.415 18.5144 634.011 18.8147C637.708 20.6789 642.134 24.2513 643.658 28.1485C644.566 30.4712 644.481 32.9692 643.365 35.2049C641.628 38.6837 638.382 40.2756 634.884 41.5007C633.211 41.4844 631.676 41.387 630.111 40.7311Q629.538 40.4903 628.99 40.1951Q628.443 39.8999 627.927 39.5531Q627.411 39.2062 626.93 38.811Q626.45 38.4158 626.011 37.9759Q625.571 37.5361 625.176 37.0557Q624.781 36.5753 624.435 36.0589Q624.088 35.5425 623.793 34.995Q623.498 34.4474 623.258 33.8739C622.076 30.9808 622 27.8066 623.349 24.9629C625.213 21.0352 628.348 19.7721 632.204 18.4722Z"/>
	<path fill="#878C91" d="M583.512 30.6775C588.121 21.6017 594.402 14.2916 603.472 9.50359C597.335 20.7111 595.625 31.428 599.3 43.8635C601.6 51.6441 606.047 59.2083 613.413 63.1308C621.832 67.614 634.68 69.633 643.856 66.6688C648.611 65.1325 652.455 62.0559 656.958 60.194C654.769 63.9284 652.404 68.431 649.338 71.4631C640.285 78.8087 627.492 82.3403 615.936 82.3171C612.251 81.9941 608.579 81.4509 605.054 80.2888C596.631 77.5119 588.23 69.5359 584.331 61.5777C579.319 51.3472 579.97 41.2117 583.512 30.6775Z"/>
	<path fill="#181718" d="M181.842 548.87C182.618 548.267 183.222 547.424 183.858 546.676C189.257 556.845 194.788 566.351 204.625 572.809C214.147 578.277 224.173 580.73 235.049 577.826C235.747 577.64 236.237 577.438 236.832 577.037L237.86 577.118C238.104 577.167 238.346 577.232 238.593 577.267C241.245 577.638 246.37 574.139 248.715 572.816L248.096 573.06L248.567 573.102C247.182 575.279 241.297 576.105 240.541 578.232L238.693 579.578C245.52 605.629 251.835 625.226 266.126 648.359C270.485 655.414 275.12 662.482 280.617 668.705C287.091 676.033 294.804 682.011 301.43 689.13L310.421 693.907C312.915 696.544 315.734 698.971 318.1 701.7C310.536 700.123 280.293 684.484 273.15 679.646C252.992 665.15 234.209 646.476 220.177 626.035C218.396 619.27 207.606 602.344 203.402 595.421C200.509 595.443 197.508 595.314 194.627 595.509C190.377 599.942 187.58 605.406 185.739 611.23C181.831 623.597 180.921 636.121 178.053 648.646C174.907 662.385 170.332 675.756 166.656 689.35C164.101 698.797 162.533 708.484 159.989 717.933C153.189 743.197 142.362 767.117 135.992 792.54C134.342 799.13 133.626 805.339 133.774 812.128C134.384 840.132 142.96 872.019 158.384 895.383C166.93 908.329 180.82 922.854 192.187 933.635C216.77 956.951 248.668 970.985 274.319 993.16C288.245 1005.2 298.737 1020.86 310.425 1034.96C307.109 1034.29 302.624 1026.72 297.97 1024.8C289.613 1015.99 283.039 1006.7 273.538 998.835C248.59 978.185 218.251 964.339 194.341 942.351C189.388 937.797 184.579 932.807 180.375 927.558C177.494 923.962 174.945 920.076 171.919 916.603C168.312 912.463 164.211 908.763 160.606 904.606C154.03 897.024 149.245 888.369 144.747 879.458C133.645 894.419 129.853 950.422 129.766 970.209C129.711 982.682 130.444 995.446 132.289 1007.79Q134.816 1023.68 139.517 1039.07C143.801 1052.71 149.409 1065.53 150.084 1080L124.688 1080L122.435 1080L65.0029 1080L61.8299 1080C62.8691 1076.55 63.2869 1072.96 64.3351 1069.48Q68.4395 1055.42 73.8761 1041.83Q79.3128 1028.23 86.0314 1015.22C88.5645 1010.25 90.6619 1005.08 93.8796 1000.49C89.0205 991.221 87.9292 979.99 84.5001 970.134C82.0997 963.234 77.9278 956.574 76.4824 949.446C74.9961 942.116 74.9283 934.019 75.4141 926.555C77.1931 899.217 101.625 875.627 111.29 850.728C117.917 833.655 124.691 816.448 129.964 798.897C132.861 789.253 134.566 779.237 137.599 769.628C142.105 755.356 148.557 741.536 152.657 727.173C158.276 707.485 162.184 687.485 168.074 667.828C170.221 660.662 172.548 653.3 174.032 645.966C175.049 640.938 175.455 635.797 176.422 630.758C177.338 625.986 178.842 621.288 179.879 616.524C180.869 611.974 181.588 606.917 183.606 602.698C186.337 596.988 190.815 592.508 195.588 588.468C196.972 587.297 197.761 586.95 199.62 587.137C199.873 587.162 200.124 587.206 200.376 587.24C200.427 584.99 199.012 582.17 198.196 580.093C196.51 575.806 194.934 571.07 192.61 567.09C189.141 561.154 184.716 555.721 182.033 549.341C181.967 549.185 181.906 549.027 181.842 548.87Z"/>
	<path fill="#373E60" d="M65.0029 1080C74.4654 1054.45 83.1207 1029.01 96.4629 1005.11Q110.823 1042.08 122.435 1080L65.0029 1080Z"/>
	<path fill="#878C91" d="M202.486 574.513L202.005 572.454L204.625 572.809C214.147 578.277 224.173 580.73 235.049 577.826C235.747 577.64 236.237 577.438 236.832 577.037L237.86 577.118C238.104 577.167 238.346 577.232 238.593 577.267C241.245 577.638 246.37 574.139 248.715 572.816L248.096 573.06L248.567 573.102C247.182 575.279 241.297 576.105 240.541 578.232L238.693 579.578C245.52 605.629 251.835 625.226 266.126 648.359C270.485 655.414 275.12 662.482 280.617 668.705C287.091 676.033 294.804 682.011 301.43 689.13C294.355 687.451 284.482 681.31 278.434 677.336C269.276 671.319 259.484 663.684 251.842 655.829C246.102 649.927 241.139 643.118 236.166 636.572C223.173 619.47 211.642 602.455 203.076 582.662C201.714 579.514 199.925 576.164 199.233 572.799C200.436 572.741 201.496 573.837 202.486 574.513Z"/>
	<path fill="#181718" d="M202.486 574.513L202.005 572.454L204.625 572.809C214.147 578.277 224.173 580.73 235.049 577.826C235.747 577.64 236.237 577.438 236.832 577.037L237.86 577.118C238.104 577.167 238.346 577.232 238.593 577.267C241.245 577.638 246.37 574.139 248.715 572.816L248.096 573.06L248.567 573.102C247.182 575.279 241.297 576.105 240.541 578.232L238.693 579.578Q236.149 580.298 233.562 580.845C222.617 583.142 211.739 580.54 202.486 574.513Z"/>
	<path fill="#373E60" d="M130.573 809.33C131.722 835.302 135.574 855.153 144.747 879.458C133.645 894.419 129.853 950.422 129.766 970.209C129.711 982.682 130.444 995.446 132.289 1007.79Q134.816 1023.68 139.517 1039.07C143.801 1052.71 149.409 1065.53 150.084 1080L124.688 1080C122.24 1067.43 118.84 1050.34 114.665 1038.44C110.798 1027.42 105.223 1016.94 100.867 1006.1C96.2702 994.66 93.0789 982.541 89.2067 970.836C86.7454 963.396 83.323 956.026 81.3969 948.455C80.0681 943.232 79.2114 937.49 79.0973 932.102C78.9082 923.174 82.7889 913.348 86.2539 905.228C91.3236 893.349 101.806 878.558 108.586 866.965C117.068 852.461 126.671 826.013 130.573 809.33Z"/>
	<path fill="#5A7098" d="M150.084 1080C149.409 1065.53 143.801 1052.71 139.517 1039.07Q134.816 1023.68 132.289 1007.79C130.444 995.446 129.711 982.682 129.766 970.209C129.853 950.422 133.645 894.419 144.747 879.458C149.245 888.369 154.03 897.024 160.606 904.606C164.211 908.763 168.312 912.463 171.919 916.603C174.945 920.076 177.494 923.962 180.375 927.558C184.579 932.807 189.388 937.797 194.341 942.351C218.251 964.339 248.59 978.185 273.538 998.835C283.039 1006.7 289.613 1015.99 297.97 1024.8C302.624 1026.72 307.109 1034.29 310.425 1034.96C313.434 1037.89 317.19 1042.05 319.118 1045.8C319.542 1049.02 328.032 1068.12 330.083 1070.8L328.924 1071.49C331.046 1073.03 331.942 1077.47 332.743 1080L150.084 1080Z"/>
	<path fill="#242324" d="M297.97 1024.8C302.624 1026.72 307.109 1034.29 310.425 1034.96C313.434 1037.89 317.19 1042.05 319.118 1045.8C319.542 1049.02 328.032 1068.12 330.083 1070.8L328.924 1071.49C326.69 1069.05 325.501 1066.08 324.078 1063.13C321.632 1058.07 319.231 1053.02 316.093 1048.33C310.594 1040.13 303.692 1032.86 297.97 1024.8Z"/>
	<path fill="#373E60" d="M194.627 595.509C197.508 595.314 200.509 595.443 203.402 595.421C207.606 602.344 218.396 619.27 220.177 626.035C217.856 623.639 216.069 620.819 214.195 618.073C208.703 628.18 204.982 638.964 201.432 649.864C199.515 655.749 197.344 661.641 195.763 667.624C186.325 703.329 183.881 740.611 184.378 777.379C184.551 790.157 183.971 803.527 187.677 815.883C192.604 832.31 201.822 846.15 210.903 860.496C220.14 875.089 229.537 889.884 241.501 902.404C258.352 920.039 277.496 935.542 296.018 951.372C319.159 971.15 343.238 991.198 357.176 1018.94C366.622 1037.74 370.346 1059.27 372.686 1080L332.743 1080C331.942 1077.47 331.046 1073.03 328.924 1071.49L330.083 1070.8C328.032 1068.12 319.542 1049.02 319.118 1045.8C317.19 1042.05 313.434 1037.89 310.425 1034.96C298.737 1020.86 288.245 1005.2 274.319 993.16C248.668 970.985 216.77 956.951 192.187 933.635C180.82 922.854 166.93 908.329 158.384 895.383C142.96 872.019 134.384 840.132 133.774 812.128C133.626 805.339 134.342 799.13 135.992 792.54C142.362 767.117 153.189 743.197 159.989 717.933C162.533 708.484 164.101 698.797 166.656 689.35C170.332 675.756 174.907 662.385 178.053 648.646C180.921 636.121 181.831 623.597 185.739 611.23C187.58 605.406 190.377 599.942 194.627 595.509Z"/>
	<path fill="#181718" d="M319.118 1045.8C322.415 1050.58 331.775 1063.04 330.501 1069.28C330.377 1069.88 330.274 1070.16 330.083 1070.8C328.032 1068.12 319.542 1049.02 319.118 1045.8Z"/>
	<path fill="#242324" d="M581.309 29.6538L583.579 27.8427C583.545 28.1598 583.507 28.4766 583.477 28.7942C583.357 30.062 583.346 29.5519 583.512 30.6775C579.97 41.2117 579.319 51.3472 584.331 61.5777C588.23 69.5359 596.631 77.5119 605.054 80.2888C608.579 81.4509 612.251 81.9941 615.936 82.3171L616.505 84.8077C605.311 84.2552 596.182 80.1297 587.86 72.6435C551.797 99.7107 525.405 125.354 518.751 172.149C518.118 176.602 517.645 181.119 516.513 185.479C533.227 181.09 586.477 180.414 604.23 182.674C608.111 177.724 623.189 158.829 627.806 156.6C627.419 158.862 626.639 160.095 625.314 161.948C625.257 162.989 625.221 163.323 625.645 164.309C619.827 170.761 614.326 177.481 608.548 183.969C630.153 185.278 651.789 190.83 672.085 198.199C677.787 200.27 683.358 204.07 689.115 205.649C687.131 202.201 685.967 199.084 685.462 195.112C682.121 168.826 703.457 124.122 718.833 102.862C724.746 94.6854 731.735 88.639 737.542 81.0891C737.633 80.9707 737.722 80.8504 737.812 80.7311C739.924 80.2707 742.274 78.4905 744.352 77.59C776.48 62.2899 813.162 51.8617 848.516 47.7981C850.449 48.7716 852.214 49.9835 854.017 51.1743C856.271 58.8851 857.83 66.7408 859.594 74.5726C860.295 68.7024 858.197 62.4049 858.316 56.3145C872.341 90.8479 863.15 163.136 854.929 199.367Q851.748 213.692 847.293 227.673Q842.838 241.654 837.145 255.179C832.066 267.319 825.813 279.715 819.283 291.15C816.54 295.955 813.382 300.514 810.675 305.336C809.105 308.133 803.041 312.062 802.667 314.57C806.17 324.529 815.258 336.499 819.895 346.46C822.203 351.418 823.897 356.722 826.133 361.748C833.47 378.24 841.144 394.56 847.848 411.33C858.357 437.619 867.547 464.99 875.581 492.129C877.178 497.525 879.483 502.684 881.055 508.086C884.265 519.117 886.495 534.238 886.818 545.683C887.17 558.112 882.794 575.352 877.386 586.658C875.872 589.822 874.442 592.994 873.076 596.227C875.409 599.553 877.959 602.84 879.997 606.357C885.366 615.624 890.57 628.206 895.672 638.2C900.979 648.595 906.647 658.83 911.79 669.304C927.551 701.4 942.08 735.446 951.896 769.869C955.95 784.085 959.838 798.858 962.59 813.39C963.446 817.909 961.658 822.48 963.681 826.795C972.596 845.81 989.55 860.241 1002.28 876.596C1006.76 882.347 1010.58 888.76 1014.02 895.185C1016.43 899.701 1018.99 904.479 1020.05 909.534C1022.2 919.828 1019.87 930.935 1018.59 941.202C1017.8 947.632 1017.42 954.132 1016.47 960.533C1015.07 969.974 1013.04 979.403 1011.86 988.862C1010.47 1000.04 1010.03 1011.68 1009.14 1022.95C1019.32 1033.26 1037.38 1054.32 1042.74 1067.56C1044.34 1071.5 1044.38 1075.97 1045.83 1080L1041.8 1080L975.221 1080C979.666 1067.1 982.892 1053.58 986.36 1040.38Q994.483 1008.99 1002.97 977.701C1006.09 966.341 1008.64 953.898 1013.2 943.025C1016.74 926.582 1017.98 916.534 1011.64 900.619C1007.09 891.822 1002.21 883.684 995.97 875.974C983.859 861.017 970.253 848.905 961.345 831.423C961.205 846.018 960.552 860.552 961.814 875.128C962.577 883.942 964.581 892.544 965.775 901.292C968.171 918.855 969.79 949.314 966.479 966.292C965.962 954.98 966.466 939.988 962.891 929.388C963.103 910.347 959.017 891.265 957.948 872.294C956.74 850.859 958.48 829.013 955.862 807.679C954.695 798.173 952.143 788.738 949.728 779.485C938.092 734.916 918.796 693.465 898.048 652.541C893.377 643.326 888.392 634.233 883.827 624.973C880.072 617.355 876.947 608.422 871.976 601.565C871.245 600.557 871.185 600.209 869.91 600.003C867.65 601.153 862.865 611.122 861.136 613.753Q858.323 618.095 855.202 622.221Q852.081 626.347 848.668 630.235Q845.255 634.123 841.568 637.753Q837.882 641.383 833.941 644.735L833.33 645.242C832.035 646.084 831.239 646.89 830.238 648.038C829.616 647.246 829.196 646.378 828.724 645.493C828.893 645.277 829.065 645.065 829.232 644.847C832.991 639.921 838.955 636.59 842.192 631.371C855.801 618.883 873.778 590.393 878.553 572.41C880.829 563.837 880.997 555.214 881.739 546.447Q880.571 549.385 879.205 552.236Q877.838 555.087 876.279 557.838Q874.72 560.589 872.976 563.226Q871.232 565.863 869.311 568.374C855.943 585.96 817.724 622.312 798.596 633.553L797.709 631.288C803.551 626.477 809.866 622.284 815.683 617.472C819.314 614.469 822.037 610.61 825.551 607.525C848.017 587.796 870.797 568.833 881.171 539.77C880.978 538.998 881.215 538.871 881.542 538.176L880.374 538.317L879.646 537.47L881.183 536.924C879.686 533.049 880.081 526.952 879.495 522.687C878.611 516.252 877.18 509.618 875.276 503.407C872.303 493.71 868.487 484.195 865.249 474.57Q853.711 439.209 840.238 404.539C835.581 392.848 830.236 381.355 825.13 369.849C817.718 353.146 810.322 335.696 799.366 320.989C797.579 317.043 794.55 312.313 791.377 309.375Q789.522 307.062 787.378 305.013C779.721 297.826 769.732 291.644 760.84 286.044C746.956 277.299 732.341 269.386 717.027 263.436C684.36 250.743 645.245 245.716 610.366 245.438Q599.168 245.304 588.014 246.299C581.771 246.912 575.356 248.015 569.103 248.232L568.152 248.26C563.571 246.357 558.048 249.97 553.439 248.627L556.571 248.163C555.606 247.794 554.734 247.77 553.706 247.663C571.931 245.324 590.056 242.577 608.474 242.303C666.951 241.435 731.01 256.974 777.774 293.154L783.66 297.781C777.691 289.057 770.136 280.98 763.275 272.9C743.69 249.836 721.718 227.116 694.588 212.96C690.831 211 686.735 209.724 682.914 207.88C664.383 198.936 654.793 195.158 634.431 191.344C625.03 189.584 615.204 187.519 605.679 186.718C597.717 186.048 589.398 186.731 581.382 186.61C566.144 186.381 550.486 185.748 535.274 186.834C521.088 187.846 507.051 190.384 492.803 190.88L492.423 191.308C492.034 191.74 491.618 192.146 491.2 192.55C490.552 192.13 489.997 191.738 489.402 191.259C483.204 192.526 444.117 200.791 440.166 198.86C438.339 197.967 434.915 191.938 432.581 190.014C423.252 182.326 414.184 174.682 404.405 167.533C389.678 156.766 373.857 147.186 358.356 137.571C327.867 118.659 297.36 101.159 265.199 85.2651C249.994 77.7505 234.078 69.1036 217.631 64.8749C210.901 74.0341 208.834 85.8041 206.095 96.6349Q204.166 104.154 202.477 111.73Q200.788 119.306 199.341 126.932Q197.893 134.558 196.689 142.226Q195.484 149.894 194.524 157.596Q193.563 165.298 192.848 173.028Q192.132 180.757 191.663 188.504Q191.193 196.252 190.97 204.011Q190.747 211.77 190.77 219.532C190.803 228.724 190.611 238.663 192.029 247.728C197.28 281.291 212.371 311.062 226.55 341.474C230.653 350.275 236.326 364.475 242.185 371.828C242.061 372.346 241.989 372.819 241.725 373.286C239.27 375.714 237.256 379.574 235.882 382.739C235.346 389.783 231.641 397.293 230.048 404.222C226.255 420.721 223.897 438.798 223.266 455.713C216.341 455.616 206.53 457.044 201.016 461.589C195.365 465.225 191.22 469.671 186.815 474.694L186.332 475.296C186.196 474.971 186.067 474.643 185.925 474.32C185.862 474.177 185.785 474.04 185.715 473.899L185.553 475.015C186.271 475.519 186.816 475.786 187.661 476.024C187.168 477.345 186.417 478.738 186.499 480.155C181.595 494.034 178.035 503.7 178.927 518.808C178.406 519.477 178.767 519.113 177.696 519.733C176.445 518.393 176.564 514.353 176.348 512.451C176.144 498.738 178.106 495.123 181.293 482.28C183.025 475.298 184.062 468.458 186.354 461.561C189.874 450.968 195.031 442.34 200.091 432.516C204.589 423.784 208.729 414.883 214.293 406.736C217.953 401.378 235.185 378.349 236.058 373.936C236.344 372.491 216.693 333.939 214.534 329.589C207.172 314.758 201.035 297.576 195.831 281.84C194.641 278.243 193.15 274.701 192.289 271.006C190.678 264.09 190.412 256.879 189.636 249.839C188.521 239.706 186.867 229.677 186.623 219.464Q186.449 211.326 186.578 203.186Q186.707 195.047 187.138 186.918Q187.57 178.789 188.304 170.682Q189.037 162.575 190.072 154.5Q191.107 146.426 192.441 138.396Q193.776 130.366 195.408 122.391Q197.041 114.416 198.968 106.507Q200.896 98.598 203.117 90.7664C205.444 82.4469 207.98 70.1497 214.36 64.0336C215.593 62.8508 216.514 62.2261 218.255 62.3554C227.96 63.0758 240.041 69.7012 248.871 73.7156Q290.057 92.3299 329.282 114.785C340.123 121.035 350.663 127.892 361.337 134.431C372.483 141.259 384.146 147.793 394.954 155.113C411.343 166.213 430.311 180.015 443.972 194.278C452.46 192.566 461.149 191.549 469.707 190.216C476.95 189.087 484.269 187.454 491.606 187.199L491.384 186.609L493.006 185.833C495.259 182.951 494.631 175.947 495.055 172.173C495.87 164.931 497.758 157.24 499.599 150.175C510.75 107.381 537.548 84.4942 570.518 58.229L570.449 57.348C569.164 57.4945 568.622 57.4916 567.472 56.8805Q572.807 53.213 577.49 48.7429C577.15 42.6173 578.322 35.0667 581.309 29.6538Z"/>
	<path fill="#878C91" d="M186.815 474.694C188.031 456.572 223.863 399.562 235.882 382.739C235.346 389.783 231.641 397.293 230.048 404.222C226.255 420.721 223.897 438.798 223.266 455.713C216.341 455.616 206.53 457.044 201.016 461.589C195.365 465.225 191.22 469.671 186.815 474.694Z"/>
	<path fill="#878C91" d="M578.275 51.0237C579.32 58.3663 581.932 64.1866 586.377 70.1076L581.09 74.1744L578.445 76.303C551.681 96.8266 526.874 121.202 518.841 155.261L516.682 163.682C515.539 171.135 514.394 178.602 513.767 186.121C509.421 185.975 505.208 185.915 500.869 186.295C497.905 186.554 494.532 187.3 491.606 187.199L491.384 186.609L493.006 185.833C495.259 182.951 494.631 175.947 495.055 172.173C495.87 164.931 497.758 157.24 499.599 150.175C510.75 107.381 537.548 84.4942 570.518 58.229C573.583 56.2989 575.982 53.8025 578.275 51.0237Z"/>
	<path fill="#AED4BB" d="M516.682 163.682C516.597 163.55 516.502 163.424 516.425 163.287C514.066 159.056 508.79 139.543 508.192 134.359C507.983 132.548 508.05 130.936 508.615 129.202C516.246 105.787 554.514 69.2871 576.484 58.1025C577.153 64.0554 578.311 68.8276 581.09 74.1744L578.445 76.303C576.542 71.5654 575.382 67.2731 574.934 62.1814C557.308 75.3911 536.468 90.6582 523.427 108.501C518.171 115.693 514.044 123.769 510.071 131.724C511.902 136.583 515.926 152.423 518.841 155.261L516.682 163.682Z"/>
	<path fill="#E2E6ED" d="M510.071 131.724C514.044 123.769 518.171 115.693 523.427 108.501C536.468 90.6582 557.308 75.3911 574.934 62.1814C575.382 67.2731 576.542 71.5654 578.445 76.303C551.681 96.8266 526.874 121.202 518.841 155.261C515.926 152.423 511.902 136.583 510.071 131.724Z"/>
	<path fill="#373E60" d="M1013.2 943.025C1014.61 951.845 1009.23 976.359 1008.06 987.344C1006.75 999.728 1006.25 1012.15 1005.1 1024.54C1005.21 1024.69 1005.32 1024.85 1005.43 1025.01C1007.99 1028.71 1011.35 1031.84 1014.3 1035.23C1021.44 1043.42 1029.45 1052.83 1034.78 1062.27C1037.9 1067.78 1039.1 1074.26 1041.8 1080L975.221 1080C979.666 1067.1 982.892 1053.58 986.36 1040.38Q994.483 1008.99 1002.97 977.701C1006.09 966.341 1008.64 953.898 1013.2 943.025Z"/>
	<path fill="#DCFBE5" d="M744.352 77.59C776.48 62.2899 813.162 51.8617 848.516 47.7981C850.449 48.7716 852.214 49.9835 854.017 51.1743C856.271 58.8851 857.83 66.7408 859.594 74.5726Q861.27 89.97 861.537 105.456C861.993 152.717 851.047 206.312 834.265 250.363C830.39 260.533 826.191 271.063 820.963 280.624C817.722 286.55 813.693 292.023 809.753 297.494C806.568 301.918 803.5 306.61 799.684 310.511C798.211 308.741 796.83 306.883 795.416 305.065C800.216 295.385 805.243 286.068 809.566 276.114C831.259 226.167 842.794 172.858 848.125 118.817C849.243 107.487 850.201 96.1162 850.353 84.7258C850.428 79.1721 849.141 70.9731 849.97 65.9634C849.996 65.8082 850.027 65.6539 850.056 65.4992C849.512 64.0837 849.357 63.068 848.154 62.1141C842.991 64.3024 837.543 67.1636 832.115 68.5163L831.34 69.1071C828.912 70.9382 826.292 72.4649 823.871 74.3354C811.661 83.7672 800.149 93.9447 788.566 104.119C762.757 126.788 737.301 150.475 716.574 177.993C709.477 187.415 703.969 197.661 697.479 207.425C696.988 208.284 696.792 208.455 696.026 209.014C693.566 208.739 691.214 206.904 689.115 205.649C687.131 202.201 685.967 199.084 685.462 195.112C682.121 168.826 703.457 124.122 718.833 102.862C724.746 94.6854 731.735 88.639 737.542 81.0891C737.633 80.9707 737.722 80.8504 737.812 80.7311C739.924 80.2707 742.274 78.4905 744.352 77.59Z"/>
	<path fill="#AED4BB" d="M737.812 80.7311C739.924 80.2707 742.274 78.4905 744.352 77.59C736.3 88.1638 727.259 97.7532 719.624 108.681C705.82 128.439 686.491 169.057 689.586 193.119C690.35 199.056 692.856 203.649 697.479 207.425C696.988 208.284 696.792 208.455 696.026 209.014C693.566 208.739 691.214 206.904 689.115 205.649C687.131 202.201 685.967 199.084 685.462 195.112C682.121 168.826 703.457 124.122 718.833 102.862C724.746 94.6854 731.735 88.639 737.542 81.0891C737.633 80.9707 737.722 80.8504 737.812 80.7311Z"/>
	<defs>
		<linearGradient id="gradient_1" gradientUnits="userSpaceOnUse" x1="704.00574" y1="174.03381" x2="838.28882" y2="185.3914">
			<stop offset="0" stop-color="#958FA2"/>
			<stop offset="1" stop-color="#BDBCCA"/>
		</linearGradient>
	</defs>
	<path fill="url(#gradient_1)" d="M832.698 71.0199C837.48 68.8457 842.366 66.5828 847.713 66.5747C847.196 76.0895 847.819 85.6764 847.122 95.2415C841.985 165.777 826.797 239.852 792.616 302.362C770.843 275.817 729.739 225.849 699.087 212.464L699.559 211.819C703.129 206.88 705.902 201.408 709.102 196.229C713.386 189.297 718.197 182.395 723.179 175.946C740.13 154.004 760.456 134.71 780.812 115.974Q805.876 92.483 832.698 71.0199Z"/>
	<path fill="#5A7098" d="M833.33 645.242L833.941 644.735Q837.882 641.383 841.568 637.753Q845.255 634.123 848.668 630.235Q852.081 626.347 855.202 622.221Q858.323 618.095 861.136 613.753C862.865 611.122 867.65 601.153 869.91 600.003C871.185 600.209 871.245 600.557 871.976 601.565C876.947 608.422 880.072 617.355 883.827 624.973C888.392 634.233 893.377 643.326 898.048 652.541C918.796 693.465 938.092 734.916 949.728 779.485C952.143 788.738 954.695 798.173 955.862 807.679C958.48 829.013 956.74 850.859 957.948 872.294C959.017 891.265 963.103 910.347 962.891 929.388C966.466 939.988 965.962 954.98 966.479 966.292C969.79 949.314 968.171 918.855 965.775 901.292C964.581 892.544 962.577 883.942 961.814 875.128C960.552 860.552 961.205 846.018 961.345 831.423C970.253 848.905 983.859 861.017 995.97 875.974C1002.21 883.684 1007.09 891.822 1011.64 900.619C1017.98 916.534 1016.74 926.582 1013.2 943.025C1008.64 953.898 1006.09 966.341 1002.97 977.701Q994.483 1008.99 986.36 1040.38C982.892 1053.58 979.666 1067.1 975.221 1080L879.265 1080L876.798 1080L873.645 1080L813.208 1080C817.727 1070.07 824.332 1061.24 828.571 1051.03C838.734 1026.54 841.988 999.509 845.563 973.43C846.388 967.412 848.255 960.005 847.703 954.009L843.343 960.294C843.298 953.991 850.724 940.63 853.253 934.269C858.198 921.827 861.1 911.48 864.599 898.656C865.843 894.093 867.781 889.649 868.565 884.977C869.632 878.617 869.158 871.461 869.371 864.987C870.232 838.736 870.038 819.068 865.339 793.045C863.794 784.494 862.128 775.711 858.612 767.723C851.412 751.366 838.87 740.762 824.307 731.192C820.339 728.585 816.102 725.479 811.68 723.764L808.15 720.796C801.875 717.324 795.395 714.533 788.923 711.475Q773.81 704.192 758.564 697.192L758.109 696.964Q753.13 695.194 748.076 693.655L744.099 693.433C742.969 691.754 742.639 689.417 742.15 687.469C753.393 683.84 764.365 679.641 775.489 675.687C783.594 672.806 792.564 670.324 800.163 666.34C807.045 662.732 823.08 650.85 828.724 645.493C829.196 646.378 829.616 647.246 830.238 648.038C831.239 646.89 832.035 646.084 833.33 645.242Z"/>
	<path fill="#373E60" d="M867.907 923.884C871.808 929.869 872.419 950.238 871.146 957.353C868.48 948.393 867.765 933.332 867.907 923.884Z"/>
	<path fill="#242324" d="M828.861 657.441C833.938 654.776 840.09 654.623 844.923 651.498C851.94 646.961 856.23 635.095 863.459 629.497L864.625 629.684C859.743 636.762 854.346 643.73 849.845 651.03C846.298 656.781 819.715 663.924 812.712 666.489C807.901 668.251 803.17 670.597 798.326 672.177C800.175 669.404 805.376 668.208 808.325 666.839C806.035 666.491 803.676 669.164 800.932 668.636C807.245 664.696 816.183 662.679 823.233 660.24C824.951 659.645 828.083 659.043 828.861 657.441Z"/>
	<path fill="#373E60" d="M833.33 645.242C833.516 645.263 833.702 645.301 833.89 645.303C844.711 645.424 860.456 629.906 867.865 623.089C866.904 625.366 866.049 627.648 864.625 629.684L863.459 629.497C856.23 635.095 851.94 646.961 844.923 651.498C840.09 654.623 833.938 654.776 828.861 657.441C823.159 658.586 817.384 660.815 811.761 662.39C817.983 658.17 825.043 653.511 830.238 648.038C831.239 646.89 832.035 646.084 833.33 645.242Z"/>
	<path fill="#242324" d="M872.374 971.642C877.496 1003.43 888.12 1049.18 879.265 1080L876.798 1080L873.645 1080Q875.873 1071.3 876.578 1062.35C876.655 1057.63 876.763 1052.89 877.043 1048.19C878.154 1045.26 877.875 1041.42 877.888 1038.32C877.93 1028.18 876.858 1017.42 875.213 1007.42C873.152 994.901 869.358 984.547 872.374 971.642Z"/>
	<path fill="#181718" d="M876.578 1062.35L877.222 1062.11C878.416 1067.67 877.036 1074.31 876.798 1080L873.645 1080Q875.873 1071.3 876.578 1062.35Z"/>
	<path fill="#373E60" d="M875.417 845.978C879.211 849.627 881.816 854.62 885.054 858.776C890.232 865.423 926.266 910.03 926.667 913.58C925.462 913.715 925.061 913.552 923.967 912.928C918.333 909.715 912.925 904.533 907.647 900.632C902.344 896.712 896.717 893.279 891.363 889.439C885.579 885.289 880.117 880.703 874.404 876.46C874.246 866.29 874.902 856.132 875.417 845.978Z"/>
	<path fill="#373E60" d="M870.22 791.667C876.171 789.705 882.344 788.499 888.188 786.211C896.257 783.051 903.081 778.413 910.547 774.176C911.748 773.494 912.857 773.023 914.183 773.669C912.825 778.146 886.106 817.089 881.554 823.142C879.733 825.564 877.56 827.635 875.358 829.707C875.404 832.965 875.594 836.298 875.318 839.543C874.619 833.781 874.784 827.765 874.262 821.947C873.351 811.798 871.751 801.736 870.22 791.667Z"/>
	<path fill="#373E60" d="M749.363 689.396C757.944 686.559 771.851 680.085 780.025 679.092C776.58 681.198 772.912 682.666 769.189 684.205Q772.041 684.814 774.869 685.527Q777.697 686.24 780.497 687.057Q783.297 687.873 786.065 688.792Q788.833 689.711 791.565 690.731Q794.297 691.752 796.99 692.871Q799.683 693.991 802.333 695.209Q804.983 696.427 807.587 697.742Q810.19 699.057 812.743 700.466Q815.297 701.876 817.796 703.378Q820.296 704.88 822.739 706.474Q825.182 708.067 827.565 709.749Q829.947 711.431 832.266 713.199Q834.586 714.968 836.838 716.82Q839.091 718.673 841.274 720.607Q843.457 722.541 845.567 724.554Q847.678 726.567 849.713 728.656C853.345 714.27 860.227 690.95 870.195 680.133C868.903 686.817 867.531 693.496 867.157 700.31C866.73 708.104 867.262 715.937 866.864 723.74C866.423 732.403 865.166 741.064 865.414 749.748C865.667 758.612 867.747 767.36 867.455 776.256C865.267 770.304 863.089 764.368 859.762 758.938C855.484 751.955 850.027 744.828 843.916 739.339C830.021 726.86 792.329 705.321 774.575 697.631Q768.462 695.031 762.147 692.969Q755.832 690.906 749.363 689.396Z"/>
	<path fill="#181718" d="M742.15 687.469C753.393 683.84 764.365 679.641 775.489 675.687C783.594 672.806 792.564 670.324 800.163 666.34C807.045 662.732 823.08 650.85 828.724 645.493C829.196 646.378 829.616 647.246 830.238 648.038C825.043 653.511 817.983 658.17 811.761 662.39C817.384 660.815 823.159 658.586 828.861 657.441C828.083 659.043 824.951 659.645 823.233 660.24C816.183 662.679 807.245 664.696 800.932 668.636C803.676 669.164 806.035 666.491 808.325 666.839C805.376 668.208 800.175 669.404 798.326 672.177C792.629 675.14 785.938 676.488 780.025 679.092C771.851 680.085 757.944 686.559 749.363 689.396Q755.832 690.906 762.147 692.969Q768.462 695.031 774.575 697.631C792.329 705.321 830.021 726.86 843.916 739.339C850.027 744.828 855.484 751.955 859.762 758.938C863.089 764.368 865.267 770.304 867.455 776.256C868.239 781.435 869.057 786.555 870.22 791.667C871.751 801.736 873.351 811.798 874.262 821.947C874.784 827.765 874.619 833.781 875.318 839.543L875.417 845.978C874.902 856.132 874.246 866.29 874.404 876.46C873.746 889.968 865.102 912.708 867.907 923.884C867.765 933.332 868.48 948.393 871.146 957.353C871.336 962.154 871.828 966.872 872.374 971.642C869.358 984.547 873.152 994.901 875.213 1007.42C876.858 1017.42 877.93 1028.18 877.888 1038.32C877.875 1041.42 878.154 1045.26 877.043 1048.19C875.216 1020.92 869.657 994.213 866.124 967.157Q864.105 951.964 863.021 936.676C862.711 931.996 863 927.234 862.479 922.593C860.282 926.551 858.871 931.131 857.073 935.306C854.301 941.743 851.139 947.905 847.703 954.009L843.343 960.294C843.298 953.991 850.724 940.63 853.253 934.269C858.198 921.827 861.1 911.48 864.599 898.656C865.843 894.093 867.781 889.649 868.565 884.977C869.632 878.617 869.158 871.461 869.371 864.987C870.232 838.736 870.038 819.068 865.339 793.045C863.794 784.494 862.128 775.711 858.612 767.723C851.412 751.366 838.87 740.762 824.307 731.192C820.339 728.585 816.102 725.479 811.68 723.764L808.15 720.796C801.875 717.324 795.395 714.533 788.923 711.475Q773.81 704.192 758.564 697.192L758.109 696.964Q753.13 695.194 748.076 693.655L744.099 693.433C742.969 691.754 742.639 689.417 742.15 687.469Z"/>
	<path fill="#242324" d="M748.076 693.655C749.679 692.801 751.174 692.203 752.922 691.711C754.679 693.438 756.43 695.16 758.109 696.964Q753.13 695.194 748.076 693.655Z"/>
	<path fill="#242324" d="M758.564 697.192C766.264 697.448 800.156 711.231 805.334 716.641C806.498 717.857 807.517 719.231 808.15 720.796C801.875 717.324 795.395 714.533 788.923 711.475Q773.81 704.192 758.564 697.192Z"/>
	<path fill="#373E60" d="M847.703 954.009C851.139 947.905 854.301 941.743 857.073 935.306C858.871 931.131 860.282 926.551 862.479 922.593C863 927.234 862.711 931.996 863.021 936.676Q864.105 951.964 866.124 967.157C869.657 994.213 875.216 1020.92 877.043 1048.19C876.763 1052.89 876.655 1057.63 876.578 1062.35Q875.873 1071.3 873.645 1080L813.208 1080C817.727 1070.07 824.332 1061.24 828.571 1051.03C838.734 1026.54 841.988 999.509 845.563 973.43C846.388 967.412 848.255 960.005 847.703 954.009Z"/>
	<path fill="#373E60" d="M961.345 831.423C970.253 848.905 983.859 861.017 995.97 875.974C1002.21 883.684 1007.09 891.822 1011.64 900.619C1008.53 906.231 1007.15 913.617 1005.03 919.77Q995.443 947.217 986.317 974.82C983.248 983.882 980.305 993.025 976.946 1001.98C971.681 1016.03 966.024 1029.6 961.903 1044.08C960.995 1024.69 963.129 1005.23 963.38 985.83Q963.576 969.645 963.23 953.463C963.051 945.449 962.576 937.401 962.891 929.388C966.466 939.988 965.962 954.98 966.479 966.292C969.79 949.314 968.171 918.855 965.775 901.292C964.581 892.544 962.577 883.942 961.814 875.128C960.552 860.552 961.205 846.018 961.345 831.423Z"/>
	<path fill="#DCFBE5" d="M217.631 64.8749C234.078 69.1036 249.994 77.7505 265.199 85.2651C297.36 101.159 327.867 118.659 358.356 137.571C373.857 147.186 389.678 156.766 404.405 167.533C414.184 174.682 423.252 182.326 432.581 190.014C434.915 191.938 438.339 197.967 440.166 198.86C444.117 200.791 483.204 192.526 489.402 191.259C489.997 191.738 490.552 192.13 491.2 192.55C491.618 192.146 492.034 191.74 492.423 191.308L492.803 190.88C507.051 190.384 521.088 187.846 535.274 186.834C550.486 185.748 566.144 186.381 581.382 186.61C589.398 186.731 597.717 186.048 605.679 186.718C615.204 187.519 625.03 189.584 634.431 191.344C654.793 195.158 664.383 198.936 682.914 207.88C686.735 209.724 690.831 211 694.588 212.96C721.718 227.116 743.69 249.836 763.275 272.9C770.136 280.98 777.691 289.057 783.66 297.781L777.774 293.154C731.01 256.974 666.951 241.435 608.474 242.303C590.056 242.577 571.931 245.324 553.706 247.663C535.033 249.951 517.02 253.025 498.821 257.946C487.634 261.438 475.782 264.962 465.288 270.225L464.688 272.45C448.307 277.112 433.73 284.386 418.813 292.405L418.419 292.703C413.92 296.03 408.859 298.566 404.069 301.436C399.165 304.375 394.428 307.773 389.864 311.214C371.74 324.874 353.617 339.763 338.427 356.705C331.584 364.338 325.526 373.097 319.717 381.535C304.813 403.183 291.644 425.564 280.944 449.609C277.801 456.67 275.964 464.255 272.997 471.32C267.642 488.647 266.379 497.052 268.875 514.943C269.037 517.152 269.214 519.315 269.586 521.501C269.429 528.754 269.194 535.912 268.034 543.092C273.223 552.337 276.816 563.122 280.998 572.903C282.705 576.895 285.536 581.739 286.559 585.891C286.592 586.232 286.614 586.574 286.659 586.914C287.03 589.703 289.366 592.225 290.47 594.798C288.737 592.555 286.35 588.106 284.081 586.781C277.017 574.544 271.808 560.527 266.82 547.326C262.619 559.176 256.413 571.279 244.48 577.08C243.164 577.585 241.963 578.195 240.541 578.232C241.297 576.105 247.182 575.279 248.567 573.102L248.096 573.06L248.715 572.816C246.37 574.139 241.245 577.638 238.593 577.267C238.346 577.232 238.104 577.167 237.86 577.118L236.832 577.037C236.237 577.438 235.747 577.64 235.049 577.826C224.173 580.73 214.147 578.277 204.625 572.809C194.788 566.351 189.257 556.845 183.858 546.676C182.307 542.175 181.063 537.697 179.966 533.066L181.563 532.111C181.24 528.118 180.985 524.177 180.995 520.17L179.113 519.16L178.927 518.808C178.035 503.7 181.595 494.034 186.499 480.155C186.417 478.738 187.168 477.345 187.661 476.024C186.816 475.786 186.271 475.519 185.553 475.015L185.715 473.899C185.785 474.04 185.862 474.177 185.925 474.32C186.067 474.643 186.196 474.971 186.332 475.296L186.815 474.694C191.22 469.671 195.365 465.225 201.016 461.589C206.53 457.044 216.341 455.616 223.266 455.713C223.897 438.798 226.255 420.721 230.048 404.222C231.641 397.293 235.346 389.783 235.882 382.739C237.256 379.574 239.27 375.714 241.725 373.286C241.989 372.819 242.061 372.346 242.185 371.828C236.326 364.475 230.653 350.275 226.55 341.474C212.371 311.062 197.28 281.291 192.029 247.728C190.611 238.663 190.803 228.724 190.77 219.532Q190.747 211.77 190.97 204.011Q191.193 196.252 191.663 188.504Q192.132 180.757 192.848 173.027Q193.563 165.298 194.524 157.596Q195.484 149.894 196.689 142.226Q197.893 134.558 199.341 126.932Q200.788 119.306 202.477 111.73Q204.166 104.154 206.095 96.6349C208.834 85.8041 210.901 74.0341 217.631 64.8749Z"/>
	<path fill="#181718" d="M219.443 122.079L221.356 123.859C219.045 134.48 214.545 151.967 214.24 162.252L213.697 163.113C213.001 164.037 213.01 164.43 211.844 164.705L211.201 163.648C213.45 149.679 216.968 135.994 219.443 122.079Z"/>
	<path fill="#181718" d="M415.782 291.352C427.361 283.633 451.478 274.688 465.288 270.225L464.688 272.45C448.307 277.112 433.73 284.386 418.813 292.405C418.796 292.368 418.781 292.329 418.761 292.293C417.938 290.854 417.36 291.886 415.782 291.352Z"/>
	<path fill="#AED4BB" d="M235.882 382.739C237.256 379.574 239.27 375.714 241.725 373.286L241.618 373.769C240.292 379.58 238.255 385.254 236.837 391.067C232.928 407.079 230.071 422.655 228.105 439.011C227.426 444.659 226.278 450.68 226.71 456.355L223.266 455.713C223.897 438.798 226.255 420.721 230.048 404.222C231.641 397.293 235.346 389.783 235.882 382.739Z"/>
	<path fill="#242324" d="M415.782 291.352C417.36 291.886 417.938 290.854 418.761 292.293C418.781 292.329 418.796 292.368 418.813 292.405L418.419 292.703C413.92 296.03 408.859 298.566 404.069 301.436C399.165 304.375 394.428 307.773 389.864 311.214C371.74 324.874 353.617 339.763 338.427 356.705C331.584 364.338 325.526 373.097 319.717 381.535C304.813 403.183 291.644 425.564 280.944 449.609C277.801 456.67 275.964 464.255 272.997 471.32C267.642 488.647 266.379 497.052 268.875 514.943C269.037 517.152 269.214 519.315 269.586 521.501C269.429 528.754 269.194 535.912 268.034 543.092C273.223 552.337 276.816 563.122 280.998 572.903C282.705 576.895 285.536 581.739 286.559 585.891C286.592 586.232 286.614 586.574 286.659 586.914C287.03 589.703 289.366 592.225 290.47 594.798C288.737 592.555 286.35 588.106 284.081 586.781C277.017 574.544 271.808 560.527 266.82 547.326C262.619 559.176 256.413 571.279 244.48 577.08C243.164 577.585 241.963 578.195 240.541 578.232C241.297 576.105 247.182 575.279 248.567 573.102L248.096 573.06L248.715 572.816C246.37 574.139 241.245 577.638 238.593 577.267C238.346 577.232 238.104 577.167 237.86 577.118C240.092 575.907 242.397 574.917 244.723 573.907C250.082 570.878 255.519 565.034 258.823 559.872C269.055 543.887 268.156 520.59 264.166 502.848C260.36 485.923 253.699 472.884 238.768 463.511L241.408 461.974C253.686 470.223 259.533 480.169 264.865 493.734C266.731 485.307 268.463 476.872 271.273 468.697C272.593 462.751 274.916 456.856 277.245 451.231C291.9 415.828 320.803 368.996 347.657 341.804C351.807 337.602 356.684 334.075 361.194 330.267C372.093 321.063 382.604 312.031 394.638 304.292C401.668 299.772 407.993 294.583 415.782 291.352Z"/>
	<path fill="#FEFEEB" d="M463.236 225.484C462.306 226.727 461.47 227.751 460.248 228.737C458.662 229.003 457.828 229.136 456.421 228.118C452.108 224.998 448.092 214.958 447.327 209.667C447.154 208.469 446.972 207.371 447.744 206.392C449.692 206.624 449.789 207.608 451.384 208.333C451.636 208.448 451.918 208.479 452.185 208.552L452.79 209.356C455.393 212.844 457.704 219.07 462.6 219.617C466.773 220.083 479.922 215.152 485.146 213.972Q492.251 212.397 499.467 211.458C528.124 207.66 557.012 206.993 585.875 207.146C601.142 207.227 616.467 207.108 631.617 209.302C646.921 211.518 662.711 215.177 677.487 219.713C681.946 221.082 693.621 227.567 697.648 226.053C705.904 229.956 712.763 233.733 719.115 240.399L719.013 240.995C714.538 239.248 709.837 239.93 705.157 238.299C691.272 233.46 681.016 228.075 666.261 224.136C653.607 220.758 640.62 217.774 627.629 216.015C588.367 210.699 527.776 212.246 488.871 219.225C480.182 220.783 471.732 223.111 463.236 225.484Z"/>
	<path fill="#242324" d="M226.191 94.0229C232.792 96.0516 239.615 101.914 245.471 105.706C256.221 113.333 266.951 120.95 277.221 129.222Q294.504 143.342 310.897 158.486Q327.29 173.63 342.732 189.742C350.119 197.492 357.915 205.311 363.96 214.172C366.85 218.409 369.09 223.129 370.782 227.964C333.506 258.045 303.508 293.526 274.881 331.681C270.946 336.925 266.917 342.14 263.164 347.514C261.101 350.468 259.408 353.87 256.898 356.462C255.762 357.634 254.769 358.396 253.085 358.527C246.136 349.983 240.4 339.272 235.152 329.559C207.48 278.34 203.678 230.537 209.685 173.478C209.997 170.515 210.174 166.414 211.201 163.648L211.844 164.705C213.01 164.43 213.001 164.037 213.697 163.113C213.732 163.416 213.774 163.718 213.802 164.022C214.138 167.604 212.472 174.715 212.031 178.737Q210.565 192.056 210.146 205.448C209.04 247.508 215.395 281.81 233.933 319.663C239.969 331.987 246.998 344.432 255.009 355.601C257.349 349.664 261.655 344.121 265.239 338.826C278.769 318.832 293.709 300.166 308.95 281.464C312.774 276.771 318.279 272.366 321.368 267.229C329.268 260.174 336.304 251.976 344.125 244.768C351.849 237.65 360.334 231.496 368.108 224.504C363.053 220.231 359.07 213.756 354.731 208.69C345.317 197.701 330.705 181.114 319.709 172.157Q297.11 149.733 272.56 129.464C263.94 122.432 254.745 116.105 246.17 109.011C240.14 105.345 234.482 101.044 228.63 97.0977C227.196 106.044 223.841 115.116 221.356 123.859L219.443 122.079C219.121 113.965 224.56 102.557 226.191 94.0229Z"/>
	<path fill="#8E859A" d="M319.709 172.157C330.705 181.114 345.317 197.701 354.731 208.69C359.07 213.756 363.053 220.231 368.108 224.504C360.334 231.496 351.849 237.65 344.125 244.768C336.304 251.976 329.268 260.174 321.368 267.229L320.986 266.433C321.467 264.748 323.449 264.274 324.457 262.896C324.9 262.289 324.624 262.028 324.462 261.359C323.623 260.933 323.059 260.595 322.419 259.902C321.404 256.717 320.23 253.357 319.958 250.004C319.057 238.912 320.119 216.701 321.666 205.279C322.267 200.842 323.663 196.545 324.349 192.132C324.747 189.568 323.418 188.958 323.477 187.321C323.527 185.909 325.65 181.883 326.173 180.381C325.563 178.134 321.189 174.998 319.51 173.06L319.709 172.157Z"/>
	<path fill="#E2E6ED" d="M452.185 208.552L452.43 207.584C453.67 207.602 453.653 207.695 454.656 208.294C456.23 209.233 456.784 209.332 458.59 208.844C468.612 206.136 478.802 205.079 488.99 203.25C527.723 196.298 565.688 194.379 604.92 198.105C617.153 199.267 629.204 200.518 641.171 203.45Q648.569 205.316 655.825 207.672Q663.082 210.028 670.165 212.863Q677.248 215.698 684.127 218.999Q691.005 222.3 697.648 226.053C693.621 227.567 681.946 221.082 677.487 219.713C662.711 215.177 646.921 211.518 631.617 209.302C616.467 207.108 601.142 207.227 585.875 207.146C557.012 206.993 528.124 207.66 499.467 211.458Q492.251 212.397 485.146 213.972C479.922 215.152 466.773 220.083 462.6 219.617C457.704 219.07 455.393 212.844 452.79 209.356L452.185 208.552Z"/>
	<path fill="#181718" d="M201.016 461.589C206.53 457.044 216.341 455.616 223.266 455.713L226.71 456.355C232.33 457.116 236.753 458.663 241.408 461.974L238.768 463.511C253.699 472.884 260.36 485.923 264.166 502.848C268.156 520.59 269.055 543.887 258.823 559.872C255.519 565.034 250.082 570.878 244.723 573.907C242.397 574.917 240.092 575.907 237.86 577.118L236.832 577.037C236.237 577.438 235.747 577.64 235.049 577.826C224.173 580.73 214.147 578.277 204.625 572.809C194.788 566.351 189.257 556.845 183.858 546.676C182.307 542.175 181.063 537.697 179.966 533.066L181.563 532.111C181.24 528.118 180.985 524.177 180.995 520.17L179.113 519.16L178.927 518.808C178.035 503.7 181.595 494.034 186.499 480.155C186.417 478.738 187.168 477.345 187.661 476.024C186.816 475.786 186.271 475.519 185.553 475.015L185.715 473.899C185.785 474.04 185.862 474.177 185.925 474.32C186.067 474.643 186.196 474.971 186.332 475.296L186.815 474.694C191.22 469.671 195.365 465.225 201.016 461.589Z"/>
	<path fill="#DCFBE5" d="M235.436 496.224C242.851 509.198 247.552 528.501 243.543 543.271C242.539 546.969 240.966 550.396 239.054 553.712C237.416 551.851 237.231 548.877 236.891 546.486C235.887 539.433 231.319 501.742 235.436 496.224Z"/>
	<path fill="#8E859A" d="M179.966 533.066L181.563 532.111C184.074 544.822 189.673 556.804 200.722 564.284C206.553 568.232 213.576 569.876 220.531 568.546C225.943 567.512 231.005 564.882 235.179 561.325C235.129 564.453 234.146 574.362 236.454 576.748C236.564 576.863 236.706 576.941 236.832 577.037C236.237 577.438 235.747 577.64 235.049 577.826C224.173 580.73 214.147 578.277 204.625 572.809C194.788 566.351 189.257 556.845 183.858 546.676C182.307 542.175 181.063 537.697 179.966 533.066Z"/>
	<path fill="#8E859A" d="M201.016 461.589C206.53 457.044 216.341 455.616 223.266 455.713L226.71 456.355C232.33 457.116 236.753 458.663 241.408 461.974L238.768 463.511C235.551 461.687 232.312 460.378 228.759 459.39L226.972 458.752L225.015 459.408C224.551 462.682 230.157 481.398 231.174 486.36C225.119 480.864 218.676 476.847 210.108 477.43C202.622 477.94 195.997 482.052 191.287 487.731C183.657 496.931 181.265 508.498 180.995 520.17L179.113 519.16L178.927 518.808C178.035 503.7 181.595 494.034 186.499 480.155C186.417 478.738 187.168 477.345 187.661 476.024C186.816 475.786 186.271 475.519 185.553 475.015L185.715 473.899C185.785 474.04 185.862 474.177 185.925 474.32C186.067 474.643 186.196 474.971 186.332 475.296L186.815 474.694C191.22 469.671 195.365 465.225 201.016 461.589Z"/>
	<path fill="#181718" d="M201.016 461.589L199.094 464.331C199.377 464.247 199.658 464.159 199.942 464.081C201.024 463.782 200.583 463.807 201.495 463.915C200.076 465.639 198.131 466.892 196.442 468.343C192.399 471.818 189.252 475.605 186.499 480.155C186.417 478.738 187.168 477.345 187.661 476.024C186.816 475.786 186.271 475.519 185.553 475.015L185.715 473.899C185.785 474.04 185.862 474.177 185.925 474.32C186.067 474.643 186.196 474.971 186.332 475.296L186.815 474.694C191.22 469.671 195.365 465.225 201.016 461.589Z"/>
	<defs>
		<linearGradient id="gradient_2" gradientUnits="userSpaceOnUse" x1="202.54803" y1="455.45529" x2="236.57155" y2="470.23697">
			<stop offset="0" stop-color="black"/>
			<stop offset="1" stop-color="#31312E"/>
		</linearGradient>
	</defs>
	<path fill="url(#gradient_2)" d="M201.016 461.589C206.53 457.044 216.341 455.616 223.266 455.713L226.71 456.355C232.33 457.116 236.753 458.663 241.408 461.974L238.768 463.511C235.551 461.687 232.312 460.378 228.759 459.39L226.972 458.752C217.097 458.314 210.42 459.604 201.495 463.915C200.583 463.807 201.024 463.782 199.942 464.081C199.658 464.159 199.377 464.247 199.094 464.331L201.016 461.589Z"/>
	<path fill="#E2E6ED" d="M231.174 486.36C230.157 481.398 224.551 462.682 225.015 459.408L226.972 458.752L228.759 459.39C232.312 460.378 235.551 461.687 238.768 463.511C253.699 472.884 260.36 485.923 264.166 502.848C268.156 520.59 269.055 543.887 258.823 559.872C255.519 565.034 250.082 570.878 244.723 573.907C242.397 574.917 240.092 575.907 237.86 577.118L236.832 577.037C236.706 576.941 236.564 576.863 236.454 576.748C234.146 574.362 235.129 564.453 235.179 561.325C236.243 559.844 237.599 558.514 238.825 557.162Q240.16 555.376 241.293 553.455Q242.425 551.534 243.341 549.501Q244.257 547.468 244.945 545.347Q245.633 543.226 246.086 541.043C249.485 524.079 243.086 503.628 233.639 489.596L231.174 486.36Z"/>
	<path fill="#AED4BB" d="M235.179 561.325C236.243 559.844 237.599 558.514 238.825 557.162C239.188 562.252 239.132 567.836 240.281 572.797L244.723 573.907C242.397 574.917 240.092 575.907 237.86 577.118L236.832 577.037C236.706 576.941 236.564 576.863 236.454 576.748C234.146 574.362 235.129 564.453 235.179 561.325Z"/>
	<path fill="#AED4BB" d="M231.174 486.36C230.157 481.398 224.551 462.682 225.015 459.408L226.972 458.752L228.759 459.39C227.779 462.675 234.249 480.969 233.639 489.596L231.174 486.36Z"/>
	<path fill="#878C91" d="M235.963 557.573C234.895 558.876 233.637 560.048 232.339 561.123C227.044 565.507 219.333 567.601 212.542 566.797C204.471 565.842 197.749 560.964 192.913 554.646C183.635 542.523 181.348 526.68 183.412 511.858C184.829 501.684 189.01 490.644 197.593 484.393C202.588 480.755 209.148 479.004 215.277 480.006C222.029 481.111 228.393 485.463 232.279 491.065C233.356 492.749 234.569 494.425 235.436 496.224C231.319 501.742 235.887 539.433 236.891 546.486C237.231 548.877 237.416 551.851 239.054 553.712C238.05 555.014 237.081 556.365 235.963 557.573Z"/>
	<path fill="#AED4BB" d="M232.279 491.065C233.356 492.749 234.569 494.425 235.436 496.224C231.319 501.742 235.887 539.433 236.891 546.486C237.231 548.877 237.416 551.851 239.054 553.712C238.05 555.014 237.081 556.365 235.963 557.573C230.922 540.173 229.701 517.831 231.057 499.785C231.264 497.039 231.165 493.584 232.279 491.065Z"/>
	<defs>
		<linearGradient id="gradient_3" gradientUnits="userSpaceOnUse" x1="327.11383" y1="223.60541" x2="210.93951" y2="226.83046">
			<stop offset="0" stop-color="#9C97AA"/>
			<stop offset="1" stop-color="#D9DBE4"/>
		</linearGradient>
	</defs>
	<path fill="url(#gradient_3)" d="M221.356 123.859C223.841 115.116 227.196 106.044 228.63 97.0977C234.482 101.044 240.14 105.345 246.17 109.011C254.745 116.105 263.94 122.432 272.56 129.464Q297.11 149.733 319.709 172.157L319.51 173.06C321.189 174.998 325.563 178.134 326.173 180.381C325.65 181.883 323.527 185.909 323.477 187.321C323.418 188.958 324.747 189.568 324.349 192.132C323.663 196.545 322.267 200.842 321.666 205.279C320.119 216.701 319.057 238.912 319.958 250.004C320.23 253.357 321.404 256.717 322.419 259.902C323.059 260.595 323.623 260.933 324.462 261.359C324.624 262.028 324.9 262.289 324.457 262.896C323.449 264.274 321.467 264.748 320.986 266.433L321.368 267.229C318.279 272.366 312.774 276.771 308.95 281.464C293.709 300.166 278.769 318.832 265.239 338.826C261.655 344.121 257.349 349.664 255.009 355.601C246.998 344.432 239.969 331.987 233.933 319.663C215.395 281.81 209.04 247.508 210.146 205.448Q210.565 192.056 212.031 178.737C212.472 174.715 214.138 167.604 213.802 164.022C213.774 163.718 213.732 163.416 213.697 163.113L214.24 162.252C214.545 151.967 219.045 134.48 221.356 123.859Z"/>
	<path fill="#5A7098" d="M214.195 618.073C216.069 620.819 217.856 623.639 220.177 626.035C234.209 646.476 252.992 665.15 273.15 679.646C280.293 684.484 310.536 700.123 318.1 701.7L319.508 702.164C322.015 701.629 325.982 700.294 328.338 701.65C329.055 702.063 329.048 702.685 329.293 703.416C329.026 704.685 328.748 705.566 328.081 706.681C337.914 706.529 347.716 707.713 357.536 707.504C363.179 707.384 368.619 705.781 374.303 706.337C396.679 708.525 419.123 715.73 440.796 721.425C459.957 726.461 478.971 730.553 497.764 737.002L499.834 737.643C503.418 736.78 507.429 736.595 511.103 736.144C513.495 736.927 516.473 737.59 518.718 738.668C518.927 738.918 519.132 739.171 519.345 739.418C521.713 742.172 525.026 742.829 525.051 747.024C525.052 747.167 525.019 747.309 525.003 747.451C529.777 746.805 535.173 744.46 539.82 743Q553.585 738.673 567.454 734.691C586.229 729.395 605.478 725.735 624.309 720.59C639.533 716.431 654.451 711.235 669.652 707.033C680.988 703.9 692.567 701.659 704.056 699.171C718.078 696.134 729.651 693.476 744.099 693.433L748.076 693.655Q753.13 695.194 758.109 696.964L758.564 697.192Q773.81 704.192 788.923 711.475C795.395 714.533 801.875 717.324 808.15 720.796L811.68 723.764C816.102 725.479 820.339 728.585 824.307 731.192C838.87 740.762 851.412 751.366 858.612 767.723C862.128 775.711 863.794 784.494 865.339 793.045C870.038 819.068 870.232 838.736 869.371 864.987C869.158 871.461 869.632 878.617 868.565 884.977C867.781 889.649 865.843 894.093 864.599 898.656C861.1 911.48 858.198 921.827 853.253 934.269C850.724 940.63 843.298 953.991 843.343 960.294L847.703 954.009C848.255 960.005 846.388 967.412 845.563 973.43C841.988 999.509 838.734 1026.54 828.571 1051.03C824.332 1061.24 817.727 1070.07 813.208 1080L739.932 1080L731.246 1080L524.904 1080L372.686 1080C370.346 1059.27 366.622 1037.74 357.176 1018.94C343.238 991.198 319.159 971.15 296.018 951.372C277.496 935.542 258.352 920.039 241.501 902.404C229.537 889.884 220.14 875.089 210.903 860.496C201.822 846.15 192.604 832.31 187.677 815.883C183.971 803.527 184.551 790.157 184.378 777.379C183.881 740.611 186.325 703.329 195.763 667.624C197.344 661.641 199.515 655.749 201.432 649.864C204.982 638.964 208.703 628.18 214.195 618.073Z"/>
	<path fill="#373E60" d="M317.899 805.164C323.958 805.008 330.03 804.885 336.08 805.317L329.853 806.488C325.27 807.343 321.909 807.911 317.899 805.164Z"/>
	<path fill="#242324" d="M288.49 797.087C290.3 797.084 291.748 797.325 293.515 797.689C294.5 797.892 294.126 797.831 295.293 797.748C302.521 801.043 309.029 801.098 316.661 802.371C315.37 802.63 314.057 802.494 313.374 803.759C313.298 803.899 313.314 804.072 313.283 804.229L312.421 804.598C303.819 803.537 295.554 802.415 288.49 797.087Z"/>
	<path fill="#181718" d="M241.149 750.583C241.534 750.657 241.947 750.645 242.305 750.807C244.739 751.906 270.109 776.411 274.106 780.07C280.852 786.247 287.879 792.383 295.293 797.748C294.126 797.831 294.5 797.892 293.515 797.689C291.748 797.325 290.3 797.084 288.49 797.087C274.08 789.428 251.761 763.341 241.149 750.583Z"/>
	<path fill="#242324" d="M489.384 753.311C496.591 753.76 503.202 750.226 510.71 751.465C493.157 757.421 475.257 763.2 458.122 770.261C446.207 775.17 434.833 781.504 422.781 786.058C426.326 781.283 455.03 768.21 461.767 765.263C466.499 763.193 477.344 759.572 480.749 756.069C483.435 754.735 486.498 754.065 489.384 753.311Z"/>
	<path fill="#373E60" d="M295.839 706.214C293.566 706.205 291.319 706.123 289.222 705.145C286.608 703.927 284.38 701.826 281.971 700.252C271.365 693.326 261.148 685.818 250.859 678.43C246.065 674.987 240.406 671.749 236.03 667.869L235.987 667.052C242.807 664.272 263.378 678.852 272.325 679.597C272.6 679.62 272.875 679.63 273.15 679.646C280.293 684.484 310.536 700.123 318.1 701.7L319.508 702.164C322.015 701.629 325.982 700.294 328.338 701.65C329.055 702.063 329.048 702.685 329.293 703.416C329.026 704.685 328.748 705.566 328.081 706.681C319.811 707.397 303.283 708.736 295.839 706.214Z"/>
	<path fill="#181718" d="M283.333 699.269C288.806 700.667 294.332 702.73 299.9 703.641C303.85 704.287 319.482 704.854 322.93 703.603L322.701 703.109L319.508 702.164C322.015 701.629 325.982 700.294 328.338 701.65C329.055 702.063 329.048 702.685 329.293 703.416C329.026 704.685 328.748 705.566 328.081 706.681C319.811 707.397 303.283 708.736 295.839 706.214C291.823 703.592 287.262 702.11 283.333 699.269Z"/>
	<path fill="#373E60" d="M206.243 689.443C216.45 700.419 226.007 711.888 236.536 722.614Q244.031 730.194 252.046 737.222Q260.061 744.251 268.555 750.692Q277.049 757.133 285.979 762.954Q294.909 768.776 304.23 773.948C308.535 776.288 312.499 780.107 317.047 781.797C323.479 784.188 332.296 784.178 339.083 783.753C370.966 781.754 392.262 769.485 420.885 757.665Q437.1 751.063 453.873 746.046C460.995 743.921 468.398 741.842 475.703 740.474C481.25 739.436 493.435 738.983 497.764 737.002L499.834 737.643C503.418 736.78 507.429 736.595 511.103 736.144C513.495 736.927 516.473 737.59 518.718 738.668C518.927 738.918 519.132 739.171 519.345 739.418C521.713 742.172 525.026 742.829 525.051 747.024C525.052 747.167 525.019 747.309 525.003 747.451Q517.828 749.355 510.71 751.465C503.202 750.226 496.591 753.76 489.384 753.311C486.498 754.065 483.435 754.735 480.749 756.069C477.344 759.572 466.499 763.193 461.767 765.263C455.03 768.21 426.326 781.283 422.781 786.058C416.811 788.56 410.669 790.571 404.544 792.654C401.855 793.569 398.578 794.329 396.089 795.634C386.321 799.711 375.396 803.613 364.681 803.138C355.155 803.952 345.593 804.375 336.08 805.317C330.03 804.885 323.958 805.008 317.899 805.164L313.283 804.229C313.314 804.072 313.298 803.899 313.374 803.759C314.057 802.494 315.37 802.63 316.661 802.371C309.029 801.098 302.521 801.043 295.293 797.748C287.879 792.383 280.852 786.247 274.106 780.07C270.109 776.411 244.739 751.906 242.305 750.807C241.947 750.645 241.534 750.657 241.149 750.583C238.629 748.607 235.826 743.643 233.872 740.984C222.089 724.945 210.248 709.377 206.243 689.443Z"/>
	<path fill="#181718" d="M382.466 796.101C377.282 799.975 370.761 801.253 364.681 803.138C355.155 803.952 345.593 804.375 336.08 805.317C330.03 804.885 323.958 805.008 317.899 805.164L313.283 804.229C313.314 804.072 313.298 803.899 313.374 803.759C314.057 802.494 315.37 802.63 316.661 802.371C336.747 804.132 363.506 802.904 382.466 796.101Z"/>
	<path fill="#181718" d="M511.103 736.144C513.495 736.927 516.473 737.59 518.718 738.668C518.927 738.918 519.132 739.171 519.345 739.418C521.713 742.172 525.026 742.829 525.051 747.024C525.052 747.167 525.019 747.309 525.003 747.451Q517.828 749.355 510.71 751.465C503.202 750.226 496.591 753.76 489.384 753.311C499.345 750.269 509.275 747.038 519.377 744.494C514.072 741.275 505.869 740.201 499.834 737.643C503.418 736.78 507.429 736.595 511.103 736.144Z"/>
	<path fill="#181718" d="M480.749 756.069C477.344 759.572 466.499 763.193 461.767 765.263C455.03 768.21 426.326 781.283 422.781 786.058C416.811 788.56 410.669 790.571 404.544 792.654C401.855 793.569 398.578 794.329 396.089 795.634C390.86 795.227 385.674 797.589 380.366 797.999C384.373 795.952 388.982 794.659 393.236 793.161C400.734 790.521 408.272 787.882 415.562 784.698C423.575 781.198 431.219 776.599 439.037 772.659C452.601 765.823 466.174 760.334 480.749 756.069Z"/>
	<path fill="#373E60" d="M649.302 808.889L650.08 809.451C650.337 810.306 650.536 811.021 650.457 811.924C650.232 814.481 648.959 816.858 647.739 819.065C645.453 823.201 642.582 826.916 640.179 830.962L620.492 863.464C607.998 884.319 596.191 905.82 582.551 925.958C578.536 931.887 573.546 939.465 567.89 943.909C562.758 947.941 555.401 949.848 549.01 949.755C538.419 949.6 527.523 946.777 517.161 944.672Q499.64 941.003 482.014 937.88Q438.382 930.342 394.329 925.875C385.289 924.58 376.374 924.275 367.499 921.872C399.554 907.058 431.696 901.178 465.425 892.449C474.224 890.172 482.592 886.772 491.254 884.091C504.934 879.859 518.76 876.099 532.237 871.236C544.648 866.758 556.656 861.27 568.812 856.154C584.863 849.4 600.901 842.37 615.836 833.344C627.559 826.26 638.422 817.194 649.302 808.889Z"/>
	<path fill="#373E60" d="M811.68 723.764C816.102 725.479 820.339 728.585 824.307 731.192C838.87 740.762 851.412 751.366 858.612 767.723C862.128 775.711 863.794 784.494 865.339 793.045C870.038 819.068 870.232 838.736 869.371 864.987C869.158 871.461 869.632 878.617 868.565 884.977C867.781 889.649 865.843 894.093 864.599 898.656C861.1 911.48 858.198 921.827 853.253 934.269C850.724 940.63 843.298 953.991 843.343 960.294L847.703 954.009C848.255 960.005 846.388 967.412 845.563 973.43C841.988 999.509 838.734 1026.54 828.571 1051.03C824.332 1061.24 817.727 1070.07 813.208 1080L739.932 1080L731.246 1080L524.904 1080C530.025 1077.42 535.629 1075.46 540.938 1073.26Q556.742 1066.8 572.385 1059.97C619.71 1039.07 666.562 1014.58 706.324 981.158C758.782 937.066 803.491 883.32 827.238 818.353C831.486 806.732 836.73 792.891 837.699 780.543C838.139 774.935 837.163 769.225 836.016 763.755C835.117 759.465 834.187 754.785 832.438 750.745C828.227 741.022 818.496 731.857 811.68 723.764Z"/>
	<path fill="#181718" d="M731.246 1080C740.204 1073.2 749.042 1066.63 757.159 1058.8C762.546 1053.61 767.216 1047.76 772.248 1042.23C785.988 1027.16 799.141 1011.46 813.355 996.812C816.254 993.824 824.05 983.786 827.097 982.636C822.087 990.796 817.152 999.046 810.807 1006.26C804.391 1013.56 796.925 1019.91 790.49 1027.19C781.759 1037.07 774.453 1048.23 765.541 1057.99C758.165 1066.07 748.624 1073.36 739.932 1080L731.246 1080Z"/>
	<path fill="#5A7098" d="M847.703 954.009C848.255 960.005 846.388 967.412 845.563 973.43C841.988 999.509 838.734 1026.54 828.571 1051.03C824.332 1061.24 817.727 1070.07 813.208 1080L739.932 1080C748.624 1073.36 758.165 1066.07 765.541 1057.99C774.453 1048.23 781.759 1037.07 790.49 1027.19C796.925 1019.91 804.391 1013.56 810.807 1006.26C817.152 999.046 822.087 990.796 827.097 982.636C831.326 977.259 836.082 967.23 841.031 963.093C842.173 962.138 842.593 961.61 843.343 960.294L847.703 954.009Z"/>
	<path fill="#E2E6ED" d="M568.152 248.26L569.103 248.232C575.356 248.015 581.771 246.912 588.014 246.299Q599.168 245.304 610.366 245.438C645.245 245.716 684.36 250.743 717.027 263.436C732.341 269.386 746.956 277.299 760.84 286.044C769.732 291.644 779.721 297.826 787.378 305.013Q789.522 307.062 791.377 309.375C794.55 312.313 797.579 317.043 799.366 320.989C810.322 335.696 817.718 353.146 825.13 369.849C830.236 381.355 835.581 392.848 840.238 404.539Q853.711 439.209 865.249 474.57C868.487 484.195 872.303 493.71 875.276 503.407C877.18 509.618 878.611 516.252 879.495 522.687C880.081 526.952 879.686 533.049 881.183 536.924L879.646 537.47L880.374 538.317L881.542 538.176C881.215 538.871 880.978 538.998 881.171 539.77C870.797 568.833 848.017 587.796 825.551 607.525C822.037 610.61 819.314 614.469 815.683 617.472C809.866 622.284 803.551 626.477 797.709 631.288L798.596 633.553C817.724 622.312 855.943 585.96 869.311 568.374Q871.232 565.863 872.976 563.226Q874.72 560.589 876.279 557.838Q877.838 555.087 879.205 552.236Q880.571 549.385 881.739 546.447C880.997 555.214 880.829 563.837 878.553 572.41C873.778 590.393 855.801 618.883 842.192 631.371C838.955 636.59 832.991 639.921 829.232 644.847C829.065 645.065 828.893 645.277 828.724 645.493C823.08 650.85 807.045 662.732 800.163 666.34C792.564 670.324 783.594 672.806 775.489 675.687C764.365 679.641 753.393 683.84 742.15 687.469C742.639 689.417 742.969 691.754 744.099 693.433C729.651 693.476 718.078 696.134 704.056 699.171C692.567 701.659 680.988 703.9 669.652 707.033C654.451 711.235 639.533 716.431 624.309 720.59C605.478 725.735 586.229 729.395 567.454 734.691Q553.585 738.673 539.82 743C535.173 744.46 529.777 746.805 525.003 747.451C525.019 747.309 525.052 747.167 525.051 747.024C525.026 742.829 521.713 742.172 519.345 739.418C519.132 739.171 518.927 738.918 518.718 738.668C516.473 737.59 513.495 736.927 511.103 736.144C507.429 736.595 503.418 736.78 499.834 737.643L497.764 737.002C478.971 730.553 459.957 726.461 440.796 721.425C419.123 715.73 396.679 708.525 374.303 706.337C368.619 705.781 363.179 707.384 357.536 707.504C347.716 707.713 337.914 706.529 328.081 706.681C328.748 705.566 329.026 704.685 329.293 703.416C329.048 702.685 329.055 702.063 328.338 701.65C325.982 700.294 322.015 701.629 319.508 702.164L318.1 701.7C315.734 698.971 312.915 696.544 310.421 693.907L301.43 689.13C294.804 682.011 287.091 676.033 280.617 668.705C275.12 662.482 270.485 655.414 266.126 648.359C251.835 625.226 245.52 605.629 238.693 579.578L240.541 578.232C241.963 578.195 243.164 577.585 244.48 577.08C256.413 571.279 262.619 559.176 266.82 547.326C271.808 560.527 277.017 574.544 284.081 586.781C286.35 588.106 288.737 592.555 290.47 594.798C289.366 592.225 287.03 589.703 286.659 586.914C286.614 586.574 286.592 586.232 286.559 585.891C285.536 581.739 282.705 576.895 280.998 572.903C276.816 563.122 273.223 552.337 268.034 543.092C269.194 535.912 269.429 528.754 269.586 521.501C269.214 519.315 269.037 517.152 268.875 514.943C266.379 497.052 267.642 488.647 272.997 471.32C275.964 464.255 277.801 456.67 280.944 449.609C291.644 425.564 304.813 403.183 319.717 381.535C325.526 373.097 331.584 364.338 338.427 356.705C353.617 339.763 371.74 324.874 389.864 311.214C394.428 307.773 399.165 304.375 404.069 301.436C408.859 298.566 413.92 296.03 418.419 292.703L418.813 292.405C433.73 284.386 448.307 277.112 464.688 272.45L465.288 270.225C475.782 264.962 487.634 261.438 498.821 257.946C517.02 253.025 535.033 249.951 553.706 247.663C554.734 247.77 555.606 247.794 556.571 248.163L553.439 248.627C558.048 249.97 563.571 246.357 568.152 248.26Z"/>
	<path fill="#181718" d="M787.881 637.741C790.627 635.201 794.38 632.985 797.709 631.288L798.596 633.553C795.561 635.547 792.543 637.571 789.423 639.434C788.943 638.647 788.575 638.322 787.881 637.741Z"/>
	<path fill="#181718" d="M674.143 681.153C675.862 680.426 677.877 680.261 679.715 679.942C680.815 681.182 681.122 681.428 682.836 681.612C679.947 682.374 677.094 683.273 674.094 683.397C663.385 686.01 652.773 688.115 641.908 689.965C637.355 690.74 632.364 691.913 627.751 691.909C624.594 691.653 621.435 691.579 618.27 691.489L618.056 690.833C619.513 690.125 624.113 690.105 625.908 689.798C642.067 687.036 658.074 684.458 674.143 681.153Z"/>
	<path fill="#242324" d="M871.31 524.389C872.363 524.331 873.561 524.21 874.582 524.563C876.13 525.098 877.97 526.896 878.514 528.504C878.901 529.65 878.906 530.609 878.185 531.628C875.247 535.782 864.465 535.763 859.699 536.179C858.253 536.294 856.494 536.634 855.151 535.94C853.621 535.149 851.996 533.126 851.704 531.408C851.502 530.216 851.934 529.177 852.724 528.297C855.6 525.092 866.875 524.889 871.31 524.389Z"/>
	<path fill="#3D3D3D" d="M863.695 527.649C866.709 527.305 869.708 526.605 872.51 528.111L872.414 528.867C870.268 530.048 867.877 530.096 865.482 530.357C863.648 530.611 861.653 531.003 859.805 530.991C858.519 530.983 857.246 530.719 856.306 529.791L856.76 528.985C859.031 527.819 861.202 527.808 863.695 527.649Z"/>
	<path fill="#181718" d="M787.881 637.741C788.575 638.322 788.943 638.647 789.423 639.434C769.56 654.522 730.43 668.429 706.083 675.463C698.398 677.683 690.463 679.248 682.836 681.612C681.122 681.428 680.815 681.182 679.715 679.942C687.702 677.465 696.182 675.903 704.268 673.574C733.955 665.022 761.64 654.269 787.881 637.741Z"/>
	<path fill="#242324" d="M868.237 497.35C869.206 497.482 870.22 497.599 871.16 497.874C872.527 498.273 873.271 499.031 873.935 500.263C874.17 502.152 874.064 503.523 873.003 505.165C869.937 509.906 858.326 513.457 852.848 514.661C852.507 514.647 852.163 514.669 851.826 514.62C850.424 514.415 849.298 513.756 848.429 512.639C847.458 511.392 846.872 509.277 847.387 507.768C848.925 503.255 863.906 498.878 868.237 497.35Z"/>
	<path fill="#3D3D3D" d="M864.655 500.351C865.684 500.274 866.159 500.316 867.084 500.782L866.951 501.727C863.371 504.965 858.177 506.948 853.845 508.965L851.819 508.773L851.108 507.873C851.158 507.727 851.188 507.572 851.26 507.436C852.655 504.792 861.89 501.595 864.655 500.351Z"/>
	<path fill="#242324" d="M338.339 593.981C340.022 593.707 341.515 593.582 343.111 594.323C344.65 595.036 345.83 596.351 346.3 597.993C346.816 599.794 346.386 601.428 345.318 602.917C342.147 607.339 325.361 608.113 319.693 608.895C318.953 608.962 318.214 609.045 317.469 609.002C315.535 608.893 313.371 608.236 312.207 606.575C311.481 605.539 311.277 604.211 311.41 602.975C311.715 600.146 313.631 598.774 315.753 597.158C323.224 595.843 330.819 594.997 338.339 593.981Z"/>
	<path fill="#3D3D3D" d="M331.337 598.75C332.988 598.631 334.043 598.644 335.601 599.235L335.88 600.065L335.336 601.015C331.7 603.297 326.645 603.326 322.476 603.742C320.76 603.875 319.504 603.849 317.835 603.408L317.511 602.718C320.056 599.756 327.623 599.185 331.337 598.75Z"/>
	<path fill="#242324" d="M317.264 564.286C325.196 565.362 334.348 564.93 341.971 567.229C344.063 567.86 346.485 569.023 347.396 571.159C347.997 572.567 347.627 574.111 346.962 575.42C345.615 578.075 343.438 578.727 340.756 579.607C332.984 579.143 323.084 579.026 315.674 576.861C313.603 576.256 311.079 575.122 310.167 573.014C309.622 571.755 310.054 570.443 310.589 569.264C312.06 566.023 314.065 565.411 317.264 564.286Z"/>
	<path fill="#3D3D3D" d="M324.913 567.119C327.227 566.797 330.362 567.063 332.68 567.398C334.598 567.675 337.772 568.551 338.895 570.171L338.42 571.037C336.349 571.724 334.651 571.738 332.481 571.696C328.666 571.441 320.204 571.569 317.344 569.003L317.838 568.285C320.196 567.291 322.399 567.253 324.913 567.119Z"/>
	<path fill="#242324" d="M675.854 342.478C678.436 342.259 681.044 342.606 683.62 342.823C684.724 343.569 685.88 344.321 686.897 345.185C689.619 347.502 689.514 350.912 689.647 354.172C688.963 355.373 688.185 356.646 687.239 357.663C682.621 362.624 661.434 362.459 654.033 362.981C653.877 363.015 653.723 363.065 653.564 363.084C650.335 363.472 646.896 363.09 644.29 361.014Q643.892 360.699 643.528 360.344Q643.165 359.99 642.839 359.6Q642.513 359.211 642.229 358.79Q641.945 358.369 641.705 357.922Q641.465 357.474 641.271 357.005Q641.078 356.535 640.934 356.048Q640.79 355.561 640.696 355.062Q640.602 354.563 640.559 354.057Q640.526 353.63 640.537 353.201Q640.548 352.773 640.603 352.347Q640.657 351.922 640.755 351.505Q640.852 351.087 640.991 350.682Q641.13 350.276 641.31 349.887Q641.49 349.498 641.708 349.129Q641.926 348.76 642.18 348.415Q642.435 348.07 642.723 347.753C647.599 342.361 668.174 342.936 675.854 342.478Z"/>
	<path fill="#3D3D3D" d="M662.661 346.16C667.916 345.838 679.946 344.785 683.895 348.725C684.721 349.55 684.824 350.775 684.811 351.883C684.792 353.625 684.361 354.813 683.11 356.046C681.614 354.687 681.392 352.949 680.222 351.418C679.123 349.98 677.305 349.99 675.659 349.645C666.632 349.316 658.226 351.064 650.008 350.839C648.521 350.798 646.897 350.686 645.836 349.605C648.419 346.586 658.591 346.515 662.661 346.16Z"/>
	<path fill="#242324" d="M542.052 351.433C542.271 351.406 542.489 351.37 542.708 351.352C545.851 351.094 549.108 351.844 551.525 353.946C553.551 355.707 555.079 358.382 555.255 361.089C555.399 363.303 554.423 365.567 552.888 367.139C551.066 369.005 548.606 370.107 546.108 370.734C541.106 371.987 522.106 372.694 516.084 372.861C512.519 372.943 509.261 373.02 506.236 370.851C503.961 369.219 502.385 366.83 502.089 364.014Q502.042 363.576 502.04 363.136Q502.038 362.695 502.081 362.257Q502.124 361.819 502.212 361.388Q502.3 360.956 502.432 360.536Q502.565 360.116 502.739 359.712Q502.914 359.307 503.129 358.923Q503.344 358.539 503.598 358.179Q503.852 357.819 504.141 357.487C505.562 355.848 507.656 354.731 509.715 354.12C515.076 352.531 521.202 352.989 526.755 352.693C531.857 352.422 536.964 351.895 542.052 351.433Z"/>
	<path fill="#3D3D3D" d="M522.709 356.784C529.008 356.471 536.777 355.37 542.967 356.239C545.049 356.532 547.177 357.264 548.406 359.063C548.975 359.894 548.755 359.936 548.563 360.817C547.295 361.336 546.299 361.108 545.034 360.705C542.314 359.838 539.833 360.042 537.008 360.128C531.307 360.182 518.033 361.452 513.248 360.265C511.845 359.917 510.28 359.591 509.499 358.348C512.773 356.644 519.061 356.991 522.709 356.784Z"/>
	<path fill="#242324" d="M623.187 521.784Q624.082 521.733 624.978 521.697C627.955 521.585 630.575 521.923 632.799 524.137C633.844 525.177 634.405 526.483 634.399 527.962C634.373 535.283 625.626 538.51 621.079 542.713C620.626 544.146 620.668 545.141 620.748 546.616C623.173 550.022 625.931 553.177 629.628 555.242C635.089 558.292 641.875 557.869 647.709 556.122C658.793 552.804 655.043 546.94 659.065 540.808C659.889 539.551 660.839 538.974 662.331 538.763C663.684 538.573 664.86 538.978 665.802 539.966C666.939 541.159 667.034 542.841 667.115 544.397C667.378 549.422 666.342 554.05 662.842 557.817C657.472 563.598 648.353 565.284 640.785 565.651C632.879 566.035 624.09 564.266 618.107 558.811C616.318 561.182 614.665 563.021 612.311 564.862C608.08 567.596 603.707 569.76 598.792 570.939C590.832 572.848 579.723 574.136 572.533 569.397Q571.899 568.98 571.313 568.499Q570.727 568.018 570.194 567.478Q569.662 566.939 569.189 566.346Q568.717 565.753 568.309 565.113Q567.901 564.474 567.563 563.795Q567.224 563.117 566.959 562.406Q566.694 561.696 566.505 560.961Q566.317 560.227 566.206 559.477C565.841 557.04 565.98 553.442 567.832 551.551C568.773 550.59 569.895 549.986 571.282 550.142C574.813 550.538 575.543 556.233 577.231 558.822C578.056 560.087 579.265 561.249 580.308 562.337C583.449 563.335 586.28 563.876 589.604 563.794C596.324 563.629 602.455 562.154 607.164 557.091C609.652 554.416 613.594 549.31 612.914 545.459C612.31 542.037 601.968 540.156 598.904 537.642C597.199 536.244 596.326 534.439 596.147 532.247C596.003 530.488 596.443 528.84 597.642 527.503C602.308 522.303 616.487 522.363 623.187 521.784Z"/>
	<path fill="#3D3D3D" d="M663.07 542.855L664.032 543.35C664.515 544.169 664.66 544.672 664.741 545.648C664.984 548.562 662.897 551.874 661.101 553.988C656.957 558.867 652.796 560.496 646.638 560.99C645.776 560.924 646.125 561.104 645.573 560.488C648.329 558.603 651.813 558.267 654.729 556.528C660.145 553.3 661.509 548.57 663.07 542.855Z"/>
	<path fill="#3D3D3D" d="M611.836 555.106L612.949 555.565C612.97 555.737 613.016 555.908 613.013 556.081C612.977 558.008 610.864 560.26 609.575 561.531C604.08 566.944 598.402 569.161 590.732 569.03L589.864 568.497L589.814 567.87C591.997 566.678 594.561 566.381 596.939 565.706C602.938 564.002 607.667 559.542 611.836 555.106Z"/>
	<path fill="#3D3D3D" d="M616.849 525.437C617.527 525.331 617.496 525.323 618.31 525.272C621.096 525.097 625.77 524.896 627.81 527.105C628.642 528.006 628.99 529.139 628.947 530.351C628.889 531.977 628.263 533.135 627.05 534.192L626.035 534.064C625.345 532.236 625.84 530.982 626.159 529.078C619.819 528.169 613.449 529.442 607.144 528.631L607.105 527.912C609.722 526.106 613.752 525.845 616.849 525.437Z"/>
	<path fill="#242324" d="M747.523 406.2C761.587 404.991 780.554 409.338 792.533 416.726C817.704 432.251 832.782 454.329 839.481 482.941L831.07 485.138C829.64 484.537 828.373 483.926 827.456 482.638C825.401 479.751 824.405 474.696 823.015 471.313C818.376 460.02 810.296 447.955 800.996 439.971C782.934 424.464 765.861 420.262 742.579 422.148C729.842 425.417 717.911 430.36 708.23 439.475Q707.033 440.617 705.886 441.809Q704.739 443.001 703.643 444.24Q702.547 445.48 701.505 446.765Q700.463 448.049 699.476 449.377Q698.49 450.705 697.56 452.073Q696.63 453.442 695.76 454.848Q694.889 456.255 694.078 457.697Q693.268 459.139 692.519 460.614Q691.771 462.09 691.085 463.595Q690.4 465.101 689.779 466.634Q689.158 468.167 688.602 469.726Q688.047 471.284 687.558 472.864Q687.069 474.445 686.648 476.045Q686.226 477.644 685.873 479.26Q685.519 480.876 685.235 482.506Q684.95 484.136 684.735 485.776C684.248 489.718 684.37 493.706 684.224 497.668C684.122 500.467 684.374 503.928 681.938 505.832C679.072 508.073 674.812 506.943 671.518 506.504C670.501 483.199 673.296 461.109 687.063 441.483C702.987 418.78 721.13 410.758 747.523 406.2Z"/>
	<path fill="#3D3D3D" d="M757.342 410.371C764.137 409.804 770.009 410.435 776.42 412.878C798.705 421.37 820.128 440.334 829.9 462.175C831.865 466.567 836.273 476.516 834.522 481.103L833.567 481.175C830.143 473.733 827.711 466.048 823.74 458.809C813.748 440.597 794.108 424.423 774.831 416.914C771.216 415.506 767.44 414.347 763.591 413.808C761.518 413.519 758.845 413.585 756.907 412.977C756.271 412.778 756.124 412.631 755.643 412.291L755.718 411.531L757.342 410.371Z"/>
	<path fill="#242324" d="M443.606 435.198C464.067 434.748 481.136 436.906 498.843 448.235C526.277 465.788 535.853 488.667 542.036 519.236C542.548 521.771 542.656 524.714 540.936 526.849C539.737 528.336 537.833 529.157 535.97 529.37C533.859 529.611 531.07 529.066 529.853 527.139C528.048 524.281 527.862 516.508 527.168 512.916C523.745 495.201 512.233 476.543 497.73 465.819C477.75 451.043 459.989 448.744 436.096 452.237C417.979 457.211 402.836 467.161 391.487 482.279C376.721 501.95 373.194 526.166 376.569 549.969C375.82 551.453 374.978 552.894 374.165 554.345C371.209 554.878 366.998 556.174 364.431 554.068C362.915 552.824 362.581 550.769 362.265 548.949C357.948 524.131 364.647 495.159 378.994 474.603C394.643 452.179 417.093 439.976 443.606 435.198Z"/>
	<path fill="#3D3D3D" d="M444.42 438.817C466.85 437.633 488.255 442.529 505.611 457.543C520.166 470.135 529.727 486.172 534.779 504.742C535.927 508.964 537.225 513.436 537.421 517.834C537.514 519.921 537.218 520.629 535.796 522.143C532.195 517.827 532.641 510.75 530.988 505.445C527.205 493.312 521.89 480.964 513.664 471.136C502.698 458.034 486.91 447.847 470.154 444.132C463.798 442.723 457.384 442.333 450.928 441.737C448.839 441.544 444.743 441.551 443.391 439.919L444.42 438.817Z"/>
	<path fill="#AED4BB" d="M268.875 514.943C269.171 504.435 274.628 492.466 278.631 482.769C289.963 455.318 303.199 434.559 320.707 410.781C328.151 400.672 335.427 390.472 343.661 380.982C378.445 340.892 425.032 306.652 474.092 286.316C489.6 279.888 506.162 276.84 522.519 273.388C540.387 269.616 563.23 265.07 581.307 263.745C608.853 261.726 633.815 264.24 661.019 268.061C692.618 272.5 715.473 276.657 745.814 287.325C756.49 291.079 766.469 296.475 776.415 301.822C781.088 304.334 785.709 307.088 790.634 309.08L791.377 309.375C794.55 312.313 797.579 317.043 799.366 320.989C799.211 320.92 799.056 320.853 798.902 320.783C792.616 317.919 786.706 313.81 780.638 310.474C769.287 304.233 753.295 296.873 741.105 292.474C724.104 286.339 706.928 282.387 689.184 279.162C683.943 278.21 678.633 276.992 673.342 276.386C669.152 275.905 664.885 276.207 660.687 275.775C648.424 274.513 636.525 271.384 624.114 270.644C607.684 269.664 589.471 269.76 573.12 271.663C557.591 273.469 541.937 276.967 526.594 279.975C511.998 282.836 497.325 285.468 483.319 290.618C436.494 307.838 385.623 344.31 352.332 381.348C341.874 392.983 332.883 405.734 323.672 418.354C310.759 436.046 298.637 453.894 289.447 473.867C287.042 479.094 269.859 518.293 269.586 521.501C269.214 519.315 269.037 517.152 268.875 514.943Z"/>
	<path fill="#8E859A" d="M568.152 248.26L569.103 248.232C575.356 248.015 581.771 246.912 588.014 246.299Q599.168 245.304 610.366 245.438C645.245 245.716 684.36 250.743 717.027 263.436C732.341 269.386 746.956 277.299 760.84 286.044C769.732 291.644 779.721 297.826 787.378 305.013Q789.522 307.062 791.377 309.375L790.634 309.08C785.709 307.088 781.088 304.334 776.415 301.822C766.469 296.475 756.49 291.079 745.814 287.325C715.473 276.657 692.618 272.5 661.019 268.061C633.815 264.24 608.853 261.726 581.307 263.745C563.23 265.07 540.387 269.616 522.519 273.388C506.162 276.84 489.6 279.888 474.092 286.316C425.032 306.652 378.445 340.892 343.661 380.982C335.427 390.472 328.151 400.672 320.707 410.781C303.199 434.559 289.963 455.318 278.631 482.769C274.628 492.466 269.171 504.435 268.875 514.943C266.379 497.052 267.642 488.647 272.997 471.32C275.964 464.255 277.801 456.67 280.944 449.609C291.644 425.564 304.813 403.183 319.717 381.535C325.526 373.097 331.584 364.338 338.427 356.705C353.617 339.763 371.74 324.874 389.864 311.214C394.428 307.773 399.165 304.375 404.069 301.436C408.859 298.566 413.92 296.03 418.419 292.703L418.813 292.405C433.73 284.386 448.307 277.112 464.688 272.45L465.288 270.225C475.782 264.962 487.634 261.438 498.821 257.946C517.02 253.025 535.033 249.951 553.706 247.663C554.734 247.77 555.606 247.794 556.571 248.163L553.439 248.627C558.048 249.97 563.571 246.357 568.152 248.26Z"/>
	<path fill="#3D3D3D" d="M465.288 270.225C475.782 264.962 487.634 261.438 498.821 257.946L500.358 260.255C490.257 261.769 475.043 269.033 464.688 272.45L465.288 270.225Z"/>
	<path fill="#181718" d="M553.706 247.663C554.734 247.77 555.606 247.794 556.571 248.163L553.439 248.627C558.048 249.97 563.571 246.357 568.152 248.26C548.457 251.157 518.415 252.936 500.358 260.255L498.821 257.946C517.02 253.025 535.033 249.951 553.706 247.663Z"/>
	<path fill="#DCFBE5" d="M244.48 577.08C256.413 571.279 262.619 559.176 266.82 547.326C271.808 560.527 277.017 574.544 284.081 586.781C286.35 588.106 288.737 592.555 290.47 594.798C289.366 592.225 287.03 589.703 286.659 586.914C286.614 586.574 286.592 586.232 286.559 585.891C291.795 594.376 298.742 606.821 305.029 614.03C324.752 636.648 373.72 665.951 402.56 674.012C417.947 679.034 434.029 683.042 449.93 686.046C479.624 688.141 509.019 692.643 538.814 693.757C553.136 694.292 570.281 694.408 584.605 693.558C595.772 692.896 606.894 691.502 618.056 690.833L618.27 691.489C621.435 691.579 624.594 691.653 627.751 691.909C632.364 691.913 637.355 690.74 641.908 689.965C652.773 688.115 663.385 686.01 674.094 683.397C677.094 683.273 679.947 682.374 682.836 681.612C690.463 679.248 698.398 677.683 706.083 675.463C730.43 668.429 769.56 654.522 789.423 639.434C792.543 637.571 795.561 635.547 798.596 633.553C817.724 622.312 855.943 585.96 869.311 568.374Q871.232 565.863 872.976 563.226Q874.72 560.589 876.279 557.838Q877.838 555.087 879.205 552.236Q880.571 549.385 881.739 546.447C880.997 555.214 880.829 563.837 878.553 572.41C873.778 590.393 855.801 618.883 842.192 631.371C838.955 636.59 832.991 639.921 829.232 644.847C829.065 645.065 828.893 645.277 828.724 645.493C823.08 650.85 807.045 662.732 800.163 666.34C792.564 670.324 783.594 672.806 775.489 675.687C764.365 679.641 753.393 683.84 742.15 687.469C742.639 689.417 742.969 691.754 744.099 693.433C729.651 693.476 718.078 696.134 704.056 699.171C692.567 701.659 680.988 703.9 669.652 707.033C654.451 711.235 639.533 716.431 624.309 720.59C605.478 725.735 586.229 729.395 567.454 734.691Q553.585 738.673 539.82 743C535.173 744.46 529.777 746.805 525.003 747.451C525.019 747.309 525.052 747.167 525.051 747.024C525.026 742.829 521.713 742.172 519.345 739.418C519.132 739.171 518.927 738.918 518.718 738.668C516.473 737.59 513.495 736.927 511.103 736.144C507.429 736.595 503.418 736.78 499.834 737.643L497.764 737.002C478.971 730.553 459.957 726.461 440.796 721.425C419.123 715.73 396.679 708.525 374.303 706.337C368.619 705.781 363.179 707.384 357.536 707.504C347.716 707.713 337.914 706.529 328.081 706.681C328.748 705.566 329.026 704.685 329.293 703.416C329.048 702.685 329.055 702.063 328.338 701.65C325.982 700.294 322.015 701.629 319.508 702.164L318.1 701.7C315.734 698.971 312.915 696.544 310.421 693.907L301.43 689.13C294.804 682.011 287.091 676.033 280.617 668.705C275.12 662.482 270.485 655.414 266.126 648.359C251.835 625.226 245.52 605.629 238.693 579.578L240.541 578.232C241.963 578.195 243.164 577.585 244.48 577.08Z"/>
	<path fill="#181718" d="M402.56 674.012C417.947 679.034 434.029 683.042 449.93 686.046L450.264 687.465L448.921 687.983C432.419 685.256 416.499 680.794 400.474 676.119L402.56 674.012Z"/>
	<path fill="#242324" d="M449.93 686.046C479.624 688.141 509.019 692.643 538.814 693.757C553.136 694.292 570.281 694.408 584.605 693.558C595.772 692.896 606.894 691.502 618.056 690.833L618.27 691.489C621.435 691.579 624.594 691.653 627.751 691.909C618.766 693.876 608.769 694.39 599.584 695.061Q578.873 696.432 558.117 696.424Q537.362 696.417 516.652 695.03C507.746 694.398 498.899 693.089 490.007 692.297C476.261 691.072 462.533 690.376 448.921 687.983L450.264 687.465L449.93 686.046Z"/>
	<path fill="#3D3D3D" d="M286.559 585.891C291.795 594.376 298.742 606.821 305.029 614.03C324.752 636.648 373.72 665.951 402.56 674.012L400.474 676.119C396.64 675.03 392.77 674.461 388.999 673.072C362.631 663.358 326.405 641.028 306.975 620.586C300.133 613.387 288.368 595.959 284.081 586.781C286.35 588.106 288.737 592.555 290.47 594.798C289.366 592.225 287.03 589.703 286.659 586.914C286.614 586.574 286.592 586.232 286.559 585.891Z"/>
	<path fill="#AED4BB" d="M240.541 578.232C241.963 578.195 243.164 577.585 244.48 577.08C250.125 615.419 269.711 651.411 297.09 678.569C300.519 681.97 313.925 692.207 314.993 695.302L310.421 693.907L301.43 689.13C294.804 682.011 287.091 676.033 280.617 668.705C275.12 662.482 270.485 655.414 266.126 648.359C251.835 625.226 245.52 605.629 238.693 579.578L240.541 578.232Z"/>
	<path fill="#242324" d="M310.421 693.907L314.993 695.302C324.978 699.554 337.548 703.648 348.419 703.676C360.646 703.708 373.027 701.292 385.212 703.617C406.6 707.697 427.219 714.244 448.205 719.844L497.926 733.156C502.269 734.301 506.812 734.885 511.103 736.144C507.429 736.595 503.418 736.78 499.834 737.643L497.764 737.002C478.971 730.553 459.957 726.461 440.796 721.425C419.123 715.73 396.679 708.525 374.303 706.337C368.619 705.781 363.179 707.384 357.536 707.504C347.716 707.713 337.914 706.529 328.081 706.681C328.748 705.566 329.026 704.685 329.293 703.416C329.048 702.685 329.055 702.063 328.338 701.65C325.982 700.294 322.015 701.629 319.508 702.164L318.1 701.7C315.734 698.971 312.915 696.544 310.421 693.907Z"/>
	<path fill="#878C91" d="M716.304 692.971L717.692 692.203C717.895 691.72 718.249 690.84 718.507 690.413C718.557 690.331 719.331 689.306 719.513 689.187C722.648 687.13 731.04 685.699 734.927 684.441C739.05 683.107 743.032 681.412 746.991 679.661C756.013 675.673 764.948 671.419 774.095 667.726C783.085 664.097 792.206 661.067 800.815 656.544C808.582 652.465 816.338 647.772 823.701 643.005C829.43 639.296 835.761 633.529 842.192 631.371C838.955 636.59 832.991 639.921 829.232 644.847C829.065 645.065 828.893 645.277 828.724 645.493C823.08 650.85 807.045 662.732 800.163 666.34C792.564 670.324 783.594 672.806 775.489 675.687C764.365 679.641 753.393 683.84 742.15 687.469C734.714 690.383 724.362 691.584 716.304 692.971Z"/>
	<path fill="#242324" d="M716.304 692.971C724.362 691.584 734.714 690.383 742.15 687.469C742.639 689.417 742.969 691.754 744.099 693.433C729.651 693.476 718.078 696.134 704.056 699.171C692.567 701.659 680.988 703.9 669.652 707.033C654.451 711.235 639.533 716.431 624.309 720.59C605.478 725.735 586.229 729.395 567.454 734.691Q553.585 738.673 539.82 743C535.173 744.46 529.777 746.805 525.003 747.451C525.019 747.309 525.052 747.167 525.051 747.024C525.026 742.829 521.713 742.172 519.345 739.418C519.132 739.171 518.927 738.918 518.718 738.668C522.531 739.505 527.04 740.783 530.955 740.281C541.959 738.867 554.788 733.822 565.906 731.147C586.098 726.29 606.411 721.729 626.424 716.17C640.794 712.179 654.873 707.179 669.243 703.225C684.586 699.002 700.65 695.838 716.304 692.971Z"/>
</svg>
