<svg xmlns="http://www.w3.org/2000/svg" version="1.1" viewBox="0 0 1080 1080" width="1080px" height="1080px" style="shape-rendering:geometricPrecision; text-rendering:geometricPrecision; image-rendering:optimizeQuality; fill-rule:evenodd; clip-rule:evenodd">
<g><path style="opacity:1" fill="#072722" d="M -0.5,-0.5 C 359.5,-0.5 719.5,-0.5 1079.5,-0.5C 1079.5,359.5 1079.5,719.5 1079.5,1079.5C 719.5,1079.5 359.5,1079.5 -0.5,1079.5C -0.5,719.5 -0.5,359.5 -0.5,-0.5 Z"/></g>
<g><path style="opacity:1" fill="#95fbe3" d="M 538.5,69.5 C 540.074,69.9371 541.241,70.9371 542,72.5C 567.186,121.879 595.186,169.546 626,215.5C 643.667,240.5 661.333,265.5 679,290.5C 714.104,336.27 748.438,382.603 782,429.5C 805.777,463.773 826.777,499.773 845,537.5C 891.216,644.609 885.216,748.609 827,849.5C 771.403,935.75 692.903,988.25 591.5,1007C 464.753,1023 360.253,982.833 278,886.5C 207.844,795.961 187.177,694.961 216,583.5C 230.853,539.131 251.019,497.465 276.5,458.5C 288.862,440.637 301.029,422.637 313,404.5C 347.333,358.5 381.667,312.5 416,266.5C 449.905,219.706 481.572,171.372 511,121.5C 520.476,104.208 529.643,86.8748 538.5,69.5 Z"/></g>
<g><path style="opacity:1" fill="#030303" d="M 502.5,330.5 C 503.263,329.732 504.263,329.232 505.5,329C 496.657,328.176 487.99,328.343 479.5,329.5C 455.789,331.404 434.122,339.07 414.5,352.5C 419.512,330.761 430.846,312.761 448.5,298.5C 460.513,290.871 473.679,287.204 488,287.5C 496.238,287.44 504.405,288.107 512.5,289.5C 511.916,303.504 511.25,317.504 510.5,331.5C 507.721,331.721 505.054,331.388 502.5,330.5 Z"/></g>
<g><path style="opacity:1" fill="#030504" d="M 600.5,336.5 C 598.744,335.448 598.077,333.781 598.5,331.5C 599.114,320.461 600.114,309.461 601.5,298.5C 627.046,293.994 647.546,301.994 663,322.5C 671.035,333.207 676.202,344.873 678.5,357.5C 654.981,341.062 628.981,334.062 600.5,336.5 Z"/></g>
<g><path style="opacity:1" fill="#192b28" d="M 479.5,329.5 C 487.99,328.343 496.657,328.176 505.5,329C 504.263,329.232 503.263,329.732 502.5,330.5C 494.868,329.642 487.201,329.309 479.5,329.5 Z"/></g>
<g><path style="opacity:1" fill="#437c71" d="M 598.5,331.5 C 598.077,333.781 598.744,335.448 600.5,336.5C 599.791,337.404 598.791,337.737 597.5,337.5C 597.205,335.265 597.539,333.265 598.5,331.5 Z"/></g>
<g><path style="opacity:1" fill="#36796a" d="M 759.5,519.5 C 759.737,518.209 759.404,517.209 758.5,516.5C 758.892,514.821 759.392,513.154 760,511.5C 760.801,514.367 760.634,517.034 759.5,519.5 Z"/></g>
<g><path style="opacity:1" fill="#090c0b" d="M 459.5,365.5 C 487.173,363.994 510.006,373.661 528,394.5C 538.329,406.828 546.329,420.495 552,435.5C 562.977,411.856 580.477,395.022 604.5,385C 636.46,377.416 662.293,386.582 682,412.5C 699.831,438.656 705.498,467.322 699,498.5C 693.117,532.458 675.283,557.958 645.5,575C 610.996,587.659 582.496,579.492 560,550.5C 557.316,545.116 554.149,540.116 550.5,535.5C 542.823,555.005 530.49,570.838 513.5,583C 477.374,600.975 445.874,594.809 419,564.5C 392.286,529.981 382.286,490.981 389,447.5C 394.483,418.008 408.983,394.175 432.5,376C 441.014,371 450.014,367.5 459.5,365.5 Z"/></g>
<g><path style="opacity:1" fill="#d8f0f7" d="M 512.5,391.5 C 510.801,391.66 509.134,391.494 507.5,391C 501.943,385.636 495.276,382.636 487.5,382C 478.066,381.173 468.733,381.84 459.5,384C 450.478,388.378 442.311,393.878 435,400.5C 434.517,401.448 434.351,402.448 434.5,403.5C 433.5,403.5 432.5,403.5 431.5,403.5C 431.657,404.873 431.49,406.207 431,407.5C 423.916,414.096 419.082,422.096 416.5,431.5C 408.649,455.467 407.482,479.8 413,504.5C 414.472,508.723 415.472,513.057 416,517.5C 418.724,519.808 420.224,522.808 420.5,526.5C 421.5,527.167 422.5,527.833 423.5,528.5C 428.669,535.485 433.169,542.818 437,550.5C 458.43,573.522 483.93,579.356 513.5,568C 517.222,564.089 521.555,561.256 526.5,559.5C 506.089,584.437 480.756,590.937 450.5,579C 434.333,569.5 421.5,556.667 412,540.5C 393.548,504.096 390.548,466.429 403,427.5C 410.647,408.012 423.147,392.512 440.5,381C 466.809,369.162 490.809,372.662 512.5,391.5 Z"/></g>
<g><path style="opacity:1" fill="#d8f0f6" d="M 661.5,402.5 C 659.875,402.107 658.042,402.107 656,402.5C 655.517,401.552 655.351,400.552 655.5,399.5C 631.902,392.218 610.902,396.552 592.5,412.5C 591.614,413.325 591.281,414.325 591.5,415.5C 589.61,415.297 588.11,415.963 587,417.5C 567.889,439.912 559.556,465.912 562,495.5C 563.439,502.468 564.773,509.468 566,516.5C 571.482,529.208 578.982,540.708 588.5,551C 592.402,553.824 596.402,556.49 600.5,559C 602.81,559.497 605.143,559.663 607.5,559.5C 607.5,560.5 607.5,561.5 607.5,562.5C 623.238,565.981 638.572,564.814 653.5,559C 655,558.167 656.167,557 657,555.5C 657.671,556.252 658.504,556.586 659.5,556.5C 636.849,575.847 612.182,578.681 585.5,565C 570.756,554.084 560.423,539.917 554.5,522.5C 557.733,509.877 559.399,497.044 559.5,484C 558.81,471.077 557.643,458.244 556,445.5C 563.703,424.805 576.869,408.639 595.5,397C 616.482,386.602 637.149,387.269 657.5,399C 659.093,399.949 660.426,401.115 661.5,402.5 Z"/></g>
<g><path style="opacity:1" fill="#fdfefd" d="M 661.5,402.5 C 678.063,416.288 688.229,433.955 692,455.5C 697.038,487.661 690.372,516.995 672,543.5C 668.33,548.336 664.164,552.669 659.5,556.5C 658.504,556.586 657.671,556.252 657,555.5C 656.167,557 655,558.167 653.5,559C 638.572,564.814 623.238,565.981 607.5,562.5C 607.5,561.5 607.5,560.5 607.5,559.5C 605.143,559.663 602.81,559.497 600.5,559C 596.402,556.49 592.402,553.824 588.5,551C 578.982,540.708 571.482,529.208 566,516.5C 564.773,509.468 563.439,502.468 562,495.5C 559.556,465.912 567.889,439.912 587,417.5C 588.11,415.963 589.61,415.297 591.5,415.5C 591.281,414.325 591.614,413.325 592.5,412.5C 610.902,396.552 631.902,392.218 655.5,399.5C 655.351,400.552 655.517,401.552 656,402.5C 658.042,402.107 659.875,402.107 661.5,402.5 Z"/></g>
<g><path style="opacity:1" fill="#2d8ac7" d="M 593.5,523.5 C 583.236,525.626 576.236,521.626 572.5,511.5C 573.931,511.119 574.764,510.119 575,508.5C 577.683,509.893 577.85,511.226 575.5,512.5C 577.743,513.474 580.076,513.808 582.5,513.5C 582.5,514.5 582.5,515.5 582.5,516.5C 584.199,516.34 585.866,516.506 587.5,517C 589.354,519.399 591.354,521.566 593.5,523.5 Z"/></g>
<g><path style="opacity:1" fill="#2989ca" d="M 593.5,523.5 C 591.354,521.566 589.354,519.399 587.5,517C 585.866,516.506 584.199,516.34 582.5,516.5C 582.5,515.5 582.5,514.5 582.5,513.5C 580.076,513.808 577.743,513.474 575.5,512.5C 577.85,511.226 577.683,509.893 575,508.5C 574.764,510.119 573.931,511.119 572.5,511.5C 564.323,495.839 564.656,480.172 573.5,464.5C 583.561,451.513 594.061,451.18 605,463.5C 612.877,479.168 613.544,495.168 607,511.5C 604.197,517.473 599.697,521.473 593.5,523.5 Z"/></g>
<g><path style="opacity:1" fill="#f2f8f9" d="M 584.5,504.5 C 580.009,507.734 577.676,506.4 577.5,500.5C 577.728,498.793 578.062,497.126 578.5,495.5C 580.611,494.032 582.444,494.365 584,496.5C 584.497,499.146 584.664,501.813 584.5,504.5 Z"/></g>
<g><path style="opacity:1" fill="#080d0f" d="M 584.5,504.5 C 584.664,501.813 584.497,499.146 584,496.5C 582.444,494.365 580.611,494.032 578.5,495.5C 577.167,492.833 577.167,490.167 578.5,487.5C 580.921,490.099 583.421,490.099 586,487.5C 589.525,482.973 590.358,477.973 588.5,472.5C 592.001,471.656 594.834,472.989 597,476.5C 600.333,484.833 600.333,493.167 597,501.5C 593.522,506.685 589.355,507.685 584.5,504.5 Z"/></g>
<g><path style="opacity:1" fill="#f1f5f3" d="M 588.5,472.5 C 590.358,477.973 589.525,482.973 586,487.5C 583.421,490.099 580.921,490.099 578.5,487.5C 575.244,482.028 574.91,476.361 577.5,470.5C 581.96,467.409 585.626,468.075 588.5,472.5 Z"/></g>
<g><path style="opacity:1" fill="#fdfefd" d="M 512.5,391.5 C 536.298,413.441 549.132,440.775 551,473.5C 553.017,498.039 548.684,521.372 538,543.5C 534.691,549.294 530.858,554.627 526.5,559.5C 521.555,561.256 517.222,564.089 513.5,568C 483.93,579.356 458.43,573.522 437,550.5C 433.169,542.818 428.669,535.485 423.5,528.5C 422.5,527.833 421.5,527.167 420.5,526.5C 420.224,522.808 418.724,519.808 416,517.5C 415.472,513.057 414.472,508.723 413,504.5C 407.482,479.8 408.649,455.467 416.5,431.5C 419.082,422.096 423.916,414.096 431,407.5C 431.49,406.207 431.657,404.873 431.5,403.5C 432.5,403.5 433.5,403.5 434.5,403.5C 434.351,402.448 434.517,401.448 435,400.5C 442.311,393.878 450.478,388.378 459.5,384C 468.733,381.84 478.066,381.173 487.5,382C 495.276,382.636 501.943,385.636 507.5,391C 509.134,391.494 510.801,391.66 512.5,391.5 Z"/></g>
<g><path style="opacity:1" fill="#2a8acb" d="M 458.5,509.5 C 456.88,496.718 457.213,484.051 459.5,471.5C 462.18,461.984 468.18,455.484 477.5,452C 488.745,451.542 496.912,456.376 502,466.5C 510.526,486.772 508.859,506.105 497,524.5C 485.205,535.817 474.205,535.15 464,522.5C 461.603,518.376 459.769,514.043 458.5,509.5 Z"/></g>
<g><path style="opacity:1" fill="#ebf2f2" d="M 469.5,498.5 C 472.044,498.104 474.211,498.771 476,500.5C 476.758,504.357 476.258,508.023 474.5,511.5C 469.229,511.995 466.896,509.495 467.5,504C 467.395,501.822 468.061,499.988 469.5,498.5 Z"/></g>
<g><path style="opacity:1" fill="#090c0e" d="M 479.5,471.5 C 482.587,471.747 485.42,472.747 488,474.5C 495.877,487.305 495.043,499.472 485.5,511C 481.87,512.664 478.203,512.83 474.5,511.5C 476.258,508.023 476.758,504.357 476,500.5C 474.211,498.771 472.044,498.104 469.5,498.5C 468.235,497.486 467.569,495.986 467.5,494C 467.508,492.293 467.842,490.793 468.5,489.5C 471.839,492.312 475.005,491.979 478,488.5C 480.615,483.014 481.115,477.348 479.5,471.5 Z"/></g>
<g><path style="opacity:1" fill="#4995c7" d="M 459.5,471.5 C 457.213,484.051 456.88,496.718 458.5,509.5C 455.086,498.789 454.586,487.789 457,476.5C 457.374,474.509 458.207,472.842 459.5,471.5 Z"/></g>
<g><path style="opacity:1" fill="#f5f9f8" d="M 479.5,471.5 C 481.115,477.348 480.615,483.014 478,488.5C 475.005,491.979 471.839,492.312 468.5,489.5C 464.176,482.108 464.51,474.941 469.5,468C 473.918,466.581 477.251,467.748 479.5,471.5 Z"/></g>
<g><path style="opacity:1" fill="#070a0a" d="M 758.5,516.5 C 759.404,517.209 759.737,518.209 759.5,519.5C 756.213,551.401 743.713,579.068 722,602.5C 705.954,618.742 688.12,632.409 668.5,643.5C 665.558,644.304 662.891,645.638 660.5,647.5C 646.391,654.092 631.725,659.092 616.5,662.5C 613.99,662.927 611.657,663.593 609.5,664.5C 592.956,667.318 576.289,668.985 559.5,669.5C 557.5,669.5 555.5,669.5 553.5,669.5C 535.088,669.145 516.755,667.812 498.5,665.5C 496.5,665.167 494.5,664.833 492.5,664.5C 474.003,661.709 456.003,657.043 438.5,650.5C 435.899,649.199 433.232,647.866 430.5,646.5C 416.072,640.697 402.905,632.697 391,622.5C 392.986,635.619 396.486,648.286 401.5,660.5C 405.891,675.379 412.558,689.045 421.5,701.5C 422.41,704.992 424.076,707.992 426.5,710.5C 433.748,721.75 442.748,731.417 453.5,739.5C 454.585,741.587 456.251,742.92 458.5,743.5C 471.809,755.071 487.143,763.071 504.5,767.5C 506.302,768.458 508.302,769.125 510.5,769.5C 528.457,774.324 546.791,776.657 565.5,776.5C 571.69,776.823 577.69,776.49 583.5,775.5C 597.336,774.895 611.003,773.229 624.5,770.5C 626.435,769.85 628.435,769.517 630.5,769.5C 646.213,766.557 661.546,762.557 676.5,757.5C 678.553,757.598 680.22,756.931 681.5,755.5C 687.312,754.597 692.978,753.097 698.5,751C 703.921,750.161 709.254,750.494 714.5,752C 716.444,753.722 717.444,755.889 717.5,758.5C 716.221,763.779 714.554,768.946 712.5,774C 717.343,776.846 722.343,779.513 727.5,782C 730.922,784.719 733.422,787.886 735,791.5C 724.769,785.7 713.936,781.367 702.5,778.5C 702.167,778.167 701.833,777.833 701.5,777.5C 704.571,773.35 705.905,768.683 705.5,763.5C 702.15,763.335 698.817,763.502 695.5,764C 673.745,770.517 651.745,776.184 629.5,781C 608.944,784.32 588.278,786.486 567.5,787.5C 475.638,786.991 415.804,742.991 388,655.5C 383.373,640.082 379.707,624.415 377,608.5C 366.076,596.404 356.91,583.07 349.5,568.5C 348.998,567.479 348.332,567.312 347.5,568C 336.842,577.316 327.675,587.816 320,599.5C 324.357,578.002 335.857,561.168 354.5,549C 360.858,545.911 367.525,544.078 374.5,543.5C 374.5,547.833 374.5,552.167 374.5,556.5C 368.134,555.953 362.8,557.953 358.5,562.5C 379.615,606.107 413.615,634.273 460.5,647C 508.97,659.398 557.97,661.732 607.5,654C 684.79,637.534 735.124,591.701 758.5,516.5 Z"/></g>
<g><path style="opacity:1" fill="#d3edf9" d="M 430.5,646.5 C 431.782,654.91 433.449,663.244 435.5,671.5C 425.233,668.54 415.233,664.707 405.5,660C 403.934,659.235 402.601,659.402 401.5,660.5C 396.486,648.286 392.986,635.619 391,622.5C 402.905,632.697 416.072,640.697 430.5,646.5 Z"/></g>
<g><path style="opacity:1" fill="#f9fcfc" d="M 435.5,671.5 C 437.96,682.467 440.293,693.467 442.5,704.5C 435.482,703.63 428.482,702.63 421.5,701.5C 412.558,689.045 405.891,675.379 401.5,660.5C 402.601,659.402 403.934,659.235 405.5,660C 415.233,664.707 425.233,668.54 435.5,671.5 Z"/></g>
<g><path style="opacity:1" fill="#91e9f1" d="M 678.5,735.5 C 676.498,723.962 674.498,712.296 672.5,700.5C 670.167,700.5 667.833,700.5 665.5,700.5C 667.684,699.734 670.018,699.067 672.5,698.5C 673.192,699.025 673.692,699.692 674,700.5C 676.266,712.061 677.766,723.727 678.5,735.5 Z"/></g>
<g><path style="opacity:1" fill="#fbfdfc" d="M 676.5,757.5 C 661.546,762.557 646.213,766.557 630.5,769.5C 628.829,750.796 626.829,732.129 624.5,713.5C 639.215,711.423 653.881,709.09 668.5,706.5C 670.909,723.544 673.576,740.544 676.5,757.5 Z"/></g>
<g><path style="opacity:1" fill="#f5f8f7" d="M 453.5,739.5 C 442.748,731.417 433.748,721.75 426.5,710.5C 426.369,709.761 426.536,709.094 427,708.5C 436.03,710.528 445.197,711.862 454.5,712.5C 453.734,721.479 453.401,730.479 453.5,739.5 Z"/></g>
<g><path style="opacity:1" fill="#fbfdfc" d="M 504.5,767.5 C 487.143,763.071 471.809,755.071 458.5,743.5C 459.686,733.893 460.353,724.227 460.5,714.5C 475.812,716.054 491.146,717.387 506.5,718.5C 505.875,734.835 505.208,751.168 504.5,767.5 Z"/></g>
<g><path style="opacity:1" fill="#fcfdfd" d="M 624.5,770.5 C 611.003,773.229 597.336,774.895 583.5,775.5C 579.833,775.5 576.167,775.5 572.5,775.5C 571.609,756.516 571.276,737.516 571.5,718.5C 587.158,717.449 602.825,716.449 618.5,715.5C 620.666,733.828 622.666,752.162 624.5,770.5 Z"/></g>
<g><path style="opacity:1" fill="#fcfdfd" d="M 565.5,776.5 C 546.791,776.657 528.457,774.324 510.5,769.5C 511.233,752.836 511.9,736.17 512.5,719.5C 529.833,719.5 547.167,719.5 564.5,719.5C 565.391,738.484 565.724,757.484 565.5,776.5 Z"/></g>
<g><path style="opacity:1" fill="#8ccff4" d="M 668.5,643.5 C 666.724,658.182 664.557,672.848 662,687.5C 661.501,691.821 661.334,696.154 661.5,700.5C 662.833,700.5 664.167,700.5 665.5,700.5C 667.833,700.5 670.167,700.5 672.5,700.5C 674.498,712.296 676.498,723.962 678.5,735.5C 680.931,741.822 681.931,748.488 681.5,755.5C 680.22,756.931 678.553,757.598 676.5,757.5C 673.576,740.544 670.909,723.544 668.5,706.5C 653.881,709.09 639.215,711.423 624.5,713.5C 626.829,732.129 628.829,750.796 630.5,769.5C 628.435,769.517 626.435,769.85 624.5,770.5C 622.666,752.162 620.666,733.828 618.5,715.5C 602.825,716.449 587.158,717.449 571.5,718.5C 571.276,737.516 571.609,756.516 572.5,775.5C 576.167,775.5 579.833,775.5 583.5,775.5C 577.69,776.49 571.69,776.823 565.5,776.5C 565.724,757.484 565.391,738.484 564.5,719.5C 547.167,719.5 529.833,719.5 512.5,719.5C 511.9,736.17 511.233,752.836 510.5,769.5C 508.302,769.125 506.302,768.458 504.5,767.5C 505.208,751.168 505.875,734.835 506.5,718.5C 491.146,717.387 475.812,716.054 460.5,714.5C 460.353,724.227 459.686,733.893 458.5,743.5C 456.251,742.92 454.585,741.587 453.5,739.5C 453.401,730.479 453.734,721.479 454.5,712.5C 445.197,711.862 436.03,710.528 427,708.5C 426.536,709.094 426.369,709.761 426.5,710.5C 424.076,707.992 422.41,704.992 421.5,701.5C 428.482,702.63 435.482,703.63 442.5,704.5C 440.293,693.467 437.96,682.467 435.5,671.5C 433.449,663.244 431.782,654.91 430.5,646.5C 433.232,647.866 435.899,649.199 438.5,650.5C 439.185,660.604 441.185,670.604 444.5,680.5C 445.651,689.257 447.318,697.924 449.5,706.5C 464.491,708.249 479.491,709.916 494.5,711.5C 494.167,702.833 493.833,694.167 493.5,685.5C 492.538,678.588 492.205,671.588 492.5,664.5C 494.5,664.833 496.5,665.167 498.5,665.5C 499.35,672.799 499.683,680.132 499.5,687.5C 500.051,695.721 500.718,703.888 501.5,712C 518.499,712.597 535.499,713.097 552.5,713.5C 553.496,699.01 553.829,684.343 553.5,669.5C 555.5,669.5 557.5,669.5 559.5,669.5C 559.5,675.833 559.5,682.167 559.5,688.5C 559.5,696.5 559.5,704.5 559.5,712.5C 575.547,712.164 591.547,711.164 607.5,709.5C 607.464,700.815 607.797,692.149 608.5,683.5C 609.124,678.338 609.791,673.171 610.5,668C 610.486,666.615 610.152,665.449 609.5,664.5C 611.657,663.593 613.99,662.927 616.5,662.5C 616.046,669.159 615.713,675.826 615.5,682.5C 614.174,691.093 613.507,699.76 613.5,708.5C 626.969,707.338 640.303,705.338 653.5,702.5C 655.288,692.22 656.955,681.886 658.5,671.5C 659.751,663.827 661.084,656.161 662.5,648.5C 662.043,647.702 661.376,647.369 660.5,647.5C 662.891,645.638 665.558,644.304 668.5,643.5 Z"/></g>
<g><path style="opacity:1" fill="#fbfefd" d="M 499.5,687.5 C 517.131,688.988 534.797,689.654 552.5,689.5C 552.5,697.5 552.5,705.5 552.5,713.5C 535.499,713.097 518.499,712.597 501.5,712C 500.718,703.888 500.051,695.721 499.5,687.5 Z"/></g>
<g><path style="opacity:1" fill="#fcfefd" d="M 608.5,683.5 C 607.797,692.149 607.464,700.815 607.5,709.5C 591.547,711.164 575.547,712.164 559.5,712.5C 559.5,704.5 559.5,696.5 559.5,688.5C 576.054,688.538 592.388,686.871 608.5,683.5 Z"/></g>
<g><path style="opacity:1" fill="#fbfefd" d="M 493.5,685.5 C 493.833,694.167 494.167,702.833 494.5,711.5C 479.491,709.916 464.491,708.249 449.5,706.5C 447.318,697.924 445.651,689.257 444.5,680.5C 444.5,678.833 444.5,677.167 444.5,675.5C 460.695,679.68 477.028,683.014 493.5,685.5 Z"/></g>
<g><path style="opacity:1" fill="#fbfefd" d="M 658.5,671.5 C 656.955,681.886 655.288,692.22 653.5,702.5C 640.303,705.338 626.969,707.338 613.5,708.5C 613.507,699.76 614.174,691.093 615.5,682.5C 630.362,680.204 644.696,676.538 658.5,671.5 Z"/></g>
<g><path style="opacity:1" fill="#d4eefa" d="M 498.5,665.5 C 516.755,667.812 535.088,669.145 553.5,669.5C 553.829,684.343 553.496,699.01 552.5,713.5C 552.5,705.5 552.5,697.5 552.5,689.5C 534.797,689.654 517.131,688.988 499.5,687.5C 499.683,680.132 499.35,672.799 498.5,665.5 Z"/></g>
<g><path style="opacity:1" fill="#d4eefa" d="M 609.5,664.5 C 610.152,665.449 610.486,666.615 610.5,668C 609.791,673.171 609.124,678.338 608.5,683.5C 592.388,686.871 576.054,688.538 559.5,688.5C 559.5,682.167 559.5,675.833 559.5,669.5C 576.289,668.985 592.956,667.318 609.5,664.5 Z"/></g>
<g><path style="opacity:1" fill="#d4eefa" d="M 438.5,650.5 C 456.003,657.043 474.003,661.709 492.5,664.5C 492.205,671.588 492.538,678.588 493.5,685.5C 477.028,683.014 460.695,679.68 444.5,675.5C 444.5,677.167 444.5,678.833 444.5,680.5C 441.185,670.604 439.185,660.604 438.5,650.5 Z"/></g>
<g><path style="opacity:1" fill="#d4eef9" d="M 660.5,647.5 C 661.376,647.369 662.043,647.702 662.5,648.5C 661.084,656.161 659.751,663.827 658.5,671.5C 644.696,676.538 630.362,680.204 615.5,682.5C 615.713,675.826 616.046,669.159 616.5,662.5C 631.725,659.092 646.391,654.092 660.5,647.5 Z"/></g>
</svg>
