<svg width="1944" height="1945" viewBox="0 0 1944 1945" fill="none" xmlns="http://www.w3.org/2000/svg">
<rect width="1943.77" height="1944.74" fill="#A4D4EA"/>
<g clip-path="url(#clip0_192_5146)">
<path d="M943.79 712.33C943.83 724.31 943.76 736.34 943.79 748.32C968.11 748.38 992.48 748.22 1016.8 748.32C1016.84 760.3 1016.77 772.32 1016.8 784.3H1052.8V855.26H1081.8L943.8 934.72V1106.13H834.8V1071.65L833.3 1070.15H761.8V1035.17H726.3L724.8 1033.67V963.21C712.98 963.74 700.55 962.49 688.8 963.21C688.76 927.24 688.83 891.23 688.8 855.26H724.8V784.3H760.3L761.8 782.8V748.32H833.3L834.8 746.82V712.34C871.12 712.37 907.48 712.3 943.8 712.34L943.79 712.33Z" fill="white"/>
<path d="M943.79 712.33C968.11 712.36 992.47 712.31 1016.8 712.33C1016.82 724.31 1016.75 736.34 1016.8 748.32C992.48 748.22 968.11 748.39 943.79 748.32C943.77 736.34 943.84 724.31 943.79 712.33Z" fill="black"/>
<path d="M1016.79 748.31C1028.78 748.36 1040.8 748.27 1052.79 748.31V783.29H1088.29L1089.79 784.79V851.26L1172.04 805.42L1397.87 933.64L1398.96 1127.46L1568.63 1224.23V1291.38L1515.46 1322.19L1508.53 1324.85L1337.45 1228.29L1171.45 1321.79L943.79 1193.08V1142.11H834.79V1107.63L833.29 1106.13H761.79V1071.15H726.29L724.79 1069.65V1035.17H688.79C688.77 1011.2 688.82 987.18 688.79 963.21C700.54 962.49 712.97 963.74 724.79 963.21V1033.67L726.29 1035.17H761.79V1070.15H833.29L834.79 1071.65V1106.13H943.79V934.72L1081.79 855.26H1052.79V784.3H1016.79C1016.76 772.32 1016.83 760.3 1016.79 748.32V748.31ZM1171.79 1283.04V1063.65L1364.8 953.7L1171.38 844.24L978.28 954.19V1173.08L1171.79 1283.03V1283.04ZM1507.79 1285.04V1257.55L1531.17 1244.12L1531.79 1242.07L1348.8 1138.52C1345.05 1137.75 1327.9 1149.77 1323.3 1152.1L1322.72 1179.61L1507.8 1285.03L1507.79 1285.04Z" fill="black"/>
<path d="M688.79 963.2C686.26 963.36 683.71 962.78 681.39 964.3L608.54 1005.01L382.28 876.26L381.95 618.03L609.29 488.5L836.79 617.88V676.35H943.79C943.82 688.33 943.75 700.35 943.79 712.33C907.47 712.29 871.11 712.36 834.79 712.33V746.81L833.29 748.31H761.79V782.79L760.29 784.29H724.79V855.25H688.79C688.82 891.22 688.75 927.23 688.79 963.2ZM609.79 966.2V746.81L802.8 636.86L609.29 527.49L416.44 636.27L416.29 856.26L609.8 966.2H609.79Z" fill="black"/>
<path d="M1171.79 1283.04L978.3 1173.09L978.29 954.2L1171.39 844.25L1364.81 953.71L1171.79 1063.65V1283.04Z" fill="white"/>
<path d="M1507.79 1285.04L1322.71 1179.62L1323.29 1152.11C1327.89 1149.78 1345.04 1137.75 1348.79 1138.53L1531.78 1242.08L1531.16 1244.13L1507.78 1257.56V1285.05L1507.79 1285.04Z" fill="white"/>
<path d="M609.79 966.2L416.29 856.26L416.44 636.27L609.29 527.49L802.81 636.87L609.79 746.81V966.2Z" fill="white"/>
<path d="M740.06 231.03L718.01 137.34L811.7 115.29L814.85 128.67L747.93 144.42L754.23 171.19L807.77 158.59L810.92 171.97L757.38 184.57L766.83 224.72L740.06 231.02V231.03Z" fill="black"/>
<path d="M845.19 206.16L838.9 137.7L852.59 136.44L851.33 122.75L865.02 121.49L863.76 107.8L904.84 104.02L906.1 117.71L919.79 116.45L921.05 130.14L934.74 128.88L941.03 197.34L913.65 199.86L911.13 172.48L870.05 176.26L872.57 203.64L845.19 206.16ZM868.8 162.57L909.88 158.79L907.36 131.41L893.67 132.67L892.41 118.98L878.72 120.24L879.98 133.93L866.29 135.19L868.81 162.57H868.8Z" fill="black"/>
<path d="M952.77 196.15L957.159 100L1039.57 103.76L1038.94 117.5L1052.68 118.13L1050.8 159.34L1023.33 158.09L1022.7 171.83L1036.44 172.46L1035.81 186.2L1049.55 186.83L1048.92 200.57L1007.71 198.69L1008.34 184.95L994.599 184.32L995.229 170.58L981.49 169.95L980.24 197.42L952.77 196.17V196.15ZM982.12 156.2L1009.59 157.45L1010.22 143.71L1023.96 144.34L1025.21 116.87L984 114.99L982.12 156.2Z" fill="black"/>
<path d="M1060.72 200.92L1078.37 106.3L1105.4 111.34L1102.88 124.86L1116.4 127.38L1113.88 140.9L1127.4 143.42L1129.92 129.9L1143.44 132.42L1145.96 118.9L1172.99 123.94L1155.34 218.56L1128.31 213.52L1138.4 159.45L1124.88 156.93L1119.84 183.96L1106.32 181.44L1111.36 154.41L1097.84 151.89L1087.75 205.96L1060.72 200.92Z" fill="black"/>
<path d="M1201.79 203.3L1210.56 177.24L1236.62 186.01L1227.85 212.07L1201.79 203.3Z" fill="black"/>
<path d="M1269.4 254.94L1312.53 168.9L1398.57 212.03L1392.41 224.32L1330.95 193.51L1318.63 218.09L1367.8 242.74L1361.64 255.03L1312.47 230.38L1293.98 267.26L1269.4 254.94Z" fill="black"/>
<path d="M1366.04 303.23L1405.08 246.64L1416.4 254.45L1424.21 243.13L1435.53 250.94L1443.34 239.62L1477.29 263.04L1469.48 274.36L1480.8 282.17L1472.99 293.49L1484.31 301.3L1445.27 357.89L1422.64 342.27L1438.26 319.63L1404.31 296.21L1388.69 318.84L1366.05 303.22L1366.04 303.23ZM1412.1 284.89L1446.05 308.32L1461.67 285.68L1450.35 277.87L1458.16 266.55L1446.84 258.74L1439.03 270.06L1427.71 262.25L1412.09 284.88L1412.1 284.89Z" fill="black"/>
<path d="M1455.05 364.48L1520.13 293.57L1580.91 349.35L1571.61 359.48L1581.74 368.78L1553.85 399.17L1533.59 380.58L1524.29 390.71L1534.42 400.01L1525.12 410.14L1535.25 419.44L1525.95 429.57L1495.56 401.68L1504.86 391.55L1494.73 382.25L1504.03 372.12L1493.9 362.82L1475.31 383.08L1455.05 364.49V364.48ZM1503.2 352.68L1523.46 371.27L1532.76 361.14L1542.89 370.44L1561.48 350.18L1531.09 322.29L1503.2 352.68Z" fill="black"/>
<path d="M1534.75 437.44L1608.99 376.18L1626.49 397.39L1615.88 406.14L1624.63 416.75L1614.02 425.5L1622.77 436.11L1633.38 427.36L1642.13 437.97L1652.74 429.22L1670.24 450.43L1596 511.69L1578.5 490.48L1620.92 455.48L1612.17 444.87L1590.96 462.37L1582.21 451.76L1603.42 434.26L1594.67 423.65L1552.25 458.65L1534.75 437.44Z" fill="black"/>
<path d="M1641.46 529.73L1664.89 515.33L1679.29 538.76L1655.86 553.16L1641.46 529.73Z" fill="black"/>
<path d="M1660.32 612.67L1748.54 574.17L1787.04 662.39L1774.44 667.89L1746.94 604.88L1721.73 615.88L1743.73 666.29L1731.13 671.79L1709.13 621.38L1671.32 637.88L1660.32 612.68V612.67Z" fill="black"/>
<path d="M1703.66 711.65L1769.9 693.23L1773.58 706.48L1786.83 702.8L1790.51 716.05L1803.76 712.37L1814.81 752.11L1801.56 755.79L1805.24 769.04L1791.99 772.72L1795.67 785.97L1729.43 804.39L1722.06 777.89L1748.55 770.52L1737.5 730.78L1711.01 738.15L1703.64 711.66L1703.66 711.65ZM1750.77 727.09L1761.82 766.83L1788.32 759.46L1784.64 746.21L1797.89 742.53L1794.21 729.28L1780.96 732.96L1777.28 719.71L1750.79 727.08L1750.77 727.09Z" fill="black"/>
<path d="M1732.73 815.68L1828.15 803.07L1838.96 884.86L1825.33 886.66L1827.13 900.29L1786.24 905.69L1782.64 878.43L1769.01 880.23L1770.81 893.86L1757.18 895.66L1758.98 909.29L1745.35 911.09L1739.94 870.2L1753.57 868.4L1751.77 854.77L1765.4 852.97L1763.6 839.34L1736.34 842.94L1732.74 815.68H1732.73ZM1777.22 837.54L1780.82 864.8L1794.45 863L1796.25 876.63L1823.51 873.03L1818.1 832.14L1777.21 837.54H1777.22Z" fill="black"/>
<path d="M1747.53 922.73L1843.77 924.29L1843.32 951.79L1829.57 951.57L1829.35 965.32L1815.6 965.1L1815.38 978.85L1829.13 979.07L1828.91 992.82L1842.66 993.04L1842.21 1020.54L1745.97 1018.98L1746.42 991.48L1801.41 992.37L1801.63 978.62L1774.13 978.17L1774.35 964.42L1801.85 964.87L1802.07 951.12L1747.08 950.23L1747.53 922.73Z" fill="black"/>
<path d="M1769.71 1062.02L1796.92 1065.98L1792.96 1093.19L1765.75 1089.23L1769.71 1062.02Z" fill="black"/>
<path d="M1731.03 1137.8L1823.41 1164.82L1796.39 1257.2L1783.19 1253.34L1802.49 1187.35L1776.1 1179.63L1760.66 1232.42L1747.46 1228.56L1762.9 1175.77L1723.31 1164.19L1731.03 1137.8Z" fill="black"/>
<path d="M1700.84 1241.5L1763.48 1269.83L1757.81 1282.36L1770.34 1288.03L1764.67 1300.56L1777.2 1306.23L1760.2 1343.82L1747.67 1338.15L1742 1350.68L1729.47 1345.01L1723.8 1357.54L1661.16 1329.21L1672.49 1304.15L1697.55 1315.48L1714.55 1277.89L1689.49 1266.56L1700.82 1241.5H1700.84ZM1727.1 1283.56L1710.1 1321.15L1735.16 1332.48L1740.83 1319.95L1753.36 1325.62L1759.03 1313.09L1746.5 1307.42L1752.17 1294.89L1727.11 1283.56H1727.1Z" fill="black"/>
<path d="M1656.43 1340.03L1737.76 1391.5L1693.64 1461.21L1682.02 1453.86L1674.67 1465.48L1639.81 1443.42L1654.52 1420.18L1642.9 1412.83L1635.55 1424.45L1623.93 1417.1L1616.58 1428.72L1604.96 1421.37L1627.02 1386.51L1638.64 1393.86L1645.99 1382.24L1657.61 1389.59L1664.96 1377.97L1641.72 1363.26L1656.43 1340.02V1340.03ZM1676.58 1385.32L1661.87 1408.56L1673.49 1415.91L1666.14 1427.53L1689.38 1442.24L1711.44 1407.38L1676.58 1385.32Z" fill="black"/>
<path d="M1598.76 1431.4L1672.19 1493.62L1654.41 1514.6L1643.92 1505.71L1635.03 1516.2L1624.54 1507.31L1615.65 1517.8L1626.14 1526.69L1617.25 1537.18L1627.74 1546.07L1609.96 1567.05L1536.53 1504.83L1554.31 1483.85L1596.27 1519.41L1605.16 1508.92L1584.18 1491.14L1593.07 1480.65L1614.05 1498.43L1622.94 1487.94L1580.98 1452.38L1598.76 1431.4Z" fill="black"/>
<path d="M1526.85 1552.74L1545.18 1573.24L1524.68 1591.57L1506.35 1571.07L1526.85 1552.74Z" fill="black"/>
<path d="M1448.57 1586.02L1502.19 1665.95L1422.26 1719.57L1414.6 1708.15L1471.7 1669.85L1456.38 1647.01L1410.7 1677.65L1403.04 1666.23L1448.72 1635.59L1425.74 1601.33L1448.58 1586.01L1448.57 1586.02Z" fill="black"/>
<path d="M1358.91 1646.33L1388.9 1708.19L1376.53 1714.19L1382.53 1726.56L1370.16 1732.56L1376.16 1744.93L1339.04 1762.93L1333.04 1750.56L1320.67 1756.56L1314.67 1744.19L1302.3 1750.19L1272.31 1688.33L1297.06 1676.33L1309.06 1701.08L1346.18 1683.08L1334.18 1658.33L1358.93 1646.33H1358.91ZM1352.16 1695.44L1315.04 1713.44L1327.04 1738.19L1339.41 1732.19L1345.41 1744.56L1357.78 1738.56L1351.78 1726.19L1364.15 1720.19L1352.15 1695.44H1352.16Z" fill="black"/>
<path d="M1261.77 1693.59L1291.26 1785.21L1212.73 1810.48L1208.52 1797.39L1195.43 1801.6L1182.79 1762.33L1208.97 1753.91L1204.76 1740.82L1191.67 1745.03L1187.46 1731.94L1174.37 1736.15L1170.16 1723.06L1209.43 1710.42L1213.64 1723.51L1226.73 1719.3L1230.94 1732.39L1244.03 1728.18L1235.61 1702L1261.79 1693.58L1261.77 1693.59ZM1248.23 1741.28L1222.05 1749.7L1226.26 1762.79L1213.17 1767L1221.6 1793.18L1260.87 1780.54L1248.23 1741.27V1741.28Z" fill="black"/>
<path d="M1158.96 1726.81L1175.36 1821.65L1148.26 1826.34L1145.92 1812.79L1132.37 1815.13L1130.03 1801.58L1116.48 1803.92L1118.82 1817.47L1105.27 1819.81L1107.61 1833.36L1080.51 1838.05L1064.11 1743.21L1091.21 1738.52L1100.58 1792.72L1114.13 1790.38L1109.44 1763.28L1122.99 1760.94L1127.68 1788.04L1141.23 1785.7L1131.86 1731.5L1158.96 1726.81Z" fill="black"/>
<path d="M1025.93 1773.72L1026.83 1801.21L999.34 1802.11L998.44 1774.62L1025.93 1773.72Z" fill="black"/>
<path d="M944.5 1749.02L934.43 1844.74L838.71 1834.67L840.15 1821L908.52 1828.19L911.4 1800.84L856.7 1795.09L858.14 1781.42L912.84 1787.17L917.16 1746.15L944.51 1749.03L944.5 1749.02Z" fill="black"/>
<path d="M837.039 1737.87L820.4 1804.58L807.06 1801.25L803.729 1814.59L790.39 1811.26L787.06 1824.6L747.039 1814.62L750.37 1801.28L737.03 1797.95L740.359 1784.61L727.02 1781.28L743.659 1714.57L770.34 1721.23L763.69 1747.91L803.71 1757.89L810.37 1731.21L837.049 1737.87H837.039ZM800.38 1771.24L760.359 1761.26L753.71 1787.94L767.049 1791.27L763.719 1804.61L777.06 1807.94L780.39 1794.6L793.729 1797.93L800.39 1771.25L800.38 1771.24Z" fill="black"/>
<path d="M732.17 1711.85L696.05 1801.07L619.58 1770.11L624.74 1757.36L611.99 1752.2L627.47 1713.96L652.96 1724.28L658.12 1711.53L645.37 1706.37L650.53 1693.62L637.78 1688.46L642.94 1675.71L681.18 1691.19L676.02 1703.94L688.77 1709.1L683.61 1721.85L696.36 1727.01L706.68 1701.52L732.17 1711.84V1711.85ZM691.2 1739.77L665.71 1729.45L660.55 1742.2L647.8 1737.04L637.48 1762.53L675.72 1778.01L691.2 1739.77Z" fill="black"/>
<path d="M631.99 1671.44L583.8 1754.76L560 1740.99L566.88 1729.09L554.98 1722.21L561.86 1710.31L549.96 1703.43L543.08 1715.33L531.18 1708.45L524.3 1720.35L500.49 1706.58L548.68 1623.26L572.48 1637.03L544.94 1684.64L556.84 1691.52L570.61 1667.72L582.51 1674.6L568.74 1698.4L580.64 1705.28L608.18 1657.67L631.99 1671.44Z" fill="black"/>
<path d="M499.79 1622.18L482.86 1643.85L461.19 1626.92L478.12 1605.25L499.79 1622.18Z" fill="black"/>
<path d="M453.17 1551.02L384 1617.95L317.07 1548.78L326.95 1539.22L374.76 1588.62L394.52 1569.5L356.27 1529.98L366.15 1520.42L404.4 1559.94L434.04 1531.25L453.16 1551.01L453.17 1551.02Z" fill="black"/>
<path d="M377.92 1473.46L322.39 1513.99L314.28 1502.88L303.17 1510.99L295.06 1499.88L283.95 1507.99L259.63 1474.67L270.74 1466.56L262.63 1455.45L273.74 1447.34L265.63 1436.23L321.16 1395.7L337.37 1417.91L315.16 1434.12L339.48 1467.44L361.69 1451.23L377.9 1473.44L377.92 1473.46ZM328.39 1475.56L304.07 1442.24L281.86 1458.45L289.97 1469.56L278.86 1477.67L286.97 1488.78L298.08 1480.67L306.19 1491.78L328.4 1475.57L328.39 1475.56Z" fill="black"/>
<path d="M314.12 1386.29L229.26 1431.7L190.33 1358.96L202.45 1352.47L195.96 1340.35L232.33 1320.89L245.31 1345.14L257.43 1338.65L250.94 1326.53L263.06 1320.04L256.57 1307.92L268.69 1301.43L288.15 1337.8L276.03 1344.29L282.52 1356.41L270.4 1362.9L276.89 1375.02L301.14 1362.04L314.12 1386.29ZM264.78 1381.51L251.8 1357.26L239.68 1363.75L233.19 1351.63L208.94 1364.61L228.4 1400.98L264.77 1381.52L264.78 1381.51Z" fill="black"/>
<path d="M263.01 1291.07L172.64 1324.2L163.17 1298.38L176.08 1293.65L171.35 1280.74L184.26 1276.01L179.53 1263.1L166.62 1267.83L161.89 1254.92L148.98 1259.65L139.51 1233.83L229.88 1200.7L239.35 1226.52L187.71 1245.45L192.44 1258.36L218.26 1248.89L222.99 1261.8L197.17 1271.27L201.9 1284.18L253.54 1265.25L263.01 1291.07Z" fill="black"/>
<path d="M193.04 1168.58L166.15 1174.35L160.38 1147.46L187.27 1141.69L193.04 1168.58Z" fill="black"/>
<path d="M202.92 1084.08L106.92 1091L100 995L113.71 994.01L118.66 1062.58L146.09 1060.6L142.13 1005.74L155.84 1004.75L159.8 1059.61L200.94 1056.64L202.92 1084.07V1084.08Z" fill="black"/>
<path d="M195.02 976.33L126.42 971.85L127.32 958.13L113.6 957.23L114.5 943.51L100.78 942.61L103.47 901.45L117.19 902.35L118.09 888.63L131.81 889.53L132.71 875.81L201.31 880.29L199.52 907.73L172.08 905.94L169.39 947.1L196.83 948.89L195.04 976.33H195.02ZM155.65 946.2L158.34 905.04L130.9 903.25L130 916.97L116.28 916.07L115.38 929.79L129.1 930.69L128.2 944.41L155.64 946.2H155.65Z" fill="black"/>
<path d="M201.91 868.49L107.66 848.95L124.4 768.17L137.86 770.96L140.65 757.5L181.04 765.87L175.46 792.8L188.92 795.59L191.71 782.13L205.17 784.92L207.96 771.46L221.42 774.25L213.05 814.64L199.59 811.85L196.8 825.31L183.34 822.52L180.55 835.98L207.48 841.56L201.9 868.49H201.91ZM167.1 833.19L172.68 806.26L159.22 803.47L162.01 790.01L135.08 784.43L126.71 824.82L167.1 833.19Z" fill="black"/>
<path d="M223.7 762.67L133.11 730.16L142.4 704.28L155.34 708.92L159.98 695.98L172.92 700.62L177.56 687.68L164.62 683.04L169.26 670.1L156.32 665.46L165.61 639.58L256.2 672.09L246.91 697.97L195.14 679.39L190.49 692.33L216.37 701.62L211.73 714.56L185.85 705.27L181.21 718.21L232.98 736.79L223.69 762.67H223.7Z" fill="black"/>
<path d="M248.56 623.78L224.23 610.97L237.04 586.64L261.37 599.45L248.56 623.78Z" fill="black"/>
<path d="M310.3 565.25L232.17 509.03L288.39 430.9L299.55 438.93L259.4 494.73L281.72 510.79L313.84 466.15L325 474.18L292.88 518.82L326.36 542.91L310.3 565.23V565.25Z" fill="black"/>
<path d="M373.3 477.48L323.57 430L333.07 420.05L323.13 410.55L332.63 400.61L322.68 391.11L351.17 361.27L361.11 370.77L370.61 360.82L380.56 370.32L390.06 360.37L439.79 407.85L420.8 427.74L400.91 408.75L372.42 438.58L392.31 457.57L373.32 477.46L373.3 477.48ZM362.45 429.1L390.94 399.27L371.05 380.28L361.55 390.23L351.6 380.73L342.11 390.68L352.05 400.18L342.55 410.12L362.44 429.11L362.45 429.1Z" fill="black"/>
<path d="M447.81 399.23L388.03 323.79L452.69 272.55L461.23 283.33L472.01 274.79L497.63 307.12L476.08 324.2L484.62 334.98L495.4 326.44L503.94 337.22L514.72 328.68L523.26 339.46L490.93 365.08L482.39 354.3L471.61 362.84L463.07 352.06L452.29 360.6L469.37 382.15L447.82 399.23H447.81ZM443.75 349.82L465.3 332.74L456.76 321.96L467.54 313.42L450.46 291.87L418.13 317.49L443.75 349.82Z" fill="black"/>
<path d="M532.39 332.03L483.63 249.04L507.34 235.11L514.31 246.97L526.16 240L533.13 251.85L544.98 244.88L538.01 233.03L549.86 226.06L542.89 214.2L566.6 200.27L615.36 283.26L591.65 297.19L563.79 249.77L551.94 256.74L565.87 280.45L554.02 287.42L540.09 263.71L528.24 270.68L556.1 318.1L532.39 332.03Z" fill="black"/>
<path d="M640.39 241.25L629.9 215.83L655.32 205.34L665.81 230.76L640.39 241.25Z" fill="black"/>
</g>
<defs>
<clipPath id="clip0_192_5146">
<rect width="1743.77" height="1744.74" fill="white" transform="translate(100 100)"/>
</clipPath>
</defs>
</svg>
