<svg xmlns="http://www.w3.org/2000/svg" version="1.1" xmlns:xlink="http://www.w3.org/1999/xlink" preserveAspectRatio="none" x="0px" y="0px" width="100" height="100" viewBox="0 0 100 100">
<defs>
<radialGradient id="Gradient_1" gradientUnits="userSpaceOnUse" cx="0" cy="0" r="36.94999999999999" fx="0" fy="0" gradientTransform="matrix( 1.0000000000000004, 0, 0, 0.8362652232746959, 135.05,82.9) " spreadMethod="pad">
<stop  offset="0%" stop-color="#96FDE3"/>

<stop  offset="100%" stop-color="#41E7BD"/>
</radialGradient>

<radialGradient id="Gradient_2" gradientUnits="userSpaceOnUse" cx="0" cy="0" r="201.1" fx="0" fy="0" gradientTransform="matrix( 1.0000000000000002, 0, 0, 1.0000000000000002, 255.4,212.5) " spreadMethod="pad">
<stop  offset="0%" stop-color="#96FDE3"/>

<stop  offset="100%" stop-color="#41E7BD"/>
</radialGradient>

<linearGradient id="Gradient_3" gradientUnits="userSpaceOnUse" x1="58.69999999999999" y1="172.3" x2="452.1" y2="172.3" spreadMethod="pad">
<stop  offset="0%" stop-color="#D7FFF5" stop-opacity="0"/>

<stop  offset="54.509803921568626%" stop-color="#E5FFF8" stop-opacity="0.5882352941176471"/>

<stop  offset="100%" stop-color="#3CFFCE" stop-opacity="0"/>
</linearGradient>

<radialGradient id="Gradient_4" gradientUnits="userSpaceOnUse" cx="0" cy="0" r="45.8125" fx="0" fy="0" gradientTransform="matrix( 1, 0, 0, 1, 154.8,55.85) " spreadMethod="pad">
<stop  offset="0%" stop-color="#F8FFE9"/>

<stop  offset="100%" stop-color="#EEFFAF"/>
</radialGradient>

<radialGradient id="Gradient_5" gradientUnits="userSpaceOnUse" cx="0" cy="0" r="30.900000000000006" fx="0" fy="0" gradientTransform="matrix( 0.9999999999999999, 0, 0, 0.9999999999999999, 125.25,86.95) " spreadMethod="pad">
<stop  offset="0%" stop-color="#96FDE3"/>

<stop  offset="100%" stop-color="#41E7BD"/>
</radialGradient>

<radialGradient id="Gradient_6" gradientUnits="userSpaceOnUse" cx="0" cy="0" r="67.07499999999999" fx="0" fy="0" gradientTransform="matrix( 1.0000000000000002, 0, 0, 0.5611256056653002, 245.3,216.85) " spreadMethod="pad">
<stop  offset="0%" stop-color="#C6FFDB"/>

<stop  offset="47.84313725490196%" stop-color="#96FDE3" stop-opacity="0.8274509803921568"/>

<stop  offset="100%" stop-color="#92FFE3" stop-opacity="0"/>
</radialGradient>

<g id="Layer1_0_MEMBER_0_FILL">
<path fill="#56D1FF" stroke="none" d="
M 151.6 -21.65
Q 148.5 -26.28046875 145.4 -21.65
L 129.95 7.65 166.05 7.25 151.6 -21.65 Z"/>
</g>

<g id="Layer1_0_MEMBER_1_FILL">
<path fill="#FFD71E" stroke="none" d="
M 141.9 -15.4
L 141.9 -15.35 141.15 -11.45 157.7 -6.5 157.7 -10.65 141.9 -15.4 Z"/>
</g>

<g id="Layer1_0_MEMBER_2_FILL">
<path fill="#FFD71E" stroke="none" d="
M 137.65 -5.85
L 135.2 -1.9 163.9 3.85 160.6 -0.3 137.65 -5.85 Z"/>
</g>

<g id="Layer1_0_MEMBER_3_FILL">
<path fill="#FFFFFF" fill-opacity="0.4392156862745098" stroke="none" d="
M 151.6 -21.65
Q 148.5 -26.28046875 145.4 -21.65
L 129.95 7.65 166.05 7.25 151.6 -21.65 Z"/>
</g>

<g id="Layer0_0_FILL">
<path fill="#1B9878" fill-opacity="0.34901960784313724" stroke="none" d="
M 78.7 268.05
Q 73.15 262.5 65.3 262.5 57.45 262.5 50.2 270.85 42.95 279.25 42.95 287.1 42.95 294.95 50.2 297.65 57.45 300.4 65.3 300.4 73.15 300.4 78.7 294.85 84.25 289.3 84.25 281.45 84.25 273.6 78.7 268.05 Z"/>
</g>

<g id="Layer0_1_FILL">
<path fill="#1B9878" fill-opacity="0.34901960784313724" stroke="none" d="
M 78.7 268.05
Q 73.15 262.5 65.3 262.5 57.45 262.5 50.2 270.85 42.95 279.25 42.95 287.1 42.95 294.95 50.2 297.65 57.45 300.4 65.3 300.4 73.15 300.4 78.7 294.85 84.25 289.3 84.25 281.45 84.25 273.6 78.7 268.05 Z"/>
</g>

<g id="Layer0_2_FILL">
<path fill="url(#Gradient_1)" stroke="none" d="
M 163.5 95.25
Q 169.1609375 84.891796875 168.4 80.2 167.558984375 74.968359375 160.5 69.8 147.1169921875 60.001171875 129.8 58.1 112.544140625 56.2494140625 103.55 61.7 94.55 67.1 94.55 81.3 94.55 95.5 103.55 106.6 109.6501953125 114.0896484375 117.45 116.5 121.1615234375 117.6482421875 129.7 118.05 138.2294921875 118.5048828125 148.05 112.05 157.88046875 105.5984375 163.5 95.25 Z"/>
</g>

<g id="Layer0_3_FILL">
<path fill="url(#Gradient_2)" stroke="none" d="
M 395.95 331.65
Q 460.045703125 294.39296875 446.8 221.1 433.6013671875 147.85234375 380.2 102.8 326.85 57.8 251.4 57.8 175.95 57.803125 122 104.1 68.05 150.440625 62.2 227.3 56.35 304.159375 116.15 334.7 175.9484375 365.2953125 253.9 367.1 331.9041015625 368.9578125 395.95 331.65 Z"/>
</g>

<g id="Layer0_4_FILL">
<path fill="#1B9878" fill-opacity="0.34901960784313724" stroke="none" d="
M 334.9 85.3
Q 336.75 81.45 331.35 76.6 325.95 71.75 315.15 67.45 314.6408203125 67.248046875 314.1 67.05 246.3009765625 52.350390625 199.55 67.05 196.019140625 68.6009765625 192.8 70.4 183.65 75.55 178.65 82 174.3 87.65 174.3 92.7 174.3 97.95 178.5 103.55 182.75 109.15 190.3 113.75 207.6 124.3 231.2 124.3 259.8 124.3 297.1 109.2 312.65 102.95 323.1 96.35 333.75 89.65 334.9 85.3 Z"/>
</g>

<g id="Layer0_6_FILL">
<path fill="url(#Gradient_4)" stroke="none" d="
M 185.5 85.75
Q 195.9234375 79.3275390625 196.55 73.45 187.701171875 74.426171875 184 74.8 180.309375 75.1685546875 172.55 67.95 164.8421875 60.7833984375 153.75 66.75 149.120703125 69.2732421875 147.9 70.3
L 142.75 70.3
Q 116.0029296875 58.8390625 110.2 64.4 107.2056640625 82.1626953125 121.75 87.8 136.283984375 93.4419921875 155.7 92.8 175.1212890625 92.2123046875 185.5 85.75 Z"/>
</g>

<g id="Layer0_8_FILL">
<path fill="url(#Gradient_5)" stroke="none" d="
M 163.5 95.25
Q 169.1609375 84.891796875 168.4 80.2 167.558984375 74.968359375 160.5 69.8 147.1169921875 60.001171875 129.8 58.1 112.544140625 56.2494140625 103.55 61.7 94.55 67.1 94.55 81.3 94.55 95.5 103.55 106.6 109.6501953125 114.0896484375 117.45 116.5 121.1615234375 117.6482421875 129.7 118.05 138.2294921875 118.5048828125 148.05 112.05 157.88046875 105.5984375 163.5 95.25 Z"/>
</g>

<g id="Layer0_9_MEMBER_0_FILL">
<path fill="url(#Gradient_6)" stroke="none" d="
M 317.75 242.55
Q 317.75 227 297.9 216 278.05 205.05 249.95 205.05 221.85 205.05 202 216 182.15 227 182.15 242.55 182.15 258.1 202 269.05 221.85 280.05 249.95 280.05 278.05 280.05 297.9 269.05 317.75 258.1 317.75 242.55 Z"/>
</g>

<g id="Layer0_9_MEMBER_1_MEMBER_0_FILL">
<path fill="#A8FFE8" stroke="none" d="
M 214.8 240.8
Q 214.8 239.35 212.15 238.3 209.55 237.3 205.85 237.3 202.15 237.3 199.5 238.3 196.9 239.35 196.9 240.8 196.9 242.25 199.5 243.25 202.15 244.3 205.85 244.3 209.55 244.3 212.15 243.25 214.8 242.25 214.8 240.8 Z"/>
</g>

<g id="Layer0_9_MEMBER_1_MEMBER_1_FILL">
<path fill="#1B9878" stroke="none" d="
M 214.8 240.8
Q 214.8 239.35 212.15 238.3 209.55 237.3 205.85 237.3 202.15 237.3 199.5 238.3 196.9 239.35 196.9 240.8 196.9 242.25 199.5 243.25 202.15 244.3 205.85 244.3 209.55 244.3 212.15 243.25 214.8 242.25 214.8 240.8 Z"/>
</g>

<g id="Layer0_9_MEMBER_1_MEMBER_2_FILL">
<path fill="#A8FFE8" stroke="none" d="
M 214.8 240.8
Q 214.8 239.35 212.15 238.3 209.55 237.3 205.85 237.3 202.15 237.3 199.5 238.3 196.9 239.35 196.9 240.8 196.9 242.25 199.5 243.25 202.15 244.3 205.85 244.3 209.55 244.3 212.15 243.25 214.8 242.25 214.8 240.8 Z"/>
</g>

<g id="Layer0_9_MEMBER_1_MEMBER_3_FILL">
<path fill="#1B9878" stroke="none" d="
M 214.8 240.8
Q 214.8 239.35 212.15 238.3 209.55 237.3 205.85 237.3 202.15 237.3 199.5 238.3 196.9 239.35 196.9 240.8 196.9 242.25 199.5 243.25 202.15 244.3 205.85 244.3 209.55 244.3 212.15 243.25 214.8 242.25 214.8 240.8 Z"/>
</g>

<g id="Layer0_10_FILL">
<path fill="#1B9878" fill-opacity="0.34901960784313724" stroke="none" d="
M 185.3 70.2
Q 198.4 60.5 185.3 50.9 180.95 47.85 175.05 47.85 168.5 47.85 163.85 51.55 159.25 55.3 159.25 60.55 159.25 65.8 163.85 69.5 168.5 73.2 175.05 73.2 180.95 73.2 185.3 70.2
M 118.7 45.6
Q 114.15 45.6 110.5 47.4 107.45 58.9 110.5 69.15 114.15 70.95 118.7 70.95 125.25 70.95 129.85 67.25 134.5 63.55 134.5 58.3 134.5 53.05 129.85 49.3 125.25 45.6 118.7 45.6 Z"/>
</g>

<g id="Layer0_11_FILL">
<path fill="#DDF378" stroke="none" d="
M 152.25 167.8
Q 132 151.5 103.35 151.5 74.7 151.5 54.4 167.8 34.15 184.1 34.15 207.15 34.15 230.2 54.4 246.5 74.7 262.8 103.35 262.8 132 262.8 152.25 246.5 172.55 230.2 172.55 207.15 172.55 184.1 152.25 167.8 Z"/>
</g>

<g id="Layer0_12_FILL">
<path fill="#EEFFAF" stroke="none" d="
M 137.3 172.25
Q 122.344921875 161.0498046875 102.65 161.05 82.9529296875 161.0498046875 68.9 172.25 54.8408203125 183.4501953125 53.95 199.3 53.058984375 215.149609375 68 226.35 82.946875 237.55 102.65 237.55 122.3546875 237.5498046875 139.75 226.35 157.185546875 215.15 154.75 199.3 152.3146484375 183.45 137.3 172.25 Z"/>
</g>

<g id="Layer0_13_FILL">
<path fill="#000000" stroke="none" d="
M 108.85 248.2
Q 97.3671875 247.6529296875 90.15 249.65 82.994140625 251.6990234375 83 258 83 264.3 93.1 267.5 103.2 270.75 115.1 270.65 127 270.55 133.5 267.45 140 264.3 140 258 140.0056640625 251.7009765625 130.2 250.25 120.3826171875 248.7970703125 108.85 248.2 Z"/>
</g>

<g id="Layer0_14_FILL">
<path fill="#FFFFFF" stroke="none" d="
M 133.35 196.15
Q 119.2517578125 190.6384765625 100.3 191.5 81.3982421875 192.361328125 69.6 197 57.8005859375 201.69609375 57.8 212.9 57.804296875 224.1037109375 73.65 229.8 89.5365234375 235.4888671875 108.25 235.35 127.01328125 235.2111328125 137.2 229.65 147.4455078125 224.0962890625 147.45 212.9 147.4494140625 201.7037109375 133.35 196.15 Z"/>
</g>

<g id="Layer0_15_FILL">
<path fill="#1B9878" fill-opacity="0.34901960784313724" stroke="none" d="
M 320.2 141.25
Q 320.2 138.5 316.55 134.85 312.45 130.75 307.85 130.75 300.9 130.75 293.45 137.1 286.75 142.85 286.75 146.35 286.75 148 289.4 149.6 293.45 152.1 301.65 152.1 309.8 152.1 315.35 148.3 320.2 145 320.2 141.25 Z"/>
</g>

<g id="Layer0_17_MEMBER_0_FILL">
<path fill="#DDF378" stroke="none" d="
M 152.25 167.8
Q 132 151.5 103.35 151.5 74.7 151.5 54.4 167.8 34.15 184.1 34.15 207.15 34.15 230.2 54.4 246.5 74.7 262.8 103.35 262.8 132 262.8 152.25 246.5 172.55 230.2 172.55 207.15 172.55 184.1 152.25 167.8 Z"/>
</g>

<g id="Layer0_17_MEMBER_1_FILL">
<path fill="#EEFFAF" stroke="none" d="
M 137.3 172.25
Q 122.344921875 161.0498046875 102.65 161.05 82.9529296875 161.0498046875 68.9 172.25 54.8408203125 183.4501953125 53.95 199.3 53.058984375 215.149609375 68 226.35 82.946875 237.55 102.65 237.55 122.3546875 237.5498046875 139.75 226.35 157.185546875 215.15 154.75 199.3 152.3146484375 183.45 137.3 172.25 Z"/>
</g>

<g id="Layer0_17_MEMBER_2_FILL">
<path fill="#000000" stroke="none" d="
M 437.5 248.5
Q 425.0046875 248.0646484375 417.05 250.1 409.1482421875 252.1451171875 409.15 258.05 409.15 263.9 420.4 266.9 431.65 269.85 444.9 269.8 458.15 269.7 465.4 266.8 472.6 263.9 472.6 258.05 472.6015625 252.1548828125 461.3 250.55 449.9951171875 248.9853515625 437.5 248.5 Z"/>
</g>

<g id="Layer0_17_MEMBER_3_FILL">
<path fill="#FFFFFF" stroke="none" d="
M 133.35 196.15
Q 119.2517578125 190.6384765625 100.3 191.5 81.3982421875 192.361328125 69.6 197 57.8005859375 201.69609375 57.8 212.9 57.804296875 224.1037109375 73.65 229.8 89.5365234375 235.4888671875 108.25 235.35 127.01328125 235.2111328125 137.2 229.65 147.4455078125 224.0962890625 147.45 212.9 147.4494140625 201.7037109375 133.35 196.15 Z"/>
</g>

<g id="Layer0_18_FILL">
<path fill="#FFD615" stroke="none" d="
M 92.7 79.6
Q 93.421875 83.544921875 98.25 84.1 124.816015625 75.358984375 151.65 74.35 150.1501953125 74.36640625 150.85 69.75 123.5345703125 67.3654296875 107.65 70.7 91.7623046875 74.0822265625 92.7 79.6 Z"/>
</g>

<g id="Layer0_20_FILL">
<path fill="#A97700" stroke="none" d="
M 99.35 80.6
Q 100.5 80.15 100.5 79.45 100.5 78.75 99.35 78.25 98.25 77.8 96.65 77.8 95.05 77.8 93.9 78.25 92.8 78.75 92.8 79.45 92.8 80.15 93.9 80.6 95.05 81.1 96.65 81.1 98.25 81.1 99.35 80.6 Z"/>
</g>

<g id="Layer0_21_FILL">
<path fill="#F7FF5F" stroke="none" d="
M 108.2 71.85
Q 102.3 72.8 102.3 74.1 102.3 75.338671875 145.85 71.55 128.2822265625 70.95 122.55 70.95 114.15 70.95 108.2 71.85 Z"/>
</g>

<g id="Layer0_22_FILL">
<path fill="#FFD71E" stroke="none" d="
M 19 28.6
Q 20.35 27.3 20.35 25.45 20.35 23.6 19 22.25 17.7 20.95 15.85 20.95 14 20.95 12.65 22.25 11.35 23.6 11.35 25.45 11.35 27.3 12.65 28.6 14 29.95 15.85 29.95 17.7 29.95 19 28.6 Z"/>
</g>

<g id="Layer0_23_FILL">
<path fill="#FFD71E" stroke="none" d="
M 90.6 16.05
Q 91.45 15.2 91.45 14 91.45 12.8 90.6 11.95 89.75 11.1 88.55 11.1 87.35 11.1 86.5 11.95 85.65 12.8 85.65 14 85.65 15.2 86.5 16.05 87.35 16.9 88.55 16.9 89.75 16.9 90.6 16.05 Z"/>
</g>

<g id="Layer0_24_FILL">
<path fill="#FFD71E" stroke="none" d="
M 87.5 95.05
Q 88.6 94 88.6 92.5 88.6 91 87.5 89.9 86.45 88.85 84.95 88.85 83.45 88.85 82.35 89.9 81.3 91 81.3 92.5 81.3 94 82.35 95.05 83.45 96.15 84.95 96.15 86.45 96.15 87.5 95.05 Z"/>
</g>

<g id="Layer0_25_FILL">
<path fill="#6DE2FF" stroke="none" d="
M 43.1 11.6
Q 44.5 10.25 44.5 8.3 44.5 6.35 43.1 4.95 41.75 3.6 39.8 3.6 37.85 3.6 36.45 4.95 35.1 6.35 35.1 8.3 35.1 10.25 36.45 11.6 37.85 13 39.8 13 41.75 13 43.1 11.6 Z"/>
</g>

<g id="Layer0_26_FILL">
<path fill="#6DE2FF" stroke="none" d="
M 28.25 93.75
Q 29.2 92.85 29.2 91.55 29.2 90.25 28.25 89.3 27.35 88.4 26.05 88.4 24.75 88.4 23.8 89.3 22.9 90.25 22.9 91.55 22.9 92.85 23.8 93.75 24.75 94.7 26.05 94.7 27.35 94.7 28.25 93.75 Z"/>
</g>

<g id="Layer0_27_FILL">
<path fill="#6DE2FF" stroke="none" d="
M 93.9 46.8
Q 94.75 45.95 94.75 44.75 94.75 43.55 93.9 42.7 93.05 41.85 91.85 41.85 90.65 41.85 89.8 42.7 88.95 43.55 88.95 44.75 88.95 45.95 89.8 46.8 90.65 47.65 91.85 47.65 93.05 47.65 93.9 46.8 Z"/>
</g>

<g id="Layer0_28_FILL">
<path fill="#FF6D6D" stroke="none" d="
M 44.3 40.15
Q 45.2 39.3 45.2 38.05 45.2 36.8 44.3 35.9 43.45 35.05 42.2 35.05 40.95 35.05 40.05 35.9 39.2 36.8 39.2 38.05 39.2 39.3 40.05 40.15 40.95 41.05 42.2 41.05 43.45 41.05 44.3 40.15 Z"/>
</g>

<g id="Layer0_29_FILL">
<path fill="#FF6D6D" stroke="none" d="
M 13.45 7.7
Q 14.2 7 14.2 6 14.2 5 13.45 4.25 12.75 3.55 11.75 3.55 10.75 3.55 10 4.25 9.3 5 9.3 6 9.3 7 10 7.7 10.75 8.45 11.75 8.45 12.75 8.45 13.45 7.7 Z"/>
</g>

<g id="Layer0_30_FILL">
<path fill="#FF6D6D" stroke="none" d="
M 15.95 63.8
Q 17.35 62.4 17.35 60.45 17.35 58.5 15.95 57.1 14.55 55.7 12.6 55.7 10.65 55.7 9.25 57.1 7.85 58.5 7.85 60.45 7.85 62.4 9.25 63.8 10.65 65.2 12.6 65.2 14.55 65.2 15.95 63.8 Z"/>
</g>

<path id="Layer1_0_MEMBER_4_1_STROKES" stroke="#1285BB" stroke-width="2" stroke-linejoin="round" stroke-linecap="round" fill="none" d="
M 53.50217819213866 28.52658462524414
L 73.3507583618164 7.093631744384771
Q 77.04836351871491 3.856702744960783 78.63224334716794 8.50872573852539
L 84.34534683227541 36.42534255981446 53.50217819213866 28.52658462524414 Z"/>

<path id="Layer0_2_1_STROKES" stroke="#1B9878" stroke-width="2" stroke-linejoin="round" stroke-linecap="round" fill="none" d="
M 33.83357849121094 35.121789550781244
Q 32.71847811937332 33.91876276731491 32.40941467285157 32.002630615234374 31.958462524414063 29.16693115234375 33.385049438476564 26.6959716796875 34.81163635253907 24.22501220703125 36.92024230957031 24.1895263671875 39.03291072845459 24.14464935064316 41.85154571533203 26.20712432861328 44.672059071064 28.27081971168518 46.01642456054688 31.3204345703125 46.72553374767303 32.928960013389585 46.346289062500006 33.92381591796875"/>

<path id="Layer0_5_1_STROKES" stroke="url(#Gradient_3)" stroke-width="2" stroke-linejoin="round" stroke-linecap="round" fill="none" d="
M 22.6823787689209 73.21848983764649
Q 20.624991667270663 68.31457041501999 21.13609924316406 61.59944305419922 22.27751693725586 46.60309252738953 32.803924560546875 37.56625938415527 43.33033218383789 28.528206777572635 58.05169372558594 28.52759704589844 72.77305526733399 28.52759704589844 83.18239440917968 37.30773315429687 93.60175601541995 46.098082268238066 96.18187370300292 60.39461326599121 97.50571549236774 67.73132396042347 94.85509757995605 73.21848983764649"/>

<path id="Layer0_7_1_STROKES" stroke="#1B9878" stroke-width="2" stroke-linejoin="round" stroke-linecap="round" fill="none" d="
M 18.934337615966797 67.2357292175293
Q 19.768192520737642 47.87551650702953 31.347252273559576 37.64757385253907 42.92355605065822 27.418080961704256 58.091240692138655 27.41739196777344 73.26013107299806 27.41739196777344 83.97536468505857 36.45699234008789 94.69059829711912 45.54068832397461 97.33633499145506 60.26862258911133 98.70329895019532 67.80897216796876 95.96937103271486 73.45321044921874"/>

<path id="Layer0_8_1_STROKES" stroke="#1B9878" stroke-width="2" stroke-linejoin="round" stroke-linecap="round" fill="none" d="
M 84.14924545288086 38.109858703613284
Q 85.7165615528822 37.625515446066856 86.94235305786133 36.12052307128906 88.75083999633789 33.89005584716797 88.75083999633789 31.03666534423828 88.75083999633789 28.18327484130859 86.94235305786133 27.098182678222656 85.13504351973533 26.00292562544346 81.66257591247559 26.379811477661132 78.18787124454975 26.756815069913863 75.49864959716797 28.72582092285156 74.08019614815711 29.764366525411607 73.91119995117188 30.815628051757812"/>

<path id="Layer0_11_1_STROKES" stroke="#93A632" stroke-width="2" stroke-linejoin="round" stroke-linecap="round" fill="none" d="
M 41.39953536987305 57.34216461181641
Q 41.39953536987305 62.72129516601562 37.817237091064456 66.52519226074219 34.24376220703125 70.32908935546875 29.18795700073242 70.32908935546875 24.132151794433593 70.32908935546875 20.549853515625 66.52519226074219 16.976378631591796 62.72129516601562 16.976378631591796 57.34216461181641 16.976378631591796 51.963034057617186 20.549853515625 48.15913696289063 24.132151794433593 44.35523986816406 29.18795700073242 44.35523986816406 34.24376220703125 44.35523986816406 37.817237091064456 48.15913696289063 41.39953536987305 51.963034057617186 41.39953536987305 57.34216461181641 Z"/>

<path id="Layer0_16_1_STROKES" stroke="#8AA87A" stroke-width="2" stroke-linejoin="round" stroke-linecap="round" fill="none" d="
M 96.01346664428709 74.24693145751954
Q 87.4515113145113 89.78047187626362 63.80162239074704 90.67254676818848 40.1413985580206 91.5635881692171 28.370798492431646 85.33697776794435 16.606916117668135 79.11277884542943 19.110720062255865 67.54439849853514"/>

<path id="Layer0_17_MEMBER_0_1_STROKES" stroke="#93A632" stroke-width="2" stroke-linejoin="round" stroke-linecap="round" fill="none" d="
M 91.62271347045899 58.30821838378906
Q 91.62271347045899 63.906115722656246 87.54357070922852 67.86471557617188 83.47447509765625 71.82331542968751 77.71745834350585 71.82331542968751 71.96044158935547 71.82331542968751 67.881298828125 67.86471557617188 63.81220321655274 63.906115722656246 63.81220321655274 58.30821838378906 63.81220321655274 52.710321044921876 67.881298828125 48.751721191406254 71.96044158935547 44.793121337890625 77.71745834350585 44.793121337890625 83.47447509765625 44.793121337890625 87.54357070922852 48.751721191406254 91.62271347045899 52.710321044921876 91.62271347045899 58.30821838378906 Z"/>

<path id="Layer0_18_1_STROKES" stroke="#A97700" stroke-width="2" stroke-linejoin="round" stroke-linecap="round" fill="none" d="
M 15.437851715087902 72.07324256896972
Q 1.4262988895177955 75.03402173817157 2.27531166076659 79.90021362304687 2.8898942470550537 83.37928847670555 7.147876739501953 83.86881866455077 30.576770859956753 76.1600100696087 54.24198989868165 75.27017440795898 52.91929379999635 75.28464328050613 53.53646011352538 71.21337814331055 29.44664856493472 69.11039641797542 15.437851715087902 72.07324256896972 Z"/>

<path id="Layer0_19_1_STROKES" stroke="#8AA87A" stroke-width="2" stroke-linejoin="round" stroke-linecap="round" fill="none" d="
M 55.26806907653808 69.18184051513673
Q 53.737813556194325 73.52250227928162 56.612985229492196 77.51591110229491"/>

<path id="Layer0_20_1_STROKES" stroke="#A97700" stroke-width="2" stroke-linejoin="round" stroke-linecap="round" fill="none" d="
M 11.4821792602539 79.31792678833008
Q 11.4821792602539 79.93526535034181 10.46798019409178 80.33212585449218 9.497876739501947 80.77308197021483 8.086817169189459 80.77308197021483 6.675757598876942 80.77308197021483 5.661558532714849 80.33212585449218 4.691455078124989 79.93526535034181 4.691455078124989 79.31792678833008 4.691455078124989 78.70058822631836 5.661558532714849 78.2596321105957 6.675757598876942 77.8627716064453 8.086817169189459 77.8627716064453 9.497876739501947 77.8627716064453 10.46798019409178 78.2596321105957 11.4821792602539 78.70058822631836 11.4821792602539 79.31792678833008 Z"/>
</defs>

<g transform="matrix( 0.8518524169921875, 0.228240966796875, -0.228240966796875, 0.8518524169921875, -55.45,-7.65) ">
<use xlink:href="#Layer1_0_MEMBER_0_FILL"/>
</g>

<g transform="matrix( 0.8518524169921875, 0.228240966796875, -0.228240966796875, 0.8518524169921875, -55.45,-7.65) ">
<use xlink:href="#Layer1_0_MEMBER_1_FILL"/>
</g>

<g transform="matrix( 0.8518524169921875, 0.228240966796875, -0.228240966796875, 0.8518524169921875, -55.45,-7.65) ">
<use xlink:href="#Layer1_0_MEMBER_2_FILL"/>
</g>

<g transform="matrix( 0.3443145751953125, 0.0922393798828125, -0.344696044921875, 0.820648193359375, 17.35,11.8) ">
<use xlink:href="#Layer1_0_MEMBER_3_FILL"/>
</g>

<g transform="matrix( 0.8518524169921875, 0.228240966796875, -0.228240966796875, 0.8518524169921875, -55.45,-7.65) ">
<use xlink:href="#Layer1_0_MEMBER_4_1_STROKES" transform="matrix( 1.09527587890625, -0.29345703125, 0.29345703125, 1.09527587890625, 62.95,-7.85) "/>
</g>

<g transform="matrix( 0.2009429931640625, 0, 0, 0.2009429931640625, 14.7,16.45) ">
<use xlink:href="#Layer0_0_FILL"/>
</g>

<g transform="matrix( -0.04547119140625, -0.07879638671875, 0.07879638671875, -0.04547119140625, 10.05,97.95) ">
<use xlink:href="#Layer0_1_FILL"/>
</g>

<g transform="matrix( 0.17401123046875, 0.1004638671875, -0.1004638671875, 0.17401123046875, 25.1,3.05) ">
<use xlink:href="#Layer0_2_FILL"/>

<use xlink:href="#Layer0_2_1_STROKES" transform="matrix( 4.310089111328125, -2.4883880615234375, 2.4883880615234375, 4.310089111328125, -115.75,49.3) "/>
</g>

<g transform="matrix( 0.2009429931640625, 0, 0, 0.2009429931640625, 7.5,15.8) ">
<use xlink:href="#Layer0_3_FILL"/>
</g>

<g transform="matrix( 0.2009429931640625, 0, 0, 0.2009429931640625, 6.55,15.8) ">
<use xlink:href="#Layer0_4_FILL"/>
</g>

<g transform="matrix( 0.1951141357421875, 0, 0, 0.1951141357421875, 9,17.25) ">
<use xlink:href="#Layer0_5_1_STROKES" transform="matrix( 5.1251983642578125, 0, 0, 5.1251983642578125, -46.1,-88.4) "/>
</g>

<g transform="matrix( 0.8819122314453125, 0, 0, 0.8819122314453125, -77.15,9.25) ">
<use xlink:href="#Layer0_6_FILL"/>
</g>

<g transform="matrix( 0.8819122314453125, 0, 0, 0.8819122314453125, -77.15,9.25) ">
<use xlink:href="#Layer0_7_1_STROKES" transform="matrix( 1.1338958740234375, 0, 0, 1.1338958740234375, 87.45,-10.45) "/>
</g>

<g transform="matrix( -0.2009429931640625, 0, 0, 0.2009429931640625, 107.75,14.7) ">
<use xlink:href="#Layer0_8_FILL"/>

<use xlink:href="#Layer0_8_1_STROKES" transform="matrix( -4.976531982421875, 0, 0, 4.976531982421875, 536.2,-73.15) "/>
</g>

<g transform="matrix( 0.2009429931640625, 0, 0, 0.2009429931640625, 1.3,14.35) ">
<use xlink:href="#Layer0_9_MEMBER_0_FILL"/>
</g>

<g transform="matrix( 0.2088623046875, 0.084869384765625, -0.065460205078125, 0.370819091796875, 17,-42.3) ">
<use xlink:href="#Layer0_9_MEMBER_1_MEMBER_0_FILL"/>
</g>

<g transform="matrix( 0.1827239990234375, 0.0742645263671875, -0.0489501953125, 0.277252197265625, 18.5,-18.45) ">
<use xlink:href="#Layer0_9_MEMBER_1_MEMBER_1_FILL"/>
</g>

<g transform="matrix( -0.3134613037109375, 0.0891265869140625, 0.098236083984375, 0.3893890380859375, 97.45,-47.45) ">
<use xlink:href="#Layer0_9_MEMBER_1_MEMBER_2_FILL"/>
</g>

<g transform="matrix( -0.27423095703125, 0.0779876708984375, 0.0734405517578125, 0.2911224365234375, 95.25,-22.4) ">
<use xlink:href="#Layer0_9_MEMBER_1_MEMBER_3_FILL"/>
</g>

<g transform="matrix( 0.8819122314453125, 0, 0, 0.8819122314453125, -77.15,9.25) ">
<use xlink:href="#Layer0_10_FILL"/>
</g>

<g transform="matrix( 0.1764678955078125, 0, 0, 0.233367919921875, 10.95,9) ">
<use xlink:href="#Layer0_11_FILL"/>

<use xlink:href="#Layer0_11_1_STROKES" transform="matrix( 5.666748046875, 0, 0, 4.285064697265625, -62.05,-38.55) "/>
</g>

<g transform="matrix( 0.1764678955078125, 0, 0, 0.233367919921875, 10.95,9) ">
<use xlink:href="#Layer0_12_FILL"/>
</g>

<g transform="matrix( 0.126220703125, 0, 0, 0.200927734375, 9.25,5.7) ">
<use xlink:href="#Layer0_13_FILL"/>
</g>

<g transform="matrix( 0.012786865234375, -0.0054473876953125, 0.004669189453125, 0.0279541015625, 23.3,52.2) ">
<use xlink:href="#Layer0_14_FILL"/>
</g>

<g transform="matrix( 0.2009429931640625, 0, 0, 0.2009429931640625, 7.3,15.8) ">
<use xlink:href="#Layer0_15_FILL"/>
</g>

<g transform="matrix( 0.8819122314453125, 0, 0, 0.8819122314453125, -77.15,9.25) ">
<use xlink:href="#Layer0_16_1_STROKES" transform="matrix( 1.1338958740234375, 0, 0, 1.1338958740234375, 87.45,-10.45) "/>
</g>

<g transform="matrix( 0.2009429931640625, 0, 0, 0.24285888671875, 56.95,8) ">
<use xlink:href="#Layer0_17_MEMBER_0_FILL"/>

<use xlink:href="#Layer0_17_MEMBER_0_1_STROKES" transform="matrix( 4.976531982421875, 0, 0, 4.11761474609375, -283.4,-32.9) "/>
</g>

<g transform="matrix( 0.2009429931640625, 0, 0, 0.24285888671875, 56.95,8) ">
<use xlink:href="#Layer0_17_MEMBER_1_FILL"/>
</g>

<g transform="matrix( 0.1649169921875, 0, 0, 0.24285888671875, 10.9,-3.05) ">
<use xlink:href="#Layer0_17_MEMBER_2_FILL"/>
</g>

<g transform="matrix( 0.020416259765625, -0.006591796875, 0.0074615478515625, 0.0337982177734375, 82.8,53.15) ">
<use xlink:href="#Layer0_17_MEMBER_3_FILL"/>
</g>

<g transform="matrix( 0.8819122314453125, 0, 0, 0.8819122314453125, -79.5,9.7) ">
<use xlink:href="#Layer0_18_FILL"/>

<use xlink:href="#Layer0_18_1_STROKES" transform="matrix( 1.1338958740234375, 0, 0, 1.1338958740234375, 90.1,-10.95) "/>
</g>

<g transform="matrix( 0.8819122314453125, 0, 0, 0.8819122314453125, -82.2,9.3) ">
<use xlink:href="#Layer0_19_1_STROKES" transform="matrix( 1.1338958740234375, 0, 0, 1.1338958740234375, 93.2,-10.5) "/>
</g>

<g transform="matrix( 0.8819122314453125, 0, 0, 0.8819122314453125, -77.15,9.25) ">
<use xlink:href="#Layer0_20_FILL"/>

<use xlink:href="#Layer0_20_1_STROKES" transform="matrix( 1.1338958740234375, 0, 0, 1.1338958740234375, 87.45,-10.45) "/>
</g>

<g transform="matrix( 0.8819122314453125, 0, 0, 0.8819122314453125, -77.15,9.25) ">
<use xlink:href="#Layer0_21_FILL"/>
</g>

<g transform="matrix( 1, 0, 0, 1, 0,0) ">
<use xlink:href="#Layer0_22_FILL"/>
</g>

<g transform="matrix( 1, 0, 0, 1, 0,0) ">
<use xlink:href="#Layer0_23_FILL"/>
</g>

<g transform="matrix( 1, 0, 0, 1, 0,0) ">
<use xlink:href="#Layer0_24_FILL"/>
</g>

<g transform="matrix( 1, 0, 0, 1, 0,0) ">
<use xlink:href="#Layer0_25_FILL"/>
</g>

<g transform="matrix( 1, 0, 0, 1, 0,0) ">
<use xlink:href="#Layer0_26_FILL"/>
</g>

<g transform="matrix( 1, 0, 0, 1, 3.05,-3.4) ">
<use xlink:href="#Layer0_27_FILL"/>
</g>

<g transform="matrix( 1, 0, 0, 1, 11.4,-20.1) ">
<use xlink:href="#Layer0_28_FILL"/>
</g>

<g transform="matrix( 1, 0, 0, 1, 0,0) ">
<use xlink:href="#Layer0_29_FILL"/>
</g>

<g transform="matrix( 1, 0, 0, 1, -5.6,2.55) ">
<use xlink:href="#Layer0_30_FILL"/>
</g>
</svg>
