<svg id="Capa_2" data-name="Capa 2" xmlns="http://www.w3.org/2000/svg" xmlns:xlink="http://www.w3.org/1999/xlink" viewBox="0 0 400 400">
  <defs>
    <style>
      .cls-1 {
        fill: #fff;
      }

      .cls-2 {
        fill: #252b2b;
      }

      .cls-3 {
        fill: url(#w-7);
      }

      .cls-4 {
        fill: url(#w-8);
      }

      .cls-5 {
        fill: url(#w-5);
      }

      .cls-6 {
        fill: url(#w-6);
      }

      .cls-7 {
        fill: url(#w-4);
      }

      .cls-8 {
        fill: url(#w-3);
      }

      .cls-9 {
        fill: url(#w-2);
      }

      .cls-10 {
        fill: url(#w);
      }
    </style>
    <linearGradient id="w" data-name="Безымянный градиент 6" x1="249.12" y1="40.27" x2="280.27" y2="40.27" gradientUnits="userSpaceOnUse">
      <stop offset="0" stop-color="#69f9d3"/>
      <stop offset="1" stop-color="#3fcaef"/>
    </linearGradient>
    <linearGradient id="w-2" data-name="Безымянный градиент 6" x1="22.83" y1="133.96" x2="59.99" y2="133.96" xlink:href="#w"/>
    <linearGradient id="w-3" data-name="Безымянный градиент 6" x1="119.83" y1="358.78" x2="150.98" y2="358.78" xlink:href="#w"/>
    <linearGradient id="w-4" data-name="Безымянный градиент 6" x1="340.11" y1="265.09" x2="377.28" y2="265.09" xlink:href="#w"/>
    <linearGradient id="w-5" data-name="Безымянный градиент 6" x1="67.53" y1="328.05" x2="25.06" y2="205.93" xlink:href="#w"/>
    <linearGradient id="w-6" data-name="Безымянный градиент 6" x1="323.21" y1="329.1" x2="208.53" y2="379.01" xlink:href="#w"/>
    <linearGradient id="w-7" data-name="Безымянный градиент 6" x1="304.95" y1="129.02" x2="399.04" y2="129.02" xlink:href="#w"/>
    <linearGradient id="w-8" data-name="Безымянный градиент 6" x1="72.61" y1="76.04" x2="185.17" y2="20.82" xlink:href="#w"/>
  </defs>
  <g id="_Слой_1" data-name="Слой 1">
    <circle class="cls-2" cx="199.52" cy="199.52" r="199.45"/>
    <g>
      <path class="cls-10" d="M279.67,47.98c-1.67,4.02-6.29,5.94-10.31,4.28-2.97-1.23-4.79-4.08-4.87-7.12-2.43,6.57-1.35,10.81,2.27,13.41l-.53,1.28-15.37-6.36,.53-1.28c4.39,.71,8.15-1.52,11.08-7.89-2.19,2.1-5.49,2.83-8.47,1.59-4.03-1.66-5.94-6.29-4.28-10.32,1.67-4.02,6.29-5.92,10.32-4.25,1.66,.69,2.98,1.88,3.8,3.34l.38-.91c-1.9-2.18-2.53-5.33-1.35-8.18,1.67-4.03,6.29-5.93,10.31-4.26,4.03,1.67,5.94,6.27,4.27,10.3-1.19,2.87-3.86,4.65-6.75,4.85l-.37,.91c1.61-.45,3.39-.39,5.07,.31,4.01,1.66,5.94,6.27,4.27,10.3Z"/>
      <path class="cls-9" d="M59.99,132.12l-6.36,15.36-1.28-.53c.65-3.96-1.12-7.42-6.17-10.2,1.13,1.86,1.36,4.32,.4,6.62-.18,.45-.41,.88-.67,1.28h-.01c-1.82,2.8-5.24,4.08-8.22,2.84-1.26-.52-2.44-1.17-3.46-2.21-1.21-1.24-2.36-2.84-3.33-4.41-.83-1.32-1.55-2.65-2.1-3.71l-.59-1.11-5.37-10.33,11.09-3.48,1.21-.38c1.14-.36,2.58-.79,4.1-1.14,1.81-.43,3.74-.75,5.49-.77,1.45-.01,2.74,.36,4.01,.89,2.97,1.23,4.49,4.55,3.81,7.81v.02c-.11,.46-.25,.93-.44,1.37-.95,2.3-2.85,3.88-4.97,4.42,5.54,1.6,9.23,.4,11.58-2.87l1.28,.53Z"/>
      <path class="cls-8" d="M150.38,363.47c-1.67,4.03-6.29,5.93-10.32,4.26-1.66-.69-2.98-1.88-3.8-3.35l-.37,.92c1.89,2.17,2.52,5.33,1.34,8.18-1.67,4.03-6.29,5.93-10.31,4.26-4.03-1.67-5.94-6.27-4.27-10.3,1.19-2.87,3.86-4.65,6.75-4.85l.37-.91c-1.61,.45-3.39,.38-5.07-.31-4.01-1.67-5.93-6.28-4.27-10.3,1.67-4.03,6.3-5.94,10.31-4.28,2.97,1.23,4.79,4.08,4.87,7.11,2.44-6.56,1.36-10.8-2.27-13.41l.53-1.28,15.37,6.37-.53,1.28c-4.39-.72-8.15,1.52-11.07,7.88,2.18-2.09,5.49-2.82,8.46-1.59,4.03,1.67,5.94,6.3,4.28,10.32Z"/>
      <path class="cls-7" d="M377.28,273.32l-11.1,3.49-1.21,.38c-1.14,.36-2.58,.79-4.1,1.14-1.8,.43-3.74,.74-5.49,.76-1.45,.02-2.74-.36-4-.88-2.98-1.23-4.5-4.55-3.82-7.81v-.02c.11-.46,.25-.93,.44-1.38,.95-2.3,2.85-3.88,4.97-4.41-5.54-1.6-9.23-.41-11.58,2.87l-1.28-.53,6.36-15.37,1.28,.53c-.64,3.96,1.12,7.42,6.17,10.2-1.13-1.86-1.35-4.32-.4-6.62,.18-.44,.41-.87,.67-1.27v-.02c1.83-2.79,5.25-4.06,8.23-2.83,1.26,.53,2.44,1.18,3.46,2.21,1.22,1.25,2.36,2.84,3.33,4.42,.83,1.32,1.55,2.65,2.1,3.71l.59,1.11,5.38,10.32Z"/>
      <path class="cls-1" d="M197.15,171.35h75c1.67,0,3.03-1.36,3.03-3.03v-33.3c0-1.67-1.36-3.03-3.03-3.03h-124.78c-1.68,0-3.03,1.36-3.03,3.03v142.87c0,1.67,1.35,3.03,3.03,3.03h43.72c1.67,0,3.03-1.36,3.03-3.03v-48.83c0-1.67,1.36-3.03,3.03-3.03h75c1.67,0,3.03-1.36,3.03-3.03v-33.3c0-1.67-1.36-3.03-3.03-3.03h-75c-1.67,0-3.03-1.36-3.03-3.03v-9.26c0-1.67,1.36-3.03,3.03-3.03Z"/>
      <path class="cls-1" d="M333.72,173.82c-5.78-30.46-21.69-57.35-44.07-76.94-12.81-11.35-27.84-20.23-44.28-26.06-14.33-5.14-29.78-7.93-45.85-7.93s-31.51,2.79-45.8,7.93c-16.49,5.78-31.46,14.71-44.33,26.06-22.38,19.59-38.29,46.48-44.07,76.94-1.63,8.3-2.47,16.92-2.47,25.74s.84,17.39,2.47,25.69c5.72,30.51,21.64,57.35,44.07,77,12.87,11.34,27.84,20.27,44.33,26.05,14.29,5.15,29.73,7.93,45.8,7.93s31.52-2.78,45.85-7.93c16.44-5.83,31.47-14.71,44.28-26.05,22.43-19.65,38.35-46.49,44.07-77,1.63-8.3,2.47-16.92,2.47-25.69s-.84-17.44-2.47-25.74Zm-9.5,49.61c-5.32,28.35-20.11,53.29-40.95,71.54-11.91,10.55-25.87,18.79-41.14,24.21-13.33,4.78-27.68,7.37-42.61,7.37s-29.28-2.59-42.56-7.37c-15.32-5.37-29.23-13.66-41.19-24.21-20.84-18.25-35.63-43.19-40.95-71.54-1.51-7.71-2.29-15.72-2.29-23.87s.78-16.2,2.29-23.91c5.37-28.31,20.16-53.3,40.95-71.5,11.96-10.54,25.87-18.84,41.19-24.21,13.28-4.78,27.63-7.37,42.56-7.37s29.28,2.59,42.61,7.37c15.27,5.42,29.23,13.67,41.14,24.21,20.79,18.2,35.58,43.19,40.95,71.5,1.51,7.71,2.29,15.71,2.29,23.91s-.78,16.16-2.29,23.87Z"/>
      <g>
        <path class="cls-5" d="M73.07,278.8h0c-.85-1.37-1.69-2.74-2.5-4.13-.93-1.59-1.83-3.2-2.7-4.83-.44-.81-.86-1.63-1.28-2.45-.43-.83-.84-1.65-1.24-2.48-.41-.83-.81-1.67-1.2-2.5-.51-1.12-1.01-2.23-1.5-3.36-.26-.58-.5-1.16-.75-1.75-.72-1.71-1.41-3.44-2.06-5.19-.33-.88-.65-1.76-.96-2.64-.31-.88-.62-1.77-.91-2.66-.21-.6-.4-1.21-.59-1.82-.19-.58-.37-1.16-.55-1.75l-.21-.69c-.22-.75-.44-1.51-.65-2.27-.07-.24-.14-.48-.2-.72-.21-.75-.42-1.5-.6-2.26-.07-.22-.12-.45-.18-.67-.18-.68-.35-1.37-.5-2.05-.31-1.28-.6-2.57-.87-3.87-.23-1.04-.43-2.08-.63-3.12-.33-1.66-.62-3.34-.89-5.03-.27-1.69-.5-3.39-.71-5.1-.72-5.88-1.09-11.88-1.09-17.94H0c0,12.81,1.23,25.38,3.6,37.5,7.52,40.1,27.15,75.91,54.91,103.52l35.58-35.58c-7.95-7.86-15.01-16.64-21.02-26.16Zm-23.18-7.51c-1.56,2.47-4.08,6.21-6.84,8.71-1.23,1.12-2.64,1.87-4.15,2.49-4.03,1.67-8.53,.03-10.05-3.64-1.39-3.37,.18-7.27,3.52-9.18,.32-.2,.65-.36,1-.51-.35,.15-.7,.28-1.06,.36-3.72,1.01-7.58-.64-8.98-4-1.52-3.68,.5-8.02,4.52-9.68,1.52-.63,3.04-1.1,4.71-1.17,3.71-.19,8.14,.67,10.99,1.32l13.98,3.17-7.64,12.13Z"/>
        <path class="cls-6" d="M304.95,304.96c-2.3,2.37-4.6,4.52-7.05,6.67-13.96,12.42-30.37,22.08-48.31,28.45-15.64,5.67-32.51,8.66-50.07,8.66v50.3c23.46,0,46.01-4.06,66.94-11.58,24-8.51,45.93-21.47,64.64-38.03,3.22-2.84,6.44-5.83,9.43-8.89l-35.58-35.58Zm-31.04,69.97c-6.03-4.74-12.27-8.44-18.69-11.17,2.62-6.47,4.4-13.51,5.31-21.12,6.04,4.73,12.28,8.45,18.71,11.17-2.62,6.47-4.4,13.5-5.33,21.12Z"/>
        <path class="cls-3" d="M395.44,161.95c-7.6-40.03-27.23-75.84-54.91-103.44l-35.58,35.58c5.11,5.08,9.85,10.53,14.19,16.3,.62,.83,1.23,1.66,1.83,2.5,.53,.74,1.06,1.49,1.58,2.25,1.11,1.61,2.18,3.24,3.23,4.89,.49,.77,.97,1.55,1.44,2.33,1.07,1.75,2.09,3.52,3.07,5.31,1,1.79,1.95,3.61,2.85,5.45,.35,.69,.69,1.38,1.02,2.08,2.35,4.86,4.42,9.88,6.2,15.03,.34,.98,.68,1.96,1,2.95,.65,1.98,1.25,3.98,1.81,5.99,.28,1.01,.55,2.02,.81,3.04,.27,1.01,.52,2.03,.75,3.06,.25,1.02,.48,2.05,.69,3.08,.23,1.03,.43,2.07,.63,3.11,.48,2.44,.89,4.9,1.24,7.39,.14,.97,.27,1.96,.39,2.94,.7,5.81,1.06,11.74,1.06,17.73h50.3c0-12.88-1.23-25.45-3.6-37.57Zm-23.19-18.73c-1.51,.63-3.04,1.09-4.7,1.17-3.72,.19-8.15-.67-11-1.32l-13.98-3.17,7.64-12.13c1.56-2.47,4.08-6.21,6.84-8.71,1.24-1.13,2.64-1.87,4.16-2.5,4.02-1.67,8.52-.02,10.04,3.65,1.39,3.36-.17,7.27-3.52,9.18-.32,.2-.65,.35-1,.5,.35-.15,.7-.27,1.06-.35,3.72-1.02,7.59,.64,8.98,4,1.52,3.67-.5,8.01-4.52,9.68Z"/>
        <path class="cls-4" d="M132.66,11.58c-24.08,8.44-45.94,21.47-64.72,38.04-3.22,2.83-6.44,5.82-9.43,8.89l35.58,35.58c1.28-1.28,2.57-2.54,3.87-3.78,.44-.41,.88-.82,1.32-1.23,.61-.55,1.23-1.11,1.86-1.66,2.63-2.32,5.34-4.54,8.13-6.66,.93-.71,1.87-1.41,2.81-2.1,.95-.68,1.9-1.36,2.86-2.03,2.89-1.99,5.86-3.89,8.9-5.68,1.01-.6,2.02-1.18,3.05-1.76h.01c1.02-.57,2.05-1.13,3.09-1.68h.01c1.04-.55,2.08-1.08,3.14-1.61h.01c1.05-.53,2.11-1.04,3.18-1.54h.01c.98-.46,1.96-.9,2.96-1.34,.99-.43,1.98-.86,2.99-1.27,.83-.35,1.67-.69,2.52-1.01,1.56-.62,3.13-1.21,4.72-1.77,15.56-5.6,32.43-8.67,49.99-8.67V0c-23.46,0-46.01,4.07-66.86,11.58Zm6.91,44.84c-6.04-4.73-12.28-8.45-18.71-11.18,2.62-6.47,4.4-13.5,5.34-21.11,6.02,4.73,12.26,8.44,18.68,11.16-2.61,6.47-4.4,13.52-5.31,21.13Z"/>
      </g>
    </g>
  </g>
</svg>