<svg width="316" height="374" viewBox="0 0 316 374" fill="none" xmlns="http://www.w3.org/2000/svg">
<g clip-path="url(#clip0_1763_2946)">
<path d="M278.961 359.37C276.831 359.1 274.511 358.95 272.461 358.37C292.101 347.19 304.041 323.89 288.461 304.12C321.891 287.97 318.331 253.43 286.711 256.87C280.801 257.51 269.701 264.9 268.711 264.87C266.751 264.81 236.821 252.43 232.461 250.12C252.731 250.06 239.001 239.22 238.961 238.12C238.961 237.83 239.501 238.12 239.961 237.37C240.311 236.81 241.771 236.16 241.961 235.12C243.061 229.08 232.931 224.23 228.461 221.87C226.831 221.01 225.061 220.55 223.461 219.62L241.211 208.87C288.811 236.77 291.421 233.97 241.961 208.12C242.941 206.94 249.641 200.01 250.211 199.87C252.951 199.17 281.221 205.71 286.711 206.87L287.461 206.12L251.461 198.62L260.711 185.37C295.161 189.1 298.341 188.52 261.461 184.12C266.851 173.47 264.891 178.18 275.711 178.87C304.351 178.12 266.371 178.46 265.461 175.62C266.411 173.29 271.591 163.85 271.461 162.62C271.171 159.81 258.641 158.64 278.461 153.12C279.371 151.34 267.971 156.62 265.961 154.37C271.411 153.69 280.231 149.64 277.461 142.87C275.991 139.28 269.971 139.36 269.961 138.62C285.761 129.38 264.781 119.49 264.461 118.12C264.141 116.76 270.631 98.3104 271.961 91.1204C275.391 72.6204 275.641 53.7304 272.961 35.1204C271.721 26.5204 268.881 18.4904 266.961 10.1204C266.631 8.6804 268.891 6.5004 265.711 3.8704C238.031 7.0304 211.721 26.5804 193.211 46.8704C146.621 26.3504 119.201 48.4804 115.211 47.8704C112.751 47.4904 100.551 30.3304 76.7112 16.3704C71.7012 13.4304 43.2312 -1.1396 40.4612 5.1204C31.2212 43.0304 27.5412 71.9604 40.4612 109.62C40.9812 111.14 45.0212 118.6 44.9612 119.12C44.8212 120.31 29.5212 129.38 39.9612 138.62C34.8012 141.17 30.2912 139.87 32.4612 144.87C32.7612 145.56 32.9412 145.34 32.9612 145.37C34.0112 149.19 37.2512 151.79 40.9612 152.62C35.7312 153.52 29.4012 149.34 31.7112 151.87C37.3412 155.19 45.0312 154.06 45.4612 154.62C34.6012 162.54 42.6412 164.63 45.4612 176.62C44.4312 178.8 6.4712 178.37 31.7112 179.37C38.8912 179.13 45.0412 177.15 45.7112 177.37C46.5612 177.64 48.8312 184.12 50.4612 185.12C10.6012 188.76 11.5412 189.03 50.7112 186.37L59.9612 197.62L22.9612 207.62C23.2712 209.55 58.4412 197.85 60.7112 198.37C61.4012 198.53 69.1612 207.13 70.9612 208.12L32.9612 229.12C39.2912 228.83 69.5212 208.9 71.7112 208.87C72.8912 208.85 89.0112 219.75 92.4612 220.12C85.7512 223.32 62.8512 232.73 78.4612 236.62C67.5412 242.01 68.0612 250.69 81.7112 250.37C69.7712 256.23 56.6712 259.65 45.2112 266.37C0.251198 238.29 -14.2188 288.26 27.9612 305.62C10.2412 321.22 18.1712 346.42 36.4612 358.37C35.4912 358.63 34.3612 358.98 33.4612 359.37C5.8912 343.51 17.6312 311.79 16.9612 308.62C16.7212 307.48 7.5612 298.99 3.9612 290.62C-6.7288 265.81 9.9712 257.23 10.4612 255.12C10.8712 253.37 5.2012 231.31 4.4612 219.62C2.8612 194.52 7.9512 163.23 15.4612 139.12C18.5412 129.24 31.6112 100.84 31.9612 98.1204C32.5012 93.8404 27.4612 68.1004 28.4612 48.1204C28.8312 40.7504 33.3612 2.1304 40.2112 0.370397C47.0612 -1.3896 72.9312 10.6104 80.2112 14.3704C84.2412 16.4504 95.2712 24.2904 96.2112 24.3704C99.8212 24.6904 119.191 4.9904 165.711 8.3704C198.801 10.7704 209.731 24.6504 212.211 24.3704C212.961 24.2904 217.971 19.4504 224.711 15.8704C232.241 11.8704 262.981 -2.0796 269.711 0.870397C275.121 3.2404 279.191 44.4904 279.461 51.6204C280.151 69.9804 276.411 91.9504 276.961 96.1204C277.511 100.25 286.811 118.65 288.961 124.62C299.171 153 306.371 194.07 305.461 224.12C305.041 237.89 301.451 252.7 301.961 254.12C302.531 255.71 319.921 257.36 314.461 281.62C310.611 298.74 296.221 306.01 295.961 307.62C295.881 308.09 298.571 313.13 298.961 316.62C300.881 333.87 294.031 350.26 278.961 359.37Z" fill="#FCFDFC"/>
<path d="M183.462 231.871C181.302 240.251 182.932 238.471 183.962 240.871C186.382 246.511 189.332 252.111 191.462 257.871C193.342 262.951 194.222 268.311 194.962 270.371C193.212 269.151 177.102 258.361 176.962 261.121C182.512 268.761 193.012 286.091 202.462 285.871C202.952 286.521 203.452 287.251 203.962 287.871C189.742 285.791 189.422 282.261 186.462 288.871C182.552 297.611 184.612 295.601 187.962 297.871C191.402 300.201 192.732 300.211 192.962 300.371C193.142 300.491 193.802 301.841 194.462 302.371C196.102 306.401 191.642 306.431 187.462 309.871C185.992 311.081 184.172 314.431 181.962 314.871C175.922 307.591 151.952 300.071 134.962 311.871C133.532 311.081 132.662 308.451 131.962 306.871C131.142 305.021 130.022 302.951 129.962 300.871C140.082 302.111 143.782 281.391 128.462 286.371C135.302 278.661 139.642 269.311 140.962 259.121L126.962 276.871C127.102 276.541 126.822 275.721 126.962 275.371C127.472 274.051 129.092 271.751 129.962 267.871C133.402 263.291 137.462 246.781 138.462 240.871C139.002 237.661 140.582 238.031 137.462 232.371C139.842 233.781 141.682 237.851 143.962 236.371C138.802 255.651 160.352 272.871 174.462 256.621C179.422 250.911 184.732 236.931 175.962 232.621C176.292 231.981 182.452 232.031 183.462 231.871Z" fill="#FAF8E2"/>
<path d="M138.46 240.87C137.46 246.78 133.4 263.29 129.96 267.87C133.59 240.81 132.45 257.1 127.96 265.37C122.21 275.96 105.77 285.84 94.7097 289.87C79.7297 295.32 65.5497 296.98 49.9597 293.87C56.6997 280.71 48.5597 270.82 48.9597 269.62C49.5097 267.98 62.2997 264.25 64.4597 263.37C73.7997 267.79 83.6697 270.26 92.7097 275.37C96.2397 274.43 84.4397 262.35 72.4597 261.37C82.8097 258.71 93.2597 257.05 103.96 257.12C101.39 245.38 93.1497 241.61 81.9597 240.37C84.5997 238.37 89.3097 235.08 92.4597 234.37C101.98 232.23 127.3 239.14 138.46 240.87Z" fill="#B8754C"/>
<path d="M68.9609 182.371C69.6409 185.171 71.9809 187.861 73.9609 189.871C80.9609 196.951 96.6009 201.001 105.961 197.371C128.301 211.211 153.311 216.001 179.211 211.371C189.431 209.541 205.311 202.971 215.961 199.371C221.381 197.531 226.661 199.141 239.461 189.871C241.911 188.091 244.571 186.801 245.961 183.871C247.851 185.641 249.951 187.221 251.461 189.371C219.021 230.431 150.231 231.441 104.211 217.371C84.0909 211.221 69.4809 203.091 56.9609 185.871C60.9909 185.281 65.3309 184.251 68.9609 182.371Z" fill="#939798"/>
<path d="M125.461 273.871C114.581 293.641 84.9809 301.761 64.2109 302.871C49.4209 303.661 30.5209 304.511 18.9609 294.371C22.8809 293.321 21.1209 292.441 20.4609 289.371C26.5709 294.861 32.8909 295.631 39.4609 290.371C41.2709 292.621 46.5809 292.251 46.9609 292.371C47.6309 292.581 48.0709 293.491 49.9609 293.871C65.5509 296.981 79.7309 295.321 94.7109 289.871C105.771 285.841 122.211 275.961 127.961 265.371C128.241 267.061 126.211 272.511 125.461 273.871Z" fill="#77332E"/>
<path d="M137.461 231.87C136.411 232.14 137.451 232.35 137.461 232.37C140.581 238.03 139.001 237.66 138.461 240.87C127.301 239.14 101.981 232.23 92.4609 234.37C89.2109 230.62 80.7409 238.57 75.4609 232.62C78.9109 229.92 92.7709 222.6 95.7109 222.37C97.8509 222.2 122.141 229.51 137.461 231.87Z" fill="#77332E"/>
<path d="M277.461 142.871C280.231 149.641 271.411 153.691 265.961 154.371C265.831 154.231 266.191 152.881 265.711 152.871C265.621 152.871 264.301 153.871 264.211 153.871C262.631 153.851 259.821 152.271 259.961 154.371C259.881 154.141 258.071 151.431 257.461 150.121C263.141 150.471 271.901 150.181 275.461 145.121C275.221 144.361 271.881 143.671 270.961 143.371C277.351 142.491 275.691 146.981 276.211 147.371C279.501 144.711 275.151 142.671 277.461 142.871Z" fill="#34110F"/>
<path d="M270.961 143.37C271.881 143.67 275.221 144.36 275.461 145.12C271.901 150.18 263.141 150.47 257.461 150.12C258.071 151.43 259.881 154.14 259.961 154.37C260.861 157.08 261.651 160.51 261.961 163.37C261.291 163.37 260.631 163.37 259.961 163.37C259.441 159.19 256.001 147.65 253.461 148.37C256.281 145.25 248.651 129.34 246.461 125.37C248.741 125.42 247.631 123.22 247.961 122.37C255.851 121.61 270.191 122.16 271.461 131.62C258.751 142.53 262.231 140.55 270.961 143.37Z" fill="#8B4639"/>
<path d="M78.4595 162.371C75.4695 161.981 72.7795 163.311 69.9595 163.871C66.8795 164.481 63.4095 165.381 60.4595 165.871C57.8695 163.571 51.9495 163.561 50.4595 159.871C49.6795 157.931 49.6395 154.831 50.4595 152.871C53.4895 153.811 55.3995 152.731 58.4595 152.871C58.7495 152.881 60.4595 154.451 64.2095 153.871C66.4895 153.521 72.1995 148.991 74.9595 147.871C74.9595 152.001 76.5995 158.631 78.4595 162.371Z" fill="#B8754C"/>
<path d="M246.461 163.371C245.681 164.491 251.291 171.461 252.461 172.371L241.461 179.371C235.161 175.001 229.411 174.161 221.961 173.371C225.671 171.511 231.951 165.071 233.961 161.371C238.131 161.731 242.321 162.941 246.461 163.371Z" fill="#8B4639"/>
<path d="M72.4617 261.371C72.0817 261.341 71.9117 261.291 71.9617 260.871C79.8117 257.431 87.1517 252.231 94.9617 248.621C81.2617 245.691 66.1417 252.331 81.9617 240.371C93.1517 241.611 101.392 245.381 103.962 257.121C93.2617 257.051 82.8117 258.711 72.4617 261.371Z" fill="#77332E"/>
<path d="M201.461 302.371L225.961 302.871C230.751 304.961 229.171 303.771 221.961 305.871C213.081 308.461 208.681 310.471 200.461 313.871C196.721 315.421 187.361 320.041 184.961 320.371C187.401 317.151 189.751 313.511 193.461 311.621L187.461 309.871C191.641 306.431 196.101 306.401 194.461 302.371C197.541 304.811 195.251 307.871 201.461 302.371Z" fill="#165D6B"/>
<path d="M78.4609 162.371C79.5209 164.501 85.0009 170.671 86.9609 171.871C80.2509 172.481 77.7509 176.331 73.4609 178.871L56.9609 173.871C61.6509 171.501 65.3009 166.451 69.9609 163.871C72.7809 163.311 75.4709 161.981 78.4609 162.371Z" fill="#8B4639"/>
<path d="M253.461 148.37C256.001 147.65 259.441 159.19 259.961 163.37C255.421 163.42 251.581 163.79 246.961 163.37C246.791 163.36 246.621 163.39 246.461 163.37C242.321 162.94 238.131 161.73 233.961 161.37C234.961 159.53 235.971 156.93 236.461 154.87C239.471 155.55 252.381 149.56 253.461 148.37Z" fill="#A96C4F"/>
<path d="M129.961 300.87C125.931 300.38 125.001 295.81 117.961 295.87C116.361 295.88 113.211 296.8 109.961 296.37C112.481 294.72 115.841 292 117.961 289.87C121.231 291.91 126.081 287.14 128.461 286.37C143.781 281.39 140.081 302.11 129.961 300.87Z" fill="#0E7081"/>
<path d="M203.961 287.871C206.491 290.901 213.151 295.191 211.961 296.371C211.711 296.341 208.051 296.801 206.961 296.871C201.981 297.181 197.451 298.021 192.961 300.371C192.731 300.211 191.401 300.201 187.961 297.871C191.011 296.331 188.311 284.111 186.461 288.871C189.421 282.261 189.741 285.791 203.961 287.871Z" fill="#0E7081"/>
<path d="M97.4631 302.371C106.013 304.721 115.153 304.501 123.963 305.371C124.673 306.521 125.753 307.221 126.463 308.371C119.983 314.151 123.813 314.831 129.963 317.371C129.623 318.221 130.713 320.051 129.213 320.371C128.493 320.531 117.923 314.751 115.963 313.871C108.023 310.311 104.023 308.851 95.9631 305.871C89.7431 303.571 90.6531 305.031 97.4631 302.371Z" fill="#165D6B"/>
<path d="M194.961 270.37C195.051 270.61 194.871 271.13 194.961 271.37C196.801 276.5 199.171 281.5 202.461 285.87C193.011 286.09 182.511 268.76 176.961 261.12C177.101 258.36 193.211 269.15 194.961 270.37Z" fill="#74959A"/>
<path d="M128.461 286.371C126.081 287.141 121.231 291.911 117.961 289.871C119.101 288.731 124.861 281.641 125.461 280.621C126.231 279.311 126.431 278.151 126.961 276.871L140.961 259.121C139.641 269.311 135.301 278.661 128.461 286.371Z" fill="#4F626A"/>
<path d="M251.461 189.371C249.951 187.221 247.851 185.641 245.961 183.871C244.891 182.871 241.721 179.551 241.461 179.371L252.461 172.371C258.861 177.351 265.821 171.191 251.461 189.371Z" fill="#B15E4C"/>
<path d="M56.9624 173.871L73.4624 178.871C72.0424 179.711 70.4524 181.601 68.9624 182.371C65.3324 184.251 60.9924 185.281 56.9624 185.871C55.9424 184.471 49.7824 176.951 50.4624 175.621C50.7324 175.081 55.7924 174.461 56.9624 173.871Z" fill="#B8754C"/>
<path d="M117.961 295.871C120.161 298.721 122.031 301.841 123.961 304.871C124.041 304.991 123.891 305.251 123.961 305.371C115.151 304.501 106.011 304.721 97.4609 302.371C101.811 300.671 106.041 298.951 109.961 296.371C113.211 296.801 116.361 295.881 117.961 295.871Z" fill="#85949D"/>
<path d="M71.9609 260.871C71.9109 261.291 72.0809 261.341 72.4609 261.371C84.4409 262.351 96.2409 274.431 92.7109 275.371C83.6709 270.261 73.8009 267.791 64.4609 263.371C67.0209 262.331 70.1509 261.661 71.9609 260.871Z" fill="#F5E4C2"/>
<path d="M225.961 302.871L201.461 302.371C201.881 302.001 202.371 300.211 202.461 300.121C203.001 299.591 206.001 299.941 206.961 296.871C208.051 296.801 211.711 296.341 211.961 296.371C212.981 296.481 223.081 301.611 225.961 302.871Z" fill="#ADB5B5"/>
<path d="M259.961 163.371C260.631 163.371 261.291 163.371 261.961 163.371C266.311 163.311 270.981 162.181 268.461 166.121C265.641 170.531 249.641 168.521 246.961 163.371C251.581 163.791 255.421 163.421 259.961 163.371Z" fill="#71242D"/>
<path d="M221.961 305.871C222.381 309.011 214.361 310.341 220.711 309.371C222.461 310.491 204.551 314.281 204.461 316.871C204.321 316.931 204.101 316.801 203.961 316.871L200.461 313.871C208.681 310.471 213.081 308.461 221.961 305.871Z" fill="#071E24"/>
<path d="M60.4609 165.871C52.3009 167.231 43.9109 169.761 43.4609 163.621C43.9809 162.151 50.5709 162.541 50.4609 159.871C51.9509 163.561 57.8709 163.571 60.4609 165.871Z" fill="#77332E"/>
<path d="M131.961 306.871C132.661 308.451 133.531 311.081 134.961 311.871C134.381 312.281 131.101 314.661 130.961 314.871C129.191 316.561 128.611 311.881 126.461 308.371C125.751 307.221 124.671 306.521 123.961 305.371C123.891 305.251 124.041 304.991 123.961 304.871C126.861 304.441 129.331 305.831 131.961 306.871Z" fill="#ADB5B5"/>
<path d="M184.961 320.371C181.811 320.801 186.181 319.951 181.961 314.871C184.171 314.431 185.991 311.081 187.461 309.871L193.461 311.621C189.751 313.511 187.401 317.151 184.961 320.371Z" fill="#8CA9AD"/>
<path d="M304.961 280.372L295.461 287.872C295.951 286.022 296.071 282.832 295.961 280.872C297.811 276.462 292.971 267.932 288.711 266.372C286.471 265.552 281.601 266.832 280.961 263.872C294.611 258.292 309.731 263.112 304.961 280.372Z" fill="#F2E053"/>
<path d="M290.963 283.87C286.313 286.44 283.603 285.92 279.463 282.87C278.223 267.34 293.343 270.6 290.963 283.87Z" fill="#F2E053"/>
<path d="M276.461 270.872C272.121 276.222 275.001 280.662 275.461 285.372C271.991 285.552 268.451 284.982 265.961 282.372C266.291 277.602 267.891 274.412 270.961 270.872C276.841 274.622 273.891 270.242 276.461 270.872Z" fill="#E7D287"/>
<path d="M224.961 233.371C228.681 235.591 231.611 238.671 234.461 241.871C223.501 243.731 214.381 241.991 221.961 247.871C222.971 248.651 223.901 248.981 224.461 249.371C221.791 251.631 215.661 250.781 211.961 255.121C212.131 257.011 227.611 259.531 234.961 256.371C237.621 257.821 240.731 259.671 243.461 260.871C233.971 262.121 223.521 264.551 216.961 272.121C216.571 279.181 223.851 271.951 231.211 269.371C237.341 267.221 244.351 266.831 249.961 263.371C252.081 264.201 265.411 267.261 265.961 268.621C266.481 269.911 256.161 280.271 264.461 294.871C231.051 297.281 209.751 287.761 192.961 258.621C192.551 257.911 191.341 256.941 191.461 257.871C189.331 252.111 186.381 246.511 183.961 240.871C199.231 238.991 209.051 232.021 224.961 233.371Z" fill="#B8754C"/>
<path d="M264.461 294.871C272.071 294.321 273.561 296.421 280.461 289.371C282.121 293.011 286.891 291.381 288.961 288.871C292.381 288.971 290.881 290.301 292.211 291.371C292.431 291.541 293.741 291.201 293.961 291.371C294.061 291.451 293.661 292.541 295.461 293.371C277.191 308.381 232.291 303.901 213.711 290.871C211.251 289.141 207.131 284.971 204.961 282.621C200.871 278.181 197.321 270.701 194.961 271.371C194.871 271.131 195.051 270.611 194.961 270.371C194.221 268.311 193.341 262.951 191.461 257.871C191.341 256.941 192.551 257.911 192.961 258.621C209.751 287.761 231.051 297.281 264.461 294.871Z" fill="#77332E"/>
<path d="M239.961 237.371C240.121 236.081 239.621 236.511 238.961 236.371C242.461 231.781 228.791 225.271 223.961 222.871C225.881 222.891 226.891 223.711 228.461 221.871C232.931 224.231 243.061 229.081 241.961 235.121C241.771 236.161 240.311 236.811 239.961 237.371Z" fill="#231212"/>
<path d="M223.963 222.871C228.793 225.271 242.462 231.781 238.962 236.371C233.552 235.211 230.463 233.841 224.963 233.371C209.053 232.021 199.233 238.991 183.963 240.871C182.933 238.471 181.303 240.251 183.463 231.871C190.503 230.721 197.733 228.931 204.713 227.371C212.563 225.611 214.673 222.781 223.963 222.871Z" fill="#77332E"/>
<path d="M243.464 260.871C245.484 261.761 247.864 262.551 249.964 263.371C244.354 266.831 237.344 267.221 231.214 269.371C223.854 271.951 216.574 279.181 216.964 272.121C223.524 264.551 233.974 262.121 243.464 260.871Z" fill="#F5E4C2"/>
<path d="M234.961 256.371C227.611 259.531 212.131 257.011 211.961 255.121C215.661 250.781 221.791 251.631 224.461 249.371C226.631 250.901 233.411 255.531 234.961 256.371Z" fill="#77332E"/>
<path d="M221.963 247.871C214.383 241.991 223.503 243.731 234.463 241.871C241.843 250.161 239.783 247.071 222.713 246.871C222.623 246.871 221.903 247.571 221.963 247.871Z" fill="#8B4639"/>
<path d="M275.462 285.371C276.052 291.361 276.822 292.921 269.712 293.871C265.662 291.701 265.682 286.451 265.962 282.371C268.452 284.981 271.992 285.551 275.462 285.371Z" fill="#B8754C"/>
<path d="M290.961 283.871C290.761 284.991 289.501 288.211 288.961 288.871C286.891 291.381 282.121 293.011 280.461 289.371C280.321 289.071 279.531 283.711 279.461 282.871C283.601 285.921 286.311 286.441 290.961 283.871Z" fill="#D28B54"/>
<path d="M304.962 280.371C303.572 285.401 299.422 290.121 295.462 293.371C293.662 292.541 294.062 291.451 293.962 291.371C293.922 290.261 295.252 288.661 295.462 287.871L304.962 280.371Z" fill="#B8754C"/>
<path d="M129.961 267.87C129.091 271.75 127.471 274.05 126.961 275.37L125.461 273.87C126.211 272.51 128.241 267.06 127.961 265.37C132.451 257.1 133.591 240.81 129.961 267.87Z" fill="#34110F"/>
<path d="M130.961 314.871C130.891 314.981 130.161 316.861 129.961 317.371C123.811 314.831 119.981 314.151 126.461 308.371C128.611 311.881 129.191 316.561 130.961 314.871Z" fill="#74959A"/>
<path d="M143.961 236.371C141.681 237.851 139.841 233.781 137.461 232.371C137.451 232.351 136.411 232.141 137.461 231.871C147.491 233.411 148.791 230.171 143.961 236.371Z" fill="#9FA8B2"/>
<path d="M46.9609 140.371C46.0909 145.221 53.9709 147.291 57.9609 149.371C57.9109 150.691 58.0709 151.631 58.4609 152.871C55.4009 152.731 53.4909 153.811 50.4609 152.871C50.3709 152.841 50.7009 151.581 50.2109 151.371C49.3309 151.001 38.8009 153.751 32.9609 145.371C32.9409 145.341 32.7609 145.561 32.4609 144.871L46.9609 140.371Z" fill="#77332E"/>
<path d="M67.9618 122.871C64.6018 128.971 58.2318 142.801 57.9618 149.371C53.9718 147.291 46.0918 145.221 46.9618 140.371C46.9818 140.271 48.6318 140.481 48.4618 139.121C48.1418 136.451 37.8018 134.371 41.9618 127.621C46.6918 119.941 58.5418 122.791 65.9618 121.371C66.8318 121.681 68.2418 121.611 67.9618 122.871Z" fill="#8B4639"/>
<path d="M129.961 300.87C130.021 302.95 131.141 305.02 131.961 306.87C129.331 305.83 126.861 304.44 123.961 304.87C122.031 301.84 120.161 298.72 117.961 295.87C125.001 295.81 125.931 300.38 129.961 300.87Z" fill="#DCDFD8"/>
<path d="M206.961 296.871C206.001 299.941 203.001 299.591 202.461 300.121C202.371 300.211 201.881 302.001 201.461 302.371C195.251 307.871 197.541 304.811 194.461 302.371C193.801 301.841 193.141 300.491 192.961 300.371C197.451 298.021 201.981 297.181 206.961 296.871Z" fill="#DCDFD8"/>
<path d="M187.96 297.869C184.61 295.599 182.55 297.609 186.46 288.869C188.31 284.109 191.01 296.329 187.96 297.869Z" fill="#417783"/>
<path d="M96.9609 178.37C99.9109 178.62 103.491 180.22 107.461 179.87C110.731 182.83 114.241 185.46 112.961 190.62C112.611 192.01 106.411 197.19 105.961 197.37C96.6009 201 80.9609 196.95 73.9609 189.87C75.5009 174.83 85.9109 177.42 96.9609 178.37Z" fill="#EA8891"/>
<path d="M97.4609 175.371L96.9609 178.371C85.9109 177.421 75.5009 174.831 73.9609 189.871C71.9809 187.861 69.6409 185.171 68.9609 182.371C70.4509 181.601 72.0409 179.711 73.4609 178.871C77.7509 176.331 80.2509 172.481 86.9609 171.871C89.3109 173.311 94.6509 174.941 97.4609 175.371Z" fill="#F7AD99"/>
<path d="M246.461 125.37C248.651 129.34 256.281 145.25 253.461 148.37C252.381 149.56 239.471 155.55 236.461 154.87C240.141 139.3 233.551 131.32 233.961 130.12C248.501 123.84 230.311 129.86 230.961 125.12C235.511 121.06 230.131 122.99 228.461 122.37C227.941 116.62 226.301 115.95 220.961 117.87C213.651 115.32 203.371 116.2 196.461 119.87C195.661 112.25 195.381 101.12 189.461 95.8696C213.871 83.8796 235.511 105.52 246.461 125.37Z" fill="#F3D6B1"/>
<path d="M115.961 313.871L113.211 315.871C105.271 311.041 94.281 311.841 95.961 305.871C104.021 308.851 108.021 310.311 115.961 313.871Z" fill="#071E24"/>
<path d="M281.961 343.371C279.161 343.621 281.531 342.251 281.461 342.121C279.931 339.151 275.371 341.181 275.211 337.871C258.951 355.451 233.501 359.181 210.711 359.871C207.731 367.871 212.941 363.511 218.961 365.371C213.881 365.671 174.761 367.241 173.961 365.121C175.921 360.931 177.031 356.501 177.461 351.871C206.601 352.301 224.761 351.851 252.961 344.371C253.731 344.171 255.231 343.221 256.461 342.871C259.751 341.921 262.951 340.811 266.211 339.871C266.271 339.851 266.591 340.611 267.461 340.371C267.521 340.351 267.381 341.221 268.711 340.871C270.151 340.491 279.571 330.821 281.461 328.871C282.041 328.271 288.081 324.941 288.461 320.121C284.451 314.281 277.931 311.671 272.961 306.871C280.121 306.571 283.791 303.261 287.961 311.621C293.041 321.801 288.481 334.941 281.961 343.371Z" fill="#0E7081"/>
<path d="M281.962 343.371C268.112 361.271 239.952 364.141 218.962 365.371C212.942 363.511 207.732 367.871 210.712 359.871C233.502 359.181 258.952 355.451 275.212 337.871C275.372 341.181 279.932 339.151 281.462 342.121C281.532 342.251 279.162 343.621 281.962 343.371Z" fill="#0E7081"/>
<path d="M281.461 328.871C279.571 330.821 270.151 340.491 268.711 340.871C267.381 341.221 267.521 340.351 267.461 340.371C271.621 337.201 276.701 330.081 281.461 328.871Z" fill="#CCF6F3"/>
<path d="M272.961 306.871C277.931 311.671 284.451 314.281 288.461 320.121C288.081 324.941 282.041 328.271 281.461 328.871C276.701 330.081 271.621 337.201 267.461 340.371C266.591 340.611 266.271 339.851 266.211 339.871C262.951 340.811 259.751 341.921 256.461 342.871L259.961 337.621C263.531 322.181 256.961 340.721 252.961 344.371C224.761 351.851 206.601 352.301 177.461 351.871C178.221 343.591 177.391 341.391 174.961 333.871C176.461 332.781 178.131 329.661 177.961 327.871C191.181 319.731 185.411 324.491 187.711 330.371C191.841 324.221 197.351 320.061 203.961 316.871C204.101 316.801 204.321 316.931 204.461 316.871C208.291 315.071 214.711 312.531 218.711 311.371C239.371 305.391 251.761 307.751 272.961 306.871Z" fill="#2EA7B5"/>
<path d="M210.211 321.871L212.461 322.621C202.401 330.451 205.921 346.191 193.961 339.621L195.211 338.371C203.801 342.011 201.321 328.841 210.211 321.871Z" fill="#9FE1D2"/>
<path d="M259.713 316.371C262.733 314.651 265.173 328.231 256.713 328.871C253.523 327.681 263.153 325.811 259.713 316.371Z" fill="#9FE1D2"/>
<path d="M256.461 342.871C255.231 343.221 253.731 344.171 252.961 344.371C256.961 340.721 263.531 322.181 259.961 337.621L256.461 342.871Z" fill="#CCF6F3"/>
<path d="M239.21 314.371C244.41 313.441 232.92 325.241 233.46 320.121L239.21 314.371Z" fill="#9FE1D2"/>
<path d="M225.211 341.37C229.541 340.92 222.251 351.16 220.461 345.62L225.211 341.37Z" fill="#CCF6F3"/>
<path d="M50.4598 152.871C49.6398 154.831 49.6798 157.931 50.4598 159.871C50.5698 162.541 43.9798 162.151 43.4598 163.621C43.9098 169.761 52.2998 167.231 60.4598 165.871C63.4098 165.381 66.8798 164.481 69.9598 163.871C65.2998 166.451 61.6498 171.501 56.9598 173.871C55.7898 174.461 50.7298 175.081 50.4598 175.621C49.7798 176.951 55.9398 184.471 56.9598 185.871C69.4798 203.091 84.0898 211.221 104.21 217.371C150.23 231.441 219.02 230.431 251.46 189.371C265.82 171.191 258.86 177.351 252.46 172.371C251.29 171.461 245.68 164.491 246.46 163.371C246.62 163.391 246.79 163.361 246.96 163.371C249.64 168.521 265.64 170.531 268.46 166.121C270.98 162.181 266.31 163.311 261.96 163.371C261.65 160.511 260.86 157.081 259.96 154.371C259.82 152.271 262.63 153.851 264.21 153.871C264.3 153.871 265.62 152.871 265.71 152.871C266.19 152.881 265.83 154.231 265.96 154.371C267.97 156.621 279.37 151.341 278.46 153.121C258.64 158.641 271.17 159.811 271.46 162.621C271.59 163.851 266.41 173.291 265.46 175.621C266.37 178.461 304.35 178.121 275.71 178.871C264.89 178.181 266.85 173.471 261.46 184.121C298.34 188.521 295.16 189.101 260.71 185.371L251.46 198.621L287.46 206.121L286.71 206.871C281.22 205.711 252.95 199.171 250.21 199.871C249.64 200.011 242.94 206.941 241.96 208.121C291.42 233.971 288.81 236.771 241.21 208.871L223.46 219.621C225.06 220.551 226.83 221.011 228.46 221.871C226.89 223.711 225.88 222.891 223.96 222.871C214.67 222.781 212.56 225.611 204.71 227.371C197.73 228.931 190.5 230.721 183.46 231.871C182.45 232.031 176.29 231.981 175.96 232.621C184.73 236.931 179.42 250.911 174.46 256.621C160.35 272.871 138.8 255.651 143.96 236.371C148.79 230.171 147.49 233.411 137.46 231.871C122.14 229.511 97.8498 222.201 95.7098 222.371C92.7698 222.601 78.9098 229.921 75.4598 232.621C80.7398 238.571 89.2098 230.621 92.4598 234.371C89.3098 235.081 84.5998 238.371 81.9598 240.371C66.1398 252.331 81.2598 245.691 94.9598 248.621C87.1498 252.231 79.8098 257.431 71.9598 260.871C70.1498 261.661 67.0198 262.331 64.4598 263.371C62.2998 264.251 49.5098 267.981 48.9598 269.621C48.5598 270.821 56.6998 280.711 49.9598 293.871C48.0698 293.491 47.6298 292.581 46.9598 292.371C47.2398 290.491 47.9698 286.881 47.9598 285.371C47.9198 280.811 46.9698 277.121 44.4598 273.371C42.0398 269.751 39.4498 268.131 35.4598 266.371C21.3498 260.161 2.48978 262.681 9.95978 282.371C11.7298 287.031 15.2398 291.111 18.9598 294.371C30.5198 304.511 49.4198 303.661 64.2098 302.871C84.9798 301.761 114.58 293.641 125.46 273.871L126.96 275.371C126.82 275.721 127.1 276.541 126.96 276.871C126.43 278.151 126.23 279.311 125.46 280.621C124.86 281.641 119.1 288.731 117.96 289.871C115.84 292.001 112.48 294.721 109.96 296.371C106.04 298.951 101.81 300.671 97.4598 302.371C90.6498 305.031 89.7398 303.571 95.9598 305.871C94.2798 311.841 105.27 311.041 113.21 315.871L115.96 313.871C117.92 314.751 128.49 320.531 129.21 320.371C130.71 320.051 129.62 318.221 129.96 317.371C130.16 316.861 130.89 314.981 130.96 314.871C131.1 314.661 134.38 312.281 134.96 311.871C151.95 300.071 175.92 307.591 181.96 314.871C186.18 319.951 181.81 320.801 184.96 320.371C187.36 320.041 196.72 315.421 200.46 313.871L203.96 316.871C197.35 320.061 191.84 324.221 187.71 330.371C185.41 324.491 191.18 319.731 177.96 327.871C177.26 328.301 173.56 329.891 173.46 330.121C173.11 330.971 174.46 332.331 174.96 333.871C177.39 341.391 178.22 343.591 177.46 351.871C177.03 356.501 175.92 360.931 173.96 365.121C174.76 367.241 213.88 365.671 218.96 365.371C239.95 364.141 268.11 361.271 281.96 343.371C288.48 334.941 293.04 321.801 287.96 311.621C283.79 303.261 280.12 306.571 272.96 306.871C251.76 307.751 239.37 305.391 218.71 311.371C214.71 312.531 208.29 315.071 204.46 316.871C204.55 314.281 222.46 310.491 220.71 309.371C214.36 310.341 222.38 309.011 221.96 305.871C229.17 303.771 230.75 304.961 225.96 302.871C223.08 301.611 212.98 296.481 211.96 296.371C213.15 295.191 206.49 290.901 203.96 287.871C203.45 287.251 202.95 286.521 202.46 285.871C199.17 281.501 196.8 276.501 194.96 271.371C197.32 270.701 200.87 278.181 204.96 282.621C207.13 284.971 211.25 289.141 213.71 290.871C232.29 303.901 277.19 308.381 295.46 293.371C299.42 290.121 303.57 285.401 304.96 280.371C309.73 263.111 294.61 258.291 280.96 263.871C277.29 265.371 273.57 267.871 270.96 270.871C267.89 274.411 266.29 277.601 265.96 282.371C265.68 286.451 265.66 291.701 269.71 293.871C276.82 292.921 276.05 291.361 275.46 285.371C275 280.661 272.12 276.221 276.46 270.871C281.23 264.981 295.07 264.621 295.96 280.871C296.07 282.831 295.96 286.021 295.46 287.871C295.25 288.661 293.92 290.261 293.96 291.371C293.74 291.201 292.43 291.541 292.21 291.371C290.88 290.301 292.38 288.971 288.96 288.871C289.5 288.211 290.76 284.991 290.96 283.871C293.34 270.601 278.22 267.341 279.46 282.871C279.53 283.711 280.32 289.071 280.46 289.371C273.56 296.421 272.07 294.321 264.46 294.871C256.16 280.271 266.48 269.911 265.96 268.621C265.41 267.261 252.08 264.201 249.96 263.371C247.86 262.551 245.48 261.761 243.46 260.871C240.73 259.671 237.62 257.821 234.96 256.371C233.41 255.531 226.63 250.901 224.46 249.371C223.9 248.981 222.97 248.651 221.96 247.871C221.9 247.571 222.62 246.871 222.71 246.871C239.78 247.071 241.84 250.161 234.46 241.871C231.61 238.671 228.68 235.591 224.96 233.371C230.46 233.841 233.55 235.211 238.96 236.371C239.62 236.511 240.12 236.081 239.96 237.371C239.5 238.121 238.95 237.831 238.96 238.121C239 239.221 252.73 250.061 232.46 250.121C236.82 252.431 266.75 264.811 268.71 264.871C269.7 264.901 280.8 257.511 286.71 256.871C318.33 253.431 321.89 287.971 288.46 304.121C304.04 323.891 292.1 347.191 272.46 358.371C238.9 377.471 176.68 368.601 171.71 369.871C170.77 370.111 169.71 374.051 163.21 372.871C157.64 371.861 158.47 364.831 153.71 365.871C152.45 366.141 152.9 368.031 150.71 368.871C149.25 369.431 125.7 371.221 122.21 371.371C97.0898 372.461 58.0198 372.461 36.4598 358.371C18.1698 346.421 10.2398 321.221 27.9598 305.621C-14.2202 288.261 0.249783 238.291 45.2098 266.371C56.6698 259.651 69.7698 256.231 81.7098 250.371C68.0598 250.691 67.5398 242.011 78.4598 236.621C62.8498 232.731 85.7498 223.321 92.4598 220.121C89.0098 219.751 72.8898 208.851 71.7098 208.871C69.5198 208.901 39.2898 228.831 32.9598 229.121L70.9598 208.121C69.1598 207.131 61.3998 198.531 60.7098 198.371C58.4398 197.851 23.2698 209.551 22.9598 207.621L59.9598 197.621L50.7098 186.371C11.5398 189.031 10.5998 188.761 50.4598 185.121C48.8298 184.121 46.5598 177.641 45.7098 177.371C45.0398 177.151 38.8898 179.131 31.7098 179.371C6.46978 178.371 44.4298 178.801 45.4598 176.621C42.6398 164.631 34.5998 162.541 45.4598 154.621C45.0298 154.061 37.3398 155.191 31.7098 151.871C29.3998 149.341 35.7298 153.521 40.9598 152.621C37.2498 151.791 34.0098 149.191 32.9598 145.371C38.7998 153.751 49.3298 151.001 50.2098 151.371C50.6998 151.581 50.3698 152.841 50.4598 152.871Z" fill="#0E0F11"/>
<path d="M136.956 316.371C136.506 320.831 147.916 316.831 156.206 316.371C163.906 315.951 172.196 317.521 176.456 315.871C176.606 315.981 177.426 315.651 179.456 318.121C176.176 332.721 146.196 322.071 134.956 319.621C134.796 317.911 135.956 317.341 136.956 316.371Z" fill="#B15E4C"/>
<path d="M176.458 315.872C172.198 317.522 163.908 315.952 156.208 316.372C147.918 316.832 136.508 320.832 136.958 316.372C144.128 309.372 166.328 308.012 176.458 315.872Z" fill="#E7D287"/>
<path d="M164.459 362.873C164.759 358.473 158.079 363.283 154.209 362.373C152.699 361.733 154.359 358.003 154.459 356.873C160.089 360.523 162.459 353.343 166.709 355.373C168.069 360.403 164.649 362.503 164.459 362.873Z" fill="#71242D"/>
<path d="M295.957 280.871C295.067 264.621 281.227 264.981 276.457 270.871C273.887 270.241 276.837 274.621 270.957 270.871C273.567 267.871 277.287 265.371 280.957 263.871C281.597 266.831 286.467 265.551 288.707 266.371C292.967 267.931 297.807 276.461 295.957 280.871Z" fill="#F1B976"/>
<path d="M169.456 365.371C167.806 368.041 167.286 369.371 163.706 368.871C160.516 366.271 163.326 364.921 163.956 363.871C164.676 365.871 167.586 364.101 169.456 365.371Z" fill="#77332E"/>
<path d="M174.96 333.871C174.46 332.331 173.11 330.971 173.46 330.121C173.56 329.891 177.26 328.301 177.96 327.871C178.13 329.661 176.46 332.781 174.96 333.871Z" fill="#B9F1FB"/>
<path d="M58.957 348.871C83.207 359.971 123.257 361.271 149.457 356.871C148.917 359.351 148.027 361.651 147.457 364.121C117.127 367.611 37.557 373.601 26.957 336.871C29.937 340.821 38.477 343.321 42.957 343.371C51.247 348.771 47.157 343.641 43.457 335.621C50.177 342.701 48.987 344.301 58.957 348.871Z" fill="#0E7081"/>
<path d="M82.457 348.871C101.067 351.011 130.947 349.661 150.457 348.871C150.357 351.611 150.047 354.191 149.457 356.871C123.257 361.271 83.207 359.971 58.957 348.871L59.457 345.871C62.637 348.011 72.877 350.941 76.707 351.371C80.857 351.831 80.587 348.881 81.207 351.871L82.457 348.871Z" fill="#167F8F"/>
<path d="M27.957 327.871L28.457 327.371C32.027 327.661 35.777 338.701 42.957 343.371C38.477 343.321 29.937 340.821 26.957 336.871C24.737 333.931 24.017 329.941 23.957 326.371L27.957 327.871Z" fill="#0E7081"/>
<path d="M39.958 307.871C39.618 309.631 35.518 312.051 33.458 314.371C29.658 318.641 27.148 321.711 27.958 327.871L23.958 326.371C23.868 321.421 25.018 317.631 27.958 313.621C34.208 305.111 38.508 307.911 39.958 307.871Z" fill="#167F8F"/>
<path d="M150.459 348.872C130.949 349.662 101.069 351.012 82.4587 348.872C73.2787 347.812 62.9587 345.132 55.2087 339.872C52.3587 338.992 57.3087 344.432 59.4587 345.872L58.9587 348.872C48.9887 344.302 50.1787 342.702 43.4587 335.622C47.1587 343.642 51.2487 348.772 42.9587 343.372C35.7787 338.702 32.0287 327.662 28.4587 327.372C28.2487 321.922 34.0287 317.052 33.4587 314.372C35.5187 312.052 39.6187 309.632 39.9587 307.872C47.0287 307.652 54.1387 308.072 61.2087 307.872C66.8087 307.712 76.3187 305.512 81.2087 305.872C84.0687 306.082 111.499 315.182 114.209 316.872C119.639 320.252 122.009 327.802 122.709 327.872C128.979 318.182 132.299 325.312 146.209 326.372C149.919 328.102 150.609 344.802 150.459 348.872Z" fill="#2EA7B5"/>
<path d="M82.4557 348.871L81.2057 351.871C80.5857 348.881 80.8557 351.831 76.7057 351.371C72.8757 350.941 62.6357 348.011 59.4557 345.871C57.3057 344.431 52.3557 338.991 55.2057 339.871C62.9557 345.131 73.2757 347.811 82.4557 348.871Z" fill="#0E7081"/>
<path d="M68.707 328.37C73.037 326.36 78.287 348.25 67.957 330.62L68.707 328.37Z" fill="#9FE1D2"/>
<path d="M79.7051 316.871L81.4551 317.621C85.0251 332.821 78.0151 329.991 79.7051 316.871Z" fill="#9FE1D2"/>
<path d="M114.705 331.371L115.955 332.621C104.625 345.851 102.445 343.411 114.705 331.371Z" fill="#9FE1D2"/>
<path d="M43.207 310.871C52.227 324.421 50.367 328.811 42.457 312.621L43.207 310.871Z" fill="#9FE1D2"/>
<path d="M95.2089 310.871L96.9589 311.621C103.919 328.611 91.5089 312.261 95.2089 310.871Z" fill="#9FE1D2"/>
<path d="M28.4568 327.371L27.9568 327.871C27.1468 321.711 29.6568 318.641 33.4568 314.371C34.0268 317.051 28.2468 321.921 28.4568 327.371Z" fill="#9FE1D2"/>
<path d="M159.206 232.872C188.156 230.032 173.686 257.212 163.206 258.872C149.056 261.112 137.686 234.982 159.206 232.872Z" fill="#EBCA21"/>
<path d="M158.205 234.372C170.775 231.992 174.805 241.552 154.205 240.872C150.485 238.182 155.685 234.852 158.205 234.372Z" fill="#F8E17D"/>
<path d="M169.457 365.372C167.587 364.102 164.677 365.872 163.957 363.872C164.137 363.572 164.297 363.192 164.457 362.872C164.647 362.502 168.067 360.402 166.707 355.372C162.457 353.342 160.087 360.522 154.457 356.872C155.337 346.612 155.537 338.072 152.457 328.122C176.947 326.592 176.587 353.822 169.457 365.372Z" fill="#B8754C"/>
<path d="M168.207 340.373C177.187 343.823 166.397 355.713 166.457 342.123L168.207 340.373Z" fill="#CCC3BC"/>
<path d="M122.461 96.3712C118.911 95.5812 115.061 93.7412 111.461 93.3712C116.001 63.6212 127.381 86.5912 123.961 96.1212C123.781 96.6212 122.541 96.2612 122.461 96.3712Z" fill="#77332E"/>
<path d="M247.961 122.371C247.631 123.221 248.741 125.421 246.461 125.371C235.511 105.521 213.871 83.8811 189.461 95.8711C174.661 103.141 164.471 134.191 163.461 150.121C142.601 167.711 155.101 112.041 122.461 96.8711C122.531 96.7511 122.381 96.4811 122.461 96.3711C122.541 96.2611 123.781 96.6211 123.961 96.1211C127.381 86.5911 116.001 63.6211 111.461 93.3711C90.3809 91.1911 77.2109 106.061 67.9609 122.871C68.2409 121.611 66.8309 121.681 65.9609 121.371C60.6809 119.491 55.1409 118.281 49.9609 116.121C55.6309 92.1511 75.7909 74.6211 76.4609 72.1211C76.9109 70.4611 76.2909 61.1211 75.9609 58.6211C73.5009 39.9811 59.9409 19.7811 44.9609 8.62109C68.0509 14.7111 90.1409 29.0211 106.461 46.3711C106.051 47.5511 104.711 46.6211 103.961 46.3711C88.8809 41.4311 89.8809 31.6411 95.9609 55.8711C95.9809 59.6911 98.0809 57.9511 100.461 57.3711C112.391 54.4511 129.591 45.9511 138.211 44.3711C177.241 37.2211 207.391 60.7311 211.211 58.8711C211.681 58.6411 211.361 58.0611 211.461 57.8711C211.941 56.9511 212.741 51.2211 213.461 49.3711C219.801 33.0811 222.591 40.0411 204.461 46.3711C204.111 46.2211 203.021 46.7011 201.961 45.8711C217.941 27.4211 239.411 14.4611 262.961 8.12109C246.461 17.4811 225.791 57.0511 230.461 68.6211C231.531 71.2711 254.621 90.3511 259.961 116.621C261.311 120.491 249.141 118.881 247.961 120.621C247.781 120.881 248.121 121.951 247.961 122.371Z" fill="#B8754C"/>
<path d="M185.712 69.8706C193.452 68.5406 193.562 92.0906 186.212 94.8706C175.422 96.7606 180.452 70.7806 185.712 69.8706Z" fill="#77332E"/>
<path d="M137.71 61.8712C142.18 60.9712 145.79 88.4612 141.71 89.3712C138.48 90.0912 126.53 70.9112 137.71 61.8712Z" fill="#5E231A"/>
<path d="M155.211 50.8704C162.051 48.6204 159.951 69.4404 155.211 75.8704C153.031 75.9704 152.411 51.7904 155.211 50.8704Z" fill="#0E0F11"/>
<path d="M168.712 50.3711C178.542 53.6211 170.392 81.8111 167.962 75.6211C169.782 65.8711 165.972 50.9911 168.712 50.3711Z" fill="#0E0F11"/>
<path d="M107.461 50.8711C109.921 56.5011 102.141 54.2311 100.461 57.3711C98.0809 57.9511 95.9809 59.6911 95.9609 55.8711C98.5709 54.9711 101.031 53.6511 103.461 52.3711C104.201 51.9811 107.141 51.1011 107.461 50.8711Z" fill="#34110F"/>
<path d="M106.46 46.3711C108.73 48.7811 110.82 48.4511 107.46 50.8711C107.14 51.1011 104.2 51.9811 103.46 52.3711C99.27 47.0011 101.01 49.1511 103.96 46.3711C104.71 46.6211 106.05 47.5511 106.46 46.3711Z" fill="#77332E"/>
<path d="M103.96 46.3707C101.01 49.1507 99.2695 47.0007 103.46 52.3707C101.03 53.6507 98.5695 54.9707 95.9595 55.8707C89.8795 31.6407 88.8795 41.4307 103.96 46.3707Z" fill="#8B4639"/>
<path d="M204.461 46.3691C206.481 47.2791 210.761 51.0091 213.461 49.3691C212.741 51.2191 211.941 56.9491 211.461 57.8691L198.461 49.6191C199.261 48.0391 200.901 47.0891 201.961 45.8691C203.021 46.6991 204.111 46.2191 204.461 46.3691Z" fill="#77332E"/>
<path d="M213.461 49.3698C210.761 51.0098 206.481 47.2798 204.461 46.3698C222.591 40.0398 219.801 33.0798 213.461 49.3698Z" fill="#77332E"/>
<path d="M277.46 142.871C275.15 142.671 279.5 144.711 276.21 147.371C275.69 146.981 277.35 142.491 270.96 143.371C262.23 140.551 258.75 142.531 271.46 131.621C270.19 122.161 255.85 121.611 247.96 122.371C248.12 121.951 247.78 120.881 247.96 120.621C249.14 118.881 261.31 120.491 259.96 116.621C254.62 90.351 231.53 71.271 230.46 68.621C225.79 57.051 246.46 17.481 262.96 8.12099C239.41 14.461 217.94 27.421 201.96 45.871C200.9 47.091 199.26 48.041 198.46 49.621L211.46 57.871C211.36 58.061 211.68 58.641 211.21 58.871C207.39 60.731 177.24 37.221 138.21 44.371C129.59 45.951 112.39 54.451 100.46 57.371C102.14 54.231 109.92 56.501 107.46 50.871C110.82 48.451 108.73 48.781 106.46 46.371C90.1402 29.021 68.0502 14.711 44.9602 8.62099C59.9402 19.781 73.5002 39.981 75.9602 58.621C76.2902 61.121 76.9102 70.461 76.4602 72.121C75.7902 74.621 55.6302 92.151 49.9602 116.121C55.1402 118.281 60.6802 119.491 65.9602 121.371C58.5402 122.791 46.6902 119.941 41.9602 127.621C37.8002 134.371 48.1402 136.451 48.4602 139.121C48.6302 140.481 46.9802 140.271 46.9602 140.371L32.4602 144.871C30.2902 139.871 34.8002 141.171 39.9602 138.621C29.5202 129.381 44.8202 120.311 44.9602 119.121C45.0202 118.601 40.9802 111.141 40.4602 109.621C27.5402 71.961 31.2202 43.031 40.4602 5.12099C43.2302 -1.13901 71.7002 13.431 76.7102 16.371C100.55 30.331 112.75 47.491 115.21 47.871C119.2 48.481 146.62 26.351 193.21 46.871C211.72 26.581 238.03 7.03099 265.71 3.87099C268.89 6.50099 266.63 8.68099 266.96 10.121C268.88 18.491 271.72 26.521 272.96 35.121C275.64 53.731 275.39 72.621 271.96 91.121C270.63 98.311 264.14 116.761 264.46 118.121C264.78 119.491 285.76 129.381 269.96 138.621C269.97 139.361 275.99 139.281 277.46 142.871Z" fill="#0E0F11"/>
<path d="M58.961 37.3711C57.041 41.1911 55.481 45.1211 52.961 48.6211C42.981 58.5911 51.471 50.5211 57.211 49.8711C64.411 49.0611 58.851 50.5611 54.461 53.3711C49.331 56.6511 42.181 61.0411 53.461 58.6211L46.461 63.1211C64.001 62.8711 35.621 66.5311 50.961 71.6211C48.891 73.2411 47.281 72.0911 47.461 75.3711C47.601 77.8911 50.351 78.6811 50.461 79.1211C50.701 80.0511 49.681 95.1011 50.961 98.3711L45.961 110.621C35.541 86.8511 34.541 39.5911 42.961 16.3711L55.461 34.1211C41.171 50.8211 39.581 50.4611 57.211 36.3711L58.961 37.3711Z" fill="#E5768F"/>
<path d="M50.9609 98.3711C49.6809 95.1011 50.7009 80.0511 50.4609 79.1211C50.3509 78.6811 47.6009 77.8911 47.4609 75.3711C68.2109 74.1911 57.3009 69.1311 57.4609 67.6211C57.5709 66.6211 62.3309 65.4711 60.9609 61.6211C60.5409 60.4411 55.7109 60.6411 62.4609 53.6211C58.6409 52.0111 54.1409 57.1011 54.4609 53.3711C58.8509 50.5611 64.4109 49.0611 57.2109 49.8711C51.4709 50.5211 42.9809 58.5911 52.9609 48.6211C55.4809 45.1211 57.0409 41.1911 58.9609 37.3711C59.4109 36.4711 61.1609 34.5811 61.4609 32.8711C65.7509 40.0411 70.9009 51.4611 71.9609 59.6211C73.9109 74.6411 68.8909 71.4911 58.9609 85.6211C56.0809 89.7111 54.4609 94.7011 50.9609 98.3711Z" fill="#8C254B"/>
<path d="M61.4609 32.8711C61.1609 34.5811 59.4109 36.4711 58.9609 37.3711L57.2109 36.3711C39.5809 50.4611 41.1709 50.8211 55.4609 34.1211L42.9609 16.3711C43.2109 15.6811 42.9409 13.6411 44.7109 12.3711C51.1209 18.5311 56.8909 25.2211 61.4609 32.8711Z" fill="#AC3B62"/>
<path d="M47.4596 75.3719C47.2796 72.0919 48.8896 73.2419 50.9596 71.6219C35.6196 66.5319 63.9996 62.8719 46.4596 63.1219L53.4596 58.6219C42.1796 61.0419 49.3296 56.6519 54.4596 53.3719C54.1396 57.1019 58.6396 52.0119 62.4596 53.6219C55.7096 60.6419 60.5396 60.4419 60.9596 61.6219C62.3296 65.4719 57.5696 66.6219 57.4596 67.6219C57.2996 69.1319 68.2096 74.1919 47.4596 75.3719Z" fill="#AC3B62"/>
<path d="M256.961 95.8711L259.461 74.1211C244.431 67.9011 261.971 74.0111 260.961 65.6211C260.311 64.7511 250.551 64.7311 248.711 64.3711C243.221 63.3111 260.311 62.9111 245.461 61.1211L258.461 59.3711C266.421 60.2311 258.641 55.6211 255.961 52.8711C252.841 49.6711 250.241 46.2211 245.961 44.1211C251.261 43.7211 255.341 47.3511 259.961 49.1211C256.251 45.4311 246.161 40.4511 249.961 36.3711L251.711 34.3711C269.881 49.8411 252.641 34.3011 252.961 32.1211C253.091 31.2111 263.191 19.9511 264.461 17.8711C271.581 48.8511 273.351 76.1511 262.461 106.621C261.181 107.681 259.161 99.7611 256.961 95.8711Z" fill="#E5768F"/>
<path d="M249.962 36.3708C246.162 40.4508 256.252 45.4308 259.962 49.1208C255.342 47.3508 251.262 43.7208 245.962 44.1208C250.242 46.2208 252.842 49.6708 255.962 52.8708C253.312 57.1408 247.792 55.4308 243.462 56.6208C248.352 57.7108 253.492 58.8308 258.462 59.3708L245.462 61.1208C260.312 62.9108 243.222 63.3108 248.712 64.3708C250.552 64.7308 260.312 64.7508 260.962 65.6208C261.972 74.0108 244.432 67.9008 259.462 74.1208L256.962 95.8708C248.362 80.6408 233.892 69.4108 233.462 67.6208C231.832 60.8408 240.972 40.7908 244.962 34.3708C250.112 32.8208 247.332 35.4908 249.962 36.3708Z" fill="#8C254B"/>
<path d="M264.461 17.8711C263.191 19.9511 253.091 31.2111 252.961 32.1211C252.641 34.3011 269.881 49.8411 251.711 34.3711L249.961 36.3711C247.331 35.4911 250.111 32.8211 244.961 34.3711C250.131 26.0611 256.921 19.3211 263.211 11.8711C264.041 11.9611 264.281 17.0911 264.461 17.8711Z" fill="#AC3B62"/>
<path d="M258.461 59.3711C253.491 58.8311 248.351 57.7111 243.461 56.6211C247.791 55.4311 253.311 57.1411 255.961 52.8711C258.641 55.6211 266.421 60.2311 258.461 59.3711Z" fill="#AC3B62"/>
<path d="M111.462 93.3694C115.062 93.7394 118.912 95.5794 122.462 96.3694C122.382 96.4794 122.532 96.7494 122.462 96.8694C118.452 103.659 116.562 111.569 114.462 119.369C107.212 116.289 97.882 115.229 90.462 118.369C89.632 117.779 89.462 117.639 88.462 117.369C86.012 116.699 82.922 116.739 81.962 119.869C80.442 120.759 82.442 121.779 82.962 122.869C70.392 116.479 82.412 124.859 82.462 126.119C82.512 127.279 74.982 136.199 74.962 147.869C72.202 148.989 66.492 153.519 64.212 153.869C60.462 154.449 58.752 152.879 58.462 152.869C58.072 151.629 57.912 150.689 57.962 149.369C58.232 142.799 64.602 128.969 67.962 122.869C77.212 106.059 90.382 91.1894 111.462 93.3694Z" fill="#F5E4C2"/>
<path d="M90.4622 118.369C86.8922 119.879 83.5022 125.449 82.9622 122.869C82.4422 121.779 80.4422 120.759 81.9622 119.869L88.4622 117.369C89.4622 117.639 89.6322 117.779 90.4622 118.369Z" fill="#E5B699"/>
<path d="M88.4609 117.369L81.9609 119.869C82.9209 116.739 86.0109 116.699 88.4609 117.369Z" fill="#34110F"/>
<path d="M239.461 189.871C226.661 199.141 221.381 197.531 215.961 199.371C205.951 194.501 206.571 190.151 202.461 182.871C205.551 181.321 209.091 180.041 212.461 179.371C219.141 178.041 243.301 175.341 239.961 187.621C239.591 188.961 237.361 189.971 239.461 189.871Z" fill="#EA8891"/>
<path d="M241.461 179.371C241.721 179.551 244.891 182.871 245.961 183.871C244.571 186.801 241.911 188.091 239.461 189.871C237.361 189.971 239.591 188.961 239.961 187.621C243.301 175.341 219.141 178.041 212.461 179.371V175.871C215.941 175.661 218.841 174.931 221.961 173.371C229.411 174.161 235.161 175.001 241.461 179.371Z" fill="#F7AD99"/>
<path d="M212.461 175.871V179.371C209.091 180.041 205.551 181.321 202.461 182.871C200.651 179.671 199.551 175.701 196.961 172.871C202.511 175.391 206.341 176.251 212.461 175.871Z" fill="#E5B699"/>
<path d="M113.461 174.871C114.571 176.051 115.071 173.341 115.961 176.871C114.081 177.701 109.091 179.731 107.461 179.871C103.491 180.221 99.9109 178.621 96.9609 178.371L97.4609 175.371C102.811 176.201 108.261 176.261 113.461 174.871Z" fill="#E5B699"/>
<path d="M115.961 176.871C115.071 173.341 114.571 176.051 113.461 174.871C114.661 174.551 115.841 173.891 116.961 173.371C118.221 172.781 120.301 171.301 121.461 170.371C122.061 169.891 122.921 169.401 123.461 168.871C125.711 173.551 119.271 175.411 115.961 176.871Z" fill="#F5E4C2"/>
<path d="M35.4612 266.37C29.3612 268.45 25.3712 265.71 20.9612 272.37C18.2612 276.45 18.2912 279.72 18.9612 284.37C15.0812 284.72 13.2412 284.25 9.96119 282.37C2.49119 262.68 21.3512 260.16 35.4612 266.37Z" fill="#F2E053"/>
<path d="M47.9611 285.371L38.4611 284.371C38.0911 277.601 39.4811 275.351 39.4611 274.871L44.4611 273.371C46.9711 277.121 47.9211 280.811 47.9611 285.371Z" fill="#E7D287"/>
<path d="M35.4609 266.371C39.4509 268.131 42.0409 269.751 44.4609 273.371L39.4609 274.871C39.2909 270.081 27.5009 266.431 20.9609 272.371C25.3709 265.711 29.3609 268.451 35.4609 266.371Z" fill="#F1B976"/>
<path d="M18.9609 284.371C19.2809 286.601 20.1009 287.701 20.4609 289.371C21.1209 292.441 22.8809 293.321 18.9609 294.371C15.2409 291.111 11.7309 287.031 9.96094 282.371C13.2409 284.251 15.0809 284.721 18.9609 284.371Z" fill="#CB6548"/>
<path d="M47.9609 285.371C47.9709 286.881 47.2409 290.491 46.9609 292.371C46.5809 292.251 41.2709 292.621 39.4609 290.371C38.2509 288.861 38.5609 286.151 38.4609 284.371L47.9609 285.371Z" fill="#D28B54"/>
<path d="M39.4614 274.87C39.4814 275.35 38.0914 277.6 38.4614 284.37C38.5614 286.15 38.2514 288.86 39.4614 290.37C32.8914 295.63 26.5714 294.86 20.4614 289.37C20.1014 287.7 19.2814 286.6 18.9614 284.37C18.2914 279.72 18.2614 276.45 20.9614 272.37C27.5014 266.43 39.2914 270.08 39.4614 274.87Z" fill="#0E0F11"/>
<path d="M34.4609 284.369C30.6109 284.869 26.8009 285.709 23.4609 283.369C23.5709 277.279 25.2809 274.639 31.7109 274.869C35.4609 277.269 34.3209 280.499 34.4609 284.369Z" fill="#F2E053"/>
<path d="M34.4631 284.369C34.5531 286.819 34.5331 289.199 34.9631 291.619C28.2331 294.329 23.3431 290.379 23.4631 283.369C26.8031 285.709 30.6131 284.869 34.4631 284.369Z" fill="#CB6548"/>
<path d="M114.461 119.37C133.981 127.66 138.381 154.13 123.461 168.87C122.921 169.4 122.061 169.89 121.461 170.37C120.781 167.33 128.731 166.13 122.961 162.37C124.641 159.84 125.381 157.65 126.461 154.87C127.091 153.24 129.201 150.21 129.461 148.62C129.531 148.18 129.541 140.06 129.461 139.62C129.131 137.72 126.271 133.96 125.961 133.12C125.371 131.51 128.321 131.76 125.211 129.87C125.671 133.89 124.681 129.33 122.461 131.87C120.561 130.27 118.791 128.84 116.461 127.87C114.761 127.16 112.771 126.73 110.961 126.37C107.651 122.16 90.661 125.35 87.211 128.37C85.561 129.81 83.081 134.8 87.461 131.37C85.901 133.15 85.901 133.61 84.961 135.37C81.421 141.98 80.811 144.68 81.461 152.37C82.031 159.12 83.341 161.08 87.961 165.87C95.831 174.04 104.621 175.95 114.961 170.37C114.531 172.76 115.711 172.09 116.961 173.37C115.841 173.89 114.661 174.55 113.461 174.87C108.261 176.26 102.811 176.2 97.461 175.37C94.651 174.94 89.311 173.31 86.961 171.87C85.001 170.67 79.521 164.5 78.461 162.37C76.601 158.63 74.951 152 74.961 147.87C74.981 136.2 82.511 127.28 82.461 126.12C82.411 124.86 70.391 116.48 82.961 122.87C83.501 125.45 86.891 119.88 90.461 118.37C97.881 115.23 107.211 116.29 114.461 119.37Z" fill="#0E0F11"/>
<path d="M112.461 129.869C108.891 131.359 104.811 132.369 105.461 137.119C110.651 144.379 118.311 132.949 119.711 132.369C120.811 131.919 124.061 133.729 122.461 131.869C124.681 129.329 125.671 133.889 125.211 129.869C128.321 131.759 125.371 131.509 125.961 133.119C126.271 133.959 129.131 137.719 129.461 139.619C129.541 140.059 129.531 148.179 129.461 148.619C129.201 150.209 127.091 153.239 126.461 154.869C117.281 169.139 105.751 168.789 91.9609 160.869H91.4609C90.8109 158.209 88.0009 155.159 87.4609 152.369C86.5209 147.519 88.7609 144.739 85.9609 136.369C87.3109 135.789 88.5309 131.819 88.9609 131.369C94.1309 125.909 106.041 126.839 112.461 129.869Z" fill="#0D0C1A"/>
<path d="M91.9609 160.869C95.8209 167.429 103.951 170.499 111.211 169.369C115.651 168.679 118.231 164.379 122.461 163.369C120.591 165.929 117.731 168.869 114.961 170.369C104.621 175.949 95.8309 174.039 87.9609 165.869C91.0609 165.649 92.1209 163.589 91.4609 160.869H91.9609Z" fill="#C0E2F0"/>
<path d="M122.459 131.869C124.059 133.729 120.809 131.919 119.709 132.369C118.309 132.949 110.649 144.379 105.459 137.119C104.809 132.369 108.889 131.359 112.459 129.869C113.799 129.309 115.419 129.039 116.459 127.869C118.789 128.839 120.559 130.269 122.459 131.869Z" fill="#FCFDFC"/>
<path d="M122.961 162.369C122.811 162.589 122.611 163.169 122.461 163.369C118.231 164.379 115.651 168.679 111.211 169.369C103.951 170.499 95.8209 167.429 91.9609 160.869C105.751 168.789 117.281 169.139 126.461 154.869C125.381 157.649 124.641 159.839 122.961 162.369Z" fill="#93B333"/>
<path d="M85.9627 136.369C88.7627 144.739 86.5227 147.519 87.4627 152.369C84.8027 154.789 84.5327 153.169 81.4627 152.369C80.8127 144.679 81.4227 141.979 84.9627 135.369C85.5127 135.429 85.8027 135.889 85.9627 136.369Z" fill="#595811"/>
<path d="M87.4609 152.369C88.0009 155.159 90.8109 158.209 91.4609 160.869C92.1209 163.589 91.0609 165.649 87.9609 165.869C83.3409 161.079 82.0309 159.119 81.4609 152.369C84.5309 153.169 84.8009 154.789 87.4609 152.369Z" fill="#67C3E1"/>
<path d="M110.961 126.371C112.771 126.731 114.761 127.161 116.461 127.871C115.421 129.041 113.801 129.311 112.461 129.871C106.041 126.841 94.1309 125.911 88.9609 131.371L88.4609 130.371C95.4209 123.811 102.041 124.611 110.961 126.371Z" fill="#0D4D84"/>
<path d="M121.461 170.369C120.301 171.299 118.221 172.779 116.961 173.369C115.711 172.089 114.531 172.759 114.961 170.369C117.731 168.869 120.591 165.929 122.461 163.369C122.611 163.169 122.811 162.589 122.961 162.369C128.731 166.129 120.781 167.329 121.461 170.369Z" fill="#0D0C1A"/>
<path d="M110.962 126.37C102.042 124.61 95.4223 123.81 88.4623 130.37C88.0623 130.74 87.8323 130.94 87.4623 131.37C83.0823 134.8 85.5623 129.81 87.2123 128.37C90.6623 125.35 107.652 122.16 110.962 126.37Z" fill="#0D0C1A"/>
<path d="M88.9609 131.369C88.5309 131.819 87.3109 135.789 85.9609 136.369C85.8009 135.889 85.5109 135.429 84.9609 135.369C85.9009 133.609 85.9009 133.149 87.4609 131.369C87.8309 130.939 88.0609 130.739 88.4609 130.369L88.9609 131.369Z" fill="#6599D4"/>
<path d="M220.961 117.871C223.781 118.851 225.931 121.431 228.461 122.371C230.131 122.991 235.511 121.061 230.961 125.121C230.311 129.861 248.501 123.841 233.961 130.121C233.551 131.321 240.141 139.301 236.461 154.871C235.971 156.931 234.961 159.531 233.961 161.371C231.951 165.071 225.671 171.511 221.961 173.371C218.841 174.931 215.941 175.661 212.461 175.871C206.341 176.251 202.511 175.391 196.961 172.871C194.951 170.671 190.101 168.801 186.961 164.121C177.681 150.271 181.171 127.981 196.461 119.871C203.371 116.201 213.651 115.321 220.961 117.871Z" fill="#0D0C1A"/>
<path d="M228.461 122.37C225.931 121.43 223.781 118.85 220.961 117.87C226.301 115.95 227.941 116.62 228.461 122.37Z" fill="#A96C4F"/>
<path d="M189.961 160.371C206.591 174.431 210.041 168.971 220.961 160.371C226.961 155.651 228.581 151.961 231.461 154.621C225.921 174.961 200.671 179.991 189.961 160.371Z" fill="#C0E2F0"/>
<path d="M220.459 128.371C228.009 129.241 218.699 139.281 215.209 139.871C206.729 141.301 206.299 131.161 217.459 128.871C218.509 128.651 219.319 128.241 220.459 128.371Z" fill="#FCFDFC"/>
<path d="M220.96 160.371C210.04 168.971 206.59 174.431 189.96 160.371C189.53 159.581 185.27 151.171 186.71 150.871C193.53 166.841 206.56 168.901 220.96 160.371Z" fill="#93B333"/>
<path d="M226.711 143.371C237.811 146.401 226.461 160.841 224.461 146.121L226.711 143.371Z" fill="#73800D"/>
<path d="M220.461 128.371C219.321 128.241 218.511 128.651 217.461 128.871C212.751 125.281 197.161 127.571 193.461 130.371C200.191 124.211 213.121 122.761 220.461 128.371Z" fill="#0D4D84"/>
<path d="M192.458 131.371C192.268 131.581 192.528 133.151 189.708 136.371C188.968 133.991 191.308 132.691 192.458 131.371Z" fill="#DFE4EA"/>
<path d="M192.461 131.371C192.861 130.921 192.941 130.761 193.461 130.371C193.391 130.441 192.511 131.321 192.461 131.371Z" fill="#0D4D84"/>
<path d="M189.461 95.8711C195.381 101.121 195.661 112.251 196.461 119.871C181.171 127.981 177.681 150.271 186.961 164.121C190.101 168.801 194.951 170.671 196.961 172.871C199.551 175.701 200.651 179.671 202.461 182.871C206.571 190.151 205.951 194.501 215.961 199.371C205.311 202.971 189.431 209.541 179.211 211.371C153.311 216.001 128.301 211.211 105.961 197.371C106.411 197.191 112.611 192.011 112.961 190.621C114.241 185.461 110.731 182.831 107.461 179.871C109.091 179.731 114.081 177.701 115.961 176.871C119.271 175.411 125.711 173.551 123.461 168.871C138.381 154.131 133.981 127.661 114.461 119.371C116.561 111.571 118.451 103.661 122.461 96.8711C155.101 112.041 142.601 167.711 163.461 150.121C164.471 134.191 174.661 103.141 189.461 95.8711Z" fill="#FAF8E2"/>
<path d="M177.211 182.871C182.161 183.451 179.281 187.361 176.461 184.121L177.211 182.871Z" fill="#071E24"/>
<path d="M139.712 181.871C143.302 183.161 137.882 186.841 137.962 183.121L139.712 181.871Z" fill="#0D0C1A"/>
<path d="M153.212 169.872C168.772 167.482 177.792 175.622 159.962 182.122C158.382 192.072 170.112 200.572 177.212 191.372C179.512 191.632 175.492 199.512 166.212 196.872C160.192 195.162 159.252 189.032 158.712 188.872C157.872 188.622 155.302 198.952 144.712 197.372C140.682 196.772 136.572 190.882 139.712 191.372C147.182 199.742 157.782 192.602 156.962 182.122C147.832 179.212 142.942 171.452 153.212 169.872Z" fill="#0E0F11"/>
<path d="M155.211 170.873C157.561 170.643 168.331 171.013 167.961 174.623C159.291 186.613 139.801 172.383 155.211 170.873Z" fill="#F3CED8"/>
</g>
<defs>
<clipPath id="clip0_1763_2946">
<rect width="316" height="374" fill="white"/>
</clipPath>
</defs>
</svg>
