<svg width="1434" height="1523" viewBox="0 0 1434 1523" fill="none" xmlns="http://www.w3.org/2000/svg">
<path d="M823.427 0.197129C784.513 1.97313 752.196 35.1839 751.381 74.2346C750.96 96.3826 760.048 117.246 776.423 132.036C772.725 140.954 769.188 150.648 765.889 160.9C753.065 201.088 743.691 251.244 738.035 309.981C734.248 349.732 732.137 392.731 731.753 437.784C731.735 440.261 733.607 442.345 736.069 442.592C747.235 443.702 758.396 444.852 769.552 446.06L770.067 446.088C771.237 446.088 772.375 445.659 773.255 444.873C774.269 443.969 774.851 442.682 774.86 441.328C775.304 375.24 779.365 315.861 786.933 264.841C792.015 230.269 798.764 199.716 806.987 174.019C809.603 165.789 812.439 157.929 815.429 150.593C819.3 151.182 823.192 151.48 827.049 151.48C868.775 151.48 902.717 117.514 902.717 75.7652C902.717 34.0492 868.784 0.113145 827.068 0.113145C825.86 0.113145 824.643 0.141129 823.427 0.197129Z" fill="url(#paint0_linear_1_3)"/>
<path d="M823.647 4.98387C786.891 6.66121 756.94 37.5238 756.175 74.3265C755.743 97.0412 765.997 117.36 782.196 130.681C777.883 140.746 774.001 151.336 770.456 162.359C756.125 207.261 747.74 259.208 742.804 310.436C738.52 355.421 736.871 399.778 736.545 437.821C747.723 438.936 758.899 440.086 770.067 441.294C770.419 389.292 773.205 324.764 782.196 264.145C786.987 231.557 793.603 200.121 802.419 172.565C805.484 162.933 808.84 153.781 812.484 145.202C817.179 146.16 822.067 146.688 827.049 146.688C866.203 146.688 897.925 114.916 897.925 75.7638C897.925 36.6918 866.24 4.90646 827.071 4.9038C825.933 4.9038 824.796 4.93054 823.647 4.98387Z" fill="url(#paint1_linear_1_3)"/>
<path d="M160.757 109.905C158.885 113.132 114.68 190.253 90.1067 304.863C67.6373 409.632 58.56 565.923 141.468 718.567C135.584 726.637 129.711 736.019 123.955 746.545C89.6986 789.345 61.952 826.128 41.4733 855.873C9.88932 901.751 -4.05337 957.277 2.22263 1012.23C16.852 1140.36 90.752 1291.12 163.603 1341.43C380.364 1491.13 601.411 1522.55 748.681 1522.55C908.951 1522.55 1064.93 1486.28 1187.88 1420.41C1306.71 1356.75 1377.83 1273.44 1383.03 1191.83L1383.36 1187.02C1383.86 1180.2 1384.38 1173.15 1383.72 1166.05C1372.49 1044.33 1278.74 765.52 1263.81 721.689C1288.99 693.779 1473.17 478.929 1426.32 217.204C1425.54 212.885 1421.94 209.644 1417.56 209.333C1405.63 208.489 1393.48 208.057 1381.45 208.057C1128.6 208.057 931.139 397.011 902.656 425.677C887.868 423.673 840.737 417.619 780.696 413.205L727.991 410C701.148 408.741 675.311 408.105 651.049 408.105C616.119 408.105 583.744 409.427 554.697 412.032C484.747 283.42 186.617 113.641 173.772 106.369C172.279 105.528 170.66 105.125 169.059 105.125C165.751 105.125 162.531 106.843 160.757 109.905Z" fill="url(#paint2_linear_1_3)"/>
<path d="M152.856 719.387C145.525 728.731 138.527 739.801 131.963 751.877C106.228 784.033 74.12 825.34 49.3453 861.329C36.9333 879.348 27.3493 898.996 20.8306 919.555C17.1893 930.864 14.5053 942.508 12.7813 954.249C9.95463 972.987 9.57064 992.107 11.7253 1011.13C12.444 1017.31 13.2613 1023.54 14.3133 1029.82C16.1359 1041.9 18.4826 1054.07 21.3106 1066.19C47.4746 1180.06 111.355 1293.73 169.052 1333.55C691.492 1694.35 1357.65 1439.84 1373.46 1191.22C1373.99 1182.88 1374.9 1174.79 1374.18 1166.93C1362.2 1037.11 1252.89 719.387 1252.89 719.387C1252.89 719.387 1253.95 718.285 1255.91 716.127C1281.7 687.805 1463.22 477.719 1416.88 218.893C1128.2 198.432 906.133 435.835 906.133 435.835C906.133 435.835 848.675 427.496 771.089 422.129V420.739C771.089 420.48 737.545 418.901 737.545 420.068C677.788 416.952 610.265 416.187 549.165 422.176C485.956 294.083 169.052 114.712 169.052 114.712C169.052 114.712 -11.084 425.58 152.856 719.387Z" fill="url(#paint3_linear_1_3)"/>
<path d="M128.12 1093.13C115.799 1101.59 101.881 1106.07 87.8786 1106.07C80.7506 1106.07 73.712 1104.97 66.964 1102.83C66.0133 1102.52 65.0306 1102.37 64.0573 1102.37C61.8213 1102.37 59.6173 1103.16 57.8573 1104.65C55.34 1106.79 54.0986 1110.07 54.572 1113.34C66.6933 1196.8 138.463 1352.71 256.835 1352.71C269.512 1352.71 282.527 1350.9 295.517 1347.34C299.187 1346.34 301.911 1343.26 302.463 1339.49C303.015 1335.73 301.288 1331.99 298.064 1329.98C212.389 1276.37 157.373 1138.69 142.557 1097.77C141.547 1094.98 139.3 1092.81 136.473 1091.91C135.515 1091.6 134.527 1091.45 133.544 1091.45C131.629 1091.45 129.735 1092.02 128.12 1093.13Z" fill="url(#paint4_linear_1_3)"/>
<path d="M87.876 1115.65C79.6813 1115.65 71.728 1114.4 64.06 1111.96C76.5667 1198.12 157.891 1375.14 292.983 1338.1C204.903 1282.99 149.217 1144.31 133.547 1101.03C119.937 1110.38 104.364 1115.65 87.876 1115.65Z" fill="url(#paint5_linear_1_3)"/>
<path d="M131.841 315.965C103.181 451.632 117.031 575.892 172.86 685.632C205.877 634.98 282.169 536.404 418.219 453.5C362.677 335.469 214.217 195.922 181.151 165.684C166.488 197.934 145.592 251.032 131.841 315.965Z" fill="url(#paint6_linear_1_3)"/>
<path d="M338.775 698.259C232.275 811.896 156.068 960.701 161.501 1044.39C161.557 1045.24 161.725 1046.08 162.007 1046.89L172.157 1076.34C209.555 1185.59 263.573 1263.35 337.299 1314.06C438.472 1383.64 569.916 1403.24 685.885 1420.52L698.031 1422.34C747.619 1429.76 796.465 1433.52 843.217 1433.52C1138.03 1433.52 1306.57 1285.58 1380.8 1197.39C1381.95 1196.03 1382.69 1194.36 1382.95 1192.59C1384.25 1183.59 1384.51 1174.66 1383.73 1166.04C1371.78 1036.56 1266.44 729.287 1261.96 716.268C1261.46 714.829 1260.63 713.527 1259.54 712.475C1257.45 710.464 1208.11 663.137 1189.88 649.829C1116.53 596.175 997.691 526.308 848.173 498.159C819.823 492.743 790.972 489.997 762.421 489.997C563.629 489.997 411.667 620.48 338.775 698.259Z" fill="url(#paint7_linear_1_3)"/>
<path d="M171.069 1043.77L181.227 1073.24C212.701 1165.2 261.093 1250.01 342.731 1306.16C445.516 1376.85 578.803 1394.81 699.451 1412.86C1078.32 1469.55 1285.82 1295.35 1373.47 1191.22C1374.66 1182.93 1374.91 1174.78 1374.19 1166.92C1362.21 1037.11 1252.9 719.385 1252.9 719.385C1252.9 719.385 1202.15 670.649 1184.23 657.565C1109.47 602.888 992.732 535.128 846.379 507.572C817.901 502.132 789.892 499.58 762.42 499.58C419.135 499.589 161.617 898.275 171.069 1043.77Z" fill="url(#paint8_linear_1_3)"/>
<path d="M886.439 1243.5C886.439 1253.81 888.209 1263.58 891.469 1272.4C865.161 1273.31 839.523 1275.04 814.987 1277.53C780.915 1281.12 754.655 1285.24 729.829 1291.04C725.517 1292.05 722.451 1295.88 722.451 1300.34C722.451 1304.84 725.517 1308.68 729.829 1309.68C754.655 1315.48 780.915 1319.6 815.036 1323.2C842.063 1325.93 870.528 1327.7 899.76 1328.56C911.309 1328.85 923.72 1329.14 936.085 1329.14C954.631 1329.14 970.109 1328.52 984.916 1327.22C1010.27 1324.78 1040.36 1320.75 1071.32 1309.35C1075.06 1307.96 1077.6 1304.36 1077.6 1300.34C1077.6 1296.36 1075.06 1292.77 1071.32 1291.38C1044 1281.31 1017.41 1277 994.069 1274.46C997.807 1265.12 999.868 1254.57 999.868 1243.5C999.868 1204.69 974.423 1173.06 943.128 1173.06C911.885 1173.06 886.439 1204.69 886.439 1243.5Z" fill="url(#paint9_linear_1_3)"/>
<path d="M1162.25 300.199L1161.67 300.439C1093.39 332.211 1025.72 378.312 980.244 444.923C1083.81 490.485 1215.34 611.191 1230.58 693.827C1261.45 658.748 1413.79 472.861 1387.81 251.224C1385.71 251.175 1383.6 251.175 1381.49 251.175C1301.22 251.175 1226.65 271.877 1162.25 300.199Z" fill="url(#paint10_linear_1_3)"/>
<path d="M408.635 1109.71C408.635 1184.01 457.215 1244.46 516.927 1244.46C576.636 1244.46 625.213 1184.01 625.213 1109.71C625.213 1035.42 576.636 974.976 516.927 974.976C457.215 974.976 408.635 1035.42 408.635 1109.71Z" fill="url(#paint11_linear_1_3)"/>
<path d="M615.63 1109.71C615.63 1178.84 571.438 1234.87 516.924 1234.87C462.41 1234.87 418.218 1178.84 418.218 1109.71C418.218 1040.59 462.41 984.559 516.924 984.559C571.438 984.559 615.63 1040.59 615.63 1109.71Z" fill="#2B2B2B"/>
<path d="M1132.84 1096.51C1132.84 1160.46 1174.78 1212.48 1226.33 1212.48C1277.88 1212.48 1319.82 1160.46 1319.82 1096.51C1319.82 1032.56 1277.88 980.531 1226.33 980.531C1174.78 980.531 1132.84 1032.56 1132.84 1096.51Z" fill="url(#paint12_linear_1_3)"/>
<path d="M1310.24 1096.51C1310.24 1155.27 1272.67 1202.9 1226.33 1202.9C1179.99 1202.9 1142.42 1155.27 1142.42 1096.51C1142.42 1037.75 1179.99 990.114 1226.33 990.114C1272.67 990.114 1310.24 1037.75 1310.24 1096.51Z" fill="#2B2B2B"/>
<path d="M732.011 1300.36C760.008 1293.86 788.007 1290 816.007 1287.07C844.007 1284.25 872.003 1282.55 900.006 1281.73C928.003 1281 956.002 1280.54 983.999 1283.06C1012 1285.74 1040 1290.04 1068 1300.36C1040 1310.68 1012 1314.98 983.999 1317.66C956.002 1320.19 928.003 1319.73 900.006 1318.99C872.003 1318.18 844.007 1316.48 816.007 1313.65C788.007 1310.73 760.008 1306.87 732.011 1300.36Z" fill="#2B2B2B"/>
<path d="M990.286 1243.51C990.286 1277.12 969.18 1304.36 943.144 1304.36C917.11 1304.36 896.004 1277.12 896.004 1243.51C896.004 1209.9 917.11 1182.65 943.144 1182.65C969.18 1182.65 990.286 1209.9 990.286 1243.51Z" fill="#2B2B2B"/>
<path d="M20.8306 919.555C17.1893 930.864 14.5053 942.508 12.7813 954.249C13.1653 954.585 13.6427 954.824 14.1213 955.064C15.4653 955.734 16.8546 956.023 18.2413 956.023C21.552 956.023 24.6653 954.345 26.4866 951.373C35.16 936.997 47.716 928.707 60.8946 928.707C85.812 928.707 106.036 957.316 106.036 992.49C106.036 1027.67 85.812 1056.27 60.8946 1056.27C47.716 1056.27 35.16 1048.03 26.4866 1033.61C24.6653 1030.64 21.552 1028.96 18.2413 1028.96C16.9013 1028.96 15.608 1029.25 14.3133 1029.82C16.136 1041.9 18.4826 1054.07 21.3106 1066.19C37.6026 1091.31 61.612 1106.07 87.8733 1106.07C135.94 1106.07 175.043 1055.13 175.043 992.49C175.043 929.857 135.94 878.917 87.8733 878.917C61.324 878.917 37.076 894.012 20.8306 919.555Z" fill="url(#paint13_linear_1_3)"/>
<path d="M165.479 992.5C165.479 1049.92 130.743 1096.5 87.8555 1096.5C57.3448 1096.5 30.9102 1072.89 18.2635 1038.56C28.3035 1055.22 43.6795 1065.86 60.8822 1065.86C91.1222 1065.86 115.639 1033.02 115.639 992.5C115.639 951.984 91.1222 919.137 60.8822 919.137C43.6795 919.137 28.3035 929.778 18.2635 946.442C30.9102 912.11 57.3448 888.5 87.8555 888.5C130.743 888.5 165.479 935.038 165.479 992.5Z" fill="#202020"/>
<defs>
<linearGradient id="paint0_linear_1_3" x1="870.371" y1="-7.77728" x2="685.896" y2="438.605" gradientUnits="userSpaceOnUse">
<stop stop-color="#54605D"/>
<stop offset="0.996621" stop-color="#B3B3B3"/>
<stop offset="1" stop-color="#B3B3B3"/>
</linearGradient>
<linearGradient id="paint1_linear_1_3" x1="870.332" y1="-7.79328" x2="685.858" y2="438.589" gradientUnits="userSpaceOnUse">
<stop stop-color="#B3B3B3"/>
<stop offset="0.00337855" stop-color="#B3B3B3"/>
<stop offset="1" stop-color="#54605D"/>
</linearGradient>
<linearGradient id="paint2_linear_1_3" x1="1433.08" y1="212.139" x2="29.0103" y2="1241.63" gradientUnits="userSpaceOnUse">
<stop stop-color="#54605D"/>
<stop offset="0.996621" stop-color="#B3B3B3"/>
<stop offset="1" stop-color="#B3B3B3"/>
</linearGradient>
<linearGradient id="paint3_linear_1_3" x1="1425.27" y1="217.853" x2="37.2335" y2="1235.6" gradientUnits="userSpaceOnUse">
<stop stop-color="#B3B3B3"/>
<stop offset="0.00337855" stop-color="#B3B3B3"/>
<stop offset="1" stop-color="#54605D"/>
</linearGradient>
<linearGradient id="paint4_linear_1_3" x1="277.037" y1="1364.82" x2="55.5544" y2="1089.81" gradientUnits="userSpaceOnUse">
<stop stop-color="white"/>
<stop offset="0.00170708" stop-color="white"/>
<stop offset="1" stop-color="#BECDC9"/>
</linearGradient>
<linearGradient id="paint5_linear_1_3" x1="64.0603" y1="1222.08" x2="292.981" y2="1222.08" gradientUnits="userSpaceOnUse">
<stop stop-color="white"/>
<stop offset="0.00170708" stop-color="white"/>
<stop offset="1" stop-color="#BECDC9"/>
</linearGradient>
<linearGradient id="paint6_linear_1_3" x1="117.329" y1="425.657" x2="418.219" y2="425.657" gradientUnits="userSpaceOnUse">
<stop stop-color="white"/>
<stop offset="0.00170708" stop-color="white"/>
<stop offset="1" stop-color="#BECDC9"/>
</linearGradient>
<linearGradient id="paint7_linear_1_3" x1="1326.34" y1="862.052" x2="170.416" y2="1090.01" gradientUnits="userSpaceOnUse">
<stop stop-color="#BECDC9"/>
<stop offset="0.00100898" stop-color="#BECDC9"/>
<stop offset="1" stop-color="#E6E7E8"/>
</linearGradient>
<linearGradient id="paint8_linear_1_3" x1="1316.93" y1="863.94" x2="179.828" y2="1088.18" gradientUnits="userSpaceOnUse">
<stop stop-color="#E6E7E8"/>
<stop offset="0.00100898" stop-color="#E6E7E8"/>
<stop offset="1" stop-color="#BECDC9"/>
</linearGradient>
<linearGradient id="paint9_linear_1_3" x1="1063.73" y1="1222.61" x2="712.152" y2="1332.49" gradientUnits="userSpaceOnUse">
<stop stop-color="#10100E"/>
<stop offset="0.00042766" stop-color="#10100E"/>
<stop offset="0.994975" stop-color="#A7A9AC"/>
<stop offset="1" stop-color="#A7A9AC"/>
</linearGradient>
<linearGradient id="paint10_linear_1_3" x1="980.243" y1="472.501" x2="1390.78" y2="472.501" gradientUnits="userSpaceOnUse">
<stop stop-color="white"/>
<stop offset="0.00170708" stop-color="white"/>
<stop offset="1" stop-color="#BECDC9"/>
</linearGradient>
<linearGradient id="paint11_linear_1_3" x1="607.808" y1="1008.49" x2="417.64" y2="1220.3" gradientUnits="userSpaceOnUse">
<stop stop-color="#10100E"/>
<stop offset="0.00042766" stop-color="#10100E"/>
<stop offset="0.994975" stop-color="#A7A9AC"/>
<stop offset="1" stop-color="#A7A9AC"/>
</linearGradient>
<linearGradient id="paint12_linear_1_3" x1="1306.71" y1="1016.12" x2="1132.17" y2="1190.66" gradientUnits="userSpaceOnUse">
<stop stop-color="#10100E"/>
<stop offset="0.00042766" stop-color="#10100E"/>
<stop offset="0.994975" stop-color="#A7A9AC"/>
<stop offset="1" stop-color="#A7A9AC"/>
</linearGradient>
<linearGradient id="paint13_linear_1_3" x1="12.781" y1="992.49" x2="175.043" y2="992.49" gradientUnits="userSpaceOnUse">
<stop stop-color="#10100E"/>
<stop offset="0.00042766" stop-color="#10100E"/>
<stop offset="0.994975" stop-color="#A7A9AC"/>
<stop offset="1" stop-color="#A7A9AC"/>
</linearGradient>
</defs>
</svg>
