<svg
   version="1.1"
   width="128"
   height="128"
   viewBox="0 0 128 128"
   style="clip-rule:evenodd;fill-rule:evenodd;image-rendering:optimizeQuality;shape-rendering:geometricPrecision;text-rendering:geometricPrecision"
   id="svg82"
   xmlns="http://www.w3.org/2000/svg">
  <defs
     id="defs86" />
  <g
     id="g4"
     transform="matrix(0.06778234,0,0,0.06778234,-5.0429029,-10.473045)">
    <path
       style="opacity:0.891"
       fill="#e0e8f5"
       d="m 483.5,160.5 c -100.027,63.833 -187.194,142.499 -261.5,236 -11.187,15.068 -22.354,30.068 -33.5,45 -0.367,-4.467 0.133,-8.8 1.5,-13 78.378,-109.222 174.211,-199.555 287.5,-271 2.28,0.636 4.28,1.636 6,3 z"
       id="path2" />
  </g>
  <g
     id="g8"
     transform="matrix(0.06778234,0,0,0.06778234,-5.0429029,-10.473045)">
    <path
       style="opacity:0.891"
       fill="#e0e8f5"
       d="m 1857.5,441.5 c -68.39,-96.557 -150.72,-179.39 -247,-248.5 -16.18,-10.696 -32.18,-21.53 -48,-32.5 2.11,-1.094 4.28,-2.094 6.5,-3 112.98,71.636 208.65,161.969 287,271 1.37,4.2 1.87,8.533 1.5,13 z"
       id="path6" />
  </g>
  <g
     id="g12"
     transform="matrix(0.06778234,0,0,0.06778234,-5.0429029,-10.473045)">
    <path
       style="opacity:0.999"
       fill="#fefefe"
       d="m 483.5,160.5 c 99.161,37.874 201.495,63.374 307,76.5 200.296,26.042 399.3,18.375 597,-23 59.83,-13.111 118.16,-30.944 175,-53.5 15.82,10.97 31.82,21.804 48,32.5 96.28,69.11 178.61,151.943 247,248.5 -22.35,298.302 -44.52,596.64 -66.5,895 -170.43,223.21 -340.59,446.55 -510.5,670 -171.68,43.95 -343.35,43.95 -515,0 -169.906,-223.45 -340.073,-446.79 -510.5,-670 -21.978,-298.36 -44.145,-596.698 -66.5,-895 11.146,-14.932 22.313,-29.932 33.5,-45 74.306,-93.501 161.473,-172.167 261.5,-236 z"
       id="path10" />
  </g>
  <g
     id="g16"
     transform="matrix(0.06778234,0,0,0.06778234,-5.0429029,-10.473045)">
    <path
       style="opacity:1"
       fill="#020202"
       d="m 511.5,378.5 c 4.82,0.987 9.82,1.653 15,2 6.29,1.041 12.623,1.708 19,2 2.719,1.413 5.719,2.08 9,2 76.52,15.449 149.52,40.282 219,74.5 31.936,15.633 63.269,32.3 94,50 12.79,10.813 21.623,24.313 26.5,40.5 3.211,22.801 -6.622,35.967 -29.5,39.5 -10.711,0.844 -21.378,0.511 -32,-1 C 771.736,535.226 704.736,492.226 631.5,459 580.973,437.329 528.139,425.496 473,423.5 403.197,423.315 342.03,445.815 289.5,491 c -7.865,7.53 -15.365,15.364 -22.5,23.5 25.304,-70.431 74.471,-114.264 147.5,-131.5 32.128,-5.503 64.462,-7.003 97,-4.5 z"
       id="path14" />
  </g>
  <g
     id="g20"
     transform="matrix(0.06778234,0,0,0.06778234,-5.0429029,-10.473045)">
    <path
       style="opacity:1"
       fill="#a1a1a1"
       d="m 511.5,378.5 c 5.283,-0.404 10.283,0.262 15,2 -5.18,-0.347 -10.18,-1.013 -15,-2 z"
       id="path18" />
  </g>
  <g
     id="g24"
     transform="matrix(0.06778234,0,0,0.06778234,-5.0429029,-10.473045)">
    <path
       style="opacity:1"
       fill="#020202"
       d="m 1643.5,387.5 c 5.44,2.371 11.11,4.371 17,6 58.1,22.6 97.27,63.267 117.5,122 -32.74,-37.453 -72.9,-63.453 -120.5,-78 -2.58,-1.972 -5.58,-2.972 -9,-3 -20.27,-5.377 -40.93,-8.377 -62,-9 -6.32,-0.666 -12.82,-1 -19.5,-1 -9.39,-0.198 -18.55,0.468 -27.5,2 -3.07,-0.132 -6.07,0.201 -9,1 -7.27,0.047 -14.27,1.047 -21,3 -15.16,2.124 -29.83,5.791 -44,11 -4.66,0.557 -9,1.89 -13,4 -38.85,13.096 -75.85,29.93 -111,50.5 -45.5,27.174 -88.5,57.84 -129,92 -14.53,2.594 -28.86,1.927 -43,-2 -16.82,-8.081 -22.65,-21.248 -17.5,-39.5 5.49,-13.149 12.99,-24.982 22.5,-35.5 81.13,-48.341 166.79,-86.007 257,-113 12.62,-3.156 25.29,-5.989 38,-8.5 3.66,-0.452 7.33,-0.952 11,-1.5 0.92,-0.278 1.58,-0.778 2,-1.5 5.72,0.273 11.05,-0.727 16,-3 43.68,-6.787 87.35,-6.62 131,0.5 4.54,1.74 9.2,2.906 14,3.5 z"
       id="path22" />
  </g>
  <g
     id="g28"
     transform="matrix(0.06778234,0,0,0.06778234,-5.0429029,-10.473045)">
    <path
       style="opacity:1"
       fill="#919191"
       d="m 545.5,382.5 c 3.281,-0.08 6.281,0.587 9,2 -3.281,0.08 -6.281,-0.587 -9,-2 z"
       id="path26" />
  </g>
  <g
     id="g32"
     transform="matrix(0.06778234,0,0,0.06778234,-5.0429029,-10.473045)">
    <path
       style="opacity:1"
       fill="#434343"
       d="m 1498.5,383.5 c -4.95,2.273 -10.28,3.273 -16,3 5.13,-1.413 10.46,-2.413 16,-3 z"
       id="path30" />
  </g>
  <g
     id="g36"
     transform="matrix(0.06778234,0,0,0.06778234,-5.0429029,-10.473045)">
    <path
       style="opacity:1"
       fill="#a4a4a4"
       d="m 1643.5,387.5 c 1.7,-0.16 3.37,0.006 5,0.5 4.35,1.379 8.35,3.213 12,5.5 -5.89,-1.629 -11.56,-3.629 -17,-6 z"
       id="path34" />
  </g>
  <g
     id="g40"
     transform="matrix(0.06778234,0,0,0.06778234,-5.0429029,-10.473045)">
    <path
       style="opacity:1"
       fill="#454545"
       d="m 1482.5,386.5 c -0.42,0.722 -1.08,1.222 -2,1.5 -3.67,0.548 -7.34,1.048 -11,1.5 4.04,-1.737 8.38,-2.737 13,-3 z"
       id="path38" />
  </g>
  <g
     id="g44"
     transform="matrix(0.06778234,0,0,0.06778234,-5.0429029,-10.473045)">
    <path
       style="opacity:1"
       fill="#919191"
       d="m 1586.5,425.5 c -15.68,-0.153 -31.35,0.181 -47,1 8.95,-1.532 18.11,-2.198 27.5,-2 6.68,0 13.18,0.334 19.5,1 z"
       id="path42" />
  </g>
  <g
     id="g48"
     transform="matrix(0.06778234,0,0,0.06778234,-5.0429029,-10.473045)">
    <path
       style="opacity:1"
       fill="#a7a7a7"
       d="m 1530.5,427.5 c -6.75,1.822 -13.75,2.822 -21,3 6.73,-1.953 13.73,-2.953 21,-3 z"
       id="path46" />
  </g>
  <g
     id="g52"
     transform="matrix(0.06778234,0,0,0.06778234,-5.0429029,-10.473045)">
    <path
       style="opacity:1"
       fill="#636363"
       d="m 1648.5,434.5 c 3.42,0.028 6.42,1.028 9,3 -3.28,-0.428 -6.28,-1.428 -9,-3 z"
       id="path50" />
  </g>
  <g
     id="g56"
     transform="matrix(0.06778234,0,0,0.06778234,-5.0429029,-10.473045)">
    <path
       style="opacity:1"
       fill="#b6b6b6"
       d="m 1465.5,441.5 c -4,2.11 -8.34,3.443 -13,4 4,-2.11 8.34,-3.443 13,-4 z"
       id="path54" />
  </g>
  <g
     id="g60"
     transform="matrix(0.06778234,0,0,0.06778234,-5.0429029,-10.473045)">
    <path
       style="opacity:1"
       fill="#010101"
       d="m 1656.5,1040.5 c 0.84,0.34 1.17,1.01 1,2 -11.21,52.82 -30.38,102.49 -57.5,149 -17.07,28.41 -39.57,51.57 -67.5,69.5 -17.67,10.11 -36.67,15.78 -57,17 -44.67,0.67 -89.33,0.67 -134,0 -137.48,-13.69 -243.81,-77.86 -319,-192.5 -70.726,108.59 -170.726,172.09 -300,190.5 -53.305,2.44 -106.639,3.11 -160,2 -37.107,-6.44 -67.94,-23.94 -92.5,-52.5 -32.24,-40.47 -55.574,-85.81 -70,-136 -4.885,-15.49 -9.052,-31.15 -12.5,-47 -0.172,-0.99 0.162,-1.66 1,-2 29.438,89.6 89.772,146.44 181,170.5 48.333,0.67 96.667,0.67 145,0 51.252,-2.21 93.418,-22.71 126.5,-61.5 29.194,-37.19 48.194,-79.19 57,-126 24.396,30.46 55.896,49.63 94.5,57.5 47.89,7.72 91.22,-2.95 130,-32 9.2,-7.54 17.37,-16.04 24.5,-25.5 7.82,39.12 22.48,75.46 44,109 31.37,45.97 74.87,72.14 130.5,78.5 51,0.67 102,0.67 153,0 91.78,-23.62 152.45,-80.45 182,-170.5 z"
       id="path58" />
  </g>
  <g
     id="g64"
     transform="matrix(0.06778234,0,0,0.06778234,-5.0429029,-10.473045)">
    <path
       style="opacity:1"
       fill="#4b4b4b"
       d="m 388.5,1040.5 c -0.838,0.34 -1.172,1.01 -1,2 -1.766,-4.42 -2.6,-9.09 -2.5,-14 1.072,4.05 2.239,8.05 3.5,12 z"
       id="path62" />
  </g>
  <g
     id="g68"
     transform="matrix(0.06778234,0,0,0.06778234,-5.0429029,-10.473045)">
    <path
       style="opacity:1"
       fill="#555555"
       d="m 1657.5,1042.5 c 0.17,-0.99 -0.16,-1.66 -1,-2 1.8,-5.23 3.3,-10.56 4.5,-16 -0.23,6.25 -1.4,12.25 -3.5,18 z"
       id="path66" />
  </g>
  <g
     id="g72"
     transform="matrix(0.06778234,0,0,0.06778234,-5.0429029,-10.473045)">
    <path
       style="opacity:1"
       fill="#000000"
       d="m 1024.5,1969.5 c -0.77,0.76 -1.27,1.76 -1.5,3 -0.28,-0.92 -0.78,-1.58 -1.5,-2 -1.47,-13.76 -3.63,-27.43 -6.5,-41 -20.414,-89.17 -44.08,-177.51 -71,-265 -7.712,-31.93 -12.712,-64.27 -15,-97 -3.27,-34.18 1.396,-67.18 14,-99 14.618,-32.89 39.451,-53.39 74.5,-61.5 29.56,1.53 53.4,14.03 71.5,37.5 16.47,24.07 25.8,50.73 28,80 1.11,26.42 0.11,52.75 -3,79 -2.74,15.71 -5.74,31.38 -9,47 -18.62,64.87 -36.62,129.87 -54,195 -10.88,40.93 -19.71,82.26 -26.5,124 z"
       id="path70" />
  </g>
  <g
     id="g76"
     transform="matrix(0.06778234,0,0,0.06778234,-5.0429029,-10.473045)">
    <path
       style="opacity:1"
       fill="#3a3a3a"
       d="m 1024.5,1969.5 c -0.18,2.72 -0.68,5.38 -1.5,8 -1.35,-2.09 -1.85,-4.43 -1.5,-7 0.72,0.42 1.22,1.08 1.5,2 0.23,-1.24 0.73,-2.24 1.5,-3 z"
       id="path74" />
  </g>
  <g
     id="g80"
     transform="matrix(0.06778234,0,0,0.06778234,-5.0429029,-10.473045)">
    <path
       style="opacity:0.917"
       fill="#e0e8f5"
       d="m 765.5,2006.5 c 171.65,43.95 343.32,43.95 515,0 0.45,2.86 -0.22,5.36 -2,7.5 -136.32,34.25 -273.98,40.92 -413,20 -33.768,-4.89 -66.935,-12.05 -99.5,-21.5 -0.495,-1.97 -0.662,-3.97 -0.5,-6 z"
       id="path78" />
  </g>
</svg>
