<svg version="1.1" id="Layer_1" xmlns="http://www.w3.org/2000/svg" xmlns:xlink="http://www.w3.org/1999/xlink" x="0px" y="0px"
	 viewBox="0 0 478 464" width="478" height="464" style="enable-background:new 0 0 478 464;" xml:space="preserve">
<style type="text/css">
	.st0{fill:#FFFFFF;}
	.st1{fill:#FF0CFC;}
</style>
<g>
	<path class="st0" d="M161.5,243.08c-17.41,0-34.74-2.79-51.52-8.3C87.81,228.47,82.55,217,81.4,210.72
		c-1.46-7.92,2-15.85,9.24-21.22c10.48-7.77,27.05-13.39,28.82-13.98l81.19-28.87v92.05l-8.25,1.47c-1.03,0.18-2.13,0.36-3.22,0.54
		l-1.55,0.26C178.99,242.37,170.22,243.08,161.5,243.08L161.5,243.08z"/>
	<path class="st1" d="M112.9,225.22c24.62,8.11,49.61,9.71,73.07,5.88c1.53-0.26,3.19-0.52,4.68-0.79v-24.64l-23.45,8.51
		c-8.65,3.11-21.36,3.76-28.39,1.46c-7.02-2.3-5.69-6.69,2.95-9.79l48.89-17.5v-27.54l-67.95,24.16c0,0-16.44,5.39-26.11,12.56
		C86.13,205.29,89.95,218.76,112.9,225.22z"/>
	<path class="st0" d="M246.23,174.85L257,167c1.34-0.47,15.37-1.06,36.37-3.38c5.17-0.57,10.62-0.86,16.19-0.86
		c19.06,0,38.21,3.26,53.94,9.18c15.48,4.94,24.77,12.17,27.63,21.5c1.95,6.37,0.54,13.23-3.88,18.8
		c-7.08,8.93-21.23,14.45-24,15.46l-117.03,42.04L246.23,174.85L246.23,174.85z"/>
	<path class="st1" d="M294.47,173.55c-20.64,2.29-35.31,7.48-35.31,7.48l-2.93,0.99v28.48l50.79-17.89
		c8.66-3.11,21.36-3.77,28.38-1.47c7.03,2.3,5.7,6.68-2.95,9.78l-76.23,27.16v27.44l103.58-37.2c0,0,13.92-5.11,19.61-12.28
		c5.68-7.17,3.16-17.58-19.2-24.65C340.38,173.86,315.11,171.28,294.47,173.55z"/>
	<path class="st0" d="M189.85,248.27V27.99c0-3.04,2.76-5.34,5.75-4.78l6.08,1.13c21.99,4.08,53.22,13.73,66.65,18.26
		c22.89,7.86,37.25,16.74,46.62,28.8c9.63,12.4,13.92,27.89,13.92,50.24c0,15.91-3.65,28.74-10.84,38.14
		C310.65,169.43,299.48,173,287,173c-8.09,0-16.43-0.42-25.26-4.68l-4.5-2.17v106.24l-64.79-20.56
		C190.9,251.33,189.85,249.9,189.85,248.27z"/>
	<path class="st1" d="M247.24,83.01c0-8.23,3.67-13.73,9.6-11.84c7.73,2.15,9.25,9.73,9.25,17.97v70.17
		c29.54,14.26,52.79-0.01,52.79-37.67c0-38.64-13.61-55.79-53.74-69.57c-15.78-5.32-45.13-14.16-65.28-17.9v209.51l47.39,15.04
		V83.01H247.24z"/>
	<path class="st0" d="M338.18,395.66c-18.62,0-34-6.4-45.71-19.02c-1.1-1.18-2.15-2.41-3.15-3.67c-1,1.27-2.06,2.49-3.16,3.68
		c-11.75,12.62-27.25,19.01-46.1,19.01c-18.4,0-33.65-6.26-45.31-18.59c-2.54,2.84-5.56,5.4-9.06,7.67
		c-11.17,7.25-26.5,10.92-45.58,10.92c-18.28,0-32.2-3.14-42.58-9.6c-11.58-7.21-17.7-18.14-17.7-31.61
		c0-8.22,2.39-15.41,7.09-21.37c1.73-2.19,3.81-4.24,6.23-6.12c-1.15-1.39-2.18-2.82-3.08-4.28c-3.49-5.63-5.25-12.04-5.25-19.03
		c0-13.38,5.96-24.58,17.25-32.4c10.29-7.13,24.06-10.74,40.93-10.74c15.75,0,28.57,2.99,38.09,8.89c5.17,3.2,9.18,7.11,11.97,11.61
		c0.44-0.5,0.88-1,1.34-1.49c11.75-12.62,27.23-19.01,46.01-19.01c18.61,0,34.01,6.41,45.75,19.06c1.1,1.19,2.15,2.41,3.15,3.68
		c1.02-1.28,2.08-2.53,3.2-3.73c11.75-12.61,27.22-19.01,46.01-19.01c18.62,0,34.01,6.41,45.75,19.06
		c11.55,12.44,17.4,28.78,17.4,48.55c0,19.78-5.86,36.11-17.41,48.52C372.53,389.27,357.02,395.66,338.18,395.66z M128.07,348.84
		c-1.09,0.84-1.78,1.58-2.21,2.14c-0.9,1.18-1.02,1.97-1.02,2.6c0,1.23,0.21,2.57,2.73,4.3c3,2.06,7.4,3.1,13.06,3.1
		c6.22,0,8.82-1.14,9.65-1.63c0.06-0.03,0.11-0.07,0.16-0.1c-0.06-0.1-0.18-0.25-0.39-0.45c-0.69-0.63-3.02-2.39-9.68-5.02
		L128.07,348.84z M338.09,358.25c0.03,0,0.12,0.01,0.26,0.01c0.21,0,0.31-0.02,0.33-0.03c-0.01-0.01,0.68-0.57,1.47-2.72
		c1.28-3.49,2.8-11.07,2.8-27.38c0-16.12-1.53-23.77-2.82-27.35c-0.69-1.91-1.31-2.66-1.52-2.87c-0.02,0-0.05,0-0.09,0
		c-0.22,0-0.34,0.02-0.37,0.03c-0.16,0.1-0.88,0.89-1.62,2.88c-1.31,3.54-2.88,11.15-2.88,27.3c0,16.16,1.54,23.76,2.84,27.28
		C337.28,357.53,337.97,358.16,338.09,358.25L338.09,358.25z M239.98,358.25c0.03,0,0.12,0.01,0.26,0.01c0.21,0,0.31-0.02,0.33-0.03
		c-0.01-0.01,0.68-0.57,1.47-2.72c1.28-3.49,2.8-11.07,2.8-27.38c0-16.12-1.53-23.77-2.82-27.35c-0.69-1.91-1.31-2.66-1.52-2.87
		c-0.02,0-0.05,0-0.09,0c-0.22,0-0.34,0.02-0.37,0.03c-0.16,0.1-0.88,0.89-1.62,2.88c-1.31,3.54-2.87,11.15-2.87,27.3
		c0,16.16,1.54,23.76,2.84,27.28C239.17,357.53,239.85,358.16,239.98,358.25C239.97,358.25,239.98,358.25,239.98,358.25z
		 M140.83,296.46c1.29,0.51,2.94,1.11,5.04,1.78l5.67,1.84c0.47-0.38,0.73-0.67,0.87-0.84c0.24-0.31,0.26-0.42,0.26-0.63
		c-0.1-0.11-0.31-0.33-0.75-0.63c-1.66-1.15-4.19-1.73-7.52-1.73C142.99,296.25,141.82,296.33,140.83,296.46z"/>
	<path class="st1" d="M376.96,286.38c-9.82-10.58-22.63-15.87-38.43-15.87c-15.97,0-28.87,5.28-38.69,15.83
		c-4.57,4.91-8.07,10.57-10.51,16.95c-2.44-6.35-5.93-11.99-10.49-16.9c-9.82-10.58-22.63-15.87-38.43-15.87
		c-15.97,0-28.87,5.28-38.69,15.83s-14.73,24.48-14.73,41.79c0,0.57,0.02,1.13,0.03,1.69c-3.82-4.12-9.24-7.78-16.31-10.96
		c5.65-1.98,9.91-4.69,12.77-8.13s4.28-7.66,4.28-12.68c0-8.51-3.98-15.23-11.93-20.15c-7.96-4.93-18.9-7.39-32.83-7.39
		c-14.86,0-26.61,2.99-35.24,8.96c-8.63,5.98-12.94,14.03-12.94,24.17c0,5.13,1.25,9.72,3.76,13.77s6.38,7.83,11.63,11.32
		c-6.99,2.86-12.14,6.37-15.43,10.54s-4.94,9.22-4.94,15.17c0,10.03,4.33,17.74,12.98,23.13s21.08,8.09,37.29,8.09
		c17.19,0,30.57-3.1,40.13-9.31c7.12-4.62,11.58-10.61,13.4-17.97c2.16,4.18,4.83,8,8.04,11.46c9.79,10.55,22.59,15.83,38.38,15.83
		c16.03,0,28.95-5.28,38.78-15.83c4.56-4.9,8.05-10.53,10.49-16.88c2.44,6.35,5.91,11.98,10.46,16.88
		c9.79,10.55,22.59,15.83,38.38,15.83c16.03,0,28.95-5.28,38.78-15.83c9.82-10.55,14.73-24.45,14.73-41.71
		C391.69,310.88,386.78,296.96,376.96,286.38z M155.37,367.96c-3.41,2.01-8.32,3.02-14.73,3.02c-7.75,0-13.99-1.62-18.71-4.85
		c-4.72-3.24-7.08-7.42-7.08-12.55c0-3.09,1.02-5.97,3.06-8.66c2.04-2.68,5.1-5.1,9.18-7.26l16.96,6.82
		c6.06,2.39,10.32,4.71,12.76,6.95c2.45,2.25,3.67,4.88,3.67,7.91C160.49,363.08,158.78,365.95,155.37,367.96z M160.22,305.49
		c-1.63,2.04-4.11,3.88-7.43,5.51l-9.97-3.24c-6-1.92-10.13-3.74-12.37-5.46c-2.24-1.72-3.37-3.77-3.37-6.16
		c0-2.97,1.56-5.36,4.68-7.17c3.12-1.81,7.33-2.71,12.63-2.71c5.42,0,9.82,1.17,13.2,3.5c3.38,2.33,5.07,5.28,5.07,8.83
		C162.67,301.15,161.85,303.45,160.22,305.49z M251.43,358.95c-2.27,6.21-6,9.31-11.19,9.31s-8.93-3.13-11.23-9.4
		s-3.45-16.51-3.45-30.73s1.16-24.48,3.5-30.78s6.12-9.44,11.37-9.44c5.07,0,8.74,3.16,11.02,9.49c2.27,6.33,3.41,16.57,3.41,30.73
		C254.84,342.47,253.71,352.75,251.43,358.95z M349.55,358.95c-2.27,6.21-6,9.31-11.19,9.31s-8.93-3.13-11.24-9.4
		s-3.45-16.51-3.45-30.73s1.17-24.48,3.5-30.78c2.33-6.29,6.12-9.44,11.37-9.44c5.07,0,8.74,3.16,11.02,9.49
		c2.27,6.33,3.41,16.57,3.41,30.73C352.96,342.47,351.82,352.75,349.55,358.95z"/>
</g>
</svg>
