<svg width="512" height="512" viewBox="0 0 512 512" fill="none" xmlns="http://www.w3.org/2000/svg">
<rect x="4" y="4" width="504" height="504" rx="252" fill="#0E1325"/>
<rect x="4" y="4" width="504" height="504" rx="252" fill="url(#paint0_radial_514_158)"/>
<path d="M344.784 208.041L276.066 318.502C266.844 333.309 245.555 333.309 236.333 318.502L167.616 208.041C159.621 195.225 155.399 180.388 155.399 165.22V153.489C155.399 142.754 163.993 134.039 174.562 134.039H337.837C348.437 134.039 357 142.754 357 153.489V165.22C357 180.388 352.778 195.225 344.784 208.041Z" fill="#7B78FF"/>
<path d="M167.616 303.665L236.333 193.234C245.555 178.428 266.844 178.428 276.066 193.234L344.784 303.665C352.778 316.481 357 331.348 357 346.517V358.247C357 368.983 348.407 377.698 337.837 377.698H174.562C163.963 377.698 155.399 368.983 155.399 358.247V346.517C155.399 331.348 159.621 316.511 167.616 303.665Z" fill="#9FD2EB"/>
<path d="M276.066 193.234C266.844 178.428 245.555 178.428 236.333 193.234L197.378 255.868L236.363 318.502C245.585 333.308 266.874 333.308 276.096 318.502L315.051 255.868L276.066 193.234Z" fill="#11429F"/>
<rect x="4" y="4" width="504" height="504" rx="252" stroke="#7B78FF" stroke-width="8"/>
<defs>
<radialGradient id="paint0_radial_514_158" cx="0" cy="0" r="1" gradientUnits="userSpaceOnUse" gradientTransform="translate(256 256) rotate(88.5455) scale(256.082)">
<stop stop-color="#3225C4"/>
<stop offset="1" stop-color="#462EDA" stop-opacity="0"/>
</radialGradient>
</defs>
</svg>
