<svg xmlns="http://www.w3.org/2000/svg" version="1.1" width="100" height="100" viewBox="0 0 100 100" style="shape-rendering:geometricPrecision; text-rendering:geometricPrecision; image-rendering:optimizeQuality; fill-rule:evenodd; clip-rule:evenodd" xmlns:xlink="http://www.w3.org/1999/xlink">
<g><path style="opacity:1" fill="#87aa75" d="M 23.5,7.5 C 22.5,7.5 21.5,7.5 20.5,7.5C 20.3433,8.87344 20.51,10.2068 21,11.5C 22.3756,12.7051 23.5423,14.0384 24.5,15.5C 22.8632,14.7822 21.1966,14.6155 19.5,15C 20.3366,16.0113 20.67,17.1779 20.5,18.5C 15.5331,17.9807 15.1997,19.814 19.5,24C 18.2068,24.49 16.8734,24.6567 15.5,24.5C 14.2739,18.3093 14.2739,11.9759 15.5,5.5C 18.4282,5.56513 21.0948,6.2318 23.5,7.5 Z"/></g>
<g><path style="opacity:1" fill="#e3e1df" d="M 24.5,15.5 C 26.334,17.5054 28.0007,19.6721 29.5,22C 27.9586,23.3712 26.6253,24.8712 25.5,26.5C 23.3328,28.8302 21.6662,31.4968 20.5,34.5C 19.5,34.5 18.5,34.5 17.5,34.5C 15.3273,31.3555 14.6606,28.0222 15.5,24.5C 16.8734,24.6567 18.2068,24.49 19.5,24C 15.1997,19.814 15.5331,17.9807 20.5,18.5C 20.67,17.1779 20.3366,16.0113 19.5,15C 21.1966,14.6155 22.8632,14.7822 24.5,15.5 Z"/></g>
<g><path style="opacity:1" fill="#72aa63" d="M 23.5,7.5 C 26.6489,7.4152 29.3155,8.4152 31.5,10.5C 32.9966,12.5418 34.6633,14.3751 36.5,16C 35.3368,17.8554 33.6701,19.1888 31.5,20C 32.7177,21.4161 34.0511,21.2494 35.5,19.5C 37.857,19.6917 39.5237,20.8584 40.5,23C 45.1667,25 49.8333,25 54.5,23C 58.375,19.6193 62.375,16.4526 66.5,13.5C 69.2854,11.9049 72.2854,10.9049 75.5,10.5C 77.3464,10.2222 78.6798,10.8888 79.5,12.5C 77.5808,13.6125 75.9142,14.9458 74.5,16.5C 72.1667,18.1667 70.1667,20.1667 68.5,22.5C 66.6258,24.1284 64.6258,24.4618 62.5,23.5C 59.2384,27.3058 55.2384,28.8058 50.5,28C 49.8742,28.7504 49.3742,29.5838 49,30.5C 46.9062,28.7003 44.4062,27.7003 41.5,27.5C 40.3527,27.8178 39.5194,28.4844 39,29.5C 37.6439,28.6198 36.1439,28.2865 34.5,28.5C 34.5,27.5 34.5,26.5 34.5,25.5C 32.9397,25.4809 31.4397,25.1476 30,24.5C 28.5936,25.4138 27.0936,26.0805 25.5,26.5C 26.6253,24.8712 27.9586,23.3712 29.5,22C 28.0007,19.6721 26.334,17.5054 24.5,15.5C 23.5423,14.0384 22.3756,12.7051 21,11.5C 20.51,10.2068 20.3433,8.87344 20.5,7.5C 21.5,7.5 22.5,7.5 23.5,7.5 Z"/></g>
<g><path style="opacity:1" fill="#384d2c" d="M 61.5,12.5 C 59.8008,12.3398 58.1341,12.5065 56.5,13C 57.5243,14.3671 57.0243,15.2005 55,15.5C 52.508,15.1702 50.3414,14.1702 48.5,12.5C 45.056,14.7864 41.3894,15.1197 37.5,13.5C 38.2625,12.7321 39.2625,12.2321 40.5,12C 47.6791,11.1787 54.6791,11.3454 61.5,12.5 Z"/></g>
<g><path style="opacity:1" fill="#5b8a4e" d="M 31.5,10.5 C 33.4832,11.4706 35.4832,12.4706 37.5,13.5C 41.3894,15.1197 45.056,14.7864 48.5,12.5C 50.3414,14.1702 52.508,15.1702 55,15.5C 57.0243,15.2005 57.5243,14.3671 56.5,13C 58.1341,12.5065 59.8008,12.3398 61.5,12.5C 63.1172,13.038 64.7839,13.3713 66.5,13.5C 62.375,16.4526 58.375,19.6193 54.5,23C 49.8333,25 45.1667,25 40.5,23C 39.5237,20.8584 37.857,19.6917 35.5,19.5C 34.0511,21.2494 32.7177,21.4161 31.5,20C 33.6701,19.1888 35.3368,17.8554 36.5,16C 34.6633,14.3751 32.9966,12.5418 31.5,10.5 Z"/></g>
<g><path style="opacity:1" fill="#85aa73" d="M 75.5,10.5 C 77.9479,9.52693 80.6146,9.1936 83.5,9.5C 85.9957,17.3143 85.9957,24.9809 83.5,32.5C 83.719,31.325 83.3857,30.325 82.5,29.5C 81.8243,30.6016 81.1577,31.6016 80.5,32.5C 77.8749,31.5595 77.8749,30.3928 80.5,29C 79.1667,28.6667 77.8333,28.3333 76.5,28C 81.85,23.6593 81.5167,21.6593 75.5,22C 76.87,20.5587 77.87,18.892 78.5,17C 76.9813,17.3308 75.648,17.1641 74.5,16.5C 75.9142,14.9458 77.5808,13.6125 79.5,12.5C 78.6798,10.8888 77.3464,10.2222 75.5,10.5 Z"/></g>
<g><path style="opacity:1" fill="#ececeb" d="M 74.5,16.5 C 75.648,17.1641 76.9813,17.3308 78.5,17C 77.87,18.892 76.87,20.5587 75.5,22C 81.5167,21.6593 81.85,23.6593 76.5,28C 77.8333,28.3333 79.1667,28.6667 80.5,29C 77.8749,30.3928 77.8749,31.5595 80.5,32.5C 79.1667,34.1667 77.8333,35.8333 76.5,37.5C 75.5416,37.0472 74.7083,36.3805 74,35.5C 74.4503,30.4038 72.617,26.0705 68.5,22.5C 70.1667,20.1667 72.1667,18.1667 74.5,16.5 Z"/></g>
<g><path style="opacity:1" fill="#5f7349" d="M 17.5,34.5 C 18.5,34.5 19.5,34.5 20.5,34.5C 20.2041,36.403 19.5375,38.0697 18.5,39.5C 18.634,37.7085 18.3007,36.0418 17.5,34.5 Z"/></g>
<g><path style="opacity:1" fill="#8bd17c" d="M 68.5,22.5 C 72.617,26.0705 74.4503,30.4038 74,35.5C 74.7083,36.3805 75.5416,37.0472 76.5,37.5C 77.29,38.6085 77.79,39.9419 78,41.5C 78.3333,41.1667 78.6667,40.8333 79,40.5C 79.49,41.7932 79.6567,43.1266 79.5,44.5C 77.4176,44.472 75.5843,45.1387 74,46.5C 73.0853,45.6721 72.4186,44.6721 72,43.5C 70.984,44.6341 70.3173,44.3008 70,42.5C 68.8869,43.7111 67.7202,43.7111 66.5,42.5C 65.7492,43.376 65.2492,44.376 65,45.5C 63.4747,44.2799 61.6413,43.6132 59.5,43.5C 57.2147,43.6759 55.2147,44.3426 53.5,45.5C 52.8303,42.3271 51.6636,39.3271 50,36.5C 49.0051,40.1451 48.1717,43.8117 47.5,47.5C 45.1516,47.3305 42.8183,46.9971 40.5,46.5C 37.4877,47.1722 34.4877,47.8389 31.5,48.5C 31.7148,46.8212 31.0481,45.8212 29.5,45.5C 29.5,45.1667 29.5,44.8333 29.5,44.5C 26.4084,41.9494 23.2417,41.9494 20,44.5C 18.8118,43.4366 18.3118,42.1033 18.5,40.5C 18.5,40.1667 18.5,39.8333 18.5,39.5C 19.5375,38.0697 20.2041,36.403 20.5,34.5C 21.6662,31.4968 23.3328,28.8302 25.5,26.5C 27.0936,26.0805 28.5936,25.4138 30,24.5C 31.4397,25.1476 32.9397,25.4809 34.5,25.5C 34.5,26.5 34.5,27.5 34.5,28.5C 36.1439,28.2865 37.6439,28.6198 39,29.5C 39.5194,28.4844 40.3527,27.8178 41.5,27.5C 44.4062,27.7003 46.9062,28.7003 49,30.5C 49.3742,29.5838 49.8742,28.7504 50.5,28C 55.2384,28.8058 59.2384,27.3058 62.5,23.5C 64.6258,24.4618 66.6258,24.1284 68.5,22.5 Z"/></g>
<g><path style="opacity:1" fill="#d0b09c" d="M 29.5,44.5 C 29.5,44.8333 29.5,45.1667 29.5,45.5C 29.9707,47.5786 30.6373,49.5786 31.5,51.5C 29.7085,51.366 28.0418,51.6993 26.5,52.5C 26.7329,49.4582 27.7329,46.7916 29.5,44.5 Z"/></g>
<g><path style="opacity:1" fill="#dfb7a2" d="M 53.5,45.5 C 54.3414,47.3792 54.6747,49.3792 54.5,51.5C 53.1984,52.8069 51.865,52.8069 50.5,51.5C 49.4259,55.9079 46.7592,58.5746 42.5,59.5C 44.5483,55.6962 46.215,51.6962 47.5,47.5C 48.1717,43.8117 49.0051,40.1451 50,36.5C 51.6636,39.3271 52.8303,42.3271 53.5,45.5 Z"/></g>
<g><path style="opacity:1" fill="#72ab64" d="M 83.5,32.5 C 83.2982,36.1028 82.2982,39.4361 80.5,42.5C 81.817,46.4346 82.817,50.4346 83.5,54.5C 83.6567,55.8734 83.49,57.2068 83,58.5C 81.8687,57.3961 81.0354,57.7295 80.5,59.5C 81.0276,61.3361 81.6942,63.0028 82.5,64.5C 82.5,64.8333 82.5,65.1667 82.5,65.5C 81.791,66.404 80.791,66.7373 79.5,66.5C 79.6621,64.4727 79.4955,62.4727 79,60.5C 78.6667,61.8333 78.3333,63.1667 78,64.5C 76.984,63.3659 76.3173,63.6992 76,65.5C 75.6401,63.3921 74.9734,61.3921 74,59.5C 73.6667,59.8333 73.3333,60.1667 73,60.5C 72,59.1667 71,57.8333 70,56.5C 69.5357,57.0944 69.369,57.7611 69.5,58.5C 68.295,61.2341 66.795,63.9007 65,66.5C 65.7403,60.5496 65.5736,54.5496 64.5,48.5C 63.7554,52.3024 62.5887,55.9691 61,59.5C 60,57.1667 59,54.8333 58,52.5C 56.878,54.4068 56.0447,56.4068 55.5,58.5C 55.1667,58.5 54.8333,58.5 54.5,58.5C 54.5,56.1667 54.5,53.8333 54.5,51.5C 54.6747,49.3792 54.3414,47.3792 53.5,45.5C 55.2147,44.3426 57.2147,43.6759 59.5,43.5C 61.6413,43.6132 63.4747,44.2799 65,45.5C 65.2492,44.376 65.7492,43.376 66.5,42.5C 67.7202,43.7111 68.8869,43.7111 70,42.5C 70.3173,44.3008 70.984,44.6341 72,43.5C 72.4186,44.6721 73.0853,45.6721 74,46.5C 75.5843,45.1387 77.4176,44.472 79.5,44.5C 79.6567,43.1266 79.49,41.7932 79,40.5C 78.6667,40.8333 78.3333,41.1667 78,41.5C 77.79,39.9419 77.29,38.6085 76.5,37.5C 77.8333,35.8333 79.1667,34.1667 80.5,32.5C 81.1577,31.6016 81.8243,30.6016 82.5,29.5C 83.3857,30.325 83.719,31.325 83.5,32.5 Z"/></g>
<g><path style="opacity:0.906" fill="#201a10" d="M 17.5,44.5 C 17.6621,46.5273 17.4955,48.5273 17,50.5C 16.6174,51.056 16.1174,51.3893 15.5,51.5C 15.9267,48.9902 16.5933,46.6568 17.5,44.5 Z"/></g>
<g><path style="opacity:1" fill="#717656" d="M 25.5,56.5 C 24.6986,58.3527 24.3653,60.0194 24.5,61.5C 23.5028,61.5299 22.8361,61.0299 22.5,60C 23.2109,55.4813 24.0442,50.9813 25,46.5C 25.4983,49.8168 25.665,53.1501 25.5,56.5 Z"/></g>
<g><path style="opacity:1" fill="#341415" d="M 31.5,51.5 C 31.5,52.1667 31.5,52.8333 31.5,53.5C 29.7085,53.366 28.0418,53.6993 26.5,54.5C 26.5,53.8333 26.5,53.1667 26.5,52.5C 28.0418,51.6993 29.7085,51.366 31.5,51.5 Z"/></g>
<g><path style="opacity:1" fill="#6ca35f" d="M 29.5,45.5 C 31.0481,45.8212 31.7148,46.8212 31.5,48.5C 34.4877,47.8389 37.4877,47.1722 40.5,46.5C 42.8183,46.9971 45.1516,47.3305 47.5,47.5C 46.215,51.6962 44.5483,55.6962 42.5,59.5C 41.7354,59.9234 40.9021,60.2568 40,60.5C 37.9583,58.9573 35.7917,57.6239 33.5,56.5C 33.573,54.9731 32.9063,53.9731 31.5,53.5C 31.5,52.8333 31.5,52.1667 31.5,51.5C 30.6373,49.5786 29.9707,47.5786 29.5,45.5 Z"/></g>
<g><path style="opacity:1" fill="#f0d9c9" d="M 69.5,58.5 C 70.0073,63.1209 69.174,67.4542 67,71.5C 66.2825,70.5494 65.4491,70.3828 64.5,71C 62.3329,74.3329 59.6662,77.1663 56.5,79.5C 50.6236,81.5658 44.9569,83.5658 39.5,85.5C 38.8826,85.3893 38.3826,85.056 38,84.5C 37.7508,85.624 37.2508,86.624 36.5,87.5C 35.2736,86.6371 33.9403,86.6371 32.5,87.5C 33.1667,86.5 33.8333,85.5 34.5,84.5C 35.1667,84.5 35.5,84.1667 35.5,83.5C 36.8333,82.8333 36.8333,82.1667 35.5,81.5C 32.8959,79.4 30.3959,77.0666 28,74.5C 26.6433,70.2157 25.4766,65.8823 24.5,61.5C 24.3653,60.0194 24.6986,58.3527 25.5,56.5C 26.3382,56.1583 26.6716,55.4916 26.5,54.5C 28.0418,53.6993 29.7085,53.366 31.5,53.5C 31.2942,55.5492 30.4609,55.8825 29,54.5C 28.331,61.364 29.831,62.0306 33.5,56.5C 35.7917,57.6239 37.9583,58.9573 40,60.5C 40.9021,60.2568 41.7354,59.9234 42.5,59.5C 46.7592,58.5746 49.4259,55.9079 50.5,51.5C 51.865,52.8069 53.1984,52.8069 54.5,51.5C 54.5,53.8333 54.5,56.1667 54.5,58.5C 52.5767,58.795 50.9101,59.6283 49.5,61C 53.3562,60.4086 57.1895,60.9086 61,62.5C 62.7215,62.3893 62.8882,61.8893 61.5,61C 59.5932,59.878 57.5932,59.0447 55.5,58.5C 56.0447,56.4068 56.878,54.4068 58,52.5C 59,54.8333 60,57.1667 61,59.5C 62.5887,55.9691 63.7554,52.3024 64.5,48.5C 65.5736,54.5496 65.7403,60.5496 65,66.5C 66.795,63.9007 68.295,61.2341 69.5,58.5 Z"/></g>
<g><path style="opacity:1" fill="#498596" d="M 31.5,53.5 C 32.9063,53.9731 33.573,54.9731 33.5,56.5C 29.831,62.0306 28.331,61.364 29,54.5C 30.4609,55.8825 31.2942,55.5492 31.5,53.5 Z"/></g>
<g><path style="opacity:1" fill="#3f1f1f" d="M 54.5,58.5 C 54.8333,58.5 55.1667,58.5 55.5,58.5C 57.5932,59.0447 59.5932,59.878 61.5,61C 62.8882,61.8893 62.7215,62.3893 61,62.5C 57.1895,60.9086 53.3562,60.4086 49.5,61C 50.9101,59.6283 52.5767,58.795 54.5,58.5 Z"/></g>
<g><path style="opacity:1" fill="#3f502f" d="M 83.5,54.5 C 84.4582,56.3024 85.1249,58.3024 85.5,60.5C 84.5768,59.6971 83.5768,59.5304 82.5,60C 83.3366,61.0113 83.67,62.1779 83.5,63.5C 82.8333,63.5 82.5,63.8333 82.5,64.5C 81.6942,63.0028 81.0276,61.3361 80.5,59.5C 81.0354,57.7295 81.8687,57.3961 83,58.5C 83.49,57.2068 83.6567,55.8734 83.5,54.5 Z"/></g>
<g><path style="opacity:1" fill="#659657" d="M 82.5,65.5 C 83.3382,65.1583 83.6716,64.4916 83.5,63.5C 83.67,62.1779 83.3366,61.0113 82.5,60C 83.5768,59.5304 84.5768,59.6971 85.5,60.5C 86.7784,65.1982 86.7784,69.8648 85.5,74.5C 84.5489,73.0813 84.2155,71.4147 84.5,69.5C 84.1667,66.8333 83.8333,66.8333 83.5,69.5C 83.5,72.1667 83.5,74.8333 83.5,77.5C 82.1587,85.9998 77.1587,89.8332 68.5,89C 69.056,88.6174 69.3893,88.1174 69.5,87.5C 69.8333,87.5 70.1667,87.5 70.5,87.5C 71.8333,87.1667 71.8333,86.8333 70.5,86.5C 69.3478,85.375 68.3478,85.375 67.5,86.5C 66.2921,87.2341 64.9587,87.5674 63.5,87.5C 62.609,86.8902 61.609,86.5569 60.5,86.5C 60.1667,83.8333 59.8333,83.8333 59.5,86.5C 57.9925,84.8185 56.9925,82.8185 56.5,80.5C 56.5,80.1667 56.5,79.8333 56.5,79.5C 59.6662,77.1663 62.3329,74.3329 64.5,71C 65.4491,70.3828 66.2825,70.5494 67,71.5C 69.174,67.4542 70.0073,63.1209 69.5,58.5C 69.369,57.7611 69.5357,57.0944 70,56.5C 71,57.8333 72,59.1667 73,60.5C 73.3333,60.1667 73.6667,59.8333 74,59.5C 74.9734,61.3921 75.6401,63.3921 76,65.5C 76.3173,63.6992 76.984,63.3659 78,64.5C 78.3333,63.1667 78.6667,61.8333 79,60.5C 79.4955,62.4727 79.6621,64.4727 79.5,66.5C 80.791,66.7373 81.791,66.404 82.5,65.5 Z"/></g>
<g><path style="opacity:1" fill="#679959" d="M 18.5,40.5 C 18.3118,42.1033 18.8118,43.4366 20,44.5C 23.2417,41.9494 26.4084,41.9494 29.5,44.5C 27.7329,46.7916 26.7329,49.4582 26.5,52.5C 26.5,53.1667 26.5,53.8333 26.5,54.5C 26.6716,55.4916 26.3382,56.1583 25.5,56.5C 25.665,53.1501 25.4983,49.8168 25,46.5C 24.0442,50.9813 23.2109,55.4813 22.5,60C 22.8361,61.0299 23.5028,61.5299 24.5,61.5C 25.4766,65.8823 26.6433,70.2157 28,74.5C 30.3959,77.0666 32.8959,79.4 35.5,81.5C 35.44,82.0431 35.1067,82.3764 34.5,82.5C 33.4822,81.8075 32.4822,81.1408 31.5,80.5C 30.5084,80.3284 29.8417,80.6618 29.5,81.5C 28.7494,82.5735 27.7494,82.7401 26.5,82C 24.316,79.9835 22.316,77.8169 20.5,75.5C 21.376,74.7492 22.376,74.2492 23.5,74C 20.5363,73.1597 20.203,72.1597 22.5,71C 21.2068,70.51 19.8734,70.3433 18.5,70.5C 18.5793,67.7294 18.0793,65.0627 17,62.5C 16.8078,64.5767 16.3078,66.5767 15.5,68.5C 13.7711,66.1489 13.1044,63.4822 13.5,60.5C 13.4054,57.3033 14.0721,54.3033 15.5,51.5C 16.1174,51.3893 16.6174,51.056 17,50.5C 17.4955,48.5273 17.6621,46.5273 17.5,44.5C 17.2322,42.901 17.5655,41.5676 18.5,40.5 Z"/></g>
<g><path style="opacity:1" fill="#58804a" d="M 13.5,60.5 C 13.1044,63.4822 13.7711,66.1489 15.5,68.5C 16.3078,66.5767 16.8078,64.5767 17,62.5C 18.0793,65.0627 18.5793,67.7294 18.5,70.5C 19.8734,70.3433 21.2068,70.51 22.5,71C 20.203,72.1597 20.5363,73.1597 23.5,74C 22.376,74.2492 21.376,74.7492 20.5,75.5C 22.316,77.8169 24.316,79.9835 26.5,82C 27.7494,82.7401 28.7494,82.5735 29.5,81.5C 30.2485,82.531 30.9152,83.6976 31.5,85C 30.8333,85.1667 30.1667,85.3333 29.5,85.5C 27.2249,84.4017 25.0583,83.0683 23,81.5C 22.6667,82.1667 22.3333,82.8333 22,83.5C 20.4815,82.8366 19.3149,81.8366 18.5,80.5C 18.0269,79.0937 17.0269,78.427 15.5,78.5C 14.4955,77.3172 13.6622,75.9839 13,74.5C 12.1849,69.6478 12.3516,64.9811 13.5,60.5 Z"/></g>
<g><path style="opacity:1" fill="#303922" d="M 83.5,69.5 C 83.8333,69.5 84.1667,69.5 84.5,69.5C 84.2155,71.4147 84.5489,73.0813 85.5,74.5C 85.0679,75.7095 84.4013,76.7095 83.5,77.5C 83.5,74.8333 83.5,72.1667 83.5,69.5 Z"/></g>
<g><path style="opacity:1" fill="#894140" d="M 46.5,76.5 C 46.3893,75.8826 46.056,75.3826 45.5,75C 42.633,74.1993 39.9664,74.3659 37.5,75.5C 36.5,75.5 35.5,75.5 34.5,75.5C 34.5,74.5 34.5,73.5 34.5,72.5C 39.3569,72.6866 44.0235,73.5199 48.5,75C 47.9558,75.7172 47.2891,76.2172 46.5,76.5 Z"/></g>
<g><path style="opacity:1" fill="#df8380" d="M 46.5,76.5 C 44.6191,79.5506 41.9524,80.2173 38.5,78.5C 37.6143,77.675 37.281,76.675 37.5,75.5C 39.9664,74.3659 42.633,74.1993 45.5,75C 46.056,75.3826 46.3893,75.8826 46.5,76.5 Z"/></g>
<g><path style="opacity:0.976" fill="#262818" d="M 15.5,78.5 C 17.0269,78.427 18.0269,79.0937 18.5,80.5C 16.9731,80.573 15.9731,79.9063 15.5,78.5 Z"/></g>
<g><path style="opacity:1" fill="#dd9d87" d="M 56.5,79.5 C 56.5,79.8333 56.5,80.1667 56.5,80.5C 51.7748,85.6028 47.7748,91.2695 44.5,97.5C 44.1667,97.5 43.8333,97.5 43.5,97.5C 41.6005,93.6983 40.2672,89.6983 39.5,85.5C 44.9569,83.5658 50.6236,81.5658 56.5,79.5 Z"/></g>
<g><path style="opacity:0.976" fill="#444e33" d="M 31.5,80.5 C 32.4822,81.1408 33.4822,81.8075 34.5,82.5C 35.1067,82.3764 35.44,82.0431 35.5,81.5C 36.8333,82.1667 36.8333,82.8333 35.5,83.5C 34.8333,83.5 34.5,83.8333 34.5,84.5C 32.5544,83.9653 31.5544,82.632 31.5,80.5 Z"/></g>
<g><path style="opacity:1" fill="#f0eef2" d="M 39.5,85.5 C 40.2672,89.6983 41.6005,93.6983 43.5,97.5C 41.8546,96.5213 40.5213,95.188 39.5,93.5C 39.1667,93.8333 38.8333,94.1667 38.5,94.5C 39.9524,95.9397 40.9524,97.6064 41.5,99.5C 30.8333,99.5 20.1667,99.5 9.5,99.5C 10.2775,96.8878 11.9441,95.0545 14.5,94C 20.6289,92.0981 26.6289,89.9314 32.5,87.5C 33.9403,86.6371 35.2736,86.6371 36.5,87.5C 37.2508,86.624 37.7508,85.624 38,84.5C 38.3826,85.056 38.8826,85.3893 39.5,85.5 Z"/></g>
<g><path style="opacity:1" fill="#f0eef2" d="M 56.5,80.5 C 56.9925,82.8185 57.9925,84.8185 59.5,86.5C 60.6594,88.2503 62.326,89.2503 64.5,89.5C 68.8124,90.986 73.1457,92.486 77.5,94C 80.5952,94.9354 82.9286,96.7687 84.5,99.5C 71.8333,99.5 59.1667,99.5 46.5,99.5C 46.5,98.8333 46.5,98.1667 46.5,97.5C 45.8333,97.5 45.1667,97.5 44.5,97.5C 47.7748,91.2695 51.7748,85.6028 56.5,80.5 Z"/></g>
<g><path style="opacity:0.09" fill="#22140d" d="M 67.5,86.5 C 68.3478,85.375 69.3478,85.375 70.5,86.5C 70.5,86.8333 70.5,87.1667 70.5,87.5C 70.1667,87.5 69.8333,87.5 69.5,87.5C 68.8333,87.1667 68.1667,86.8333 67.5,86.5 Z"/></g>
<g><path style="opacity:0.749" fill="#474b36" d="M 59.5,86.5 C 59.8333,86.5 60.1667,86.5 60.5,86.5C 61.609,86.5569 62.609,86.8902 63.5,87.5C 63.8333,88.1667 64.1667,88.8333 64.5,89.5C 62.326,89.2503 60.6594,88.2503 59.5,86.5 Z"/></g>
<g><path style="opacity:1" fill="#6f9669" d="M 43.5,97.5 C 43.8333,97.5 44.1667,97.5 44.5,97.5C 45.1667,97.5 45.8333,97.5 46.5,97.5C 46.5,98.1667 46.5,98.8333 46.5,99.5C 44.8333,99.5 43.1667,99.5 41.5,99.5C 40.9524,97.6064 39.9524,95.9397 38.5,94.5C 38.8333,94.1667 39.1667,93.8333 39.5,93.5C 40.5213,95.188 41.8546,96.5213 43.5,97.5 Z"/></g>
<g><path style="opacity:1" fill="#7b9d75" d="M 46.5,97.5 C 46.7118,95.6159 47.7118,94.2826 49.5,93.5C 50.2617,95.7808 49.2617,97.1141 46.5,97.5 Z"/></g>
</svg>
