<svg version="1.1" id="Layer_1" xmlns="http://www.w3.org/2000/svg" xmlns:xlink="http://www.w3.org/1999/xlink" x="0px" y="0px"
	 viewBox="0 0 1080 1080" style="enable-background:new 0 0 1080 1080;" xml:space="preserve">
<style type="text/css">
	.st0{fill:#03251F;}
	.st1{fill:#1C0C09;}
	.st2{fill:#D7A885;}
	.st3{fill:#7F634E;}
	.st4{fill:#5E422C;}
	.st5{fill:#6C352D;}
	.st6{fill:#975D4A;}
	.st7{fill:#CFBCA2;}
</style>
<rect x="-100" y="-100" class="st0" width="1280" height="1280"/>
<g>
	<g id="XMLID_1_">
		<g>
			<rect x="839.9" y="752.83" width="54.53" height="54.53"/>
			<rect x="839.9" y="698.3" width="54.53" height="54.53"/>
			<rect x="839.9" y="643.77" width="54.53" height="54.53"/>
			<rect x="839.9" y="589.23" class="st1" width="54.53" height="54.53"/>
			<rect x="839.9" y="534.7" class="st1" width="54.53" height="54.53"/>
			<rect x="839.9" y="480.17" class="st1" width="54.53" height="54.53"/>
			<rect x="839.9" y="425.64" class="st1" width="54.53" height="54.53"/>
			<rect x="839.9" y="371.13" width="54.53" height="54.51"/>
			<rect x="839.9" y="316.6" width="54.53" height="54.53"/>
			<rect x="839.9" y="262.06" width="54.53" height="54.53"/>
			<rect x="785.37" y="807.36" width="54.53" height="54.51"/>
			<rect x="785.37" y="752.83" class="st2" width="54.53" height="54.53"/>
			<rect x="785.37" y="698.3" class="st2" width="54.53" height="54.53"/>
			<rect x="785.37" y="643.77" class="st2" width="54.53" height="54.53"/>
			<rect x="785.37" y="589.23" class="st2" width="54.53" height="54.53"/>
			<rect x="785.37" y="534.7" class="st2" width="54.53" height="54.53"/>
			<rect x="785.37" y="480.17" class="st2" width="54.53" height="54.53"/>
			<rect x="785.37" y="425.64" width="54.53" height="54.53"/>
			<rect x="785.37" y="371.13" class="st2" width="54.53" height="54.51"/>
			<rect x="785.37" y="316.6" class="st2" width="54.53" height="54.53"/>
			<rect x="785.37" y="262.06" class="st2" width="54.53" height="54.53"/>
			<rect x="785.37" y="207.53" width="54.53" height="54.53"/>
			<rect x="730.86" y="861.87" width="54.51" height="54.53"/>
			<rect x="730.86" y="807.36" class="st2" width="54.51" height="54.51"/>
			<rect x="730.86" y="752.83" class="st2" width="54.51" height="54.53"/>
			<rect x="730.86" y="698.3" class="st2" width="54.51" height="54.53"/>
			<rect x="730.86" y="643.77" class="st2" width="54.51" height="54.53"/>
			<rect x="730.86" y="589.23" class="st2" width="54.51" height="54.53"/>
			<rect x="730.86" y="534.7" class="st1" width="54.51" height="54.53"/>
			<rect x="730.86" y="480.17" class="st1" width="54.51" height="54.53"/>
			<rect x="730.86" y="425.64" class="st1" width="54.51" height="54.53"/>
			<rect x="730.86" y="371.13" class="st2" width="54.51" height="54.51"/>
			<rect x="730.86" y="316.6" class="st2" width="54.51" height="54.53"/>
			<rect x="730.86" y="262.06" class="st2" width="54.51" height="54.53"/>
			<rect x="730.86" y="207.53" class="st2" width="54.51" height="54.53"/>
			<rect x="730.86" y="153" width="54.51" height="54.53"/>
			<rect x="676.33" y="1025.47" width="54.53" height="54.53"/>
			<rect x="676.33" y="970.94" width="54.53" height="54.53"/>
			<rect x="676.33" y="916.4" width="54.53" height="54.53"/>
			<rect x="676.33" y="861.87" class="st2" width="54.53" height="54.53"/>
			<rect x="676.33" y="807.36" class="st2" width="54.53" height="54.51"/>
			<rect x="676.33" y="752.83" class="st2" width="54.53" height="54.53"/>
			<rect x="676.33" y="698.3" class="st2" width="54.53" height="54.53"/>
			<rect x="676.33" y="643.77" class="st2" width="54.53" height="54.53"/>
			<rect x="676.33" y="589.23" class="st1" width="54.53" height="54.53"/>
			<rect x="676.33" y="534.7" class="st3" width="54.53" height="54.53"/>
			<rect x="676.33" y="480.17" class="st3" width="54.53" height="54.53"/>
			<rect x="676.33" y="425.64" class="st1" width="54.53" height="54.53"/>
			<rect x="676.33" y="371.13" width="54.53" height="54.51"/>
			<rect x="676.33" y="316.6" class="st2" width="54.53" height="54.53"/>
			<rect x="676.33" y="262.06" class="st2" width="54.53" height="54.53"/>
			<rect x="676.33" y="207.53" class="st2" width="54.53" height="54.53"/>
			<rect x="676.33" y="153" width="54.53" height="54.53"/>
			<rect x="621.8" y="1025.47" class="st4" width="54.53" height="54.53"/>
			<rect x="621.8" y="970.94" class="st4" width="54.53" height="54.53"/>
			<rect x="621.8" y="916.4" class="st4" width="54.53" height="54.53"/>
			<rect x="621.8" y="861.87" class="st2" width="54.53" height="54.53"/>
			<rect x="621.8" y="807.36" class="st5" width="54.53" height="54.51"/>
			<rect x="621.8" y="752.83" class="st2" width="54.53" height="54.53"/>
			<rect x="621.8" y="698.3" class="st2" width="54.53" height="54.53"/>
			<rect x="621.8" y="643.77" class="st2" width="54.53" height="54.53"/>
			<rect x="621.8" y="589.23" class="st1" width="54.53" height="54.53"/>
			<rect x="621.8" y="534.7" class="st3" width="54.53" height="54.53"/>
			<rect x="621.8" y="480.17" class="st3" width="54.53" height="54.53"/>
			<rect x="621.8" y="425.64" class="st1" width="54.53" height="54.53"/>
			<rect x="621.8" y="371.13" width="54.53" height="54.51"/>
			<rect x="621.8" y="316.6" class="st2" width="54.53" height="54.53"/>
			<rect x="621.8" y="262.06" class="st2" width="54.53" height="54.53"/>
			<rect x="621.8" y="207.53" class="st2" width="54.53" height="54.53"/>
			<rect x="621.8" y="153" width="54.53" height="54.53"/>
			<rect x="567.27" y="1025.47" class="st2" width="54.53" height="54.53"/>
			<rect x="567.27" y="970.94" class="st2" width="54.53" height="54.53"/>
			<rect x="567.27" y="916.4" class="st2" width="54.53" height="54.53"/>
			<rect x="567.27" y="861.87" class="st2" width="54.53" height="54.53"/>
			<rect x="567.27" y="807.36" class="st5" width="54.53" height="54.51"/>
			<rect x="567.27" y="752.83" class="st2" width="54.53" height="54.53"/>
			<rect x="567.27" y="698.3" class="st6" width="54.53" height="54.53"/>
			<rect x="567.27" y="643.77" class="st2" width="54.53" height="54.53"/>
			<rect x="567.27" y="589.23" class="st2" width="54.53" height="54.53"/>
			<rect x="567.27" y="534.7" class="st1" width="54.53" height="54.53"/>
			<rect x="567.27" y="480.17" class="st1" width="54.53" height="54.53"/>
			<rect x="567.27" y="425.64" class="st1" width="54.53" height="54.53"/>
			<rect x="567.27" y="371.13" class="st2" width="54.53" height="54.51"/>
			<rect x="567.27" y="316.6" class="st2" width="54.53" height="54.53"/>
			<rect x="567.27" y="262.06" class="st2" width="54.53" height="54.53"/>
			<rect x="567.27" y="207.53" class="st7" width="54.53" height="54.53"/>
			<rect x="567.27" y="153" width="54.53" height="54.53"/>
			<rect x="512.73" y="1025.47" class="st2" width="54.53" height="54.53"/>
			<rect x="512.73" y="970.94" class="st2" width="54.53" height="54.53"/>
			<rect x="512.73" y="916.4" class="st2" width="54.53" height="54.53"/>
			<rect x="512.73" y="861.87" class="st2" width="54.53" height="54.53"/>
			<rect x="512.73" y="807.36" class="st5" width="54.53" height="54.51"/>
			<rect x="512.73" y="752.83" class="st2" width="54.53" height="54.53"/>
			<rect x="512.73" y="698.3" class="st6" width="54.53" height="54.53"/>
			<rect x="512.73" y="643.77" class="st2" width="54.53" height="54.53"/>
			<rect x="512.73" y="589.23" class="st2" width="54.53" height="54.53"/>
			<rect x="512.73" y="534.7" class="st2" width="54.53" height="54.53"/>
			<rect x="512.73" y="480.17" class="st2" width="54.53" height="54.53"/>
			<rect x="512.73" y="425.64" class="st1" width="54.53" height="54.53"/>
			<rect x="512.73" y="371.13" class="st2" width="54.53" height="54.51"/>
			<rect x="512.73" y="316.6" class="st2" width="54.53" height="54.53"/>
			<rect x="512.73" y="262.06" class="st2" width="54.53" height="54.53"/>
			<rect x="512.73" y="207.53" class="st7" width="54.53" height="54.53"/>
			<rect x="512.73" y="153" width="54.53" height="54.53"/>
			<rect x="458.2" y="1025.47" class="st2" width="54.53" height="54.53"/>
			<rect x="458.2" y="970.94" class="st2" width="54.53" height="54.53"/>
			<rect x="458.2" y="916.4" class="st2" width="54.53" height="54.53"/>
			<rect x="458.2" y="861.87" class="st2" width="54.53" height="54.53"/>
			<rect x="458.2" y="807.36" class="st5" width="54.53" height="54.51"/>
			<rect x="458.2" y="752.83" class="st2" width="54.53" height="54.53"/>
			<rect x="458.2" y="698.3" class="st2" width="54.53" height="54.53"/>
			<rect x="458.2" y="643.77" class="st2" width="54.53" height="54.53"/>
			<rect x="458.2" y="589.23" class="st2" width="54.53" height="54.53"/>
			<rect x="458.2" y="534.7" class="st1" width="54.53" height="54.53"/>
			<rect x="458.2" y="480.17" class="st1" width="54.53" height="54.53"/>
			<rect x="458.2" y="425.64" class="st1" width="54.53" height="54.53"/>
			<rect x="458.2" y="371.13" class="st2" width="54.53" height="54.51"/>
			<rect x="458.2" y="316.6" class="st2" width="54.53" height="54.53"/>
			<rect x="458.2" y="262.06" class="st2" width="54.53" height="54.53"/>
			<rect x="458.2" y="207.53" class="st7" width="54.53" height="54.53"/>
			<rect x="458.2" y="153" width="54.53" height="54.53"/>
			<rect x="403.67" y="1025.47" class="st2" width="54.53" height="54.53"/>
			<rect x="403.67" y="970.94" class="st2" width="54.53" height="54.53"/>
			<rect x="403.67" y="916.4" class="st2" width="54.53" height="54.53"/>
			<rect x="403.67" y="861.87" class="st2" width="54.53" height="54.53"/>
			<rect x="403.67" y="807.36" class="st2" width="54.53" height="54.51"/>
			<rect x="403.67" y="752.83" class="st2" width="54.53" height="54.53"/>
			<rect x="403.67" y="698.3" class="st2" width="54.53" height="54.53"/>
			<rect x="403.67" y="643.77" class="st2" width="54.53" height="54.53"/>
			<rect x="403.67" y="589.23" class="st1" width="54.53" height="54.53"/>
			<rect x="403.67" y="534.7" class="st3" width="54.53" height="54.53"/>
			<rect x="403.67" y="480.17" class="st3" width="54.53" height="54.53"/>
			<rect x="403.67" y="425.64" class="st1" width="54.53" height="54.53"/>
			<rect x="403.67" y="371.13" width="54.53" height="54.51"/>
			<rect x="403.67" y="316.6" class="st2" width="54.53" height="54.53"/>
			<rect x="403.67" y="262.06" class="st2" width="54.53" height="54.53"/>
			<rect x="403.67" y="207.53" class="st2" width="54.53" height="54.53"/>
			<rect x="403.67" y="153" width="54.53" height="54.53"/>
			<rect x="349.14" y="1025.47" width="54.53" height="54.53"/>
			<rect x="349.14" y="970.94" width="54.53" height="54.53"/>
			<rect x="349.14" y="916.4" width="54.53" height="54.53"/>
			<rect x="349.14" y="861.87" class="st2" width="54.53" height="54.53"/>
			<rect x="349.14" y="807.36" class="st2" width="54.53" height="54.51"/>
			<rect x="349.14" y="752.83" class="st2" width="54.53" height="54.53"/>
			<rect x="349.14" y="698.3" class="st2" width="54.53" height="54.53"/>
			<rect x="349.14" y="643.77" class="st2" width="54.53" height="54.53"/>
			<rect x="349.14" y="589.23" class="st1" width="54.53" height="54.53"/>
			<rect x="349.14" y="534.7" class="st3" width="54.53" height="54.53"/>
			<rect x="349.14" y="480.17" class="st3" width="54.53" height="54.53"/>
			<rect x="349.14" y="425.64" class="st1" width="54.53" height="54.53"/>
			<rect x="349.14" y="371.13" width="54.53" height="54.51"/>
			<rect x="349.14" y="316.6" class="st2" width="54.53" height="54.53"/>
			<rect x="349.14" y="262.06" class="st2" width="54.53" height="54.53"/>
			<rect x="349.14" y="207.53" class="st2" width="54.53" height="54.53"/>
			<rect x="349.14" y="153" width="54.53" height="54.53"/>
			<rect x="294.63" y="861.87" width="54.51" height="54.53"/>
			<rect x="294.63" y="807.36" class="st2" width="54.51" height="54.51"/>
			<rect x="294.63" y="752.83" class="st2" width="54.51" height="54.53"/>
			<rect x="294.63" y="698.3" class="st2" width="54.51" height="54.53"/>
			<rect x="294.63" y="643.77" class="st2" width="54.51" height="54.53"/>
			<rect x="294.63" y="589.23" class="st2" width="54.51" height="54.53"/>
			<rect x="294.63" y="534.7" class="st1" width="54.51" height="54.53"/>
			<rect x="294.63" y="480.17" class="st1" width="54.51" height="54.53"/>
			<rect x="294.63" y="425.64" class="st1" width="54.51" height="54.53"/>
			<rect x="294.63" y="371.13" class="st2" width="54.51" height="54.51"/>
			<rect x="294.63" y="316.6" class="st2" width="54.51" height="54.53"/>
			<rect x="294.63" y="262.06" class="st2" width="54.51" height="54.53"/>
			<rect x="294.63" y="207.53" class="st2" width="54.51" height="54.53"/>
			<rect x="294.63" y="153" width="54.51" height="54.53"/>
			<rect x="240.1" y="807.36" width="54.53" height="54.51"/>
			<rect x="240.1" y="752.83" class="st2" width="54.53" height="54.53"/>
			<rect x="240.1" y="698.3" class="st2" width="54.53" height="54.53"/>
			<rect x="240.1" y="643.77" class="st2" width="54.53" height="54.53"/>
			<rect x="240.1" y="589.23" class="st2" width="54.53" height="54.53"/>
			<rect x="240.1" y="534.7" class="st2" width="54.53" height="54.53"/>
			<rect x="240.1" y="480.17" class="st2" width="54.53" height="54.53"/>
			<rect x="240.1" y="425.64" class="st1" width="54.53" height="54.53"/>
			<rect x="240.1" y="371.13" class="st2" width="54.53" height="54.51"/>
			<rect x="240.1" y="316.6" class="st2" width="54.53" height="54.53"/>
			<rect x="240.1" y="262.06" class="st2" width="54.53" height="54.53"/>
			<rect x="240.1" y="207.53" width="54.53" height="54.53"/>
			<rect x="185.56" y="752.83" width="54.53" height="54.53"/>
			<rect x="185.56" y="698.3" width="54.53" height="54.53"/>
			<rect x="185.56" y="643.77" width="54.53" height="54.53"/>
			<rect x="185.56" y="589.23" width="54.53" height="54.53"/>
			<rect x="185.56" y="534.7" width="54.53" height="54.53"/>
			<rect x="185.56" y="480.17" width="54.53" height="54.53"/>
			<rect x="185.56" y="425.64" width="54.53" height="54.53"/>
			<rect x="185.56" y="371.13" width="54.53" height="54.51"/>
			<rect x="185.56" y="316.6" width="54.53" height="54.53"/>
			<rect x="185.56" y="262.06" width="54.53" height="54.53"/>
		</g>
		<g>
		</g>
	</g>
</g>
</svg>
