<svg xmlns="http://www.w3.org/2000/svg" version="1.1" width="394" height="433" viewBox="0 0 394 433" style="shape-rendering:geometricPrecision; text-rendering:geometricPrecision; image-rendering:optimizeQuality; fill-rule:evenodd; clip-rule:evenodd" xmlns:xlink="http://www.w3.org/1999/xlink">
<g><path style="opacity:0.952" fill="#0c0a0c" d="M 381.5,101.5 C 380.233,99.2274 378.567,97.2274 376.5,95.5C 377.428,94.2322 377.595,92.8989 377,91.5C 375.989,92.3366 374.822,92.67 373.5,92.5C 372.136,90.8089 370.803,89.1423 369.5,87.5C 367.037,85.5389 364.703,83.3722 362.5,81C 368.528,80.8303 374.528,80.3303 380.5,79.5C 380.376,78.8933 380.043,78.56 379.5,78.5C 366.241,72.0264 352.241,67.8597 337.5,66C 339.382,65.8019 341.048,65.3019 342.5,64.5C 343.5,64.5 344.5,64.5 345.5,64.5C 348.143,63.546 350.81,62.546 353.5,61.5C 354.289,61.2172 354.956,60.7172 355.5,60C 351.642,59.1901 347.976,59.3567 344.5,60.5C 338.5,60.5 332.5,60.5 326.5,60.5C 322.236,60.6558 318.236,59.9891 314.5,58.5C 308.612,54.0883 301.945,51.4216 294.5,50.5C 293.602,49.8423 292.602,49.1757 291.5,48.5C 295.916,46.2495 299.916,43.4162 303.5,40C 299.973,39.1925 296.64,39.3592 293.5,40.5C 288.555,40.2365 283.888,41.2365 279.5,43.5C 279.167,43.1667 278.833,42.8333 278.5,42.5C 279.833,40.8333 281.167,39.1667 282.5,37.5C 282,37.1667 281.5,36.8333 281,36.5C 274.163,38.6674 267.996,42.0007 262.5,46.5C 262.611,43.2216 262.611,39.8883 262.5,36.5C 258.102,39.8947 254.436,43.8947 251.5,48.5C 250.25,48.4226 249.417,47.756 249,46.5C 248.819,43.3054 248.319,40.3054 247.5,37.5C 247.478,35.1996 246.478,34.033 244.5,34C 242.467,36.8959 241.134,40.0626 240.5,43.5C 239.687,45.2608 238.687,46.9275 237.5,48.5C 235.141,36.9495 229.141,27.7828 219.5,21C 212.928,17.2152 206.262,13.7152 199.5,10.5C 199.167,11.1667 198.833,11.8333 198.5,12.5C 200.122,16.0746 201.456,19.7412 202.5,23.5C 205.859,28.5178 209.193,33.5178 212.5,38.5C 197.512,28.8396 181.179,22.8396 163.5,20.5C 157.74,18.9999 151.74,18.3332 145.5,18.5C 141.319,18.5011 137.319,18.8344 133.5,19.5C 132.5,19.5 131.5,19.5 130.5,19.5C 131.376,23.5821 133.043,27.2488 135.5,30.5C 140.226,41.0611 147.893,48.8944 158.5,54C 154.975,54.1787 151.641,54.6787 148.5,55.5C 137.186,57.3619 125.852,59.3619 114.5,61.5C 113.228,61.4302 112.062,61.0968 111,60.5C 111.418,64.0032 112.918,67.0032 115.5,69.5C 117.598,73.4336 120.598,76.6003 124.5,79C 130.401,81.5815 136.401,83.4148 142.5,84.5C 140.046,86.0598 137.38,87.0598 134.5,87.5C 125.767,86.1325 118.434,82.1325 112.5,75.5C 110.833,72.8333 109.167,70.1667 107.5,67.5C 106.886,63.8648 106.552,60.1981 106.5,56.5C 118.743,57.4849 130.41,55.3182 141.5,50C 133.175,41.5203 127.841,31.3537 125.5,19.5C 125.529,17.9707 126.196,16.804 127.5,16C 151.446,11.7545 174.446,14.5878 196.5,24.5C 197.023,22.1637 196.523,19.8303 195,17.5C 194.452,13.8296 193.952,10.1629 193.5,6.5C 213.467,8.30226 228.3,17.9689 238,35.5C 240.101,32.2878 242.434,29.2878 245,26.5C 246.225,26.8623 247.391,27.3623 248.5,28C 250.543,31.6711 252.209,35.5045 253.5,39.5C 256.076,36.213 259.076,33.3797 262.5,31C 264.112,30.2797 265.612,30.4464 267,31.5C 267.333,34.1667 267.667,36.8333 268,39.5C 273.684,33.9084 280.518,30.9084 288.5,30.5C 288.579,31.9305 288.246,33.2638 287.5,34.5C 295.373,35.1168 303.04,35.2835 310.5,35C 311.517,36.0495 311.684,37.2161 311,38.5C 308.806,42.0274 305.973,44.8608 302.5,47C 309.086,49.0836 315.419,51.7503 321.5,55C 326.287,55.9287 331.12,56.4287 336,56.5C 345.488,55.7839 354.988,55.4506 364.5,55.5C 363.863,59.645 361.529,62.4784 357.5,64C 365.244,66.025 372.577,69.025 379.5,73C 382.887,75.1854 385.554,78.0187 387.5,81.5C 386.335,82.5836 385.002,83.4169 383.5,84C 380.123,84.4517 376.789,85.1184 373.5,86C 378.631,89.9467 381.298,95.1133 381.5,101.5 Z"/></g>
<g><path style="opacity:1" fill="#f7f5ef" d="M 237.5,48.5 C 237.5,49.1667 237.5,49.8333 237.5,50.5C 235.146,50.162 232.813,49.662 230.5,49C 220.667,40.9985 211.334,32.4985 202.5,23.5C 201.456,19.7412 200.122,16.0746 198.5,12.5C 198.833,11.8333 199.167,11.1667 199.5,10.5C 206.262,13.7152 212.928,17.2152 219.5,21C 229.141,27.7828 235.141,36.9495 237.5,48.5 Z"/></g>
<g><path style="opacity:1" fill="#7b7771" d="M 133.5,19.5 C 137.319,18.8344 141.319,18.5011 145.5,18.5C 151.74,18.3332 157.74,18.9999 163.5,20.5C 153.521,19.7039 143.521,19.3705 133.5,19.5 Z"/></g>
<g><path style="opacity:1" fill="#fcfaf3" d="M 133.5,19.5 C 143.521,19.3705 153.521,19.7039 163.5,20.5C 181.179,22.8396 197.512,28.8396 212.5,38.5C 220.109,41.7762 225.776,47.1095 229.5,54.5C 230.906,57.4135 232.906,59.9135 235.5,62C 234.906,62.4643 234.239,62.631 233.5,62.5C 231.579,61.6373 229.579,60.9707 227.5,60.5C 215.84,57.4769 203.84,55.9769 191.5,56C 182.782,54.9936 174.115,53.6603 165.5,52C 160.108,50.4703 155.108,48.137 150.5,45C 144.97,40.6356 139.97,35.8023 135.5,30.5C 133.043,27.2488 131.376,23.5821 130.5,19.5C 131.5,19.5 132.5,19.5 133.5,19.5 Z"/></g>
<g><path style="opacity:0.004" fill="#fefffe" d="M 246.5,22.5 C 247.525,22.8966 247.692,23.5632 247,24.5C 246.536,23.9056 246.369,23.2389 246.5,22.5 Z"/></g>
<g><path style="opacity:0.004" fill="#fefffe" d="M 266.5,26.5 C 267.833,27.1667 267.833,27.1667 266.5,26.5 Z"/></g>
<g><path style="opacity:0.007" fill="#fefffe" d="M 312.5,32.5 C 313.077,31.2267 313.743,31.2267 314.5,32.5C 314.03,33.463 313.363,33.463 312.5,32.5 Z"/></g>
<g><path style="opacity:1" fill="#d5c1c3" d="M 202.5,23.5 C 211.334,32.4985 220.667,40.9985 230.5,49C 232.813,49.662 235.146,50.162 237.5,50.5C 237.225,52.7583 236.225,53.0916 234.5,51.5C 232.241,51.7845 230.574,52.7845 229.5,54.5C 225.776,47.1095 220.109,41.7762 212.5,38.5C 209.193,33.5178 205.859,28.5178 202.5,23.5 Z"/></g>
<g><path style="opacity:1" fill="#eceae2" d="M 247.5,37.5 C 247.354,41.619 245.354,44.619 241.5,46.5C 240.614,45.675 240.281,44.675 240.5,43.5C 241.134,40.0626 242.467,36.8959 244.5,34C 246.478,34.033 247.478,35.1996 247.5,37.5 Z"/></g>
<g><path style="opacity:1" fill="#efeeec" d="M 293.5,40.5 C 295.048,40.8212 295.715,41.8212 295.5,43.5C 288.046,46.2584 280.379,48.2584 272.5,49.5C 271.188,49.1757 270.355,48.5091 270,47.5C 266.791,49.9651 263.291,50.6318 259.5,49.5C 256.249,51.375 253.082,53.375 250,55.5C 249.865,53.0784 250.365,50.7451 251.5,48.5C 254.436,43.8947 258.102,39.8947 262.5,36.5C 262.611,39.8883 262.611,43.2216 262.5,46.5C 267.996,42.0007 274.163,38.6674 281,36.5C 281.5,36.8333 282,37.1667 282.5,37.5C 281.167,39.1667 279.833,40.8333 278.5,42.5C 278.833,42.8333 279.167,43.1667 279.5,43.5C 283.888,41.2365 288.555,40.2365 293.5,40.5 Z"/></g>
<g><path style="opacity:1" fill="#81848b" d="M 293.5,40.5 C 296.64,39.3592 299.973,39.1925 303.5,40C 299.916,43.4162 295.916,46.2495 291.5,48.5C 292.602,49.1757 293.602,49.8423 294.5,50.5C 289.604,51.2875 289.271,52.9541 293.5,55.5C 292.833,55.5 292.5,55.8333 292.5,56.5C 289.63,55.3664 286.63,54.6997 283.5,54.5C 279.151,54.3529 275.484,52.6862 272.5,49.5C 280.379,48.2584 288.046,46.2584 295.5,43.5C 295.715,41.8212 295.048,40.8212 293.5,40.5 Z"/></g>
<g><path style="opacity:1" fill="#a4a7af" d="M 294.5,50.5 C 301.945,51.4216 308.612,54.0883 314.5,58.5C 310.908,58.2857 307.408,57.6191 304,56.5C 302.615,56.5143 301.449,56.8476 300.5,57.5C 299.5,57.5 298.5,57.5 297.5,57.5C 295.938,57.2671 294.605,56.6005 293.5,55.5C 289.271,52.9541 289.604,51.2875 294.5,50.5 Z"/></g>
<g><path style="opacity:1" fill="#9ea7b0" d="M 247.5,37.5 C 248.319,40.3054 248.819,43.3054 249,46.5C 249.417,47.756 250.25,48.4226 251.5,48.5C 250.365,50.7451 249.865,53.0784 250,55.5C 253.082,53.375 256.249,51.375 259.5,49.5C 263.291,50.6318 266.791,49.9651 270,47.5C 270.355,48.5091 271.188,49.1757 272.5,49.5C 275.484,52.6862 279.151,54.3529 283.5,54.5C 281.571,54.2308 279.905,54.7308 278.5,56C 279.448,56.4828 280.448,56.6495 281.5,56.5C 281.5,57.8333 281.5,59.1667 281.5,60.5C 279.053,60.615 277.053,61.615 275.5,63.5C 275.631,62.7611 275.464,62.0944 275,61.5C 269.398,64.6006 265.898,69.2672 264.5,75.5C 263.686,77.631 263.186,79.9644 263,82.5C 260.822,79.5315 259.656,79.8649 259.5,83.5C 256.551,83.0686 253.884,81.9019 251.5,80C 251.833,79.6667 252.167,79.3333 252.5,79C 250.635,78.0357 248.968,76.8691 247.5,75.5C 247.489,73.9826 246.823,72.8159 245.5,72C 241.944,70.3924 238.611,68.5591 235.5,66.5C 236.239,66.631 236.906,66.4643 237.5,66C 236.269,64.5952 234.936,63.4286 233.5,62.5C 234.239,62.631 234.906,62.4643 235.5,62C 232.906,59.9135 230.906,57.4135 229.5,54.5C 230.574,52.7845 232.241,51.7845 234.5,51.5C 236.225,53.0916 237.225,52.7583 237.5,50.5C 237.5,49.8333 237.5,49.1667 237.5,48.5C 238.687,46.9275 239.687,45.2608 240.5,43.5C 240.281,44.675 240.614,45.675 241.5,46.5C 245.354,44.619 247.354,41.619 247.5,37.5 Z"/></g>
<g><path style="opacity:1" fill="#fcfbf3" d="M 148.5,55.5 C 162.258,55.6091 175.924,56.7758 189.5,59C 190.973,59.7096 191.64,60.8762 191.5,62.5C 197.181,62.022 202.848,61.3553 208.5,60.5C 212.843,61.1691 217.177,61.8358 221.5,62.5C 226.343,63.2568 231.009,64.5901 235.5,66.5C 238.611,68.5591 241.944,70.3924 245.5,72C 246.823,72.8159 247.489,73.9826 247.5,75.5C 237.332,78.8313 230.165,85.498 226,95.5C 218.723,121.949 220.557,147.616 231.5,172.5C 232.745,178.322 235.078,183.655 238.5,188.5C 234.566,189.36 230.566,189.693 226.5,189.5C 226.5,190.5 226.5,191.5 226.5,192.5C 224.201,193.138 222.034,194.138 220,195.5C 219.107,194.919 218.107,194.585 217,194.5C 212.995,194.992 209.162,195.659 205.5,196.5C 202.135,197.04 198.802,197.706 195.5,198.5C 192.426,198.873 189.426,199.539 186.5,200.5C 185.833,198.5 185.167,196.5 184.5,194.5C 182.833,194.5 181.167,194.5 179.5,194.5C 179.5,196.167 179.5,197.833 179.5,199.5C 178.167,199.5 176.833,199.5 175.5,199.5C 176.381,195.4 177.048,191.233 177.5,187C 176.841,180.549 175.508,174.382 173.5,168.5C 171.874,156.783 169.374,145.116 166,133.5C 162.87,124.868 158.037,117.535 151.5,111.5C 146.811,107.953 141.477,106.619 135.5,107.5C 130.116,104.974 124.783,105.307 119.5,108.5C 118.893,108.376 118.56,108.043 118.5,107.5C 122.389,99.9448 127.722,93.6114 134.5,88.5C 134.5,88.1667 134.5,87.8333 134.5,87.5C 137.38,87.0598 140.046,86.0598 142.5,84.5C 146.259,83.4555 149.925,82.1222 153.5,80.5C 146.114,79.6591 138.781,78.4925 131.5,77C 125.994,74.7453 120.66,72.2453 115.5,69.5C 112.918,67.0032 111.418,64.0032 111,60.5C 112.062,61.0968 113.228,61.4302 114.5,61.5C 125.852,59.3619 137.186,57.3619 148.5,55.5 Z"/></g>
<g><path style="opacity:1" fill="#d6bfc5" d="M 135.5,30.5 C 139.97,35.8023 144.97,40.6356 150.5,45C 155.108,48.137 160.108,50.4703 165.5,52C 174.115,53.6603 182.782,54.9936 191.5,56C 203.84,55.9769 215.84,57.4769 227.5,60.5C 224.918,60.0254 222.918,60.6921 221.5,62.5C 217.177,61.8358 212.843,61.1691 208.5,60.5C 202.848,61.3553 197.181,62.022 191.5,62.5C 191.64,60.8762 190.973,59.7096 189.5,59C 175.924,56.7758 162.258,55.6091 148.5,55.5C 151.641,54.6787 154.975,54.1787 158.5,54C 147.893,48.8944 140.226,41.0611 135.5,30.5 Z"/></g>
<g><path style="opacity:1" fill="#736a6d" d="M 344.5,60.5 C 347.976,59.3567 351.642,59.1901 355.5,60C 354.956,60.7172 354.289,61.2172 353.5,61.5C 350.713,60.5233 347.713,60.19 344.5,60.5 Z"/></g>
<g><path style="opacity:1" fill="#c7c1c1" d="M 326.5,60.5 C 332.5,60.5 338.5,60.5 344.5,60.5C 347.713,60.19 350.713,60.5233 353.5,61.5C 350.81,62.546 348.143,63.546 345.5,64.5C 346.091,63.8485 346.757,63.1818 347.5,62.5C 340.345,61.8333 333.345,61.1666 326.5,60.5 Z"/></g>
<g><path style="opacity:1" fill="#f4f3f4" d="M 300.5,57.5 C 301.449,56.8476 302.615,56.5143 304,56.5C 307.408,57.6191 310.908,58.2857 314.5,58.5C 318.236,59.9891 322.236,60.6558 326.5,60.5C 333.345,61.1666 340.345,61.8333 347.5,62.5C 346.757,63.1818 346.091,63.8485 345.5,64.5C 344.5,64.5 343.5,64.5 342.5,64.5C 328.065,64.6858 314.065,62.3525 300.5,57.5 Z"/></g>
<g><path style="opacity:1" fill="#867580" d="M 227.5,60.5 C 229.579,60.9707 231.579,61.6373 233.5,62.5C 234.936,63.4286 236.269,64.5952 237.5,66C 236.906,66.4643 236.239,66.631 235.5,66.5C 231.009,64.5901 226.343,63.2568 221.5,62.5C 222.918,60.6921 224.918,60.0254 227.5,60.5 Z"/></g>
<g><path style="opacity:1" fill="#a6b5bd" d="M 283.5,54.5 C 286.63,54.6997 289.63,55.3664 292.5,56.5C 301.209,62.875 308.542,70.5417 314.5,79.5C 314.631,80.2389 314.464,80.9056 314,81.5C 311.54,80.0422 309.373,78.2089 307.5,76C 306.833,75.3333 306.167,75.3333 305.5,76C 310.439,82.7778 316.439,88.2778 323.5,92.5C 325.531,94.5224 327.865,96.1891 330.5,97.5C 331.937,98.7255 333.604,99.7255 335.5,100.5C 336.521,99.9984 336.688,99.3317 336,98.5C 330.653,90.6668 324.819,83.3335 318.5,76.5C 318.147,74.3652 318.98,73.0319 321,72.5C 324.128,73.2037 327.294,73.7037 330.5,74C 336.318,75.984 341.985,78.1507 347.5,80.5C 349.529,82.8585 351.529,85.1918 353.5,87.5C 353.318,89.5914 353.652,91.5914 354.5,93.5C 349.52,100.774 346.52,108.774 345.5,117.5C 344.325,117.281 343.325,117.614 342.5,118.5C 339.436,121.188 337.436,124.188 336.5,127.5C 333.941,128.608 331.608,129.941 329.5,131.5C 321.344,131.985 313.344,131.318 305.5,129.5C 300.238,126.898 295.238,123.898 290.5,120.5C 287.197,116.349 284.03,112.015 281,107.5C 277.392,100.607 273.559,93.9407 269.5,87.5C 264.319,77.7078 266.319,69.7078 275.5,63.5C 277.053,61.615 279.053,60.615 281.5,60.5C 281.5,59.1667 281.5,57.8333 281.5,56.5C 280.448,56.6495 279.448,56.4828 278.5,56C 279.905,54.7308 281.571,54.2308 283.5,54.5 Z"/></g>
<g><path style="opacity:1" fill="#9aa1a9" d="M 297.5,57.5 C 298.5,57.5 299.5,57.5 300.5,57.5C 314.065,62.3525 328.065,64.6858 342.5,64.5C 341.048,65.3019 339.382,65.8019 337.5,66C 352.241,67.8597 366.241,72.0264 379.5,78.5C 373.495,80.1447 367.662,79.4781 362,76.5C 360.205,78.4665 358.038,79.7998 355.5,80.5C 352.658,79.498 349.992,79.498 347.5,80.5C 341.985,78.1507 336.318,75.984 330.5,74C 327.294,73.7037 324.128,73.2037 321,72.5C 318.98,73.0319 318.147,74.3652 318.5,76.5C 317.833,76.1667 317.167,75.8333 316.5,75.5C 310.017,69.7402 303.684,63.7402 297.5,57.5 Z"/></g>
<g><path style="opacity:0.004" fill="#fefffe" d="M 387.5,74.5 C 388.833,75.1667 388.833,75.1667 387.5,74.5 Z"/></g>
<g><path style="opacity:1" fill="#7b7b86" d="M 106.5,67.5 C 106.833,67.5 107.167,67.5 107.5,67.5C 109.167,70.1667 110.833,72.8333 112.5,75.5C 111.653,76.9663 110.32,77.7996 108.5,78C 109.308,78.3076 109.975,78.8076 110.5,79.5C 108.76,82.9104 107.76,86.5771 107.5,90.5C 103.143,87.1357 98.8093,83.8024 94.5,80.5C 99.4406,78.8476 104.441,77.3476 109.5,76C 108.619,75.2917 107.953,74.4584 107.5,73.5C 107.279,72.2652 106.612,71.2652 105.5,70.5C 106.127,69.5832 106.461,68.5832 106.5,67.5 Z"/></g>
<g><path style="opacity:1" fill="#373b4b" d="M 292.5,56.5 C 292.5,55.8333 292.833,55.5 293.5,55.5C 294.605,56.6005 295.938,57.2671 297.5,57.5C 303.684,63.7402 310.017,69.7402 316.5,75.5C 317.423,78.3404 319.09,80.6737 321.5,82.5C 323.074,88.5692 326.407,93.4026 331.5,97C 331.272,97.3988 330.938,97.5654 330.5,97.5C 327.865,96.1891 325.531,94.5224 323.5,92.5C 320.883,87.8859 317.883,83.5526 314.5,79.5C 308.542,70.5417 301.209,62.875 292.5,56.5 Z"/></g>
<g><path style="opacity:0.004" fill="#dddddd" d="M 57.5,79.5 C 60.0009,79.5109 60.1676,80.1776 58,81.5C 57.5357,80.9056 57.369,80.2389 57.5,79.5 Z"/></g>
<g><path style="opacity:1" fill="#cbb5be" d="M 115.5,69.5 C 120.66,72.2453 125.994,74.7453 131.5,77C 138.781,78.4925 146.114,79.6591 153.5,80.5C 149.925,82.1222 146.259,83.4555 142.5,84.5C 136.401,83.4148 130.401,81.5815 124.5,79C 120.598,76.6003 117.598,73.4336 115.5,69.5 Z"/></g>
<g><path style="opacity:1" fill="#616173" d="M 112.5,75.5 C 118.434,82.1325 125.767,86.1325 134.5,87.5C 134.5,87.8333 134.5,88.1667 134.5,88.5C 127.636,91.3606 122.303,96.0273 118.5,102.5C 118.565,102.062 118.399,101.728 118,101.5C 116.647,102.685 115.48,104.019 114.5,105.5C 113.709,104.934 113.709,104.101 114.5,103C 113.277,100.943 112.277,98.7767 111.5,96.5C 109.812,95.4787 108.479,94.1454 107.5,92.5C 108.506,92.0623 108.506,91.3957 107.5,90.5C 107.76,86.5771 108.76,82.9104 110.5,79.5C 109.975,78.8076 109.308,78.3076 108.5,78C 110.32,77.7996 111.653,76.9663 112.5,75.5 Z"/></g>
<g><path style="opacity:0.004" fill="#fefffe" d="M 55.5,82.5 C 56.8333,83.1667 56.8333,83.1667 55.5,82.5 Z"/></g>
<g><path style="opacity:1" fill="#f3f3f0" d="M 107.5,73.5 C 107.953,74.4584 108.619,75.2917 109.5,76C 104.441,77.3476 99.4406,78.8476 94.5,80.5C 93.5,80.5 92.5,80.5 91.5,80.5C 91.6602,82.1992 91.4935,83.8659 91,85.5C 83.9538,91.6403 78.9538,98.9737 76,107.5C 77.3333,106.167 78.6667,104.833 80,103.5C 80.1667,103.833 80.3333,104.167 80.5,104.5C 74.5483,114.106 67.8817,123.106 60.5,131.5C 63.9303,120.71 67.4303,110.044 71,99.5C 61.7316,105.267 53.8983,112.601 47.5,121.5C 48.325,122.386 49.325,122.719 50.5,122.5C 52.3786,122.393 52.7119,122.893 51.5,124C 47.9311,125.942 44.5978,128.108 41.5,130.5C 35.1667,133.5 30.5,138.167 27.5,144.5C 25.2145,147.463 23.3812,150.796 22,154.5C 21.5065,152.866 21.3398,151.199 21.5,149.5C 23.8453,139.651 29.1786,131.818 37.5,126C 33.4005,126.7 29.4005,128.033 25.5,130C 21.5511,131.184 17.5511,131.518 13.5,131C 21.2843,124.773 29.951,120.107 39.5,117C 40.3805,116.292 41.0472,115.458 41.5,114.5C 45.0314,113.775 45.698,112.442 43.5,110.5C 48.2605,108.621 52.9272,106.454 57.5,104C 64.871,96.9602 72.5377,90.2935 80.5,84C 65.4623,84.1954 65.4623,81.5288 80.5,76C 84.894,75.6972 89.2273,75.0305 93.5,74C 90.6447,73.0506 88.3114,71.3839 86.5,69C 93.9949,68.2654 100.995,69.7654 107.5,73.5 Z"/></g>
<g><path style="opacity:1" fill="#363746" d="M 275.5,63.5 C 266.319,69.7078 264.319,77.7078 269.5,87.5C 268.508,87.3284 267.842,87.6618 267.5,88.5C 266.21,87.9423 265.377,86.9423 265,85.5C 264.502,82.1832 264.335,78.8499 264.5,75.5C 265.898,69.2672 269.398,64.6006 275,61.5C 275.464,62.0944 275.631,62.7611 275.5,63.5 Z"/></g>
<g><path style="opacity:1" fill="#71798b" d="M 314.5,79.5 C 317.883,83.5526 320.883,87.8859 323.5,92.5C 316.439,88.2778 310.439,82.7778 305.5,76C 306.167,75.3333 306.833,75.3333 307.5,76C 309.373,78.2089 311.54,80.0422 314,81.5C 314.464,80.9056 314.631,80.2389 314.5,79.5 Z"/></g>
<g><path style="opacity:1" fill="#5c6271" d="M 316.5,75.5 C 317.167,75.8333 317.833,76.1667 318.5,76.5C 324.819,83.3335 330.653,90.6668 336,98.5C 336.688,99.3317 336.521,99.9984 335.5,100.5C 333.604,99.7255 331.937,98.7255 330.5,97.5C 330.938,97.5654 331.272,97.3988 331.5,97C 326.407,93.4026 323.074,88.5692 321.5,82.5C 319.09,80.6737 317.423,78.3404 316.5,75.5 Z"/></g>
<g><path style="opacity:1" fill="#747580" d="M 264.5,75.5 C 264.335,78.8499 264.502,82.1832 265,85.5C 265.377,86.9423 266.21,87.9423 267.5,88.5C 272.373,99.9121 278.039,110.912 284.5,121.5C 283.596,122.209 283.263,123.209 283.5,124.5C 276.918,114.344 271.085,103.678 266,92.5C 263.583,89.598 261.416,86.598 259.5,83.5C 259.656,79.8649 260.822,79.5315 263,82.5C 263.186,79.9644 263.686,77.631 264.5,75.5 Z"/></g>
<g><path style="opacity:1" fill="#596288" d="M 369.5,87.5 C 370.803,89.1423 372.136,90.8089 373.5,92.5C 379.174,100.511 380.674,109.178 378,118.5C 375.457,112.472 371.957,107.139 367.5,102.5C 367.015,97.2709 367.682,92.2709 369.5,87.5 Z"/></g>
<g><path style="opacity:0.004" fill="#fefffe" d="M 385.5,117.5 C 386.525,117.897 386.692,118.563 386,119.5C 385.536,118.906 385.369,118.239 385.5,117.5 Z"/></g>
<g><path style="opacity:1" fill="#8c96a7" d="M 353.5,87.5 C 353.833,87.5 354.167,87.5 354.5,87.5C 357.5,97.34 357,107.007 353,116.5C 350.894,118.377 349.561,120.71 349,123.5C 347.184,124.329 345.351,125.163 343.5,126C 344.167,126.333 344.833,126.667 345.5,127C 341.85,128.74 338.35,130.573 335,132.5C 333.081,131.926 331.247,131.593 329.5,131.5C 331.608,129.941 333.941,128.608 336.5,127.5C 337.436,124.188 339.436,121.188 342.5,118.5C 343.325,117.614 344.325,117.281 345.5,117.5C 346.52,108.774 349.52,100.774 354.5,93.5C 353.652,91.5914 353.318,89.5914 353.5,87.5 Z"/></g>
<g><path style="opacity:0.004" fill="#fefffe" d="M 384.5,120.5 C 385.833,121.167 385.833,121.167 384.5,120.5 Z"/></g>
<g><path style="opacity:0.004" fill="#fefffe" d="M 384.5,121.5 C 383.833,122.167 383.833,122.167 384.5,121.5 Z"/></g>
<g><path style="opacity:0.004" fill="#fefffe" d="M 2.5,126.5 C 3.83333,127.167 3.83333,127.167 2.5,126.5 Z"/></g>
<g><path style="opacity:1" fill="#a6b1ba" d="M 247.5,75.5 C 248.968,76.8691 250.635,78.0357 252.5,79C 252.167,79.3333 251.833,79.6667 251.5,80C 253.884,81.9019 256.551,83.0686 259.5,83.5C 261.416,86.598 263.583,89.598 266,92.5C 271.085,103.678 276.918,114.344 283.5,124.5C 288.482,133.119 293.982,141.452 300,149.5C 308.801,159.143 319.301,166.143 331.5,170.5C 327.971,173.707 323.971,176.04 319.5,177.5C 310.285,179.201 300.951,180.201 291.5,180.5C 303.597,154.179 295.931,136.012 268.5,126C 250.571,123.05 238.738,130.216 233,147.5C 230.419,155.719 229.919,164.053 231.5,172.5C 220.557,147.616 218.723,121.949 226,95.5C 230.165,85.498 237.332,78.8313 247.5,75.5 Z"/></g>
<g><path style="opacity:0.004" fill="#fefffe" d="M 381.5,128.5 C 382.833,129.167 382.833,129.167 381.5,128.5 Z"/></g>
<g><path style="opacity:0.004" fill="#fefffe" d="M 0.5,129.5 C 1.52502,129.897 1.69169,130.563 1,131.5C 0.535656,130.906 0.368989,130.239 0.5,129.5 Z"/></g>
<g><path style="opacity:0.004" fill="#fefffe" d="M 381.5,129.5 C 381.217,130.289 380.717,130.956 380,131.5C 379.472,130.184 379.972,129.517 381.5,129.5 Z"/></g>
<g><path style="opacity:0.035" fill="#707170" d="M 377.5,131.5 C 378.833,132.167 378.833,132.167 377.5,131.5 Z"/></g>
<g><path style="opacity:1" fill="#6c738c" d="M 379.5,78.5 C 380.043,78.56 380.376,78.8933 380.5,79.5C 374.528,80.3303 368.528,80.8303 362.5,81C 364.703,83.3722 367.037,85.5389 369.5,87.5C 367.682,92.2709 367.015,97.2709 367.5,102.5C 366.883,102.389 366.383,102.056 366,101.5C 365.51,102.793 365.343,104.127 365.5,105.5C 362.418,113.211 359.918,120.877 358,128.5C 357.667,128.167 357.333,127.833 357,127.5C 356.067,131.395 353.567,133.562 349.5,134C 350.167,134.333 350.833,134.667 351.5,135C 349.037,136.921 347.037,139.254 345.5,142C 341.716,142.407 338.049,143.241 334.5,144.5C 332.407,144.514 330.574,143.848 329,142.5C 325.736,143.701 322.403,143.701 319,142.5C 313.517,140.759 308.85,137.759 305,133.5C 303.293,134.138 301.46,134.138 299.5,133.5C 296.117,129.447 293.117,125.114 290.5,120.5C 295.238,123.898 300.238,126.898 305.5,129.5C 306.502,131.011 307.169,132.678 307.5,134.5C 310.226,134.264 312.559,135.097 314.5,137C 320.807,137.721 327.141,136.887 333.5,134.5C 335.605,135.014 337.439,135.347 339,135.5C 339.483,134.552 339.649,133.552 339.5,132.5C 340.822,132.33 341.989,132.663 343,133.5C 345.694,131.433 348.527,128.766 351.5,125.5C 353.064,126.186 354.731,126.019 356.5,125C 356.167,124.667 355.833,124.333 355.5,124C 356.396,121.821 357.729,119.988 359.5,118.5C 359.319,113.048 358.652,107.548 357.5,102C 358.081,98.9798 358.415,95.9798 358.5,93C 357.968,90.5368 356.634,88.7035 354.5,87.5C 354.167,87.5 353.833,87.5 353.5,87.5C 351.529,85.1918 349.529,82.8585 347.5,80.5C 349.992,79.498 352.658,79.498 355.5,80.5C 358.038,79.7998 360.205,78.4665 362,76.5C 367.662,79.4781 373.495,80.1447 379.5,78.5 Z"/></g>
<g><path style="opacity:1" fill="#a1b1b8" d="M 94.5,80.5 C 98.8093,83.8024 103.143,87.1357 107.5,90.5C 108.506,91.3957 108.506,92.0623 107.5,92.5C 104.349,90.9267 101.016,89.9267 97.5,89.5C 95.6107,89.4363 93.9441,89.9363 92.5,91C 99.594,91.2973 105.427,94.1306 110,99.5C 109.839,104.504 109.339,109.504 108.5,114.5C 107.013,121.09 105.846,127.757 105,134.5C 104.122,138.052 102.956,141.386 101.5,144.5C 100.417,144.539 99.4168,144.873 98.5,145.5C 96.8211,143.896 94.8211,143.229 92.5,143.5C 92.5,149.167 92.5,154.833 92.5,160.5C 88.4161,161.478 84.2494,162.478 80,163.5C 75.99,161.865 71.8233,161.198 67.5,161.5C 67.5,159.833 67.5,158.167 67.5,156.5C 65.8008,156.66 64.1341,156.494 62.5,156C 60.2793,153.723 57.6126,152.223 54.5,151.5C 53.7057,149.127 52.7057,146.794 51.5,144.5C 52.325,143.614 53.325,143.281 54.5,143.5C 54.3915,141.486 55.0582,139.82 56.5,138.5C 57.472,135.868 58.8053,133.535 60.5,131.5C 67.8817,123.106 74.5483,114.106 80.5,104.5C 80.3333,104.167 80.1667,103.833 80,103.5C 78.6667,104.833 77.3333,106.167 76,107.5C 78.9538,98.9737 83.9538,91.6403 91,85.5C 91.4935,83.8659 91.6602,82.1992 91.5,80.5C 92.5,80.5 93.5,80.5 94.5,80.5 Z"/></g>
<g><path style="opacity:1" fill="#7e879c" d="M 354.5,87.5 C 356.634,88.7035 357.968,90.5368 358.5,93C 358.415,95.9798 358.081,98.9798 357.5,102C 358.652,107.548 359.319,113.048 359.5,118.5C 357.729,119.988 356.396,121.821 355.5,124C 355.833,124.333 356.167,124.667 356.5,125C 354.731,126.019 353.064,126.186 351.5,125.5C 348.527,128.766 345.694,131.433 343,133.5C 341.989,132.663 340.822,132.33 339.5,132.5C 339.649,133.552 339.483,134.552 339,135.5C 337.439,135.347 335.605,135.014 333.5,134.5C 327.141,136.887 320.807,137.721 314.5,137C 312.559,135.097 310.226,134.264 307.5,134.5C 307.169,132.678 306.502,131.011 305.5,129.5C 313.344,131.318 321.344,131.985 329.5,131.5C 331.247,131.593 333.081,131.926 335,132.5C 338.35,130.573 341.85,128.74 345.5,127C 344.833,126.667 344.167,126.333 343.5,126C 345.351,125.163 347.184,124.329 349,123.5C 349.561,120.71 350.894,118.377 353,116.5C 357,107.007 357.5,97.34 354.5,87.5 Z"/></g>
<g><path style="opacity:0.004" fill="#b8b8b8" d="M 376.5,136.5 C 377.573,137.251 377.74,138.251 377,139.5C 376.517,138.552 376.351,137.552 376.5,136.5 Z"/></g>
<g><path style="opacity:0.004" fill="#fefffe" d="M 11.5,153.5 C 12.525,153.897 12.6917,154.563 12,155.5C 11.5357,154.906 11.369,154.239 11.5,153.5 Z"/></g>
<g><path style="opacity:0.004" fill="#fefffe" d="M 368.5,162.5 C 369.833,163.167 369.833,163.167 368.5,162.5 Z"/></g>
<g><path style="opacity:0.006" fill="#fefffe" d="M 366.5,163.5 C 367.688,165.496 367.021,166.329 364.5,166C 365.381,165.292 366.047,164.458 366.5,163.5 Z"/></g>
<g><path style="opacity:0.004" fill="#000000" d="M 360.5,169.5 C 361.833,170.167 361.833,170.167 360.5,169.5 Z"/></g>
<g><path style="opacity:0.004" fill="#d4d4d4" d="M 358.5,171.5 C 359.249,172.531 359.915,173.698 360.5,175C 360.167,175.167 359.833,175.333 359.5,175.5C 358.571,174.311 358.238,172.978 358.5,171.5 Z"/></g>
<g><path style="opacity:0.004" fill="#fefffe" d="M 15.5,174.5 C 16.8333,175.167 16.8333,175.167 15.5,174.5 Z"/></g>
<g><path style="opacity:0.004" fill="#fefffe" d="M 360.5,177.5 C 361.833,178.167 361.833,178.167 360.5,177.5 Z"/></g>
<g><path style="opacity:0.004" fill="#fefffe" d="M 20.5,179.5 C 21.8333,180.167 21.8333,180.167 20.5,179.5 Z"/></g>
<g><path style="opacity:0.004" fill="#feff00" d="M 362.5,201.5 C 363.833,202.167 363.833,202.167 362.5,201.5 Z"/></g>
<g><path style="opacity:0.004" fill="#fefffe" d="M 54.5,231.5 C 55.8333,232.167 55.8333,232.167 54.5,231.5 Z"/></g>
<g><path style="opacity:0.004" fill="#fefffe" d="M 53.5,237.5 C 54.8333,238.167 54.8333,238.167 53.5,237.5 Z"/></g>
<g><path style="opacity:0.004" fill="#fefffe" d="M 56.5,249.5 C 57.8333,250.167 57.8333,250.167 56.5,249.5 Z"/></g>
<g><path style="opacity:0.985" fill="#09080c" d="M 106.5,67.5 C 106.461,68.5832 106.127,69.5832 105.5,70.5C 106.612,71.2652 107.279,72.2652 107.5,73.5C 100.995,69.7654 93.9949,68.2654 86.5,69C 88.3114,71.3839 90.6447,73.0506 93.5,74C 89.2273,75.0305 84.894,75.6972 80.5,76C 65.4623,81.5288 65.4623,84.1954 80.5,84C 72.5377,90.2935 64.871,96.9602 57.5,104C 52.9272,106.454 48.2605,108.621 43.5,110.5C 38.5795,111.257 37.9128,112.59 41.5,114.5C 41.0472,115.458 40.3805,116.292 39.5,117C 29.951,120.107 21.2843,124.773 13.5,131C 17.5511,131.518 21.5511,131.184 25.5,130C 29.4005,128.033 33.4005,126.7 37.5,126C 29.1786,131.818 23.8453,139.651 21.5,149.5C 20.3516,153.981 20.1849,158.648 21,163.5C 21.3333,163.833 21.6667,164.167 22,164.5C 23.3218,161.035 24.8218,157.702 26.5,154.5C 28.1454,153.521 29.4787,152.188 30.5,150.5C 31.4941,155.456 31.8275,160.456 31.5,165.5C 32.7615,179.118 36.9282,191.785 44,203.5C 47.8221,209.041 52.9888,210.874 59.5,209C 75.1123,201.888 86.1123,190.388 92.5,174.5C 96.4925,165.856 99.4925,156.856 101.5,147.5C 101.5,146.5 101.5,145.5 101.5,144.5C 102.956,141.386 104.122,138.052 105,134.5C 105.846,127.757 107.013,121.09 108.5,114.5C 111.217,113.871 112.55,115.204 112.5,118.5C 110.331,132.353 107.331,146.02 103.5,159.5C 99.941,169.3 95.7744,178.966 91,188.5C 85.5,195.333 79.3333,201.5 72.5,207C 75.0987,206.801 77.5987,205.967 80,204.5C 80.4643,205.094 80.631,205.761 80.5,206.5C 80.1667,207.167 79.8333,207.833 79.5,208.5C 76.4503,210.549 74.117,213.216 72.5,216.5C 65.995,223.519 62.8283,231.852 63,241.5C 68.001,239.252 73.1677,237.419 78.5,236C 80.3869,235.22 82.0536,235.387 83.5,236.5C 82.5116,237.795 81.5116,239.128 80.5,240.5C 75.9076,245.922 73.2409,252.256 72.5,259.5C 81.0411,261.923 89.7078,264.089 98.5,266C 106.314,267.019 113.981,266.519 121.5,264.5C 122.416,264.543 123.083,264.876 123.5,265.5C 123.5,266.167 123.167,266.5 122.5,266.5C 117.126,271.605 114.459,277.938 114.5,285.5C 126.016,286.064 137.35,284.897 148.5,282C 155.492,281.5 162.492,281.334 169.5,281.5C 191.495,286.349 213.495,286.515 235.5,282C 244.481,278.512 253.481,275.012 262.5,271.5C 265.721,271.104 268.388,269.771 270.5,267.5C 271.514,266.326 272.847,265.66 274.5,265.5C 278.67,263.89 283.003,262.89 287.5,262.5C 296.469,262.894 305.135,264.561 313.5,267.5C 313.665,264.482 313.498,261.482 313,258.5C 311.512,256.84 309.679,255.84 307.5,255.5C 307.196,254.85 306.863,254.183 306.5,253.5C 312.833,251.5 319.167,249.5 325.5,247.5C 323.055,242.563 319.722,238.396 315.5,235C 314.207,234.51 312.873,234.343 311.5,234.5C 316.167,233.833 320.833,233.167 325.5,232.5C 335.815,231.18 345.148,227.347 353.5,221C 353.91,216.991 352.243,213.824 348.5,211.5C 347.198,209.178 345.198,207.845 342.5,207.5C 340.811,206.696 339.145,205.696 337.5,204.5C 338.325,203.614 339.325,203.281 340.5,203.5C 348.734,201.384 355.734,197.217 361.5,191C 357.625,185.624 352.958,181.124 347.5,177.5C 344.833,175.167 342.167,172.833 339.5,170.5C 341.292,169.691 343.292,169.191 345.5,169C 326.946,164.439 311.446,154.939 299,140.5C 294.146,134.098 289.313,127.765 284.5,121.5C 278.039,110.912 272.373,99.9121 267.5,88.5C 267.842,87.6618 268.508,87.3284 269.5,87.5C 273.559,93.9407 277.392,100.607 281,107.5C 284.03,112.015 287.197,116.349 290.5,120.5C 293.117,125.114 296.117,129.447 299.5,133.5C 306.695,142.705 315.361,150.038 325.5,155.5C 335.52,163.115 346.52,164.949 358.5,161C 364.044,156.078 367.044,149.912 367.5,142.5C 368.657,133.676 368.824,124.676 368,115.5C 367.974,111.821 367.14,108.488 365.5,105.5C 365.343,104.127 365.51,102.793 366,101.5C 366.383,102.056 366.883,102.389 367.5,102.5C 371.957,107.139 375.457,112.472 378,118.5C 380.674,109.178 379.174,100.511 373.5,92.5C 374.822,92.67 375.989,92.3366 377,91.5C 377.595,92.8989 377.428,94.2322 376.5,95.5C 378.567,97.2274 380.233,99.2274 381.5,101.5C 382.621,107.418 382.788,113.418 382,119.5C 380.947,127.635 378.447,128.302 374.5,121.5C 374.357,133.457 372.523,145.124 369,156.5C 365.978,162.091 361.478,165.924 355.5,168C 355.042,170.398 353.708,172.064 351.5,173C 356.415,177.244 360.581,182.077 364,187.5C 364.667,189.833 364.667,192.167 364,194.5C 359.645,198.356 355.145,202.023 350.5,205.5C 352.477,208.312 354.644,210.978 357,213.5C 358.314,216.089 358.981,218.756 359,221.5C 349.126,230.353 337.626,235.853 324.5,238C 328.547,241.973 330.547,246.806 330.5,252.5C 326.652,252.24 322.985,252.906 319.5,254.5C 330.557,259.683 341.557,265.183 352.5,271C 356.356,273.715 358.689,277.381 359.5,282C 358.459,290.256 356.459,298.256 353.5,306C 354.285,309.029 355.451,311.862 357,314.5C 357.694,317.468 358.194,320.468 358.5,323.5C 358.582,326.757 357.582,329.591 355.5,332C 356.642,338.084 356.809,344.251 356,350.5C 354.969,353.539 353.135,356.039 350.5,358C 344.886,361.054 339.386,364.221 334,367.5C 335.36,377.329 337.194,387.162 339.5,397C 337.566,400.502 334.566,402.668 330.5,403.5C 330.599,394.479 330.266,385.479 329.5,376.5C 329.008,366.003 326.341,356.169 321.5,347C 316.796,346.352 312.129,346.519 307.5,347.5C 307.5,353.5 307.5,359.5 307.5,365.5C 306.748,374.009 306.082,382.676 305.5,391.5C 305.52,392.726 305.853,393.726 306.5,394.5C 312.656,396.982 317.656,400.982 321.5,406.5C 320.609,407.11 319.609,407.443 318.5,407.5C 315.134,403.311 311.134,399.811 306.5,397C 304.288,396.211 302.288,396.378 300.5,397.5C 282.768,401.532 267.102,409.532 253.5,421.5C 252.614,422.325 252.281,423.325 252.5,424.5C 250.833,424.5 249.167,424.5 247.5,424.5C 262.968,408.763 281.635,398.763 303.5,394.5C 303.954,387.841 304.287,381.174 304.5,374.5C 305.493,365.682 305.827,356.682 305.5,347.5C 298.799,348.004 292.132,348.838 285.5,350C 268.256,353.114 251.256,357.114 234.5,362C 232.98,364.596 232.147,367.429 232,370.5C 231.173,383.007 231.34,395.34 232.5,407.5C 234.413,412.946 233.413,417.779 229.5,422C 224.109,423.653 219.942,422.153 217,417.5C 216.705,403.237 216.539,388.904 216.5,374.5C 217.473,372.052 217.806,369.385 217.5,366.5C 203.949,370.223 190.949,368.89 178.5,362.5C 176.979,371.251 176.312,380.084 176.5,389C 176.504,395.538 177.17,401.705 178.5,407.5C 178.665,410.85 178.498,414.183 178,417.5C 176.961,418.71 175.794,419.71 174.5,420.5C 171.43,420.632 168.43,420.299 165.5,419.5C 162.895,401.622 161.895,383.622 162.5,365.5C 163.741,362.537 163.741,359.537 162.5,356.5C 152.898,353.079 143.564,349.079 134.5,344.5C 132.889,345.32 132.222,346.654 132.5,348.5C 128.236,363.631 123.903,378.797 119.5,394C 120.556,397.538 122.222,400.704 124.5,403.5C 121.572,402.409 119.406,400.409 118,397.5C 115.802,403.609 114.302,409.943 113.5,416.5C 111.688,416.229 110.022,415.562 108.5,414.5C 115.399,391.848 121.732,369.015 127.5,346C 127.333,344.833 127.167,343.667 127,342.5C 120.042,338.717 115.542,333.05 113.5,325.5C 114.978,320.571 117.312,316.071 120.5,312C 114.737,303.846 115.403,296.513 122.5,290C 118.974,288.663 115.308,288.163 111.5,288.5C 111.334,283.821 111.501,279.155 112,274.5C 112.374,273.584 112.874,272.75 113.5,272C 99.8056,271.763 86.8056,268.763 74.5,263C 72.8659,262.506 71.1992,262.34 69.5,262.5C 69.3343,258.154 69.501,253.821 70,249.5C 71.3088,247.253 71.9755,244.92 72,242.5C 67.8321,244.945 63.3321,246.278 58.5,246.5C 57.2677,234.871 60.2677,224.537 67.5,215.5C 66.1476,214.104 64.4809,213.437 62.5,213.5C 54.7664,215.42 47.9331,213.754 42,208.5C 32.7593,195.677 27.7593,181.344 27,165.5C 25.472,169.384 23.6387,173.051 21.5,176.5C 19.1499,173.965 17.6499,170.965 17,167.5C 16.3333,160.5 16.3333,153.5 17,146.5C 17.9372,143.344 19.4372,140.511 21.5,138C 16.8053,137.128 12.1386,136.128 7.5,135C 6.5,134.167 5.5,133.333 4.5,132.5C 7.21089,128.788 10.5442,125.788 14.5,123.5C 20.8333,120.333 27.1667,117.167 33.5,114C 31.5789,113.64 29.9122,112.806 28.5,111.5C 28.7093,110.914 29.0426,110.414 29.5,110C 44.6592,108.098 56.6592,101.098 65.5,89C 63.9751,87.9914 62.3084,87.4914 60.5,87.5C 61.1236,83.7715 63.1236,80.9381 66.5,79C 70.7678,75.1313 75.7678,72.798 81.5,72C 79.7727,70.6106 78.4394,68.9439 77.5,67C 77.9054,66.0546 78.572,65.3879 79.5,65C 88.7515,63.7915 97.7515,64.6248 106.5,67.5 Z"/></g>
<g><path style="opacity:1" fill="#b1abc9" d="M 311.5,234.5 C 312.873,234.343 314.207,234.51 315.5,235C 319.722,238.396 323.055,242.563 325.5,247.5C 319.167,249.5 312.833,251.5 306.5,253.5C 306.863,254.183 307.196,254.85 307.5,255.5C 303.049,256.379 298.716,257.879 294.5,260C 294.833,260.333 295.167,260.667 295.5,261C 291.08,261.768 286.747,261.602 282.5,260.5C 293.575,253.788 304.909,247.288 316.5,241C 317.451,240.282 317.617,239.449 317,238.5C 315.5,236.531 313.667,235.198 311.5,234.5 Z"/></g>
<g><path style="opacity:1" fill="#bea6b1" d="M 72.5,216.5 C 75.9275,219.231 79.9275,220.231 84.5,219.5C 87.9447,219.806 91.6113,219.806 95.5,219.5C 92.11,223.558 89.11,227.891 86.5,232.5C 85.8571,234.076 84.8571,235.41 83.5,236.5C 82.0536,235.387 80.3869,235.22 78.5,236C 73.1677,237.419 68.001,239.252 63,241.5C 62.8283,231.852 65.995,223.519 72.5,216.5 Z"/></g>
<g><path style="opacity:1" fill="#b6b0ce" d="M 348.5,211.5 C 352.243,213.824 353.91,216.991 353.5,221C 345.148,227.347 335.815,231.18 325.5,232.5C 322.813,232.664 320.146,232.497 317.5,232C 320.696,229.732 324.696,227.732 329.5,226C 333.919,225.138 338.253,223.971 342.5,222.5C 344.522,218.806 346.522,215.139 348.5,211.5 Z"/></g>
<g><path style="opacity:1" fill="#625e5d" d="M 141.5,217.5 C 144.831,219.298 148.498,219.964 152.5,219.5C 147.319,220.636 141.985,220.636 136.5,219.5C 136.5,219.167 136.5,218.833 136.5,218.5C 138.415,218.784 140.081,218.451 141.5,217.5 Z"/></g>
<g><path style="opacity:1" fill="#fbfaf5" d="M 288.5,157.5 C 290.775,164.942 291.109,172.609 289.5,180.5C 288.264,182.649 287.264,184.982 286.5,187.5C 285.069,188.78 284.402,190.447 284.5,192.5C 288.635,192.098 292.301,190.598 295.5,188C 303.956,187.119 312.29,187.786 320.5,190C 324.597,192.37 328.264,195.203 331.5,198.5C 325.245,203.973 318.245,208.473 310.5,212C 318.197,212.163 325.864,211.663 333.5,210.5C 333.291,211.922 332.791,213.255 332,214.5C 324.473,222.368 315.64,228.202 305.5,232C 307.158,233.663 309.158,234.496 311.5,234.5C 313.667,235.198 315.5,236.531 317,238.5C 317.617,239.449 317.451,240.282 316.5,241C 304.909,247.288 293.575,253.788 282.5,260.5C 279.46,261.68 276.794,263.347 274.5,265.5C 272.847,265.66 271.514,266.326 270.5,267.5C 267.279,267.896 264.612,269.229 262.5,271.5C 253.481,275.012 244.481,278.512 235.5,282C 213.495,286.515 191.495,286.349 169.5,281.5C 155.183,277.089 140.516,273.589 125.5,271C 123.137,270.411 122.137,268.911 122.5,266.5C 123.167,266.5 123.5,266.167 123.5,265.5C 125.593,264.955 127.593,264.122 129.5,263C 121.657,261.409 113.991,259.243 106.5,256.5C 104.758,255.043 102.758,253.876 100.5,253C 105.004,250.868 109.67,249.035 114.5,247.5C 107.274,245.616 100.274,243.282 93.5,240.5C 91.9378,239.215 90.6045,237.715 89.5,236C 93.4875,229.346 98.8208,224.012 105.5,220C 109.078,218.963 112.744,218.463 116.5,218.5C 123.158,219.055 129.825,219.388 136.5,219.5C 141.985,220.636 147.319,220.636 152.5,219.5C 158.263,218.379 162.597,215.379 165.5,210.5C 168.504,207.834 170.504,204.501 171.5,200.5C 171.875,198.302 172.542,196.302 173.5,194.5C 174.604,185.992 174.604,177.325 173.5,168.5C 175.508,174.382 176.841,180.549 177.5,187C 177.048,191.233 176.381,195.4 175.5,199.5C 176.833,199.5 178.167,199.5 179.5,199.5C 179.5,197.833 179.5,196.167 179.5,194.5C 181.167,194.5 182.833,194.5 184.5,194.5C 185.167,196.5 185.833,198.5 186.5,200.5C 189.426,199.539 192.426,198.873 195.5,198.5C 189.671,200.834 184.837,204.5 181,209.5C 179.101,213.136 179.101,216.803 181,220.5C 188.543,230.855 198.709,235.688 211.5,235C 221.651,230.538 228.484,223.038 232,212.5C 233.293,204.43 229.793,199.597 221.5,198C 216.246,196.729 210.913,196.229 205.5,196.5C 209.162,195.659 212.995,194.992 217,194.5C 218.107,194.585 219.107,194.919 220,195.5C 222.034,194.138 224.201,193.138 226.5,192.5C 226.5,191.5 226.5,190.5 226.5,189.5C 230.566,189.693 234.566,189.36 238.5,188.5C 238.833,188.5 239.167,188.5 239.5,188.5C 241.854,191.521 244.521,194.188 247.5,196.5C 253.71,201.596 260.71,202.762 268.5,200C 275.679,195.665 280.346,189.498 282.5,181.5C 285.012,174.572 285.012,167.572 282.5,160.5C 283.687,158.025 285.687,157.025 288.5,157.5 Z"/></g>
<g><path style="opacity:1" fill="#fba29b" d="M 123.5,226.5 C 127.514,226.334 131.514,226.501 135.5,227C 138.875,228.029 140.042,230.196 139,233.5C 132.317,240.997 124.65,242.33 116,237.5C 115.362,236.391 114.862,235.225 114.5,234C 116.517,230.135 119.517,227.635 123.5,226.5 Z"/></g>
<g><path style="opacity:1" fill="#171514" d="M 233.5,255.5 C 232.662,255.158 232.328,254.492 232.5,253.5C 232.5,252.5 232.5,251.5 232.5,250.5C 226.238,250.942 220.238,249.942 214.5,247.5C 210.376,248.727 206.709,250.727 203.5,253.5C 201.088,253.694 200.088,255.027 200.5,257.5C 200.672,258.492 200.338,259.158 199.5,259.5C 186.44,258.774 175.274,253.774 166,244.5C 165.51,243.207 165.343,241.873 165.5,240.5C 166.552,240.351 167.552,240.517 168.5,241C 182.449,257.142 196.949,257.642 212,242.5C 222.432,247.551 232.932,247.718 243.5,243C 249.879,237.964 253.713,231.464 255,223.5C 256.011,222.663 257.178,222.33 258.5,222.5C 256.672,236.171 249.339,245.671 236.5,251C 235.614,252.615 234.614,254.115 233.5,255.5 Z"/></g>
<g><path style="opacity:1" fill="#c55655" d="M 232.5,253.5 C 232.167,253.5 231.833,253.5 231.5,253.5C 227.127,251.552 222.294,250.552 217,250.5C 212.532,251.599 208.032,252.599 203.5,253.5C 206.709,250.727 210.376,248.727 214.5,247.5C 220.238,249.942 226.238,250.942 232.5,250.5C 232.5,251.5 232.5,252.5 232.5,253.5 Z"/></g>
<g><path style="opacity:1" fill="#c4b0c6" d="M 342.5,207.5 C 345.198,207.845 347.198,209.178 348.5,211.5C 346.522,215.139 344.522,218.806 342.5,222.5C 338.253,223.971 333.919,225.138 329.5,226C 324.696,227.732 320.696,229.732 317.5,232C 320.146,232.497 322.813,232.664 325.5,232.5C 320.833,233.167 316.167,233.833 311.5,234.5C 309.158,234.496 307.158,233.663 305.5,232C 315.64,228.202 324.473,222.368 332,214.5C 332.791,213.255 333.291,211.922 333.5,210.5C 334.117,210.611 334.617,210.944 335,211.5C 337.156,209.505 339.656,208.172 342.5,207.5 Z"/></g>
<g><path style="opacity:1" fill="#f2b1a1" d="M 121.5,208.5 C 122.396,209.506 123.062,209.506 123.5,208.5C 125.6,210.498 127.6,212.665 129.5,215C 131.86,216.18 134.193,217.347 136.5,218.5C 136.5,218.833 136.5,219.167 136.5,219.5C 129.825,219.388 123.158,219.055 116.5,218.5C 112.744,218.463 109.078,218.963 105.5,220C 98.8208,224.012 93.4875,229.346 89.5,236C 90.6045,237.715 91.9378,239.215 93.5,240.5C 88.6943,240.026 86.361,237.36 86.5,232.5C 89.11,227.891 92.11,223.558 95.5,219.5C 98.0026,217.167 100.669,215.001 103.5,213C 109.671,211.812 115.671,210.312 121.5,208.5 Z"/></g>
<g><path style="opacity:1" fill="#d69997" d="M 79.5,208.5 C 83.3541,209.839 87.3541,210.672 91.5,211C 93.2861,211.196 94.6195,212.029 95.5,213.5C 91.4851,214.781 87.8184,216.781 84.5,219.5C 79.9275,220.231 75.9275,219.231 72.5,216.5C 74.117,213.216 76.4503,210.549 79.5,208.5 Z"/></g>
<g><path style="opacity:1" fill="#34adc7" d="M 165.5,203.5 C 166.586,203.62 167.253,204.287 167.5,205.5C 166.813,207.177 166.146,208.844 165.5,210.5C 164.167,211.5 162.833,212.5 161.5,213.5C 159.648,212.039 157.482,211.039 155,210.5C 153.69,209.87 152.856,208.87 152.5,207.5C 157.495,208.162 161.828,206.828 165.5,203.5 Z"/></g>
<g><path style="opacity:1" fill="#52d9f0" d="M 146.5,205.5 C 148.297,206.73 150.297,207.396 152.5,207.5C 152.856,208.87 153.69,209.87 155,210.5C 157.482,211.039 159.648,212.039 161.5,213.5C 151.14,218.711 142.473,216.711 135.5,207.5C 135.484,205.516 136.484,204.516 138.5,204.5C 141.246,205.788 143.912,206.121 146.5,205.5 Z"/></g>
<g><path style="opacity:1" fill="#101011" d="M 205.5,196.5 C 210.913,196.229 216.246,196.729 221.5,198C 229.793,199.597 233.293,204.43 232,212.5C 228.484,223.038 221.651,230.538 211.5,235C 198.709,235.688 188.543,230.855 181,220.5C 179.101,216.803 179.101,213.136 181,209.5C 184.837,204.5 189.671,200.834 195.5,198.5C 198.802,197.706 202.135,197.04 205.5,196.5 Z"/></g>
<g><path style="opacity:1" fill="#e1dfdb" d="M 191.5,204.5 C 192.598,205.601 192.765,206.934 192,208.5C 190.955,209.373 190.122,210.373 189.5,211.5C 187.355,212.989 185.022,213.989 182.5,214.5C 183.362,209.302 186.362,205.969 191.5,204.5 Z"/></g>
<g><path style="opacity:1" fill="#1a1821" d="M 225.5,214.5 C 220.332,214.178 217.499,216.511 217,221.5C 218.356,222.38 219.856,222.714 221.5,222.5C 221.256,225.263 219.923,227.429 217.5,229C 209.007,234.032 201.007,233.532 193.5,227.5C 194.348,225.591 194.682,223.591 194.5,221.5C 191.948,221.645 189.615,222.145 187.5,223C 186.333,221.833 185.167,220.667 184,219.5C 183.316,218.216 183.483,217.049 184.5,216C 183.584,215.722 182.918,215.222 182.5,214.5C 185.022,213.989 187.355,212.989 189.5,211.5C 202.075,209.396 214.742,208.063 227.5,207.5C 227.122,209.921 226.455,212.254 225.5,214.5 Z"/></g>
<g><path style="opacity:1" fill="#333237" d="M 225.5,214.5 C 226.455,212.254 227.122,209.921 227.5,207.5C 214.742,208.063 202.075,209.396 189.5,211.5C 190.122,210.373 190.955,209.373 192,208.5C 192.765,206.934 192.598,205.601 191.5,204.5C 199.459,199.939 208.126,198.439 217.5,200C 221.805,200.903 225.639,202.737 229,205.5C 229.667,207.833 229.667,210.167 229,212.5C 228.29,213.973 227.124,214.64 225.5,214.5 Z"/></g>
<g><path style="opacity:1" fill="#2c6171" d="M 171.5,200.5 C 170.504,204.501 168.504,207.834 165.5,210.5C 166.146,208.844 166.813,207.177 167.5,205.5C 167.253,204.287 166.586,203.62 165.5,203.5C 166.614,202.115 167.614,200.615 168.5,199C 169.788,198.761 170.788,199.261 171.5,200.5 Z"/></g>
<g><path style="opacity:1" fill="#efecee" d="M 117.5,186.5 C 119.833,186.5 122.167,186.5 124.5,186.5C 124.194,189.385 124.527,192.052 125.5,194.5C 127.635,204.452 132.969,212.119 141.5,217.5C 140.081,218.451 138.415,218.784 136.5,218.5C 134.193,217.347 131.86,216.18 129.5,215C 127.6,212.665 125.6,210.498 123.5,208.5C 118.705,201.994 116.705,194.661 117.5,186.5 Z"/></g>
<g><path style="opacity:1" fill="#d1afbc" d="M 340.5,203.5 C 339.325,203.281 338.325,203.614 337.5,204.5C 339.145,205.696 340.811,206.696 342.5,207.5C 339.656,208.172 337.156,209.505 335,211.5C 334.617,210.944 334.117,210.611 333.5,210.5C 325.864,211.663 318.197,212.163 310.5,212C 318.245,208.473 325.245,203.973 331.5,198.5C 333.479,197.188 335.145,195.521 336.5,193.5C 335.376,192.141 334.042,191.141 332.5,190.5C 335.374,190.549 338.208,190.216 341,189.5C 346.227,191.911 346.727,195.078 342.5,199C 343.167,199.333 343.833,199.667 344.5,200C 342.456,200.498 341.122,201.665 340.5,203.5 Z"/></g>
<g><path style="opacity:1" fill="#fb9f9b" d="M 292.5,197.5 C 297.715,196.702 302.215,198.036 306,201.5C 305.87,206.321 303.37,209.487 298.5,211C 292.449,212.827 286.449,212.827 280.5,211C 277.499,206.997 278.165,203.664 282.5,201C 286.004,200.014 289.337,198.847 292.5,197.5 Z"/></g>
<g><path style="opacity:1" fill="#2cb8d5" d="M 269.5,179.5 C 272.902,180.46 276.235,180.46 279.5,179.5C 278.117,181.978 277.117,184.645 276.5,187.5C 276.167,187.5 275.833,187.5 275.5,187.5C 275.5,186.5 275.5,185.5 275.5,184.5C 271.08,187.552 266.413,190.386 261.5,193C 258.806,195.552 259.473,196.719 263.5,196.5C 259.759,198.696 255.759,199.029 251.5,197.5C 251.421,196.07 251.754,194.736 252.5,193.5C 251.975,192.808 251.308,192.308 250.5,192C 252.708,191.809 254.708,191.309 256.5,190.5C 262.428,188.561 266.762,184.894 269.5,179.5 Z"/></g>
<g><path style="opacity:1" fill="#171b20" d="M 282.5,181.5 C 280.346,189.498 275.679,195.665 268.5,200C 260.71,202.762 253.71,201.596 247.5,196.5C 248.833,196.833 250.167,197.167 251.5,197.5C 255.759,199.029 259.759,198.696 263.5,196.5C 269.221,195.777 273.221,192.777 275.5,187.5C 275.833,187.5 276.167,187.5 276.5,187.5C 278.627,186.602 279.794,184.936 280,182.5C 280.671,181.748 281.504,181.414 282.5,181.5 Z"/></g>
<g><path style="opacity:1" fill="#4ee3f4" d="M 275.5,187.5 C 273.221,192.777 269.221,195.777 263.5,196.5C 259.473,196.719 258.806,195.552 261.5,193C 266.413,190.386 271.08,187.552 275.5,184.5C 275.5,185.5 275.5,186.5 275.5,187.5 Z"/></g>
<g><path style="opacity:1" fill="#5b678b" d="M 92.5,174.5 C 86.1123,190.388 75.1123,201.888 59.5,209C 52.9888,210.874 47.8221,209.041 44,203.5C 36.9282,191.785 32.7615,179.118 31.5,165.5C 32.4767,162.713 32.81,159.713 32.5,156.5C 33.9778,156.238 35.3112,156.571 36.5,157.5C 35.1886,158.258 34.6886,159.258 35,160.5C 36.3988,161.227 37.8988,161.727 39.5,162C 38.552,162.483 37.552,162.649 36.5,162.5C 36.7458,165.47 38.4124,166.803 41.5,166.5C 41.5792,167.93 41.2458,169.264 40.5,170.5C 41.9122,171.806 43.5789,172.64 45.5,173C 44.6383,175.734 43.805,175.901 43,173.5C 42.5,174.667 41.6667,175.5 40.5,176C 44.6158,177.418 44.9492,178.752 41.5,180C 43.8015,181.116 46.1348,181.949 48.5,182.5C 47.9371,184.91 47.4371,187.243 47,189.5C 48.3946,188.185 49.3946,188.519 50,190.5C 53.6938,190.444 57.5272,190.277 61.5,190C 64.4272,187.618 67.2605,185.118 70,182.5C 70.3333,182.833 70.6667,183.167 71,183.5C 73.6753,181.842 76.1753,180.009 78.5,178C 83.0975,178.291 87.2641,176.791 91,173.5C 91.3826,174.056 91.8826,174.389 92.5,174.5 Z"/></g>
<g><path style="opacity:1" fill="#2d90b5" d="M 256.5,190.5 C 254.708,191.309 252.708,191.809 250.5,192C 251.308,192.308 251.975,192.808 252.5,193.5C 251.754,194.736 251.421,196.07 251.5,197.5C 250.167,197.167 248.833,196.833 247.5,196.5C 244.521,194.188 241.854,191.521 239.5,188.5C 238.986,186.634 238.32,184.8 237.5,183C 237.833,182.5 238.167,182 238.5,181.5C 242.717,187.914 248.717,190.914 256.5,190.5 Z"/></g>
<g><path style="opacity:1" fill="#9fa7af" d="M 110.5,144.5 C 110.62,148.042 110.286,151.542 109.5,155C 110.562,157.649 112.562,159.149 115.5,159.5C 103.108,177.785 105.108,194.118 121.5,208.5C 115.671,210.312 109.671,211.812 103.5,213C 100.669,215.001 98.0026,217.167 95.5,219.5C 91.6113,219.806 87.9447,219.806 84.5,219.5C 87.8184,216.781 91.4851,214.781 95.5,213.5C 94.6195,212.029 93.2861,211.196 91.5,211C 87.3541,210.672 83.3541,209.839 79.5,208.5C 79.8333,207.833 80.1667,207.167 80.5,206.5C 95.3441,196.597 103.677,182.597 105.5,164.5C 107.719,157.966 109.385,151.299 110.5,144.5 Z"/></g>
<g><path style="opacity:1" fill="#ae9bb1" d="M 347.5,177.5 C 352.958,181.124 357.625,185.624 361.5,191C 355.734,197.217 348.734,201.384 340.5,203.5C 341.122,201.665 342.456,200.498 344.5,200C 343.833,199.667 343.167,199.333 342.5,199C 346.727,195.078 346.227,191.911 341,189.5C 338.208,190.216 335.374,190.549 332.5,190.5C 328.297,189.065 324.297,187.065 320.5,184.5C 320.389,183.883 320.056,183.383 319.5,183C 329.116,182.343 338.449,180.51 347.5,177.5 Z"/></g>
<g><path style="opacity:1" fill="#575268" d="M 103.5,159.5 C 103.81,160.738 104.31,160.738 105,159.5C 105.494,161.134 105.66,162.801 105.5,164.5C 103.677,182.597 95.3441,196.597 80.5,206.5C 80.631,205.761 80.4643,205.094 80,204.5C 77.5987,205.967 75.0987,206.801 72.5,207C 79.3333,201.5 85.5,195.333 91,188.5C 95.7744,178.966 99.941,169.3 103.5,159.5 Z"/></g>
<g><path style="opacity:1" fill="#67708d" d="M 61.5,172.5 C 65.285,173.279 68.785,174.612 72,176.5C 73.1369,175.636 74.4702,174.636 76,173.5C 81.2752,175.36 84.7752,173.694 86.5,168.5C 88.8545,166.812 90.8545,164.812 92.5,162.5C 95.7794,157.597 98.7794,152.597 101.5,147.5C 99.4925,156.856 96.4925,165.856 92.5,174.5C 91.8826,174.389 91.3826,174.056 91,173.5C 87.2641,176.791 83.0975,178.291 78.5,178C 76.1753,180.009 73.6753,181.842 71,183.5C 70.6667,183.167 70.3333,182.833 70,182.5C 67.2605,185.118 64.4272,187.618 61.5,190C 57.5272,190.277 53.6938,190.444 50,190.5C 49.3946,188.519 48.3946,188.185 47,189.5C 47.4371,187.243 47.9371,184.91 48.5,182.5C 46.1348,181.949 43.8015,181.116 41.5,180C 44.9492,178.752 44.6158,177.418 40.5,176C 41.6667,175.5 42.5,174.667 43,173.5C 43.805,175.901 44.6383,175.734 45.5,173C 43.5789,172.64 41.9122,171.806 40.5,170.5C 41.2458,169.264 41.5792,167.93 41.5,166.5C 38.4124,166.803 36.7458,165.47 36.5,162.5C 37.552,162.649 38.552,162.483 39.5,162C 37.8988,161.727 36.3988,161.227 35,160.5C 34.6886,159.258 35.1886,158.258 36.5,157.5C 35.3112,156.571 33.9778,156.238 32.5,156.5C 32.81,159.713 32.4767,162.713 31.5,165.5C 31.8275,160.456 31.4941,155.456 30.5,150.5C 29.4787,152.188 28.1454,153.521 26.5,154.5C 26.7135,152.856 26.3802,151.356 25.5,150C 28.0823,148.662 28.7489,146.829 27.5,144.5C 29.5005,142.833 31.8338,141.666 34.5,141C 35.1258,140.25 35.6258,139.416 36,138.5C 38.105,147.077 40.105,155.41 42,163.5C 43,164.833 44,164.833 45,163.5C 47.6804,172.251 53.1804,175.251 61.5,172.5 Z"/></g>
<g><path style="opacity:1" fill="#d7a698" d="M 319.5,177.5 C 326.481,179.862 326.147,180.862 318.5,180.5C 318.5,181.5 318.5,182.5 318.5,183.5C 309.664,180.439 300.664,179.939 291.5,182C 289.709,183.771 288.043,185.604 286.5,187.5C 287.264,184.982 288.264,182.649 289.5,180.5C 289.938,181.506 290.604,181.506 291.5,180.5C 300.951,180.201 310.285,179.201 319.5,177.5 Z"/></g>
<g><path style="opacity:1" fill="#f7b49c" d="M 318.5,183.5 C 318.842,184.338 319.508,184.672 320.5,184.5C 324.297,187.065 328.297,189.065 332.5,190.5C 334.042,191.141 335.376,192.141 336.5,193.5C 335.145,195.521 333.479,197.188 331.5,198.5C 328.264,195.203 324.597,192.37 320.5,190C 312.29,187.786 303.956,187.119 295.5,188C 292.301,190.598 288.635,192.098 284.5,192.5C 284.402,190.447 285.069,188.78 286.5,187.5C 288.043,185.604 289.709,183.771 291.5,182C 300.664,179.939 309.664,180.439 318.5,183.5 Z"/></g>
<g><path style="opacity:1" fill="#b78785" d="M 339.5,170.5 C 342.167,172.833 344.833,175.167 347.5,177.5C 338.449,180.51 329.116,182.343 319.5,183C 320.056,183.383 320.389,183.883 320.5,184.5C 319.508,184.672 318.842,184.338 318.5,183.5C 318.5,182.5 318.5,181.5 318.5,180.5C 326.147,180.862 326.481,179.862 319.5,177.5C 323.971,176.04 327.971,173.707 331.5,170.5C 334.137,169.37 336.803,169.37 339.5,170.5 Z"/></g>
<g><path style="opacity:1" fill="#8793a3" d="M 42.5,135.5 C 42.1922,140.371 43.0255,145.037 45,149.5C 49.0675,154.723 52.9009,160.057 56.5,165.5C 62.0627,169.044 67.896,171.044 74,171.5C 77.3676,170.112 80.8676,168.945 84.5,168C 87.0652,165.92 89.7318,164.087 92.5,162.5C 90.8545,164.812 88.8545,166.812 86.5,168.5C 84.7752,173.694 81.2752,175.36 76,173.5C 74.4702,174.636 73.1369,175.636 72,176.5C 68.785,174.612 65.285,173.279 61.5,172.5C 58.7222,172.045 56.0556,170.545 53.5,168C 53.8333,167.667 54.1667,167.333 54.5,167C 52.094,165.378 50.2606,163.211 49,160.5C 48.6667,160.833 48.3333,161.167 48,161.5C 46.887,160.24 46.7203,159.073 47.5,158C 45.6667,157.5 44.5,156.333 44,154.5C 43.6667,155.167 43.3333,155.833 43,156.5C 43.2532,153.867 43.2532,151.2 43,148.5C 38.7143,144.946 38.5477,140.613 42.5,135.5 Z"/></g>
<g><path style="opacity:1" fill="#9caab4" d="M 56.5,138.5 C 55.0582,139.82 54.3915,141.486 54.5,143.5C 53.325,143.281 52.325,143.614 51.5,144.5C 52.7057,146.794 53.7057,149.127 54.5,151.5C 57.6126,152.223 60.2793,153.723 62.5,156C 64.1341,156.494 65.8008,156.66 67.5,156.5C 67.5,158.167 67.5,159.833 67.5,161.5C 71.8233,161.198 75.99,161.865 80,163.5C 84.2494,162.478 88.4161,161.478 92.5,160.5C 92.5,154.833 92.5,149.167 92.5,143.5C 94.8211,143.229 96.8211,143.896 98.5,145.5C 99.4168,144.873 100.417,144.539 101.5,144.5C 101.5,145.5 101.5,146.5 101.5,147.5C 98.7794,152.597 95.7794,157.597 92.5,162.5C 89.7318,164.087 87.0652,165.92 84.5,168C 80.8676,168.945 77.3676,170.112 74,171.5C 67.896,171.044 62.0627,169.044 56.5,165.5C 52.9009,160.057 49.0675,154.723 45,149.5C 43.0255,145.037 42.1922,140.371 42.5,135.5C 43.9313,134.22 44.5979,132.553 44.5,130.5C 43.5,130.5 42.5,130.5 41.5,130.5C 44.5978,128.108 47.9311,125.942 51.5,124C 52.7119,122.893 52.3786,122.393 50.5,122.5C 60.5473,115.178 61.5473,116.011 53.5,125C 54.7839,125.684 55.9505,125.517 57,124.5C 57.7155,128.492 57.2155,132.325 55.5,136C 55.528,137.07 55.8614,137.903 56.5,138.5 Z"/></g>
<g><path style="opacity:1" fill="#637cac" d="M 367.5,142.5 C 367.044,149.912 364.044,156.078 358.5,161C 346.52,164.949 335.52,163.115 325.5,155.5C 326.097,154.861 326.93,154.528 328,154.5C 335.744,158.048 343.911,159.548 352.5,159C 361.548,155.774 366.381,149.274 367,139.5C 367.483,140.448 367.649,141.448 367.5,142.5 Z"/></g>
<g><path style="opacity:1" fill="#798294" d="M 41.5,130.5 C 42.5,130.5 43.5,130.5 44.5,130.5C 44.5979,132.553 43.9313,134.22 42.5,135.5C 38.5477,140.613 38.7143,144.946 43,148.5C 43.2532,151.2 43.2532,153.867 43,156.5C 43.3333,155.833 43.6667,155.167 44,154.5C 44.5,156.333 45.6667,157.5 47.5,158C 46.7203,159.073 46.887,160.24 48,161.5C 48.3333,161.167 48.6667,160.833 49,160.5C 50.2606,163.211 52.094,165.378 54.5,167C 54.1667,167.333 53.8333,167.667 53.5,168C 56.0556,170.545 58.7222,172.045 61.5,172.5C 53.1804,175.251 47.6804,172.251 45,163.5C 44,164.833 43,164.833 42,163.5C 40.105,155.41 38.105,147.077 36,138.5C 35.6258,139.416 35.1258,140.25 34.5,141C 31.8338,141.666 29.5005,142.833 27.5,144.5C 30.5,138.167 35.1667,133.5 41.5,130.5 Z"/></g>
<g><path style="opacity:1" fill="#848a97" d="M 27.5,144.5 C 28.7489,146.829 28.0823,148.662 25.5,150C 26.3802,151.356 26.7135,152.856 26.5,154.5C 24.8218,157.702 23.3218,161.035 22,164.5C 21.6667,164.167 21.3333,163.833 21,163.5C 20.1849,158.648 20.3516,153.981 21.5,149.5C 21.3398,151.199 21.5065,152.866 22,154.5C 23.3812,150.796 25.2145,147.463 27.5,144.5 Z"/></g>
<g><path style="opacity:1" fill="#504b61" d="M 284.5,121.5 C 289.313,127.765 294.146,134.098 299,140.5C 311.446,154.939 326.946,164.439 345.5,169C 343.292,169.191 341.292,169.691 339.5,170.5C 336.803,169.37 334.137,169.37 331.5,170.5C 319.301,166.143 308.801,159.143 300,149.5C 293.982,141.452 288.482,133.119 283.5,124.5C 283.263,123.209 283.596,122.209 284.5,121.5 Z"/></g>
<g><path style="opacity:1" fill="#676673" d="M 115.5,113.5 C 115.833,113.5 116.167,113.5 116.5,113.5C 119.5,113.5 122.5,113.5 125.5,113.5C 124.525,115.795 123.192,117.795 121.5,119.5C 121.134,118.305 120.301,117.639 119,117.5C 117.311,118.858 115.978,120.525 115,122.5C 112.544,129.655 111.044,136.988 110.5,144.5C 109.385,151.299 107.719,157.966 105.5,164.5C 105.66,162.801 105.494,161.134 105,159.5C 104.31,160.738 103.81,160.738 103.5,159.5C 107.331,146.02 110.331,132.353 112.5,118.5C 113.233,116.706 114.233,115.039 115.5,113.5 Z"/></g>
<g><path style="opacity:1" fill="#06070b" d="M 173.5,194.5 C 172.542,196.302 171.875,198.302 171.5,200.5C 170.788,199.261 169.788,198.761 168.5,199C 167.614,200.615 166.614,202.115 165.5,203.5C 161.828,206.828 157.495,208.162 152.5,207.5C 150.297,207.396 148.297,206.73 146.5,205.5C 142.693,203.032 140.026,199.698 138.5,195.5C 138.5,189.167 138.5,182.833 138.5,176.5C 134.684,175.789 131.684,176.955 129.5,180C 128.214,185.642 128.214,191.142 129.5,196.5C 129.427,198.027 130.094,199.027 131.5,199.5C 131.896,202.721 133.229,205.388 135.5,207.5C 142.473,216.711 151.14,218.711 161.5,213.5C 162.833,212.5 164.167,211.5 165.5,210.5C 162.597,215.379 158.263,218.379 152.5,219.5C 148.498,219.964 144.831,219.298 141.5,217.5C 132.969,212.119 127.635,204.452 125.5,194.5C 122.574,173.284 131.574,161.118 152.5,158C 136.656,153.336 125.489,158.836 119,174.5C 117.844,178.418 117.344,182.418 117.5,186.5C 116.705,194.661 118.705,201.994 123.5,208.5C 123.062,209.506 122.396,209.506 121.5,208.5C 105.108,194.118 103.108,177.785 115.5,159.5C 131.636,142.19 147.803,142.19 164,159.5C 171.689,169.923 174.856,181.589 173.5,194.5 Z"/></g>
<g><path style="opacity:1" fill="#29b8dc" d="M 137.5,195.5 C 137.833,195.5 138.167,195.5 138.5,195.5C 140.026,199.698 142.693,203.032 146.5,205.5C 143.912,206.121 141.246,205.788 138.5,204.5C 136.484,204.516 135.484,205.516 135.5,207.5C 133.229,205.388 131.896,202.721 131.5,199.5C 132.663,197.018 134.663,195.684 137.5,195.5 Z"/></g>
<g><path style="opacity:1" fill="#0f4d74" d="M 137.5,195.5 C 134.663,195.684 132.663,197.018 131.5,199.5C 130.094,199.027 129.427,198.027 129.5,196.5C 129.337,194.143 129.503,191.81 130,189.5C 132.427,188.219 134.927,187.219 137.5,186.5C 137.5,189.5 137.5,192.5 137.5,195.5 Z"/></g>
<g><path style="opacity:1" fill="#0a243e" d="M 138.5,195.5 C 138.167,195.5 137.833,195.5 137.5,195.5C 137.5,192.5 137.5,189.5 137.5,186.5C 134.927,187.219 132.427,188.219 130,189.5C 129.503,191.81 129.337,194.143 129.5,196.5C 128.214,191.142 128.214,185.642 129.5,180C 131.684,176.955 134.684,175.789 138.5,176.5C 138.5,182.833 138.5,189.167 138.5,195.5 Z"/></g>
<g><path style="opacity:1" fill="#afa4c8" d="M 125.5,194.5 C 124.527,192.052 124.194,189.385 124.5,186.5C 122.167,186.5 119.833,186.5 117.5,186.5C 117.344,182.418 117.844,178.418 119,174.5C 125.489,158.836 136.656,153.336 152.5,158C 131.574,161.118 122.574,173.284 125.5,194.5 Z"/></g>
<g><path style="opacity:1" fill="#ebebec" d="M 155.5,169.5 C 161.989,168.632 164.489,171.299 163,177.5C 160.294,180.978 157.294,181.311 154,178.5C 153.068,175.177 153.568,172.177 155.5,169.5 Z"/></g>
<g><path style="opacity:1" fill="#606b8f" d="M 365.5,105.5 C 367.14,108.488 367.974,111.821 368,115.5C 368.824,124.676 368.657,133.676 367.5,142.5C 367.649,141.448 367.483,140.448 367,139.5C 366.381,149.274 361.548,155.774 352.5,159C 343.911,159.548 335.744,158.048 328,154.5C 326.93,154.528 326.097,154.861 325.5,155.5C 315.361,150.038 306.695,142.705 299.5,133.5C 301.46,134.138 303.293,134.138 305,133.5C 308.85,137.759 313.517,140.759 319,142.5C 322.403,143.701 325.736,143.701 329,142.5C 330.574,143.848 332.407,144.514 334.5,144.5C 338.049,143.241 341.716,142.407 345.5,142C 347.037,139.254 349.037,136.921 351.5,135C 350.833,134.667 350.167,134.333 349.5,134C 353.567,133.562 356.067,131.395 357,127.5C 357.333,127.833 357.667,128.167 358,128.5C 359.918,120.877 362.418,113.211 365.5,105.5 Z"/></g>
<g><path style="opacity:1" fill="#a7b3ba" d="M 151.5,111.5 C 158.037,117.535 162.87,124.868 166,133.5C 169.374,145.116 171.874,156.783 173.5,168.5C 174.604,177.325 174.604,185.992 173.5,194.5C 174.856,181.589 171.689,169.923 164,159.5C 147.803,142.19 131.636,142.19 115.5,159.5C 112.562,159.149 110.562,157.649 109.5,155C 110.286,151.542 110.62,148.042 110.5,144.5C 111.044,136.988 112.544,129.655 115,122.5C 115.978,120.525 117.311,118.858 119,117.5C 120.301,117.639 121.134,118.305 121.5,119.5C 119.899,123.852 120.233,128.019 122.5,132C 124.833,132.667 127.167,132.667 129.5,132C 133.606,129.798 137.939,128.298 142.5,127.5C 143.282,136.066 147.949,139.566 156.5,138C 157,137.5 157.5,137 158,136.5C 158.667,132.5 158.667,128.5 158,124.5C 157.124,122.365 155.624,121.031 153.5,120.5C 153.793,117.246 153.126,114.246 151.5,111.5 Z"/></g>
<g><path style="opacity:1" fill="#f3b39d" d="M 153.5,120.5 C 155.624,121.031 157.124,122.365 158,124.5C 158.667,128.5 158.667,132.5 158,136.5C 157.5,137 157,137.5 156.5,138C 147.949,139.566 143.282,136.066 142.5,127.5C 145.282,126.067 148.282,124.9 151.5,124C 152.823,123.184 153.489,122.017 153.5,120.5 Z"/></g>
<g><path style="opacity:1" fill="#060709" d="M 291.5,180.5 C 290.604,181.506 289.938,181.506 289.5,180.5C 291.109,172.609 290.775,164.942 288.5,157.5C 281.736,140.928 269.403,133.761 251.5,136C 249.668,136.748 248.001,137.748 246.5,139C 263.971,137.352 275.971,144.519 282.5,160.5C 285.012,167.572 285.012,174.572 282.5,181.5C 281.504,181.414 280.671,181.748 280,182.5C 279.794,184.936 278.627,186.602 276.5,187.5C 277.117,184.645 278.117,181.978 279.5,179.5C 280.942,178.18 281.608,176.514 281.5,174.5C 280.162,163.658 275.496,154.492 267.5,147C 266.207,146.51 264.873,146.343 263.5,146.5C 263.337,148.857 263.503,151.19 264,153.5C 266.716,158.937 268.883,164.603 270.5,170.5C 269.4,171.558 268.066,172.392 266.5,173C 264.731,176.41 265.731,178.576 269.5,179.5C 266.762,184.894 262.428,188.561 256.5,190.5C 248.717,190.914 242.717,187.914 238.5,181.5C 238.167,182 237.833,182.5 237.5,183C 238.32,184.8 238.986,186.634 239.5,188.5C 239.167,188.5 238.833,188.5 238.5,188.5C 235.078,183.655 232.745,178.322 231.5,172.5C 229.919,164.053 230.419,155.719 233,147.5C 238.738,130.216 250.571,123.05 268.5,126C 295.931,136.012 303.597,154.179 291.5,180.5 Z"/></g>
<g><path style="opacity:1" fill="#e1edf1" d="M 270.5,170.5 C 274.699,170.436 278.366,171.769 281.5,174.5C 281.608,176.514 280.942,178.18 279.5,179.5C 276.235,180.46 272.902,180.46 269.5,179.5C 265.731,178.576 264.731,176.41 266.5,173C 268.066,172.392 269.4,171.558 270.5,170.5 Z"/></g>
<g><path style="opacity:1" fill="#0a233c" d="M 281.5,174.5 C 278.366,171.769 274.699,170.436 270.5,170.5C 268.883,164.603 266.716,158.937 264,153.5C 263.503,151.19 263.337,148.857 263.5,146.5C 264.873,146.343 266.207,146.51 267.5,147C 275.496,154.492 280.162,163.658 281.5,174.5 Z"/></g>
<g><path style="opacity:1" fill="#e7e8e7" d="M 240.5,155.5 C 248.061,154.86 250.061,157.693 246.5,164C 239.6,167.098 236.766,164.931 238,157.5C 238.995,156.934 239.828,156.267 240.5,155.5 Z"/></g>
<g><path style="opacity:1" fill="#b0a1cb" d="M 288.5,157.5 C 285.687,157.025 283.687,158.025 282.5,160.5C 275.971,144.519 263.971,137.352 246.5,139C 248.001,137.748 249.668,136.748 251.5,136C 269.403,133.761 281.736,140.928 288.5,157.5 Z"/></g>
<g><path style="opacity:1" fill="#818389" d="M 60.5,131.5 C 58.8053,133.535 57.472,135.868 56.5,138.5C 55.8614,137.903 55.528,137.07 55.5,136C 57.2155,132.325 57.7155,128.492 57,124.5C 55.9505,125.517 54.7839,125.684 53.5,125C 61.5473,116.011 60.5473,115.178 50.5,122.5C 49.325,122.719 48.325,122.386 47.5,121.5C 53.8983,112.601 61.7316,105.267 71,99.5C 67.4303,110.044 63.9303,120.71 60.5,131.5 Z"/></g>
<g><path style="opacity:1" fill="#474742" d="M 43.5,110.5 C 45.698,112.442 45.0314,113.775 41.5,114.5C 37.9128,112.59 38.5795,111.257 43.5,110.5 Z"/></g>
<g><path style="opacity:1" fill="#fbc2a6" d="M 229.5,105.5 C 231.545,107.984 234.212,108.984 237.5,108.5C 238.919,109.451 240.585,109.784 242.5,109.5C 243.587,118.935 239.587,123.435 230.5,123C 226.9,117.444 226.567,111.611 229.5,105.5 Z"/></g>
<g><path style="opacity:1" fill="#0e0d0e" d="M 135.5,107.5 C 141.477,106.619 146.811,107.953 151.5,111.5C 153.126,114.246 153.793,117.246 153.5,120.5C 153.489,122.017 152.823,123.184 151.5,124C 148.282,124.9 145.282,126.067 142.5,127.5C 137.939,128.298 133.606,129.798 129.5,132C 127.167,132.667 124.833,132.667 122.5,132C 120.233,128.019 119.899,123.852 121.5,119.5C 123.192,117.795 124.525,115.795 125.5,113.5C 128.57,110.969 131.904,108.969 135.5,107.5 Z"/></g>
<g><path style="opacity:1" fill="#12131b" d="M 132.5,112.5 C 138.31,112.122 143.977,112.789 149.5,114.5C 150.544,116.768 150.711,119.101 150,121.5C 141.433,124.079 132.933,126.745 124.5,129.5C 124.227,124.654 125.56,120.321 128.5,116.5C 129.689,115.571 131.022,115.238 132.5,115.5C 132.5,114.5 132.5,113.5 132.5,112.5 Z"/></g>
<g><path style="opacity:1" fill="#c2a4a6" d="M 135.5,107.5 C 131.904,108.969 128.57,110.969 125.5,113.5C 122.5,113.5 119.5,113.5 116.5,113.5C 116.054,110.99 116.72,108.99 118.5,107.5C 118.56,108.043 118.893,108.376 119.5,108.5C 124.783,105.307 130.116,104.974 135.5,107.5 Z"/></g>
<g><path style="opacity:1" fill="#3f414a" d="M 107.5,92.5 C 108.479,94.1454 109.812,95.4787 111.5,96.5C 112.277,98.7767 113.277,100.943 114.5,103C 113.709,104.101 113.709,104.934 114.5,105.5C 115.48,104.019 116.647,102.685 118,101.5C 118.399,101.728 118.565,102.062 118.5,102.5C 116.385,105.891 114.385,109.391 112.5,113C 113.448,113.483 114.448,113.649 115.5,113.5C 114.233,115.039 113.233,116.706 112.5,118.5C 112.55,115.204 111.217,113.871 108.5,114.5C 109.339,109.504 109.839,104.504 110,99.5C 105.427,94.1306 99.594,91.2973 92.5,91C 93.9441,89.9363 95.6107,89.4363 97.5,89.5C 101.016,89.9267 104.349,90.9267 107.5,92.5 Z"/></g>
<g><path style="opacity:1" fill="#a48588" d="M 217.5,87.5 C 219.028,87.5173 219.528,88.184 219,89.5C 211.761,97.939 202.594,101.439 191.5,100C 201.131,97.6832 209.798,93.5166 217.5,87.5 Z"/></g>
<g><path style="opacity:1" fill="#0f0f14" d="M 237.5,108.5 C 234.212,108.984 231.545,107.984 229.5,105.5C 228.532,102.555 228.366,99.5547 229,96.5C 236.839,87.6311 246.005,86.1311 256.5,92C 258.333,93.8333 260.167,95.6667 262,97.5C 264.364,101.474 263.864,104.974 260.5,108C 252.841,108.5 245.174,108.666 237.5,108.5 Z"/></g>
<g><path style="opacity:1" fill="#95969c" d="M 134.5,88.5 C 127.722,93.6114 122.389,99.9448 118.5,107.5C 116.72,108.99 116.054,110.99 116.5,113.5C 116.167,113.5 115.833,113.5 115.5,113.5C 114.448,113.649 113.448,113.483 112.5,113C 114.385,109.391 116.385,105.891 118.5,102.5C 122.303,96.0273 127.636,91.3606 134.5,88.5 Z"/></g>
<g><path style="opacity:1" fill="#d1b9c9" d="M 86.5,232.5 C 86.361,237.36 88.6943,240.026 93.5,240.5C 100.274,243.282 107.274,245.616 114.5,247.5C 109.67,249.035 105.004,250.868 100.5,253C 102.758,253.876 104.758,255.043 106.5,256.5C 98.5805,255.61 90.5805,254.11 82.5,252C 79.7405,248.458 79.0738,244.625 80.5,240.5C 81.5116,239.128 82.5116,237.795 83.5,236.5C 84.8571,235.41 85.8571,234.076 86.5,232.5 Z"/></g>
<g><path style="opacity:1" fill="#beb3cc" d="M 80.5,240.5 C 79.0738,244.625 79.7405,248.458 82.5,252C 90.5805,254.11 98.5805,255.61 106.5,256.5C 113.991,259.243 121.657,261.409 129.5,263C 127.593,264.122 125.593,264.955 123.5,265.5C 123.083,264.876 122.416,264.543 121.5,264.5C 113.981,266.519 106.314,267.019 98.5,266C 89.7078,264.089 81.0411,261.923 72.5,259.5C 73.2409,252.256 75.9076,245.922 80.5,240.5 Z"/></g>
<g><path style="opacity:1" fill="#f38a85" d="M 231.5,253.5 C 226.847,261.488 219.847,264.655 210.5,263C 206.689,261.93 203.356,260.097 200.5,257.5C 200.088,255.027 201.088,253.694 203.5,253.5C 208.032,252.599 212.532,251.599 217,250.5C 222.294,250.552 227.127,251.552 231.5,253.5 Z"/></g>
<g><path style="opacity:1" fill="#9caedb" d="M 307.5,255.5 C 309.679,255.84 311.512,256.84 313,258.5C 313.498,261.482 313.665,264.482 313.5,267.5C 305.135,264.561 296.469,262.894 287.5,262.5C 283.003,262.89 278.67,263.89 274.5,265.5C 276.794,263.347 279.46,261.68 282.5,260.5C 286.747,261.602 291.08,261.768 295.5,261C 295.167,260.667 294.833,260.333 294.5,260C 298.716,257.879 303.049,256.379 307.5,255.5 Z"/></g>
<g><path style="opacity:1" fill="#562928" d="M 231.5,253.5 C 231.833,253.5 232.167,253.5 232.5,253.5C 232.328,254.492 232.662,255.158 233.5,255.5C 226.712,263.712 218.045,266.545 207.5,264C 204.316,263.246 201.649,261.746 199.5,259.5C 200.338,259.158 200.672,258.492 200.5,257.5C 203.356,260.097 206.689,261.93 210.5,263C 219.847,264.655 226.847,261.488 231.5,253.5 Z"/></g>
<g><path style="opacity:1" fill="#16151c" d="M 349.5,276.5 C 348.222,276.782 347.222,277.449 346.5,278.5C 343.936,277.021 341.27,276.521 338.5,277C 332.08,273.373 325.58,269.873 319,266.5C 318.505,264.527 318.338,262.527 318.5,260.5C 328.155,263.825 337.489,267.992 346.5,273C 347.71,274.039 348.71,275.206 349.5,276.5 Z"/></g>
<g><path style="opacity:0.004" fill="#fefffe" d="M 67.5,265.5 C 68.8333,266.167 68.8333,266.167 67.5,265.5 Z"/></g>
<g><path style="opacity:1" fill="#566379" d="M 270.5,267.5 C 268.388,269.771 265.721,271.104 262.5,271.5C 264.612,269.229 267.279,267.896 270.5,267.5 Z"/></g>
<g><path style="opacity:0.012" fill="#a9aaa9" d="M 78.5,269.5 C 79.8333,270.167 79.8333,270.167 78.5,269.5 Z"/></g>
<g><path style="opacity:0.004" fill="#fefffe" d="M 358.5,270.5 C 359.525,270.897 359.692,271.563 359,272.5C 358.536,271.906 358.369,271.239 358.5,270.5 Z"/></g>
<g><path style="opacity:0.006" fill="#fefffe" d="M 84.5,272.5 C 83.7611,272.631 83.0944,272.464 82.5,272C 83.4368,271.308 84.1034,271.475 84.5,272.5 Z"/></g>
<g><path style="opacity:0.004" fill="#fefffe" d="M 84.5,272.5 C 85.8333,273.167 85.8333,273.167 84.5,272.5 Z"/></g>
<g><path style="opacity:0.004" fill="#fefffe" d="M 360.5,275.5 C 361.833,276.167 361.833,276.167 360.5,275.5 Z"/></g>
<g><path style="opacity:1" fill="#b5a8c6" d="M 122.5,266.5 C 122.137,268.911 123.137,270.411 125.5,271C 140.516,273.589 155.183,277.089 169.5,281.5C 162.492,281.334 155.492,281.5 148.5,282C 137.35,284.897 126.016,286.064 114.5,285.5C 114.459,277.938 117.126,271.605 122.5,266.5 Z"/></g>
<g><path style="opacity:1" fill="#9b94b7" d="M 289.5,282.5 C 286.833,282.167 284.167,281.833 281.5,281.5C 278.427,278.867 275.261,278.867 272,281.5C 271.228,281.355 270.561,281.022 270,280.5C 268.13,282.219 265.963,283.219 263.5,283.5C 263.434,287.753 261.934,288.42 259,285.5C 258.626,286.416 258.126,287.25 257.5,288C 253.511,287.893 250.011,289.059 247,291.5C 246.667,291.167 246.333,290.833 246,290.5C 243.736,293.28 240.903,295.28 237.5,296.5C 236.28,295.289 235.113,295.289 234,296.5C 233.085,295.672 232.419,294.672 232,293.5C 231.333,294.833 230.667,296.167 230,297.5C 228.448,296.034 226.614,295.034 224.5,294.5C 216.636,295.152 208.803,295.818 201,296.5C 200.517,295.552 200.351,294.552 200.5,293.5C 209.515,294.875 218.515,294.708 227.5,293C 237.156,289.337 246.822,285.67 256.5,282C 265.226,276.97 274.226,272.47 283.5,268.5C 285.923,269.421 287.923,270.921 289.5,273C 294.708,274.642 300.041,275.642 305.5,276C 301.174,280.664 295.84,282.83 289.5,282.5 Z"/></g>
<g><path style="opacity:0.005" fill="#fefffe" d="M 106.5,283.5 C 107.573,284.251 107.74,285.251 107,286.5C 106.517,285.552 106.351,284.552 106.5,283.5 Z"/></g>
<g><path style="opacity:1" fill="#313037" d="M 338.5,283.5 C 340.5,283.5 342.5,283.5 344.5,283.5C 344.713,288.739 342.546,292.739 338,295.5C 336.67,299.495 335.337,303.495 334,307.5C 328.024,309.978 323.857,314.312 321.5,320.5C 319.879,321.695 318.213,322.695 316.5,323.5C 316.611,322.883 316.944,322.383 317.5,322C 314.5,321.667 311.5,321.333 308.5,321C 308.043,320.586 307.709,320.086 307.5,319.5C 310.976,315.879 312.809,311.546 313,306.5C 316.862,303.987 319.029,300.487 319.5,296C 319.392,294.319 318.725,293.152 317.5,292.5C 324.32,289.261 331.32,286.261 338.5,283.5 Z"/></g>
<g><path style="opacity:1" fill="#c5b4c4" d="M 281.5,281.5 C 284.167,281.833 286.833,282.167 289.5,282.5C 291.947,284.685 294.447,287.018 297,289.5C 298.128,291.345 298.628,293.345 298.5,295.5C 291.251,297.4 284.251,300.067 277.5,303.5C 276.328,297.309 272.495,294.309 266,294.5C 257.995,296.757 250.162,299.423 242.5,302.5C 241.314,300.806 241.481,299.139 243,297.5C 243.667,296.167 244.333,296.167 245,297.5C 246.455,293.01 249.621,290.844 254.5,291C 253.112,290.111 253.278,289.611 255,289.5C 257.773,290.13 260.606,289.797 263.5,288.5C 267.584,285.723 271.917,283.556 276.5,282C 278.134,281.506 279.801,281.34 281.5,281.5 Z"/></g>
<g><path style="opacity:0.004" fill="#fefffe" d="M 361.5,293.5 C 362.833,294.167 362.833,294.167 361.5,293.5 Z"/></g>
<g><path style="opacity:1" fill="#f9f4ed" d="M 277.5,303.5 C 270.582,306.695 263.582,309.695 256.5,312.5C 250.432,312.211 244.432,311.378 238.5,310C 235.719,309.478 233.385,308.311 231.5,306.5C 233.302,305.542 235.302,304.875 237.5,304.5C 239.167,303.833 240.833,303.167 242.5,302.5C 250.162,299.423 257.995,296.757 266,294.5C 272.495,294.309 276.328,297.309 277.5,303.5 Z"/></g>
<g><path style="opacity:1" fill="#425476" d="M 353.5,284.5 C 352.314,292.39 350.314,300.057 347.5,307.5C 343.677,312.157 342.177,311.49 343,305.5C 346.139,297.751 349.472,290.084 353,282.5C 353.464,283.094 353.631,283.761 353.5,284.5 Z"/></g>
<g><path style="opacity:1" fill="#afa5bf" d="M 281.5,281.5 C 279.801,281.34 278.134,281.506 276.5,282C 271.917,283.556 267.584,285.723 263.5,288.5C 260.606,289.797 257.773,290.13 255,289.5C 253.278,289.611 253.112,290.111 254.5,291C 249.621,290.844 246.455,293.01 245,297.5C 244.333,296.167 243.667,296.167 243,297.5C 241.481,299.139 241.314,300.806 242.5,302.5C 240.833,303.167 239.167,303.833 237.5,304.5C 233.354,303.353 229.02,303.186 224.5,304C 223.748,304.671 223.414,305.504 223.5,306.5C 221.926,306.063 220.759,305.063 220,303.5C 217.565,306.228 215.565,305.894 214,302.5C 213.259,303.641 212.425,303.641 211.5,302.5C 210.749,303.376 210.249,304.376 210,305.5C 209.751,304.376 209.251,303.376 208.5,302.5C 203.757,301.688 199.59,301.688 196,302.5C 195.333,299.833 194.667,299.833 194,302.5C 192.34,302.676 190.674,302.009 189,300.5C 188.667,300.833 188.333,301.167 188,301.5C 185.561,299.973 183.561,297.973 182,295.5C 180.846,296.743 179.512,297.743 178,298.5C 177.667,297.833 177.333,297.167 177,296.5C 173.249,298.982 169.082,300.316 164.5,300.5C 166.617,298.937 168.95,297.604 171.5,296.5C 165.454,295.987 160.121,293.821 155.5,290C 160.326,289.427 165.159,288.927 170,288.5C 180.126,290.488 190.293,292.155 200.5,293.5C 200.351,294.552 200.517,295.552 201,296.5C 208.803,295.818 216.636,295.152 224.5,294.5C 226.614,295.034 228.448,296.034 230,297.5C 230.667,296.167 231.333,294.833 232,293.5C 232.419,294.672 233.085,295.672 234,296.5C 235.113,295.289 236.28,295.289 237.5,296.5C 240.903,295.28 243.736,293.28 246,290.5C 246.333,290.833 246.667,291.167 247,291.5C 250.011,289.059 253.511,287.893 257.5,288C 258.126,287.25 258.626,286.416 259,285.5C 261.934,288.42 263.434,287.753 263.5,283.5C 265.963,283.219 268.13,282.219 270,280.5C 270.561,281.022 271.228,281.355 272,281.5C 275.261,278.867 278.427,278.867 281.5,281.5 Z"/></g>
<g><path style="opacity:1" fill="#3a3a3f" d="M 317.5,292.5 C 318.725,293.152 319.392,294.319 319.5,296C 319.029,300.487 316.862,303.987 313,306.5C 312.809,311.546 310.976,315.879 307.5,319.5C 307.709,320.086 308.043,320.586 308.5,321C 311.5,321.333 314.5,321.667 317.5,322C 316.944,322.383 316.611,322.883 316.5,323.5C 292.718,335.984 267.718,345.318 241.5,351.5C 240.833,351.167 240.167,350.833 239.5,350.5C 240.246,349.264 240.579,347.93 240.5,346.5C 240.843,341.381 238.343,338.715 233,338.5C 228.981,338.843 225.648,340.509 223,343.5C 221.423,348.102 219.589,352.435 217.5,356.5C 209.267,359.601 200.934,360.601 192.5,359.5C 197.681,354.157 203.348,349.323 209.5,345C 243.438,323.533 279.438,306.033 317.5,292.5 Z"/></g>
<g><path style="opacity:1" fill="#c9bbcd" d="M 223.5,306.5 C 223.5,307.167 223.833,307.5 224.5,307.5C 224.5,308.167 224.5,308.833 224.5,309.5C 207.274,311.684 190.941,309.018 175.5,301.5C 170.047,302.391 165.714,305.058 162.5,309.5C 164.882,311.071 167.549,311.904 170.5,312C 175.155,312.499 179.821,312.666 184.5,312.5C 184.631,313.376 184.298,314.043 183.5,314.5C 181.343,315.05 179.343,315.717 177.5,316.5C 168.244,318.483 160.577,315.983 154.5,309C 156.795,304.866 160.129,302.033 164.5,300.5C 169.082,300.316 173.249,298.982 177,296.5C 177.333,297.167 177.667,297.833 178,298.5C 179.512,297.743 180.846,296.743 182,295.5C 183.561,297.973 185.561,299.973 188,301.5C 188.333,301.167 188.667,300.833 189,300.5C 190.674,302.009 192.34,302.676 194,302.5C 194.667,299.833 195.333,299.833 196,302.5C 199.59,301.688 203.757,301.688 208.5,302.5C 209.251,303.376 209.751,304.376 210,305.5C 210.249,304.376 210.749,303.376 211.5,302.5C 212.425,303.641 213.259,303.641 214,302.5C 215.565,305.894 217.565,306.228 220,303.5C 220.759,305.063 221.926,306.063 223.5,306.5 Z"/></g>
<g><path style="opacity:1" fill="#877887" d="M 237.5,304.5 C 235.302,304.875 233.302,305.542 231.5,306.5C 229.833,306.5 228.167,306.5 226.5,306.5C 225.377,305.243 224.711,305.576 224.5,307.5C 223.833,307.5 223.5,307.167 223.5,306.5C 223.414,305.504 223.748,304.671 224.5,304C 229.02,303.186 233.354,303.353 237.5,304.5 Z"/></g>
<g><path style="opacity:1" fill="#f9f6ee" d="M 224.5,309.5 C 226.963,311.461 229.297,313.628 231.5,316C 234.893,317.62 238.226,319.12 241.5,320.5C 230.001,326.413 219.001,333.08 208.5,340.5C 207.834,337.642 207.167,334.642 206.5,331.5C 204.167,334.167 201.833,336.833 199.5,339.5C 193.854,334.18 189.187,328.18 185.5,321.5C 185.95,316.203 188.617,312.369 193.5,310C 190.577,310.776 187.577,311.609 184.5,312.5C 179.821,312.666 175.155,312.499 170.5,312C 167.549,311.904 164.882,311.071 162.5,309.5C 165.714,305.058 170.047,302.391 175.5,301.5C 190.941,309.018 207.274,311.684 224.5,309.5 Z"/></g>
<g><path style="opacity:1" fill="#ddd4c8" d="M 123.5,296.5 C 126.307,305.407 129.64,314.24 133.5,323C 133.167,323.5 132.833,324 132.5,324.5C 126.113,319.002 123.613,320.668 125,329.5C 127.5,333.333 130.667,336.5 134.5,339C 134.272,339.399 133.938,339.565 133.5,339.5C 126.764,336.931 121.764,332.431 118.5,326C 120.076,321.776 122.409,318.11 125.5,315C 122.92,309.025 122.253,302.859 123.5,296.5 Z"/></g>
<g><path style="opacity:1" fill="#594550" d="M 226.5,306.5 C 230.808,314.315 237.474,317.315 246.5,315.5C 243.695,316.319 240.695,316.819 237.5,317C 239.392,317.973 241.392,318.64 243.5,319C 242.956,319.717 242.289,320.217 241.5,320.5C 238.226,319.12 234.893,317.62 231.5,316C 229.297,313.628 226.963,311.461 224.5,309.5C 224.5,308.833 224.5,308.167 224.5,307.5C 224.711,305.576 225.377,305.243 226.5,306.5 Z"/></g>
<g><path style="opacity:1" fill="#c8b8c2" d="M 226.5,306.5 C 228.167,306.5 229.833,306.5 231.5,306.5C 233.385,308.311 235.719,309.478 238.5,310C 244.432,311.378 250.432,312.211 256.5,312.5C 253.619,314.68 250.286,315.68 246.5,315.5C 237.474,317.315 230.808,314.315 226.5,306.5 Z"/></g>
<g><path style="opacity:0.012" fill="#fefffe" d="M 360.5,315.5 C 361.833,316.167 361.833,316.167 360.5,315.5 Z"/></g>
<g><path style="opacity:1" fill="#3c3b41" d="M 148.5,315.5 C 164.508,327.169 180.508,338.836 196.5,350.5C 192.862,356.442 187.862,357.942 181.5,355C 180.869,351.471 180.036,347.971 179,344.5C 174.578,339.868 169.745,339.368 164.5,343C 163.62,344.356 163.286,345.856 163.5,347.5C 153.868,344.376 146.035,338.709 140,330.5C 138.299,324.173 137.799,317.84 138.5,311.5C 141.793,312.809 145.126,314.142 148.5,315.5 Z"/></g>
<g><path style="opacity:1" fill="#635664" d="M 185.5,321.5 C 185.167,321.5 184.833,321.5 184.5,321.5C 184.657,320.127 184.49,318.793 184,317.5C 183.617,318.056 183.117,318.389 182.5,318.5C 182.5,317.833 182.167,317.5 181.5,317.5C 180.432,316.566 179.099,316.232 177.5,316.5C 179.343,315.717 181.343,315.05 183.5,314.5C 184.298,314.043 184.631,313.376 184.5,312.5C 187.577,311.609 190.577,310.776 193.5,310C 188.617,312.369 185.95,316.203 185.5,321.5 Z"/></g>
<g><path style="opacity:1" fill="#24232c" d="M 349.5,276.5 C 351.103,277.596 352.603,278.93 354,280.5C 354.765,282.066 354.598,283.399 353.5,284.5C 353.631,283.761 353.464,283.094 353,282.5C 349.472,290.084 346.139,297.751 343,305.5C 342.177,311.49 343.677,312.157 347.5,307.5C 347.704,309.685 348.37,311.685 349.5,313.5C 348.35,312.15 347.683,312.316 347.5,314C 349.135,318.267 348.801,322.267 346.5,326C 336.107,330.603 325.441,334.603 314.5,338C 314.167,338.333 313.833,338.667 313.5,339C 314.793,339.49 316.127,339.657 317.5,339.5C 292.63,344.293 267.63,349.126 242.5,354C 239.893,354.637 237.56,355.804 235.5,357.5C 235.72,353.378 237.386,349.711 240.5,346.5C 240.579,347.93 240.246,349.264 239.5,350.5C 240.167,350.833 240.833,351.167 241.5,351.5C 267.718,345.318 292.718,335.984 316.5,323.5C 318.213,322.695 319.879,321.695 321.5,320.5C 323.857,314.312 328.024,309.978 334,307.5C 335.337,303.495 336.67,299.495 338,295.5C 342.546,292.739 344.713,288.739 344.5,283.5C 342.5,283.5 340.5,283.5 338.5,283.5C 341.395,282.201 344.062,280.535 346.5,278.5C 347.222,277.449 348.222,276.782 349.5,276.5 Z"/></g>
<g><path style="opacity:1" fill="#2a262e" d="M 148.5,315.5 C 145.126,314.142 141.793,312.809 138.5,311.5C 137.799,317.84 138.299,324.173 140,330.5C 146.035,338.709 153.868,344.376 163.5,347.5C 163.5,348.833 163.5,350.167 163.5,351.5C 153.049,348.464 143.049,344.464 133.5,339.5C 133.938,339.565 134.272,339.399 134.5,339C 130.667,336.5 127.5,333.333 125,329.5C 123.613,320.668 126.113,319.002 132.5,324.5C 132.833,324 133.167,323.5 133.5,323C 129.64,314.24 126.307,305.407 123.5,296.5C 125.087,292.944 127.754,291.778 131.5,293C 130.424,294.726 130.257,296.559 131,298.5C 136.067,305.069 141.9,310.735 148.5,315.5 Z"/></g>
<g><path style="opacity:1" fill="#afa7ac" d="M 181.5,317.5 C 182.167,317.5 182.5,317.833 182.5,318.5C 180.619,323.431 179.953,328.431 180.5,333.5C 176.208,330.543 172.208,327.21 168.5,323.5C 172.45,320.736 176.783,318.736 181.5,317.5 Z"/></g>
<g><path style="opacity:0.004" fill="#fefffe" d="M 110.5,331.5 C 111.833,332.167 111.833,332.167 110.5,331.5 Z"/></g>
<g><path style="opacity:1" fill="#344a6e" d="M 349.5,313.5 C 351.124,316.606 352.457,319.939 353.5,323.5C 353.06,326.214 351.726,328.38 349.5,330C 339.293,334.718 328.626,337.885 317.5,339.5C 316.127,339.657 314.793,339.49 313.5,339C 313.833,338.667 314.167,338.333 314.5,338C 325.441,334.603 336.107,330.603 346.5,326C 348.801,322.267 349.135,318.267 347.5,314C 347.683,312.316 348.35,312.15 349.5,313.5 Z"/></g>
<g><path style="opacity:1" fill="#c1b5c3" d="M 184.5,321.5 C 184.833,321.5 185.167,321.5 185.5,321.5C 189.187,328.18 193.854,334.18 199.5,339.5C 201.833,336.833 204.167,334.167 206.5,331.5C 207.167,334.642 207.834,337.642 208.5,340.5C 206.159,342.829 203.492,344.829 200.5,346.5C 193.94,343.315 188.774,338.649 185,332.5C 184.501,328.848 184.335,325.182 184.5,321.5 Z"/></g>
<g><path style="opacity:1" fill="#9e9393" d="M 175.5,353.5 C 175.649,352.448 175.483,351.448 175,350.5C 172.931,348.915 170.764,347.581 168.5,346.5C 170.011,344.559 172.011,344.059 174.5,345C 176.673,347.698 177.006,350.531 175.5,353.5 Z"/></g>
<g><path style="opacity:1" fill="#243b66" d="M 347.5,342.5 C 345.837,348.163 342.171,351.829 336.5,353.5C 332.91,351.182 329.91,348.182 327.5,344.5C 334.125,343.392 340.792,342.726 347.5,342.5 Z"/></g>
<g><path style="opacity:1" fill="#9c9096" d="M 232.5,350.5 C 232.5,348.833 232.5,347.167 232.5,345.5C 230.435,345.517 228.435,345.85 226.5,346.5C 229.135,343.093 232.135,342.76 235.5,345.5C 234.304,347.145 233.304,348.811 232.5,350.5 Z"/></g>
<g><path style="opacity:0.004" fill="#fefffe" d="M 358.5,352.5 C 358.897,351.475 359.563,351.308 360.5,352C 359.906,352.464 359.239,352.631 358.5,352.5 Z"/></g>
<g><path style="opacity:1" fill="#221f26" d="M 162.5,365.5 C 158.185,363.43 153.685,361.763 149,360.5C 147.833,360.667 146.667,360.833 145.5,361C 143.123,363.253 140.456,365.087 137.5,366.5C 136.833,362.353 136.166,358.353 135.5,354.5C 135.539,351.911 134.539,349.911 132.5,348.5C 132.222,346.654 132.889,345.32 134.5,344.5C 143.564,349.079 152.898,353.079 162.5,356.5C 163.741,359.537 163.741,362.537 162.5,365.5 Z"/></g>
<g><path style="opacity:1" fill="#232127" d="M 304.5,374.5 C 304.823,370.774 304.489,367.107 303.5,363.5C 291.474,357.788 278.807,355.955 265.5,358C 257.808,359.784 250.142,361.784 242.5,364C 238.613,368.02 236.447,372.854 236,378.5C 234.993,388.297 233.827,397.964 232.5,407.5C 231.34,395.34 231.173,383.007 232,370.5C 232.147,367.429 232.98,364.596 234.5,362C 251.256,357.114 268.256,353.114 285.5,350C 292.132,348.838 298.799,348.004 305.5,347.5C 305.827,356.682 305.493,365.682 304.5,374.5 Z"/></g>
<g><path style="opacity:0.004" fill="#fefffe" d="M 357.5,355.5 C 358.833,356.167 358.833,356.167 357.5,355.5 Z"/></g>
<g><path style="opacity:1" fill="#355c8e" d="M 336.5,353.5 C 342.171,351.829 345.837,348.163 347.5,342.5C 347.771,340.688 348.438,339.022 349.5,337.5C 350.802,342.385 350.802,347.218 349.5,352C 344.002,354.915 338.668,358.081 333.5,361.5C 331.771,359.149 331.104,356.482 331.5,353.5C 333.167,353.5 334.833,353.5 336.5,353.5 Z"/></g>
<g><path style="opacity:1" fill="#e7ded0" d="M 132.5,348.5 C 134.539,349.911 135.539,351.911 135.5,354.5C 135.5,358.833 135.5,363.167 135.5,367.5C 134.5,367.5 133.5,367.5 132.5,367.5C 131.295,372.613 129.795,377.613 128,382.5C 127.583,388.008 127.083,393.508 126.5,399C 126.431,400.986 125.765,402.486 124.5,403.5C 122.222,400.704 120.556,397.538 119.5,394C 123.903,378.797 128.236,363.631 132.5,348.5 Z"/></g>
<g><path style="opacity:1" fill="#3f3f44" d="M 304.5,374.5 C 304.287,381.174 303.954,387.841 303.5,394.5C 281.635,398.763 262.968,408.763 247.5,424.5C 246.833,424.5 246.167,424.5 245.5,424.5C 252.385,411.066 259.552,397.733 267,384.5C 270.333,380.5 273.667,376.5 277,372.5C 277.667,371.833 277.667,371.167 277,370.5C 260.435,385.625 248.935,403.958 242.5,425.5C 241.833,425.5 241.167,425.5 240.5,425.5C 243.251,412.746 246.917,400.246 251.5,388C 251.167,387.5 250.833,387 250.5,386.5C 246.71,389.405 243.877,393.072 242,397.5C 239.842,406.779 238.008,416.112 236.5,425.5C 214.451,428.122 192.451,428.122 170.5,425.5C 169.859,424.518 169.193,423.518 168.5,422.5C 170.631,421.831 172.631,421.165 174.5,420.5C 175.794,419.71 176.961,418.71 178,417.5C 178.498,414.183 178.665,410.85 178.5,407.5C 178.987,406.527 179.487,405.527 180,404.5C 180.226,392.134 180.726,379.801 181.5,367.5C 193.054,369.139 204.721,370.139 216.5,370.5C 216.5,371.833 216.5,373.167 216.5,374.5C 216.539,388.904 216.705,403.237 217,417.5C 219.942,422.153 224.109,423.653 229.5,422C 233.413,417.779 234.413,412.946 232.5,407.5C 233.827,397.964 234.993,388.297 236,378.5C 236.447,372.854 238.613,368.02 242.5,364C 250.142,361.784 257.808,359.784 265.5,358C 278.807,355.955 291.474,357.788 303.5,363.5C 304.489,367.107 304.823,370.774 304.5,374.5 Z"/></g>
<g><path style="opacity:1" fill="#1c1c24" d="M 217.5,356.5 C 221.043,357.441 221.376,359.108 218.5,361.5C 211.252,363.652 203.919,364.819 196.5,365C 192.783,363.82 189.116,362.487 185.5,361C 184.304,360.346 184.304,359.846 185.5,359.5C 187.823,360.672 190.156,360.672 192.5,359.5C 200.934,360.601 209.267,359.601 217.5,356.5 Z"/></g>
<g><path style="opacity:1" fill="#3d3c41" d="M 135.5,354.5 C 136.166,358.353 136.833,362.353 137.5,366.5C 140.456,365.087 143.123,363.253 145.5,361C 146.667,360.833 147.833,360.667 149,360.5C 153.685,361.763 158.185,363.43 162.5,365.5C 161.895,383.622 162.895,401.622 165.5,419.5C 162.203,416.704 159.036,413.704 156,410.5C 153.301,405.744 150.134,401.411 146.5,397.5C 143.253,390.43 140.586,383.096 138.5,375.5C 137.5,372.833 136.5,370.167 135.5,367.5C 135.5,363.167 135.5,358.833 135.5,354.5 Z"/></g>
<g><path style="opacity:1" fill="#22222c" d="M 329.5,376.5 C 328.507,385.318 328.173,394.318 328.5,403.5C 326.351,404.736 324.018,405.736 321.5,406.5C 317.656,400.982 312.656,396.982 306.5,394.5C 308.144,394.286 309.644,394.62 311,395.5C 310.934,386.179 310.601,376.846 310,367.5C 309.583,366.244 308.75,365.577 307.5,365.5C 307.5,359.5 307.5,353.5 307.5,347.5C 312.129,346.519 316.796,346.352 321.5,347C 326.341,356.169 329.008,366.003 329.5,376.5 Z"/></g>
<g><path style="opacity:1" fill="#242227" d="M 216.5,374.5 C 216.5,373.167 216.5,371.833 216.5,370.5C 204.721,370.139 193.054,369.139 181.5,367.5C 180.726,379.801 180.226,392.134 180,404.5C 179.487,405.527 178.987,406.527 178.5,407.5C 177.17,401.705 176.504,395.538 176.5,389C 176.312,380.084 176.979,371.251 178.5,362.5C 190.949,368.89 203.949,370.223 217.5,366.5C 217.806,369.385 217.473,372.052 216.5,374.5 Z"/></g>
<g><path style="opacity:1" fill="#f6f2ec" d="M 168.5,346.5 C 170.764,347.581 172.931,348.915 175,350.5C 175.483,351.448 175.649,352.448 175.5,353.5C 174.687,360.484 174.02,367.484 173.5,374.5C 172.67,383.991 172.17,393.658 172,403.5C 170.333,402.5 168.667,401.5 167,400.5C 166.5,386.171 166.333,371.837 166.5,357.5C 166.659,353.709 167.325,350.042 168.5,346.5 Z"/></g>
<g><path style="opacity:1" fill="#3e3c41" d="M 307.5,365.5 C 308.75,365.577 309.583,366.244 310,367.5C 310.601,376.846 310.934,386.179 311,395.5C 309.644,394.62 308.144,394.286 306.5,394.5C 305.853,393.726 305.52,392.726 305.5,391.5C 306.082,382.676 306.748,374.009 307.5,365.5 Z"/></g>
<g><path style="opacity:1" fill="#f3f0e9" d="M 232.5,350.5 C 230.844,357.433 229.511,364.433 228.5,371.5C 227.505,382.988 227.172,394.655 227.5,406.5C 224.892,406.6 222.558,405.933 220.5,404.5C 218.669,387.51 219.502,370.51 223,353.5C 223.67,350.826 224.837,348.493 226.5,346.5C 228.435,345.85 230.435,345.517 232.5,345.5C 232.5,347.167 232.5,348.833 232.5,350.5 Z"/></g>
<g><path style="opacity:1" fill="#1c1c21" d="M 245.5,424.5 C 244.609,425.11 243.609,425.443 242.5,425.5C 248.935,403.958 260.435,385.625 277,370.5C 277.667,371.167 277.667,371.833 277,372.5C 273.667,376.5 270.333,380.5 267,384.5C 259.552,397.733 252.385,411.066 245.5,424.5 Z"/></g>
<g><path style="opacity:0.955" fill="#08070a" d="M 138.5,375.5 C 140.586,383.096 143.253,390.43 146.5,397.5C 149.053,406.831 152.387,415.831 156.5,424.5C 153.941,424.802 151.607,424.468 149.5,423.5C 150.097,423.265 150.43,422.765 150.5,422C 145.144,407.458 140.811,392.625 137.5,377.5C 137.543,376.584 137.876,375.917 138.5,375.5 Z"/></g>
<g><path style="opacity:1" fill="#93f4dd" d="M 204.5,386.5 C 211.813,386.656 215.147,390.49 214.5,398C 214.545,402.2 213.212,405.866 210.5,409C 208.5,409.667 206.5,409.667 204.5,409C 200.036,398.819 194.703,398.152 188.5,407C 187.5,407.667 186.5,407.667 185.5,407C 182.607,402.975 181.774,398.475 183,393.5C 184.062,392.101 185.395,391.101 187,390.5C 189.449,391.944 191.615,393.778 193.5,396C 195.167,396.667 196.833,396.667 198.5,396C 200.636,392.89 202.636,389.723 204.5,386.5 Z"/></g>
<g><path style="opacity:1" fill="#312d32" d="M 135.5,367.5 C 136.5,370.167 137.5,372.833 138.5,375.5C 137.876,375.917 137.543,376.584 137.5,377.5C 140.811,392.625 145.144,407.458 150.5,422C 150.43,422.765 150.097,423.265 149.5,423.5C 144.003,423.149 138.67,422.149 133.5,420.5C 131.676,416.161 128.843,412.494 125,409.5C 124.333,408.833 124.333,408.167 125,407.5C 126.113,409.329 127.613,410.163 129.5,410C 128.267,408.333 126.933,406.833 125.5,405.5C 125.167,404.833 124.833,404.167 124.5,403.5C 125.765,402.486 126.431,400.986 126.5,399C 127.083,393.508 127.583,388.008 128,382.5C 129.795,377.613 131.295,372.613 132.5,367.5C 133.5,367.5 134.5,367.5 135.5,367.5 Z"/></g>
<g><path style="opacity:1" fill="#a6a4a9" d="M 228.5,371.5 C 228.5,383.5 228.5,395.5 228.5,407.5C 226.181,408.167 223.847,408.334 221.5,408C 220.663,406.989 220.33,405.822 220.5,404.5C 222.558,405.933 224.892,406.6 227.5,406.5C 227.172,394.655 227.505,382.988 228.5,371.5 Z"/></g>
<g><path style="opacity:1" fill="#466694" d="M 329.5,376.5 C 330.266,385.479 330.599,394.479 330.5,403.5C 329.833,403.5 329.167,403.5 328.5,403.5C 328.173,394.318 328.507,385.318 329.5,376.5 Z"/></g>
<g><path style="opacity:1" fill="#18181e" d="M 240.5,425.5 C 239.167,425.5 237.833,425.5 236.5,425.5C 238.008,416.112 239.842,406.779 242,397.5C 243.877,393.072 246.71,389.405 250.5,386.5C 250.833,387 251.167,387.5 251.5,388C 246.917,400.246 243.251,412.746 240.5,425.5 Z"/></g>
<g><path style="opacity:1" fill="#e4dbd4" d="M 124.5,403.5 C 124.833,404.167 125.167,404.833 125.5,405.5C 119.912,407.294 117.245,411.294 117.5,417.5C 116.041,417.567 114.708,417.234 113.5,416.5C 114.302,409.943 115.802,403.609 118,397.5C 119.406,400.409 121.572,402.409 124.5,403.5 Z"/></g>
<g><path style="opacity:1" fill="#cfcbcc" d="M 166.5,357.5 C 166.333,371.837 166.5,386.171 167,400.5C 168.667,401.5 170.333,402.5 172,403.5C 172.17,393.658 172.67,383.991 173.5,374.5C 173.666,384.839 173.5,395.172 173,405.5C 170.368,408.192 168.034,407.859 166,404.5C 165.172,388.661 165.339,372.995 166.5,357.5 Z"/></g>
<g><path style="opacity:0.991" fill="#4a494d" d="M 300.5,397.5 C 302.167,397.5 303.833,397.5 305.5,397.5C 305.896,400.044 305.229,402.211 303.5,404C 294.935,407.106 287.601,411.939 281.5,418.5C 271.843,420.665 262.177,422.665 252.5,424.5C 252.281,423.325 252.614,422.325 253.5,421.5C 267.102,409.532 282.768,401.532 300.5,397.5 Z"/></g>
<g><path style="opacity:0.854" fill="#312f36" d="M 300.5,397.5 C 302.288,396.378 304.288,396.211 306.5,397C 311.134,399.811 315.134,403.311 318.5,407.5C 306.501,411.921 294.168,415.588 281.5,418.5C 287.601,411.939 294.935,407.106 303.5,404C 305.229,402.211 305.896,400.044 305.5,397.5C 303.833,397.5 302.167,397.5 300.5,397.5 Z"/></g>
<g><path style="opacity:1" fill="#8a8395" d="M 173.5,408.5 C 174.634,410.966 174.801,413.633 174,416.5C 172,419.167 170,419.167 168,416.5C 166.798,414.323 166.298,411.989 166.5,409.5C 169.059,409.802 171.393,409.468 173.5,408.5 Z"/></g>
<g><path style="opacity:1" fill="#8e879f" d="M 227.5,409.5 C 229.996,412.409 229.996,415.576 227.5,419C 221.887,419.203 219.554,416.37 220.5,410.5C 222.06,410.519 223.56,410.852 225,411.5C 226.301,411.361 227.134,410.695 227.5,409.5 Z"/></g>
<g><path style="opacity:0.985" fill="#27252f" d="M 146.5,397.5 C 150.134,401.411 153.301,405.744 156,410.5C 159.036,413.704 162.203,416.704 165.5,419.5C 168.43,420.299 171.43,420.632 174.5,420.5C 172.631,421.165 170.631,421.831 168.5,422.5C 169.193,423.518 169.859,424.518 170.5,425.5C 165.77,425.717 161.103,425.383 156.5,424.5C 152.387,415.831 149.053,406.831 146.5,397.5 Z"/></g>
<g><path style="opacity:0.782" fill="#433f42" d="M 125.5,405.5 C 126.933,406.833 128.267,408.333 129.5,410C 127.613,410.163 126.113,409.329 125,407.5C 124.333,408.167 124.333,408.833 125,409.5C 128.843,412.494 131.676,416.161 133.5,420.5C 128.089,419.919 122.756,418.919 117.5,417.5C 117.245,411.294 119.912,407.294 125.5,405.5 Z"/></g>
</svg>
