<svg xmlns="http://www.w3.org/2000/svg" version="1.1" viewBox="0 0 804 804" width="804px" height="804px" style="shape-rendering:geometricPrecision; text-rendering:geometricPrecision; image-rendering:optimizeQuality; fill-rule:evenodd; clip-rule:evenodd">
<g><path style="opacity:1" fill="#072722" d="M -0.5,-0.5 C 267.5,-0.5 535.5,-0.5 803.5,-0.5C 803.5,267.5 803.5,535.5 803.5,803.5C 535.5,803.5 267.5,803.5 -0.5,803.5C -0.5,535.5 -0.5,267.5 -0.5,-0.5 Z"/></g>
<g><path style="opacity:1" fill="#0c2b25" d="M 569.5,91.5 C 579.172,91.3335 588.839,91.5002 598.5,92C 599.167,93 599.833,94 600.5,95C 608.167,95.3333 615.833,95.6667 623.5,96C 624.5,97 625.5,98 626.5,99C 630.5,99.3333 634.5,99.6667 638.5,100C 641.373,102.092 644.707,103.092 648.5,103C 649.357,103.689 650.023,104.522 650.5,105.5C 654.418,107.261 658.418,108.761 662.5,110C 665.266,112.364 668.266,114.364 671.5,116C 676.506,116.98 680.506,119.647 683.5,124C 688.802,125.669 693.136,128.836 696.5,133.5C 698.078,134.298 699.744,134.798 701.5,135C 708,141.5 714.5,148 721,154.5C 721.333,156.167 721.667,157.833 722,159.5C 726.846,163.334 730.512,168 733,173.5C 738.255,178.41 741.588,184.41 743,191.5C 745.892,192.842 747.225,195.175 747,198.5C 747.667,199.167 748.333,199.833 749,200.5C 748.652,204.887 749.986,208.553 753,211.5C 752.771,215.879 754.104,219.546 757,222.5C 757.333,225.5 757.667,228.5 758,231.5C 758.414,231.957 758.914,232.291 759.5,232.5C 760.332,241.482 760.832,250.482 761,259.5C 762.333,260.167 763.333,261.167 764,262.5C 764.667,268.5 764.667,274.5 764,280.5C 763.311,281.357 762.478,282.023 761.5,282.5C 760.925,295.164 759.425,307.498 757,319.5C 753.986,322.447 752.652,326.113 753,330.5C 752,331.5 751,332.5 750,333.5C 749.69,338.923 748.357,343.923 746,348.5C 742.986,351.447 741.652,355.113 742,359.5C 739.413,365.082 736.413,370.415 733,375.5C 733.121,378.921 731.788,381.588 729,383.5C 728.667,386.167 728.333,388.833 728,391.5C 726.019,393.359 725.019,395.692 725,398.5C 724,399.5 723,400.5 722,401.5C 721.058,409.936 719.724,418.269 718,426.5C 717,427.5 716,428.5 715,429.5C 714.667,457.167 714.333,484.833 714,512.5C 713.333,513.833 712.333,514.833 711,515.5C 710.667,523.167 710.333,530.833 710,538.5C 709.333,539.167 708.667,539.833 708,540.5C 707.667,544.5 707.333,548.5 707,552.5C 706,553.5 705,554.5 704,555.5C 703.667,559.5 703.333,563.5 703,567.5C 700.943,570.028 699.943,573.028 700,576.5C 699.333,577.833 698.333,578.833 697,579.5C 696.981,582.308 695.981,584.641 694,586.5C 693.667,589.167 693.333,591.833 693,594.5C 692.333,595.833 691.333,596.833 690,597.5C 690.121,600.921 688.788,603.588 686,605.5C 685.667,607.167 685.333,608.833 685,610.5C 683.348,613.686 681.348,616.686 679,619.5C 678.667,621.167 678.333,622.833 678,624.5C 673.663,629.786 669.33,635.119 665,640.5C 664.667,642.167 664.333,643.833 664,645.5C 658.333,651.167 652.667,656.833 647,662.5C 646.667,663.833 646.333,665.167 646,666.5C 639.527,672.973 633.027,679.473 626.5,686C 625.167,686.333 623.833,686.667 622.5,687C 618.167,691.333 613.833,695.667 609.5,700C 607.833,700.333 606.167,700.667 604.5,701C 602.5,703.333 600.5,705.667 598.5,708C 593.844,708.634 590.177,710.967 587.5,715C 583.827,717.123 579.827,718.623 575.5,719.5C 573.891,721.94 571.557,723.107 568.5,723C 565.192,724.571 562.192,726.571 559.5,729C 556.079,728.879 553.412,730.212 551.5,733C 545.5,734.333 539.5,735.667 533.5,737C 532.5,738 531.5,739 530.5,740C 524.27,741.687 517.937,743.187 511.5,744.5C 511.023,745.478 510.357,746.311 509.5,747C 505.5,747.333 501.5,747.667 497.5,748C 496.833,748.667 496.167,749.333 495.5,750C 490.167,750.333 484.833,750.667 479.5,751C 478.833,752 478.167,753 477.5,754C 471.167,754.333 464.833,754.667 458.5,755C 457.5,756 456.5,757 455.5,758C 425.833,758.667 396.167,758.667 366.5,758C 365.5,757 364.5,756 363.5,755C 356.167,754.667 348.833,754.333 341.5,754C 340.167,753.333 339.167,752.333 338.5,751C 333.167,750.667 327.833,750.333 322.5,750C 322.043,749.586 321.709,749.086 321.5,748.5C 316.198,747.671 310.864,747.171 305.5,747C 304.643,746.311 303.977,745.478 303.5,744.5C 299.204,743.672 294.871,743.172 290.5,743C 287.972,740.943 284.972,739.943 281.5,740C 280.167,739.333 279.167,738.333 278.5,737C 275.5,736.667 272.5,736.333 269.5,736C 268.833,735.333 268.167,734.667 267.5,734C 263.113,734.348 259.447,733.014 256.5,730C 252.113,730.348 248.447,729.014 245.5,726C 240.923,723.643 235.923,722.31 230.5,722C 229.5,721 228.5,720 227.5,719C 220.766,717.457 215.099,714.124 210.5,709C 206.482,707.199 202.482,705.532 198.5,704C 195.766,700.094 192.1,697.594 187.5,696.5C 183.21,692.008 178.877,687.508 174.5,683C 172.833,682.667 171.167,682.333 169.5,682C 162,674.5 154.5,667 147,659.5C 146.667,657.833 146.333,656.167 146,654.5C 141.667,650.167 137.333,645.833 133,641.5C 131.872,637.364 129.539,634.031 126,631.5C 126.121,628.079 124.788,625.412 122,623.5C 121.667,621.833 121.333,620.167 121,618.5C 119.348,615.314 117.348,612.314 115,609.5C 114.01,605.687 112.677,602.02 111,598.5C 108.212,596.588 106.879,593.921 107,590.5C 106.333,589.833 105.667,589.167 105,588.5C 105.348,584.113 104.014,580.447 101,577.5C 100.667,573.5 100.333,569.5 100,565.5C 98.6667,564.833 97.6667,563.833 97,562.5C 96.8265,558.459 96.3265,554.459 95.5,550.5C 94.914,550.291 94.414,549.957 94,549.5C 93.6667,539.5 93.3333,529.5 93,519.5C 92,518.5 91,517.5 90,516.5C 89.6667,495.833 89.3333,475.167 89,454.5C 88.3333,453.833 87.6667,453.167 87,452.5C 86.6667,446.167 86.3333,439.833 86,433.5C 85,432.5 84,431.5 83,430.5C 82.8407,425.084 82.174,419.75 81,414.5C 76.2383,411.483 74.2383,407.149 75,401.5C 72.2119,399.588 70.8786,396.921 71,393.5C 70.3333,392.833 69.6667,392.167 69,391.5C 68.6667,388.833 68.3333,386.167 68,383.5C 63.9674,380.823 61.6341,377.156 61,372.5C 59.6667,371.833 58.6667,370.833 58,369.5C 56.6667,363.5 55.3333,357.5 54,351.5C 51.5203,348.809 49.687,345.809 48.5,342.5C 47.6786,339.553 47.1786,336.553 47,333.5C 43.9858,330.553 42.6524,326.887 43,322.5C 42,321.5 41,320.5 40,319.5C 39.6667,310.833 39.3333,302.167 39,293.5C 38.3333,292.833 37.6667,292.167 37,291.5C 36.3333,285.167 36.3333,278.833 37,272.5C 37.6667,271.833 38.3333,271.167 39,270.5C 39.3333,262.833 39.6667,255.167 40,247.5C 41,246.833 42,246.167 43,245.5C 43.3333,242.5 43.6667,239.5 44,236.5C 45,235.5 46,234.5 47,233.5C 48.3333,227.5 49.6667,221.5 51,215.5C 52,214.5 53,213.5 54,212.5C 55.5487,205.855 58.882,200.189 64,195.5C 64.6341,190.844 66.9674,187.177 71,184.5C 71.346,182.782 71.846,181.115 72.5,179.5C 82.0609,169.528 91.7276,159.694 101.5,150C 106.506,149.02 110.506,146.353 113.5,142C 117.751,141.249 121.085,139.083 123.5,135.5C 127.419,133.739 131.419,132.239 135.5,131C 136.357,130.311 137.023,129.478 137.5,128.5C 141.596,127.007 145.596,125.507 149.5,124C 152.447,120.986 156.113,119.652 160.5,120C 161.5,119 162.5,118 163.5,117C 167.541,116.827 171.541,116.327 175.5,115.5C 175.709,114.914 176.043,114.414 176.5,114C 180.5,113.667 184.5,113.333 188.5,113C 189.5,112 190.5,111 191.5,110C 219.833,109.333 248.167,109.333 276.5,110C 278.116,110.615 279.449,111.615 280.5,113C 291.167,114.333 301.833,115.667 312.5,117C 313.5,118 314.5,119 315.5,120C 319.5,120.333 323.5,120.667 327.5,121C 328.357,121.689 329.023,122.522 329.5,123.5C 333.796,124.328 338.129,124.828 342.5,125C 342.957,125.414 343.291,125.914 343.5,126.5C 350.142,127.331 356.809,127.831 363.5,128C 364.357,128.689 365.023,129.522 365.5,130.5C 386.159,131.666 406.825,131.833 427.5,131C 428.5,130 429.5,129 430.5,128C 438.188,127.831 445.855,127.331 453.5,126.5C 453.709,125.914 454.043,125.414 454.5,125C 458.871,124.828 463.204,124.328 467.5,123.5C 467.977,122.522 468.643,121.689 469.5,121C 473.879,121.229 477.546,119.896 480.5,117C 486.73,115.313 493.063,113.813 499.5,112.5C 502.387,110.522 505.387,108.688 508.5,107C 512.887,107.348 516.553,106.014 519.5,103C 522.167,102.667 524.833,102.333 527.5,102C 528.167,101.333 528.833,100.667 529.5,100C 533.5,99.6667 537.5,99.3333 541.5,99C 542.5,98 543.5,97 544.5,96C 552.188,95.8315 559.855,95.3315 567.5,94.5C 568.193,93.4822 568.859,92.4822 569.5,91.5 Z"/></g>
<g><path style="opacity:1" fill="#0e2d28" d="M 550.5,99.5 C 572.843,99.167 595.177,99.5003 617.5,100.5C 617.709,101.086 618.043,101.586 618.5,102C 623.864,102.171 629.198,102.671 634.5,103.5C 634.977,104.478 635.643,105.311 636.5,106C 639.5,106.333 642.5,106.667 645.5,107C 648.686,108.652 651.686,110.652 654.5,113C 656.167,113.333 657.833,113.667 659.5,114C 662.763,115.572 665.763,117.572 668.5,120C 672.722,121.245 676.722,122.911 680.5,125C 683.837,127.539 686.837,130.373 689.5,133.5C 691.078,134.298 692.744,134.798 694.5,135C 703.333,143.833 712.167,152.667 721,161.5C 721.634,166.156 723.967,169.823 728,172.5C 728.333,174.167 728.667,175.833 729,177.5C 733.08,179.68 735.413,183.013 736,187.5C 737,188.5 738,189.5 739,190.5C 740.333,194.166 741.666,197.833 743,201.5C 745.788,203.412 747.121,206.079 747,209.5C 747.667,210.167 748.333,210.833 749,211.5C 749.333,215.5 749.667,219.5 750,223.5C 751,224.167 752,224.833 753,225.5C 753.172,229.871 753.672,234.204 754.5,238.5C 755.478,238.977 756.311,239.643 757,240.5C 757.667,260.833 757.667,281.167 757,301.5C 756,302.5 755,303.5 754,304.5C 753.667,308.5 753.333,312.5 753,316.5C 752,317.5 751,318.5 750,319.5C 749.667,323.167 749.333,326.833 749,330.5C 747.019,332.359 746.019,334.692 746,337.5C 742.986,340.447 741.652,344.113 742,348.5C 740.019,350.359 739.019,352.692 739,355.5C 738,356.5 737,357.5 736,358.5C 734.761,362.581 733.261,366.581 731.5,370.5C 730.758,371.287 729.925,371.953 729,372.5C 728.667,375.167 728.333,377.833 728,380.5C 726.019,382.359 725.019,384.692 725,387.5C 721.986,390.447 720.652,394.113 721,398.5C 719.019,400.359 718.019,402.692 718,405.5C 717,406.5 716,407.5 715,408.5C 714.667,414.833 714.333,421.167 714,427.5C 712.26,428.716 711.26,430.382 711,432.5C 710.833,458.506 710.333,484.506 709.5,510.5C 708.914,510.709 708.414,511.043 708,511.5C 707.667,519.167 707.333,526.833 707,534.5C 706,535.5 705,536.5 704,537.5C 703.667,542.5 703.333,547.5 703,552.5C 702.333,553.167 701.667,553.833 701,554.5C 700.667,557.167 700.333,559.833 700,562.5C 699.333,563.833 698.333,564.833 697,565.5C 695.684,571.825 694.351,578.158 693,584.5C 690.548,587.738 688.215,591.071 686,594.5C 685.667,596.167 685.333,597.833 685,599.5C 683.429,602.808 681.429,605.808 679,608.5C 677.667,612.5 676.333,616.5 675,620.5C 672.108,621.842 670.775,624.175 671,627.5C 666.967,630.177 664.634,633.844 664,638.5C 659.123,642.358 655.457,647.025 653,652.5C 640.571,664.761 628.404,677.095 616.5,689.5C 610.895,691.585 606.229,695.085 602.5,700C 597.961,701.574 593.961,704.241 590.5,708C 584.26,710.177 578.26,712.843 572.5,716C 570.167,717.667 568.167,719.667 566.5,722C 563.447,722.179 560.447,722.679 557.5,723.5C 554.191,724.687 551.191,726.52 548.5,729C 545.079,728.879 542.412,730.212 540.5,733C 534.5,734.333 528.5,735.667 522.5,737C 521.5,738 520.5,739 519.5,740C 511.269,741.724 502.936,743.058 494.5,744C 493.5,745 492.5,746 491.5,747C 486.136,747.171 480.802,747.671 475.5,748.5C 475.291,749.086 474.957,749.586 474.5,750C 466.833,750.333 459.167,750.667 451.5,751C 450.833,752.333 449.833,753.333 448.5,754C 423.5,754.667 398.5,754.667 373.5,754C 372.5,753 371.5,752 370.5,751C 361.482,750.832 352.482,750.332 343.5,749.5C 343.291,748.914 342.957,748.414 342.5,748C 337.136,747.829 331.802,747.329 326.5,746.5C 326.023,745.522 325.357,744.689 324.5,744C 319.167,743.667 313.833,743.333 308.5,743C 308.043,742.586 307.709,742.086 307.5,741.5C 303.541,740.673 299.541,740.173 295.5,740C 294.167,739.333 293.167,738.333 292.5,737C 289.5,736.667 286.5,736.333 283.5,736C 282.833,735.333 282.167,734.667 281.5,734C 277.833,733.667 274.167,733.333 270.5,733C 267.553,729.986 263.887,728.652 259.5,729C 257.588,726.212 254.921,724.879 251.5,725C 250.833,724.333 250.167,723.667 249.5,723C 245.113,723.348 241.447,722.014 238.5,719C 236.833,718.667 235.167,718.333 233.5,718C 230.314,716.348 227.314,714.348 224.5,712C 217.169,710.647 211.169,706.98 206.5,701C 197.656,699.166 190.656,694.499 185.5,687C 183.833,686.667 182.167,686.333 180.5,686C 168.973,674.473 157.473,662.973 146,651.5C 144.323,649.475 143.323,647.141 143,644.5C 138.967,641.823 136.634,638.156 136,633.5C 131.92,631.32 129.587,627.987 129,623.5C 122.944,618.539 119.277,612.205 118,604.5C 116.667,603.833 115.667,602.833 115,601.5C 114.57,596.428 113.237,591.762 111,587.5C 110,586.5 109,585.5 108,584.5C 106.287,578.281 104.954,571.948 104,565.5C 103,564.833 102,564.167 101,563.5C 100.667,558.167 100.333,552.833 100,547.5C 98.6667,546.833 97.6667,545.833 97,544.5C 96.6667,533.833 96.3333,523.167 96,512.5C 95.5814,511.328 94.9147,510.328 94,509.5C 93.6667,487.5 93.3333,465.5 93,443.5C 92.8871,441.026 91.8871,439.026 90,437.5C 89.6667,434.833 89.3333,432.167 89,429.5C 88.3333,428.833 87.6667,428.167 87,427.5C 84.7077,419.664 82.7077,411.664 81,403.5C 76.2383,400.483 74.2383,396.149 75,390.5C 72.2119,388.588 70.8786,385.921 71,382.5C 69.4279,379.237 67.4279,376.237 65,373.5C 63.4933,369.596 61.9933,365.596 60.5,361.5C 59.5224,361.023 58.6891,360.357 58,359.5C 57.1449,353.016 55.8116,346.683 54,340.5C 51.1044,337.546 49.771,333.879 50,329.5C 49.3333,328.833 48.6667,328.167 48,327.5C 47.6667,323.5 47.3333,319.5 47,315.5C 46,314.833 45,314.167 44,313.5C 43.3333,292.833 43.3333,272.167 44,251.5C 44.6667,250.167 45.6667,249.167 47,248.5C 47.3333,244.5 47.6667,240.5 48,236.5C 48.6667,235.833 49.3333,235.167 50,234.5C 49.6524,230.113 50.9858,226.447 54,223.5C 55.3333,219.5 56.6667,215.5 58,211.5C 59,210.833 60,210.167 61,209.5C 62.4622,202.531 65.7955,196.531 71,191.5C 71.7876,188.037 73.4543,185.037 76,182.5C 87.5057,171.959 98.6724,161.126 109.5,150C 113.955,148.563 117.622,145.896 120.5,142C 124.166,140.667 127.833,139.334 131.5,138C 133.412,135.212 136.079,133.879 139.5,134C 144.607,130.551 149.94,127.551 155.5,125C 159.887,125.348 163.553,124.014 166.5,121C 170.5,120.667 174.5,120.333 178.5,120C 179.167,118.667 180.167,117.667 181.5,117C 186.5,116.667 191.5,116.333 196.5,116C 197.167,115.333 197.833,114.667 198.5,114C 222.5,113.333 246.5,113.333 270.5,114C 271.167,114.667 271.833,115.333 272.5,116C 278.833,116.333 285.167,116.667 291.5,117C 292.5,118 293.5,119 294.5,120C 299.5,120.333 304.5,120.667 309.5,121C 310.5,122 311.5,123 312.5,124C 316.293,123.908 319.627,124.908 322.5,127C 327.833,127.333 333.167,127.667 338.5,128C 339.357,128.689 340.023,129.522 340.5,130.5C 345.802,131.329 351.136,131.829 356.5,132C 357.167,132.667 357.833,133.333 358.5,134C 382.833,134.667 407.167,134.667 431.5,134C 432.167,133.333 432.833,132.667 433.5,132C 441.188,131.831 448.855,131.331 456.5,130.5C 456.977,129.522 457.643,128.689 458.5,128C 462.5,127.667 466.5,127.333 470.5,127C 471.167,126.333 471.833,125.667 472.5,125C 476.879,125.229 480.546,123.896 483.5,121C 486.553,120.821 489.553,120.321 492.5,119.5C 495.387,117.522 498.387,115.688 501.5,114C 505.887,114.348 509.553,113.014 512.5,110C 518.73,108.313 525.063,106.813 531.5,105.5C 531.977,104.522 532.643,103.689 533.5,103C 538.833,102.667 544.167,102.333 549.5,102C 550.252,101.329 550.586,100.496 550.5,99.5 Z"/></g>
<g><path style="opacity:1" fill="#12302c" d="M 575.5,113.5 C 580.844,113.334 586.177,113.501 591.5,114C 604.571,116.006 617.571,118.339 630.5,121C 634.842,123.121 639.175,125.121 643.5,127C 646.167,127.333 648.833,127.667 651.5,128C 654.833,130.333 658.167,132.667 661.5,135C 666.195,135.692 669.862,138.025 672.5,142C 674.167,142.333 675.833,142.667 677.5,143C 689.236,154.947 701.07,166.781 713,178.5C 713.681,183.188 716.015,186.855 720,189.5C 725.045,199.955 729.711,210.622 734,221.5C 738.533,237.8 741.367,254.467 742.5,271.5C 741.259,284.166 739.759,296.833 738,309.5C 737.333,310.167 736.667,310.833 736,311.5C 734.409,317.717 733.076,324.05 732,330.5C 726.646,339.556 722.646,349.222 720,359.5C 717.997,362.86 715.997,366.193 714,369.5C 711.903,377.923 708.903,385.923 705,393.5C 700.287,408.11 697.62,423.11 697,438.5C 696.504,461.172 695.837,483.838 695,506.5C 691.968,532.291 685.968,557.291 677,581.5C 673.061,591.078 668.728,600.412 664,609.5C 661.153,613.066 658.486,616.732 656,620.5C 654.834,625.499 652.167,629.499 648,632.5C 646.667,635.167 645.333,637.833 644,640.5C 636.096,647.734 628.929,655.567 622.5,664C 615.237,669.26 608.57,675.26 602.5,682C 596.742,683.752 592.075,687.085 588.5,692C 587.167,692.333 585.833,692.667 584.5,693C 580.167,696 575.833,699 571.5,702C 503.003,736.545 430.67,747.545 354.5,735C 333.402,731.077 312.402,726.743 291.5,722C 290.833,721.333 290.167,720.667 289.5,720C 277.99,717.289 266.656,713.956 255.5,710C 241.493,703.322 227.493,696.655 213.5,690C 205.948,685.125 198.948,679.459 192.5,673C 191.167,672.667 189.833,672.333 188.5,672C 178.667,662.167 168.833,652.333 159,642.5C 156.915,636.404 153.248,631.404 148,627.5C 147.249,623.734 145.249,620.734 142,618.5C 135.49,606.003 129.157,593.336 123,580.5C 112.379,545.401 108.046,509.401 110,472.5C 108.301,460.944 107.301,449.278 107,437.5C 104.678,428.529 102.345,419.529 100,410.5C 96.7508,403.757 94.0841,396.757 92,389.5C 89.4442,383.937 86.4442,378.604 83,373.5C 77.9892,363.973 73.9892,353.973 71,343.5C 70.3333,342.833 69.6667,342.167 69,341.5C 64.3346,327.154 60.668,312.487 58,297.5C 55.3747,265.258 62.3747,235.591 79,208.5C 80.0952,204.388 82.4285,201.055 86,198.5C 86.9734,196.608 87.6401,194.608 88,192.5C 96.1667,184.333 104.333,176.167 112.5,168C 114.167,167.667 115.833,167.333 117.5,167C 120.5,164 123.5,161 126.5,158C 140.038,152.136 153.372,145.803 166.5,139C 175.776,136.737 185.109,134.404 194.5,132C 207.909,130.779 221.242,129.279 234.5,127.5C 242.829,128.074 251.162,128.574 259.5,129C 268.051,130.857 276.718,132.19 285.5,133C 306.948,139.112 328.614,144.445 350.5,149C 361.771,149.63 372.938,150.797 384,152.5C 415.873,151.743 447.373,147.909 478.5,141C 481.044,138.907 484.044,137.907 487.5,138C 495.124,135.012 502.791,132.345 510.5,130C 511.167,129.333 511.833,128.667 512.5,128C 515.167,127.667 517.833,127.333 520.5,127C 521.167,126.333 521.833,125.667 522.5,125C 526.931,124.856 530.931,123.523 534.5,121C 545.341,118.481 556.341,116.814 567.5,116C 570.166,114.939 572.833,114.106 575.5,113.5 Z"/></g>
<g><path style="opacity:1" fill="#15332e" d="M 576.5,119.5 C 593.117,119.256 609.451,121.09 625.5,125C 635.414,128.22 645.081,131.886 654.5,136C 656.455,136.953 658.122,138.287 659.5,140C 664.538,141.026 668.538,143.693 671.5,148C 672.833,148.333 674.167,148.667 675.5,149C 686.667,160.167 697.833,171.333 709,182.5C 711.772,186.941 714.106,191.608 716,196.5C 717.333,197.833 718.667,199.167 720,200.5C 724.233,211.322 728.233,222.322 732,233.5C 731.905,239.125 732.905,244.459 735,249.5C 735.667,265.167 735.667,280.833 735,296.5C 731.519,310.144 727.852,323.811 724,337.5C 716.668,351.178 710.668,365.511 706,380.5C 705.385,382.116 704.385,383.449 703,384.5C 696.831,402.685 693.165,421.352 692,440.5C 695.157,488.359 688.824,534.693 673,579.5C 666.021,593.459 659.021,607.459 652,621.5C 648.341,624.812 645.674,628.812 644,633.5C 634.259,644.914 624.093,656.081 613.5,667C 606.96,670.533 601.294,675.2 596.5,681C 590.187,684.634 583.853,688.301 577.5,692C 576.167,693.333 574.833,694.667 573.5,696C 511.803,727.529 446.47,739.862 377.5,733C 338.769,727.91 300.769,719.577 263.5,708C 247.64,701.115 231.973,693.782 216.5,686C 213.945,682.428 210.612,680.095 206.5,679C 203.038,674.767 198.705,671.767 193.5,670C 183.333,659.833 173.167,649.667 163,639.5C 160.908,633.399 157.241,628.399 152,624.5C 147.737,618.302 143.737,611.969 140,605.5C 134.09,592.673 128.424,579.673 123,566.5C 120.481,554.863 118.147,543.196 116,531.5C 114.163,501.216 112.83,470.883 112,440.5C 110.059,432.262 108.392,423.928 107,415.5C 98.0456,392.652 88.0456,370.318 77,348.5C 73.9964,339.489 70.9964,330.489 68,321.5C 65.545,311.897 63.8783,302.23 63,292.5C 62.3333,285.5 62.3333,278.5 63,271.5C 64.264,263.97 65.264,256.303 66,248.5C 72.7178,228.241 82.3845,209.574 95,192.5C 101.5,187.333 107.333,181.5 112.5,175C 118.033,172.066 123.033,168.4 127.5,164C 137.969,157.841 148.636,152.175 159.5,147C 191.456,135.701 224.456,131.701 258.5,135C 285.458,137.655 311.791,143.322 337.5,152C 364.321,156.557 391.321,157.557 418.5,155C 428.689,153.652 439.022,152.652 449.5,152C 475.727,146.37 501.394,138.703 526.5,129C 543.078,124.85 559.745,121.683 576.5,119.5 Z"/></g>
<g><path style="opacity:1" fill="#193732" d="M 575.5,131.5 C 621.269,129.988 659.769,145.654 691,178.5C 692.333,181.167 693.667,183.833 695,186.5C 697.643,187.976 699.81,189.976 701.5,192.5C 702.316,196.135 704.15,199.135 707,201.5C 708.801,206.435 711.134,211.102 714,215.5C 725.724,247.483 727.724,280.15 720,313.5C 716.282,323.319 712.949,333.319 710,343.5C 702.141,360.875 695.141,378.542 689,396.5C 686.086,408.67 684.086,421.004 683,433.5C 686.01,480.068 680.676,525.401 667,569.5C 661.525,579.105 657.192,589.105 654,599.5C 645.392,613.106 636.392,626.44 627,639.5C 616.732,650.557 605.899,661.057 594.5,671C 572.695,685.906 549.362,698.239 524.5,708C 467.548,725.848 409.548,729.515 350.5,719C 316.605,713.065 283.605,704.065 251.5,692C 221.673,678.803 195.839,660.303 174,636.5C 168.722,628.222 163.055,620.222 157,612.5C 155.326,607.812 152.659,603.812 149,600.5C 143.098,589.545 138.098,578.211 134,566.5C 130.677,553.559 127.677,540.559 125,527.5C 123.126,500.548 122.126,473.548 122,446.5C 121.761,438.366 120.761,430.366 119,422.5C 115.25,413.098 112.25,403.432 110,393.5C 101.61,376.325 93.6105,358.991 86,341.5C 81.5597,328.741 77.893,315.741 75,302.5C 69.3281,263.015 79.3281,228.349 105,198.5C 135.48,167.098 172.646,149.265 216.5,145C 239.421,143.367 262.088,144.7 284.5,149C 307.725,155.046 331.059,160.712 354.5,166C 392.235,167.799 429.568,165.466 466.5,159C 490.034,152.628 513.367,145.628 536.5,138C 549.624,135.486 562.624,133.32 575.5,131.5 Z"/></g>
<g><path style="opacity:1" fill="#1d3a35" d="M 579.5,137.5 C 611.6,137.369 640.6,146.536 666.5,165C 674.667,173.167 682.833,181.333 691,189.5C 712.598,219.543 721.598,253.21 718,290.5C 713.431,316.684 705.431,341.684 694,365.5C 689.141,378.894 685.141,392.56 682,406.5C 680.159,417.752 678.826,429.086 678,440.5C 680.29,481.007 675.956,520.674 665,559.5C 660.667,570.5 656.333,581.5 652,592.5C 650.667,593.833 649.333,595.167 648,596.5C 636.94,619.923 621.774,640.423 602.5,658C 572.008,682.796 537.675,700.13 499.5,710C 482.045,713.965 464.378,716.965 446.5,719C 427.833,719.667 409.167,719.667 390.5,719C 350.503,713.867 311.169,705.534 272.5,694C 262.544,690.027 252.544,686.027 242.5,682C 189.016,654.271 153.516,611.437 136,553.5C 134.103,544.442 132.103,535.442 130,526.5C 128.951,500.844 128.284,475.178 128,449.5C 127.021,440.421 125.688,431.421 124,422.5C 120.205,407.829 115.539,393.496 110,379.5C 101.901,363.879 94.5679,347.879 88,331.5C 85.3723,321.909 83.039,312.242 81,302.5C 74.961,260.959 86.461,225.459 115.5,196C 123.496,189.014 131.829,182.347 140.5,176C 191.059,149.175 244.059,143.175 299.5,158C 313.192,162.324 326.859,166.324 340.5,170C 351.475,171.042 362.475,171.709 373.5,172C 375.833,174 378.167,174 380.5,172C 402.257,171.81 423.923,170.477 445.5,168C 477.258,162.043 508.591,154.043 539.5,144C 552.76,140.726 566.094,138.56 579.5,137.5 Z"/></g>
<g><path style="opacity:1" fill="#233f3b" d="M 568.5,149.5 C 612.907,145.861 650.073,160.194 680,192.5C 681.026,197.538 683.693,201.538 688,204.5C 708.06,237.611 713.393,273.277 704,311.5C 700.095,325.698 695.761,339.698 691,353.5C 679.22,380.533 672.553,408.867 671,438.5C 672.361,473.558 669.361,508.224 662,542.5C 636.758,631.734 578.591,685.9 487.5,705C 454.434,711.866 421.101,713.533 387.5,710C 375.694,707.538 363.694,705.871 351.5,705C 325.082,698.969 298.749,692.302 272.5,685C 256.483,678.492 240.816,671.159 225.5,663C 157.684,612.951 128.184,545.784 137,461.5C 136.182,449.4 134.849,437.4 133,425.5C 130.131,411.119 126.131,397.119 121,383.5C 115.257,371.62 109.923,359.62 105,347.5C 99.7595,334.784 95.0928,321.784 91,308.5C 90.4037,300.679 89.4037,293.012 88,285.5C 88.6902,275.214 89.6902,264.88 91,254.5C 95.1383,243.215 100.138,232.215 106,221.5C 117.971,207.19 131.471,194.69 146.5,184C 205.312,153.972 265.312,151.639 326.5,177C 336.633,178.078 346.633,179.745 356.5,182C 404.816,181.519 452.483,176.186 499.5,166C 522.406,159.158 545.406,153.658 568.5,149.5 Z"/></g>
<g><path style="opacity:1" fill="#f8f9f8" d="M 682.5,231.5 C 693.998,264.061 691.332,295.395 674.5,325.5C 669.421,332.641 664.087,339.641 658.5,346.5C 647.61,356.193 635.276,363.693 621.5,369C 620.941,369.725 620.608,370.558 620.5,371.5C 627.865,418.548 631.032,465.881 630,513.5C 620.542,581.621 584.042,628.788 520.5,655C 496.979,663.711 472.979,670.211 448.5,674.5C 408.817,679.946 369.484,678.112 330.5,669C 287.275,661.379 248.609,644.046 214.5,617C 191.657,596.152 178.157,570.318 174,539.5C 173.266,515.307 173.766,491.14 175.5,467C 174.966,451.994 174.3,436.994 173.5,422C 173.327,408.718 174.994,395.718 178.5,383C 158.328,373.659 141.995,359.826 129.5,341.5C 111.131,310.045 108.631,277.379 122,243.5C 146.094,198.536 183.594,179.702 234.5,187C 243.664,188.832 252.497,191.666 261,195.5C 265.774,191.363 271.274,188.696 277.5,187.5C 283.314,187.905 288.647,189.739 293.5,193C 302.833,199 312.167,205 321.5,211C 327.202,213.707 333.202,215.207 339.5,215.5C 340.263,216.268 341.263,216.768 342.5,217C 357.524,217.356 372.524,216.856 387.5,215.5C 400.161,214.985 412.827,214.652 425.5,214.5C 447.337,214.762 468.67,218.095 489.5,224.5C 497.639,211.02 507.639,199.02 519.5,188.5C 532.914,178.792 547.581,171.792 563.5,167.5C 604.984,161.711 639.484,174.378 667,205.5C 672.961,213.767 678.128,222.433 682.5,231.5 Z"/></g>
<g><path style="opacity:1" fill="#284440" d="M 563.5,167.5 C 547.581,171.792 532.914,178.792 519.5,188.5C 513.618,188.768 507.785,188.434 502,187.5C 493.586,189.051 485.086,189.885 476.5,190C 457.977,193.578 439.31,196.578 420.5,199C 418.167,200 415.833,201 413.5,202C 404.529,202.657 395.863,204.324 387.5,207C 386.833,207.667 386.167,208.333 385.5,209C 381.113,208.652 377.447,209.986 374.5,213C 363.041,215.228 351.374,216.062 339.5,215.5C 333.202,215.207 327.202,213.707 321.5,211C 312.167,205 302.833,199 293.5,193C 288.647,189.739 283.314,187.905 277.5,187.5C 271.274,188.696 265.774,191.363 261,195.5C 252.497,191.666 243.664,188.832 234.5,187C 183.594,179.702 146.094,198.536 122,243.5C 108.631,277.379 111.131,310.045 129.5,341.5C 135.099,356.803 139.599,372.469 143,388.5C 144,390.5 145,392.5 146,394.5C 148.73,407.605 151.73,420.605 155,433.5C 156.206,460.481 156.872,487.481 157,514.5C 159.603,532.505 164.603,549.838 172,566.5C 179.656,578.827 187.323,591.16 195,603.5C 208.93,618.434 223.763,632.268 239.5,645C 247.737,648.452 255.737,652.452 263.5,657C 266.167,657.333 268.833,657.667 271.5,658C 273.618,658.26 275.284,659.26 276.5,661C 279.833,661.333 283.167,661.667 286.5,662C 288.618,662.26 290.284,663.26 291.5,665C 301.33,666.981 311.33,668.481 321.5,669.5C 321.977,670.478 322.643,671.311 323.5,672C 327.5,672.333 331.5,672.667 335.5,673C 336.167,673.667 336.833,674.333 337.5,675C 340.167,675.333 342.833,675.667 345.5,676C 417.562,701.799 487.895,697.466 556.5,663C 563.328,658.085 570.328,653.419 577.5,649C 584.283,643.518 590.783,637.685 597,631.5C 624.383,598.065 642.049,560.065 650,517.5C 653.326,489.618 654.993,461.618 655,433.5C 656.196,421.462 657.863,409.462 660,397.5C 664.979,378.671 669.645,359.671 674,340.5C 674.499,335.511 674.666,330.511 674.5,325.5C 691.332,295.395 693.998,264.061 682.5,231.5C 683.496,231.414 684.329,231.748 685,232.5C 684.879,235.921 686.212,238.588 689,240.5C 688.952,244.521 689.952,248.187 692,251.5C 695.034,277.127 693.7,302.461 688,327.5C 682.338,346.733 676.672,366.066 671,385.5C 667.257,398.553 664.923,411.887 664,425.5C 663,444.488 662.334,463.488 662,482.5C 660.074,538.971 641.408,588.971 606,632.5C 584.107,656.394 557.94,673.894 527.5,685C 485.364,699.415 442.03,704.749 397.5,701C 386.02,698.611 374.354,696.944 362.5,696C 347.206,690.86 331.539,687.193 315.5,685C 304.339,681.424 293.006,678.424 281.5,676C 267.732,670.95 254.065,665.617 240.5,660C 239.167,658.667 237.833,657.333 236.5,656C 230.641,652.879 224.975,649.545 219.5,646C 208.303,635.137 197.47,623.971 187,612.5C 179.249,601.085 171.916,589.418 165,577.5C 160.428,567.694 156.428,557.694 153,547.5C 151.016,540.231 149.349,532.898 148,525.5C 146.788,499.52 146.121,473.52 146,447.5C 142.976,429.353 139.309,411.353 135,393.5C 125.994,367.146 115.994,341.146 105,315.5C 92.4105,275.952 100.577,241.452 129.5,212C 137.026,206.409 144.693,201.075 152.5,196C 161.474,191.713 170.474,187.38 179.5,183C 195.481,179.241 211.481,175.574 227.5,172C 250.765,169.601 273.431,171.934 295.5,179C 317.096,188.221 339.429,193.721 362.5,195.5C 393.798,191.855 425.132,188.022 456.5,184C 486.184,178.57 515.85,173.237 545.5,168C 551.491,167.501 557.491,167.334 563.5,167.5 Z"/></g>
<g><path style="opacity:1" fill="#0d2c27" d="M 573.5,174.5 C 618.916,171.783 652.083,190.449 673,230.5C 689.078,273.92 680.245,311.42 646.5,343C 643.167,345.333 639.833,347.667 636.5,350C 627.349,354.911 618.016,359.245 608.5,363C 612.368,392.115 615.868,421.282 619,450.5C 620.738,478.391 619.071,506.058 614,533.5C 605.865,575 584.032,606.833 548.5,629C 503.781,654.388 455.615,666.555 404,665.5C 348.393,665.14 295.893,652.306 246.5,627C 236.893,621.058 227.56,614.725 218.5,608C 201.843,591.862 191.009,572.362 186,549.5C 185.415,544.489 184.749,539.489 184,534.5C 185.477,492.183 185.811,449.85 185,407.5C 186.705,396.035 188.705,384.701 191,373.5C 147.739,359.72 124.906,330.053 122.5,284.5C 125.15,245.686 144.15,218.186 179.5,202C 208.998,192.069 236.998,195.236 263.5,211.5C 265.89,207.726 268.057,203.726 270,199.5C 276.24,192.041 283.073,191.541 290.5,198C 302.556,211.863 317.556,220.863 335.5,225C 365.822,224.001 396.155,223.334 426.5,223C 450.504,224.278 473.504,229.778 495.5,239.5C 509.841,203.685 535.841,182.019 573.5,174.5 Z"/></g>
<g><path style="opacity:1" fill="#54897e" d="M 619.5,350.5 C 618.668,349.671 619.001,348.838 620.5,348C 659.686,324.789 675.519,290.622 668,245.5C 657.41,213.579 635.576,194.412 602.5,188C 574.112,184.272 548.779,191.272 526.5,209C 521.965,213.703 517.298,218.203 512.5,222.5C 523.993,203.859 540.327,191.359 561.5,185C 609.132,175.235 644.299,191.735 667,234.5C 681.283,274.645 672.783,309.145 641.5,338C 634.595,342.952 627.261,347.118 619.5,350.5 Z"/></g>
<g><path style="opacity:1" fill="#314e49" d="M 619.5,350.5 C 613.751,353.105 607.751,354.438 601.5,354.5C 600.795,357.089 600.795,359.756 601.5,362.5C 601.167,362.5 600.833,362.5 600.5,362.5C 600.5,361.5 600.5,360.5 600.5,359.5C 593.798,359.664 587.131,359.331 580.5,358.5C 580.167,358.5 579.833,358.5 579.5,358.5C 537.852,340.35 511.019,309.35 499,265.5C 497.948,258.872 497.448,252.206 497.5,245.5C 500.001,246.946 502.667,247.446 505.5,247C 504.506,245.671 503.506,244.338 502.5,243C 504.672,235.492 508.005,228.659 512.5,222.5C 517.298,218.203 521.965,213.703 526.5,209C 548.779,191.272 574.112,184.272 602.5,188C 635.576,194.412 657.41,213.579 668,245.5C 675.519,290.622 659.686,324.789 620.5,348C 619.001,348.838 618.668,349.671 619.5,350.5 Z"/></g>
<g><path style="opacity:1" fill="#314b47" d="M 519.5,188.5 C 507.639,199.02 497.639,211.02 489.5,224.5C 468.67,218.095 447.337,214.762 425.5,214.5C 412.802,213.181 400.136,213.514 387.5,215.5C 372.524,216.856 357.524,217.356 342.5,217C 341.263,216.768 340.263,216.268 339.5,215.5C 351.374,216.062 363.041,215.228 374.5,213C 377.447,209.986 381.113,208.652 385.5,209C 386.167,208.333 386.833,207.667 387.5,207C 395.863,204.324 404.529,202.657 413.5,202C 415.833,201 418.167,200 420.5,199C 439.31,196.578 457.977,193.578 476.5,190C 485.086,189.885 493.586,189.051 502,187.5C 507.785,188.434 513.618,188.768 519.5,188.5 Z"/></g>
<g><path style="opacity:1" fill="#fdfefd" d="M 497.5,245.5 C 497.448,252.206 497.948,258.872 499,265.5C 511.019,309.35 537.852,340.35 579.5,358.5C 579.34,360.199 579.506,361.866 580,363.5C 602.953,415.217 606.62,468.217 591,522.5C 574.131,569.702 542.965,603.869 497.5,625C 456.082,643.235 412.749,650.569 367.5,647C 339.06,644.636 311.394,638.969 284.5,630C 281.518,629.502 278.518,629.335 275.5,629.5C 251.678,620.849 231.178,607.182 214,588.5C 201.986,571.461 195.319,552.461 194,531.5C 193.888,494.148 193.055,456.815 191.5,419.5C 191.89,392.833 199.057,368.166 213,345.5C 223.777,328.216 236.61,312.549 251.5,298.5C 252.198,296.333 253.531,294.5 255.5,293C 258.833,290.333 262.167,287.667 265.5,285C 259.762,285.883 253.928,286.383 248,286.5C 243.32,286.688 238.82,286.022 234.5,284.5C 229.852,277.909 228.019,270.576 229,262.5C 229.414,262.043 229.914,261.709 230.5,261.5C 238.744,267.288 247.744,271.455 257.5,274C 263.5,274.667 269.5,274.667 275.5,274C 280.243,273.365 284.576,271.865 288.5,269.5C 289.434,268.432 289.768,267.099 289.5,265.5C 306.72,261.364 323.387,255.698 339.5,248.5C 329.772,248.006 320.106,248.839 310.5,251C 293.97,254.819 282.47,248.986 276,233.5C 274.736,231.393 272.903,230.393 270.5,230.5C 270.5,226.5 270.5,222.5 270.5,218.5C 271.193,213.107 273.027,208.107 276,203.5C 278.933,199.684 282.099,199.517 285.5,203C 298.618,218.06 314.951,227.727 334.5,232C 368.478,230.84 402.478,230.506 436.5,231C 442.216,231.282 447.883,231.948 453.5,233C 468.045,237.683 482.712,241.85 497.5,245.5 Z"/></g>
<g><path style="opacity:1" fill="#53897d" d="M 236.5,206.5 C 196.93,202.077 166.097,216.411 144,249.5C 125.938,287.352 131.771,321.019 161.5,350.5C 145.882,338.666 136.049,322.999 132,303.5C 125.624,264.937 138.791,235.103 171.5,214C 192.162,202.973 213.829,200.473 236.5,206.5 Z"/></g>
<g><path style="opacity:1" fill="#304d48" d="M 236.5,206.5 C 245.613,209.64 254.113,213.973 262,219.5C 261.427,236.776 266.26,252.276 276.5,266C 272.594,267.434 268.594,267.767 264.5,267C 251.009,244.757 231.342,235.757 205.5,240C 175.716,250.403 162.883,271.236 167,302.5C 172.943,322.943 186.109,336.276 206.5,342.5C 201.737,350.024 198.07,358.024 195.5,366.5C 182.569,364.366 171.236,359.032 161.5,350.5C 131.771,321.019 125.938,287.352 144,249.5C 166.097,216.411 196.93,202.077 236.5,206.5 Z"/></g>
<g><path style="opacity:1" fill="#bfc8c6" d="M 425.5,214.5 C 412.827,214.652 400.161,214.985 387.5,215.5C 400.136,213.514 412.802,213.181 425.5,214.5 Z"/></g>
<g><path style="opacity:1" fill="#0a2b25" d="M 584.5,214.5 C 621.836,214.014 642.836,232.18 647.5,269C 645.005,298.494 629.338,316.494 600.5,323C 569.859,325.099 549.692,311.599 540,282.5C 535.411,246.952 550.245,224.286 584.5,214.5 Z"/></g>
<g><path style="opacity:1" fill="#95fae2" d="M 581.5,222.5 C 608.393,219.354 627.226,230.02 638,254.5C 644.071,282.861 633.905,302.694 607.5,314C 578.9,320.618 559.067,310.451 548,283.5C 541.927,253.643 553.093,233.31 581.5,222.5 Z"/></g>
<g><path style="opacity:1" fill="#d5faf1" d="M 270.5,218.5 C 270.5,222.5 270.5,226.5 270.5,230.5C 272.903,230.393 274.736,231.393 276,233.5C 282.47,248.986 293.97,254.819 310.5,251C 320.106,248.839 329.772,248.006 339.5,248.5C 323.387,255.698 306.72,261.364 289.5,265.5C 289.768,267.099 289.434,268.432 288.5,269.5C 288.657,268.127 288.49,266.793 288,265.5C 282.29,261.784 277.957,256.784 275,250.5C 270.214,240.103 268.714,229.436 270.5,218.5 Z"/></g>
<g><path style="opacity:1" fill="#94f9e1" d="M 211.5,245.5 C 229.151,244.496 243.485,250.829 254.5,264.5C 253.635,265.583 252.635,265.749 251.5,265C 245.293,261.397 238.96,258.064 232.5,255C 224.571,254.764 220.904,258.764 221.5,267C 221.825,273.133 223.325,278.967 226,284.5C 229.467,290.607 233.3,296.44 237.5,302C 228.201,311.631 220.034,322.131 213,333.5C 212.261,334.574 211.261,335.241 210,335.5C 181.915,327.356 169.915,308.69 174,279.5C 180.397,261.262 192.897,249.929 211.5,245.5 Z"/></g>
<g><path style="opacity:1" fill="#d3f8ef" d="M 234.5,284.5 C 238.82,286.022 243.32,286.688 248,286.5C 253.928,286.383 259.762,285.883 265.5,285C 262.167,287.667 258.833,290.333 255.5,293C 253.531,294.5 252.198,296.333 251.5,298.5C 251.99,296.052 251.157,294.385 249,293.5C 246.501,294.083 244.501,295.416 243,297.5C 239.944,293.284 237.111,288.951 234.5,284.5 Z"/></g>
<g><path style="opacity:1" fill="#304a46" d="M 674.5,325.5 C 674.666,330.511 674.499,335.511 674,340.5C 669.645,359.671 664.979,378.671 660,397.5C 657.863,409.462 656.196,421.462 655,433.5C 654.993,461.618 653.326,489.618 650,517.5C 642.049,560.065 624.383,598.065 597,631.5C 590.783,637.685 584.283,643.518 577.5,649C 570.328,653.419 563.328,658.085 556.5,663C 487.895,697.466 417.562,701.799 345.5,676C 342.833,675.667 340.167,675.333 337.5,675C 336.833,674.333 336.167,673.667 335.5,673C 331.5,672.667 327.5,672.333 323.5,672C 322.643,671.311 321.977,670.478 321.5,669.5C 311.33,668.481 301.33,666.981 291.5,665C 290.284,663.26 288.618,662.26 286.5,662C 283.167,661.667 279.833,661.333 276.5,661C 275.284,659.26 273.618,658.26 271.5,658C 268.833,657.667 266.167,657.333 263.5,657C 255.737,652.452 247.737,648.452 239.5,645C 223.763,632.268 208.93,618.434 195,603.5C 187.323,591.16 179.656,578.827 172,566.5C 164.603,549.838 159.603,532.505 157,514.5C 156.872,487.481 156.206,460.481 155,433.5C 151.73,420.605 148.73,407.605 146,394.5C 145,392.5 144,390.5 143,388.5C 139.599,372.469 135.099,356.803 129.5,341.5C 141.995,359.826 158.328,373.659 178.5,383C 174.994,395.718 173.327,408.718 173.5,422C 174.3,436.994 174.966,451.994 175.5,467C 173.766,491.14 173.266,515.307 174,539.5C 178.157,570.318 191.657,596.152 214.5,617C 248.609,644.046 287.275,661.379 330.5,669C 369.484,678.112 408.817,679.946 448.5,674.5C 470.443,674.027 492.11,671.527 513.5,667C 521.954,664.27 530.288,661.27 538.5,658C 556.926,648.592 573.426,636.426 588,621.5C 590.782,617.57 593.782,613.904 597,610.5C 618.276,576.287 631.943,539.287 638,499.5C 639.452,471.467 641.452,443.467 644,415.5C 649.505,394.135 653.172,372.468 655,350.5C 656.376,349.295 657.542,347.962 658.5,346.5C 664.087,339.641 669.421,332.641 674.5,325.5 Z"/></g>
<g><path style="opacity:1" fill="#314e49" d="M 486.5,327.5 C 510.972,326.818 531.138,335.818 547,354.5C 570.594,385.956 581.761,421.456 580.5,461C 581.524,491.686 574.691,520.52 560,547.5C 549.37,567.132 533.537,580.632 512.5,588C 487.915,592.583 467.082,585.749 450,567.5C 445.76,562.683 441.76,557.683 438,552.5C 428.813,535.309 417.313,519.809 403.5,506C 374.689,486.237 349.189,489.737 327,516.5C 319.573,530.848 310.073,543.681 298.5,555C 272.323,571.715 248.823,568.548 228,545.5C 209.145,519.271 201.145,489.938 204,457.5C 205.809,429.705 216.309,405.872 235.5,386C 263.018,366.714 287.851,369.88 310,395.5C 318.121,408.621 328.621,419.455 341.5,428C 372.039,441.499 396.206,433.999 414,405.5C 423.058,387.045 433.392,369.378 445,352.5C 456.382,339.901 470.215,331.568 486.5,327.5 Z"/></g>
<g><path style="opacity:1" fill="#3a534f" d="M 658.5,346.5 C 657.542,347.962 656.376,349.295 655,350.5C 653.172,372.468 649.505,394.135 644,415.5C 641.452,443.467 639.452,471.467 638,499.5C 631.943,539.287 618.276,576.287 597,610.5C 593.782,613.904 590.782,617.57 588,621.5C 573.426,636.426 556.926,648.592 538.5,658C 530.288,661.27 521.954,664.27 513.5,667C 492.11,671.527 470.443,674.027 448.5,674.5C 472.979,670.211 496.979,663.711 520.5,655C 584.042,628.788 620.542,581.621 630,513.5C 631.032,465.881 627.865,418.548 620.5,371.5C 620.608,370.558 620.941,369.725 621.5,369C 635.276,363.693 647.61,356.193 658.5,346.5 Z"/></g>
<g><path style="opacity:1" fill="#d5faf1" d="M 579.5,358.5 C 579.833,358.5 580.167,358.5 580.5,358.5C 586.744,361.322 593.411,362.656 600.5,362.5C 600.833,362.5 601.167,362.5 601.5,362.5C 604.664,389.812 607.83,417.145 611,444.5C 615.682,486.059 610.015,526.059 594,564.5C 582.355,591.64 563.521,612.14 537.5,626C 507.508,640.749 475.842,649.749 442.5,653C 384.717,658.9 329.05,651.066 275.5,629.5C 278.518,629.335 281.518,629.502 284.5,630C 311.394,638.969 339.06,644.636 367.5,647C 412.749,650.569 456.082,643.235 497.5,625C 542.965,603.869 574.131,569.702 591,522.5C 606.62,468.217 602.953,415.217 580,363.5C 579.506,361.866 579.34,360.199 579.5,358.5 Z"/></g>
<g><path style="opacity:1" fill="#5f9489" d="M 580.5,358.5 C 587.131,359.331 593.798,359.664 600.5,359.5C 600.5,360.5 600.5,361.5 600.5,362.5C 593.411,362.656 586.744,361.322 580.5,358.5 Z"/></g>
<g><path style="opacity:1" fill="#94f9e1" d="M 470.5,386.5 C 481.735,384.413 491.235,387.413 499,395.5C 500.493,402.034 498.327,406.867 492.5,410C 482.167,414.667 471.833,414.667 461.5,410C 453.175,402.793 453.508,396.127 462.5,390C 465.309,388.907 467.976,387.74 470.5,386.5 Z"/></g>
<g><path style="opacity:1" fill="#94f9e1" d="M 265.5,389.5 C 278.883,387.68 290.049,391.68 299,401.5C 300.942,407.89 299.109,412.723 293.5,416C 280.205,419.968 268.705,417.134 259,407.5C 254.665,399.168 256.832,393.168 265.5,389.5 Z"/></g>
<g><path style="opacity:1" fill="#010101" d="M 471.5,418.5 C 492.353,417.008 507.853,425.342 518,443.5C 529.587,466.672 529.254,489.672 517,512.5C 499.989,534.464 479.822,537.964 456.5,523C 438.874,505.451 432.04,484.285 436,459.5C 439.945,438.739 451.778,425.072 471.5,418.5 Z"/></g>
<g><path style="opacity:1" fill="#010101" d="M 265.5,421.5 C 284.916,419.017 299.749,426.017 310,442.5C 319.79,461.873 321.123,481.873 314,502.5C 304.884,524.802 288.384,534.969 264.5,533C 245.127,526.288 233.627,512.788 230,492.5C 224.891,467.922 231.391,447.088 249.5,430C 254.483,426.344 259.816,423.511 265.5,421.5 Z"/></g>
<g><path style="opacity:1" fill="#fafafa" d="M 486.5,445.5 C 503.157,446.669 510.657,455.669 509,472.5C 504.755,485.707 496.255,489.874 483.5,485C 473.82,475.536 471.987,464.703 478,452.5C 480.441,449.546 483.275,447.213 486.5,445.5 Z"/></g>
<g><path style="opacity:1" fill="#fbfbfb" d="M 282.5,448.5 C 300.37,448.547 308.204,457.547 306,475.5C 301.286,489.946 292.119,494.113 278.5,488C 270.578,479.922 268.411,470.422 272,459.5C 274.357,454.645 277.857,450.979 282.5,448.5 Z"/></g>
<g><path style="opacity:1" fill="#f1f1f1" d="M 259.5,490.5 C 267.505,492.154 269.671,496.821 266,504.5C 259.592,509.307 255.758,507.641 254.5,499.5C 254.904,495.771 256.571,492.771 259.5,490.5 Z"/></g>
<g><path style="opacity:1" fill="#f5f5f5" d="M 468.5,490.5 C 471.961,490.146 474.461,491.479 476,494.5C 477.193,499.152 476.36,503.319 473.5,507C 466.032,506.965 463.198,503.132 465,495.5C 465.997,493.677 467.164,492.01 468.5,490.5 Z"/></g>
<g><path style="opacity:1" fill="#092924" d="M 361.5,513.5 C 369.759,512.917 377.759,514.084 385.5,517C 391.97,521.126 394.137,526.959 392,534.5C 386.941,548.946 376.774,555.779 361.5,555C 350.216,548.742 344.383,539.242 344,526.5C 347.655,519.103 353.488,514.769 361.5,513.5 Z"/></g>
<g><path style="opacity:1" fill="#13302b" d="M 413.5,557.5 C 414.5,557.5 415.5,557.5 416.5,557.5C 416.612,574.596 408.112,583.596 391,584.5C 380.902,584.202 373.069,579.869 367.5,571.5C 358.567,582.405 347.233,585.905 333.5,582C 324.262,578.256 320.262,571.423 321.5,561.5C 322.833,561.5 324.167,561.5 325.5,561.5C 324.423,570.853 328.423,576.686 337.5,579C 352.428,580.965 362.595,575.132 368,561.5C 369.967,566.884 373.133,571.717 377.5,576C 391.059,583.581 402.226,581.081 411,568.5C 411.974,564.827 412.807,561.16 413.5,557.5 Z"/></g>
</svg>
