<svg width="370" height="370" viewBox="0 0 370 370" fill="none" xmlns="http://www.w3.org/2000/svg">
<g clip-path="url(#clip0_84_3)">
<path d="M185 370C287.173 370 370 287.173 370 185C370 82.8273 287.173 0 185 0C82.8273 0 0 82.8273 0 185C0 287.173 82.8273 370 185 370Z" fill="#00FFD1"/>
<path d="M185 293.448C244.894 293.448 293.448 244.894 293.448 185C293.448 125.106 244.894 76.5517 185 76.5517C125.106 76.5517 76.5518 125.106 76.5518 185C76.5518 244.894 125.106 293.448 185 293.448Z" fill="#082B30"/>
<path d="M183.5 330C262.753 330 327 265.753 327 186.5C327 107.247 262.753 43 183.5 43C104.247 43 40 107.247 40 186.5C40 265.753 104.247 330 183.5 330Z" fill="#082B30"/>
<g filter="url(#filter0_d_84_3)">
<path d="M185 0C174.117 0 163.471 0.993652 153.104 2.79668V32.2124C153.104 37.0556 157.39 40.8395 162.174 40.0814C169.613 38.902 177.234 38.2762 185 38.2762C192.766 38.2762 200.387 38.902 207.827 40.0814C212.611 40.8395 216.897 37.0564 216.897 32.2124V2.79668C206.529 0.993652 195.883 0 185 0Z" fill="#082B30"/>
</g>
<g filter="url(#filter1_d_84_3)">
<path d="M153.104 337.788V367.203C163.471 369.006 174.117 370 185 370C195.883 370 206.529 369.006 216.897 367.203V337.788C216.897 332.944 212.611 329.161 207.827 329.919C200.387 331.098 192.766 331.724 185 331.724C177.234 331.724 169.613 331.098 162.174 329.919C157.39 329.161 153.104 332.944 153.104 337.788Z" fill="#082B30"/>
</g>
<g filter="url(#filter2_d_84_3)">
<path d="M370 185C370 174.117 369.007 163.471 367.204 153.103H337.788C332.945 153.103 329.161 157.389 329.919 162.173C331.098 169.613 331.724 177.234 331.724 185C331.724 192.766 331.098 200.387 329.919 207.827C329.161 212.611 332.944 216.897 337.788 216.897H367.204C369.007 206.529 370 195.883 370 185Z" fill="#082B30"/>
</g>
<g filter="url(#filter3_d_84_3)">
<path d="M32.2124 153.103H2.79668C0.993652 163.471 0 174.117 0 185C0 195.883 0.993652 206.529 2.79668 216.897H32.2124C37.0556 216.897 40.8395 212.611 40.0814 207.827C38.902 200.387 38.2762 192.766 38.2762 185C38.2762 177.234 38.902 169.613 40.0814 162.173C40.8395 157.389 37.0556 153.103 32.2124 153.103Z" fill="#082B30"/>
</g>
<g filter="url(#filter4_d_84_3)">
<path d="M315.815 54.1848C308.119 46.4892 299.889 39.6644 291.284 33.6078L270.483 54.4081C267.058 57.8327 267.414 63.5396 271.332 66.3854C277.427 70.8117 283.257 75.7582 288.749 81.2497C294.241 86.7412 299.187 92.5723 303.614 98.6672C306.459 102.585 312.166 102.941 315.591 99.5163L336.391 78.7161C330.335 70.1107 323.511 61.8811 315.815 54.1848Z" fill="#082B30"/>
</g>
<g filter="url(#filter5_d_84_3)">
<path d="M54.4081 270.483L33.6079 291.283C39.6645 299.889 46.4893 308.119 54.1848 315.815C61.8804 323.51 70.1107 330.335 78.7161 336.391L99.5163 315.591C102.941 312.167 102.585 306.46 98.6672 303.614C92.5723 299.188 86.7419 294.241 81.2497 288.75C75.7583 283.258 70.8117 277.427 66.3854 271.332C63.5396 267.414 57.8335 267.058 54.4081 270.483Z" fill="#082B30"/>
</g>
<g filter="url(#filter6_d_84_3)">
<path d="M315.815 315.815C323.511 308.12 330.335 299.889 336.392 291.284L315.591 270.483C312.166 267.058 306.459 267.414 303.614 271.332C299.187 277.427 294.241 283.257 288.749 288.75C283.258 294.241 277.427 299.188 271.332 303.614C267.414 306.46 267.058 312.166 270.483 315.591L291.283 336.391C299.889 330.335 308.119 323.511 315.815 315.815Z" fill="#082B30"/>
</g>
<g filter="url(#filter7_d_84_3)">
<path d="M99.5173 54.4081L78.7171 33.6086C70.111 39.6652 61.8813 46.4892 54.1851 54.1848C46.4888 61.8803 39.6647 70.1107 33.6089 78.7161L54.4084 99.5163C57.833 102.941 63.5398 102.585 66.3857 98.6672C70.8119 92.5723 75.7585 86.7419 81.25 81.2497C86.7414 75.7582 92.5725 70.8117 98.6674 66.3854C102.587 63.5396 102.943 57.8335 99.5173 54.4081Z" fill="#082B30"/>
</g>
<path d="M37.6541 255.603C42.9388 255.603 47.2228 251.319 47.2228 246.034C47.2228 240.749 42.9388 236.465 37.6541 236.465C32.3695 236.465 28.0854 240.749 28.0854 246.034C28.0854 251.319 32.3695 255.603 37.6541 255.603Z" fill="#082B30"/>
<path d="M332.346 133.535C337.631 133.535 341.915 129.251 341.915 123.966C341.915 118.681 337.631 114.397 332.346 114.397C327.061 114.397 322.777 118.681 322.777 123.966C322.777 129.251 327.061 133.535 332.346 133.535Z" fill="#082B30"/>
<path d="M123.966 47.2227C129.25 47.2227 133.534 42.9386 133.534 37.654C133.534 32.3694 129.25 28.0853 123.966 28.0853C118.681 28.0853 114.397 32.3694 114.397 37.654C114.397 42.9386 118.681 47.2227 123.966 47.2227Z" fill="#082B30"/>
<path d="M246.034 341.915C251.319 341.915 255.603 337.631 255.603 332.346C255.603 327.061 251.319 322.777 246.034 322.777C240.749 322.777 236.465 327.061 236.465 332.346C236.465 337.631 240.749 341.915 246.034 341.915Z" fill="#082B30"/>
<path d="M37.6541 133.535C42.9388 133.535 47.2228 129.251 47.2228 123.966C47.2228 118.681 42.9388 114.397 37.6541 114.397C32.3695 114.397 28.0854 118.681 28.0854 123.966C28.0854 129.251 32.3695 133.535 37.6541 133.535Z" fill="#082B30"/>
<path d="M332.346 255.603C337.631 255.603 341.915 251.319 341.915 246.034C341.915 240.749 337.631 236.465 332.346 236.465C327.061 236.465 322.777 240.749 322.777 246.034C322.777 251.319 327.061 255.603 332.346 255.603Z" fill="#082B30"/>
<path d="M246.034 47.2227C251.319 47.2227 255.603 42.9386 255.603 37.654C255.603 32.3694 251.319 28.0853 246.034 28.0853C240.749 28.0853 236.465 32.3694 236.465 37.654C236.465 42.9386 240.749 47.2227 246.034 47.2227Z" fill="#082B30"/>
<path d="M123.966 341.915C129.25 341.915 133.534 337.631 133.534 332.346C133.534 327.061 129.25 322.777 123.966 322.777C118.681 322.777 114.397 327.061 114.397 332.346C114.397 337.631 118.681 341.915 123.966 341.915Z" fill="#082B30"/>
<path d="M292.04 104.785L280.976 111.173C287.451 119.578 292.907 128.798 297.019 138.743L308.14 132.322C303.901 122.451 298.415 113.268 292.04 104.785Z" fill="#082B30"/>
<path d="M231.259 72.9811C241.203 77.0922 250.423 82.549 258.828 89.024L265.216 77.9594C256.732 71.5849 247.55 66.0985 237.68 61.8601L231.259 72.9811Z" fill="#082B30"/>
<path d="M169.052 52.0753V64.9625C174.284 64.273 179.58 63.7932 185 63.7932C190.42 63.7932 195.716 64.2723 200.948 64.9617V52.0753C195.708 51.4495 190.406 51.0347 185 51.0347C179.595 51.0347 174.292 51.4488 169.052 52.0753Z" fill="#082B30"/>
<path d="M306.207 185C306.207 190.42 305.728 195.716 305.038 200.948H317.925C318.551 195.708 318.965 190.405 318.965 185C318.965 179.595 318.55 174.292 317.925 169.052H305.038C305.728 174.284 306.207 179.58 306.207 185Z" fill="#082B30"/>
<path d="M111.172 89.0247C119.577 82.5497 128.796 77.093 138.742 72.9818L132.321 61.8608C122.451 66.0999 113.268 71.5863 104.785 77.9602L111.172 89.0247Z" fill="#082B30"/>
<path d="M308.14 237.679L297.019 231.258C292.908 241.202 287.451 250.421 280.976 258.826L292.04 265.214C298.414 256.732 303.901 247.549 308.14 237.679Z" fill="#082B30"/>
<path d="M200.948 317.925V305.038C195.716 305.727 190.42 306.206 185 306.206C179.58 306.206 174.284 305.727 169.052 305.038V317.925C174.292 318.55 179.595 318.965 185 318.965C190.406 318.965 195.708 318.55 200.948 317.925Z" fill="#082B30"/>
<path d="M258.827 280.975C250.423 287.45 241.203 292.907 231.258 297.018L237.679 308.139C247.548 303.9 256.731 298.414 265.215 292.039L258.827 280.975Z" fill="#082B30"/>
<g filter="url(#filter8_i_84_3)">
<path fill-rule="evenodd" clip-rule="evenodd" d="M190.032 145.11L184.742 112.484L179.452 145.11L147.336 150.484L179.452 155.858L184.742 188.484L190.032 155.858L222.148 150.484L190.032 145.11ZM201.061 218.985L236.959 130H260L206.222 263.301H161.773L108 130H131.041L166.939 218.985H176.1L182.61 236.246H185.386L191.9 218.985H201.061Z" fill="url(#paint0_linear_84_3)"/>
</g>
<g filter="url(#filter9_d_84_3)">
<path d="M203.816 130.668L189.711 150.336L203.816 170.004L184.148 155.899L164.48 170.004L178.585 150.336L164.48 130.668L184.148 144.773L203.816 130.668Z" fill="#00FFD1"/>
</g>
<g filter="url(#filter10_i_84_3)">
<path fill-rule="evenodd" clip-rule="evenodd" d="M190.032 145.11L184.742 112.484L179.452 145.11L147.336 150.484L179.452 155.858L184.742 188.484L190.032 155.858L222.148 150.484L190.032 145.11ZM201.061 218.985L236.959 130H260L206.222 263.301H161.773L108 130H131.041L166.939 218.985H176.1L182.61 236.246H185.386L191.9 218.985H201.061Z" fill="url(#paint1_linear_84_3)"/>
</g>
<g filter="url(#filter11_d_84_3)">
<path d="M203.816 130.668L189.711 150.336L203.816 170.004L184.148 155.899L164.48 170.004L178.585 150.336L164.48 130.668L184.148 144.773L203.816 130.668Z" fill="#00FFD1"/>
</g>
</g>
<defs>
<filter id="filter0_d_84_3" x="142.004" y="-11.1" width="85.993" height="62.3784" filterUnits="userSpaceOnUse" color-interpolation-filters="sRGB">
<feFlood flood-opacity="0" result="BackgroundImageFix"/>
<feColorMatrix in="SourceAlpha" type="matrix" values="0 0 0 0 0 0 0 0 0 0 0 0 0 0 0 0 0 0 127 0" result="hardAlpha"/>
<feOffset/>
<feGaussianBlur stdDeviation="5.55"/>
<feComposite in2="hardAlpha" operator="out"/>
<feColorMatrix type="matrix" values="0 0 0 0 0 0 0 0 0 0 0 0 0 0 0 0 0 0 0.66 0"/>
<feBlend mode="normal" in2="BackgroundImageFix" result="effect1_dropShadow_84_3"/>
<feBlend mode="normal" in="SourceGraphic" in2="effect1_dropShadow_84_3" result="shape"/>
</filter>
<filter id="filter1_d_84_3" x="142.004" y="318.722" width="85.993" height="62.3785" filterUnits="userSpaceOnUse" color-interpolation-filters="sRGB">
<feFlood flood-opacity="0" result="BackgroundImageFix"/>
<feColorMatrix in="SourceAlpha" type="matrix" values="0 0 0 0 0 0 0 0 0 0 0 0 0 0 0 0 0 0 127 0" result="hardAlpha"/>
<feOffset/>
<feGaussianBlur stdDeviation="5.55"/>
<feComposite in2="hardAlpha" operator="out"/>
<feColorMatrix type="matrix" values="0 0 0 0 0 0 0 0 0 0 0 0 0 0 0 0 0 0 0.66 0"/>
<feBlend mode="normal" in2="BackgroundImageFix" result="effect1_dropShadow_84_3"/>
<feBlend mode="normal" in="SourceGraphic" in2="effect1_dropShadow_84_3" result="shape"/>
</filter>
<filter id="filter2_d_84_3" x="318.722" y="142.003" width="62.3782" height="85.9932" filterUnits="userSpaceOnUse" color-interpolation-filters="sRGB">
<feFlood flood-opacity="0" result="BackgroundImageFix"/>
<feColorMatrix in="SourceAlpha" type="matrix" values="0 0 0 0 0 0 0 0 0 0 0 0 0 0 0 0 0 0 127 0" result="hardAlpha"/>
<feOffset/>
<feGaussianBlur stdDeviation="5.55"/>
<feComposite in2="hardAlpha" operator="out"/>
<feColorMatrix type="matrix" values="0 0 0 0 0 0 0 0 0 0 0 0 0 0 0 0 0 0 0.66 0"/>
<feBlend mode="normal" in2="BackgroundImageFix" result="effect1_dropShadow_84_3"/>
<feBlend mode="normal" in="SourceGraphic" in2="effect1_dropShadow_84_3" result="shape"/>
</filter>
<filter id="filter3_d_84_3" x="-11.1" y="142.003" width="62.3782" height="85.9932" filterUnits="userSpaceOnUse" color-interpolation-filters="sRGB">
<feFlood flood-opacity="0" result="BackgroundImageFix"/>
<feColorMatrix in="SourceAlpha" type="matrix" values="0 0 0 0 0 0 0 0 0 0 0 0 0 0 0 0 0 0 127 0" result="hardAlpha"/>
<feOffset/>
<feGaussianBlur stdDeviation="5.55"/>
<feComposite in2="hardAlpha" operator="out"/>
<feColorMatrix type="matrix" values="0 0 0 0 0 0 0 0 0 0 0 0 0 0 0 0 0 0 0.66 0"/>
<feBlend mode="normal" in2="BackgroundImageFix" result="effect1_dropShadow_84_3"/>
<feBlend mode="normal" in="SourceGraphic" in2="effect1_dropShadow_84_3" result="shape"/>
</filter>
<filter id="filter4_d_84_3" x="257.035" y="22.5078" width="90.4559" height="90.456" filterUnits="userSpaceOnUse" color-interpolation-filters="sRGB">
<feFlood flood-opacity="0" result="BackgroundImageFix"/>
<feColorMatrix in="SourceAlpha" type="matrix" values="0 0 0 0 0 0 0 0 0 0 0 0 0 0 0 0 0 0 127 0" result="hardAlpha"/>
<feOffset/>
<feGaussianBlur stdDeviation="5.55"/>
<feComposite in2="hardAlpha" operator="out"/>
<feColorMatrix type="matrix" values="0 0 0 0 0 0 0 0 0 0 0 0 0 0 0 0 0 0 0.66 0"/>
<feBlend mode="normal" in2="BackgroundImageFix" result="effect1_dropShadow_84_3"/>
<feBlend mode="normal" in="SourceGraphic" in2="effect1_dropShadow_84_3" result="shape"/>
</filter>
<filter id="filter5_d_84_3" x="22.5079" y="257.035" width="90.4559" height="90.4563" filterUnits="userSpaceOnUse" color-interpolation-filters="sRGB">
<feFlood flood-opacity="0" result="BackgroundImageFix"/>
<feColorMatrix in="SourceAlpha" type="matrix" values="0 0 0 0 0 0 0 0 0 0 0 0 0 0 0 0 0 0 127 0" result="hardAlpha"/>
<feOffset/>
<feGaussianBlur stdDeviation="5.55"/>
<feComposite in2="hardAlpha" operator="out"/>
<feColorMatrix type="matrix" values="0 0 0 0 0 0 0 0 0 0 0 0 0 0 0 0 0 0 0.66 0"/>
<feBlend mode="normal" in2="BackgroundImageFix" result="effect1_dropShadow_84_3"/>
<feBlend mode="normal" in="SourceGraphic" in2="effect1_dropShadow_84_3" result="shape"/>
</filter>
<filter id="filter6_d_84_3" x="257.035" y="257.035" width="90.4568" height="90.4559" filterUnits="userSpaceOnUse" color-interpolation-filters="sRGB">
<feFlood flood-opacity="0" result="BackgroundImageFix"/>
<feColorMatrix in="SourceAlpha" type="matrix" values="0 0 0 0 0 0 0 0 0 0 0 0 0 0 0 0 0 0 127 0" result="hardAlpha"/>
<feOffset/>
<feGaussianBlur stdDeviation="5.55"/>
<feComposite in2="hardAlpha" operator="out"/>
<feColorMatrix type="matrix" values="0 0 0 0 0 0 0 0 0 0 0 0 0 0 0 0 0 0 0.66 0"/>
<feBlend mode="normal" in2="BackgroundImageFix" result="effect1_dropShadow_84_3"/>
<feBlend mode="normal" in="SourceGraphic" in2="effect1_dropShadow_84_3" result="shape"/>
</filter>
<filter id="filter7_d_84_3" x="22.5089" y="22.5086" width="90.4563" height="90.4553" filterUnits="userSpaceOnUse" color-interpolation-filters="sRGB">
<feFlood flood-opacity="0" result="BackgroundImageFix"/>
<feColorMatrix in="SourceAlpha" type="matrix" values="0 0 0 0 0 0 0 0 0 0 0 0 0 0 0 0 0 0 127 0" result="hardAlpha"/>
<feOffset/>
<feGaussianBlur stdDeviation="5.55"/>
<feComposite in2="hardAlpha" operator="out"/>
<feColorMatrix type="matrix" values="0 0 0 0 0 0 0 0 0 0 0 0 0 0 0 0 0 0 0.66 0"/>
<feBlend mode="normal" in2="BackgroundImageFix" result="effect1_dropShadow_84_3"/>
<feBlend mode="normal" in="SourceGraphic" in2="effect1_dropShadow_84_3" result="shape"/>
</filter>
<filter id="filter8_i_84_3" x="108" y="112.484" width="152" height="154.817" filterUnits="userSpaceOnUse" color-interpolation-filters="sRGB">
<feFlood flood-opacity="0" result="BackgroundImageFix"/>
<feBlend mode="normal" in="SourceGraphic" in2="BackgroundImageFix" result="shape"/>
<feColorMatrix in="SourceAlpha" type="matrix" values="0 0 0 0 0 0 0 0 0 0 0 0 0 0 0 0 0 0 127 0" result="hardAlpha"/>
<feOffset dy="4"/>
<feGaussianBlur stdDeviation="2.7"/>
<feComposite in2="hardAlpha" operator="arithmetic" k2="-1" k3="1"/>
<feColorMatrix type="matrix" values="0 0 0 0 0 0 0 0 0 0 0 0 0 0 0 0 0 0 0.25 0"/>
<feBlend mode="normal" in2="shape" result="effect1_innerShadow_84_3"/>
</filter>
<filter id="filter9_d_84_3" x="160.48" y="130.668" width="47.3359" height="47.3359" filterUnits="userSpaceOnUse" color-interpolation-filters="sRGB">
<feFlood flood-opacity="0" result="BackgroundImageFix"/>
<feColorMatrix in="SourceAlpha" type="matrix" values="0 0 0 0 0 0 0 0 0 0 0 0 0 0 0 0 0 0 127 0" result="hardAlpha"/>
<feOffset dy="4"/>
<feGaussianBlur stdDeviation="2"/>
<feComposite in2="hardAlpha" operator="out"/>
<feColorMatrix type="matrix" values="0 0 0 0 0 0 0 0 0 0 0 0 0 0 0 0 0 0 0.25 0"/>
<feBlend mode="normal" in2="BackgroundImageFix" result="effect1_dropShadow_84_3"/>
<feBlend mode="normal" in="SourceGraphic" in2="effect1_dropShadow_84_3" result="shape"/>
</filter>
<filter id="filter10_i_84_3" x="108" y="112.484" width="152" height="154.817" filterUnits="userSpaceOnUse" color-interpolation-filters="sRGB">
<feFlood flood-opacity="0" result="BackgroundImageFix"/>
<feBlend mode="normal" in="SourceGraphic" in2="BackgroundImageFix" result="shape"/>
<feColorMatrix in="SourceAlpha" type="matrix" values="0 0 0 0 0 0 0 0 0 0 0 0 0 0 0 0 0 0 127 0" result="hardAlpha"/>
<feOffset dy="4"/>
<feGaussianBlur stdDeviation="2.7"/>
<feComposite in2="hardAlpha" operator="arithmetic" k2="-1" k3="1"/>
<feColorMatrix type="matrix" values="0 0 0 0 0 0 0 0 0 0 0 0 0 0 0 0 0 0 0.25 0"/>
<feBlend mode="normal" in2="shape" result="effect1_innerShadow_84_3"/>
</filter>
<filter id="filter11_d_84_3" x="160.48" y="130.668" width="47.3359" height="47.3359" filterUnits="userSpaceOnUse" color-interpolation-filters="sRGB">
<feFlood flood-opacity="0" result="BackgroundImageFix"/>
<feColorMatrix in="SourceAlpha" type="matrix" values="0 0 0 0 0 0 0 0 0 0 0 0 0 0 0 0 0 0 127 0" result="hardAlpha"/>
<feOffset dy="4"/>
<feGaussianBlur stdDeviation="2"/>
<feComposite in2="hardAlpha" operator="out"/>
<feColorMatrix type="matrix" values="0 0 0 0 0 0 0 0 0 0 0 0 0 0 0 0 0 0 0.25 0"/>
<feBlend mode="normal" in2="BackgroundImageFix" result="effect1_dropShadow_84_3"/>
<feBlend mode="normal" in="SourceGraphic" in2="effect1_dropShadow_84_3" result="shape"/>
</filter>
<linearGradient id="paint0_linear_84_3" x1="184" y1="112.484" x2="184" y2="263.301" gradientUnits="userSpaceOnUse">
<stop stop-color="#00FFD1"/>
<stop offset="1" stop-color="#30FFA8"/>
</linearGradient>
<linearGradient id="paint1_linear_84_3" x1="184" y1="112.484" x2="184" y2="263.301" gradientUnits="userSpaceOnUse">
<stop stop-color="#00FFD1"/>
<stop offset="1" stop-color="#30FFA8"/>
</linearGradient>
<clipPath id="clip0_84_3">
<rect width="370" height="370" fill="white"/>
</clipPath>
</defs>
</svg>
