<svg xmlns="http://www.w3.org/2000/svg" version="1.1" viewBox="0 0 2000 2000" width="2000" height="2000" style="shape-rendering:geometricPrecision; text-rendering:geometricPrecision; image-rendering:optimizeQuality; fill-rule:evenodd; clip-rule:evenodd" xmlns:xlink="http://www.w3.org/1999/xlink">
<g><path style="opacity:0.986" fill="#020303" d="M 751.5,1748.5 C 751.631,1747.76 751.464,1747.09 751,1746.5C 742.298,1755.04 733.798,1763.7 725.5,1772.5C 686.877,1806.3 642.21,1817.8 591.5,1807C 574.741,1802.78 559.075,1796.12 544.5,1787C 541.712,1785.28 539.379,1783.11 537.5,1780.5C 526.773,1770.6 517.273,1759.6 509,1747.5C 508.601,1747.73 508.435,1748.06 508.5,1748.5C 499.678,1734.18 493.011,1718.85 488.5,1702.5C 483.524,1700.43 478.524,1700.59 473.5,1703C 467.896,1706.6 463.729,1711.44 461,1717.5C 456.417,1722.7 451.75,1722.7 447,1717.5C 436.827,1700.65 432.494,1682.32 434,1662.5C 425.685,1670.28 422.518,1679.61 424.5,1690.5C 422.736,1696.37 419.069,1697.87 413.5,1695C 399.724,1686.29 391.89,1673.79 390,1657.5C 387.852,1645.5 387.185,1633.5 388,1621.5C 373.838,1626 359.338,1628.5 344.5,1629C 339.931,1626.46 338.431,1622.63 340,1617.5C 350.042,1605.08 357.708,1591.41 363,1576.5C 350.054,1585.23 335.887,1590.4 320.5,1592C 317.71,1589.79 316.877,1586.96 318,1583.5C 333.651,1564.23 339.318,1542.23 335,1517.5C 334.358,1508.96 332.691,1500.62 330,1492.5C 314.357,1503.16 304.691,1517.82 301,1536.5C 298.79,1539.29 295.956,1540.12 292.5,1539C 283.622,1528.74 277.789,1516.91 275,1503.5C 271.254,1489.65 270.587,1475.65 273,1461.5C 275.327,1447.69 278.827,1434.19 283.5,1421C 283.167,1420.5 282.833,1420 282.5,1419.5C 270.696,1421.1 259.03,1420.27 247.5,1417C 244.136,1413.97 243.636,1410.47 246,1406.5C 258.218,1400.9 268.551,1392.9 277,1382.5C 280.212,1377.91 283.045,1373.08 285.5,1368C 281.034,1369.57 276.7,1371.73 272.5,1374.5C 268.495,1373.83 266.162,1371.5 265.5,1367.5C 268.86,1360.2 270.193,1352.53 269.5,1344.5C 218.293,1353.81 178.793,1336.48 151,1292.5C 134.712,1263.97 125.045,1233.3 122,1200.5C 112.75,1124.41 127.417,1053.41 166,987.5C 181.093,964.075 199.926,944.241 222.5,928C 205.959,914.471 192.792,898.304 183,879.5C 182.045,874.577 183.879,871.077 188.5,869C 208.409,866.19 227.742,861.19 246.5,854C 263.671,846.407 278.338,835.407 290.5,821C 281.819,810.655 275.986,798.822 273,785.5C 263.411,751.459 259.411,716.793 261,681.5C 262.154,664.065 265.487,647.065 271,630.5C 272.769,626.734 275.269,623.567 278.5,621C 280.5,620.333 282.5,620.333 284.5,621C 286.527,623.681 289.193,625.347 292.5,626C 313.834,631.667 335.501,633.667 357.5,632C 361.272,631.594 364.939,630.761 368.5,629.5C 367.025,584.402 378.525,542.736 403,504.5C 418.32,481.843 436.487,461.676 457.5,444C 460.347,443.056 462.847,443.556 465,445.5C 465.586,465.094 469.252,484.094 476,502.5C 506.641,477.17 532.641,447.837 554,414.5C 577.494,376.705 586.661,335.872 581.5,292C 583.754,290.85 586.087,290.516 588.5,291C 616.203,305.871 641.536,324.037 664.5,345.5C 687.024,308.81 716.69,279.31 753.5,257C 801.319,228.015 852.486,206.849 907,193.5C 912.023,194.542 913.69,197.542 912,202.5C 905.666,216.838 900.166,231.504 895.5,246.5C 951.271,232.031 1000.44,205.364 1043,166.5C 1045.96,162.756 1048.79,158.922 1051.5,155C 1054.3,154.245 1056.97,154.578 1059.5,156C 1063.67,158.833 1067.17,162.333 1070,166.5C 1074.42,173.672 1079.09,180.672 1084,187.5C 1087.68,194.864 1091.35,202.198 1095,209.5C 1143.17,174.105 1197.34,154.939 1257.5,152C 1276.55,151.644 1295.55,151.478 1314.5,151.5C 1313.65,154.223 1312.48,156.89 1311,159.5C 1291,180.506 1274.5,204.006 1261.5,230C 1273.55,228.319 1284.89,224.319 1295.5,218C 1312.26,208.618 1327.59,197.285 1341.5,184C 1348.35,181.846 1352.85,184.346 1355,191.5C 1359.72,208.933 1360.72,226.6 1358,244.5C 1356.42,257.302 1354.42,269.969 1352,282.5C 1360.56,279.544 1369.4,277.71 1378.5,277C 1407.37,275.553 1435.71,278.886 1463.5,287C 1467.99,288.274 1472.32,289.941 1476.5,292C 1480.53,295.168 1481.37,299.001 1479,303.5C 1470.09,310.038 1460.93,316.205 1451.5,322C 1435.07,338.35 1423.9,357.85 1418,380.5C 1415.1,390.693 1414.27,401.027 1415.5,411.5C 1472.99,421.224 1521.66,405.224 1561.5,363.5C 1564.69,363.856 1566.85,365.523 1568,368.5C 1570.89,408.152 1562.06,444.985 1541.5,479C 1587.68,481.842 1629.68,496.842 1667.5,524C 1684.18,536.008 1699.68,549.508 1714,564.5C 1716.39,568.794 1715.89,572.627 1712.5,576C 1700.9,579.3 1689.9,583.967 1679.5,590C 1670.5,595.667 1661.5,601.333 1652.5,607C 1648.69,609.647 1645.35,612.813 1642.5,616.5C 1675.82,650.773 1716.16,663.94 1763.5,656C 1765.81,657.109 1767.31,658.943 1768,661.5C 1768.76,675.024 1766.43,688.024 1761,700.5C 1744.23,738.258 1719.07,769.091 1685.5,793C 1701.48,805.982 1714.98,821.148 1726,838.5C 1728.91,845.891 1731.41,853.391 1733.5,861C 1775.52,873.914 1811.69,896.081 1842,927.5C 1891.06,989.381 1910.39,1059.71 1900,1138.5C 1888.45,1210.79 1851.95,1266.63 1790.5,1306C 1758.59,1325.75 1723.92,1334.42 1686.5,1332C 1677.97,1330.99 1669.64,1329.16 1661.5,1326.5C 1662.56,1338.52 1666.4,1349.85 1673,1360.5C 1679.75,1372.33 1686.75,1384 1694,1395.5C 1698.48,1399.14 1701.98,1403.47 1704.5,1408.5C 1704.06,1411.21 1702.73,1413.38 1700.5,1415C 1681.88,1425.49 1661.88,1431.32 1640.5,1432.5C 1655.42,1479.59 1648.09,1522.76 1618.5,1562C 1615.5,1564.12 1612.66,1563.96 1610,1561.5C 1609.7,1545.65 1605.37,1530.98 1597,1517.5C 1595.37,1514.87 1593.37,1512.54 1591,1510.5C 1591.73,1538.13 1587.06,1564.79 1577,1590.5C 1569.15,1609.05 1557.31,1624.55 1541.5,1637C 1538.36,1638.04 1535.86,1637.21 1534,1634.5C 1532.95,1623.17 1529.78,1612.51 1524.5,1602.5C 1520.94,1609.74 1518.77,1617.41 1518,1625.5C 1516.42,1639.81 1517.75,1653.81 1522,1667.5C 1525.29,1672.45 1528.95,1677.12 1533,1681.5C 1533.46,1684.1 1532.62,1686.26 1530.5,1688C 1510.31,1691.72 1490.31,1690.72 1470.5,1685C 1457.64,1678.13 1445.3,1670.46 1433.5,1662C 1426.98,1656.98 1421.31,1651.15 1416.5,1644.5C 1411.76,1656.8 1404.43,1667.3 1394.5,1676C 1390.18,1679.83 1386.68,1679.33 1384,1674.5C 1382.07,1656.62 1373.57,1642.95 1358.5,1633.5C 1356.37,1638.67 1354.54,1644.01 1353,1649.5C 1347.13,1660.57 1339.8,1670.57 1331,1679.5C 1319.14,1691.7 1306.97,1703.53 1294.5,1715C 1290.78,1717.06 1287.28,1716.89 1284,1714.5C 1282.87,1707.22 1281.87,1699.89 1281,1692.5C 1280.53,1690.22 1279.53,1688.22 1278,1686.5C 1262.2,1707.3 1244.04,1725.8 1223.5,1742C 1217.71,1745.48 1211.54,1747.98 1205,1749.5C 1202.13,1749.4 1200.13,1748.07 1199,1745.5C 1198.07,1738.82 1197.07,1732.15 1196,1725.5C 1195.25,1721.58 1193.92,1717.91 1192,1714.5C 1187.92,1718.98 1184.59,1723.98 1182,1729.5C 1175.56,1743.55 1170.39,1758.05 1166.5,1773C 1140.78,1776.98 1118.95,1769.14 1101,1749.5C 1098.83,1756.36 1097.16,1763.36 1096,1770.5C 1081.01,1772.56 1067.84,1768.23 1056.5,1757.5C 1056.88,1767.17 1056.38,1776.84 1055,1786.5C 1050.27,1811.24 1035.77,1820.41 1011.5,1814C 1001.44,1808.38 994.273,1800.22 990,1789.5C 988.214,1780.79 986.214,1772.12 984,1763.5C 977.136,1770.89 972.636,1779.56 970.5,1789.5C 959.891,1791.12 951.057,1787.79 944,1779.5C 941,1774.17 938,1768.83 935,1763.5C 929.521,1772.71 928.521,1782.37 932,1792.5C 934.403,1796.06 936.57,1799.73 938.5,1803.5C 938.069,1805.77 936.736,1807.27 934.5,1808C 924.458,1812.15 914.458,1811.81 904.5,1807C 892.926,1801.6 883.26,1793.77 875.5,1783.5C 858.851,1798.16 840.517,1810.33 820.5,1820C 816.027,1821.94 811.693,1821.77 807.5,1819.5C 807.167,1818.67 806.833,1817.83 806.5,1817C 809.521,1803.94 813.355,1791.1 818,1778.5C 819.198,1773.86 819.865,1769.19 820,1764.5C 806.463,1777.04 792.63,1789.21 778.5,1801C 774.109,1804.71 769.109,1806.37 763.5,1806C 761.556,1804.28 760.556,1802.11 760.5,1799.5C 763.538,1781.36 760.538,1764.36 751.5,1748.5 Z"/></g>
<g><path style="opacity:1" fill="#062622" d="M 1261.5,159.5 C 1273.5,159.333 1285.5,159.5 1297.5,160C 1278.4,180.357 1262.9,203.19 1251,228.5C 1248.56,235.59 1250.9,239.924 1258,241.5C 1279.41,238.364 1298.91,230.531 1316.5,218C 1325.61,211.886 1334.45,205.386 1343,198.5C 1347.31,230.092 1344.47,261.092 1334.5,291.5C 1335.17,297.683 1338.51,300.183 1344.5,299C 1370.65,288.199 1397.65,285.532 1425.5,291C 1436.94,292.608 1447.94,295.608 1458.5,300C 1437.73,312.108 1422.57,329.275 1413,351.5C 1402.31,372.932 1397.31,395.598 1398,419.5C 1400.19,423.857 1403.69,426.69 1408.5,428C 1449.89,434.184 1488.89,427.184 1525.5,407C 1537.17,400.328 1548.01,392.495 1558,383.5C 1556.97,419.234 1545.97,451.567 1525,480.5C 1524.37,482.635 1524.7,484.635 1526,486.5C 1532.7,488.749 1539.53,490.915 1546.5,493C 1588.45,495.152 1626.11,508.819 1659.5,534C 1672.13,543.909 1684.3,554.409 1696,565.5C 1688.73,569.897 1680.9,574.064 1672.5,578C 1658.96,585.544 1645.96,593.878 1633.5,603C 1625.81,609.533 1624.64,617.033 1630,625.5C 1664.58,663.248 1706.91,676.915 1757,666.5C 1757.02,678.098 1754.35,689.098 1749,699.5C 1731.66,734.171 1707.16,762.671 1675.5,785C 1671.47,788.168 1670.63,792.001 1673,796.5C 1690.09,808.917 1704.42,823.917 1716,841.5C 1718.46,847.049 1720.63,852.716 1722.5,858.5C 1683.02,851.693 1647.02,859.86 1614.5,883C 1611.3,886.536 1607.8,889.703 1604,892.5C 1599.13,889.747 1595.46,891.08 1593,896.5C 1580.52,928.39 1575.52,961.39 1578,995.5C 1580.66,1013.83 1586.33,1031.16 1595,1047.5C 1597.05,1050.42 1599.21,1053.26 1601.5,1056C 1585.91,1059.74 1570.24,1060.41 1554.5,1058C 1552.41,1059.26 1551.41,1061.09 1551.5,1063.5C 1557.44,1098.88 1572.11,1130.05 1595.5,1157C 1579.86,1156.81 1565.02,1153.31 1551,1146.5C 1546.6,1146.74 1544.43,1149.07 1544.5,1153.5C 1546.96,1181.47 1547.13,1209.47 1545,1237.5C 1538.53,1230.03 1531.7,1222.86 1524.5,1216C 1519.49,1213.13 1515.99,1214.29 1514,1219.5C 1514.19,1234.82 1514.53,1250.15 1515,1265.5C 1515.1,1268.9 1515.93,1272.07 1517.5,1275C 1519.37,1275.71 1520.87,1275.21 1522,1273.5C 1523.66,1259.54 1524.83,1245.54 1525.5,1231.5C 1533.06,1238.89 1540.06,1246.72 1546.5,1255C 1552.72,1256.46 1556.22,1253.96 1557,1247.5C 1571.13,1265.3 1586.96,1281.46 1604.5,1296C 1618.75,1306.41 1634.08,1314.91 1650.5,1321.5C 1649.76,1336.86 1653.26,1351.2 1661,1364.5C 1667.94,1375.77 1675.27,1386.77 1683,1397.5C 1686.87,1401.7 1691.03,1405.53 1695.5,1409C 1694.45,1410.38 1693.12,1411.38 1691.5,1412C 1670.85,1419.66 1649.68,1423.83 1628,1424.5C 1627.33,1426.5 1627.33,1428.5 1628,1430.5C 1631.67,1434.85 1634.01,1439.85 1635,1445.5C 1643.23,1480.33 1637.57,1512.66 1618,1542.5C 1614.45,1530.06 1608.78,1518.73 1601,1508.5C 1596.79,1502.81 1591.29,1499.98 1584.5,1500C 1584,1500.5 1583.5,1501 1583,1501.5C 1587.33,1538.53 1579.66,1572.87 1560,1604.5C 1555.06,1611.61 1549.23,1617.94 1542.5,1623.5C 1539.77,1615.48 1536.94,1607.48 1534,1599.5C 1532.39,1594.22 1529.05,1590.55 1524,1588.5C 1522.78,1588.86 1521.61,1589.36 1520.5,1590C 1509.56,1609.04 1505.39,1629.54 1508,1651.5C 1508.5,1661.49 1511.66,1670.49 1517.5,1678.5C 1473.67,1681.42 1440,1664.42 1416.5,1627.5C 1413.14,1624.54 1410.31,1624.88 1408,1628.5C 1406.68,1643.13 1401.02,1655.8 1391,1666.5C 1386.36,1651.72 1378.53,1638.89 1367.5,1628C 1365.08,1626.37 1362.58,1624.87 1360,1623.5C 1358.91,1620.96 1358.24,1618.29 1358,1615.5C 1357.59,1615.04 1357.09,1614.71 1356.5,1614.5C 1353.48,1616.69 1350.98,1619.35 1349,1622.5C 1346,1631.83 1343,1641.17 1340,1650.5C 1334.57,1661.04 1327.9,1670.7 1320,1679.5C 1310.83,1688 1301.67,1696.5 1292.5,1705C 1291.4,1705.43 1290.73,1704.93 1290.5,1703.5C 1289.72,1693.83 1287.56,1684.5 1284,1675.5C 1282.78,1670.92 1279.94,1668.75 1275.5,1669C 1270.55,1678.4 1264.71,1687.23 1258,1695.5C 1245.36,1709.48 1231.53,1721.98 1216.5,1733C 1213.14,1735.55 1209.47,1737.38 1205.5,1738.5C 1206.11,1727.37 1204.28,1716.71 1200,1706.5C 1196.49,1702.39 1192.32,1701.55 1187.5,1704C 1184.96,1706.2 1182.79,1708.7 1181,1711.5C 1173.75,1725.58 1167.09,1739.91 1161,1754.5C 1159.69,1758.07 1158.86,1761.74 1158.5,1765.5C 1134.2,1763.1 1113.7,1753.1 1097,1735.5C 1094.77,1739.96 1092.43,1744.63 1090,1749.5C 1089.57,1754.43 1088.41,1759.09 1086.5,1763.5C 1075.69,1759.85 1065.86,1754.51 1057,1747.5C 1057.73,1731.54 1064.23,1718.37 1076.5,1708C 1079.38,1706.39 1082.38,1705.06 1085.5,1704C 1107.29,1701.72 1127.96,1695.72 1147.5,1686C 1150.33,1683.75 1153.33,1681.75 1156.5,1680C 1170.47,1666.36 1184.14,1652.36 1197.5,1638C 1208.5,1629.83 1219.5,1621.67 1230.5,1613.5C 1239.4,1605.2 1244.4,1595.03 1245.5,1583C 1245.31,1576.1 1243.31,1569.76 1239.5,1564C 1240.67,1562.17 1241.83,1560.33 1243,1558.5C 1245.84,1548.49 1248.67,1538.49 1251.5,1528.5C 1255.68,1532.52 1260.02,1536.35 1264.5,1540C 1269.27,1541.36 1272.77,1539.86 1275,1535.5C 1276.43,1508.59 1273.93,1482.09 1267.5,1456C 1279.58,1456.35 1290.91,1459.52 1301.5,1465.5C 1305.12,1465.05 1307.29,1463.05 1308,1459.5C 1306.16,1437.15 1302.16,1415.15 1296,1393.5C 1291.42,1379.36 1286.59,1365.36 1281.5,1351.5C 1289.92,1350.12 1298.25,1350.62 1306.5,1353C 1314.11,1355.31 1321.28,1358.48 1328,1362.5C 1330.17,1362.17 1332.01,1361.17 1333.5,1359.5C 1334.6,1355.56 1334.77,1351.56 1334,1347.5C 1329.32,1321.47 1321.82,1296.3 1311.5,1272C 1317.33,1264.83 1323.17,1257.67 1329,1250.5C 1336.21,1257.19 1344.71,1261.36 1354.5,1263C 1369.13,1265.04 1383.8,1266.04 1398.5,1266C 1401.21,1264.14 1402.04,1261.64 1401,1258.5C 1391.28,1247.25 1383.78,1234.58 1378.5,1220.5C 1410.22,1218.55 1437.72,1206.88 1461,1185.5C 1462.17,1181.32 1460.67,1178.48 1456.5,1177C 1446.32,1176.04 1436.66,1173.37 1427.5,1169C 1443.67,1158.17 1457.17,1144.67 1468,1128.5C 1471.25,1123.58 1474.08,1118.41 1476.5,1113C 1476.11,1110.54 1474.78,1108.87 1472.5,1108C 1457.05,1109.31 1442.38,1106.47 1428.5,1099.5C 1433,1093.17 1437.5,1086.83 1442,1080.5C 1449.75,1066.85 1454.08,1052.18 1455,1036.5C 1455.67,1025.17 1455.67,1013.83 1455,1002.5C 1453.27,1001.42 1451.44,1001.26 1449.5,1002C 1442.29,1010.21 1435.45,1018.71 1429,1027.5C 1427.54,1021.22 1426.21,1014.89 1425,1008.5C 1423.64,1002.08 1421.31,996.084 1418,990.5C 1422.79,889.791 1405.46,793.124 1366,700.5C 1346.45,657.607 1317.95,621.774 1280.5,593C 1243.51,566.333 1202.51,557.667 1157.5,567C 1094.29,579.745 1049.29,615.245 1022.5,673.5C 995.123,677.427 968.79,684.927 943.5,696C 922.744,706.257 904.744,720.091 889.5,737.5C 883.769,730.038 879.602,721.705 877,712.5C 874.616,703.515 872.45,694.515 870.5,685.5C 865.883,681.942 861.216,682.108 856.5,686C 844.125,697.25 835.125,710.75 829.5,726.5C 816.829,714.512 807.662,700.178 802,683.5C 798.518,681.923 795.852,682.923 794,686.5C 785.112,701.223 773.612,713.556 759.5,723.5C 750.125,703.571 737.459,686.071 721.5,671C 711.449,663.808 700.449,658.475 688.5,655C 649.581,643.079 610.248,641.412 570.5,650C 542.695,657.618 514.695,664.285 486.5,670C 470.968,675.429 456.968,683.429 444.5,694C 409.414,727.642 384.58,767.809 370,814.5C 358.732,854.708 353.066,895.708 353,937.5C 350.173,980.926 353.173,1023.93 362,1066.5C 364.925,1079.44 368.759,1092.11 373.5,1104.5C 373,1104.83 372.5,1105.17 372,1105.5C 368.773,1104.14 365.606,1102.64 362.5,1101C 360.833,1100.33 359.167,1100.33 357.5,1101C 356.567,1118.8 359.734,1135.97 367,1152.5C 368.167,1154.33 369.333,1156.17 370.5,1158C 364.527,1158.91 358.527,1159.57 352.5,1160C 349.565,1160.1 348.231,1161.6 348.5,1164.5C 350.109,1169.95 353.442,1174.12 358.5,1177C 368.383,1181.28 378.716,1183.44 389.5,1183.5C 387.368,1198.73 382.535,1213.06 375,1226.5C 372.705,1229.8 370.038,1232.8 367,1235.5C 365.385,1240.09 366.885,1242.92 371.5,1244C 389.833,1243.98 407.833,1241.48 425.5,1236.5C 421.817,1258.53 412.317,1277.53 397,1293.5C 395.585,1298.08 397.251,1300.41 402,1300.5C 416.271,1296.79 430.771,1295.62 445.5,1297C 430.653,1318.53 418.819,1341.69 410,1366.5C 403.799,1385.1 401.799,1404.1 404,1423.5C 404.653,1426.82 406.653,1428.82 410,1429.5C 415.156,1425.68 420.323,1421.85 425.5,1418C 426.877,1416.76 428.21,1416.59 429.5,1417.5C 420.419,1455.69 427.252,1490.69 450,1522.5C 455.953,1530.79 462.286,1538.79 469,1546.5C 475.435,1563.81 487.935,1572.98 506.5,1574C 491.044,1600.15 483.377,1628.49 483.5,1659C 484.184,1670.23 485.017,1681.39 486,1692.5C 482.581,1689.15 478.748,1688.65 474.5,1691C 466.265,1695.19 459.098,1700.69 453,1707.5C 445.661,1696.33 442.161,1684 442.5,1670.5C 442.431,1665.07 443.098,1659.74 444.5,1654.5C 443.783,1650.48 441.45,1648.98 437.5,1650C 426.143,1658.19 418.31,1669.02 414,1682.5C 405.786,1673.88 401.453,1663.54 401,1651.5C 399.752,1642.86 399.418,1634.19 400,1625.5C 400.493,1620.35 401.993,1615.52 404.5,1611C 403.294,1606.11 400.294,1604.11 395.5,1605C 393.844,1606.83 391.844,1608.16 389.5,1609C 379.392,1612.42 369.058,1614.42 358.5,1615C 369.701,1597.07 375.867,1577.57 377,1556.5C 376.586,1556.04 376.086,1555.71 375.5,1555.5C 374.088,1556.81 372.421,1557.64 370.5,1558C 359.721,1569.55 346.721,1577.22 331.5,1581C 338.771,1568.85 342.604,1555.68 343,1541.5C 344.337,1522.54 342.67,1503.88 338,1485.5C 333.521,1480.72 328.688,1480.55 323.5,1485C 311.316,1495.53 301.649,1508.03 294.5,1522.5C 285.505,1506.69 281.671,1489.69 283,1471.5C 285.311,1449.9 291.644,1429.57 302,1410.5C 303.67,1405.5 302.004,1402.5 297,1401.5C 292.299,1404.6 287.132,1406.76 281.5,1408C 276.167,1408.67 270.833,1408.67 265.5,1408C 287.593,1389.98 300.426,1366.82 304,1338.5C 301.833,1335.71 298.999,1334.88 295.5,1336C 292.968,1339.56 290.801,1343.39 289,1347.5C 287,1349.5 285,1351.5 283,1353.5C 280.688,1326.27 275.188,1299.77 266.5,1274C 261.586,1272.02 257.42,1273.18 254,1277.5C 248.901,1285.36 244.568,1293.69 241,1302.5C 228.359,1259.05 234.359,1218.38 259,1180.5C 260.756,1175.59 259.089,1172.93 254,1172.5C 237.43,1175.19 220.93,1174.69 204.5,1171C 227.766,1151.71 244.933,1127.87 256,1099.5C 263.291,1079.97 269.124,1060.14 273.5,1040C 265.999,1038.7 258.332,1038.03 250.5,1038C 245.393,1037.51 240.393,1036.51 235.5,1035C 256.271,1016.22 272.438,994.056 284,968.5C 286.689,961.057 288.355,953.391 289,945.5C 292.342,943.83 294.509,941.164 295.5,937.5C 277.026,939.54 259.693,935.707 243.5,926C 224.874,913.041 208.874,897.375 195.5,879C 217.54,876.574 238.54,870.574 258.5,861C 275.288,850.546 289.121,837.046 300,820.5C 300.667,818.5 300.667,816.5 300,814.5C 293.802,806.436 289.469,797.436 287,787.5C 277.14,752.82 272.807,717.486 274,681.5C 275.002,665.151 277.836,649.151 282.5,633.5C 302.36,638.616 322.527,641.949 343,643.5C 355.688,643.371 368.188,641.871 380.5,639C 381.667,637.833 382.833,636.667 384,635.5C 382.219,627.003 381.052,618.337 380.5,609.5C 382.241,575.779 391.741,544.446 409,515.5C 422.033,494.785 437.7,476.118 456,459.5C 458.149,475.58 460.816,491.58 464,507.5C 466.041,515.104 470.874,517.937 478.5,516C 495.893,502.944 511.727,488.11 526,471.5C 549.818,445.218 569.152,415.884 584,383.5C 593.237,358.513 597.07,332.847 595.5,306.5C 620.7,321.2 642.7,339.7 661.5,362C 663.762,363.047 665.929,364.213 668,365.5C 669.261,365.241 670.261,364.574 671,363.5C 684.373,332.124 704.539,305.957 731.5,285C 782.258,246.79 838.591,220.124 900.5,205C 893.906,219.447 888.906,234.447 885.5,250C 886.393,257.159 890.393,259.492 897.5,257C 947.57,243.968 992.237,220.968 1031.5,188C 1040.37,180.796 1048.2,172.629 1055,163.5C 1070.34,180.172 1081.01,199.506 1087,221.5C 1090.27,225.32 1093.77,225.487 1097.5,222C 1129.94,194.115 1167.27,175.781 1209.5,167C 1226.86,163.666 1244.2,161.166 1261.5,159.5 Z"/></g>
<g><path style="opacity:1" fill="#96fbe3" d="M 1170.5,582.5 C 1217.34,580.267 1255.84,596.934 1286,632.5C 1320.26,678.388 1342.6,729.721 1353,786.5C 1369.25,875.412 1369.58,964.412 1354,1053.5C 1346.27,1099.69 1331.94,1143.69 1311,1185.5C 1295.09,1215.43 1274.59,1241.93 1249.5,1265C 1222.97,1287.93 1192.31,1302.26 1157.5,1308C 1129.35,1311.74 1102.35,1307.74 1076.5,1296C 1061.82,1286 1048.32,1274.5 1036,1261.5C 1017.21,1239.91 999.879,1217.25 984,1193.5C 963.077,1157.31 940.41,1122.31 916,1088.5C 894.625,1063.45 870.458,1041.62 843.5,1023C 800.11,998.79 755.444,996.123 709.5,1015C 689.274,1023.92 670.608,1035.25 653.5,1049C 645.833,1055.33 638.167,1061.67 630.5,1068C 602.5,1094 574.5,1120 546.5,1146C 533.597,1156.95 519.264,1165.62 503.5,1172C 484.359,1177.14 466.359,1174.48 449.5,1164C 432.87,1153.71 418.37,1140.88 406,1125.5C 401.333,1119.5 396.667,1113.5 392,1107.5C 378.497,1073.82 370.831,1038.82 369,1002.5C 364.678,951.01 366.011,899.676 373,848.5C 384.558,793.211 409.391,745.044 447.5,704C 476.571,676.233 510.571,667.899 549.5,679C 585.219,687.083 612.052,706.916 630,738.5C 644.245,763.997 659.245,788.997 675,813.5C 687.423,830.591 701.923,845.757 718.5,859C 767.68,888.647 819.013,892.647 872.5,871C 921.632,850.862 959.132,817.695 985,771.5C 995.529,751.109 1005.53,730.442 1015,709.5C 1029.67,684.157 1045.33,659.49 1062,635.5C 1091.71,604.563 1127.87,586.896 1170.5,582.5 Z"/></g>
<g><path style="opacity:1" fill="#8ae6d0" d="M 1227.5,580.5 C 1227.92,579.876 1228.58,579.543 1229.5,579.5C 1244.94,584.555 1259.28,591.722 1272.5,601C 1270.83,601.667 1269.17,601.667 1267.5,601C 1255.7,591.265 1242.36,584.432 1227.5,580.5 Z"/></g>
<g><path style="opacity:1" fill="#90f0d9" d="M 1275.5,608.5 C 1278.11,607.198 1280.77,607.364 1283.5,609C 1289.47,613.967 1295.14,619.301 1300.5,625C 1297.19,624.677 1293.86,624.011 1290.5,623C 1285.63,617.963 1280.63,613.13 1275.5,608.5 Z"/></g>
<g><path style="opacity:1" fill="#92f4dd" d="M 1296.5,631.5 C 1296.56,630.957 1296.89,630.624 1297.5,630.5C 1301.07,631.967 1304.74,633.134 1308.5,634C 1313.97,639.291 1318.97,644.958 1323.5,651C 1318.6,650.17 1313.6,649.337 1308.5,648.5C 1305.22,642.24 1301.22,636.574 1296.5,631.5 Z"/></g>
<g><path style="opacity:1" fill="#70bcaa" d="M 598.5,650.5 C 636.342,648.635 672.342,655.802 706.5,672C 723.813,684.089 737.313,699.589 747,718.5C 748.514,723.56 750.181,728.56 752,733.5C 755.887,736.131 759.72,735.965 763.5,733C 777.094,721.575 789.094,708.742 799.5,694.5C 806.187,711.018 816.187,725.185 829.5,737C 833.351,739.497 836.184,738.663 838,734.5C 842.07,717.014 850.736,702.347 864,690.5C 865.48,710.774 871.647,729.441 882.5,746.5C 880.685,750.13 878.851,753.797 877,757.5C 876.333,759.5 876.333,761.5 877,763.5C 877.893,764.081 878.893,764.415 880,764.5C 889.28,761.46 898.78,760.293 908.5,761C 893.441,770.726 880.274,782.559 869,796.5C 861.403,806.627 857.403,817.96 857,830.5C 857.717,837.579 861.383,840.246 868,838.5C 877.294,840.115 886.46,842.282 895.5,845C 856.198,868.395 814.198,875.395 769.5,866C 748.061,859.954 729.395,849.288 713.5,834C 706.468,827.303 699.802,820.303 693.5,813C 712.623,812.797 731.623,814.297 750.5,817.5C 755.684,818.485 757.517,816.485 756,811.5C 745.283,790.438 731.116,771.938 713.5,756C 720.14,753.679 726.64,751.179 733,748.5C 733.667,746.833 733.667,745.167 733,743.5C 723.28,735.38 712.447,728.88 700.5,724C 691.517,720.728 682.517,717.562 673.5,714.5C 685.32,710.171 697.32,706.338 709.5,703C 711.282,700.757 711.782,698.257 711,695.5C 676.661,675.607 639.828,662.441 600.5,656C 592.178,655.191 583.845,654.525 575.5,654C 583.279,652.59 590.946,651.424 598.5,650.5 Z"/></g>
<g><path style="opacity:1" fill="#93f5de" d="M 1312.5,654.5 C 1318.87,656.438 1325.03,658.771 1331,661.5C 1337.42,670.364 1342.76,679.698 1347,689.5C 1340.6,688.087 1334.27,686.421 1328,684.5C 1323.06,674.29 1317.9,664.29 1312.5,654.5 Z"/></g>
<g><path style="opacity:1" fill="#fdfdfc" d="M 558.5,662.5 C 580.579,661.534 602.245,664.034 623.5,670C 647.974,676.876 671.307,686.376 693.5,698.5C 682.463,704.013 671.13,708.846 659.5,713C 658.009,715.022 658.342,716.688 660.5,718C 681.14,722.571 699.973,731.071 717,743.5C 717.591,744.483 717.257,745.15 716,745.5C 710.954,746.734 706.287,748.734 702,751.5C 701.333,752.833 701.333,754.167 702,755.5C 719.718,770.552 734.551,788.052 746.5,808C 726.315,805.274 705.982,803.94 685.5,804C 679.333,796.5 673.167,789 667,781.5C 653.667,760.833 640.333,740.167 627,719.5C 609.28,695.876 586.114,680.042 557.5,672C 550.176,670.102 542.842,668.269 535.5,666.5C 543.21,664.605 550.876,663.272 558.5,662.5 Z"/></g>
<g><path style="opacity:1" fill="#fdfdfc" d="M 1013.5,683.5 C 1014.87,683.343 1016.21,683.51 1017.5,684C 1005.89,707.392 994.388,730.892 983,754.5C 970.013,778.613 953.513,800.113 933.5,819C 924.782,826.052 915.782,832.719 906.5,839C 894.249,835.754 881.915,832.587 869.5,829.5C 870.094,821.552 872.594,814.219 877,807.5C 889.91,789.592 905.743,774.758 924.5,763C 926.134,762.506 927.801,762.34 929.5,762.5C 928.866,756.189 925.533,753.856 919.5,755.5C 909.202,753.602 898.869,753.102 888.5,754C 914.001,722.733 946.334,701.733 985.5,691C 994.955,688.472 1004.29,685.972 1013.5,683.5 Z"/></g>
<g><path style="opacity:1" fill="#94f7df" d="M 1331.5,691.5 C 1337.79,692.804 1344.12,693.971 1350.5,695C 1354.55,702.495 1358.22,710.161 1361.5,718C 1354.33,716.005 1346.99,714.505 1339.5,713.5C 1337.43,705.949 1334.76,698.616 1331.5,691.5 Z"/></g>
<g><path style="opacity:1" fill="#94f7df" d="M 1342.5,719.5 C 1349.96,721.432 1357.3,723.766 1364.5,726.5C 1367.98,732.924 1369.98,739.591 1370.5,746.5C 1363.5,743.25 1356.17,741.25 1348.5,740.5C 1346.66,733.456 1344.66,726.456 1342.5,719.5 Z"/></g>
<g><path style="opacity:1" fill="#93f6df" d="M 1350.5,745.5 C 1358.8,747.816 1366.8,750.983 1374.5,755C 1375.93,758.444 1377.26,761.944 1378.5,765.5C 1377.83,765.833 1377.17,766.167 1376.5,766.5C 1369.62,764.881 1362.62,764.048 1355.5,764C 1353.6,757.908 1351.94,751.741 1350.5,745.5 Z"/></g>
<g><path style="opacity:1" fill="#94f8e0" d="M 1355.5,766.5 C 1363.45,770.984 1371.95,773.984 1381,775.5C 1384.13,784.678 1386.63,794.012 1388.5,803.5C 1379.89,799.764 1370.89,797.43 1361.5,796.5C 1360.4,786.311 1358.4,776.311 1355.5,766.5 Z"/></g>
<g><path style="opacity:1" fill="#040604" d="M 1088.5,799.5 C 1132.58,796.626 1168.08,812.626 1195,847.5C 1206.55,863.077 1215.55,880.077 1222,898.5C 1226.31,914.299 1227.31,930.299 1225,946.5C 1222.65,980.211 1211.99,1010.88 1193,1038.5C 1173.22,1065.48 1146.72,1081.31 1113.5,1086C 1106.46,1086.66 1099.46,1086.33 1092.5,1085C 1082.12,1081.98 1071.79,1078.98 1061.5,1076C 1050.16,1072.5 1039.83,1067.17 1030.5,1060C 986.374,1019.61 971.208,970.108 985,911.5C 995.303,864.558 1021.47,829.725 1063.5,807C 1071.8,803.953 1080.13,801.453 1088.5,799.5 Z"/></g>
<g><path style="opacity:1" fill="#94f8e0" d="M 1363.5,803.5 C 1372.3,806.617 1381.3,808.95 1390.5,810.5C 1392.48,818.076 1393.65,825.743 1394,833.5C 1386.02,827.557 1377.19,825.224 1367.5,826.5C 1365.98,818.86 1364.65,811.193 1363.5,803.5 Z"/></g>
<g><path style="opacity:1" fill="#92f5dd" d="M 1105.5,825.5 C 1101.33,826.624 1097,827.624 1092.5,828.5C 1091.5,828.167 1090.5,827.833 1089.5,827.5C 1086.42,820.991 1082.58,814.991 1078,809.5C 1076.68,817.211 1078.84,824.044 1084.5,830C 1081.79,831.069 1079.13,832.236 1076.5,833.5C 1073.35,826.521 1069.68,819.855 1065.5,813.5C 1072.93,809.303 1080.93,806.803 1089.5,806C 1097.49,805.5 1105.49,805.334 1113.5,805.5C 1113.88,812.985 1115.88,819.985 1119.5,826.5C 1114.83,827.057 1110.16,826.724 1105.5,825.5 Z"/></g>
<g><path style="opacity:1" fill="#121916" d="M 1105.5,825.5 C 1099.44,821.94 1094.94,816.94 1092,810.5C 1091.22,809.056 1091.39,807.723 1092.5,806.5C 1098.57,811.639 1102.9,817.972 1105.5,825.5 Z"/></g>
<g><path style="opacity:1" fill="#92f3dc" d="M 1117.5,806.5 C 1121.87,807.344 1126.21,808.344 1130.5,809.5C 1131.99,818.16 1135.33,825.994 1140.5,833C 1135.01,831.75 1129.51,830.25 1124,828.5C 1121.72,821.177 1119.56,813.843 1117.5,806.5 Z"/></g>
<g><path style="opacity:1" fill="#93f6df" d="M 1135.5,811.5 C 1142.33,814.167 1148.83,817.5 1155,821.5C 1156.64,831.282 1160.81,839.782 1167.5,847C 1160.01,843.255 1152.34,839.422 1144.5,835.5C 1142.29,827.189 1139.29,819.189 1135.5,811.5 Z"/></g>
<g><path style="opacity:1" fill="#050807" d="M 564.5,815.5 C 607.334,813.536 638.5,831.536 658,869.5C 667.511,893.705 670.178,918.705 666,944.5C 661.818,978.693 647.652,1007.86 623.5,1032C 600.031,1052.57 572.698,1060.57 541.5,1056C 504.372,1048.54 479.205,1027.04 466,991.5C 450.294,931.627 465.46,881.127 511.5,840C 527.462,828.017 545.128,819.851 564.5,815.5 Z"/></g>
<g><path style="opacity:1" fill="#94f7e0" d="M 1060.5,814.5 C 1062.43,819.687 1064.93,824.687 1068,829.5C 1069.54,831.378 1071.38,832.878 1073.5,834C 1069.08,836.627 1064.58,839.127 1060,841.5C 1056.58,835.011 1052.42,829.011 1047.5,823.5C 1051.58,820.085 1055.91,817.085 1060.5,814.5 Z"/></g>
<g><path style="opacity:1" fill="#91f3dc" d="M 571.5,822.5 C 576.167,822.5 580.833,822.5 585.5,822.5C 585.963,828.252 588.629,832.752 593.5,836C 585.48,836.557 577.48,836.89 569.5,837C 566.405,832.715 562.405,829.882 557.5,828.5C 557.343,829.873 557.51,831.207 558,832.5C 560.795,834.293 563.295,836.46 565.5,839C 560.794,840.735 556.127,842.569 551.5,844.5C 548.392,839.888 544.725,835.722 540.5,832C 550.553,827.479 560.886,824.312 571.5,822.5 Z"/></g>
<g><path style="opacity:1" fill="#91f2db" d="M 591.5,825.5 C 602.855,825.813 613.188,829.646 622.5,837C 616.92,836.028 611.253,835.195 605.5,834.5C 603.241,834.532 601.075,834.866 599,835.5C 597.021,831.7 594.521,828.366 591.5,825.5 Z"/></g>
<g><path style="opacity:1" fill="#93f5de" d="M 1042.5,826.5 C 1046.59,832.758 1051.93,837.924 1058.5,842C 1054.83,844.5 1051.17,847 1047.5,849.5C 1042.94,844.727 1038.61,839.727 1034.5,834.5C 1036.88,831.452 1039.55,828.785 1042.5,826.5 Z"/></g>
<g><path style="opacity:1" fill="#91f2db" d="M 1163.5,827.5 C 1169.43,831.924 1174.93,836.924 1180,842.5C 1180.21,843.803 1180.04,845.136 1179.5,846.5C 1181.54,851.438 1183.04,856.438 1184,861.5C 1179.44,857.142 1174.61,853.142 1169.5,849.5C 1168.32,841.926 1166.32,834.593 1163.5,827.5 Z"/></g>
<g><path style="opacity:1" fill="#93f6de" d="M 536.5,833.5 C 540.25,837.428 543.917,841.595 547.5,846C 542.5,849.167 537.5,852.333 532.5,855.5C 528.77,850.796 524.103,847.296 518.5,845C 524.395,840.893 530.395,837.059 536.5,833.5 Z"/></g>
<g><path style="opacity:1" fill="#fdfdfc" d="M 1100.5,844.5 C 1139.92,841.962 1170.76,856.962 1193,889.5C 1198.97,901.956 1201.81,915.123 1201.5,929C 1201.27,946.602 1198.44,963.768 1193,980.5C 1193.43,967.848 1193.43,955.181 1193,942.5C 1191.23,920.795 1182.4,902.628 1166.5,888C 1154.28,879.575 1140.95,877.242 1126.5,881C 1106.66,886.003 1090.82,896.836 1079,913.5C 1056.5,947.54 1052.17,983.873 1066,1022.5C 1068.05,1027.21 1070.88,1031.38 1074.5,1035C 1070.53,1037.14 1067.2,1039.98 1064.5,1043.5C 1039.29,1025.09 1026.12,1000.09 1025,968.5C 1022.5,932.155 1032.5,899.821 1055,871.5C 1066.83,856.675 1082,847.675 1100.5,844.5 Z"/></g>
<g><path style="opacity:1" fill="#70bcaa" d="M 577.5,845.5 C 587.172,845.334 596.839,845.5 606.5,846C 632.363,851.531 647.863,867.364 653,893.5C 660.214,936.967 651.214,976.634 626,1012.5C 612.83,1028.16 596.33,1038.33 576.5,1043C 546.973,1045.12 524.473,1033.62 509,1008.5C 490.015,970.52 491.349,933.187 513,896.5C 528.238,871.413 549.738,854.413 577.5,845.5 Z"/></g>
<g><path style="opacity:1" fill="#93f6df" d="M 515.5,846.5 C 519.257,851.087 523.59,855.254 528.5,859C 523.685,862.648 519.352,866.815 515.5,871.5C 510.975,867.808 506.308,864.308 501.5,861C 506.37,856.298 511.037,851.465 515.5,846.5 Z"/></g>
<g><path style="opacity:1" fill="#6eb9a7" d="M 1078.5,840.5 C 1080.53,840.338 1082.53,840.505 1084.5,841C 1065.35,848.809 1050.52,861.643 1040,879.5C 1022.28,909.433 1015.28,941.766 1019,976.5C 1025.3,1024.99 1052.13,1054.83 1099.5,1066C 1120.3,1067.4 1138.96,1061.73 1155.5,1049C 1182.52,1025.15 1199.35,995.32 1206,959.5C 1207.79,949.228 1209.13,938.895 1210,928.5C 1216.87,972.05 1205.87,1010.38 1177,1043.5C 1161.3,1059.51 1142.47,1070.01 1120.5,1075C 1095.49,1077.99 1073.49,1071.33 1054.5,1055C 1011.53,1013.63 999.032,964.463 1017,907.5C 1024.59,888.575 1036.09,872.408 1051.5,859C 1060.4,852.58 1069.4,846.413 1078.5,840.5 Z"/></g>
<g><path style="opacity:1" fill="#8fefd8" d="M 1185.5,849.5 C 1192.31,857.753 1198.14,866.753 1203,876.5C 1203.67,879.167 1203.67,881.833 1203,884.5C 1200.16,879.481 1196.82,874.814 1193,870.5C 1190.79,863.374 1188.29,856.374 1185.5,849.5 Z"/></g>
<g><path style="opacity:1" fill="#94f8e0" d="M 1367.5,827.5 C 1376.79,832.152 1386.46,835.819 1396.5,838.5C 1396.76,843.053 1397.43,847.553 1398.5,852C 1398.17,853.167 1397.83,854.333 1397.5,855.5C 1390.05,851.136 1382.05,849.303 1373.5,850C 1372.09,850.368 1371.09,851.201 1370.5,852.5C 1379.77,857.647 1389.61,861.314 1400,863.5C 1401.5,870.834 1402,878.167 1401.5,885.5C 1392.44,879.358 1382.6,876.025 1372,875.5C 1370.23,859.519 1368.73,843.519 1367.5,827.5 Z"/></g>
<g><path style="opacity:1" fill="#93f5dd" d="M 1030.5,837.5 C 1032.92,843.814 1036.92,848.98 1042.5,853C 1038.61,856.887 1034.78,860.721 1031,864.5C 1028.29,860.908 1025.45,857.408 1022.5,854C 1021.21,853.51 1019.87,853.343 1018.5,853.5C 1018.34,854.873 1018.51,856.207 1019,857.5C 1022.02,860.683 1025.18,863.683 1028.5,866.5C 1022.93,872.636 1018.1,879.302 1014,886.5C 1012.28,881.451 1009.12,877.618 1004.5,875C 1011.33,861.163 1019.99,848.663 1030.5,837.5 Z"/></g>
<g><path style="opacity:1" fill="#93f6de" d="M 499.5,862.5 C 503.822,866.827 507.822,871.494 511.5,876.5C 507.747,880.756 504.58,885.423 502,890.5C 498.601,884.759 493.768,880.925 487.5,879C 491.718,873.622 495.718,868.122 499.5,862.5 Z"/></g>
<g><path style="opacity:1" fill="#70bcaa" d="M 1678.5,871.5 C 1701.75,870.607 1724.42,873.774 1746.5,881C 1778.79,893.385 1806.96,911.885 1831,936.5C 1872.87,989.968 1889.87,1050.63 1882,1118.5C 1874.64,1206.13 1831.14,1267.97 1751.5,1304C 1708.7,1320.65 1667.36,1317.65 1627.5,1295C 1602.56,1280.39 1581.72,1261.23 1565,1237.5C 1562.98,1235.32 1560.82,1233.32 1558.5,1231.5C 1557.62,1208.14 1557.12,1184.81 1557,1161.5C 1574.78,1167.99 1592.95,1169.49 1611.5,1166C 1615.21,1163.4 1616.38,1159.9 1615,1155.5C 1589.1,1132.06 1571.6,1103.39 1562.5,1069.5C 1577.24,1070.32 1591.9,1068.82 1606.5,1065C 1613.44,1063.42 1616.27,1059.26 1615,1052.5C 1589.92,1017.77 1582.25,979.436 1592,937.5C 1593.37,929.341 1595.37,921.341 1598,913.5C 1598.88,910.898 1600.38,908.731 1602.5,907C 1624.19,887.323 1649.52,875.489 1678.5,871.5 Z"/></g>
<g><path style="opacity:1" fill="#94f7df" d="M 1371.5,877.5 C 1380.87,884.846 1391.53,888.846 1403.5,889.5C 1404.12,896.164 1404.29,902.831 1404,909.5C 1394.09,904.562 1383.59,901.562 1372.5,900.5C 1372.6,892.809 1372.26,885.142 1371.5,877.5 Z"/></g>
<g><path style="opacity:1" fill="#040603" d="M 534.5,881.5 C 537.649,881.211 540.649,881.711 543.5,883C 569.636,906.803 594.803,931.636 619,957.5C 620.422,960.03 620.755,962.697 620,965.5C 611.926,972.452 603.759,979.286 595.5,986C 578.833,997.333 562.167,1008.67 545.5,1020C 540.726,1023.42 536.226,1023.25 532,1019.5C 531.07,1016.15 531.903,1013.32 534.5,1011C 556.143,994.179 578.143,977.846 600.5,962C 573.517,959.468 546.517,957.135 519.5,955C 513.491,954.999 511.324,952.166 513,946.5C 514.171,945.107 515.671,944.273 517.5,944C 527.833,943.333 538.167,943.333 548.5,944C 561.236,945.142 573.903,946.142 586.5,947C 568.305,929.138 550.471,910.972 533,892.5C 530.771,888.429 531.271,884.762 534.5,881.5 Z"/></g>
<g><path style="opacity:1" fill="#91f3dc" d="M 1001.5,880.5 C 1005.17,883 1008.83,885.5 1012.5,888C 1009.86,893.441 1007.36,898.941 1005,904.5C 1001.78,901.62 998.95,898.453 996.5,895C 998.076,890.106 999.742,885.273 1001.5,880.5 Z"/></g>
<g><path style="opacity:1" fill="#94f7df" d="M 485.5,881.5 C 490.019,885.853 494.685,890.02 499.5,894C 496.62,900.259 493.62,906.426 490.5,912.5C 486.03,908.101 481.363,903.934 476.5,900C 479.391,893.719 482.391,887.553 485.5,881.5 Z"/></g>
<g><path style="opacity:1" fill="#fbfbfa" d="M 1118.5,891.5 C 1129.42,897.775 1132.26,906.775 1127,918.5C 1120.84,930.005 1111.68,933.839 1099.5,930C 1095.09,921.278 1095.75,912.945 1101.5,905C 1101.04,904.586 1100.71,904.086 1100.5,903.5C 1105.84,898.497 1111.84,894.497 1118.5,891.5 Z"/></g>
<g><path style="opacity:1" fill="#89e5cf" d="M 1208.5,890.5 C 1210.57,894.209 1211.74,898.209 1212,902.5C 1209.94,898.732 1208.78,894.732 1208.5,890.5 Z"/></g>
<g><path style="opacity:1" fill="#92f4dd" d="M 994.5,900.5 C 997.146,903.812 1000.15,906.812 1003.5,909.5C 1001.36,915.744 999.53,922.078 998,928.5C 996.084,926.791 993.918,925.457 991.5,924.5C 991.167,923.5 990.833,922.5 990.5,921.5C 991.36,914.395 992.694,907.395 994.5,900.5 Z"/></g>
<g><path style="opacity:1" fill="#95f8e1" d="M 1374.5,903.5 C 1384.06,909.443 1394.39,913.443 1405.5,915.5C 1405.93,921.176 1406.1,926.843 1406,932.5C 1396.21,927.103 1385.71,925.103 1374.5,926.5C 1373.17,918.833 1373.17,911.167 1374.5,903.5 Z"/></g>
<g><path style="opacity:1" fill="#92f5dd" d="M 473.5,905.5 C 478.797,909.116 484.131,912.782 489.5,916.5C 487.901,921.465 486.401,926.465 485,931.5C 479.955,926.949 474.788,922.616 469.5,918.5C 471.242,914.275 472.576,909.941 473.5,905.5 Z"/></g>
<g><path style="opacity:1" fill="#569082" d="M 1374.5,903.5 C 1373.17,911.167 1373.17,918.833 1374.5,926.5C 1374.44,927.043 1374.11,927.376 1373.5,927.5C 1372.17,919.167 1372.17,910.833 1373.5,902.5C 1374.11,902.624 1374.44,902.957 1374.5,903.5 Z"/></g>
<g><path style="opacity:1" fill="#94f7e0" d="M 482.5,951.5 C 481.833,954.5 481.167,957.5 480.5,960.5C 475.862,957.511 471.195,954.511 466.5,951.5C 464.97,941.552 465.97,931.885 469.5,922.5C 473.896,927.066 478.729,931.066 484,934.5C 483.107,940.05 482.607,945.717 482.5,951.5 Z"/></g>
<g><path style="opacity:1" fill="#92f5dd" d="M 989.5,928.5 C 991.954,930.06 994.62,931.06 997.5,931.5C 996.876,938.482 996.376,945.482 996,952.5C 994.261,950.259 992.094,948.592 989.5,947.5C 988.345,941.166 988.345,934.832 989.5,928.5 Z"/></g>
<g><path style="opacity:1" fill="#94f7e0" d="M 1372.5,931.5 C 1383.31,936.367 1394.64,938.367 1406.5,937.5C 1406.83,943.868 1406.5,950.202 1405.5,956.5C 1395.24,950.636 1384.24,948.303 1372.5,949.5C 1372.5,943.5 1372.5,937.5 1372.5,931.5 Z"/></g>
<g><path style="opacity:1" fill="#70bcaa" d="M 227.5,933.5 C 236.863,938.513 246.53,943.013 256.5,947C 263.694,948.943 271.027,949.943 278.5,950C 269.834,973.178 257,993.678 240,1011.5C 231.977,1018.52 224.311,1025.86 217,1033.5C 215.655,1039.31 217.822,1043.14 223.5,1045C 236.125,1046.35 248.791,1046.85 261.5,1046.5C 260.053,1056.51 257.386,1066.17 253.5,1075.5C 224.03,1072.82 201.197,1083.82 185,1108.5C 182.755,1111.89 181.755,1115.56 182,1119.5C 183.616,1114.22 186.449,1109.72 190.5,1106C 205.989,1092.61 223.989,1085.95 244.5,1086C 246.256,1086.2 247.922,1086.7 249.5,1087.5C 236.746,1121.41 215.579,1148.75 186,1169.5C 184.542,1173.78 185.708,1176.95 189.5,1179C 199.811,1181.31 210.145,1183.47 220.5,1185.5C 216.717,1197.16 216.884,1208.82 221,1220.5C 222.618,1224.28 225.118,1227.28 228.5,1229.5C 220.921,1260.8 223.755,1291.13 237,1320.5C 238.5,1322 240,1323.5 241.5,1325C 244.347,1325.94 246.847,1325.44 249,1323.5C 249.826,1311.86 253.326,1301.19 259.5,1291.5C 264.546,1304.02 267.546,1317.02 268.5,1330.5C 237.802,1341.71 209.802,1336.87 184.5,1316C 162.623,1295.09 147.79,1269.93 140,1240.5C 130.151,1198.27 127.818,1155.61 133,1112.5C 140.728,1055.93 162.394,1005.59 198,961.5C 207.426,951.569 217.26,942.236 227.5,933.5 Z"/></g>
<g><path style="opacity:1" fill="#92f4dd" d="M 988.5,953.5 C 990.993,954.774 993.659,955.44 996.5,955.5C 996.88,964.294 997.713,972.961 999,981.5C 996.579,980.039 994.079,978.706 991.5,977.5C 989.192,969.678 988.192,961.678 988.5,953.5 Z"/></g>
<g><path style="opacity:1" fill="#95f9e1" d="M 1371.5,954.5 C 1374.6,956.145 1377.93,957.312 1381.5,958C 1389.83,958.5 1398.16,958.666 1406.5,958.5C 1406.5,964.167 1406.5,969.833 1406.5,975.5C 1394.91,973.694 1383.24,972.694 1371.5,972.5C 1371.5,966.5 1371.5,960.5 1371.5,954.5 Z"/></g>
<g><path style="opacity:1" fill="#94f7df" d="M 465.5,956.5 C 470.779,959.476 476.112,962.476 481.5,965.5C 483.412,974.563 485.246,983.563 487,992.5C 481.657,988.911 475.823,986.577 469.5,985.5C 467.047,975.996 465.714,966.329 465.5,956.5 Z"/></g>
<g><path style="opacity:1" fill="#538b7e" d="M 482.5,951.5 C 482.82,954.898 482.487,958.232 481.5,961.5C 480.893,961.376 480.56,961.043 480.5,960.5C 481.167,957.5 481.833,954.5 482.5,951.5 Z"/></g>
<g><path style="opacity:1" fill="#94f7df" d="M 1370.5,976.5 C 1381.97,979.467 1393.64,980.801 1405.5,980.5C 1405.66,989.278 1404.82,997.945 1403,1006.5C 1392.56,1000.9 1381.39,998.563 1369.5,999.5C 1369.6,991.821 1369.93,984.154 1370.5,976.5 Z"/></g>
<g><path style="opacity:1" fill="#92f4dd" d="M 992.5,983.5 C 995.259,984.642 997.926,985.976 1000.5,987.5C 1002.6,995.04 1005.27,1002.37 1008.5,1009.5C 1005.32,1010.61 1002.49,1009.95 1000,1007.5C 996.388,999.832 993.888,991.832 992.5,983.5 Z"/></g>
<g><path style="opacity:1" fill="#020403" d="M 1687.5,989.5 C 1711.59,989.361 1732.92,996.861 1751.5,1012C 1767.38,1025.27 1779.21,1041.44 1787,1060.5C 1788.96,1065.01 1789.63,1069.67 1789,1074.5C 1788.11,1075.71 1787.27,1075.71 1786.5,1074.5C 1771.73,1039.23 1746.06,1016.06 1709.5,1005C 1678.75,999.631 1655.25,1010.13 1639,1036.5C 1627.43,1058.94 1623.76,1082.6 1628,1107.5C 1648.92,1094.04 1671.75,1089.2 1696.5,1093C 1729.29,1098.47 1753.79,1115.64 1770,1144.5C 1779.9,1168.69 1774.73,1188.86 1754.5,1205C 1729.24,1217.61 1703.91,1217.61 1678.5,1205C 1645,1185.12 1624.16,1155.95 1616,1117.5C 1610.76,1088 1614.43,1059.67 1627,1032.5C 1639.95,1007.95 1660.12,993.613 1687.5,989.5 Z"/></g>
<g><path style="opacity:1" fill="#93f5de" d="M 471.5,990.5 C 477.668,993.75 484.002,996.75 490.5,999.5C 493.623,1008.07 497.456,1016.07 502,1023.5C 496.127,1021.55 490.46,1019.21 485,1016.5C 479.709,1008.25 475.209,999.585 471.5,990.5 Z"/></g>
<g><path style="opacity:1" fill="#95f9e1" d="M 1368.5,1002.5 C 1380.01,1005.19 1391.68,1006.86 1403.5,1007.5C 1402.54,1015.89 1401.21,1024.22 1399.5,1032.5C 1388.93,1028.11 1377.93,1025.77 1366.5,1025.5C 1367.02,1017.82 1367.69,1010.15 1368.5,1002.5 Z"/></g>
<g><path style="opacity:1" fill="#93f5de" d="M 752.5,1011.5 C 762.526,1011.24 772.526,1011.58 782.5,1012.5C 783.5,1012.83 784.5,1013.17 785.5,1013.5C 786.034,1015.61 787.034,1017.45 788.5,1019C 776.563,1019.15 764.73,1020.32 753,1022.5C 749.896,1020.34 747.73,1017.34 746.5,1013.5C 748.631,1012.83 750.631,1012.16 752.5,1011.5 Z"/></g>
<g><path style="opacity:1" fill="#70bba9" d="M 1414.5,1010.5 C 1415.12,1010.61 1415.62,1010.94 1416,1011.5C 1417.98,1018.76 1419.65,1026.1 1421,1033.5C 1422.94,1038.7 1426.44,1039.87 1431.5,1037C 1438.41,1030.76 1444.57,1023.93 1450,1016.5C 1450.19,1038.42 1444.19,1058.42 1432,1076.5C 1426.33,1082.83 1420.67,1089.17 1415,1095.5C 1411.38,1100.17 1411.88,1104.34 1416.5,1108C 1431.56,1114.35 1447.22,1118.35 1463.5,1120C 1454.29,1135.88 1442.29,1149.21 1427.5,1160C 1405.61,1165.19 1404.95,1172.19 1425.5,1181C 1431.77,1183.2 1438.11,1185.2 1444.5,1187C 1430.52,1197.82 1414.85,1205.16 1397.5,1209C 1389.1,1209.84 1380.77,1210.84 1372.5,1212C 1370.12,1213.51 1369.12,1215.68 1369.5,1218.5C 1371.82,1232.14 1377.15,1244.48 1385.5,1255.5C 1371.38,1256.52 1357.71,1254.36 1344.5,1249C 1340.83,1246.67 1337.83,1243.67 1335.5,1240C 1379.83,1169.86 1406.16,1093.36 1414.5,1010.5 Z"/></g>
<g><path style="opacity:1" fill="#89e5cf" d="M 795.5,1014.5 C 804.702,1016.22 813.702,1018.72 822.5,1022C 813.599,1020.7 804.599,1019.86 795.5,1019.5C 795.5,1017.83 795.5,1016.17 795.5,1014.5 Z"/></g>
<g><path style="opacity:1" fill="#91f2db" d="M 1004.5,1014.5 C 1006.79,1014.24 1008.96,1014.58 1011,1015.5C 1014.12,1021.58 1017.62,1027.42 1021.5,1033C 1017.71,1033.02 1014.54,1031.52 1012,1028.5C 1009.22,1023.94 1006.72,1019.27 1004.5,1014.5 Z"/></g>
<g><path style="opacity:1" fill="#93f5de" d="M 736.5,1014.5 C 739.218,1017.72 742.218,1020.89 745.5,1024C 739.402,1025.52 733.402,1027.36 727.5,1029.5C 725.5,1026.5 723.5,1023.5 721.5,1020.5C 726.418,1018.09 731.418,1016.09 736.5,1014.5 Z"/></g>
<g><path style="opacity:1" fill="#93f6de" d="M 712.5,1022.5 C 713.675,1022.28 714.675,1022.61 715.5,1023.5C 716.666,1026.5 718.333,1029.17 720.5,1031.5C 712.127,1035.44 703.961,1039.77 696,1044.5C 694.989,1040.63 693.489,1036.97 691.5,1033.5C 698.435,1029.53 705.435,1025.87 712.5,1022.5 Z"/></g>
<g><path style="opacity:1" fill="#8ff0d9" d="M 491.5,1024.5 C 491.56,1023.96 491.893,1023.62 492.5,1023.5C 497.071,1026.41 502.071,1028.25 507.5,1029C 514.427,1036.46 522.427,1042.46 531.5,1047C 515.989,1043.41 502.655,1035.91 491.5,1024.5 Z"/></g>
<g><path style="opacity:1" fill="#6fbba9" d="M 1123.5,1025.5 C 1133.17,1025.33 1142.84,1025.5 1152.5,1026C 1157.17,1026.11 1161.51,1027.28 1165.5,1029.5C 1138.22,1061.75 1106.22,1067.58 1069.5,1047C 1076.07,1041.44 1083.4,1037.11 1091.5,1034C 1102.05,1030.2 1112.72,1027.36 1123.5,1025.5 Z"/></g>
<g><path style="opacity:1" fill="#70bcaa" d="M 769.5,1033.5 C 801.97,1029.56 831.636,1036.72 858.5,1055C 879.333,1070.5 897.5,1088.67 913,1109.5C 936.25,1145.66 959.25,1182 982,1218.5C 992.786,1232.95 1003.95,1247.12 1015.5,1261C 1001.56,1265.79 987.227,1268.79 972.5,1270C 862.432,1276.73 752.432,1275.73 642.5,1267C 588.344,1264.14 539.011,1247.47 494.5,1217C 518.941,1218.06 540.941,1211.39 560.5,1197C 569.934,1189.57 578.768,1181.4 587,1172.5C 615.095,1138.54 644.929,1106.04 676.5,1075C 703.308,1051.79 734.308,1037.95 769.5,1033.5 Z"/></g>
<g><path style="opacity:1" fill="#94f8e0" d="M 1364.5,1033.5 C 1376.02,1036.54 1387.68,1037.21 1399.5,1035.5C 1397.91,1043.12 1396.58,1050.79 1395.5,1058.5C 1384.64,1055.55 1373.64,1053.21 1362.5,1051.5C 1362.95,1045.47 1363.62,1039.47 1364.5,1033.5 Z"/></g>
<g><path style="opacity:1" fill="#93f5de" d="M 684.5,1036.5 C 685.653,1040.1 687.819,1043.1 691,1045.5C 691.667,1046.17 691.667,1046.83 691,1047.5C 684.715,1051.39 678.882,1055.89 673.5,1061C 672.833,1061.67 672.167,1061.67 671.5,1061C 670.04,1057.91 668.207,1055.08 666,1052.5C 665.333,1051.5 665.333,1050.5 666,1049.5C 671.971,1044.78 678.137,1040.44 684.5,1036.5 Z"/></g>
<g><path style="opacity:1" fill="#8debd5" d="M 1020.5,1040.5 C 1022.86,1039.32 1025.19,1039.65 1027.5,1041.5C 1033.28,1048.78 1039.62,1055.62 1046.5,1062C 1043.46,1061.67 1040.79,1060.34 1038.5,1058C 1031.97,1052.64 1025.97,1046.8 1020.5,1040.5 Z"/></g>
<g><path style="opacity:1" fill="#94f7df" d="M 659.5,1053.5 C 662.702,1056.84 665.702,1060.51 668.5,1064.5C 663.875,1068.62 659.375,1072.96 655,1077.5C 652.404,1073.07 649.238,1069.07 645.5,1065.5C 649.892,1061.1 654.558,1057.1 659.5,1053.5 Z"/></g>
<g><path style="opacity:1" fill="#95f9e1" d="M 1360.5,1056.5 C 1370.92,1061.52 1381.92,1063.85 1393.5,1063.5C 1392.28,1070.38 1390.45,1077.05 1388,1083.5C 1378.33,1079.2 1368.16,1076.86 1357.5,1076.5C 1358.76,1069.87 1359.76,1063.21 1360.5,1056.5 Z"/></g>
<g><path style="opacity:1" fill="#93f6df" d="M 639.5,1069.5 C 643.095,1073.43 646.761,1077.43 650.5,1081.5C 646.481,1085.68 642.647,1090.02 639,1094.5C 635.833,1089.5 632.667,1084.5 629.5,1079.5C 632.548,1075.79 635.881,1072.45 639.5,1069.5 Z"/></g>
<g><path style="opacity:1" fill="#93f5de" d="M 625.5,1081.5 C 628.083,1087.16 631.083,1092.66 634.5,1098C 630.347,1102.82 626.18,1107.66 622,1112.5C 618.748,1106.75 614.915,1101.41 610.5,1096.5C 615.215,1091.12 620.215,1086.12 625.5,1081.5 Z"/></g>
<g><path style="opacity:1" fill="#93f6de" d="M 1355.5,1083.5 C 1365.92,1086.57 1376.59,1088.23 1387.5,1088.5C 1385.43,1095.2 1383.27,1101.87 1381,1108.5C 1371.89,1103.35 1362.22,1101.02 1352,1101.5C 1352.52,1095.4 1353.69,1089.4 1355.5,1083.5 Z"/></g>
<g><path style="opacity:1" fill="#93f6de" d="M 606.5,1099.5 C 610.004,1105.03 614.004,1110.36 618.5,1115.5C 614.522,1120.65 610.355,1125.65 606,1130.5C 602.616,1123.79 598.45,1117.62 593.5,1112C 597.729,1107.6 602.062,1103.44 606.5,1099.5 Z"/></g>
<g><path style="opacity:1" fill="#95f8e1" d="M 1373.5,1111.5 C 1375.5,1112.17 1377.5,1112.83 1379.5,1113.5C 1376.64,1122.26 1373.47,1130.92 1370,1139.5C 1362.5,1135.61 1354.67,1132.61 1346.5,1130.5C 1345.1,1129.9 1344.1,1128.9 1343.5,1127.5C 1345.51,1119.64 1348.01,1111.97 1351,1104.5C 1358.15,1107.94 1365.65,1110.27 1373.5,1111.5 Z"/></g>
<g><path style="opacity:1" fill="#70bcaa" d="M 1665.5,1109.5 C 1698.98,1105.22 1727.15,1115.22 1750,1139.5C 1757.93,1148.35 1761.6,1158.69 1761,1170.5C 1756.35,1188.14 1744.85,1197.31 1726.5,1198C 1701.36,1199.29 1679.69,1191.29 1661.5,1174C 1647.25,1159.34 1637.25,1142.18 1631.5,1122.5C 1637.82,1120.35 1643.82,1117.51 1649.5,1114C 1654.87,1112.16 1660.21,1110.66 1665.5,1109.5 Z"/></g>
<g><path style="opacity:1" fill="#70bba9" d="M 484.5,1351.5 C 484.167,1351.5 483.833,1351.5 483.5,1351.5C 483.53,1350.5 483.03,1349.84 482,1349.5C 480.395,1350.1 479.062,1351.1 478,1352.5C 463.243,1374.76 453.577,1399.09 449,1425.5C 448.138,1439.2 448.472,1452.87 450,1466.5C 454.584,1482.67 461.584,1497.67 471,1511.5C 471.83,1517.53 471.664,1523.53 470.5,1529.5C 456.986,1513.48 446.819,1495.48 440,1475.5C 436.759,1461 435.759,1446.33 437,1431.5C 438.102,1423.46 439.102,1415.46 440,1407.5C 438.519,1404.92 436.352,1404.09 433.5,1405C 427.373,1407.9 421.373,1411.06 415.5,1414.5C 413.745,1395.29 416.245,1376.62 423,1358.5C 431.35,1337.46 442.017,1317.79 455,1299.5C 456.819,1292.98 454.319,1289.48 447.5,1289C 436.468,1288.45 425.468,1288.45 414.5,1289C 425.993,1271.21 432.66,1251.71 434.5,1230.5C 435.393,1226.54 433.893,1224.21 430,1223.5C 425.189,1226.32 420.022,1228.16 414.5,1229C 403.217,1231.72 391.884,1233.22 380.5,1233.5C 388.211,1218.53 394.044,1202.87 398,1186.5C 398.667,1183.5 398.667,1180.5 398,1177.5C 397.5,1176.33 396.667,1175.5 395.5,1175C 382.92,1174.85 370.92,1172.19 359.5,1167C 365.878,1166.24 372.211,1165.24 378.5,1164C 380.736,1163.27 382.069,1161.77 382.5,1159.5C 380.261,1155.75 377.427,1152.42 374,1149.5C 367.982,1137.43 364.815,1124.76 364.5,1111.5C 369.085,1113.69 373.751,1115.69 378.5,1117.5C 395.149,1156.82 422.483,1186.15 460.5,1205.5C 468.929,1254.08 476.929,1302.74 484.5,1351.5 Z"/></g>
<g><path style="opacity:1" fill="#395f56" d="M 1373.5,1111.5 C 1375.92,1111.19 1378.26,1111.53 1380.5,1112.5C 1380.38,1113.11 1380.04,1113.44 1379.5,1113.5C 1377.5,1112.83 1375.5,1112.17 1373.5,1111.5 Z"/></g>
<g><path style="opacity:1" fill="#93f5de" d="M 588.5,1115.5 C 589.376,1115.37 590.043,1115.7 590.5,1116.5C 593.508,1123.19 597.508,1129.19 602.5,1134.5C 598.481,1138.68 594.647,1143.02 591,1147.5C 586.889,1140.26 582.056,1133.6 576.5,1127.5C 580.854,1123.81 584.854,1119.81 588.5,1115.5 Z"/></g>
<g><path style="opacity:1" fill="#020403" d="M 696.5,1120.5 C 706.228,1119.16 715.228,1120.99 723.5,1126C 729.86,1131 732.193,1137.5 730.5,1145.5C 726.753,1145.61 723.086,1145.11 719.5,1144C 714.546,1140.71 709.88,1137.05 705.5,1133C 700.298,1130.91 695.631,1128.07 691.5,1124.5C 692.707,1122.46 694.374,1121.13 696.5,1120.5 Z"/></g>
<g><path style="opacity:1" fill="#4a7c70" d="M 1343.5,1127.5 C 1344.1,1128.9 1345.1,1129.9 1346.5,1130.5C 1345.21,1130.26 1344.21,1130.6 1343.5,1131.5C 1342.83,1131.5 1342.17,1131.5 1341.5,1131.5C 1341.99,1130 1342.66,1128.67 1343.5,1127.5 Z"/></g>
<g><path style="opacity:1" fill="#030605" d="M 812.5,1130.5 C 816.967,1130.13 821.3,1130.63 825.5,1132C 827.994,1134.42 827.994,1136.76 825.5,1139C 808.422,1142.05 791.422,1145.55 774.5,1149.5C 773.846,1145.32 775.512,1142.48 779.5,1141C 790.126,1135.96 801.126,1132.46 812.5,1130.5 Z"/></g>
<g><path style="opacity:1" fill="#94f7df" d="M 572.5,1130.5 C 576.761,1137.96 582.094,1144.79 588.5,1151C 583.116,1156.93 577.616,1162.76 572,1168.5C 568.789,1159.63 563.622,1152.13 556.5,1146C 562.337,1141.33 567.67,1136.16 572.5,1130.5 Z"/></g>
<g><path style="opacity:1" fill="#94f7e0" d="M 1341.5,1131.5 C 1342.17,1131.5 1342.83,1131.5 1343.5,1131.5C 1350.6,1136.82 1358.6,1140.32 1367.5,1142C 1367.96,1142.41 1368.29,1142.91 1368.5,1143.5C 1365.42,1150.65 1362.09,1157.65 1358.5,1164.5C 1350.31,1160.77 1341.97,1157.44 1333.5,1154.5C 1336.97,1147.1 1339.63,1139.43 1341.5,1131.5 Z"/></g>
<g><path style="opacity:1" fill="#8decd5" d="M 403.5,1131.5 C 414.529,1145.19 427.196,1157.19 441.5,1167.5C 444.121,1172.58 447.121,1177.41 450.5,1182C 440.161,1176.35 430.994,1168.85 423,1159.5C 415.741,1150.63 409.241,1141.3 403.5,1131.5 Z"/></g>
<g><path style="opacity:1" fill="#93f5de" d="M 552.5,1149.5 C 556.959,1157.38 562.626,1164.38 569.5,1170.5C 566.126,1174.88 562.126,1178.54 557.5,1181.5C 553.047,1173.43 548.713,1165.26 544.5,1157C 547.041,1154.29 549.708,1151.79 552.5,1149.5 Z"/></g>
<g><path style="opacity:1" fill="#94f7e0" d="M 1331.5,1158.5 C 1339.67,1162.95 1348.33,1166.11 1357.5,1168C 1354.17,1174.33 1350.83,1180.67 1347.5,1187C 1339.07,1184.97 1330.74,1182.3 1322.5,1179C 1326.47,1172.56 1329.47,1165.73 1331.5,1158.5 Z"/></g>
<g><path style="opacity:1" fill="#93f6df" d="M 539.5,1159.5 C 544.81,1167.43 550.143,1175.43 555.5,1183.5C 551.112,1187.22 546.445,1190.55 541.5,1193.5C 536.5,1185.5 531.5,1177.5 526.5,1169.5C 531.082,1166.39 535.416,1163.06 539.5,1159.5 Z"/></g>
<g><path style="opacity:1" fill="#93f6de" d="M 521.5,1171.5 C 525.068,1180.46 530.068,1188.62 536.5,1196C 531.999,1198 527.332,1199.5 522.5,1200.5C 521.558,1200.39 520.725,1200.06 520,1199.5C 516.8,1192.26 512.967,1185.43 508.5,1179C 513.08,1176.77 517.414,1174.27 521.5,1171.5 Z"/></g>
<g><path style="opacity:1" fill="#92f4dd" d="M 451.5,1173.5 C 459.032,1177.57 467.032,1180.23 475.5,1181.5C 477.125,1188.24 480.459,1194.08 485.5,1199C 476.953,1197.74 468.953,1194.74 461.5,1190C 458.27,1184.36 454.937,1178.86 451.5,1173.5 Z"/></g>
<g><path style="opacity:1" fill="#93f5de" d="M 502.5,1179.5 C 503.496,1179.41 504.329,1179.75 505,1180.5C 508.279,1188.44 513.112,1195.28 519.5,1201C 511.221,1202.5 502.888,1202.83 494.5,1202C 493.584,1201.63 492.75,1201.13 492,1200.5C 489.094,1194.44 485.594,1188.77 481.5,1183.5C 488.739,1182.71 495.739,1181.38 502.5,1179.5 Z"/></g>
<g><path style="opacity:1" fill="#6fbaa9" d="M 226.5,1185.5 C 232.206,1185.17 237.872,1185.5 243.5,1186.5C 238.45,1197.15 234.283,1208.15 231,1219.5C 225.698,1208.73 224.198,1197.4 226.5,1185.5 Z"/></g>
<g><path style="opacity:1" fill="#94f7e0" d="M 1319.5,1185.5 C 1327.48,1188.77 1335.48,1191.94 1343.5,1195C 1339.96,1201.25 1336.29,1207.42 1332.5,1213.5C 1325.25,1209.14 1317.58,1205.64 1309.5,1203C 1313.46,1197.54 1316.79,1191.7 1319.5,1185.5 Z"/></g>
<g><path style="opacity:1" fill="#93f6df" d="M 1306.5,1207.5 C 1313.91,1212.03 1321.91,1215.2 1330.5,1217C 1326.83,1222.67 1323.17,1228.33 1319.5,1234C 1314.31,1233.25 1309.31,1231.59 1304.5,1229C 1301.14,1228.27 1297.8,1227.44 1294.5,1226.5C 1298.77,1220.28 1302.77,1213.95 1306.5,1207.5 Z"/></g>
<g><path style="opacity:1" fill="#062622" d="M 468.5,1213.5 C 495.069,1233.46 524.069,1249.29 555.5,1261C 593.392,1271.87 632.059,1278.03 671.5,1279.5C 671.872,1301.71 682.872,1315.55 704.5,1321C 719.056,1322.82 731.223,1318.32 741,1307.5C 744.834,1302.5 748.167,1297.17 751,1291.5C 771.197,1326.84 799.031,1334.34 834.5,1314C 844.358,1306.81 852.024,1297.81 857.5,1287C 896.882,1286.92 936.215,1285.59 975.5,1283C 992.337,1281.73 1008.67,1278.23 1024.5,1272.5C 1078.44,1330.31 1144.11,1350.81 1221.5,1334C 1229.11,1331.85 1236.44,1329.02 1243.5,1325.5C 1242.32,1399.56 1231.49,1472.23 1211,1543.5C 1187.48,1544.56 1165.32,1550.72 1144.5,1562C 1124.6,1574.87 1103.94,1586.53 1082.5,1597C 1064.67,1604.96 1046,1609.46 1026.5,1610.5C 1019.38,1609.96 1012.54,1608.29 1006,1605.5C 1001.69,1582.22 992.023,1561.55 977,1543.5C 960.533,1524.36 940.7,1509.86 917.5,1500C 887.93,1486.69 856.93,1479.52 824.5,1478.5C 807.016,1479.16 789.849,1481.83 773,1486.5C 768.964,1484.48 765.464,1481.64 762.5,1478C 735.973,1459.96 706.639,1452.96 674.5,1457C 627.894,1464.47 587.227,1483.97 552.5,1515.5C 538.883,1506.44 527.049,1495.44 517,1482.5C 511.31,1469.41 507.643,1455.74 506,1441.5C 501.694,1402.36 496.361,1363.36 490,1324.5C 482.831,1287.48 475.664,1250.48 468.5,1213.5 Z"/></g>
<g><path style="opacity:1" fill="#93f6df" d="M 1292.5,1228.5 C 1293.95,1231.25 1296.28,1233.08 1299.5,1234C 1305.05,1235.97 1310.71,1237.47 1316.5,1238.5C 1313.07,1244.1 1309.07,1249.26 1304.5,1254C 1303.5,1254.67 1302.5,1254.67 1301.5,1254C 1294.89,1250.2 1288.23,1246.7 1281.5,1243.5C 1285.58,1238.76 1289.24,1233.76 1292.5,1228.5 Z"/></g>
<g><path style="opacity:1" fill="#94f8e0" d="M 1275.5,1249.5 C 1283.59,1253.21 1291.92,1256.38 1300.5,1259C 1295.32,1264.35 1289.99,1269.52 1284.5,1274.5C 1278.11,1269.64 1271.11,1265.8 1263.5,1263C 1268.1,1258.91 1272.1,1254.41 1275.5,1249.5 Z"/></g>
<g><path style="opacity:1" fill="#93f6df" d="M 1258.5,1267.5 C 1265.37,1272.1 1272.7,1275.94 1280.5,1279C 1274.44,1284.77 1267.94,1289.94 1261,1294.5C 1254.1,1289.8 1246.6,1286.3 1238.5,1284C 1245.42,1278.72 1252.09,1273.22 1258.5,1267.5 Z"/></g>
<g><path style="opacity:1" fill="#fcfcfb" d="M 680.5,1280.5 C 701.981,1281.48 723.315,1282.98 744.5,1285C 739.866,1295.97 732.199,1303.97 721.5,1309C 698.939,1312.38 685.273,1302.88 680.5,1280.5 Z"/></g>
<g><path style="opacity:1" fill="#70bba9" d="M 1302.5,1280.5 C 1311.92,1302.92 1319.25,1326.09 1324.5,1350C 1315.05,1347.22 1305.38,1344.89 1295.5,1343C 1288.83,1342.33 1282.17,1342.33 1275.5,1343C 1269.21,1343.95 1267.05,1347.45 1269,1353.5C 1278.44,1371.82 1285.11,1391.15 1289,1411.5C 1291.33,1424.79 1293,1438.13 1294,1451.5C 1283.06,1448.31 1271.89,1446.81 1260.5,1447C 1258.15,1449.13 1257.15,1451.8 1257.5,1455C 1261.75,1477 1263.08,1499.17 1261.5,1521.5C 1257.51,1518.17 1253.18,1515.34 1248.5,1513C 1244.91,1512.55 1242.41,1514.05 1241,1517.5C 1238.61,1529.18 1235.11,1540.52 1230.5,1551.5C 1227.46,1549.44 1224.46,1547.44 1221.5,1545.5C 1244.47,1472.23 1254.97,1397.23 1253,1320.5C 1271.43,1309.58 1287.93,1296.24 1302.5,1280.5 Z"/></g>
<g><path style="opacity:1" fill="#fcfcfb" d="M 755.5,1285.5 C 759.988,1284.83 764.654,1284.5 769.5,1284.5C 795.501,1285.29 821.501,1286.12 847.5,1287C 832.014,1310.08 810.681,1318.74 783.5,1313C 771.4,1306.62 762.067,1297.45 755.5,1285.5 Z"/></g>
<g><path style="opacity:1" fill="#94f8e0" d="M 1231.5,1288.5 C 1239.03,1292.1 1246.7,1295.43 1254.5,1298.5C 1245.77,1305.7 1235.93,1311.04 1225,1314.5C 1218.8,1310.65 1212.3,1307.15 1205.5,1304C 1214.73,1299.56 1223.39,1294.4 1231.5,1288.5 Z"/></g>
<g><path style="opacity:1" fill="#93f6df" d="M 1193.5,1308.5 C 1200.17,1312.16 1207.17,1315.33 1214.5,1318C 1201.11,1322.01 1187.44,1323.67 1173.5,1323C 1170.67,1320.75 1167.67,1318.75 1164.5,1317C 1174.6,1315.23 1184.26,1312.4 1193.5,1308.5 Z"/></g>
<g><path style="opacity:1" fill="#8ce9d3" d="M 1145.5,1318.5 C 1149.51,1318.33 1153.51,1318.5 1157.5,1319C 1159.35,1320.09 1161.02,1321.43 1162.5,1323C 1152.66,1323.73 1142.99,1322.73 1133.5,1320C 1137.69,1319.82 1141.69,1319.32 1145.5,1318.5 Z"/></g>
<g><path style="opacity:1" fill="#5dfdfd" d="M 483.5,1351.5 C 483.833,1351.5 484.167,1351.5 484.5,1351.5C 489.533,1383.24 493.7,1415.24 497,1447.5C 498.823,1457.95 501.157,1468.28 504,1478.5C 506.498,1484.99 509.832,1490.99 514,1496.5C 523.295,1506.47 533.129,1515.64 543.5,1524C 532.828,1535.85 522.994,1548.35 514,1561.5C 505.772,1563.38 497.938,1562.21 490.5,1558C 482.173,1552.49 478.84,1544.66 480.5,1534.5C 482.875,1523.38 481.708,1512.71 477,1502.5C 457.609,1476.86 451.276,1448.2 458,1416.5C 463.851,1393.78 472.351,1372.11 483.5,1351.5 Z"/></g>
<g><path style="opacity:1" fill="#e37782" d="M 681.5,1464.5 C 705.464,1462.75 728.131,1467.25 749.5,1478C 754.53,1481.18 759.196,1484.85 763.5,1489C 733.817,1501.08 708.984,1519.58 689,1544.5C 687.248,1547.67 685.248,1550.67 683,1553.5C 679.595,1562.29 680.261,1562.62 685,1554.5C 747.14,1488.67 820.64,1472.17 905.5,1505C 937.159,1517 962.659,1536.83 982,1564.5C 988.554,1575.49 992.72,1587.33 994.5,1600C 993.43,1602.81 992.097,1605.47 990.5,1608C 973.167,1608.33 955.833,1608.67 938.5,1609C 898.629,1611.51 862.962,1624.84 831.5,1649C 823.5,1655.67 815.5,1662.33 807.5,1669C 783.633,1693.87 760.133,1719.03 737,1744.5C 725.8,1755.37 714.3,1765.87 702.5,1776C 676.422,1794.36 647.422,1801.69 615.5,1798C 555.398,1791.9 516.231,1760.06 498,1702.5C 485.232,1651.43 493.899,1604.43 524,1561.5C 563.077,1507.7 615.577,1475.36 681.5,1464.5 Z"/></g>
<g><path style="opacity:1" fill="#5dfefe" d="M 1191.5,1554.5 C 1198.84,1554.33 1206.17,1554.5 1213.5,1555C 1218.58,1555.47 1222.75,1557.63 1226,1561.5C 1230.14,1568.11 1233.47,1575.11 1236,1582.5C 1236.89,1588.17 1235.89,1593.5 1233,1598.5C 1230.09,1603.13 1226.59,1607.3 1222.5,1611C 1199.64,1624.69 1180.14,1642.19 1164,1663.5C 1151.7,1676.24 1136.86,1684.74 1119.5,1689C 1105.49,1692 1091.49,1695 1077.5,1698C 1060.33,1707.87 1050.16,1722.7 1047,1742.5C 1046.34,1754.21 1046.84,1765.88 1048.5,1777.5C 1048.49,1786.03 1045.99,1793.7 1041,1800.5C 1026.13,1811 1013.46,1808.67 1003,1793.5C 998.803,1784.91 995.803,1775.91 994,1766.5C 991.687,1751.1 989.687,1735.44 988,1719.5C 985.243,1702.49 976.41,1689.65 961.5,1681C 949.171,1673.56 935.838,1668.89 921.5,1667C 888.74,1665.99 856.074,1666.66 823.5,1669C 856.171,1637.84 895.171,1620.51 940.5,1617C 956.688,1616.2 972.855,1616.37 989,1617.5C 993.621,1616.51 998.288,1615.84 1003,1615.5C 1019.53,1616.99 1036.03,1616.82 1052.5,1615C 1064.52,1611.99 1076.18,1607.99 1087.5,1603C 1110.66,1590.92 1133.66,1578.59 1156.5,1566C 1168.03,1561.38 1179.7,1557.54 1191.5,1554.5 Z"/></g>
<g><path style="opacity:1" fill="#70bbaa" d="M 895.5,1674.5 C 924.198,1671.79 949.031,1680.12 970,1699.5C 974.183,1704.87 977.017,1710.87 978.5,1717.5C 913.474,1725.96 848.807,1723.8 784.5,1711C 784.167,1710.67 783.833,1710.33 783.5,1710C 792.167,1700.67 800.833,1691.33 809.5,1682C 819.995,1679.28 830.662,1677.62 841.5,1677C 859.688,1676.8 877.688,1675.97 895.5,1674.5 Z"/></g>
<g><path style="opacity:1" fill="#062622" d="M 774.5,1720.5 C 796.976,1727.25 819.976,1731.41 843.5,1733C 889.478,1736.02 935.145,1733.52 980.5,1725.5C 981.701,1734.81 982.201,1744.14 982,1753.5C 973.012,1761.31 966.179,1770.64 961.5,1781.5C 950.319,1775.98 942.652,1767.32 938.5,1755.5C 934.429,1753.68 931.262,1754.68 929,1758.5C 922.949,1772.54 922.116,1786.87 926.5,1801.5C 912.008,1801.5 899.841,1796.17 890,1785.5C 887.162,1781.83 884.829,1777.83 883,1773.5C 880.166,1769.58 876.666,1768.75 872.5,1771C 856.568,1787.61 838.401,1801.11 818,1811.5C 821.272,1799.74 823.938,1787.74 826,1775.5C 826.667,1768.5 826.667,1761.5 826,1754.5C 824.062,1752.02 821.895,1751.85 819.5,1754C 804.83,1770.68 788.33,1785.18 770,1797.5C 772.778,1776.62 768.611,1757.29 757.5,1739.5C 763.56,1733.44 769.226,1727.11 774.5,1720.5 Z"/></g>
<g><path style="opacity:0.557" fill="#072521" d="M 537.5,1780.5 C 525.019,1772.35 515.352,1761.69 508.5,1748.5C 508.435,1748.06 508.601,1747.73 509,1747.5C 517.273,1759.6 526.773,1770.6 537.5,1780.5 Z"/></g>
<g><path style="opacity:0.373" fill="#062622" d="M 751.5,1748.5 C 746.67,1752.5 742.336,1757 738.5,1762C 734.273,1765.74 729.94,1769.24 725.5,1772.5C 733.798,1763.7 742.298,1755.04 751,1746.5C 751.464,1747.09 751.631,1747.76 751.5,1748.5 Z"/></g>
</svg>
