<svg xmlns="http://www.w3.org/2000/svg" version="1.1" viewBox="0 0 2048 2048" width="2048px" height="2048px" style="shape-rendering:geometricPrecision; text-rendering:geometricPrecision; image-rendering:optimizeQuality; fill-rule:evenodd; clip-rule:evenodd" xmlns:xlink="http://www.w3.org/1999/xlink">
<g><path style="opacity:1" fill="#072723" d="M 977.5,-0.5 C 1007.5,-0.5 1037.5,-0.5 1067.5,-0.5C 1344.8,15.7619 1579.3,123.429 1771,322.5C 1941.04,508.279 2033.21,727.612 2047.5,980.5C 2047.5,1008.83 2047.5,1037.17 2047.5,1065.5C 2033.72,1317.85 1942.22,1536.85 1773,1722.5C 1605.52,1898 1401.02,2003.5 1159.5,2039C 1129.11,2042.89 1098.78,2045.72 1068.5,2047.5C 1038.83,2047.5 1009.17,2047.5 979.5,2047.5C 702.194,2031.24 467.694,1923.57 276,1724.5C 105.714,1538.82 13.5471,1319.49 -0.5,1066.5C -0.5,1038.17 -0.5,1009.83 -0.5,981.5C 13.2792,729.15 104.779,510.15 274,324.5C 441.476,149.001 645.976,43.5008 887.5,8C 917.561,4.16332 947.561,1.32999 977.5,-0.5 Z"/></g>
<g><path style="opacity:1" fill="#fefefe" d="M 981.5,356.5 C 1018.83,365.5 1056.17,374.5 1093.5,383.5C 1078.83,444.167 1064.17,504.833 1049.5,565.5C 1078.59,571.689 1107.59,578.356 1136.5,585.5C 1137.17,585.167 1137.83,584.833 1138.5,584.5C 1153.43,525.29 1168.43,466.123 1183.5,407C 1220.52,415.504 1257.52,424.504 1294.5,434C 1295.06,434.725 1295.39,435.558 1295.5,436.5C 1280.66,496.871 1265.66,557.204 1250.5,617.5C 1250.82,618.647 1251.48,619.481 1252.5,620C 1305.57,637.035 1354.57,661.701 1399.5,694C 1467.47,747.231 1491.3,816.064 1471,900.5C 1453.89,976.274 1407.73,1023.77 1332.5,1043C 1369.36,1061.19 1400.19,1086.69 1425,1119.5C 1444.43,1149.2 1453.93,1181.87 1453.5,1217.5C 1451.04,1274.04 1435.54,1326.71 1407,1375.5C 1369.34,1435.28 1315.17,1469.78 1244.5,1479C 1196.43,1484.09 1148.43,1483.42 1100.5,1477C 1080.76,1474.27 1061.1,1471.1 1041.5,1467.5C 1040.5,1467.83 1039.5,1468.17 1038.5,1468.5C 1022.85,1529.76 1007.52,1591.1 992.5,1652.5C 954.734,1643.98 917.068,1634.98 879.5,1625.5C 894.445,1564.22 909.779,1503.05 925.5,1442C 895.572,1433.85 865.572,1426.02 835.5,1418.5C 820.815,1479.91 805.815,1541.24 790.5,1602.5C 753.108,1593.65 715.775,1584.49 678.5,1575C 678.043,1574.59 677.709,1574.09 677.5,1573.5C 693.464,1511.64 708.797,1449.64 723.5,1387.5C 648.548,1368.68 573.548,1350.01 498.5,1331.5C 515.85,1288.29 534.184,1245.46 553.5,1203C 578.243,1208.35 602.91,1214.35 627.5,1221C 655.681,1230.29 675.514,1221.46 687,1194.5C 728.593,1027.13 770.26,860.127 812,693.5C 815.242,660.813 801.409,638.979 770.5,628C 766.106,626.869 761.773,625.535 757.5,624C 731.069,617.451 704.735,610.784 678.5,604C 688.888,564.282 698.888,524.448 708.5,484.5C 783.9,503.184 859.234,521.85 934.5,540.5C 950.481,479.244 966.147,417.911 981.5,356.5 Z"/></g>
<g><path style="opacity:1" fill="#072723" d="M 1018.5,698.5 C 1067.07,707.309 1114.41,720.476 1160.5,738C 1188.68,749.163 1213.18,765.663 1234,787.5C 1258.23,818.991 1262.9,853.325 1248,890.5C 1236.04,918.113 1215.54,936.28 1186.5,945C 1155.19,952.869 1123.53,954.535 1091.5,950C 1047.76,943.814 1004.76,934.314 962.5,921.5C 981.326,847.196 999.993,772.863 1018.5,698.5 Z"/></g>
<g><path style="opacity:1" fill="#072723" d="M 934.5,1035.5 C 964.534,1042.34 994.534,1049.51 1024.5,1057C 1063.98,1067.05 1101.98,1081.05 1138.5,1099C 1160.61,1110.31 1180.11,1125.15 1197,1143.5C 1223.35,1176.93 1228.68,1213.59 1213,1253.5C 1201.29,1279.54 1182.12,1297.71 1155.5,1308C 1130.74,1316.68 1105.24,1320.51 1079,1319.5C 1030.71,1318.26 983.213,1311.42 936.5,1299C 915.069,1293.64 893.735,1287.98 872.5,1282C 893.398,1199.91 914.065,1117.74 934.5,1035.5 Z"/></g>
</svg>
