<svg version="1.1" id="Layer_1" xmlns="http://www.w3.org/2000/svg" xmlns:xlink="http://www.w3.org/1999/xlink" x="0px" y="0px"
	 width="1707" height="1707" viewBox="0 0 1707 1707" enable-background="new 0 0 1707 1707" xml:space="preserve">
  <defs>
    <clipPath id="circmask">
      <circle cx="853.5" cy="853.5" r="853.5"/>
    </clipPath>
  </defs>
<g clip-path="url(#circmask)">
<path fill="#EE1C25" opacity="1.000000" stroke="none" 
	d="
M1832.000000,1710.000000 
	C1221.404663,1710.000000 611.809265,1710.000000 2.106946,1710.000000 
	C2.106946,1140.804565 2.106946,571.609070 2.106946,2.206816 
	C855.095642,2.206816 1708.191406,2.206816 2561.643555,2.206816 
	C2561.643555,571.333130 2561.643555,1140.666504 2561.643555,1710.000000 
	C2318.941895,1710.000000 2075.970947,1710.000000 1832.000000,1710.000000 
M296.624390,583.446594 
	C291.372833,599.844849 286.121246,616.243103 280.869659,632.641357 
	C281.403625,633.013611 281.937592,633.385925 282.471558,633.758240 
	C331.652435,598.046387 380.833282,562.334534 430.190033,526.494995 
	C480.010773,562.661133 528.969666,598.201660 577.928589,633.742188 
	C578.469910,633.356995 579.011169,632.971802 579.552490,632.586670 
	C560.819763,574.809326 542.087036,517.031982 523.239441,458.900391 
	C572.753845,422.894012 621.612854,387.364227 670.471863,351.834442 
	C670.236145,351.175171 670.000366,350.515930 669.764648,349.856689 
	C609.329468,349.856689 548.894226,349.856689 487.815887,349.856689 
	C468.803192,291.482788 450.021576,233.818344 431.239990,176.153915 
	C430.514587,176.180099 429.789185,176.206284 429.063782,176.232468 
	C410.262970,233.957886 391.462128,291.683319 372.441254,350.084290 
	C311.165131,350.084290 250.781235,350.084290 190.397354,350.084290 
	C190.230331,350.668427 190.063309,351.252563 189.896271,351.836700 
	C238.810944,387.401825 287.725616,422.966949 337.106232,458.870850 
	C323.669830,500.333588 310.444061,541.146179 296.624390,583.446594 
M1099.433716,576.530640 
	C1101.158813,574.837341 1102.883789,573.144043 1105.965088,570.119446 
	C1084.687134,570.875977 1065.510254,571.557861 1045.883789,572.255615 
	C1038.929443,553.531494 1032.212891,535.446960 1025.496216,517.362488 
	C1024.844727,517.430908 1024.193359,517.499329 1023.541931,517.567749 
	C1018.106140,536.243042 1012.670410,554.918396 1007.275757,573.452576 
	C987.071228,574.332703 968.027100,575.162292 948.983032,575.991882 
	C948.814331,576.614624 948.645691,577.237305 948.476990,577.860046 
	C964.580750,588.757629 980.684509,599.655151 996.715881,610.503723 
	C991.251099,630.038757 986.113770,648.403137 980.976501,666.767456 
	C981.578369,667.110107 982.180298,667.452820 982.782166,667.795471 
	C998.117981,655.854980 1013.453735,643.914490 1028.693115,632.049072 
	C1045.503662,643.269714 1061.374390,653.863159 1077.245239,664.456604 
	C1077.741333,664.024414 1078.237549,663.592224 1078.733765,663.160034 
	C1072.184814,644.879150 1065.635864,626.598206 1059.054077,608.225708 
	C1072.710327,597.524963 1085.535889,587.475098 1099.433716,576.530640 
M1082.685059,379.804565 
	C1088.371094,380.605652 1094.057129,381.406708 1099.743164,382.207794 
	C1099.936646,381.645081 1100.130127,381.082367 1100.323608,380.519623 
	C1086.963501,366.709991 1073.603516,352.900360 1060.177979,339.023163 
	C1068.066772,320.958496 1079.038940,304.862946 1084.790161,285.958191 
	C1067.577393,294.315857 1050.364624,302.673523 1033.062744,311.074493 
	C1018.910767,296.530548 1005.565552,282.815735 992.220398,269.100922 
	C991.657288,269.466370 991.094177,269.831848 990.531067,270.197327 
	C993.165161,289.426086 995.799255,308.654816 998.463684,328.105225 
	C980.315674,337.076843 962.979919,345.646912 945.644165,354.217010 
	C945.833191,354.743256 946.022156,355.269501 946.211182,355.795746 
	C965.413635,359.262695 984.616028,362.729675 1003.962830,366.222687 
	C1006.900085,386.124481 1009.691406,405.037262 1012.760742,425.833801 
	C1014.921753,422.693390 1016.138611,421.244781 1017.007996,419.611206 
	C1024.200195,406.097107 1031.479980,392.625671 1038.390015,378.967682 
	C1040.705688,374.390350 1043.485352,372.735596 1048.609985,373.770630 
	C1059.364380,375.942566 1070.213745,377.643433 1082.685059,379.804565 
M888.677368,110.687439 
	C888.925720,106.341858 890.675049,101.937691 888.582947,96.197418 
	C875.012268,111.651070 862.354126,126.065598 849.494263,140.709808 
	C830.975037,132.927795 813.122925,125.426094 795.270813,117.924400 
	C794.953369,118.455513 794.635925,118.986626 794.318481,119.517746 
	C804.263489,136.289200 814.208496,153.060654 824.173401,169.865723 
	C819.213562,175.608337 814.883179,180.635193 810.537964,185.649155 
	C806.397400,190.426971 802.196350,195.153229 798.104675,199.972412 
	C794.050720,204.747101 790.099976,209.609512 784.898376,215.888855 
	C806.472107,212.241287 825.056580,205.937881 844.345154,203.422302 
	C854.929504,220.251007 864.163147,236.834290 874.351013,252.795029 
	C874.961792,252.548340 875.572632,252.301636 876.183411,252.054932 
	C877.970459,232.936752 879.757446,213.818573 881.550598,194.633881 
	C900.714294,188.669296 920.025879,186.293655 940.665588,179.739853 
	C920.663086,171.128937 903.061462,163.551575 885.035217,155.791428 
	C886.224731,140.855240 887.356506,126.644852 888.677368,110.687439 
M854.530151,814.566711 
	C858.377686,820.402710 862.004211,826.400879 866.135132,832.028870 
	C870.223267,837.598511 872.547974,844.682617 879.433167,849.047791 
	C880.495911,828.878174 881.506226,809.703491 882.518738,790.487976 
	C901.787354,785.100525 920.194153,779.954041 938.600891,774.807556 
	C938.628723,774.122559 938.656555,773.437561 938.684387,772.752502 
	C920.601990,765.843994 902.519592,758.935486 883.997681,751.859070 
	C884.574280,741.484924 885.314026,731.896057 885.582336,722.293945 
	C885.848694,712.761963 885.640686,703.216797 885.640686,691.853394 
	C872.471558,708.237793 860.307007,723.372253 848.218201,738.412598 
	C829.203552,731.324646 811.266418,724.638367 793.329285,717.952087 
	C792.932373,718.439758 792.535461,718.927490 792.138489,719.415222 
	C802.734436,735.689148 813.330322,751.963074 824.065796,768.451416 
	C811.726135,784.080261 799.729248,799.274963 787.732300,814.469666 
	C788.134277,814.930603 788.536255,815.391602 788.938232,815.852539 
	C807.733215,810.831787 826.528259,805.811096 845.339172,800.786133 
	C848.588196,805.620361 851.175598,809.470154 854.530151,814.566711 
z"/>
<path fill="#FFFE00" opacity="1.000000" stroke="none" 
	d="
M296.921356,582.702698 
	C310.444061,541.146179 323.669830,500.333588 337.106232,458.870850 
	C287.725616,422.966949 238.810944,387.401825 189.896271,351.836700 
	C190.063309,351.252563 190.230331,350.668427 190.397354,350.084290 
	C250.781235,350.084290 311.165131,350.084290 372.441254,350.084290 
	C391.462128,291.683319 410.262970,233.957886 429.063782,176.232468 
	C429.789185,176.206284 430.514587,176.180099 431.239990,176.153915 
	C450.021576,233.818344 468.803192,291.482788 487.815887,349.856689 
	C548.894226,349.856689 609.329468,349.856689 669.764648,349.856689 
	C670.000366,350.515930 670.236145,351.175171 670.471863,351.834442 
	C621.612854,387.364227 572.753845,422.894012 523.239441,458.900391 
	C542.087036,517.031982 560.819763,574.809326 579.552490,632.586670 
	C579.011169,632.971802 578.469910,633.356995 577.928589,633.742188 
	C528.969666,598.201660 480.010773,562.661133 430.190033,526.494995 
	C380.833282,562.334534 331.652435,598.046387 282.471558,633.758240 
	C281.937592,633.385925 281.403625,633.013611 280.869659,632.641357 
	C286.121246,616.243103 291.372833,599.844849 296.921356,582.702698 
z"/>
<path fill="#FFFB01" opacity="1.000000" stroke="none" 
	d="
M1098.897583,576.977905 
	C1085.535889,587.475098 1072.710327,597.524963 1059.054077,608.225708 
	C1065.635864,626.598206 1072.184814,644.879150 1078.733765,663.160034 
	C1078.237549,663.592224 1077.741333,664.024414 1077.245239,664.456604 
	C1061.374390,653.863159 1045.503662,643.269714 1028.693115,632.049072 
	C1013.453735,643.914490 998.117981,655.854980 982.782166,667.795471 
	C982.180298,667.452820 981.578369,667.110107 980.976501,666.767456 
	C986.113770,648.403137 991.251099,630.038757 996.715881,610.503723 
	C980.684509,599.655151 964.580750,588.757629 948.476990,577.860046 
	C948.645691,577.237305 948.814331,576.614624 948.983032,575.991882 
	C968.027100,575.162292 987.071228,574.332703 1007.275757,573.452576 
	C1012.670410,554.918396 1018.106140,536.243042 1023.541931,517.567749 
	C1024.193359,517.499329 1024.844727,517.430908 1025.496216,517.362488 
	C1032.212891,535.446960 1038.929443,553.531494 1045.883789,572.255615 
	C1065.510254,571.557861 1084.687134,570.875977 1105.965088,570.119446 
	C1102.883789,573.144043 1101.158813,574.837341 1098.897583,576.977905 
z"/>
<path fill="#FFFB01" opacity="1.000000" stroke="none" 
	d="
M1081.854614,379.671143 
	C1070.213745,377.643433 1059.364380,375.942566 1048.609985,373.770630 
	C1043.485352,372.735596 1040.705688,374.390350 1038.390015,378.967682 
	C1031.479980,392.625671 1024.200195,406.097107 1017.007996,419.611206 
	C1016.138611,421.244781 1014.921753,422.693390 1012.760742,425.833801 
	C1009.691406,405.037262 1006.900085,386.124481 1003.962830,366.222687 
	C984.616028,362.729675 965.413635,359.262695 946.211182,355.795746 
	C946.022156,355.269501 945.833191,354.743256 945.644165,354.217010 
	C962.979919,345.646912 980.315674,337.076843 998.463684,328.105225 
	C995.799255,308.654816 993.165161,289.426086 990.531067,270.197327 
	C991.094177,269.831848 991.657288,269.466370 992.220398,269.100922 
	C1005.565552,282.815735 1018.910767,296.530548 1033.062744,311.074493 
	C1050.364624,302.673523 1067.577393,294.315857 1084.790161,285.958191 
	C1079.038940,304.862946 1068.066772,320.958496 1060.177979,339.023163 
	C1073.603516,352.900360 1086.963501,366.709991 1100.323608,380.519623 
	C1100.130127,381.082367 1099.936646,381.645081 1099.743164,382.207794 
	C1094.057129,381.406708 1088.371094,380.605652 1081.854614,379.671143 
z"/>
<path fill="#FFFB01" opacity="1.000000" stroke="none" 
	d="
M888.582764,111.560951 
	C887.356506,126.644852 886.224731,140.855240 885.035217,155.791428 
	C903.061462,163.551575 920.663086,171.128937 940.665588,179.739853 
	C920.025879,186.293655 900.714294,188.669296 881.550598,194.633881 
	C879.757446,213.818573 877.970459,232.936752 876.183411,252.054932 
	C875.572632,252.301636 874.961792,252.548340 874.351013,252.795029 
	C864.163147,236.834290 854.929504,220.251007 844.345154,203.422302 
	C825.056580,205.937881 806.472107,212.241287 784.898376,215.888855 
	C790.099976,209.609512 794.050720,204.747101 798.104675,199.972412 
	C802.196350,195.153229 806.397400,190.426971 810.537964,185.649155 
	C814.883179,180.635193 819.213562,175.608337 824.173401,169.865723 
	C814.208496,153.060654 804.263489,136.289200 794.318481,119.517746 
	C794.635925,118.986626 794.953369,118.455513 795.270813,117.924400 
	C813.122925,125.426094 830.975037,132.927795 849.494263,140.709808 
	C862.354126,126.065598 875.012268,111.651070 888.582947,96.197418 
	C890.675049,101.937691 888.925720,106.341858 888.582764,111.560951 
z"/>
<path fill="#FFFB01" opacity="1.000000" stroke="none" 
	d="
M854.146606,813.943359 
	C851.175598,809.470154 848.588196,805.620361 845.339172,800.786133 
	C826.528259,805.811096 807.733215,810.831787 788.938232,815.852539 
	C788.536255,815.391602 788.134277,814.930603 787.732300,814.469666 
	C799.729248,799.274963 811.726135,784.080261 824.065796,768.451416 
	C813.330322,751.963074 802.734436,735.689148 792.138489,719.415222 
	C792.535461,718.927490 792.932373,718.439758 793.329285,717.952087 
	C811.266418,724.638367 829.203552,731.324646 848.218201,738.412598 
	C860.307007,723.372253 872.471558,708.237793 885.640686,691.853394 
	C885.640686,703.216797 885.848694,712.761963 885.582336,722.293945 
	C885.314026,731.896057 884.574280,741.484924 883.997681,751.859070 
	C902.519592,758.935486 920.601990,765.843994 938.684387,772.752502 
	C938.656555,773.437561 938.628723,774.122559 938.600891,774.807556 
	C920.194153,779.954041 901.787354,785.100525 882.518738,790.487976 
	C881.506226,809.703491 880.495911,828.878174 879.433167,849.047791 
	C872.547974,844.682617 870.223267,837.598511 866.135132,832.028870 
	C862.004211,826.400879 858.377686,820.402710 854.146606,813.943359 
z"/>
</g>
</svg>