<svg version="1.1" xmlns="http://www.w3.org/2000/svg" width="350" height="350" viewBox="0 0 350 350">
<path d="M0 0 C115.5 0 231 0 350 0 C350 115.5 350 231 350 350 C234.5 350 119 350 0 350 C0 234.5 0 119 0 0 Z " fill="#FEFEFE" transform="translate(0,0)"/>
<path d="M0 0 C19.47 0 38.94 0 59 0 C59 1.65 59 3.3 59 5 C60.60681641 4.98259766 60.60681641 4.98259766 62.24609375 4.96484375 C63.64322743 4.95546701 65.04036299 4.94636669 66.4375 4.9375 C67.14455078 4.92912109 67.85160156 4.92074219 68.58007812 4.91210938 C70.38693559 4.90346412 72.19387603 4.94779989 74 5 C75 6 75 6 75 11 C79.95 11 84.9 11 90 11 C90 12.65 90 14.3 90 16 C91.98 16 93.96 16 96 16 C96 17.65 96 19.3 96 21 C97.65 21 99.3 21 101 21 C101 22.98 101 24.96 101 27 C102.65 27 104.3 27 106 27 C106 28.65 106 30.3 106 32 C107.98 32 109.96 32 112 32 C112 35.63 112 39.26 112 43 C113.65 43 115.3 43 117 43 C117 47.95 117 52.9 117 58 C118.65 58 120.3 58 122 58 C122 66.91 122 75.82 122 85 C123.98 85 125.96 85 128 85 C128 100.51 128 116.02 128 132 C126.68 132.33 125.36 132.66 124 133 C124 138.28 124 143.56 124 149 C125.32 149 126.64 149 128 149 C128 164.51 128 180.02 128 196 C126.02 196 124.04 196 122 196 C122 199.63 122 203.26 122 207 C120.35 207 118.7 207 117 207 C117 217.56 117 228.12 117 239 C115.35 239 113.7 239 112 239 C112 245.93 112 252.86 112 260 C110.02 260 108.04 260 106 260 C106 263.63 106 267.26 106 271 C104.35 271 102.7 271 101 271 C101 272.65 101 274.3 101 276 C99.35 276 97.7 276 96 276 C96 279.3 96 282.6 96 286 C99.3 286.33 102.6 286.66 106 287 C106.33 288.32 106.66 289.64 107 291 C110.3 291.33 113.6 291.66 117 292 C117 293.65 117 295.3 117 297 C122.28 297 127.56 297 133 297 C133 298.65 133 300.3 133 302 C139.93 302 146.86 302 154 302 C154 303.98 154 305.96 154 308 C157.63 308 161.26 308 165 308 C165 309.65 165 311.3 165 313 C170.28 313 175.56 313 181 313 C181 314.65 181 316.3 181 318 C184.3 318 187.6 318 191 318 C191 319.32 191 320.64 191 322 C80.78 322 -29.44 322 -143 322 C-143 312.1 -143 302.2 -143 292 C-139.7 292 -136.4 292 -133 292 C-133 290.35 -133 288.7 -133 287 C-129.37 287 -125.74 287 -122 287 C-122 285.02 -122 283.04 -122 281 C-116.72 281 -111.44 281 -106 281 C-106 279.35 -106 277.7 -106 276 C-102.7 275.67 -99.4 275.34 -96 275 C-95.67 273.68 -95.34 272.36 -95 271 C-90.05 270.67 -85.1 270.34 -80 270 C-79.67 268.35 -79.34 266.7 -79 265 C-75.7 265 -72.4 265 -69 265 C-69 263.35 -69 261.7 -69 260 C-65.37 260 -61.74 260 -58 260 C-58 258.35 -58 256.7 -58 255 C-54.7 255 -51.4 255 -48 255 C-48 253.35 -48 251.7 -48 250 C-47.67 249.67 -47.34 249.34 -47 249 C-45.35 249 -43.7 249 -42 249 C-42 224.58 -42 200.16 -42 175 C-43.98 175 -45.96 175 -48 175 C-48 173.35 -48 171.7 -48 170 C-49.65 170 -51.3 170 -53 170 C-53 168.35 -53 166.7 -53 165 C-54.65 165 -56.3 165 -58 165 C-58.33 152.79 -58.66 140.58 -59 128 C-60.65 127.67 -62.3 127.34 -64 127 C-64 122.05 -64 117.1 -64 112 C-65.65 112 -67.3 112 -69 112 C-69 104.74 -69 97.48 -69 90 C-67.35 90 -65.7 90 -64 90 C-64 83.07 -64 76.14 -64 69 C-62.02 69 -60.04 69 -58 69 C-58 63.72 -58 58.44 -58 53 C-56.35 53 -54.7 53 -53 53 C-53 49.7 -53 46.4 -53 43 C-51.35 43 -49.7 43 -48 43 C-48 41.02 -48 39.04 -48 37 C-46.02 37 -44.04 37 -42 37 C-42 35.35 -42 33.7 -42 32 C-40.35 32 -38.7 32 -37 32 C-37 30.35 -37 28.7 -37 27 C-35.35 27 -33.7 27 -32 27 C-32 25.02 -32 23.04 -32 21 C-30.02 21 -28.04 21 -26 21 C-26 19.35 -26 17.7 -26 16 C-24.35 16 -22.7 16 -21 16 C-21 14.35 -21 12.7 -21 11 C-17.7 11 -14.4 11 -11 11 C-11 9.35 -11 7.7 -11 6 C-10 5 -10 5 -7.71484375 4.90234375 C-6.34005859 4.91974609 -6.34005859 4.91974609 -4.9375 4.9375 C-4.01839844 4.94652344 -3.09929687 4.95554687 -2.15234375 4.96484375 C-1.44207031 4.97644531 -0.73179687 4.98804688 0 5 C0 3.35 0 1.7 0 0 Z " fill="#242424" transform="translate(143,28)"/>
<path d="M0 0 C19.47 0 38.94 0 59 0 C59 1.65 59 3.3 59 5 C60.60681641 4.98259766 60.60681641 4.98259766 62.24609375 4.96484375 C63.64322743 4.95546701 65.04036299 4.94636669 66.4375 4.9375 C67.14455078 4.92912109 67.85160156 4.92074219 68.58007812 4.91210938 C70.38693559 4.90346412 72.19387603 4.94779989 74 5 C75 6 75 6 75 11 C79.95 11 84.9 11 90 11 C90 12.65 90 14.3 90 16 C91.98 16 93.96 16 96 16 C96 17.65 96 19.3 96 21 C97.65 21 99.3 21 101 21 C101 22.98 101 24.96 101 27 C102.65 27 104.3 27 106 27 C106 28.65 106 30.3 106 32 C107.98 32 109.96 32 112 32 C112 35.63 112 39.26 112 43 C113.65 43 115.3 43 117 43 C117 47.95 117 52.9 117 58 C118.65 58 120.3 58 122 58 C122 66.91 122 75.82 122 85 C123.98 85 125.96 85 128 85 C128 100.51 128 116.02 128 132 C126.68 132.33 125.36 132.66 124 133 C124 138.28 124 143.56 124 149 C125.32 149 126.64 149 128 149 C128 164.51 128 180.02 128 196 C126.02 196 124.04 196 122 196 C122 184.78 122 173.56 122 162 C108.8 162 95.6 162 82 162 C82 157.71 82 153.42 82 149 C77.38 148.67 72.76 148.34 68 148 C68 138.76 68 129.52 68 120 C63.38 120 58.76 120 54 120 C54 129.24 54 138.48 54 148 C49.38 148 44.76 148 40 148 C40 152.62 40 157.24 40 162 C30.76 162 21.52 162 12 162 C12 157.38 12 152.76 12 148 C7.38 148 2.76 148 -2 148 C-2 139.42 -2 130.84 -2 122 C-2.99 122 -3.98 122 -5 122 C-5 121.34 -5 120.68 -5 120 C-12.92 120 -20.84 120 -29 120 C-29 122.31 -29 124.62 -29 127 C-28.34 127 -27.68 127 -27 127 C-27 156.7 -27 186.4 -27 217 C-28.32 217 -29.64 217 -31 217 C-31.02319226 205.38635653 -31.04095019 193.77271859 -31.05181217 182.15905666 C-31.05702593 176.76610431 -31.06409622 171.37316783 -31.07543945 165.98022461 C-31.08632188 160.77365526 -31.0922882 155.56710116 -31.09487724 150.36052132 C-31.09672184 148.37625959 -31.10032385 146.39199867 -31.10573006 144.40774345 C-31.11301155 141.62394293 -31.11398794 138.84020503 -31.11352539 136.05639648 C-31.11712067 135.23999695 -31.12071594 134.42359741 -31.12442017 133.5824585 C-31.11611672 128.95014071 -30.76774835 124.56996005 -30 120 C-32.31 120 -34.62 120 -37 120 C-37 120.66 -37 121.32 -37 122 C-40.63 122 -44.26 122 -48 122 C-48 123.98 -48 125.96 -48 128 C-49.65 128 -51.3 128 -53 128 C-53 139.88 -53 151.76 -53 164 C-51.35 164 -49.7 164 -48 164 C-47 165 -47 165 -46.9375 167.5625 C-46.958125 168.366875 -46.97875 169.17125 -47 170 C-45.35 170 -43.7 170 -42 170 C-42 171.65 -42 173.3 -42 175 C-43.98 175 -45.96 175 -48 175 C-48 173.35 -48 171.7 -48 170 C-49.65 170 -51.3 170 -53 170 C-53 168.35 -53 166.7 -53 165 C-54.65 165 -56.3 165 -58 165 C-58.33 152.79 -58.66 140.58 -59 128 C-60.65 127.67 -62.3 127.34 -64 127 C-64 122.05 -64 117.1 -64 112 C-65.65 112 -67.3 112 -69 112 C-69 104.74 -69 97.48 -69 90 C-67.35 90 -65.7 90 -64 90 C-64 83.07 -64 76.14 -64 69 C-62.02 69 -60.04 69 -58 69 C-58 63.72 -58 58.44 -58 53 C-56.35 53 -54.7 53 -53 53 C-53 49.7 -53 46.4 -53 43 C-51.35 43 -49.7 43 -48 43 C-48 41.02 -48 39.04 -48 37 C-46.02 37 -44.04 37 -42 37 C-42 35.35 -42 33.7 -42 32 C-40.35 32 -38.7 32 -37 32 C-37 30.35 -37 28.7 -37 27 C-35.35 27 -33.7 27 -32 27 C-32 25.02 -32 23.04 -32 21 C-30.02 21 -28.04 21 -26 21 C-26 19.35 -26 17.7 -26 16 C-24.35 16 -22.7 16 -21 16 C-21 14.35 -21 12.7 -21 11 C-17.7 11 -14.4 11 -11 11 C-11 9.35 -11 7.7 -11 6 C-10 5 -10 5 -7.71484375 4.90234375 C-6.79832031 4.91394531 -5.88179687 4.92554688 -4.9375 4.9375 C-4.01839844 4.94652344 -3.09929687 4.95554687 -2.15234375 4.96484375 C-1.44207031 4.97644531 -0.73179687 4.98804688 0 5 C0 3.35 0 1.7 0 0 Z " fill="#020102" transform="translate(143,28)"/>
<path d="M0 0 C19.47 0 38.94 0 59 0 C59 1.65 59 3.3 59 5 C60.60681641 4.98259766 60.60681641 4.98259766 62.24609375 4.96484375 C63.64322743 4.95546701 65.04036299 4.94636669 66.4375 4.9375 C67.14455078 4.92912109 67.85160156 4.92074219 68.58007812 4.91210938 C70.38693559 4.90346412 72.19387603 4.94779989 74 5 C75 6 75 6 75 11 C79.95 11 84.9 11 90 11 C90 12.65 90 14.3 90 16 C91.98 16 93.96 16 96 16 C96 17.65 96 19.3 96 21 C97.65 21 99.3 21 101 21 C101 22.98 101 24.96 101 27 C102.65 27 104.3 27 106 27 C106 28.65 106 30.3 106 32 C104.35 32 102.7 32 101 32 C101 35.3 101 38.6 101 42 C99.02 42 97.04 42 95 42 C95 43.98 95 45.96 95 48 C93.35 48 91.7 48 90 48 C90 49.65 90 51.3 90 53 C88.35 53 86.7 53 85 53 C85 54.65 85 56.3 85 58 C83.35 58 81.7 58 80 58 C80 59.98 80 61.96 80 64 C64.16 64 48.32 64 32 64 C32 62.35 32 60.7 32 59 C24.74 59 17.48 59 10 59 C10 57.02 10 55.04 10 53 C5.05 53 0.1 53 -5 53 C-5 54.98 -5 56.96 -5 59 C-6.65 59 -8.3 59 -10 59 C-10 62.3 -10 65.6 -10 69 C-11.98 69 -13.96 69 -16 69 C-16 75.93 -16 82.86 -16 90 C-19.3 90 -22.6 90 -26 90 C-26 91.98 -26 93.96 -26 96 C-31.28 96 -36.56 96 -42 96 C-42 97.65 -42 99.3 -42 101 C-45.63 101 -49.26 101 -53 101 C-53 102.65 -53 104.3 -53 106 C-45.41 106 -37.82 106 -30 106 C-30 110.62 -30 115.24 -30 120 C-32.31 120 -34.62 120 -37 120 C-37 120.66 -37 121.32 -37 122 C-40.63 122 -44.26 122 -48 122 C-48 123.98 -48 125.96 -48 128 C-49.65 128 -51.3 128 -53 128 C-53 139.88 -53 151.76 -53 164 C-51.35 164 -49.7 164 -48 164 C-47 165 -47 165 -46.9375 167.5625 C-46.958125 168.366875 -46.97875 169.17125 -47 170 C-45.35 170 -43.7 170 -42 170 C-42 171.65 -42 173.3 -42 175 C-43.98 175 -45.96 175 -48 175 C-48 173.35 -48 171.7 -48 170 C-49.65 170 -51.3 170 -53 170 C-53 168.35 -53 166.7 -53 165 C-54.65 165 -56.3 165 -58 165 C-58.33 152.79 -58.66 140.58 -59 128 C-60.65 127.67 -62.3 127.34 -64 127 C-64 122.05 -64 117.1 -64 112 C-65.65 112 -67.3 112 -69 112 C-69 104.74 -69 97.48 -69 90 C-67.35 90 -65.7 90 -64 90 C-64 83.07 -64 76.14 -64 69 C-62.02 69 -60.04 69 -58 69 C-58 63.72 -58 58.44 -58 53 C-56.35 53 -54.7 53 -53 53 C-53 49.7 -53 46.4 -53 43 C-51.35 43 -49.7 43 -48 43 C-48 41.02 -48 39.04 -48 37 C-46.02 37 -44.04 37 -42 37 C-42 35.35 -42 33.7 -42 32 C-40.35 32 -38.7 32 -37 32 C-37 30.35 -37 28.7 -37 27 C-35.35 27 -33.7 27 -32 27 C-32 25.02 -32 23.04 -32 21 C-30.02 21 -28.04 21 -26 21 C-26 19.35 -26 17.7 -26 16 C-24.35 16 -22.7 16 -21 16 C-21 14.35 -21 12.7 -21 11 C-17.7 11 -14.4 11 -11 11 C-11 9.35 -11 7.7 -11 6 C-10 5 -10 5 -7.71484375 4.90234375 C-6.79832031 4.91394531 -5.88179687 4.92554688 -4.9375 4.9375 C-4.01839844 4.94652344 -3.09929687 4.95554687 -2.15234375 4.96484375 C-1.44207031 4.97644531 -0.73179687 4.98804688 0 5 C0 3.35 0 1.7 0 0 Z " fill="#0B0B0B" transform="translate(143,28)"/>
<path d="M0 0 C1.65 0 3.3 0 5 0 C5 7.26 5 14.52 5 22 C6.65 22 8.3 22 10 22 C10 25.63 10 29.26 10 33 C11.98 33 13.96 33 16 33 C16 39.6 16 46.2 16 53 C17.65 53 19.3 53 21 53 C21 58.61 21 64.22 21 70 C22.98 70 24.96 70 27 70 C27 73.3 27 76.6 27 80 C28.65 80 30.3 80 32 80 C32 85.28 32 90.56 32 96 C35.3 96 38.6 96 42 96 C42 99.3 42 102.6 42 106 C37.05 106 32.1 106 27 106 C27 104.68 27 103.36 27 102 C21.72 102 16.44 102 11 102 C11 103.65 11 105.3 11 107 C14.3 107 17.6 107 21 107 C21 108.65 21 110.3 21 112 C26.28 112 31.56 112 37 112 C37 113.65 37 115.3 37 117 C40.63 117 44.26 117 48 117 C48 118.65 48 120.3 48 122 C49.65 122 51.3 122 53 122 C53 123.32 53 124.64 53 126 C0.53 126 -51.94 126 -106 126 C-106 116.1 -106 106.2 -106 96 C-102.7 96 -99.4 96 -96 96 C-96 94.35 -96 92.7 -96 91 C-92.37 91 -88.74 91 -85 91 C-85 89.02 -85 87.04 -85 85 C-79.72 85 -74.44 85 -69 85 C-69 83.35 -69 81.7 -69 80 C-64.05 79.505 -64.05 79.505 -59 79 C-58.505 77.02 -58.505 77.02 -58 75 C-53.05 74.67 -48.1 74.34 -43 74 C-42.67 72.35 -42.34 70.7 -42 69 C-38.7 69 -35.4 69 -32 69 C-32 67.35 -32 65.7 -32 64 C-28.37 64 -24.74 64 -21 64 C-21 62.35 -21 60.7 -21 59 C-17.7 59 -14.4 59 -11 59 C-11 57.35 -11 55.7 -11 54 C-10.67 53.67 -10.34 53.34 -10 53 C-6.7 53 -3.4 53 0 53 C0 35.51 0 18.02 0 0 Z " fill="#4F4F4F" transform="translate(106,224)"/>
<path d="M0 0 C3.63 0 7.26 0 11 0 C11 3.63 11 7.26 11 11 C12.65 11 14.3 11 16 11 C16 15.95 16 20.9 16 26 C17.65 26 19.3 26 21 26 C21 42.17 21 58.34 21 75 C10.10414465 75.027835 -0.79162663 75.0512056 -11.6875 75.0625 C-12.91727695 75.06378403 -12.91727695 75.06378403 -14.17189789 75.06509399 C-40.16018653 75.08900219 -66.13991003 74.90814277 -92.125 74.5 C-92.88674404 74.48804218 -93.64848808 74.47608437 -94.43331528 74.46376419 C-103.62238082 74.31866572 -112.81124152 74.16347938 -122 74 C-122 70.37 -122 66.74 -122 63 C-120.35 63 -118.7 63 -117 63 C-117 54.42 -117 45.84 -117 37 C-115.02 37 -113.04 37 -111 37 C-111 33.7 -111 30.4 -111 27 C-109.35 27 -107.7 27 -106 27 C-106 25.02 -106 23.04 -106 21 C-101.05 21 -96.1 21 -91 21 C-91 22.98 -91 24.96 -91 27 C-83.74 27 -76.48 27 -69 27 C-69 28.65 -69 30.3 -69 32 C-53.16 32 -37.32 32 -21 32 C-21 30.02 -21 28.04 -21 26 C-19.35 26 -17.7 26 -16 26 C-16 24.35 -16 22.7 -16 21 C-14.35 21 -12.7 21 -11 21 C-11 19.35 -11 17.7 -11 16 C-9.35 16 -7.7 16 -6 16 C-6 14.02 -6 12.04 -6 10 C-4.02 10 -2.04 10 0 10 C0 6.7 0 3.4 0 0 Z " fill="#868686" transform="translate(244,60)"/>
<path d="M0 0 C5.28 0 10.56 0 16 0 C16 0.66 16 1.32 16 2 C16.99 2 17.98 2 19 2 C19 10.58 19 19.16 19 28 C23.62 28 28.24 28 33 28 C33 32.62 33 37.24 33 42 C42.24 42 51.48 42 61 42 C61 37.38 61 32.76 61 28 C65.62 28 70.24 28 75 28 C75 18.76 75 9.52 75 0 C79.62 0 84.24 0 89 0 C89 9.24 89 18.48 89 28 C92.96 28 96.92 28 101 28 C101.66 28.33 102.32 28.66 103 29 C103 33.29 103 37.58 103 42 C116.2 42 129.4 42 143 42 C143 46.29 143 50.58 143 55 C141.35 55 139.7 55 138 55 C138 58.63 138 62.26 138 66 C136.02 66 134.04 66 132 66 C132 69.3 132 72.6 132 76 C130.35 76 128.7 76 127 76 C127 77.98 127 79.96 127 82 C123.37 82 119.74 82 116 82 C116 80.35 116 78.7 116 77 C112.7 77 109.4 77 106 77 C106 75.02 106 73.04 106 71 C104.35 71 102.7 71 101 71 C101 69.35 101 67.7 101 66 C95.72 66 90.44 66 85 66 C85 67.65 85 69.3 85 71 C79.72 71 74.44 71 69 71 C69 72.98 69 74.96 69 77 C63.72 77 58.44 77 53 77 C53 78.65 53 80.3 53 82 C51.35 82 49.7 82 48 82 C48 83.65 48 85.3 48 87 C46.02 87 44.04 87 42 87 C42 85.35 42 83.7 42 82 C44.475 81.505 44.475 81.505 47 81 C47.495 79.02 47.495 79.02 48 77 C44.37 77 40.74 77 37 77 C37 78.65 37 80.3 37 82 C35.35 82 33.7 82 32 82 C32 83.65 32 85.3 32 87 C30.02 87 28.04 87 26 87 C26 85.35 26 83.7 26 82 C24.35 82 22.7 82 21 82 C21 80.02 21 78.04 21 76 C19.35 76 17.7 76 16 76 C16 74.35 16 72.7 16 71 C14.35 71 12.7 71 11 71 C11 69.35 11 67.7 11 66 C12.65 66 14.3 66 16 66 C16 64.35 16 62.7 16 61 C14.02 61 12.04 61 10 61 C10 59.35 10 57.7 10 56 C8.35 56 6.7 56 5 56 C5 48.74 5 41.48 5 34 C3.35 34 1.7 34 0 34 C0 27.07 0 20.14 0 13 C-1.65 13 -3.3 13 -5 13 C-5 9.37 -5 5.74 -5 2 C-3.35 2 -1.7 2 0 2 C0 1.34 0 0.68 0 0 Z " fill="#878787" transform="translate(122,148)"/>
<path d="M0 0 C3.63 0 7.26 0 11 0 C11 1.98 11 3.96 11 6 C15.95 6 20.9 6 26 6 C26.495 7.98 26.495 7.98 27 10 C30.3 10.33 33.6 10.66 37 11 C37 12.65 37 14.3 37 16 C42.28 16 47.56 16 53 16 C53 17.65 53 19.3 53 21 C59.93 21 66.86 21 74 21 C74 22.98 74 24.96 74 27 C77.63 27 81.26 27 85 27 C85 28.65 85 30.3 85 32 C90.28 32 95.56 32 101 32 C101 33.65 101 35.3 101 37 C104.3 37 107.6 37 111 37 C111 38.32 111 39.64 111 41 C72.39 41 33.78 41 -6 41 C-6 40.01 -6 39.02 -6 38 C2.91 38 11.82 38 21 38 C21 36.02 21 34.04 21 32 C8.79 32 -3.42 32 -16 32 C-16 26.72 -16 21.44 -16 16 C-14.35 16 -12.7 16 -11 16 C-11 12.7 -11 9.4 -11 6 C-7.37 6 -3.74 6 0 6 C0 4.02 0 2.04 0 0 Z " fill="#626262" transform="translate(223,309)"/>
<path d="M0 0 C1.65 0 3.3 0 5 0 C5 7.26 5 14.52 5 22 C6.65 22 8.3 22 10 22 C10 25.63 10 29.26 10 33 C11.98 33 13.96 33 16 33 C16 39.6 16 46.2 16 53 C17.65 53 19.3 53 21 53 C21 58.61 21 64.22 21 70 C22.98 70 24.96 70 27 70 C27 73.3 27 76.6 27 80 C28.65 80 30.3 80 32 80 C32 85.28 32 90.56 32 96 C33.65 96 35.3 96 37 96 C37 97.65 37 99.3 37 101 C31.72 101 26.44 101 21 101 C21 99.35 21 97.7 21 96 C8.79 96 -3.42 96 -16 96 C-16 94.35 -16 92.7 -16 91 C-19.3 91 -22.6 91 -26 91 C-26 87.37 -26 83.74 -26 80 C-24.35 80 -22.7 80 -21 80 C-21 78.35 -21 76.7 -21 75 C-19.35 75 -17.7 75 -16 75 C-16 71.37 -16 67.74 -16 64 C-14.35 64 -12.7 64 -11 64 C-11.01160156 63.28972656 -11.02320312 62.57945312 -11.03515625 61.84765625 C-11.04869141 60.46900391 -11.04869141 60.46900391 -11.0625 59.0625 C-11.07410156 58.14597656 -11.08570312 57.22945313 -11.09765625 56.28515625 C-11 54 -11 54 -10 53 C-6.7 53 -3.4 53 0 53 C0 35.51 0 18.02 0 0 Z " fill="#7A7A7A" transform="translate(106,224)"/>
<path d="M0 0 C2.31 0.33 4.62 0.66 7 1 C7 5.29 7 9.58 7 14 C20.2 14 33.4 14 47 14 C47 18.29 47 22.58 47 27 C45.35 27 43.7 27 42 27 C42 30.63 42 34.26 42 38 C40.02 38 38.04 38 36 38 C36 41.3 36 44.6 36 48 C34.35 48 32.7 48 31 48 C31 49.98 31 51.96 31 54 C27.37 54 23.74 54 20 54 C20 52.35 20 50.7 20 49 C16.7 49 13.4 49 10 49 C10 47.02 10 45.04 10 43 C8.35 43 6.7 43 5 43 C5 41.35 5 39.7 5 38 C-0.28 38 -5.56 38 -11 38 C-11 39.65 -11 41.3 -11 43 C-16.28 43 -21.56 43 -27 43 C-27 44.98 -27 46.96 -27 49 C-32.28 49 -37.56 49 -43 49 C-43 50.65 -43 52.3 -43 54 C-44.65 54 -46.3 54 -48 54 C-48 55.65 -48 57.3 -48 59 C-49.98 59 -51.96 59 -54 59 C-54 57.35 -54 55.7 -54 54 C-51.525 53.505 -51.525 53.505 -49 53 C-48.67 51.68 -48.34 50.36 -48 49 C-51.63 49 -55.26 49 -59 49 C-59 50.65 -59 52.3 -59 54 C-60.65 54 -62.3 54 -64 54 C-64 55.65 -64 57.3 -64 59 C-65.98 59 -67.96 59 -70 59 C-70 57.35 -70 55.7 -70 54 C-71.65 54 -73.3 54 -75 54 C-75 52.02 -75 50.04 -75 48 C-76.65 48 -78.3 48 -80 48 C-80 46.35 -80 44.7 -80 43 C-81.65 43 -83.3 43 -85 43 C-85 41.35 -85 39.7 -85 38 C-83.35 38 -81.7 38 -80 38 C-80 36.35 -80 34.7 -80 33 C-81.98 33 -83.96 33 -86 33 C-86 31.35 -86 29.7 -86 28 C-87.65 28 -89.3 28 -91 28 C-91 27.67 -91 27.34 -91 27 C-89.02 27 -87.04 27 -85 27 C-85 28.65 -85 30.3 -85 32 C-83.35 32 -81.7 32 -80 32 C-80 30.35 -80 28.7 -80 27 C-78.35 27 -76.7 27 -75 27 C-75 28.65 -75 30.3 -75 32 C-73.02 32 -71.04 32 -69 32 C-69 33.98 -69 35.96 -69 38 C-67.35 38 -65.7 38 -64 38 C-64 39.65 -64 41.3 -64 43 C-62.35 43 -60.7 43 -59 43 C-59 44.65 -59 46.3 -59 48 C-55.37 48 -51.74 48 -48 48 C-48 46.35 -48 44.7 -48 43 C-46.35 43 -44.7 43 -43 43 C-43 39.7 -43 36.4 -43 33 C-40.525 32.505 -40.525 32.505 -38 32 C-38 30.35 -38 28.7 -38 27 C-34.37 27 -30.74 27 -27 27 C-27 28.65 -27 30.3 -27 32 C-23.37 32 -19.74 32 -16 32 C-16 33.98 -16 35.96 -16 38 C-15.13036621 37.75552124 -15.13036621 37.75552124 -14.24316406 37.50610352 C-10.77326877 36.72322444 -7.287377 36.89687641 -3.75 36.9375 C-3.00492187 36.94201172 -2.25984375 36.94652344 -1.4921875 36.95117188 C0.3385764 36.96290754 2.16929873 36.9808415 4 37 C4 33.7 4 30.4 4 27 C5.98 27 7.96 27 10 27 C10 25.35 10 23.7 10 22 C8.35 22 6.7 22 5 22 C5 16.72 5 11.44 5 6 C3.35 6 1.7 6 0 6 C0 4.02 0 2.04 0 0 Z " fill="#606060" transform="translate(218,176)"/>
<path d="M0 0 C6.93 0 13.86 0 21 0 C21 1.65 21 3.3 21 5 C22.65 5 24.3 5 26 5 C26 6.98 26 8.96 26 11 C38.21 11 50.42 11 63 11 C63 12.65 63 14.3 63 16 C69.93 16 76.86 16 84 16 C84 17.65 84 19.3 84 21 C91.26 21 98.52 21 106 21 C106 22.65 106 24.3 106 26 C107.65 26 109.3 26 111 26 C111 27.32 111 28.64 111 30 C70.74 30 30.48 30 -11 30 C-11 21.75 -11 13.5 -11 5 C-7.37 5 -3.74 5 0 5 C0 3.35 0 1.7 0 0 Z " fill="#686868" transform="translate(11,320)"/>
<path d="M0 0 C0.33 0 0.66 0 1 0 C1 6.93 1 13.86 1 21 C2.65 21 4.3 21 6 21 C6 17.7 6 14.4 6 11 C9.3 11 12.6 11 16 11 C16 9.35 16 7.7 16 6 C13.525 5.505 13.525 5.505 11 5 C11 3.35 11 1.7 11 0 C14.63 0 18.26 0 22 0 C22 1.65 22 3.3 22 5 C30.58 5 39.16 5 48 5 C48 10.28 48 15.56 48 21 C44.7 21 41.4 21 38 21 C38 22.98 38 24.96 38 27 C32.72 27 27.44 27 22 27 C22 28.65 22 30.3 22 32 C18.37 32 14.74 32 11 32 C11 33.65 11 35.3 11 37 C18.59 37 26.18 37 34 37 C34 41.62 34 46.24 34 51 C31.69 51 29.38 51 27 51 C27 51.66 27 52.32 27 53 C23.37 53 19.74 53 16 53 C16 54.98 16 56.96 16 59 C14.35 59 12.7 59 11 59 C11 70.88 11 82.76 11 95 C12.65 95 14.3 95 16 95 C17 96 17 96 17.0625 98.5625 C17.041875 99.366875 17.02125 100.17125 17 101 C18.65 101 20.3 101 22 101 C22 102.65 22 104.3 22 106 C20.02 106 18.04 106 16 106 C16 104.35 16 102.7 16 101 C14.35 101 12.7 101 11 101 C11 99.35 11 97.7 11 96 C9.35 96 7.7 96 6 96 C5.67 83.79 5.34 71.58 5 59 C3.35 58.67 1.7 58.34 0 58 C0 53.05 0 48.1 0 43 C-1.65 43 -3.3 43 -5 43 C-5 35.74 -5 28.48 -5 21 C-3.35 21 -1.7 21 0 21 C0 14.07 0 7.14 0 0 Z " fill="#010101" transform="translate(79,97)"/>
<path d="M0 0 C5.28 0 10.56 0 16 0 C16 1.65 16 3.3 16 5 C20.95 5 25.9 5 31 5 C31 6.65 31 8.3 31 10 C32.98 10 34.96 10 37 10 C37 11.65 37 13.3 37 15 C38.65 15 40.3 15 42 15 C42 16.98 42 18.96 42 21 C43.65 21 45.3 21 47 21 C47 22.65 47 24.3 47 26 C45.35 26 43.7 26 42 26 C42 29.3 42 32.6 42 36 C40.02 36 38.04 36 36 36 C36 37.98 36 39.96 36 42 C34.35 42 32.7 42 31 42 C31 43.65 31 45.3 31 47 C29.35 47 27.7 47 26 47 C26 48.65 26 50.3 26 52 C24.35 52 22.7 52 21 52 C21 53.98 21 55.96 21 58 C13.74 58 6.48 58 -1 58 C-1 47.44 -1 36.88 -1 26 C-2.32 26 -3.64 26 -5 26 C-5.33 20.72 -5.66 15.44 -6 10 C-2.37 10 1.26 10 5 10 C5 8.35 5 6.7 5 5 C3.35 4.67 1.7 4.34 0 4 C0 2.68 0 1.36 0 0 Z " fill="#010101" transform="translate(202,34)"/>
<path d="M0 0 C1.65 0 3.3 0 5 0 C5 1.65 5 3.3 5 5 C8.63 5 12.26 5 16 5 C16 6.65 16 8.3 16 10 C17.65 10 19.3 10 21 10 C21 11.98 21 13.96 21 16 C22.65 16 24.3 16 26 16 C26 17.65 26 19.3 26 21 C27.65 21 29.3 21 31 21 C31 24.63 31 28.26 31 32 C32.98 32 34.96 32 37 32 C37 33.65 37 35.3 37 37 C38.65 37 40.3 37 42 37 C42 38.65 42 40.3 42 42 C45.63 42 49.26 42 53 42 C53 45.63 53 49.26 53 53 C59.93 53 66.86 53 74 53 C74 54.65 74 56.3 74 58 C72.35 58 70.7 58 69 58 C69 64.93 69 71.86 69 79 C67.35 79 65.7 79 64 79 C64 80.65 64 82.3 64 84 C60.37 84 56.74 84 53 84 C53 82.35 53 80.7 53 79 C51.35 79 49.7 79 48 79 C48 75.7 48 72.4 48 69 C46.02 69 44.04 69 42 69 C42 65.37 42 61.74 42 58 C38.7 58 35.4 58 32 58 C31.505 55.525 31.505 55.525 31 53 C29.68 53 28.36 53 27 53 C26.67 49.37 26.34 45.74 26 42 C24.02 42.495 24.02 42.495 22 43 C21.67 47.95 21.34 52.9 21 58 C19.35 58 17.7 58 16 58 C16 52.72 16 47.44 16 42 C14.35 42 12.7 42 11 42 C11 38.7 11 35.4 11 32 C9.02 32 7.04 32 5 32 C5 26.39 5 20.78 5 15 C3.35 15 1.7 15 0 15 C0 10.05 0 5.1 0 0 Z " fill="#383838" transform="translate(122,262)"/>
<path d="M0 0 C8.58 0 17.16 0 26 0 C26 1.65 26 3.3 26 5 C27.98 5 29.96 5 32 5 C32 6.65 32 8.3 32 10 C33.65 10 35.3 10 37 10 C37 11.98 37 13.96 37 16 C38.65 16 40.3 16 42 16 C42 17.65 42 19.3 42 21 C43.98 21 45.96 21 48 21 C48 24.3 48 27.6 48 31 C49.65 31 51.3 31 53 31 C53 31.33 53 31.66 53 32 C45.74 32 38.48 32 31 32 C31 30.02 31 28.04 31 26 C26.05 26 21.1 26 16 26 C16 27.98 16 29.96 16 32 C14.35 32 12.7 32 11 32 C11 35.3 11 38.6 11 42 C10.67 42 10.34 42 10 42 C10 38.7 10 35.4 10 32 C8.68 32 7.36 32 6 32 C6 33.65 6 35.3 6 37 C-2.91 37 -11.82 37 -21 37 C-21 35.35 -21 33.7 -21 32 C-22.98 32 -24.96 32 -27 32 C-26.67 26.72 -26.34 21.44 -26 16 C-24.35 16 -22.7 16 -21 16 C-21 14.35 -21 12.7 -21 11 C-10.77 11 -0.54 11 10 11 C10 12.65 10 14.3 10 16 C13.63 16 17.26 16 21 16 C21 14.35 21 12.7 21 11 C19.35 11 17.7 11 16 11 C16 9.02 16 7.04 16 5 C10.72 5 5.44 5 0 5 C0 3.35 0 1.7 0 0 Z " fill="#1D1D1D" transform="translate(122,55)"/>
<path d="M0 0 C3.3 0 6.6 0 10 0 C10 1.65 10 3.3 10 5 C8.35 5 6.7 5 5 5 C5 8.63 5 12.26 5 16 C3.35 16 1.7 16 0 16 C0 17.65 0 19.3 0 21 C-1.98 21 -3.96 21 -6 21 C-6 22.65 -6 24.3 -6 26 C-9.3 26 -12.6 26 -16 26 C-16 27.65 -16 29.3 -16 31 C-17.65 31 -19.3 31 -21 31 C-21 32.98 -21 34.96 -21 37 C-14.07 37 -7.14 37 0 37 C0 38.65 0 40.3 0 42 C-17.49 42 -34.98 42 -53 42 C-53 40.35 -53 38.7 -53 37 C-59.93 37 -66.86 37 -74 37 C-74 38.65 -74 40.3 -74 42 C-77.63 42 -81.26 42 -85 42 C-85 40.35 -85 38.7 -85 37 C-81.7 37 -78.4 37 -75 37 C-75 35.35 -75 33.7 -75 32 C-71.37 32 -67.74 32 -64 32 C-64 30.02 -64 28.04 -64 26 C-58.72 26 -53.44 26 -48 26 C-48 24.35 -48 22.7 -48 21 C-44.7 20.67 -41.4 20.34 -38 20 C-37.67 18.68 -37.34 17.36 -37 16 C-32.05 15.67 -27.1 15.34 -22 15 C-21.67 13.35 -21.34 11.7 -21 10 C-17.7 10 -14.4 10 -11 10 C-11 8.35 -11 6.7 -11 5 C-7.37 5 -3.74 5 0 5 C0 3.35 0 1.7 0 0 Z " fill="#252525" transform="translate(85,283)"/>
<path d="M0 0 C6.93 0 13.86 0 21 0 C21 3.63 21 7.26 21 11 C27.93 11 34.86 11 42 11 C42 12.65 42 14.3 42 16 C40.35 16 38.7 16 37 16 C37 22.93 37 29.86 37 37 C35.35 37 33.7 37 32 37 C32 38.65 32 40.3 32 42 C28.37 42 24.74 42 21 42 C21 40.35 21 38.7 21 37 C19.35 37 17.7 37 16 37 C16 33.7 16 30.4 16 27 C14.02 27 12.04 27 10 27 C10 23.37 10 19.74 10 16 C8.35 16 6.7 16 5 16 C5 12.37 5 8.74 5 5 C3.35 5 1.7 5 0 5 C0 3.35 0 1.7 0 0 Z " fill="#4E4E4E" transform="translate(154,304)"/>
<path d="M0 0 C1.32 0 2.64 0 4 0 C5.20272819 2.40545638 5.10071472 3.94996953 5.0625 6.625 C5.05347656 7.44226563 5.04445312 8.25953125 5.03515625 9.1015625 C5.02355469 9.72804688 5.01195312 10.35453125 5 11 C6.32 11 7.64 11 9 11 C9.495 13.475 9.495 13.475 10 16 C13.3 16 16.6 16 20 16 C20 19.63 20 23.26 20 27 C21.98 27 23.96 27 26 27 C26 30.3 26 33.6 26 37 C27.65 37 29.3 37 31 37 C31 39.97 31 42.94 31 46 C25.72 46 20.44 46 15 46 C15 44.68 15 43.36 15 42 C13.35 42 11.7 42 10 42 C10 40.35 10 38.7 10 37 C6.37 37 2.74 37 -1 37 C-1 35.35 -1 33.7 -1 32 C-6.28 32 -11.56 32 -17 32 C-17 30.35 -17 28.7 -17 27 C-20.3 27 -23.6 27 -27 27 C-27 25.35 -27 23.7 -27 22 C-21.72 22 -16.44 22 -11 22 C-11 23.32 -11 24.64 -11 26 C-6.05 26 -1.1 26 4 26 C4 22.7 4 19.4 4 16 C2.35 16 0.7 16 -1 16 C-1.02685095 13.52076199 -1.04676547 11.0418116 -1.0625 8.5625 C-1.07087891 7.85544922 -1.07925781 7.14839844 -1.08789062 6.41992188 C-1.09653588 4.61306441 -1.05220011 2.80612397 -1 1 C-0.67 0.67 -0.34 0.34 0 0 Z " fill="#262626" transform="translate(144,304)"/>
<path d="M0 0 C0.33 0 0.66 0 1 0 C1 3.63 1 7.26 1 11 C4.3 11 7.6 11 11 11 C11 12.65 11 14.3 11 16 C23.21 16 35.42 16 48 16 C48 17.65 48 19.3 48 21 C53.28 21 58.56 21 64 21 C64 19.35 64 17.7 64 16 C65.65 16 67.3 16 69 16 C69 19.3 69 22.6 69 26 C64.05 26 59.1 26 54 26 C54 24.68 54 23.36 54 22 C48.72 22 43.44 22 38 22 C38 23.65 38 25.3 38 27 C41.3 27 44.6 27 48 27 C48 28.65 48 30.3 48 32 C41.07 32 34.14 32 27 32 C27 30.02 27 28.04 27 26 C26.43490723 26.03552979 25.86981445 26.07105957 25.28759766 26.10766602 C22.73371428 26.26501802 20.1794046 26.41386008 17.625 26.5625 C16.73554687 26.61857422 15.84609375 26.67464844 14.9296875 26.73242188 C13.65351562 26.80493164 13.65351562 26.80493164 12.3515625 26.87890625 C11.56604004 26.9260376 10.78051758 26.97316895 9.97119141 27.02172852 C8 27 8 27 6 26 C6 22.7 6 19.4 6 16 C-0.93 16 -7.86 16 -15 16 C-15 14.02 -15 12.04 -15 10 C-13.35 10 -11.7 10 -10 10 C-10 8.35 -10 6.7 -10 5 C-6.7 5 -3.4 5 0 5 C0 3.35 0 1.7 0 0 Z " fill="#4E4E4E" transform="translate(79,304)"/>
<path d="M0 0 C3.63 0 7.26 0 11 0 C11 1.98 11 3.96 11 6 C15.95 6 20.9 6 26 6 C26.495 7.98 26.495 7.98 27 10 C30.3 10.33 33.6 10.66 37 11 C37 14.63 37 18.26 37 22 C41.95 22 46.9 22 52 22 C52 23.65 52 25.3 52 27 C45.07 27 38.14 27 31 27 C31 25.35 31 23.7 31 22 C22.42 22 13.84 22 5 22 C5 23.65 5 25.3 5 27 C1.37 27 -2.26 27 -6 27 C-6 23.37 -6 19.74 -6 16 C-4.02 16 -2.04 16 0 16 C0 10.72 0 5.44 0 0 Z " fill="#9E9E9E" transform="translate(223,309)"/>
<path d="M0 0 C0.33 0 0.66 0 1 0 C1 1.65 1 3.3 1 5 C5.95 5 10.9 5 16 5 C16 5.33 16 5.66 16 6 C11.05 6 6.1 6 1 6 C1.495 7.98 1.495 7.98 2 10 C3.32 10.33 4.64 10.66 6 11 C6 12.65 6 14.3 6 16 C2.37 16 -1.26 16 -5 16 C-4.7525 17.4540625 -4.7525 17.4540625 -4.5 18.9375 C-3.86603727 23.29487763 -3.9103328 27.60630704 -4 32 C-2.68 32 -1.36 32 0 32 C0 42.56 0 53.12 0 64 C-8.58 64 -17.16 64 -26 64 C-26 63.67 -26 63.34 -26 63 C-22.7 63 -19.4 63 -16 63 C-16 61.68 -16 60.36 -16 59 C-17.65 59 -19.3 59 -21 59 C-21 57.02 -21 55.04 -21 53 C-22.65 53 -24.3 53 -26 53 C-26 49.7 -26 46.4 -26 43 C-24.35 43 -22.7 43 -21 43 C-20 44 -20 44 -19.90234375 46.06640625 C-19.91394531 46.89011719 -19.92554688 47.71382812 -19.9375 48.5625 C-19.94652344 49.38878906 -19.95554688 50.21507812 -19.96484375 51.06640625 C-19.97644531 51.70449219 -19.98804688 52.34257813 -20 53 C-18.35 53 -16.7 53 -15 53 C-15 54.65 -15 56.3 -15 58 C-13.35 58 -11.7 58 -10 58 C-10 59.65 -10 61.3 -10 63 C-8.35 63 -6.7 63 -5 63 C-5 52.77 -5 42.54 -5 32 C-6.65 32 -8.3 32 -10 32 C-10 28.37 -10 24.74 -10 21 C-11.98 21 -13.96 21 -16 21 C-16 19.35 -16 17.7 -16 16 C-17.65 16 -19.3 16 -21 16 C-21 14.35 -21 12.7 -21 11 C-24.3 11 -27.6 11 -31 11 C-31 9.02 -31 7.04 -31 5 C-27.37 5 -23.74 5 -20 5 C-20 6.65 -20 8.3 -20 10 C-18.35 10 -16.7 10 -15 10 C-15 8.35 -15 6.7 -15 5 C-10.05 5 -5.1 5 0 5 C0 3.35 0 1.7 0 0 Z " fill="#1C1C1C" transform="translate(201,28)"/>
<path d="M0 0 C3.63 0 7.26 0 11 0 C11 1.98 11 3.96 11 6 C12.65 6 14.3 6 16 6 C16 12.93 16 19.86 16 27 C14.35 27 12.7 27 11 27 C11 25.02 11 23.04 11 21 C9.35 21 7.7 21 6 21 C6 19.35 6 17.7 6 16 C4.02 16 2.04 16 0 16 C0 21.28 0 26.56 0 32 C1.98 32 3.96 32 6 32 C6 33.65 6 35.3 6 37 C7.98 37 9.96 37 12 37 C11.67 38.65 11.34 40.3 11 42 C12.65 42 14.3 42 16 42 C16 47.61 16 53.22 16 59 C14.35 59 12.7 59 11 59 C11 57.02 11 55.04 11 53 C9.35 53 7.7 53 6 53 C6 51.35 6 49.7 6 48 C4.35 48 2.7 48 1 48 C0.67 46.35 0.34 44.7 0 43 C-1.65 42.67 -3.3 42.34 -5 42 C-5 30.12 -5 18.24 -5 6 C-3.35 6 -1.7 6 0 6 C0 4.02 0 2.04 0 0 Z " fill="#434343" transform="translate(95,150)"/>
<path d="M0 0 C1.65 0 3.3 0 5 0 C5 3.63 5 7.26 5 11 C3.35 11 1.7 11 0 11 C0 12.65 0 14.3 0 16 C-1.65 16 -3.3 16 -5 16 C-5 19.3 -5 22.6 -5 26 C-6.65 26 -8.3 26 -10 26 C-10 24.35 -10 22.7 -10 21 C-13.63 21 -17.26 21 -21 21 C-21 22.98 -21 24.96 -21 27 C-36.84 27 -52.68 27 -69 27 C-69 23.37 -69 19.74 -69 16 C-48.21 16 -27.42 16 -6 16 C-6 14.02 -6 12.04 -6 10 C-4.02 10 -2.04 10 0 10 C0 6.7 0 3.4 0 0 Z " fill="#1D1D1D" transform="translate(244,288)"/>
<path d="M0 0 C1.65 0 3.3 0 5 0 C5 6.6 5 13.2 5 20 C6.65 20 8.3 20 10 20 C10 25.61 10 31.22 10 37 C11.98 37 13.96 37 16 37 C16 40.3 16 43.6 16 47 C17.65 47 19.3 47 21 47 C21 52.28 21 57.56 21 63 C22.65 63 24.3 63 26 63 C26 64.65 26 66.3 26 68 C20.72 68 15.44 68 10 68 C10 66.35 10 64.7 10 63 C4.72 63 -0.56 63 -6 63 C-6 61.35 -6 59.7 -6 58 C-4.02 58 -2.04 58 0 58 C0 56.35 0 54.7 0 53 C2.475 52.505 2.475 52.505 5 52 C5 41.77 5 31.54 5 21 C3.35 21 1.7 21 0 21 C0 14.07 0 7.14 0 0 Z " fill="#686868" transform="translate(117,257)"/>
<path d="M0 0 C6.93 0 13.86 0 21 0 C21 4.29 21 8.58 21 13 C19.35 13 17.7 13 16 13 C16 16.63 16 20.26 16 24 C14.02 24 12.04 24 10 24 C10 27.3 10 30.6 10 34 C8.35 34 6.7 34 5 34 C5 35.98 5 37.96 5 40 C3.35 40 1.7 40 0 40 C0 36.37 0 32.74 0 29 C-1.65 29 -3.3 29 -5 29 C-5 27.02 -5 25.04 -5 23 C-6.65 23 -8.3 23 -10 23 C-10 21.68 -10 20.36 -10 19 C-8.35 19 -6.7 19 -5 19 C-5 15.37 -5 11.74 -5 8 C-3.35 8 -1.7 8 0 8 C0 5.36 0 2.72 0 0 Z " fill="#868686" transform="translate(244,190)"/>
<path d="M0 0 C0.33 0 0.66 0 1 0 C1 6.93 1 13.86 1 21 C2.65 21 4.3 21 6 21 C6 17.7 6 14.4 6 11 C9.3 11 12.6 11 16 11 C16 9.35 16 7.7 16 6 C13.525 5.505 13.525 5.505 11 5 C11 3.35 11 1.7 11 0 C14.63 0 18.26 0 22 0 C22 1.65 22 3.3 22 5 C30.58 5 39.16 5 48 5 C48 6.98 48 8.96 48 11 C37.77 11 27.54 11 17 11 C17 12.65 17 14.3 17 16 C21.95 16 26.9 16 32 16 C32 17.65 32 19.3 32 21 C26.72 21 21.44 21 16 21 C16 22.98 16 24.96 16 27 C12.7 27 9.4 27 6 27 C6 28.65 6 30.3 6 32 C4.02 32 2.04 32 0 32 C0 28.7 0 25.4 0 22 C-1.32 22 -2.64 22 -4 22 C-4 28.6 -4 35.2 -4 42 C-2.35 42 -0.7 42 1 42 C1 47.28 1 52.56 1 58 C0.67 58 0.34 58 0 58 C0 53.05 0 48.1 0 43 C-1.65 43 -3.3 43 -5 43 C-5 35.74 -5 28.48 -5 21 C-3.35 21 -1.7 21 0 21 C0 14.07 0 7.14 0 0 Z " fill="#1C1C1C" transform="translate(79,97)"/>
<path d="M0 0 C19.14 0 38.28 0 58 0 C58 1.65 58 3.3 58 5 C53.05 5 48.1 5 43 5 C43 6.65 43 8.3 43 10 C41.35 10 39.7 10 38 10 C38 8.35 38 6.7 38 5 C34.37 5 30.74 5 27 5 C27 6.98 27 8.96 27 11 C30.3 11 33.6 11 37 11 C37 12.65 37 14.3 37 16 C38.65 16 40.3 16 42 16 C42.495 18.475 42.495 18.475 43 21 C44.32 21.33 45.64 21.66 47 22 C47 25.3 47 28.6 47 32 C45.35 32 43.7 32 42 32 C42 30.35 42 28.7 42 27 C40.35 27 38.7 27 37 27 C37 25.02 37 23.04 37 21 C35.35 21 33.7 21 32 21 C32 19.35 32 17.7 32 16 C30.35 16 28.7 16 27 16 C26.67 14.68 26.34 13.36 26 12 C21.05 11.67 16.1 11.34 11 11 C11 9.02 11 7.04 11 5 C7.37 5 3.74 5 0 5 C0 3.35 0 1.7 0 0 Z " fill="#020202" transform="translate(143,28)"/>
<path d="M0 0 C1.98 0 3.96 0 6 0 C6 1.65 6 3.3 6 5 C7.65 5 9.3 5 11 5 C11 3.35 11 1.7 11 0 C12.65 0 14.3 0 16 0 C16 1.65 16 3.3 16 5 C17.98 5 19.96 5 22 5 C22 6.98 22 8.96 22 11 C23.65 11 25.3 11 27 11 C27 12.65 27 14.3 27 16 C28.65 16 30.3 16 32 16 C32 17.65 32 19.3 32 21 C35.63 21 39.26 21 43 21 C43 19.35 43 17.7 43 16 C44.65 16 46.3 16 48 16 C48 17.65 48 19.3 48 21 C53.28 21 58.56 21 64 21 C64 21.33 64 21.66 64 22 C58.72 22 53.44 22 48 22 C48 23.65 48 25.3 48 27 C46.35 27 44.7 27 43 27 C43 28.65 43 30.3 43 32 C41.02 32 39.04 32 37 32 C37 30.35 37 28.7 37 27 C38.65 26.67 40.3 26.34 42 26 C42.33 24.68 42.66 23.36 43 22 C39.37 22 35.74 22 32 22 C32 23.65 32 25.3 32 27 C30.35 27 28.7 27 27 27 C27 28.65 27 30.3 27 32 C25.02 32 23.04 32 21 32 C21 30.35 21 28.7 21 27 C19.35 27 17.7 27 16 27 C16 25.02 16 23.04 16 21 C14.35 21 12.7 21 11 21 C11 19.35 11 17.7 11 16 C9.35 16 7.7 16 6 16 C6 14.35 6 12.7 6 11 C7.65 11 9.3 11 11 11 C11 9.35 11 7.7 11 6 C9.02 6 7.04 6 5 6 C5 4.35 5 2.7 5 1 C3.35 1 1.7 1 0 1 C0 0.67 0 0.34 0 0 Z " fill="#444444" transform="translate(127,203)"/>
<path d="M0 0 C17.49 0 34.98 0 53 0 C53 3.63 53 7.26 53 11 C37.16 11 21.32 11 5 11 C5 9.02 5 7.04 5 5 C3.35 5 1.7 5 0 5 C0 3.35 0 1.7 0 0 Z " fill="#E4E4E4" transform="translate(170,235)"/>
<path d="M0 0 C14.19 0 28.38 0 43 0 C43 1.65 43 3.3 43 5 C46.3 5 49.6 5 53 5 C53 3.35 53 1.7 53 0 C53.33 0 53.66 0 54 0 C54 1.65 54 3.3 54 5 C60.93 5 67.86 5 75 5 C75 6.65 75 8.3 75 10 C57.51 10 40.02 10 22 10 C22 8.35 22 6.7 22 5 C15.07 5 8.14 5 1 5 C1 6.65 1 8.3 1 10 C-2.63 10 -6.26 10 -10 10 C-10 8.35 -10 6.7 -10 5 C-6.7 5 -3.4 5 0 5 C0 3.35 0 1.7 0 0 Z " fill="#383838" transform="translate(10,315)"/>
<path d="M0 0 C3.63 0 7.26 0 11 0 C11 3.3 11 6.6 11 10 C9.02 10 7.04 10 5 10 C5 13.63 5 17.26 5 21 C8.63 21 12.26 21 16 21 C16 19.35 16 17.7 16 16 C24.58 16 33.16 16 42 16 C42 17.65 42 19.3 42 21 C38.7 21 35.4 21 32 21 C32 22.65 32 24.3 32 26 C19.79 26 7.58 26 -5 26 C-5 20.72 -5 15.44 -5 10 C-3.35 10 -1.7 10 0 10 C0 6.7 0 3.4 0 0 Z " fill="#4F4F4F" transform="translate(212,315)"/>
<path d="M0 0 C3.63 0 7.26 0 11 0 C11 1.65 11 3.3 11 5 C14.63 5 18.26 5 22 5 C22 6.98 22 8.96 22 11 C22.57975586 10.83701416 23.15951172 10.67402832 23.75683594 10.50610352 C27.22673123 9.72322444 30.712623 9.89687641 34.25 9.9375 C34.99507812 9.94201172 35.74015625 9.94652344 36.5078125 9.95117188 C38.3385764 9.96290754 40.16929873 9.9808415 42 10 C42 6.7 42 3.4 42 0 C42.33 0 42.66 0 43 0 C43 3.63 43 7.26 43 11 C37.72 11 32.44 11 27 11 C27 12.65 27 14.3 27 16 C21.72 16 16.44 16 11 16 C11 17.65 11 19.3 11 21 C5.72 21 0.44 21 -5 21 C-5 16.05 -5 11.1 -5 6 C-3.35 5.67 -1.7 5.34 0 5 C0 3.35 0 1.7 0 0 Z " fill="#777777" transform="translate(180,203)"/>
<path d="M0 0 C1.65 0 3.3 0 5 0 C5 3.63 5 7.26 5 11 C6.65 11 8.3 11 10 11 C10 15.95 10 20.9 10 26 C11.65 26 13.3 26 15 26 C15 34.91 15 43.82 15 53 C13.35 53 11.7 53 10 53 C10 47.72 10 42.44 10 37 C8.35 37 6.7 37 5 37 C5 33.37 5 29.74 5 26 C3.35 26 1.7 26 0 26 C0 24.35 0 22.7 0 21 C-3.63 21 -7.26 21 -11 21 C-11 19.35 -11 17.7 -11 16 C-9.35 16 -7.7 16 -6 16 C-6 14.35 -6 12.7 -6 11 C-4.02 11 -2.04 11 0 11 C0 7.37 0 3.74 0 0 Z " fill="#020202" transform="translate(250,60)"/>
<path d="M0 0 C8.58 0 17.16 0 26 0 C26 1.65 26 3.3 26 5 C27.98 5 29.96 5 32 5 C32 6.65 32 8.3 32 10 C33.65 10 35.3 10 37 10 C37 11.98 37 13.96 37 16 C38.65 16 40.3 16 42 16 C42 17.65 42 19.3 42 21 C43.98 21 45.96 21 48 21 C48 24.3 48 27.6 48 31 C49.65 31 51.3 31 53 31 C53 31.33 53 31.66 53 32 C45.74 32 38.48 32 31 32 C31 30.02 31 28.04 31 26 C31.33 26 31.66 26 32 26 C32 27.65 32 29.3 32 31 C35.3 31 38.6 31 42 31 C42 29.35 42 27.7 42 26 C40.35 26 38.7 26 37 26 C37 24.35 37 22.7 37 21 C35.35 21 33.7 21 32 21 C32 19.35 32 17.7 32 16 C28.37 16 24.74 16 21 16 C21 14.35 21 12.7 21 11 C19.35 11 17.7 11 16 11 C16 9.02 16 7.04 16 5 C10.72 5 5.44 5 0 5 C0 3.35 0 1.7 0 0 Z " fill="#1E1E1E" transform="translate(122,55)"/>
<path d="M0 0 C1.65 0 3.3 0 5 0 C5 3.3 5 6.6 5 10 C0.05 10 -4.9 10 -10 10 C-10 8.68 -10 7.36 -10 6 C-15.28 6 -20.56 6 -26 6 C-26 7.65 -26 9.3 -26 11 C-22.7 11 -19.4 11 -16 11 C-16 12.65 -16 14.3 -16 16 C-22.93 16 -29.86 16 -37 16 C-37 14.02 -37 12.04 -37 10 C-37.56509277 10.03552979 -38.13018555 10.07105957 -38.71240234 10.10766602 C-41.26628572 10.26501802 -43.8205954 10.41386008 -46.375 10.5625 C-47.70917969 10.64661133 -47.70917969 10.64661133 -49.0703125 10.73242188 C-50.34648438 10.80493164 -50.34648438 10.80493164 -51.6484375 10.87890625 C-52.43395996 10.9260376 -53.21948242 10.97316895 -54.02880859 11.02172852 C-56 11 -56 11 -58 10 C-58 8.35 -58 6.7 -58 5 C-38.86 5 -19.72 5 0 5 C0 3.35 0 1.7 0 0 Z " fill="#393939" transform="translate(143,320)"/>
<path d="M0 0 C9.24 0 18.48 0 28 0 C28 4.62 28 9.24 28 14 C18.76 14 9.52 14 0 14 C0 9.38 0 4.76 0 0 Z " fill="#080505" transform="translate(155,176)"/>
<path d="M0 0 C9.24 0 18.48 0 28 0 C28 4.62 28 9.24 28 14 C18.76 14 9.52 14 0 14 C0 9.38 0 4.76 0 0 Z " fill="#C57415" transform="translate(155,162)"/>
<path d="M0 0 C9.24 0 18.48 0 28 0 C28 4.62 28 9.24 28 14 C18.76 14 9.52 14 0 14 C0 9.38 0 4.76 0 0 Z " fill="#C0751D" transform="translate(225,162)"/>
<path d="M0 0 C9.24 0 18.48 0 28 0 C28 4.62 28 9.24 28 14 C18.76 14 9.52 14 0 14 C0 9.38 0 4.76 0 0 Z " fill="#5B3911" transform="translate(225,148)"/>
<path d="M0 0 C9.24 0 18.48 0 28 0 C28 4.62 28 9.24 28 14 C18.76 14 9.52 14 0 14 C0 9.38 0 4.76 0 0 Z " fill="#5B3910" transform="translate(155,148)"/>
<path d="M0 0 C1.98 0 3.96 0 6 0 C6 3.63 6 7.26 6 11 C4.02 11 2.04 11 0 11 C0 12.65 0 14.3 0 16 C-1.65 16 -3.3 16 -5 16 C-5 17.65 -5 19.3 -5 21 C-1.37 21 2.26 21 6 21 C6 22.65 6 24.3 6 26 C7.65 26 9.3 26 11 26 C11 29.63 11 33.26 11 37 C9.02 37 7.04 37 5 37 C5 33.7 5 30.4 5 27 C0.38 27.33 -4.24 27.66 -9 28 C-9.33 29.32 -9.66 30.64 -10 32 C-13.63 32 -17.26 32 -21 32 C-21 30.02 -21 28.04 -21 26 C-19.35 26 -17.7 26 -16 26 C-16 24.35 -16 22.7 -16 21 C-14.35 21 -12.7 21 -11 21 C-11 19.35 -11 17.7 -11 16 C-9.35 16 -7.7 16 -6 16 C-6 14.02 -6 12.04 -6 10 C-4.02 10 -2.04 10 0 10 C0 6.7 0 3.4 0 0 Z " fill="#1B1B1B" transform="translate(244,60)"/>
<path d="M0 0 C1.65 0 3.3 0 5 0 C5 24.42 5 48.84 5 74 C3.35 74 1.7 74 0 74 C0 49.58 0 25.16 0 0 Z " fill="#000000" transform="translate(101,203)"/>
<path d="M0 0 C1.65 0 3.3 0 5 0 C6.20272819 2.40545638 6.10071472 3.94996953 6.0625 6.625 C6.05347656 7.44226562 6.04445312 8.25953125 6.03515625 9.1015625 C6.02355469 9.72804688 6.01195312 10.35453125 6 11 C7.32 11 8.64 11 10 11 C10 21.56 10 32.12 10 43 C1.42 43 -7.16 43 -16 43 C-16 42.67 -16 42.34 -16 42 C-12.7 42 -9.4 42 -6 42 C-6 40.68 -6 39.36 -6 38 C-7.65 38 -9.3 38 -11 38 C-11 36.02 -11 34.04 -11 32 C-12.65 32 -14.3 32 -16 32 C-16 28.7 -16 25.4 -16 22 C-14.35 22 -12.7 22 -11 22 C-10 23 -10 23 -9.90234375 25.06640625 C-9.91394531 25.89011719 -9.92554688 26.71382812 -9.9375 27.5625 C-9.94652344 28.38878906 -9.95554688 29.21507813 -9.96484375 30.06640625 C-9.97644531 30.70449219 -9.98804688 31.34257813 -10 32 C-8.35 32 -6.7 32 -5 32 C-5 33.65 -5 35.3 -5 37 C-3.35 37 -1.7 37 0 37 C0 38.65 0 40.3 0 42 C1.65 42 3.3 42 5 42 C5 31.77 5 21.54 5 11 C3.35 11 1.7 11 0 11 C0 7.37 0 3.74 0 0 Z " fill="#2B2B2B" transform="translate(191,49)"/>
<path d="M0 0 C3.63 0 7.26 0 11 0 C11 3.63 11 7.26 11 11 C17.93 11 24.86 11 32 11 C32 12.65 32 14.3 32 16 C30.35 16 28.7 16 27 16 C27 17.65 27 19.3 27 21 C25.35 21 23.7 21 22 21 C22 22.98 22 24.96 22 27 C20.02 27 18.04 27 16 27 C16 25.02 16 23.04 16 21 C14.35 21 12.7 21 11 21 C11 19.35 11 17.7 11 16 C9.35 16 7.7 16 6 16 C6 14.35 6 12.7 6 11 C5.195625 11.020625 4.39125 11.04125 3.5625 11.0625 C1 11 1 11 0 10 C-0.14257189 6.66381769 -0.04228157 3.34024394 0 0 Z " fill="#686868" transform="translate(164,304)"/>
<path d="M0 0 C3.63 0 7.26 0 11 0 C11 1.98 11 3.96 11 6 C12.65 6 14.3 6 16 6 C16 12.93 16 19.86 16 27 C14.35 27 12.7 27 11 27 C11 25.02 11 23.04 11 21 C9.35 21 7.7 21 6 21 C6 19.35 6 17.7 6 16 C2.37 16 -1.26 16 -5 16 C-5 12.7 -5 9.4 -5 6 C-3.35 6 -1.7 6 0 6 C0 4.02 0 2.04 0 0 Z " fill="#858585" transform="translate(95,150)"/>
<path d="M0 0 C4.95 0 9.9 0 15 0 C15 1.98 15 3.96 15 6 C10.38 6.33 5.76 6.66 1 7 C0.67 11.62 0.34 16.24 0 21 C-1.65 21.33 -3.3 21.66 -5 22 C-5 28.93 -5 35.86 -5 43 C-8.63 43 -12.26 43 -16 43 C-16 42.67 -16 42.34 -16 42 C-14.35 42 -12.7 42 -11 42 C-11 33.42 -11 24.84 -11 16 C-9.02 16 -7.04 16 -5 16 C-5 12.7 -5 9.4 -5 6 C-3.35 6 -1.7 6 0 6 C0 4.02 0 2.04 0 0 Z " fill="#5F5F5F" transform="translate(138,81)"/>
<path d="M0 0 C3.3 0 6.6 0 10 0 C10 2.64 10 5.28 10 8 C8.35 8 6.7 8 5 8 C5 19.88 5 31.76 5 44 C6.65 44 8.3 44 10 44 C11 45 11 45 11.0625 47.5625 C11.041875 48.366875 11.02125 49.17125 11 50 C12.65 50 14.3 50 16 50 C16 51.65 16 53.3 16 55 C14.02 55 12.04 55 10 55 C10 53.35 10 51.7 10 50 C8.35 50 6.7 50 5 50 C5 48.35 5 46.7 5 45 C3.35 45 1.7 45 0 45 C0 30.15 0 15.3 0 0 Z " fill="#000000" transform="translate(85,148)"/>
<path d="M0 0 C3.3 0 6.6 0 10 0 C10 1.65 10 3.3 10 5 C8.35 5 6.7 5 5 5 C5 8.63 5 12.26 5 16 C1.16693011 16.19587228 -2.66620274 16.3819549 -6.5 16.5625 C-8.11648437 16.64661133 -8.11648437 16.64661133 -9.765625 16.73242188 C-15.66838755 17.00236528 -21.16518157 16.95594719 -27 16 C-27 14.35 -27 12.7 -27 11 C-23.37 11 -19.74 11 -16 11 C-16 9.35 -16 7.7 -16 6 C-10.72 6 -5.44 6 0 6 C0 4.02 0 2.04 0 0 Z " fill="#1D1D1D" transform="translate(117,118)"/>
<path d="M0 0 C3.3 0 6.6 0 10 0 C10 1.65 10 3.3 10 5 C6.7 5 3.4 5 0 5 C0 6.65 0 8.3 0 10 C-5.28 10 -10.56 10 -16 10 C-16 11.98 -16 13.96 -16 16 C-19.63 16 -23.26 16 -27 16 C-27 17.65 -27 19.3 -27 21 C-32.28 21 -37.56 21 -43 21 C-43 19.02 -43 17.04 -43 15 C-37.72 15 -32.44 15 -27 15 C-27 13.35 -27 11.7 -27 10 C-23.7 9.67 -20.4 9.34 -17 9 C-16.67 7.68 -16.34 6.36 -16 5 C-11.05 4.67 -6.1 4.34 -1 4 C-0.67 2.68 -0.34 1.36 0 0 Z " fill="#070707" transform="translate(64,294)"/>
<path d="M0 0 C1.32 0 2.64 0 4 0 C4 15.51 4 31.02 4 47 C2.02 47 0.04 47 -2 47 C-2 35.78 -2 24.56 -2 13 C-1.67 13 -1.34 13 -1 13 C-0.67 8.71 -0.34 4.42 0 0 Z " fill="#090909" transform="translate(267,177)"/>
<path d="M0 0 C1.98 0 3.96 0 6 0 C6 1.65 6 3.3 6 5 C7.65 5 9.3 5 11 5 C11 6.98 11 8.96 11 11 C12.65 11 14.3 11 16 11 C16 15.95 16 20.9 16 26 C14.35 26 12.7 26 11 26 C11 24.68 11 23.36 11 22 C9.35 21.67 7.7 21.34 6 21 C6 19.35 6 17.7 6 16 C4.02 16 2.04 16 0 16 C0 10.72 0 5.44 0 0 Z " fill="#414141" transform="translate(95,166)"/>
<path d="M0 0 C2.475 0.495 2.475 0.495 5 1 C5 2.65 5 4.3 5 6 C6.98 6 8.96 6 11 6 C11 14.58 11 23.16 11 32 C9.35 32 7.7 32 6 32 C6 35.3 6 38.6 6 42 C12.6 42 19.2 42 26 42 C26.33 40.68 26.66 39.36 27 38 C27 39.65 27 41.3 27 43 C19.74 43 12.48 43 5 43 C5 32.44 5 21.88 5 11 C3.68 11 2.36 11 1 11 C0.67 7.37 0.34 3.74 0 0 Z " fill="#1F1F1F" transform="translate(196,49)"/>
<path d="M0 0 C1.65 0 3.3 0 5 0 C5 1.65 5 3.3 5 5 C17.54 5 30.08 5 43 5 C43 6.65 43 8.3 43 10 C29.14 10 15.28 10 1 10 C0.67 6.7 0.34 3.4 0 0 Z " fill="#262626" transform="translate(196,336)"/>
<path d="M0 0 C1.65 0 3.3 0 5 0 C5 3.63 5 7.26 5 11 C3.35 11 1.7 11 0 11 C0 21.56 0 32.12 0 43 C-1.65 42.67 -3.3 42.34 -5 42 C-5 31.77 -5 21.54 -5 11 C-3.68 11 -2.36 11 -1 11 C-0.67 7.37 -0.34 3.74 0 0 Z " fill="#020202" transform="translate(260,224)"/>
<path d="M0 0 C0.33 1.32 0.66 2.64 1 4 C2.65 4 4.3 4 6 4 C6 5.98 6 7.96 6 10 C7.65 10 9.3 10 11 10 C11 13.63 11 17.26 11 21 C9.02 21 7.04 21 5 21 C5 19.35 5 17.7 5 16 C1.7 16 -1.6 16 -5 16 C-5 14.02 -5 12.04 -5 10 C-6.65 10 -8.3 10 -10 10 C-10 8.35 -10 6.7 -10 5 C-6.7 5 -3.4 5 0 5 C0 3.35 0 1.7 0 0 Z " fill="#767676" transform="translate(233,209)"/>
<path d="M0 0 C13.86 0 27.72 0 42 0 C42 1.65 42 3.3 42 5 C28.14 5 14.28 5 0 5 C0 3.35 0 1.7 0 0 Z " fill="#020202" transform="translate(180,309)"/>
<path d="M0 0 C3.63 0 7.26 0 11 0 C11 1.65 11 3.3 11 5 C12.65 5 14.3 5 16 5 C16 6.65 16 8.3 16 10 C17.65 10 19.3 10 21 10 C21 11.65 21 13.3 21 15 C17.7 15 14.4 15 11 15 C11 13.35 11 11.7 11 10 C5.72 10 0.44 10 -5 10 C-5 8.35 -5 6.7 -5 5 C-3.35 5 -1.7 5 0 5 C0 3.35 0 1.7 0 0 Z " fill="#020202" transform="translate(143,71)"/>
<path d="M0 0 C1.98 0 3.96 0 6 0 C6 1.65 6 3.3 6 5 C7.65 5 9.3 5 11 5 C11 3.35 11 1.7 11 0 C12.65 0 14.3 0 16 0 C16 1.65 16 3.3 16 5 C17.98 5 19.96 5 22 5 C22 6.98 22 8.96 22 11 C20.02 11 18.04 11 16 11 C16 12.65 16 14.3 16 16 C17.65 16 19.3 16 21 16 C21 17.65 21 19.3 21 21 C17.7 21 14.4 21 11 21 C11 19.35 11 17.7 11 16 C9.35 16 7.7 16 6 16 C6 14.35 6 12.7 6 11 C7.65 11 9.3 11 11 11 C11 9.35 11 7.7 11 6 C9.02 6 7.04 6 5 6 C5 4.35 5 2.7 5 1 C3.35 1 1.7 1 0 1 C0 0.67 0 0.34 0 0 Z " fill="#3D3D3D" transform="translate(127,203)"/>
<path d="M0 0 C1.65 0 3.3 0 5 0 C5 3.63 5 7.26 5 11 C3.35 11 1.7 11 0 11 C0 12.65 0 14.3 0 16 C-1.65 16 -3.3 16 -5 16 C-5 19.3 -5 22.6 -5 26 C-6.65 26 -8.3 26 -10 26 C-10 24.35 -10 22.7 -10 21 C-13.63 21 -17.26 21 -21 21 C-21 19.35 -21 17.7 -21 16 C-16.05 16 -11.1 16 -6 16 C-6 14.02 -6 12.04 -6 10 C-4.02 10 -2.04 10 0 10 C0 6.7 0 3.4 0 0 Z " fill="#161616" transform="translate(244,288)"/>
<path d="M0 0 C3.63 0 7.26 0 11 0 C11 1.65 11 3.3 11 5 C12.65 5 14.3 5 16 5 C16 8.63 16 12.26 16 16 C14.02 16 12.04 16 10 16 C10 12.7 10 9.4 10 6 C5.38 6.33 0.76 6.66 -4 7 C-4.33 8.32 -4.66 9.64 -5 11 C-8.63 11 -12.26 11 -16 11 C-16 9.35 -16 7.7 -16 6 C-8.08 5.505 -8.08 5.505 0 5 C0 3.35 0 1.7 0 0 Z " fill="#545454" transform="translate(239,81)"/>
<path d="M0 0 C3.3 0 6.6 0 10 0 C10 1.65 10 3.3 10 5 C11.98 5 13.96 5 16 5 C16 6.65 16 8.3 16 10 C26.23 10 36.46 10 47 10 C47 8.35 47 6.7 47 5 C48.65 5 50.3 5 52 5 C52 3.35 52 1.7 52 0 C52.33 0 52.66 0 53 0 C53 3.63 53 7.26 53 11 C37.16 11 21.32 11 5 11 C5 9.02 5 7.04 5 5 C3.35 5 1.7 5 0 5 C0 3.35 0 1.7 0 0 Z " fill="#A3A3A3" transform="translate(170,235)"/>
<path d="M0 0 C3.3 0 6.6 0 10 0 C10 1.65 10 3.3 10 5 C8.35 5 6.7 5 5 5 C5 8.63 5 12.26 5 16 C3.35 16 1.7 16 0 16 C0 17.65 0 19.3 0 21 C-1.98 21 -3.96 21 -6 21 C-6 19.35 -6 17.7 -6 16 C-7.32 16 -8.64 16 -10 16 C-10 14.35 -10 12.7 -10 11 C-6.7 11 -3.4 11 0 11 C0 7.37 0 3.74 0 0 Z " fill="#393939" transform="translate(85,283)"/>
<path d="M0 0 C1.65 0 3.3 0 5 0 C5 3.3 5 6.6 5 10 C6.65 10 8.3 10 10 10 C10 17.26 10 24.52 10 32 C8.35 32 6.7 32 5 32 C5 26.39 5 20.78 5 15 C3.35 15 1.7 15 0 15 C0 10.05 0 5.1 0 0 Z " fill="#4F4F4F" transform="translate(122,262)"/>
<path d="M0 0 C12.21 0 24.42 0 37 0 C37 1.65 37 3.3 37 5 C24.79 5 12.58 5 0 5 C0 3.35 0 1.7 0 0 Z " fill="#434343" transform="translate(186,246)"/>
<path d="M0 0 C3.63 0 7.26 0 11 0 C11 1.98 11 3.96 11 6 C10.67 6 10.34 6 10 6 C10 4.35 10 2.7 10 1 C8.35 1 6.7 1 5 1 C5 7.6 5 14.2 5 21 C3.35 21 1.7 21 0 21 C0 22.98 0 24.96 0 27 C-1.98 27 -3.96 27 -6 27 C-6 23.37 -6 19.74 -6 16 C-4.02 16 -2.04 16 0 16 C0 10.72 0 5.44 0 0 Z " fill="#686868" transform="translate(223,309)"/>
<path d="M0 0 C1.65 0 3.3 0 5 0 C5 7.26 5 14.52 5 22 C-19.42 22 -43.84 22 -69 22 C-69 21.67 -69 21.34 -69 21 C-46.23 21 -23.46 21 0 21 C0 14.07 0 7.14 0 0 Z " fill="#4F4F4F" transform="translate(260,113)"/>
<path d="M0 0 C1.65 0 3.3 0 5 0 C5 0.66 5 1.32 5 2 C5.99 2 6.98 2 8 2 C8 8.93 8 15.86 8 23 C5.36 23 2.72 23 0 23 C0 15.41 0 7.82 0 0 Z " fill="#5F5F5F" transform="translate(133,148)"/>
<path d="M0 0 C1.98 0 3.96 0 6 0 C6 1.65 6 3.3 6 5 C14.58 5 23.16 5 32 5 C32 6.65 32 8.3 32 10 C23.42 10 14.84 10 6 10 C6 8.68 6 7.36 6 6 C4.02 6 2.04 6 0 6 C0 4.02 0 2.04 0 0 Z " fill="#434343" transform="translate(95,81)"/>
<path d="M0 0 C1.65 0 3.3 0 5 0 C5 3.3 5 6.6 5 10 C6.65 10 8.3 10 10 10 C10 15.28 10 20.56 10 26 C8.35 26 6.7 26 5 26 C5 22.37 5 18.74 5 15 C3.35 15 1.7 15 0 15 C0 10.05 0 5.1 0 0 Z " fill="#252525" transform="translate(133,278)"/>
<path d="M0 0 C1.65 0 3.3 0 5 0 C5 10.23 5 20.46 5 31 C3.35 31 1.7 31 0 31 C0 20.77 0 10.54 0 0 Z " fill="#000000" transform="translate(191,60)"/>
<path d="M0 0 C1.98 0 3.96 0 6 0 C6 1.65 6 3.3 6 5 C7.98 5 9.96 5 12 5 C11.67 6.65 11.34 8.3 11 10 C12.65 10 14.3 10 16 10 C16 15.61 16 21.22 16 27 C14.35 27 12.7 27 11 27 C11 21.72 11 16.44 11 11 C9.02 11 7.04 11 5 11 C3.875 7.25 3.875 7.25 5 5 C3.35 5 1.7 5 0 5 C0 3.35 0 1.7 0 0 Z " fill="#5E5E5E" transform="translate(95,182)"/>
<path d="M0 0 C1.65 0 3.3 0 5 0 C5.33 1.32 5.66 2.64 6 4 C7.65 4.33 9.3 4.66 11 5 C11 6.65 11 8.3 11 10 C12.65 10 14.3 10 16 10 C16 11.65 16 13.3 16 15 C17.65 15 19.3 15 21 15 C21 18.63 21 22.26 21 26 C19.35 26 17.7 26 16 26 C16 22.7 16 19.4 16 16 C14.02 16 12.04 16 10 16 C10 14.35 10 12.7 10 11 C8.35 11 6.7 11 5 11 C5 9.02 5 7.04 5 5 C3.35 5 1.7 5 0 5 C0 3.35 0 1.7 0 0 Z " fill="#0D0D0D" transform="translate(138,267)"/>
<path d="M0 0 C9.24 0 18.48 0 28 0 C28 4.62 28 9.24 28 14 C18.76 14 9.52 14 0 14 C0 9.38 0 4.76 0 0 Z M10.625 1.4375 C9.54025391 1.49647461 9.54025391 1.49647461 8.43359375 1.55664062 C4.91925668 1.47430909 4.91925668 1.47430909 2 3 C1.83946185 4.87321948 1.83946185 4.87321948 1.875 7 C1.87242187 7.721875 1.86984375 8.44375 1.8671875 9.1875 C1.80304724 11.02089415 1.80304724 11.02089415 3 12 C4.70772358 12.08713831 6.41898649 12.10700007 8.12890625 12.09765625 C9.16337891 12.09443359 10.19785156 12.09121094 11.26367188 12.08789062 C12.35228516 12.07951172 13.44089844 12.07113281 14.5625 12.0625 C15.65498047 12.05798828 16.74746094 12.05347656 17.87304688 12.04882812 C20.58205432 12.0369984 23.2910338 12.01906231 26 12 C26 8.37 26 4.74 26 1 C20.85532244 0.95273918 15.75951674 1.12072963 10.625 1.4375 Z " fill="#B5762D" transform="translate(155,162)"/>
<path d="M0 0 C1.65 0 3.3 0 5 0 C5 1.65 5 3.3 5 5 C8.63 5 12.26 5 16 5 C16 6.98 16 8.96 16 11 C12.37 11 8.74 11 5 11 C5 9.35 5 7.7 5 6 C3.35 6 1.7 6 0 6 C0 7.65 0 9.3 0 11 C-1.98 11 -3.96 11 -6 11 C-6 9.35 -6 7.7 -6 6 C-4.35 5.67 -2.7 5.34 -1 5 C-0.67 3.35 -0.34 1.7 0 0 Z " fill="#6E6E6E" transform="translate(186,203)"/>
<path d="M0 0 C1.65 0 3.3 0 5 0 C5 1.65 5 3.3 5 5 C6.98 5 8.96 5 11 5 C11 8.3 11 11.6 11 15 C7.37 15 3.74 15 0 15 C0 10.05 0 5.1 0 0 Z " fill="#1C1C1C" transform="translate(212,50)"/>
<path d="M0 0 C4.95 0 9.9 0 15 0 C15 1.65 15 3.3 15 5 C11.7 5 8.4 5 5 5 C5 6.65 5 8.3 5 10 C1.37 10 -2.26 10 -6 10 C-6 8.35 -6 6.7 -6 5 C-4.02 5 -2.04 5 0 5 C0 3.35 0 1.7 0 0 Z " fill="#676767" transform="translate(239,331)"/>
<path d="M0 0 C1.65 0 3.3 0 5 0 C5 6.93 5 13.86 5 21 C3.35 21 1.7 21 0 21 C0 19.02 0 17.04 0 15 C-1.65 15 -3.3 15 -5 15 C-5 13.35 -5 11.7 -5 10 C-3.35 10 -1.7 10 0 10 C0 6.7 0 3.4 0 0 Z " fill="#767676" transform="translate(106,156)"/>
<path d="M0 0 C1.65 0 3.3 0 5 0 C5 8.58 5 17.16 5 26 C3.35 26 1.7 26 0 26 C0 17.42 0 8.84 0 0 Z " fill="#000000" transform="translate(260,87)"/>
<path d="M0 0 C1.32 0 2.64 0 4 0 C4 10.56 4 21.12 4 32 C2.68 32 1.36 32 0 32 C0 21.44 0 10.88 0 0 Z " fill="#424242" transform="translate(197,60)"/>
<path d="M0 0 C6.93 0 13.86 0 21 0 C21 1.98 21 3.96 21 6 C14.07 6 7.14 6 0 6 C0 4.02 0 2.04 0 0 Z " fill="#0A0A0A" transform="translate(276,330)"/>
<path d="M0 0 C1.65 0 3.3 0 5 0 C5 4.62 5 9.24 5 14 C1.7 13.67 -1.6 13.34 -5 13 C-5 9.37 -5 5.74 -5 2 C-3.35 2 -1.7 2 0 2 C0 1.34 0 0.68 0 0 Z " fill="#7D7D7D" transform="translate(122,148)"/>
<path d="M0 0 C2.64 0 5.28 0 8 0 C8 0.66 8 1.32 8 2 C6.35 2 4.7 2 3 2 C3 33.35 3 64.7 3 97 C2.67 97 2.34 97 2 97 C2 67.3 2 37.6 2 7 C1.34 7 0.68 7 0 7 C0 4.69 0 2.38 0 0 Z " fill="#0C0C0C" transform="translate(114,148)"/>
<path d="M0 0 C3.63 0 7.26 0 11 0 C11 1.65 11 3.3 11 5 C7.7 5 4.4 5 1 5 C1 6.65 1 8.3 1 10 C-2.63 10 -6.26 10 -10 10 C-10 8.35 -10 6.7 -10 5 C-6.7 5 -3.4 5 0 5 C0 3.35 0 1.7 0 0 Z " fill="#0A0A0A" transform="translate(10,315)"/>
<path d="M0 0 C1.65 0 3.3 0 5 0 C5 7.26 5 14.52 5 22 C3.35 22 1.7 22 0 22 C0 14.74 0 7.48 0 0 Z " fill="#686868" transform="translate(106,224)"/>
<path d="M0 0 C6.93 0 13.86 0 21 0 C21 1.65 21 3.3 21 5 C14.07 5 7.14 5 0 5 C0 3.35 0 1.7 0 0 Z " fill="#9F9F9F" transform="translate(276,336)"/>
<path d="M0 0 C6.93 0 13.86 0 21 0 C21 1.65 21 3.3 21 5 C14.07 5 7.14 5 0 5 C0 3.35 0 1.7 0 0 Z " fill="#393939" transform="translate(244,336)"/>
<path d="M0 0 C1.65 0 3.3 0 5 0 C5 6.93 5 13.86 5 21 C3.35 21 1.7 21 0 21 C0 14.07 0 7.14 0 0 Z " fill="#020202" transform="translate(249,267)"/>
<path d="M0 0 C1.65 0 3.3 0 5 0 C5 6.93 5 13.86 5 21 C3.35 21 1.7 21 0 21 C0 14.07 0 7.14 0 0 Z " fill="#9D9D9D" transform="translate(255,113)"/>
<path d="M0 0 C1.65 0 3.3 0 5 0 C5 6.93 5 13.86 5 21 C3.35 21 1.7 21 0 21 C0 14.07 0 7.14 0 0 Z " fill="#1D1D1D" transform="translate(228,55)"/>
<path d="M0 0 C3.63 0 7.26 0 11 0 C11 1.65 11 3.3 11 5 C12.65 5 14.3 5 16 5 C16 6.32 16 7.64 16 9 C12.37 9 8.74 9 5 9 C5 8.01 5 7.02 5 6 C3.35 6 1.7 6 0 6 C0 4.02 0 2.04 0 0 Z " fill="#969696" transform="translate(143,341)"/>
<path d="M0 0 C1.65 0 3.3 0 5 0 C5 1.65 5 3.3 5 5 C10.28 5 15.56 5 21 5 C21 5.33 21 5.66 21 6 C15.72 6 10.44 6 5 6 C5 7.65 5 9.3 5 11 C3.35 11 1.7 11 0 11 C0 12.65 0 14.3 0 16 C-1.98 16 -3.96 16 -6 16 C-6 14.35 -6 12.7 -6 11 C-4.35 10.67 -2.7 10.34 -1 10 C-0.67 6.7 -0.34 3.4 0 0 Z " fill="#585858" transform="translate(170,219)"/>
<path d="M0 0 C1.65 0 3.3 0 5 0 C5 3.3 5 6.6 5 10 C0.05 10 -4.9 10 -10 10 C-10.33 8.35 -10.66 6.7 -11 5 C-7.37 5 -3.74 5 0 5 C0 3.35 0 1.7 0 0 Z " fill="#4F4F4F" transform="translate(143,320)"/>
<path d="M0 0 C1.65 0 3.3 0 5 0 C5.33 1.65 5.66 3.3 6 5 C9.3 5 12.6 5 16 5 C16 6.98 16 8.96 16 11 C12.37 11 8.74 11 5 11 C5 9.35 5 7.7 5 6 C3.35 6 1.7 6 0 6 C0 4.02 0 2.04 0 0 Z " fill="#171717" transform="translate(122,256)"/>
<path d="M0 0 C1.2065625 0.0309375 1.2065625 0.0309375 2.4375 0.0625 C2.4375 1.7125 2.4375 3.3625 2.4375 5.0625 C5.7375 5.0625 9.0375 5.0625 12.4375 5.0625 C12.4375 6.7125 12.4375 8.3625 12.4375 10.0625 C11.4375 11.0625 11.4375 11.0625 9.15234375 11.16015625 C7.77755859 11.14275391 7.77755859 11.14275391 6.375 11.125 C5.45589844 11.11597656 4.53679687 11.10695313 3.58984375 11.09765625 C2.87957031 11.08605469 2.16929687 11.07445312 1.4375 11.0625 C1.4375 9.4125 1.4375 7.7625 1.4375 6.0625 C-0.2125 6.0625 -1.8625 6.0625 -3.5625 6.0625 C-3.605221 4.39638095 -3.60313832 2.72867115 -3.5625 1.0625 C-2.5625 0.0625 -2.5625 0.0625 0 0 Z " fill="#131313" transform="translate(162.5625,292.9375)"/>
<path d="M0 0 C0.33 0 0.66 0 1 0 C1 9.24 1 18.48 1 28 C10.24 28 19.48 28 29 28 C29 20.41 29 12.82 29 5 C29.33 5 29.66 5 30 5 C30 12.92 30 20.84 30 29 C25.62148392 29.04587502 21.24379917 29.08570968 16.86523438 29.10986328 C15.3752968 29.11993043 13.88537903 29.13358518 12.39550781 29.15087891 C10.25580972 29.17509653 8.11637247 29.18647564 5.9765625 29.1953125 C4.68830566 29.20578613 3.40004883 29.21625977 2.07275391 29.22705078 C-1 29 -1 29 -3 27 C-2.67 26.67 -2.34 26.34 -2 26 C-1.7714679 24.0769127 -1.60481143 22.14639772 -1.46484375 20.21484375 C-1.37783203 19.04501953 -1.29082031 17.87519531 -1.20117188 16.66992188 C-1.11416016 15.43822266 -1.02714844 14.20652344 -0.9375 12.9375 C-0.84662109 11.70193359 -0.75574219 10.46636719 -0.66210938 9.19335938 C-0.43732402 6.12918006 -0.2168144 3.06475198 0 0 Z " fill="#130101" transform="translate(224,148)"/>
<path d="M0 0 C4.95 0 9.9 0 15 0 C15 3.3 15 6.6 15 10 C13.68 10 12.36 10 11 10 C11 8.35 11 6.7 11 5 C7.37 5 3.74 5 0 5 C0 3.35 0 1.7 0 0 Z " fill="#000000" transform="translate(223,304)"/>
<path d="M0 0 C1.65 0 3.3 0 5 0 C4.67 7.59 4.34 15.18 4 23 C2.68 23 1.36 23 0 23 C0 15.41 0 7.82 0 0 Z " fill="#737373" transform="translate(197,148)"/>
<path d="M0 0 C12.54 0 25.08 0 38 0 C38 1.65 38 3.3 38 5 C41.3 5 44.6 5 48 5 C48 5.33 48 5.66 48 6 C44.37 6 40.74 6 37 6 C37 4.35 37 2.7 37 1 C26.77 1 16.54 1 6 1 C6 2.65 6 4.3 6 6 C4.35 6 2.7 6 1 6 C1 9.3 1 12.6 1 16 C0.67 16 0.34 16 0 16 C0 10.72 0 5.44 0 0 Z " fill="#141414" transform="translate(95,65)"/>
<path d="M0 0 C1.65 0 3.3 0 5 0 C5.33 3.3 5.66 6.6 6 10 C2.32612505 10.85298376 -1.0447393 11.10789471 -4.8125 11.0625 C-6.27623047 11.04896484 -6.27623047 11.04896484 -7.76953125 11.03515625 C-8.87361328 11.01775391 -8.87361328 11.01775391 -10 11 C-10 10.67 -10 10.34 -10 10 C-8.35 10 -6.7 10 -5 10 C-5 8.35 -5 6.7 -5 5 C-3.35 5 -1.7 5 0 5 C0 3.35 0 1.7 0 0 Z " fill="#414141" transform="translate(233,76)"/>
<path d="M0 0 C5.28 0 10.56 0 16 0 C16 1.98 16 3.96 16 6 C10.72 5.67 5.44 5.34 0 5 C0 3.35 0 1.7 0 0 Z " fill="#9D9D9D" transform="translate(191,203)"/>
<path d="M0 0 C5.28 0 10.56 0 16 0 C16 1.65 16 3.3 16 5 C10.72 5 5.44 5 0 5 C0 3.35 0 1.7 0 0 Z " fill="#050505" transform="translate(260,325)"/>
<path d="M0 0 C1.65 0 3.3 0 5 0 C5 5.28 5 10.56 5 16 C3.35 16 1.7 16 0 16 C0 10.72 0 5.44 0 0 Z " fill="#4F4F4F" transform="translate(138,304)"/>
<path d="M0 0 C5.28 0 10.56 0 16 0 C16 1.65 16 3.3 16 5 C10.72 5 5.44 5 0 5 C0 3.35 0 1.7 0 0 Z " fill="#464646" transform="translate(207,214)"/>
<path d="M0 0 C1.98 0 3.96 0 6 0 C5.67 1.65 5.34 3.3 5 5 C3.68 5.33 2.36 5.66 1 6 C0.67 9.3 0.34 12.6 0 16 C-1.65 16 -3.3 16 -5 16 C-5 12.7 -5 9.4 -5 6 C-3.35 5.67 -1.7 5.34 0 5 C0 3.35 0 1.7 0 0 Z " fill="#777777" transform="translate(180,203)"/>
<path d="M0 0 C1.65 0 3.3 0 5 0 C5 5.28 5 10.56 5 16 C3.35 16 1.7 16 0 16 C0 10.72 0 5.44 0 0 Z " fill="#424242" transform="translate(122,182)"/>
<path d="M0 0 C3.3 0 6.6 0 10 0 C10 2.64 10 5.28 10 8 C6.7 8 3.4 8 0 8 C0 5.36 0 2.72 0 0 Z " fill="#1D1D1D" transform="translate(85,148)"/>
<path d="M0 0 C1.65 0 3.3 0 5 0 C5 5.28 5 10.56 5 16 C3.35 16 1.7 16 0 16 C0 10.72 0 5.44 0 0 Z " fill="#5D5D5D" transform="translate(255,97)"/>
<path d="M0 0 C5.28 0 10.56 0 16 0 C16 1.65 16 3.3 16 5 C10.72 5 5.44 5 0 5 C0 3.35 0 1.7 0 0 Z " fill="#414141" transform="translate(122,55)"/>
<path d="M0 0 C4.95 0 9.9 0 15 0 C15 1.65 15 3.3 15 5 C10.05 5 5.1 5 0 5 C0 3.35 0 1.7 0 0 Z " fill="#020202" transform="translate(308,341)"/>
<path d="M0 0 C1.65 0 3.3 0 5 0 C5 4.95 5 9.9 5 15 C3.35 15 1.7 15 0 15 C0 10.05 0 5.1 0 0 Z " fill="#383838" transform="translate(106,209)"/>
<path d="M0 0 C1.98 0 3.96 0 6 0 C6 1.65 6 3.3 6 5 C7.98 5 9.96 5 12 5 C11.67 6.65 11.34 8.3 11 10 C12.65 10 14.3 10 16 10 C16 10.33 16 10.66 16 11 C12.37 11 8.74 11 5 11 C4 7 4 7 5 5 C3.35 5 1.7 5 0 5 C0 3.35 0 1.7 0 0 Z " fill="#4F4F4F" transform="translate(95,182)"/>
<path d="M0 0 C0 0.33 0 0.66 0 1 C-4.62 1.33 -9.24 1.66 -14 2 C-14.33 3.32 -14.66 4.64 -15 6 C-18.63 6 -22.26 6 -26 6 C-26 4.35 -26 2.7 -26 1 C-17.30019136 -0.01286753 -8.74507107 -0.10621544 0 0 Z " fill="#646464" transform="translate(249,86)"/>
<path d="M0 0 C3.63 0 7.26 0 11 0 C11 1.98 11 3.96 11 6 C5.72 6 0.44 6 -5 6 C-5 5.67 -5 5.34 -5 5 C-3.35 5 -1.7 5 0 5 C0 3.35 0 1.7 0 0 Z " fill="#1C1C1C" transform="translate(127,49)"/>
<path d="M0 0 C1.32 0 2.64 0 4 0 C4 3.63 4 7.26 4 11 C2.02 11 0.04 11 -2 11 C-2 9.35 -2 7.7 -2 6 C-5.3 6 -8.6 6 -12 6 C-12 5.67 -12 5.34 -12 5 C-8.37 5 -4.74 5 -1 5 C-0.67 3.35 -0.34 1.7 0 0 Z " fill="#585858" transform="translate(240,219)"/>
<path d="M0 0 C1.64574566 -0.02688151 3.29161413 -0.04634123 4.9375 -0.0625 C5.85402344 -0.07410156 6.77054687 -0.08570313 7.71484375 -0.09765625 C10 0 10 0 11 1 C11.04063832 2.66617115 11.042721 4.33388095 11 6 C12.65 6 14.3 6 16 6 C16 7.65 16 9.3 16 11 C14.02 11 12.04 11 10 11 C10 9.35 10 7.7 10 6 C8.35 6 6.7 6 5 6 C5 4.35 5 2.7 5 1 C3.35 1 1.7 1 0 1 C0 0.67 0 0.34 0 0 Z " fill="#111111" transform="translate(85,192)"/>
<path d="M0 0 C1.98 0 3.96 0 6 0 C6 1.65 6 3.3 6 5 C4.35 5 2.7 5 1 5 C1 6.98 1 8.96 1 11 C-0.98 11 -2.96 11 -5 11 C-5 9.02 -5 7.04 -5 5 C-3.35 5 -1.7 5 0 5 C0 3.35 0 1.7 0 0 Z " fill="#8D8D8D" transform="translate(185,320)"/>
<path d="M0 0 C3.63 0 7.26 0 11 0 C11 1.98 11 3.96 11 6 C10.67 6 10.34 6 10 6 C10 4.35 10 2.7 10 1 C8.35 1 6.7 1 5 1 C5 4.3 5 7.6 5 11 C3.35 11 1.7 11 0 11 C0 7.37 0 3.74 0 0 Z " fill="#737373" transform="translate(223,309)"/>
<path d="M0 0 C3.3 0 6.6 0 10 0 C10 1.98 10 3.96 10 6 C5.05 6 0.1 6 -5 6 C-5 5.67 -5 5.34 -5 5 C-3.35 5 -1.7 5 0 5 C0 3.35 0 1.7 0 0 Z " fill="#393939" transform="translate(69,309)"/>
<path d="M0 0 C3.3 0 6.6 0 10 0 C10 1.65 10 3.3 10 5 C11.98 5 13.96 5 16 5 C16 6.65 16 8.3 16 10 C15.67 8.68 15.34 7.36 15 6 C14.00419922 6.01740234 14.00419922 6.01740234 12.98828125 6.03515625 C4.21792619 6.12478032 4.21792619 6.12478032 0 5 C0 3.35 0 1.7 0 0 Z " fill="#BDBDBD" transform="translate(170,235)"/>
<path d="M0 0 C1.65 0 3.3 0 5 0 C5 4.29 5 8.58 5 13 C3.35 13 1.7 13 0 13 C0 8.71 0 4.42 0 0 Z " fill="#5F5F5F" transform="translate(260,190)"/>
<path d="M0 0 C5.28 0 10.56 0 16 0 C16 1.32 16 2.64 16 4 C10.72 4 5.44 4 0 4 C0 2.68 0 1.36 0 0 Z " fill="#3E3E3E" transform="translate(85,346)"/>
<path d="M0 0 C10.56 0 21.12 0 32 0 C32 1.98 32 3.96 32 6 C31.67 6 31.34 6 31 6 C31 4.35 31 2.7 31 1 C22.42 1 13.84 1 5 1 C5 2.65 5 4.3 5 6 C3.35 6 1.7 6 0 6 C0 4.02 0 2.04 0 0 Z " fill="#7F7F7F" transform="translate(223,330)"/>
<path d="M0 0 C1.98 0 3.96 0 6 0 C6 1.65 6 3.3 6 5 C14.58 5 23.16 5 32 5 C32 5.33 32 5.66 32 6 C21.44 6 10.88 6 0 6 C0 4.02 0 2.04 0 0 Z " fill="#2C2C2C" transform="translate(95,81)"/>
<path d="M0 0 C4.95 0 9.9 0 15 0 C15 1.32 15 2.64 15 4 C10.05 4 5.1 4 0 4 C0 2.68 0 1.36 0 0 Z " fill="#000000" transform="translate(22,310)"/>
<path d="M0 0 C1.65 0 3.3 0 5 0 C5 3.3 5 6.6 5 10 C6.65 10 8.3 10 10 10 C10 10.33 10 10.66 10 11 C6.7 11 3.4 11 0 11 C0 7.37 0 3.74 0 0 Z " fill="#686868" transform="translate(80,304)"/>
<path d="M0 0 C0.33 0 0.66 0 1 0 C1 7.59 1 15.18 1 23 C3.64 23 6.28 23 9 23 C9 24.65 9 26.3 9 28 C13.62 28 18.24 28 23 28 C23 28.33 23 28.66 23 29 C17.72 29 12.44 29 7 29 C6.67 27.35 6.34 25.7 6 24 C4.02 24 2.04 24 0 24 C0 16.08 0 8.16 0 0 Z " fill="#727271" transform="translate(132,148)"/>
<path d="M0 0 C3.3 0 6.6 0 10 0 C10 0.33 10 0.66 10 1 C8.35 1 6.7 1 5 1 C5 4.3 5 7.6 5 11 C3.35 11 1.7 11 0 11 C0 7.37 0 3.74 0 0 Z " fill="#1C1C1C" transform="translate(255,86)"/>
<path d="M0 0 C0.33 0 0.66 0 1 0 C1 1.65 1 3.3 1 5 C2.65 5 4.3 5 6 5 C6 5.33 6 5.66 6 6 C4.35 6 2.7 6 1 6 C1 9.3 1 12.6 1 16 C0.67 16 0.34 16 0 16 C0 12.7 0 9.4 0 6 C-1.32 6 -2.64 6 -4 6 C-4 7.65 -4 9.3 -4 11 C-12.91 11 -21.82 11 -31 11 C-31 10.67 -31 10.34 -31 10 C-22.42 10 -13.84 10 -5 10 C-5 8.35 -5 6.7 -5 5 C-3.35 5 -1.7 5 0 5 C0 3.35 0 1.7 0 0 Z " fill="#282828" transform="translate(132,81)"/>
<path d="M0 0 C3.63 0 7.26 0 11 0 C11 1.65 11 3.3 11 5 C7.37 5 3.74 5 0 5 C0 3.35 0 1.7 0 0 Z " fill="#030303" transform="translate(297,336)"/>
<path d="M0 0 C3.63 0 7.26 0 11 0 C11 1.65 11 3.3 11 5 C7.37 5 3.74 5 0 5 C0 3.35 0 1.7 0 0 Z " fill="#040404" transform="translate(74,288)"/>
<path d="M0 0 C0.33 0 0.66 0 1 0 C1.73294344 17.7285889 2.29717458 35.27859959 1 53 C0.67 53 0.34 53 0 53 C-1.2100255 35.25916464 -0.76521196 17.7438945 0 0 Z " fill="#151515" transform="translate(254,235)"/>
<path d="M0 0 C1.65 0 3.3 0 5 0 C5 3.63 5 7.26 5 11 C3.35 11 1.7 11 0 11 C0 7.37 0 3.74 0 0 Z " fill="#424242" transform="translate(223,235)"/>
<path d="M0 0 C1.65 0 3.3 0 5 0 C5 3.63 5 7.26 5 11 C3.35 11 1.7 11 0 11 C0 7.37 0 3.74 0 0 Z " fill="#5C5C5C" transform="translate(90,166)"/>
<path d="M0 0 C3.63 0 7.26 0 11 0 C11 1.65 11 3.3 11 5 C7.37 5 3.74 5 0 5 C0 3.35 0 1.7 0 0 Z " fill="#5A5A5A" transform="translate(95,150)"/>
<path d="M0 0 C3.63 0 7.26 0 11 0 C11 1.65 11 3.3 11 5 C7.37 5 3.74 5 0 5 C0 3.35 0 1.7 0 0 Z " fill="#626262" transform="translate(164,87)"/>
<path d="M0 0 C1.98 0 3.96 0 6 0 C6 3.3 6 6.6 6 10 C4.35 10 2.7 10 1 10 C0.67 6.7 0.34 3.4 0 0 Z " fill="#1A1A1A" transform="translate(249,76)"/>
<path d="M0 0 C1.65 0 3.3 0 5 0 C5 3.63 5 7.26 5 11 C3.35 11 1.7 11 0 11 C0 7.37 0 3.74 0 0 Z " fill="#404040" transform="translate(191,49)"/>
<path d="M0 0 C1.65 0 3.3 0 5 0 C5 3.3 5 6.6 5 10 C3.35 10.33 1.7 10.66 0 11 C0 7.37 0 3.74 0 0 Z " fill="#676767" transform="translate(90,288)"/>
<path d="M0 0 C3.3 0 6.6 0 10 0 C10 1.65 10 3.3 10 5 C6.37 5 2.74 5 -1 5 C-0.67 3.35 -0.34 1.7 0 0 Z " fill="#404040" transform="translate(144,65)"/>
<path d="M0 0 C3.3 0 6.6 0 10 0 C10.33 1.65 10.66 3.3 11 5 C7.37 5 3.74 5 0 5 C0 3.35 0 1.7 0 0 Z " fill="#676767" transform="translate(90,315)"/>
<path d="M0 0 C1.32 0 2.64 0 4 0 C5.1577506 3.47325181 5.06866652 6.36067448 5 10 C3.02 10 1.04 10 -1 10 C-0.67 6.7 -0.34 3.4 0 0 Z " fill="#262626" transform="translate(96,172)"/>
<path d="M0 0 C0.33 0 0.66 0 1 0 C1 1.65 1 3.3 1 5 C4.63 5 8.26 5 12 5 C12 3.35 12 1.7 12 0 C13.65 0 15.3 0 17 0 C17 1.65 17 3.3 17 5 C18.65 5 20.3 5 22 5 C22 5.33 22 5.66 22 6 C14.74 6 7.48 6 0 6 C0 4.02 0 2.04 0 0 Z " fill="#3F3F3F" transform="translate(153,81)"/>
<path d="M0 0 C1.65 0 3.3 0 5 0 C5 1.98 5 3.96 5 6 C-3.58 6 -12.16 6 -21 6 C-21 5.67 -21 5.34 -21 5 C-14.07 5 -7.14 5 0 5 C0 3.35 0 1.7 0 0 Z " fill="#404040" transform="translate(239,341)"/>
<path d="M0 0 C3.3 0 6.6 0 10 0 C10.33 1.65 10.66 3.3 11 5 C7.37 5 3.74 5 0 5 C0 3.35 0 1.7 0 0 Z " fill="#070707" transform="translate(239,315)"/>
<path d="M0 0 C3.3 0 6.6 0 10 0 C10.33 1.65 10.66 3.3 11 5 C7.37 5 3.74 5 0 5 C0 3.35 0 1.7 0 0 Z " fill="#818181" transform="translate(175,241)"/>
<path d="M0 0 C3.3 0 6.6 0 10 0 C10 1.65 10 3.3 10 5 C6.7 5 3.4 5 0 5 C0 3.35 0 1.7 0 0 Z " fill="#020202" transform="translate(250,320)"/>
<path d="M0 0 C1.65 0 3.3 0 5 0 C5 3.3 5 6.6 5 10 C3.35 10 1.7 10 0 10 C0 6.7 0 3.4 0 0 Z " fill="#383838" transform="translate(159,320)"/>
<path d="M0 0 C3.3 0 6.6 0 10 0 C10 1.65 10 3.3 10 5 C6.7 5 3.4 5 0 5 C0 3.35 0 1.7 0 0 Z " fill="#000000" transform="translate(0,320)"/>
<path d="M0 0 C3.3 0 6.6 0 10 0 C10 1.65 10 3.3 10 5 C6.7 5 3.4 5 0 5 C0 3.35 0 1.7 0 0 Z " fill="#383838" transform="translate(48,304)"/>
<path d="M0 0 C3.3 0 6.6 0 10 0 C10 1.65 10 3.3 10 5 C6.7 5 3.4 5 0 5 C0 3.35 0 1.7 0 0 Z " fill="#010101" transform="translate(37,304)"/>
<path d="M0 0 C1.65 0 3.3 0 5 0 C5 3.3 5 6.6 5 10 C3.35 10 1.7 10 0 10 C0 6.7 0 3.4 0 0 Z " fill="#4E4E4E" transform="translate(133,294)"/>
<path d="M0 0 C1.65 0 3.3 0 5 0 C5 3.3 5 6.6 5 10 C3.35 10 1.7 10 0 10 C0 6.7 0 3.4 0 0 Z " fill="#010101" transform="translate(244,288)"/>
<path d="M0 0 C1.65 0 3.3 0 5 0 C5 3.3 5 6.6 5 10 C3.35 10 1.7 10 0 10 C0 6.7 0 3.4 0 0 Z " fill="#010101" transform="translate(154,283)"/>
<path d="M0 0 C3.3 0 6.6 0 10 0 C10 1.65 10 3.3 10 5 C6.7 5 3.4 5 0 5 C0 3.35 0 1.7 0 0 Z " fill="#000000" transform="translate(85,283)"/>
<path d="M0 0 C3.3 0 6.6 0 10 0 C10 1.65 10 3.3 10 5 C6.7 5 3.4 5 0 5 C0 3.35 0 1.7 0 0 Z " fill="#020202" transform="translate(128,262)"/>
<path d="M0 0 C1.65 0 3.3 0 5 0 C5 3.3 5 6.6 5 10 C3.35 10 1.7 10 0 10 C0 6.7 0 3.4 0 0 Z " fill="#000000" transform="translate(117,246)"/>
<path d="M0 0 C3.3 0 6.6 0 10 0 C10 1.65 10 3.3 10 5 C6.7 5 3.4 5 0 5 C0 3.35 0 1.7 0 0 Z " fill="#3F3F3F" transform="translate(191,209)"/>
<path d="M0 0 C1.65 0 3.3 0 5 0 C5 3.3 5 6.6 5 10 C3.35 10 1.7 10 0 10 C0 6.7 0 3.4 0 0 Z " fill="#414141" transform="translate(223,204)"/>
<path d="M0 0 C3.3 0 6.6 0 10 0 C10 1.65 10 3.3 10 5 C6.7 5 3.4 5 0 5 C0 3.35 0 1.7 0 0 Z " fill="#777777" transform="translate(186,198)"/>
<path d="M0 0 C1.65 0 3.3 0 5 0 C5 3.3 5 6.6 5 10 C3.35 10 1.7 10 0 10 C0 6.7 0 3.4 0 0 Z " fill="#454545" transform="translate(106,156)"/>
<path d="M0 0 C3.3 0 6.6 0 10 0 C10 1.65 10 3.3 10 5 C6.7 5 3.4 5 0 5 C0 3.35 0 1.7 0 0 Z " fill="#9D9D9D" transform="translate(96,156)"/>
<path d="M0 0 C1.65 0 3.3 0 5 0 C5 3.3 5 6.6 5 10 C3.35 10 1.7 10 0 10 C0 6.7 0 3.4 0 0 Z " fill="#787878" transform="translate(202,124)"/>
<path d="M0 0 C1.65 0 3.3 0 5 0 C5 3.3 5 6.6 5 10 C3.35 10 1.7 10 0 10 C0 6.7 0 3.4 0 0 Z " fill="#9E9E9E" transform="translate(249,103)"/>
<path d="M0 0 C1.65 0 3.3 0 5 0 C5 3.3 5 6.6 5 10 C3.35 10 1.7 10 0 10 C0 6.7 0 3.4 0 0 Z " fill="#616161" transform="translate(249,87)"/>
<path d="M0 0 C3.3 0 6.6 0 10 0 C10 1.65 10 3.3 10 5 C6.7 5 3.4 5 0 5 C0 3.35 0 1.7 0 0 Z " fill="#1B1B1B" transform="translate(138,76)"/>
<path d="M0 0 C1.65 0 3.3 0 5 0 C5 3.3 5 6.6 5 10 C3.35 10 1.7 10 0 10 C0 6.7 0 3.4 0 0 Z " fill="#424242" transform="translate(175,71)"/>
<path d="M0 0 C1.65 0 3.3 0 5 0 C5 3.3 5 6.6 5 10 C3.35 10 1.7 10 0 10 C0 6.7 0 3.4 0 0 Z " fill="#424242" transform="translate(244,60)"/>
<path d="M0 0 C3.3 0 6.6 0 10 0 C10 1.65 10 3.3 10 5 C6.7 5 3.4 5 0 5 C0 3.35 0 1.7 0 0 Z " fill="#000000" transform="translate(186,39)"/>
<path d="M0 0 C3.3 0 6.6 0 10 0 C10 1.65 10 3.3 10 5 C6.7 5 3.4 5 0 5 C0 3.35 0 1.7 0 0 Z " fill="#3F3F3F" transform="translate(170,34)"/>
<path d="M0 0 C2.97 0 5.94 0 9 0 C9 1.65 9 3.3 9 5 C5.7 5 2.4 5 -1 5 C-0.67 3.35 -0.34 1.7 0 0 Z " fill="#9B9B9B" transform="translate(298,341)"/>
<path d="M0 0 C3.3 0 6.6 0 10 0 C9.67 1.65 9.34 3.3 9 5 C6.03 5 3.06 5 0 5 C0 3.35 0 1.7 0 0 Z " fill="#000000" transform="translate(165,299)"/>
<path d="M0 0 C1.65 0 3.3 0 5 0 C5 3.3 5 6.6 5 10 C3.35 9.67 1.7 9.34 0 9 C0 6.03 0 3.06 0 0 Z " fill="#6A6A6A" transform="translate(111,246)"/>
<path d="M0 0 C1.65 0 3.3 0 5 0 C5 1.65 5 3.3 5 5 C10.28 5 15.56 5 21 5 C21 5.33 21 5.66 21 6 C14.07 6 7.14 6 0 6 C0 4.02 0 2.04 0 0 Z " fill="#363636" transform="translate(175,309)"/>
<path d="M0 0 C3.63 0 7.26 0 11 0 C11 1.32 11 2.64 11 4 C7.37 4 3.74 4 0 4 C0 2.68 0 1.36 0 0 Z " fill="#393939" transform="translate(175,346)"/>
<path d="M0 0 C2.31 0 4.62 0 7 0 C7.33 1.98 7.66 3.96 8 6 C5.36 6 2.72 6 0 6 C0 4.02 0 2.04 0 0 Z " fill="#767675" transform="translate(183,176)"/>
<path d="M0 0 C0.33 0 0.66 0 1 0 C1 1.65 1 3.3 1 5 C5.95 5 10.9 5 16 5 C16 5.33 16 5.66 16 6 C11.05 6 6.1 6 1 6 C1.33 7.65 1.66 9.3 2 11 C1.34 11 0.68 11 0 11 C0 9.35 0 7.7 0 6 C-4.95 6 -9.9 6 -15 6 C-15 5.67 -15 5.34 -15 5 C-10.05 5 -5.1 5 0 5 C0 3.35 0 1.7 0 0 Z " fill="#191919" transform="translate(201,28)"/>
<path d="M0 0 C3.3 0 6.6 0 10 0 C10 1.32 10 2.64 10 4 C6.7 4 3.4 4 0 4 C0 2.68 0 1.36 0 0 Z " fill="#070707" transform="translate(324,346)"/>
<path d="M0 0 C1.32 0 2.64 0 4 0 C4 3.3 4 6.6 4 10 C2.68 10 1.36 10 0 10 C0 6.7 0 3.4 0 0 Z " fill="#9F9F9F" transform="translate(255,203)"/>
<path d="M0 0 C0.33 0 0.66 0 1 0 C1 3.3 1 6.6 1 10 C-3 11 -3 11 -5 10 C-5 8.35 -5 6.7 -5 5 C-3.35 5 -1.7 5 0 5 C0 3.35 0 1.7 0 0 Z " fill="#4B4B4B" transform="translate(196,315)"/>
<path d="M0 0 C2.64 0 5.28 0 8 0 C8 0.66 8 1.32 8 2 C6.35 2 4.7 2 3 2 C3 5.63 3 9.26 3 13 C2.67 13 2.34 13 2 13 C2 11.02 2 9.04 2 7 C1.34 7 0.68 7 0 7 C0 4.69 0 2.38 0 0 Z " fill="#252525" transform="translate(114,148)"/>
<path d="M0 0 C1.98 0 3.96 0 6 0 C6 3.3 6 6.6 6 10 C5.67 10 5.34 10 5 10 C5 8.35 5 6.7 5 5 C3.35 5 1.7 5 0 5 C0 3.35 0 1.7 0 0 Z " fill="#363636" transform="translate(164,331)"/>
<path d="M0 0 C1.98 0 3.96 0 6 0 C6 1.65 6 3.3 6 5 C4.35 5 2.7 5 1 5 C1 6.65 1 8.3 1 10 C0.67 10 0.34 10 0 10 C0 6.7 0 3.4 0 0 Z " fill="#202020" transform="translate(164,76)"/>
<path d="M0 0 C2.475 0.99 2.475 0.99 5 2 C5 3.32 5 4.64 5 6 C3.02 6 1.04 6 -1 6 C-1.042721 4.33388095 -1.04063832 2.66617115 -1 1 C-0.67 0.67 -0.34 0.34 0 0 Z " fill="#101010" transform="translate(96,277)"/>
<path d="M0 0 C0.33 0 0.66 0 1 0 C1 3.63 1 7.26 1 11 C-0.65 11 -2.3 11 -4 11 C-4 9.35 -4 7.7 -4 6 C-2.68 6 -1.36 6 0 6 C0 4.02 0 2.04 0 0 Z " fill="#888888" transform="translate(222,235)"/>
<path d="M0 0 C1.98 0 3.96 0 6 0 C6 1.98 6 3.96 6 6 C3.03 5.505 3.03 5.505 0 5 C0 3.35 0 1.7 0 0 Z " fill="#777777" transform="translate(249,97)"/>
<path d="M0 0 C3.3 0 6.6 0 10 0 C10 0.99 10 1.98 10 3 C6.7 3 3.4 3 0 3 C0 2.01 0 1.02 0 0 Z " fill="#242424" transform="translate(186,347)"/>
<path d="M0 0 C1.98 0 3.96 0 6 0 C6 1.65 6 3.3 6 5 C4.02 5 2.04 5 0 5 C0 3.35 0 1.7 0 0 Z " fill="#7E7E7E" transform="translate(164,230)"/>
<path d="M0 0 C1.65 0 3.3 0 5 0 C5 1.98 5 3.96 5 6 C3.35 6 1.7 6 0 6 C0 4.02 0 2.04 0 0 Z " fill="#5F5F5F" transform="translate(106,171)"/>
<path d="M0 0 C1.98 0 3.96 0 6 0 C6 1.65 6 3.3 6 5 C4.02 5 2.04 5 0 5 C0 3.35 0 1.7 0 0 Z " fill="#474747" transform="translate(95,166)"/>
<path d="M0 0 C0.99 0 1.98 0 3 0 C3 3.3 3 6.6 3 10 C2.01 10 1.02 10 0 10 C0 6.7 0 3.4 0 0 Z " fill="#3C3C3C" transform="translate(138,161)"/>
<path d="M0 0 C1.98 0 3.96 0 6 0 C5.67 1.65 5.34 3.3 5 5 C2.69 5.33 0.38 5.66 -2 6 C-1.34 5.67 -0.68 5.34 0 5 C0 3.35 0 1.7 0 0 Z " fill="#797979" transform="translate(180,203)"/>
<path d="M0 0 C2.475 0.495 2.475 0.495 5 1 C5 2.65 5 4.3 5 6 C3.35 6 1.7 6 0 6 C0 4.02 0 2.04 0 0 Z " fill="#272727" transform="translate(202,330)"/>
<path d="M0 0 C1.65 0 3.3 0 5 0 C5 1.65 5 3.3 5 5 C3.35 5 1.7 5 0 5 C0 3.35 0 1.7 0 0 Z " fill="#393939" transform="translate(239,341)"/>
<path d="M0 0 C1.65 0 3.3 0 5 0 C5 1.65 5 3.3 5 5 C3.35 5 1.7 5 0 5 C0 3.35 0 1.7 0 0 Z " fill="#393939" transform="translate(170,341)"/>
<path d="M0 0 C1.65 0 3.3 0 5 0 C5 1.65 5 3.3 5 5 C3.35 5 1.7 5 0 5 C0 3.35 0 1.7 0 0 Z " fill="#373737" transform="translate(154,341)"/>
<path d="M0 0 C1.65 0 3.3 0 5 0 C5 1.65 5 3.3 5 5 C3.35 5 1.7 5 0 5 C0 3.35 0 1.7 0 0 Z " fill="#9F9F9F" transform="translate(138,336)"/>
<path d="M0 0 C1.65 0 3.3 0 5 0 C5 1.65 5 3.3 5 5 C3.35 5 1.7 5 0 5 C0 3.35 0 1.7 0 0 Z " fill="#9D9D9D" transform="translate(223,331)"/>
<path d="M0 0 C1.65 0 3.3 0 5 0 C5 1.65 5 3.3 5 5 C3.35 5 1.7 5 0 5 C0 3.35 0 1.7 0 0 Z " fill="#9D9D9D" transform="translate(186,320)"/>
<path d="M0 0 C1.65 0 3.3 0 5 0 C5 1.65 5 3.3 5 5 C3.35 5 1.7 5 0 5 C0 3.35 0 1.7 0 0 Z " fill="#9C9C9C" transform="translate(191,315)"/>
<path d="M0 0 C1.65 0 3.3 0 5 0 C5 1.65 5 3.3 5 5 C3.35 5 1.7 5 0 5 C0 3.35 0 1.7 0 0 Z " fill="#010101" transform="translate(175,304)"/>
<path d="M0 0 C1.65 0 3.3 0 5 0 C5 1.65 5 3.3 5 5 C3.35 5 1.7 5 0 5 C0 3.35 0 1.7 0 0 Z " fill="#010101" transform="translate(239,299)"/>
<path d="M0 0 C1.65 0 3.3 0 5 0 C5 1.65 5 3.3 5 5 C3.35 5 1.7 5 0 5 C0 3.35 0 1.7 0 0 Z " fill="#686868" transform="translate(85,299)"/>
<path d="M0 0 C1.65 0 3.3 0 5 0 C5 1.65 5 3.3 5 5 C3.35 5 1.7 5 0 5 C0 3.35 0 1.7 0 0 Z " fill="#000000" transform="translate(138,267)"/>
<path d="M0 0 C1.65 0 3.3 0 5 0 C5 1.65 5 3.3 5 5 C3.35 5 1.7 5 0 5 C0 3.35 0 1.7 0 0 Z " fill="#030303" transform="translate(122,256)"/>
<path d="M0 0 C1.65 0 3.3 0 5 0 C5 1.65 5 3.3 5 5 C3.35 5 1.7 5 0 5 C0 3.35 0 1.7 0 0 Z " fill="#CECECE" transform="translate(212,240)"/>
<path d="M0 0 C1.65 0 3.3 0 5 0 C5 1.65 5 3.3 5 5 C3.35 5 1.7 5 0 5 C0 3.35 0 1.7 0 0 Z " fill="#CDCDCD" transform="translate(186,240)"/>
<path d="M0 0 C1.65 0 3.3 0 5 0 C5 1.65 5 3.3 5 5 C3.35 5 1.7 5 0 5 C0 3.35 0 1.7 0 0 Z " fill="#8B8B8B" transform="translate(170,235)"/>
<path d="M0 0 C1.65 0 3.3 0 5 0 C5 1.65 5 3.3 5 5 C3.35 5 1.7 5 0 5 C0 3.35 0 1.7 0 0 Z " fill="#CECECE" transform="translate(217,235)"/>
<path d="M0 0 C1.65 0 3.3 0 5 0 C5 1.65 5 3.3 5 5 C3.35 5 1.7 5 0 5 C0 3.35 0 1.7 0 0 Z " fill="#434343" transform="translate(228,230)"/>
<path d="M0 0 C1.65 0 3.3 0 5 0 C5 1.65 5 3.3 5 5 C3.35 5 1.7 5 0 5 C0 3.35 0 1.7 0 0 Z " fill="#737373" transform="translate(149,230)"/>
<path d="M0 0 C1.65 0 3.3 0 5 0 C5 1.65 5 3.3 5 5 C3.35 5 1.7 5 0 5 C0 3.35 0 1.7 0 0 Z " fill="#747474" transform="translate(154,225)"/>
<path d="M0 0 C1.65 0 3.3 0 5 0 C5 1.65 5 3.3 5 5 C3.35 5 1.7 5 0 5 C0 3.35 0 1.7 0 0 Z " fill="#282828" transform="translate(143,219)"/>
<path d="M0 0 C1.65 0 3.3 0 5 0 C5 1.65 5 3.3 5 5 C3.35 5 1.7 5 0 5 C0 3.35 0 1.7 0 0 Z " fill="#5E5E5E" transform="translate(138,219)"/>
<path d="M0 0 C1.65 0 3.3 0 5 0 C5 1.65 5 3.3 5 5 C3.35 5 1.7 5 0 5 C0 3.35 0 1.7 0 0 Z " fill="#767676" transform="translate(165,219)"/>
<path d="M0 0 C1.65 0 3.3 0 5 0 C5 1.65 5 3.3 5 5 C3.35 5 1.7 5 0 5 C0 3.35 0 1.7 0 0 Z " fill="#626262" transform="translate(233,214)"/>
<path d="M0 0 C1.65 0 3.3 0 5 0 C5 1.65 5 3.3 5 5 C3.35 5 1.7 5 0 5 C0 3.35 0 1.7 0 0 Z " fill="#888888" transform="translate(181,214)"/>
<path d="M0 0 C1.65 0 3.3 0 5 0 C5 1.65 5 3.3 5 5 C3.35 5 1.7 5 0 5 C0 3.35 0 1.7 0 0 Z " fill="#616161" transform="translate(175,214)"/>
<path d="M0 0 C1.65 0 3.3 0 5 0 C5 1.65 5 3.3 5 5 C3.35 5 1.7 5 0 5 C0 3.35 0 1.7 0 0 Z " fill="#777777" transform="translate(170,214)"/>
<path d="M0 0 C1.65 0 3.3 0 5 0 C5 1.65 5 3.3 5 5 C3.35 5 1.7 5 0 5 C0 3.35 0 1.7 0 0 Z " fill="#757575" transform="translate(143,214)"/>
<path d="M0 0 C1.65 0 3.3 0 5 0 C5 1.65 5 3.3 5 5 C3.35 5 1.7 5 0 5 C0 3.35 0 1.7 0 0 Z " fill="#5E5E5E" transform="translate(133,214)"/>
<path d="M0 0 C1.65 0 3.3 0 5 0 C5 1.65 5 3.3 5 5 C3.35 5 1.7 5 0 5 C0 3.35 0 1.7 0 0 Z " fill="#626262" transform="translate(180,209)"/>
<path d="M0 0 C1.65 0 3.3 0 5 0 C5 1.65 5 3.3 5 5 C3.35 5 1.7 5 0 5 C0 3.35 0 1.7 0 0 Z " fill="#2A2A2A" transform="translate(143,209)"/>
<path d="M0 0 C1.65 0 3.3 0 5 0 C5 1.65 5 3.3 5 5 C3.35 5 1.7 5 0 5 C0 3.35 0 1.7 0 0 Z " fill="#737373" transform="translate(138,209)"/>
<path d="M0 0 C1.65 0 3.3 0 5 0 C5 1.65 5 3.3 5 5 C3.35 5 1.7 5 0 5 C0 3.35 0 1.7 0 0 Z " fill="#626262" transform="translate(186,203)"/>
<path d="M0 0 C1.65 0 3.3 0 5 0 C5 1.65 5 3.3 5 5 C3.35 5 1.7 5 0 5 C0 3.35 0 1.7 0 0 Z " fill="#292929" transform="translate(138,203)"/>
<path d="M0 0 C1.65 0 3.3 0 5 0 C5 1.65 5 3.3 5 5 C3.35 5 1.7 5 0 5 C0 3.35 0 1.7 0 0 Z " fill="#040404" transform="translate(96,198)"/>
<path d="M0 0 C1.65 0 3.3 0 5 0 C5 1.65 5 3.3 5 5 C3.35 5 1.7 5 0 5 C0 3.35 0 1.7 0 0 Z " fill="#767676" transform="translate(106,193)"/>
<path d="M0 0 C1.65 0 3.3 0 5 0 C5 1.65 5 3.3 5 5 C3.35 5 1.7 5 0 5 C0 3.35 0 1.7 0 0 Z " fill="#252525" transform="translate(101,182)"/>
<path d="M0 0 C1.65 0 3.3 0 5 0 C5 1.65 5 3.3 5 5 C3.35 5 1.7 5 0 5 C0 3.35 0 1.7 0 0 Z " fill="#5D5D5D" transform="translate(95,182)"/>
<path d="M0 0 C1.65 0 3.3 0 5 0 C5 1.65 5 3.3 5 5 C3.35 5 1.7 5 0 5 C0 3.35 0 1.7 0 0 Z " fill="#9B9B9B" transform="translate(90,161)"/>
<path d="M0 0 C1.65 0 3.3 0 5 0 C5 1.65 5 3.3 5 5 C3.35 5 1.7 5 0 5 C0 3.35 0 1.7 0 0 Z " fill="#5F5F5F" transform="translate(106,156)"/>
<path d="M0 0 C1.65 0 3.3 0 5 0 C5 1.65 5 3.3 5 5 C3.35 5 1.7 5 0 5 C0 3.35 0 1.7 0 0 Z " fill="#5F5F5F" transform="translate(90,156)"/>
<path d="M0 0 C1.65 0 3.3 0 5 0 C5 1.65 5 3.3 5 5 C3.35 5 1.7 5 0 5 C0 3.35 0 1.7 0 0 Z " fill="#020202" transform="translate(106,150)"/>
<path d="M0 0 C1.65 0 3.3 0 5 0 C5 1.65 5 3.3 5 5 C3.35 5 1.7 5 0 5 C0 3.35 0 1.7 0 0 Z " fill="#020202" transform="translate(90,150)"/>
<path d="M0 0 C1.65 0 3.3 0 5 0 C5 1.65 5 3.3 5 5 C3.35 5 1.7 5 0 5 C0 3.35 0 1.7 0 0 Z " fill="#787878" transform="translate(218,129)"/>
<path d="M0 0 C1.65 0 3.3 0 5 0 C5 1.65 5 3.3 5 5 C3.35 5 1.7 5 0 5 C0 3.35 0 1.7 0 0 Z " fill="#737373" transform="translate(255,108)"/>
<path d="M0 0 C1.65 0 3.3 0 5 0 C5 1.65 5 3.3 5 5 C3.35 5 1.7 5 0 5 C0 3.35 0 1.7 0 0 Z " fill="#9E9E9E" transform="translate(244,97)"/>
<path d="M0 0 C1.65 0 3.3 0 5 0 C5 1.65 5 3.3 5 5 C3.35 5 1.7 5 0 5 C0 3.35 0 1.7 0 0 Z " fill="#3F3F3F" transform="translate(181,81)"/>
<path d="M0 0 C1.65 0 3.3 0 5 0 C5 1.65 5 3.3 5 5 C3.35 5 1.7 5 0 5 C0 3.35 0 1.7 0 0 Z " fill="#040404" transform="translate(133,81)"/>
<path d="M0 0 C1.65 0 3.3 0 5 0 C5 1.65 5 3.3 5 5 C3.35 5 1.7 5 0 5 C0 3.35 0 1.7 0 0 Z " fill="#3F3F3F" transform="translate(96,81)"/>
<path d="M0 0 C1.65 0 3.3 0 5 0 C5 1.65 5 3.3 5 5 C3.35 5 1.7 5 0 5 C0 3.35 0 1.7 0 0 Z " fill="#404040" transform="translate(159,76)"/>
<path d="M0 0 C1.65 0 3.3 0 5 0 C5 1.65 5 3.3 5 5 C3.35 5 1.7 5 0 5 C0 3.35 0 1.7 0 0 Z " fill="#010101" transform="translate(138,76)"/>
<path d="M0 0 C1.65 0 3.3 0 5 0 C5 1.65 5 3.3 5 5 C3.35 5 1.7 5 0 5 C0 3.35 0 1.7 0 0 Z " fill="#404040" transform="translate(239,71)"/>
<path d="M0 0 C1.65 0 3.3 0 5 0 C5 1.65 5 3.3 5 5 C3.35 5 1.7 5 0 5 C0 3.35 0 1.7 0 0 Z " fill="#1F1F1F" transform="translate(159,71)"/>
<path d="M0 0 C1.65 0 3.3 0 5 0 C5 1.65 5 3.3 5 5 C3.35 5 1.7 5 0 5 C0 3.35 0 1.7 0 0 Z " fill="#404040" transform="translate(154,71)"/>
<path d="M0 0 C1.65 0 3.3 0 5 0 C5 1.65 5 3.3 5 5 C3.35 5 1.7 5 0 5 C0 3.35 0 1.7 0 0 Z " fill="#404040" transform="translate(170,65)"/>
<path d="M0 0 C1.65 0 3.3 0 5 0 C5 1.65 5 3.3 5 5 C3.35 5 1.7 5 0 5 C0 3.35 0 1.7 0 0 Z " fill="#040404" transform="translate(96,66)"/>
<path d="M0 0 C1.65 0 3.3 0 5 0 C5 1.65 5 3.3 5 5 C3.35 5 1.7 5 0 5 C0 3.35 0 1.7 0 0 Z " fill="#424242" transform="translate(138,60)"/>
<path d="M0 0 C1.65 0 3.3 0 5 0 C5 1.65 5 3.3 5 5 C3.35 5 1.7 5 0 5 C0 3.35 0 1.7 0 0 Z " fill="#1D1D1D" transform="translate(117,55)"/>
<path d="M0 0 C1.65 0 3.3 0 5 0 C5 1.65 5 3.3 5 5 C3.35 5 1.7 5 0 5 C0 3.35 0 1.7 0 0 Z " fill="#1D1D1D" transform="translate(207,44)"/>
<path d="M0 0 C1.65 0 3.3 0 5 0 C5 1.65 5 3.3 5 5 C3.35 5 1.7 5 0 5 C0 3.35 0 1.7 0 0 Z " fill="#1D1D1D" transform="translate(191,44)"/>
<path d="M0 0 C1.65 0 3.3 0 5 0 C5 1.65 5 3.3 5 5 C3.35 5 1.7 5 0 5 C0 3.35 0 1.7 0 0 Z " fill="#404040" transform="translate(186,44)"/>
<path d="M0 0 C1.65 0 3.3 0 5 0 C5 1.65 5 3.3 5 5 C3.35 5 1.7 5 0 5 C0 3.35 0 1.7 0 0 Z " fill="#3F3F3F" transform="translate(180,39)"/>
<path d="M0 0 C2.475 0.495 2.475 0.495 5 1 C5 2.32 5 3.64 5 5 C3.35 5 1.7 5 0 5 C0 3.35 0 1.7 0 0 Z " fill="#606060" transform="translate(101,166)"/>
<path d="M0 0 C2.475 0.495 2.475 0.495 5 1 C5 2.32 5 3.64 5 5 C3.35 5 1.7 5 0 5 C0 3.35 0 1.7 0 0 Z " fill="#434343" transform="translate(186,87)"/>
<path d="M0 0 C1.65 0 3.3 0 5 0 C4.67 1.65 4.34 3.3 4 5 C2.68 5 1.36 5 0 5 C0 3.35 0 1.7 0 0 Z " fill="#888888" transform="translate(186,209)"/>
<path d="M0 0 C1.65 0 3.3 0 5 0 C5 1.32 5 2.64 5 4 C3.35 4 1.7 4 0 4 C0 2.68 0 1.36 0 0 Z " fill="#020202" transform="translate(159,294)"/>
<path d="M0 0 C1.32 0 2.64 0 4 0 C4 1.65 4 3.3 4 5 C2.68 5 1.36 5 0 5 C0 3.35 0 1.7 0 0 Z " fill="#010101" transform="translate(144,272)"/>
<path d="M0 0 C1.65 0 3.3 0 5 0 C5 1.32 5 2.64 5 4 C3.35 4 1.7 4 0 4 C0 2.68 0 1.36 0 0 Z " fill="#757575" transform="translate(143,225)"/>
<path d="M0 0 C1.65 0 3.3 0 5 0 C5 1.32 5 2.64 5 4 C3.35 4 1.7 4 0 4 C0 2.68 0 1.36 0 0 Z " fill="#242424" transform="translate(154,220)"/>
<path d="M0 0 C1.32 0 2.64 0 4 0 C4 1.65 4 3.3 4 5 C2.68 5 1.36 5 0 5 C0 3.35 0 1.7 0 0 Z " fill="#757575" transform="translate(149,219)"/>
<path d="M0 0 C1.32 0 2.64 0 4 0 C4 1.65 4 3.3 4 5 C2.68 5 1.36 5 0 5 C0 3.35 0 1.7 0 0 Z " fill="#252525" transform="translate(149,214)"/>
<path d="M0 0 C1.65 0 3.3 0 5 0 C5 1.32 5 2.64 5 4 C3.35 4 1.7 4 0 4 C0 2.68 0 1.36 0 0 Z " fill="#606060" transform="translate(101,188)"/>
<path d="M0 0 C0.33 0 0.66 0 1 0 C1 3.63 1 7.26 1 11 C1.66 11 2.32 11 3 11 C3 11.99 3 12.98 3 14 C2.01 14 1.02 14 0 14 C0 9.38 0 4.76 0 0 Z " fill="#180301" transform="translate(183,162)"/>
<path d="M0 0 C0.33 0 0.66 0 1 0 C1 4.62 1 9.24 1 14 C0.01 14 -0.98 14 -2 14 C-2 13.01 -2 12.02 -2 11 C-1.34 11 -0.68 11 0 11 C0 7.37 0 3.74 0 0 Z " fill="#190302" transform="translate(154,162)"/>
</svg>
