<svg width="400" height="400" viewBox="0 0 400 400" fill="none" xmlns="http://www.w3.org/2000/svg">
<g clip-path="url(#clip0_2288_3326)">
<path d="M398 198C398 89.7522 310.248 2 202 2C93.7522 2 6 89.7522 6 198C6 306.248 93.7522 394 202 394C310.248 394 398 306.248 398 198Z" fill="#97FCE4"/>
<path d="M398 198C398 89.7522 310.248 2 202 2C93.7522 2 6 89.7522 6 198C6 306.248 93.7522 394 202 394C310.248 394 398 306.248 398 198Z" stroke="#97FCE4" stroke-width="8"/>
<g clip-path="url(#clip1_2288_3326)">
<path opacity="0.996" fill-rule="evenodd" clip-rule="evenodd" d="M181.5 1.5C194.5 1.5 207.5 1.5 220.5 1.5C226.369 2.4926 232.369 3.4926 238.5 4.5C242.418 12.6748 246.085 21.0081 249.5 29.5C247.046 29.3205 244.879 29.9872 243 31.5C242.228 31.3552 241.561 31.0219 241 30.5C234.861 33.118 228.528 35.118 222 36.5C219.624 34.5245 217.124 33.6912 214.5 34C213.874 33.2496 213.374 32.4162 213 31.5C211.951 32.5171 210.784 32.6838 209.5 32C195.86 24.4307 181.36 19.264 166 16.5C164.732 16.6158 163.398 16.9491 162 17.5C160.667 16.8333 159.333 16.1667 158 15.5C153.503 16.3582 149.003 17.3582 144.5 18.5C147.199 14.8098 149.865 11.1431 152.5 7.5C162.152 4.95065 171.819 2.95065 181.5 1.5Z" fill="#EFE4E3"/>
<path fill-rule="evenodd" clip-rule="evenodd" d="M245.5 6.5C246.167 6.5 246.833 6.5 247.5 6.5C247.5 7.5 247.5 8.5 247.5 9.5C246.599 8.70951 245.932 7.70951 245.5 6.5Z" fill="#474646"/>
<path opacity="0.991" fill-rule="evenodd" clip-rule="evenodd" d="M256.5 8.5C284.232 17.0239 308.899 30.6906 330.5 49.5C329.903 49.7352 329.57 50.2352 329.5 51C338.99 76.031 340.49 101.531 334 127.5C331.444 128.219 330.277 129.886 330.5 132.5C328.54 131.862 326.707 131.862 325 132.5C322.265 130.189 319.099 128.855 315.5 128.5C312.311 128.142 309.311 127.475 306.5 126.5C307.978 126.762 309.311 126.429 310.5 125.5C318.106 112.112 320.606 97.7784 318 82.5C314.432 65.854 306.598 51.6874 294.5 40C287.688 34.9301 280.021 32.0968 271.5 31.5C269.048 31.5391 267.048 32.2057 265.5 33.5C262.728 25.1921 259.728 16.8588 256.5 8.5Z" fill="#EEE3E3"/>
<path fill-rule="evenodd" clip-rule="evenodd" d="M238.5 4.5C241.01 4.92668 243.343 5.59334 245.5 6.5C245.932 7.70951 246.599 8.70951 247.5 9.5C253.525 23.245 257.525 37.5784 259.5 52.5C259.5 55.8333 259.5 59.1667 259.5 62.5C257.883 59.8112 256.883 56.8112 256.5 53.5C255.366 45.1028 253.032 37.1028 249.5 29.5C246.085 21.0081 242.418 12.6748 238.5 4.5Z" fill="#D9C4C1"/>
<path fill-rule="evenodd" clip-rule="evenodd" d="M249.5 29.5C253.032 37.1028 255.366 45.1028 256.5 53.5C255.842 52.6016 255.176 51.6016 254.5 50.5C253.5 51 252.5 51.5 251.5 52C245.806 58.3604 239.806 64.3604 233.5 70C232.552 70.4828 231.552 70.6495 230.5 70.5C230.5 71.5 230.5 72.5 230.5 73.5C228.473 73.3379 226.473 73.5045 224.5 74C223.176 75.8717 221.676 76.705 220 76.5C214.104 73.4656 208.604 69.7989 203.5 65.5C197.571 57.7638 191.238 50.4305 184.5 43.5C180.461 40.1516 176.127 37.3183 171.5 35C164.939 34.5669 158.272 33.7336 151.5 32.5C145.834 32.9076 140.167 33.2409 134.5 33.5C137.092 27.9756 140.425 22.9756 144.5 18.5C149.003 17.3582 153.503 16.3582 158 15.5C159.333 16.1667 160.667 16.8333 162 17.5C163.398 16.9491 164.732 16.6158 166 16.5C181.36 19.264 195.86 24.4307 209.5 32C210.784 32.6838 211.951 32.5171 213 31.5C213.374 32.4162 213.874 33.2496 214.5 34C217.124 33.6912 219.624 34.5245 222 36.5C228.528 35.118 234.861 33.118 241 30.5C241.561 31.0219 242.228 31.3552 243 31.5C244.879 29.9872 247.046 29.3205 249.5 29.5Z" fill="#F5EAE8"/>
<path fill-rule="evenodd" clip-rule="evenodd" d="M247.5 9.5C254.601 21.8071 258.935 35.1404 260.5 49.5C260.737 50.791 260.404 51.791 259.5 52.5C257.525 37.5784 253.525 23.245 247.5 9.5Z" fill="#3B3938"/>
<path fill-rule="evenodd" clip-rule="evenodd" d="M127.5 15.5C123.868 20.4667 119.868 25.1334 115.5 29.5C118.043 24.6153 121.377 20.282 125.5 16.5C126.167 16.1667 126.833 15.8333 127.5 15.5Z" fill="#585656"/>
<path fill-rule="evenodd" clip-rule="evenodd" d="M140.498 10.5C125.319 27.5157 114.819 47.1824 108.998 69.5C108.19 71.5787 108.357 73.5787 109.498 75.5C112.541 70.7477 115.041 65.7477 116.998 60.5C118.127 58.8588 119.627 57.8588 121.498 57.5C112.145 79.2626 108.478 101.929 110.498 125.5C105.358 126.488 100.024 126.821 94.4981 126.5C93.6567 124.621 93.3234 122.621 93.4981 120.5C91.104 91.1362 96.7707 63.4695 110.498 37.5C112.248 36.3406 113.248 34.674 113.498 32.5C114.904 32.0269 115.571 31.0269 115.498 29.5C119.866 25.1334 123.866 20.4667 127.498 15.5C131.753 13.6371 136.086 11.9704 140.498 10.5Z" fill="#F2E6E4"/>
<path fill-rule="evenodd" clip-rule="evenodd" d="M115.501 29.5C115.574 31.0269 114.907 32.0269 113.501 32.5C113.428 30.9731 114.095 29.9731 115.501 29.5Z" fill="#3D3C3C"/>
<path fill-rule="evenodd" clip-rule="evenodd" d="M113.5 32.5C113.25 34.674 112.25 36.3406 110.5 37.5C110.75 35.326 111.75 33.6594 113.5 32.5Z" fill="#3A3939"/>
<path opacity="0.999" fill-rule="evenodd" clip-rule="evenodd" d="M109.5 24.5C88.7598 57.3208 82.4265 92.8208 90.4997 131C90.1636 132.03 89.4969 132.53 88.4997 132.5C83.8172 133.703 79.1506 133.703 74.4997 132.5C70.5043 134.498 66.5043 136.498 62.4997 138.5C60.0131 139.79 60.3464 140.79 63.4997 141.5C60.8766 145.884 58.5433 150.384 56.4997 155C57.8395 157.179 57.5062 157.679 55.4997 156.5C53.6733 151.345 52.6733 146.011 52.4997 140.5C52.3335 134.158 52.5002 127.825 52.9997 121.5C60.5866 108.834 64.0866 95.5004 63.4997 81.5C65.0435 77.4258 65.3769 73.2591 64.4997 69C66.7232 64.5142 67.7232 59.6808 67.4997 54.5C79.7304 42.0488 93.7304 32.0488 109.5 24.5Z" fill="#E6DBDC"/>
<path fill-rule="evenodd" clip-rule="evenodd" d="M125.5 16.5C121.377 20.282 118.043 24.6153 115.5 29.5C114.094 29.9731 113.427 30.9731 113.5 32.5C111.75 33.6594 110.75 35.326 110.5 37.5C99.3959 55.1481 93.0626 74.4815 91.5003 95.5C90.5209 92.3752 90.1875 89.0419 90.5003 85.5C92.6935 62.5817 100.027 41.5817 112.5 22.5C116.645 20.2635 120.978 18.2635 125.5 16.5Z" fill="#DBE1E3"/>
<path fill-rule="evenodd" clip-rule="evenodd" d="M256.5 53.5C256.883 56.8112 257.883 59.8112 259.5 62.5C259.5 65.5 259.5 68.5 259.5 71.5C257.228 91.941 251.561 111.274 242.5 129.5C235.907 133.068 230.073 137.735 225 143.5C224.333 144.167 224.333 144.833 225 145.5C225.671 144.748 226.504 144.414 227.5 144.5C229.782 143.61 232.115 143.444 234.5 144C230.385 150.611 225.719 156.777 220.5 162.5C215.303 162.636 210.137 162.303 205 161.5C199.107 163.235 199.273 165.068 205.5 167C204.167 167.333 202.833 167.667 201.5 168C201.833 168.333 202.167 168.667 202.5 169C197.883 168.524 193.217 168.524 188.5 169C186.773 170.389 185.439 172.056 184.5 174C188.373 181.817 186.706 187.983 179.5 192.5C175.064 193.818 170.731 193.485 166.5 191.5C165.248 189.999 164.248 188.332 163.5 186.5C163.829 183.772 163.163 181.438 161.5 179.5C161.167 178.833 160.833 178.167 160.5 177.5C155.552 166.045 147.552 157.212 136.5 151C124.457 143.906 111.457 140.073 97.5 139.5C96.8505 137.565 96.5172 135.565 96.5 133.5C101.5 133.5 106.5 133.5 111.5 133.5C124.259 134.516 136.926 136.182 149.5 138.5C154.798 139.685 160.131 140.685 165.5 141.5C167.986 142.662 170.486 143.996 173 145.5C174.011 144.663 175.178 144.33 176.5 144.5C177.496 144.414 178.329 144.748 179 145.5C177.763 142.224 175.597 139.391 172.5 137C169.476 135.487 166.809 133.487 164.5 131C163.423 130.53 162.423 130.697 161.5 131.5C161.167 130.5 160.5 129.833 159.5 129.5C155.454 129.048 151.454 128.381 147.5 127.5C135.234 125.823 122.901 125.156 110.5 125.5C108.48 101.929 112.147 79.2626 121.5 57.5C125.341 49.1458 129.674 41.1458 134.5 33.5C140.167 33.2409 145.834 32.9076 151.5 32.5C158.272 33.7336 164.939 34.5669 171.5 35C176.127 37.3183 180.461 40.1516 184.5 43.5C191.238 50.4305 197.571 57.7638 203.5 65.5C208.604 69.7989 214.104 73.4656 220 76.5C221.676 76.705 223.176 75.8717 224.5 74C226.473 73.5045 228.473 73.3379 230.5 73.5C230.5 72.5 230.5 71.5 230.5 70.5C231.552 70.6495 232.552 70.4828 233.5 70C239.806 64.3604 245.806 58.3604 251.5 52C252.5 51.5 253.5 51 254.5 50.5C255.176 51.6016 255.842 52.6016 256.5 53.5Z" fill="#FBF0ED"/>
<path fill-rule="evenodd" clip-rule="evenodd" d="M152.498 7.5C149.863 11.1431 147.197 14.8098 144.498 18.5C140.423 22.9756 137.09 27.9756 134.498 33.5C129.672 41.1458 125.339 49.1458 121.498 57.5C119.627 57.8588 118.127 58.8588 116.998 60.5C115.041 65.7477 112.541 70.7477 109.498 75.5C108.357 73.5787 108.19 71.5787 108.998 69.5C114.819 47.1824 125.319 27.5157 140.498 10.5C144.414 9.1876 148.414 8.1876 152.498 7.5Z" fill="#E5D1CD"/>
<path fill-rule="evenodd" clip-rule="evenodd" d="M306.5 126.5C291.809 125.472 277.142 125.472 262.5 126.5C265.58 108.956 267.58 91.289 268.5 73.5C268.582 60.0744 267.582 46.7411 265.5 33.5C267.048 32.2057 269.048 31.5391 271.5 31.5C280.021 32.0968 287.688 34.9301 294.5 40C306.598 51.6874 314.432 65.854 318 82.5C320.606 97.7784 318.106 112.112 310.5 125.5C309.311 126.429 307.978 126.762 306.5 126.5Z" fill="#F9EEEC"/>
<path fill-rule="evenodd" clip-rule="evenodd" d="M66.5 55.5C66.3404 57.153 65.6737 58.4863 64.5 59.5C64.5 58.8333 64.5 58.1667 64.5 57.5C64.8333 56.5 65.5 55.8333 66.5 55.5Z" fill="#181718"/>
<path fill-rule="evenodd" clip-rule="evenodd" d="M260.5 49.5C261.434 50.5676 261.768 51.901 261.5 53.5C260.833 59.5 260.167 65.5 259.5 71.5C259.5 68.5 259.5 65.5 259.5 62.5C259.5 59.1667 259.5 55.8333 259.5 52.5C260.404 51.791 260.737 50.791 260.5 49.5Z" fill="#837E7C"/>
<path fill-rule="evenodd" clip-rule="evenodd" d="M67.5007 54.5C67.7242 59.6808 66.7242 64.5142 64.5007 69C65.3779 73.2591 65.0445 77.4258 63.5007 81.5C64.0876 95.5004 60.5876 108.834 53.0007 121.5C52.5012 127.825 52.3345 134.158 52.5007 140.5C50.7882 124.859 51.6215 109.192 55.0007 93.5C57.6673 82.0036 60.834 70.6703 64.5007 59.5C65.6744 58.4863 66.3411 57.153 66.5007 55.5C66.5007 54.8333 66.834 54.5 67.5007 54.5Z" fill="#D7CCD0"/>
<path fill-rule="evenodd" clip-rule="evenodd" d="M247.5 6.5C249.894 7.0147 252.228 7.68137 254.5 8.5C264.791 31.8194 268.124 56.1527 264.5 81.5C259.674 111.148 247.341 137.148 227.5 159.5C227.167 159.5 226.833 159.5 226.5 159.5C250.539 128.382 262.206 93.0491 261.5 53.5C261.768 51.901 261.434 50.5676 260.5 49.5C258.935 35.1404 254.601 21.8071 247.5 9.5C247.5 8.5 247.5 7.5 247.5 6.5Z" fill="#DFE6E6"/>
<path fill-rule="evenodd" clip-rule="evenodd" d="M110.5 37.5C96.7726 63.4695 91.1059 91.1362 93.5 120.5C92.6692 124.013 92.5025 127.679 93 131.5C91.8466 128.245 91.0132 124.912 90.5 121.5C91.493 113.016 91.8264 104.349 91.5 95.5C93.0623 74.4815 99.3956 55.1481 110.5 37.5Z" fill="#2E2E2D"/>
<path fill-rule="evenodd" clip-rule="evenodd" d="M254.5 8.5C255.167 8.5 255.833 8.5 256.5 8.5C259.728 16.8588 262.728 25.1921 265.5 33.5C267.582 46.7411 268.582 60.0744 268.5 73.5C267.833 76.1667 267.167 78.8333 266.5 81.5C266.649 80.448 266.483 79.448 266 78.5C265.768 79.7375 265.268 80.7375 264.5 81.5C268.124 56.1527 264.791 31.8194 254.5 8.5Z" fill="#333232"/>
<path fill-rule="evenodd" clip-rule="evenodd" d="M339.5 58.5C348.594 66.9248 356.594 76.2582 363.5 86.5C361.475 91.3848 358.808 95.8848 355.5 100C358.855 99.2049 359.355 100.372 357 103.5C355.907 105.349 354.574 107.016 353 108.5C352.617 107.944 352.117 107.611 351.5 107.5C350.48 90.4191 346.48 74.0858 339.5 58.5Z" fill="#CED2DB"/>
<path fill-rule="evenodd" clip-rule="evenodd" d="M64.5 57.5C64.5 58.1667 64.5 58.8333 64.5 59.5C60.8939 66.5974 57.8939 73.9307 55.5 81.5C53.3949 87.0685 51.2283 92.7351 49 98.5C45.6587 94.4799 42.8253 90.1466 40.5 85.5C47.0893 75.0091 55.0893 65.6758 64.5 57.5Z" fill="#C6CAD2"/>
<path fill-rule="evenodd" clip-rule="evenodd" d="M335.5 54.5C337.167 55.5 338.5 56.8333 339.5 58.5C346.48 74.0858 350.48 90.4191 351.5 107.5C351.768 109.099 351.434 110.432 350.5 111.5C348.967 91.5703 343.967 72.5703 335.5 54.5Z" fill="#282829"/>
<path opacity="0.987" fill-rule="evenodd" clip-rule="evenodd" d="M55.5 81.5C53.9623 89.4528 52.629 97.4528 51.5 105.5C51.3601 107.03 50.6935 108.03 49.5 108.5C48.8826 108.611 48.3826 108.944 48 109.5C43.3238 104.121 39.1571 98.4545 35.5 92.5C36.8109 89.8646 38.4776 87.5313 40.5 85.5C42.8253 90.1466 45.6587 94.4799 49 98.5C51.2283 92.7351 53.3949 87.0685 55.5 81.5Z" fill="#7B8793"/>
<path fill-rule="evenodd" clip-rule="evenodd" d="M330.5 49.5C332.5 50.8333 334.167 52.5 335.5 54.5C343.967 72.5703 348.967 91.5703 350.5 111.5C350.198 114.059 350.532 116.393 351.5 118.5C352.975 134.549 350.642 149.882 344.5 164.5C345.908 158.366 347.241 152.199 348.5 146C348.026 144.392 347.359 144.226 346.5 145.5C345.336 149.013 344.002 152.346 342.5 155.5C341.897 153.81 340.897 152.31 339.5 151C340.626 147.256 340.793 143.423 340 139.5C336.496 140.34 332.996 140.007 329.5 138.5C330.791 137.473 330.791 136.473 329.5 135.5C332.462 136.061 335.295 137.061 338 138.5C338.5 138.333 339 138.167 339.5 138C336.618 136.392 333.618 135.059 330.5 134C318.528 132.834 306.528 132.334 294.5 132.5C297.977 131.677 301.644 131.177 305.5 131C306.252 130.329 306.586 129.496 306.5 128.5C309.673 129.368 312.673 129.368 315.5 128.5C319.099 128.855 322.265 130.189 325 132.5C326.707 131.862 328.54 131.862 330.5 132.5C330.277 129.886 331.444 128.219 334 127.5C340.49 101.531 338.99 76.031 329.5 51C329.57 50.2352 329.903 49.7352 330.5 49.5Z" fill="#DBD0D5"/>
<path fill-rule="evenodd" clip-rule="evenodd" d="M268.5 73.5C267.58 91.289 265.58 108.956 262.5 126.5C260.283 127.369 257.95 127.702 255.5 127.5C254.075 129.031 253.409 128.698 253.5 126.5C260.465 112.27 264.798 97.2705 266.5 81.5C267.167 78.8333 267.833 76.1667 268.5 73.5Z" fill="#E4D7D3"/>
<path fill-rule="evenodd" clip-rule="evenodd" d="M90.5007 85.5C90.1879 89.0419 90.5213 92.3752 91.5007 95.5C91.8271 104.349 91.4937 113.016 90.5007 121.5C89.3175 109.344 89.3175 97.3435 90.5007 85.5Z" fill="#ACB0B1"/>
<path fill-rule="evenodd" clip-rule="evenodd" d="M366.5 91.5C367.338 91.8417 367.672 92.5084 367.5 93.5C365.165 101.001 362.332 108.334 359 115.5C358.34 117.324 357.173 118.657 355.5 119.5C359.941 110.517 363.608 101.183 366.5 91.5Z" fill="#4F5054"/>
<path fill-rule="evenodd" clip-rule="evenodd" d="M365.5 89.5C366.338 89.8417 366.672 90.5084 366.5 91.5C363.608 101.183 359.941 110.517 355.5 119.5C354.357 116.024 354.19 112.358 355 108.5C359.05 102.394 362.55 96.061 365.5 89.5Z" fill="#C9CCD6"/>
<path fill-rule="evenodd" clip-rule="evenodd" d="M363.498 86.5C364.399 87.2905 365.066 88.2905 365.498 89.5C362.548 96.061 359.048 102.394 354.998 108.5C354.188 112.358 354.355 116.024 355.498 119.5C355.123 121.698 354.456 123.698 353.498 125.5C352.675 122.023 352.175 118.356 351.998 114.5C351.508 115.793 351.341 117.127 351.498 118.5C350.53 116.393 350.196 114.059 350.498 111.5C351.432 110.432 351.766 109.099 351.498 107.5C352.115 107.611 352.615 107.944 352.998 108.5C354.572 107.016 355.905 105.349 356.998 103.5C359.353 100.372 358.853 99.2049 355.498 100C358.806 95.8848 361.473 91.3848 363.498 86.5Z" fill="#58595D"/>
<path fill-rule="evenodd" clip-rule="evenodd" d="M35.5 92.5C39.1571 98.4545 43.3238 104.121 48 109.5C48.3826 108.944 48.8826 108.611 49.5 108.5C49.5 113.5 49.5 118.5 49.5 123.5C47.321 123.16 45.4877 122.16 44 120.5C41.1428 116.102 38.3095 111.768 35.5 107.5C33.5275 104.916 32.5275 101.916 32.5 98.5C32.9752 96.2163 33.9752 94.2163 35.5 92.5Z" fill="#66717B"/>
<path fill-rule="evenodd" clip-rule="evenodd" d="M64.5 59.5C60.8333 70.6703 57.6666 82.0036 55 93.5C51.6208 109.192 50.7875 124.859 52.5 140.5C52.6736 146.011 53.6736 151.345 55.5 156.5C59.1601 167.157 62.8267 177.824 66.5 188.5C64.8235 189.183 64.1568 190.517 64.5 192.5C60.6333 179.88 56.6333 167.213 52.5 154.5C44.1705 136.83 36.8371 118.83 30.5 100.5C30.8333 99.5 31.5 98.8333 32.5 98.5C32.5275 101.916 33.5275 104.916 35.5 107.5C39.2454 120.232 44.0787 132.565 50 144.5C49.9127 137.518 49.7461 130.518 49.5 123.5C49.5 118.5 49.5 113.5 49.5 108.5C50.6935 108.03 51.3601 107.03 51.5 105.5C52.629 97.4528 53.9623 89.4528 55.5 81.5C57.8939 73.9307 60.8939 66.5974 64.5 59.5Z" fill="#1C1C1D"/>
<path fill-rule="evenodd" clip-rule="evenodd" d="M367.5 93.5C368.906 93.9731 369.573 94.9731 369.5 96.5C365.514 114.436 359.681 131.77 352 148.5C352.54 140.867 353.04 133.201 353.5 125.5C354.458 123.698 355.125 121.698 355.5 119.5C357.173 118.657 358.34 117.324 359 115.5C362.332 108.334 365.165 101.001 367.5 93.5Z" fill="#C6C9D2"/>
<path opacity="0.907" fill-rule="evenodd" clip-rule="evenodd" d="M22.5 117.5C21.1032 123.071 20.4365 128.738 20.5 134.5C19.8333 136.5 19.1667 138.5 18.5 140.5C18.3239 137.273 17.6572 134.273 16.5 131.5C17.9884 126.533 19.9884 121.866 22.5 117.5Z" fill="#A88B8B"/>
<path fill-rule="evenodd" clip-rule="evenodd" d="M30.5 100.5C36.8371 118.83 44.1705 136.83 52.5 154.5C50.4184 154.624 48.9184 155.624 48 157.5C45.4264 156.08 43.593 156.747 42.5 159.5C42.952 153.631 42.1187 147.965 40 142.5C34.7907 131.767 29.9574 121.1 25.5 110.5C27.1667 107.167 28.8333 103.833 30.5 100.5Z" fill="#D3C8CD"/>
<path fill-rule="evenodd" clip-rule="evenodd" d="M35.5 107.5C38.3095 111.768 41.1428 116.102 44 120.5C45.4877 122.16 47.321 123.16 49.5 123.5C49.7461 130.518 49.9127 137.518 50 144.5C44.0787 132.565 39.2454 120.232 35.5 107.5Z" fill="#7D8B96"/>
<path fill-rule="evenodd" clip-rule="evenodd" d="M261.5 53.5C262.206 93.0491 250.539 128.382 226.5 159.5C223.281 161.528 221.114 164.195 220 167.5C222.705 164.964 225.205 162.297 227.5 159.5C247.341 137.148 259.674 111.148 264.5 81.5C265.268 80.7375 265.768 79.7375 266 78.5C266.483 79.448 266.649 80.448 266.5 81.5C264.798 97.2705 260.465 112.27 253.5 126.5C251.415 129.824 249.415 133.324 247.5 137C248.448 137.483 249.448 137.649 250.5 137.5C251.791 137.263 252.791 137.596 253.5 138.5C250.6 138.28 247.933 138.946 245.5 140.5C233.699 158.148 218.699 171.981 200.5 182C207.671 175.996 214.338 169.496 220.5 162.5C225.719 156.777 230.385 150.611 234.5 144C232.115 143.444 229.782 143.61 227.5 144.5C230.161 142.728 233.161 141.395 236.5 140.5C238.779 136.939 240.779 133.273 242.5 129.5C251.561 111.274 257.228 91.941 259.5 71.5C260.167 65.5 260.833 59.5 261.5 53.5Z" fill="#1F1E1E"/>
<path fill-rule="evenodd" clip-rule="evenodd" d="M306.5 126.5C309.311 127.475 312.311 128.142 315.5 128.5C312.673 129.368 309.673 129.368 306.5 128.5C289.335 127.568 272.335 127.235 255.5 127.5C257.95 127.702 260.283 127.369 262.5 126.5C277.142 125.472 291.809 125.472 306.5 126.5Z" fill="#454444"/>
<path fill-rule="evenodd" clip-rule="evenodd" d="M112.499 22.4995C100.025 41.5812 92.6917 62.5812 90.4985 85.4995C89.3153 97.343 89.3153 109.344 90.4985 121.5C91.0117 124.912 91.8451 128.245 92.9985 131.5C92.501 127.679 92.6677 124.013 93.4985 120.5C93.3238 122.621 93.6571 124.621 94.4985 126.5C95.4985 127.167 96.4985 127.833 97.4985 128.5C95.822 129.183 95.1553 130.517 95.4985 132.5C100.832 132.5 106.166 132.5 111.499 132.5C111.499 132.833 111.499 133.167 111.499 133.5C106.499 133.5 101.499 133.5 96.4985 133.5C96.5157 135.565 96.849 137.565 97.4985 139.5C98.1652 141.833 98.8318 144.167 99.4985 146.5C99.6701 147.492 99.3367 148.158 98.4985 148.5C97.8318 148.167 97.1652 147.833 96.4985 147.5C96.4985 147.167 96.4985 146.833 96.4985 146.5C94.4489 142.691 92.7822 138.691 91.4985 134.5C90.6735 133.614 89.6735 133.281 88.4985 133.5C88.4985 133.167 88.4985 132.833 88.4985 132.5C89.4957 132.53 90.1624 132.03 90.4985 131C82.4253 92.8203 88.7586 57.3203 109.499 24.4995C109.972 23.0932 110.972 22.4265 112.499 22.4995Z" fill="#1A1A19"/>
<path fill-rule="evenodd" clip-rule="evenodd" d="M110.5 125.5C122.901 125.156 135.234 125.823 147.5 127.5C147.833 128.167 148.167 128.833 148.5 129.5C131.557 127.24 114.557 126.907 97.5 128.5C96.5 127.833 95.5 127.167 94.5 126.5C100.026 126.821 105.359 126.488 110.5 125.5Z" fill="#484747"/>
<path fill-rule="evenodd" clip-rule="evenodd" d="M253.5 126.5C253.409 128.698 254.075 129.031 255.5 127.5C272.335 127.235 289.335 127.568 306.5 128.5C306.586 129.496 306.252 130.329 305.5 131C301.644 131.177 297.977 131.677 294.5 132.5C293.5 132.5 292.5 132.5 291.5 132.5C277.51 132.688 263.843 134.355 250.5 137.5C249.448 137.649 248.448 137.483 247.5 137C249.415 133.324 251.415 129.824 253.5 126.5Z" fill="#E0E6E7"/>
<path fill-rule="evenodd" clip-rule="evenodd" d="M369.5 96.5C370.906 96.9731 371.573 97.9731 371.5 99.5C367.81 111.073 363.976 122.74 360 134.5C353.635 147.199 348.468 160.199 344.5 173.5C344.565 173.062 344.399 172.728 344 172.5C343.623 173.942 342.79 174.942 341.5 175.5C342.703 171.89 343.703 168.223 344.5 164.5C350.642 149.882 352.975 134.549 351.5 118.5C351.343 117.127 351.51 115.793 352 114.5C352.177 118.356 352.677 122.023 353.5 125.5C353.04 133.201 352.54 140.867 352 148.5C359.681 131.77 365.514 114.436 369.5 96.5Z" fill="#2C2B2C"/>
<path fill-rule="evenodd" clip-rule="evenodd" d="M148.502 129.5C152.342 130.335 156.008 130.335 159.502 129.5C160.502 129.833 161.169 130.5 161.502 131.5C161.955 132.458 162.621 133.292 163.502 134C163.169 134.167 162.835 134.333 162.502 134.5C159.83 131.544 156.83 131.044 153.502 133C155.502 134 157.502 135 159.502 136C160.698 136.654 160.698 137.154 159.502 137.5C155.383 135.073 151.05 133.573 146.502 133C149.065 133.763 149.065 134.263 146.502 134.5C143.579 133.24 140.579 132.74 137.502 133C138.502 133.333 139.502 133.667 140.502 134C139.908 134.464 139.241 134.631 138.502 134.5C129.516 133.668 120.516 133.001 111.502 132.5C106.169 132.5 100.835 132.5 95.5015 132.5C95.1583 130.517 95.825 129.183 97.5015 128.5C114.559 126.907 131.559 127.24 148.502 129.5Z" fill="#E3E9E9"/>
<path fill-rule="evenodd" clip-rule="evenodd" d="M147.5 127.5C151.454 128.381 155.454 129.048 159.5 129.5C156.006 130.335 152.34 130.335 148.5 129.5C148.167 128.833 147.833 128.167 147.5 127.5Z" fill="#939493"/>
<path fill-rule="evenodd" clip-rule="evenodd" d="M25.4992 110.5C29.9566 121.1 34.7899 131.767 39.9992 142.5C42.1179 147.965 42.9512 153.631 42.4992 159.5C42.4992 160.5 42.4992 161.5 42.4992 162.5C44.4108 165.919 46.9108 168.919 49.9992 171.5C50.4927 173.134 50.6594 174.801 50.4992 176.5C48.9572 185.05 45.6239 185.717 40.4992 178.5C40.5592 177.957 40.8925 177.624 41.4992 177.5C46.2907 183.187 48.6241 182.02 48.4992 174C46.7803 170.599 44.6137 167.432 41.9992 164.5C41.7174 158.784 41.0508 153.117 39.9992 147.5C37.7704 142.846 35.4371 138.18 32.9992 133.5C32.6659 133.167 32.3325 132.833 31.9992 132.5C21.6758 150.648 25.8425 164.148 44.4992 173C42.028 173.706 39.6946 173.373 37.4992 172C34.307 169.972 31.6403 167.472 29.4992 164.5C27.7489 163.341 26.7489 161.674 26.4992 159.5C24.7613 149.031 26.4279 139.198 31.4992 130C30.1921 125.255 28.3588 120.755 25.9992 116.5C23.4421 122.165 22.2755 128.165 22.4992 134.5C21.6765 137.977 21.1765 141.644 20.9992 145.5C20.5006 141.848 20.3339 138.182 20.4992 134.5C20.4357 128.738 21.1024 123.071 22.4992 117.5C23.2263 115.046 24.2263 112.713 25.4992 110.5Z" fill="#211C1C"/>
<path fill-rule="evenodd" clip-rule="evenodd" d="M26.5 159.5C24.3256 156.485 22.6589 153.151 21.5 149.5C22.4872 144.695 22.8205 139.695 22.5 134.5C22.2763 128.165 23.4429 122.165 26 116.5C28.3596 120.755 30.1929 125.255 31.5 130C26.4287 139.198 24.7621 149.031 26.5 159.5Z" fill="#AE8E8D"/>
<path fill-rule="evenodd" clip-rule="evenodd" d="M176.5 144.5C173.466 142.596 170.133 141.262 166.5 140.5C162.314 138.968 157.981 137.968 153.5 137.5C148.443 136.827 143.443 135.827 138.5 134.5C139.239 134.631 139.906 134.464 140.5 134C139.5 133.667 138.5 133.333 137.5 133C140.577 132.74 143.577 133.24 146.5 134.5C149.063 134.263 149.063 133.763 146.5 133C151.048 133.573 155.381 135.073 159.5 137.5C160.696 137.154 160.696 136.654 159.5 136C157.5 135 155.5 134 153.5 133C156.828 131.044 159.828 131.544 162.5 134.5C162.833 134.333 163.167 134.167 163.5 134C162.619 133.292 161.953 132.458 161.5 131.5C162.423 130.697 163.423 130.53 164.5 131C166.809 133.487 169.476 135.487 172.5 137C175.597 139.391 177.763 142.224 179 145.5C178.329 144.748 177.496 144.414 176.5 144.5Z" fill="#CACFCE"/>
<path fill-rule="evenodd" clip-rule="evenodd" d="M242.5 129.5C240.779 133.273 238.779 136.939 236.5 140.5C233.161 141.395 230.161 142.728 227.5 144.5C226.504 144.414 225.671 144.748 225 145.5C224.333 144.833 224.333 144.167 225 143.5C230.073 137.735 235.907 133.068 242.5 129.5Z" fill="#BEC0BF"/>
<path fill-rule="evenodd" clip-rule="evenodd" d="M381.5 119.5C383.737 123.534 385.404 127.868 386.5 132.5C385.867 142.07 382.867 150.737 377.5 158.5C378.296 148.47 376.629 138.803 372.5 129.5C374.047 124.687 375.88 120.02 378 115.5C380.805 125.967 382.138 136.634 382 147.5C383.981 138.126 383.814 128.793 381.5 119.5Z" fill="#AB8A8E"/>
<path fill-rule="evenodd" clip-rule="evenodd" d="M377.5 110.5C379.07 113.314 380.403 116.314 381.5 119.5C383.814 128.793 383.981 138.126 382 147.5C382.138 136.634 380.805 125.967 378 115.5C375.88 120.02 374.047 124.687 372.5 129.5C376.629 138.803 378.296 148.47 377.5 158.5C376.921 161.331 375.588 163.664 373.5 165.5C371.37 167.127 369.37 168.96 367.5 171C365.086 172.885 362.419 173.552 359.5 173C362.5 171.333 365.5 169.667 368.5 168C374.846 162.147 377.346 154.981 376 146.5C374.526 142.578 373.359 138.578 372.5 134.5C371.726 133.289 370.893 133.289 370 134.5C369.434 136.723 368.6 138.723 367.5 140.5C367.158 139.662 366.492 139.328 365.5 139.5C369.52 129.757 373.52 120.09 377.5 110.5Z" fill="#211B1C"/>
<path fill-rule="evenodd" clip-rule="evenodd" d="M371.5 99.5C373.75 102.999 375.75 106.665 377.5 110.5C373.52 120.09 369.52 129.757 365.5 139.5C361.102 146.795 359.435 154.795 360.5 163.5C354.703 163.969 351.036 166.969 349.5 172.5C348.761 172.369 348.094 172.536 347.5 173C346.601 174.652 345.601 176.152 344.5 177.5C344.5 176.167 344.5 174.833 344.5 173.5C348.468 160.199 353.635 147.199 360 134.5C363.976 122.74 367.81 111.073 371.5 99.5Z" fill="#D6C7CD"/>
<path opacity="0.721" fill-rule="evenodd" clip-rule="evenodd" d="M16.5006 131.5C17.6578 134.273 18.3245 137.273 18.5006 140.5C18.8836 143.811 19.8836 146.811 21.5006 149.5C22.6595 153.151 24.3262 156.485 26.5006 159.5C26.7503 161.674 27.7503 163.341 29.5006 164.5C32.4771 170.125 35.8104 175.458 39.5006 180.5C43.8665 186.365 48.0332 192.365 52.0006 198.5C53.7511 201.994 55.5844 202.161 57.5006 199C58.8339 198.333 60.1673 198.333 61.5006 199C61.8909 202.191 63.2243 204.858 65.5006 207C66.5006 207.667 67.5006 207.667 68.5006 207C66.6609 202.313 65.3276 197.48 64.5006 192.5C64.1574 190.517 64.8241 189.183 66.5006 188.5C67.2347 189.708 67.568 191.041 67.5006 192.5C72.7354 207.218 78.7353 221.552 85.5005 235.5C86.9827 240.456 88.9827 245.123 91.5005 249.5C92.6032 253.497 94.2699 257.164 96.5005 260.5C97.611 264.532 99.2776 268.198 101.501 271.5C108.276 283.95 117.276 294.617 128.501 303.5C130.501 305.833 132.501 308.167 134.501 310.5C134.501 311.167 134.168 311.5 133.501 311.5C130.273 308.96 127.106 306.293 124.001 303.5C124.824 313.965 124.657 324.465 123.501 335C123.905 338.087 125.238 340.754 127.501 343C133.446 347.937 140.112 351.604 147.501 354C162.962 357.855 178.629 360.521 194.501 362C196.312 364.978 198.645 367.478 201.501 369.5C204.357 367.478 206.69 364.978 208.501 362C221.574 360.46 234.574 358.46 247.501 356C260.434 353.923 271.268 348.089 280.001 338.5C280.168 337.667 280.334 336.833 280.501 336C278.494 325.537 277.994 315.037 279.001 304.5C269.133 314.037 258.966 323.203 248.501 332C246.847 332.608 245.18 333.108 243.501 333.5C261.458 318.377 278.291 302.044 294.001 284.5C303.745 269.012 311.911 252.679 318.501 235.5C327.245 215.996 334.911 195.996 341.501 175.5C342.791 174.942 343.624 173.942 344.001 172.5C344.4 172.728 344.566 173.062 344.501 173.5C344.501 174.833 344.501 176.167 344.501 177.5C340.726 187.166 337.726 197.166 335.501 207.5C336.501 207.5 337.501 207.5 338.501 207.5C338.215 203.48 339.715 200.48 343.001 198.5C344.768 199.34 346.102 200.673 347.001 202.5C352.072 196.692 356.905 190.692 361.501 184.5C365.462 178.192 369.462 171.859 373.501 165.5C375.589 163.664 376.922 161.331 377.501 158.5C382.868 150.737 385.868 142.07 386.501 132.5C387.735 134.201 388.402 136.201 388.501 138.5C385.757 148.646 381.924 158.312 377.001 167.5C371.206 176.926 365.039 186.092 358.501 195C373.271 200.137 385.771 208.637 396.001 220.5C396.491 221.793 396.658 223.127 396.501 224.5C388.874 216.036 380.207 208.869 370.501 203C366.169 201.059 361.835 199.226 357.501 197.5C355.604 197.728 354.271 198.728 353.501 200.5C369.219 208.032 383.219 218.032 395.501 230.5C395.155 232.363 394.155 233.196 392.501 233C381.898 220.743 369.231 211.076 354.501 204C351.507 203.635 349.507 204.969 348.501 208C357.188 228.027 370.355 244.527 388.001 257.5C388.471 258.577 388.304 259.577 387.501 260.5C365.906 246.071 351.406 226.404 344.001 201.5C343.001 200.167 342.001 200.167 341.001 201.5C340.275 206.239 340.608 210.905 342.001 215.5C351.291 236.956 365.791 253.956 385.501 266.5C385.093 267.643 384.426 268.643 383.501 269.5C365.612 257.78 351.779 242.447 342.001 223.5C340.052 219.371 338.885 215.037 338.501 210.5C337.326 210.281 336.326 210.614 335.501 211.5C333.341 217.157 331.174 222.823 329.001 228.5C321.156 243.675 313.489 259.009 306.001 274.5C299.753 283.419 292.753 291.752 285.001 299.5C280.727 315.897 281.06 332.23 286.001 348.5C287.683 351.864 289.35 355.198 291.001 358.5C293.829 361.328 296.662 364.161 299.501 367C298.645 368.595 297.312 369.428 295.501 369.5C290.84 362.853 286.674 355.853 283.001 348.5C282.284 349.044 281.784 349.711 281.501 350.5C280.834 350.5 280.501 350.167 280.501 349.5C282.957 346.318 283.124 342.985 281.001 339.5C275.014 346.341 267.847 351.341 259.501 354.5C251.634 357.124 243.634 359.124 235.501 360.5C226.767 361.152 218.1 362.319 209.501 364C206.623 366.709 203.957 369.542 201.501 372.5C199.045 369.542 196.379 366.709 193.501 364C176.17 362.279 159.17 358.945 142.501 354C134.586 350.97 128.086 346.137 123.001 339.5C121.035 342.339 120.535 345.339 121.501 348.5C120.509 348.328 119.843 348.662 119.501 349.5C116.017 356.466 112.017 363.132 107.501 369.5C105.911 369.372 104.577 368.705 103.501 367.5C121.65 347.937 126.483 325.27 118.001 299.5C108.854 290.024 100.853 279.69 94.0005 268.5C88.1968 254.893 81.8634 241.56 75.0005 228.5C72.8338 222.833 70.6673 217.167 68.5006 211.5C66.3146 210.779 64.148 210.113 62.0006 209.5C55.1828 217.983 47.3495 225.483 38.5006 232C32.6585 235.754 26.9919 239.754 21.5006 244C18.2227 245.809 14.8894 247.309 11.5006 248.5C11.5006 247.5 11.5006 246.5 11.5006 245.5C29.4676 236.373 45.301 224.373 59.0006 209.5C60.9107 206.431 60.9107 203.431 59.0006 200.5C56.6772 203.79 54.1772 206.957 51.5006 210C38.4226 220.921 24.4226 230.421 9.50055 238.5C8.29409 237.12 8.62743 235.953 10.5006 235C22.3384 227.582 34.0051 219.915 45.5006 212C40.9734 212.415 36.6401 213.748 32.5006 216C23.8845 219.776 15.8845 224.61 8.50055 230.5C7.61487 229.675 7.28154 228.675 7.50055 227.5C15.1121 223.023 22.7788 218.523 30.5006 214C37.5648 210.631 44.8982 208.131 52.5006 206.5C52.533 201.787 50.1997 200.287 45.5006 202C31.8736 207.812 18.8736 214.645 6.50055 222.5C6.23853 221.022 6.57186 219.689 7.50055 218.5C20.6262 211.271 33.9596 204.604 47.5006 198.5C35.8464 183.327 26.0131 166.994 18.0006 149.5C16.9087 145.63 15.742 141.796 14.5006 138C14.8753 135.711 15.5419 133.545 16.5006 131.5Z" fill="#0F0F0F"/>
<path fill-rule="evenodd" clip-rule="evenodd" d="M79.5 173.5C81.1172 174.038 82.7839 174.371 84.5 174.5C85.0998 175.9 86.0998 176.9 87.5 177.5C86.4265 178.251 86.2599 179.251 87 180.5C93.0287 191.531 101.862 199.364 113.5 204C112.207 204.49 110.873 204.657 109.5 204.5C107.5 203.5 105.5 202.5 103.5 201.5C95.1517 195.484 88.1517 188.151 82.5 179.5C80.8176 177.653 78.8176 176.153 76.5 175C77.7375 174.768 78.7375 174.268 79.5 173.5Z" fill="#DDC9C8"/>
<path fill-rule="evenodd" clip-rule="evenodd" d="M84.5 192.501C85.7082 191.219 87.0416 191.219 88.5 192.501C89.8149 194.317 91.3149 195.984 93 197.501C93.5847 198.999 93.0847 199.999 91.5 200.501C89.6103 197.347 87.277 194.68 84.5 192.501Z" fill="#BB8079"/>
<path fill-rule="evenodd" clip-rule="evenodd" d="M87.4999 177.5C95.524 194.603 109.024 203.603 128 204.5C136.235 203.988 144.402 202.988 152.5 201.5C152.253 202.876 150.919 203.71 148.5 204C138.341 204.784 128.341 205.618 118.5 206.5C115.345 206.01 112.345 205.344 109.5 204.5C110.873 204.657 112.207 204.49 113.5 204C101.862 199.364 93.0286 191.531 86.9999 180.5C86.2598 179.251 86.4264 178.251 87.4999 177.5Z" fill="#5A5857"/>
<path fill-rule="evenodd" clip-rule="evenodd" d="M244.5 187.5C243.892 190.327 242.892 192.993 241.5 195.5C240.957 195.44 240.624 195.107 240.5 194.5C241.1 191.651 242.433 189.318 244.5 187.5Z" fill="#707170"/>
<path fill-rule="evenodd" clip-rule="evenodd" d="M166.501 191.5C170.732 193.485 175.065 193.818 179.501 192.5C188.515 191.909 197.349 192.909 206.001 195.5C208.121 194.541 210.288 194.374 212.501 195C220.858 198.023 226.524 203.69 229.501 212C228.369 215.063 228.369 218.063 229.501 221C228.113 223.46 227.447 226.127 227.501 229C228.098 233.19 228.098 237.523 227.501 242C231.03 253.892 229.53 265.059 223.001 275.5C214.009 285.764 203.509 287.931 191.501 282C187.001 278.833 183.168 275 180.001 270.5C176.911 262.385 174.578 254.052 173.001 245.5C171.925 243.423 170.258 242.09 168.001 241.5C165.227 242.536 162.394 243.369 159.501 244C155.541 245.986 152.208 248.653 149.501 252C146.001 253.167 142.501 254.333 139.001 255.5C136.808 253.592 134.308 253.425 131.501 255C130.834 256.333 129.834 257.333 128.501 258C120.666 260.105 112.999 262.772 105.501 266C104.782 268.122 103.615 268.622 102.001 267.5C101.511 268.793 101.345 270.127 101.501 271.5C99.2786 268.198 97.612 264.532 96.5015 260.5C96.4157 259.504 96.7491 258.671 97.5015 258C103.662 256.873 109.995 255.206 116.501 253C122.186 249.834 128.186 247.334 134.501 245.5C135.061 247.377 136.228 249.377 138.001 251.5C149.235 244.923 159.901 237.59 170.001 229.5C176.4 233.036 179.566 238.536 179.501 246C177.433 259.565 182.1 270.565 193.501 279C210.109 283.187 220.442 276.853 224.501 260C223.208 259.51 221.874 259.343 220.501 259.5C220.528 253.44 220.362 247.44 220.001 241.5C222.151 243.852 223.317 243.685 223.501 241C222.92 234.42 222.087 227.586 221.001 220.5C219.077 218.178 217.744 215.511 217.001 212.5C214.168 211 212.001 208.833 210.501 206C205.413 202.876 199.913 200.709 194.001 199.5C189.202 200.348 184.369 201.015 179.501 201.5C172.86 200.668 166.193 200.335 159.501 200.5C160.168 199.167 160.834 197.833 161.501 196.5C162.364 197.463 163.031 197.463 163.501 196.5C156.215 181.408 157.382 180.741 167.001 194.5C167.471 193.423 167.304 192.423 166.501 191.5Z" fill="#FAE8E5"/>
<path fill-rule="evenodd" clip-rule="evenodd" d="M344.5 164.499C343.703 168.222 342.703 171.889 341.5 175.499C334.91 195.995 327.244 215.995 318.5 235.499C317.393 233.152 315.726 232.819 313.5 234.499C316.5 227.166 319.5 219.832 322.5 212.499C327.545 201.07 332.045 189.403 336 177.499C336.71 176.026 337.876 175.359 339.5 175.499C339.715 173.82 339.048 172.82 337.5 172.499C338.508 169.155 339.508 165.822 340.5 162.499C341.5 161.166 342.5 159.832 343.5 158.499C342.89 157.608 342.557 156.608 342.5 155.499C344.002 152.345 345.336 149.012 346.5 145.499C347.359 144.225 348.026 144.391 348.5 145.999C347.241 152.198 345.908 158.365 344.5 164.499Z" fill="#F8E2DE"/>
<path fill-rule="evenodd" clip-rule="evenodd" d="M52.5008 154.5C56.6341 167.213 60.6341 179.88 64.5008 192.5C65.3278 197.48 66.6611 202.313 68.5008 207C67.5008 207.667 66.5008 207.667 65.5008 207C63.2245 204.858 61.8911 202.191 61.5008 199C60.1675 198.333 58.8341 198.333 57.5008 199C55.5846 202.161 53.7513 201.994 52.0008 198.5C48.0334 192.365 43.8667 186.365 39.5008 180.5C39.3292 179.508 39.6626 178.842 40.5008 178.5C45.6255 185.717 48.9588 185.05 50.5008 176.5C54.4637 168.402 51.797 163.735 42.5008 162.5C42.5008 161.5 42.5008 160.5 42.5008 159.5C43.5938 156.747 45.4272 156.08 48.0008 157.5C48.9192 155.624 50.4192 154.624 52.5008 154.5Z" fill="#E4CFD1"/>
<path fill-rule="evenodd" clip-rule="evenodd" d="M64.5 173.5C69.3471 174.619 74.3471 174.619 79.5 173.5C78.7375 174.268 77.7375 174.768 76.5 175C78.8176 176.153 80.8176 177.653 82.5 179.5C81.325 179.281 80.325 179.614 79.5 180.5C80.6395 183.947 82.6395 186.781 85.5 189C82.921 190.076 81.2543 191.909 80.5 194.5C79.2719 193.694 78.2719 192.694 77.5 191.5C74.0574 186.618 71.7241 181.285 70.5 175.5C68.076 175.808 65.7427 175.474 63.5 174.5C63.6236 173.893 63.9569 173.56 64.5 173.5Z" fill="#DBABA7"/>
<path fill-rule="evenodd" clip-rule="evenodd" d="M337.5 172.5C339.048 172.821 339.715 173.821 339.5 175.5C337.876 175.36 336.71 176.027 336 177.5C332.045 189.404 327.545 201.071 322.5 212.5C321.027 211.928 319.693 211.095 318.5 210C319.271 208.002 318.605 206.335 316.5 205C316.168 202.452 316.835 199.952 318.5 197.5C318.561 195.279 317.895 194.946 316.5 196.5C316.733 194.938 317.4 193.605 318.5 192.5C323.005 194.95 323.672 193.783 320.5 189C321.096 186.775 321.763 184.608 322.5 182.5C323.091 181.849 323.757 181.182 324.5 180.5C321.789 179.011 319.789 179.678 318.5 182.5C317.091 184.972 315.424 187.305 313.5 189.5C311.194 192.473 308.527 195.14 305.5 197.5C302.635 199.761 299.635 201.761 296.5 203.5C295.833 203.833 295.167 204.167 294.5 204.5C293.127 204.657 291.793 204.49 290.5 204C299.982 200.955 306.982 195.121 311.5 186.5C314.557 184.393 315.89 181.726 315.5 178.5C317.134 177.045 318.468 175.378 319.5 173.5C323.39 173.801 327.557 174.134 332 174.5C334.167 174.333 336.333 174.167 338.5 174C337.944 173.617 337.611 173.117 337.5 172.5Z" fill="#E3C8CA"/>
<path fill-rule="evenodd" clip-rule="evenodd" d="M313.5 189.499C315.75 189.18 317.75 189.68 319.5 190.999C318.906 191.463 318.239 191.63 317.5 191.499C314.437 193.05 311.771 195.217 309.5 197.999C311.26 198.964 311.594 200.131 310.5 201.499C308.929 200.69 307.262 200.356 305.5 200.499C305.5 199.499 305.5 198.499 305.5 197.499C308.527 195.139 311.194 192.472 313.5 189.499Z" fill="#382D2B"/>
<path fill-rule="evenodd" clip-rule="evenodd" d="M322.5 182.5C321.763 184.608 321.096 186.775 320.5 189C323.672 193.783 323.005 194.95 318.5 192.5C317.833 192.5 317.5 192.167 317.5 191.5C318.239 191.631 318.906 191.464 319.5 191C317.75 189.681 315.75 189.181 313.5 189.5C315.424 187.305 317.091 184.972 318.5 182.5C319.248 184.735 320.081 184.402 321 181.5C321.383 182.056 321.883 182.389 322.5 182.5Z" fill="#6A504E"/>
<path fill-rule="evenodd" clip-rule="evenodd" d="M82.5 179.501C88.1517 188.152 95.1517 195.485 103.5 201.501C103.062 201.436 102.728 201.602 102.5 202.001C103.381 202.709 104.047 203.543 104.5 204.501C100.29 202.956 95.9566 201.956 91.5 201.501C91.5 201.168 91.5 200.834 91.5 200.501C93.0847 199.999 93.5847 198.999 93 197.501C91.3149 195.984 89.8149 194.317 88.5 192.501C87.0416 191.219 85.7082 191.219 84.5 192.501C83.1667 193.168 81.8333 193.834 80.5 194.501C81.2543 191.91 82.921 190.077 85.5 189.001C82.6395 186.782 80.6395 183.948 79.5 180.501C80.325 179.615 81.325 179.282 82.5 179.501Z" fill="#4F3B39"/>
<path fill-rule="evenodd" clip-rule="evenodd" d="M315.5 178.5C315.89 181.726 314.557 184.393 311.5 186.5C312.82 183.86 314.153 181.193 315.5 178.5Z" fill="#666060"/>
<path fill-rule="evenodd" clip-rule="evenodd" d="M245.5 182.501C246.492 182.329 247.158 182.663 247.5 183.501C247.262 185.405 246.262 186.739 244.5 187.501C244.631 186.762 244.464 186.095 244 185.501C240.942 187.958 238.608 190.958 237 194.501C237.4 191.033 238.9 188.033 241.5 185.501C242.833 184.501 244.167 183.501 245.5 182.501Z" fill="#87817D"/>
<path fill-rule="evenodd" clip-rule="evenodd" d="M154.5 177.5C157.14 180.806 160.14 183.806 163.5 186.5C164.248 188.332 165.248 189.999 166.5 191.5C167.303 192.423 167.47 193.423 167 194.5C157.381 180.741 156.214 181.408 163.5 196.5C163.03 197.463 162.363 197.463 161.5 196.5C159.963 190.884 157.297 185.884 153.5 181.5C154.434 180.432 154.768 179.099 154.5 177.5Z" fill="#7F7A79"/>
<path fill-rule="evenodd" clip-rule="evenodd" d="M123.5 169.5C127.739 169.877 131.739 170.877 135.5 172.5C134.399 173.598 133.066 173.765 131.5 173C132.167 172.667 132.833 172.333 133.5 172C131.19 171.503 128.857 171.337 126.5 171.5C124.325 180.49 127.658 183.99 136.5 182C137.085 180.698 137.751 179.531 138.5 178.5C138.369 179.239 138.536 179.906 139 180.5C139.278 179.584 139.778 178.918 140.5 178.5C139.059 185.051 135.059 187.217 128.5 185C125.051 181.935 123.384 178.102 123.5 173.5C120.813 173.664 118.146 173.497 115.5 173C118.601 172.362 121.268 171.195 123.5 169.5Z" fill="#335A52"/>
<path fill-rule="evenodd" clip-rule="evenodd" d="M291.498 133.5C303.234 133.184 314.901 133.851 326.498 135.5C329.197 138.039 328.53 139.539 324.498 140C314.193 141.853 303.86 143.52 293.498 145C291.275 145.566 289.275 146.4 287.498 147.5C279.405 149.642 272.072 153.309 265.498 158.5C255.941 162.724 248.608 169.39 243.498 178.5C239.481 180.186 238.815 182.519 241.498 185.5C238.898 188.032 237.398 191.032 236.998 194.5C238.606 190.957 240.94 187.957 243.998 185.5C244.462 186.094 244.629 186.761 244.498 187.5C242.431 189.318 241.098 191.651 240.498 194.5C240.622 195.107 240.955 195.44 241.498 195.5C241.486 199.446 243.486 201.113 247.498 200.5C247.08 201.222 246.414 201.722 245.498 202C258.359 204.586 271.359 205.919 284.498 206C283.582 206.278 282.916 206.778 282.498 207.5C279.48 207.335 276.48 207.502 273.498 208C274.054 208.383 274.387 208.883 274.498 209.5C272.801 211.339 271.135 213.172 269.498 215C271.992 217.283 274.992 218.617 278.498 219C276.483 219.424 274.649 220.258 272.998 221.5C272.125 221.265 271.291 220.931 270.498 220.5C268.942 222.639 267.276 224.139 265.498 225C264.449 225.492 263.449 225.326 262.498 224.5C261.302 224.846 261.302 225.346 262.498 226C261.498 226.333 260.498 226.667 259.498 227C262.897 230.061 265.897 233.394 268.498 237C270.349 237.837 272.182 238.671 273.998 239.5C274.481 240.448 274.647 241.448 274.498 242.5C277.498 242.167 278.831 243.5 278.498 246.5C281.165 247.833 283.831 249.167 286.498 250.5C286.195 253.588 287.528 255.254 290.498 255.5C291.831 257.833 291.831 260.167 290.498 262.5C291.498 262.5 292.498 262.5 293.498 262.5C293.568 265.828 293.902 268.828 294.498 271.5C302.824 261.514 308.491 250.181 311.498 237.5C312.165 236.5 312.831 235.5 313.498 234.5C315.724 232.82 317.391 233.153 318.498 235.5C311.908 252.679 303.742 269.012 293.998 284.5C278.288 302.044 261.455 318.377 243.498 333.5C242.389 333.557 241.389 333.89 240.498 334.5C240.387 333.883 240.054 333.383 239.498 333C250.153 324.344 260.153 315.011 269.498 305C268.26 305.077 267.26 304.911 266.498 304.5C266.61 300.612 266.61 296.446 266.498 292C267.165 291.333 267.831 290.667 268.498 290C267.104 289.044 266.437 287.711 266.498 286C266.831 283 267.165 280 267.498 277C267.383 275.105 266.716 273.438 265.498 272C266.197 268.2 266.863 264.367 267.498 260.5C265.351 258.337 262.684 257.337 259.498 257.5C258.63 254.269 258.63 250.935 259.498 247.5C254.342 247.295 250.342 245.128 247.498 241C247.955 240.586 248.289 240.086 248.498 239.5C245.653 236.152 241.986 234.652 237.498 235C236.872 234.25 236.372 233.416 235.998 232.5C235.331 233.833 234.665 233.833 233.998 232.5C233.083 233.328 232.417 234.328 231.998 235.5C231.428 245.914 231.095 256.247 230.998 266.5C230.665 265.833 230.331 265.167 229.998 264.5C229.255 266.441 229.422 268.274 230.498 270C229.669 271.816 228.835 273.649 227.998 275.5C223.234 278.59 218.734 282.09 214.498 286C206.273 289.923 197.94 289.923 189.498 286C179.916 278.342 173.749 268.508 170.998 256.5C169.998 254.833 168.665 253.5 166.998 252.5C162.304 253.373 157.47 254.873 152.498 257C153.971 257.71 154.638 258.876 154.498 260.5C150.735 260.857 147.068 261.69 143.498 263C142.287 264.113 142.287 265.28 143.498 266.5C139.564 267.854 135.564 269.021 131.498 270C131.942 271.533 132.275 273.033 132.498 274.5C130.374 275.149 128.374 275.983 126.498 277C126.956 280.418 126.956 284.084 126.498 288C127.571 289.313 128.238 290.813 128.498 292.5C127.391 294.06 127.391 295.56 128.498 297C127.976 297.95 127.309 298.784 126.498 299.5C127.628 300.622 128.295 301.956 128.498 303.5C117.273 294.617 108.273 283.95 101.498 271.5C101.342 270.127 101.508 268.793 101.998 267.5C103.612 268.622 104.778 268.122 105.498 266C112.996 262.772 120.663 260.105 128.498 258C129.831 257.333 130.831 256.333 131.498 255C134.305 253.425 136.805 253.592 138.998 255.5C142.498 254.333 145.998 253.167 149.498 252C152.205 248.653 155.538 245.986 159.498 244C162.391 243.369 165.224 242.536 167.998 241.5C170.255 242.09 171.922 243.423 172.998 245.5C174.575 254.052 176.908 262.385 179.998 270.5C183.165 275 186.998 278.833 191.498 282C203.506 287.931 214.006 285.764 222.998 275.5C229.527 265.059 231.027 253.892 227.498 242C228.095 237.523 228.095 233.19 227.498 229C227.444 226.127 228.11 223.46 229.498 221C228.366 218.063 228.366 215.063 229.498 212C226.521 203.69 220.855 198.023 212.498 195C210.285 194.374 208.118 194.541 205.998 195.5C197.346 192.909 188.512 191.909 179.498 192.5C186.704 187.983 188.371 181.817 184.498 174C185.437 172.056 186.771 170.389 188.498 169C193.215 168.524 197.881 168.524 202.498 169C202.165 168.667 201.831 168.333 201.498 168C202.831 167.667 204.165 167.333 205.498 167C199.271 165.068 199.105 163.235 204.998 161.5C210.135 162.303 215.301 162.636 220.498 162.5C214.336 169.496 207.669 175.996 200.498 182C218.697 171.981 233.697 158.148 245.498 140.5C247.931 138.946 250.598 138.28 253.498 138.5C266.035 135.9 278.702 134.233 291.498 133.5Z" fill="#F8EBE8"/>
<path fill-rule="evenodd" clip-rule="evenodd" d="M322.5 182.5C321.883 182.389 321.383 182.056 321 181.5C320.081 184.402 319.248 184.735 318.5 182.5C319.789 179.678 321.789 179.011 324.5 180.5C323.757 181.182 323.091 181.849 322.5 182.5Z" fill="#211B1B"/>
<path fill-rule="evenodd" clip-rule="evenodd" d="M349.5 172.5C349.335 175.518 349.502 178.518 350 181.5C351.11 183.037 352.61 183.703 354.5 183.5C355.833 183.5 357.167 183.5 358.5 183.5C359.791 183.263 360.791 183.596 361.5 184.5C356.904 190.692 352.071 196.692 347 202.5C346.101 200.673 344.767 199.34 343 198.5C339.714 200.48 338.214 203.48 338.5 207.5C337.5 207.5 336.5 207.5 335.5 207.5C337.725 197.166 340.725 187.166 344.5 177.5C345.601 176.152 346.601 174.652 347.5 173C348.094 172.536 348.761 172.369 349.5 172.5Z" fill="#DFC0C3"/>
<path fill-rule="evenodd" clip-rule="evenodd" d="M144.5 164.5C150.793 168.958 156.293 174.292 161 180.5C161.399 180.272 161.565 179.938 161.5 179.5C163.163 181.438 163.829 183.772 163.5 186.5C160.14 183.806 157.14 180.806 154.5 177.5C150.81 174.801 147.143 172.135 143.5 169.5C144.497 169.53 145.164 169.03 145.5 168C145.011 166.862 144.678 165.695 144.5 164.5Z" fill="#D5B8B2"/>
<path fill-rule="evenodd" clip-rule="evenodd" d="M279.502 169.499C283.55 169.394 287.55 169.727 291.502 170.499C291.502 170.832 291.502 171.166 291.502 171.499C291.853 178.761 290.02 185.428 286.002 191.499C278.545 199.465 270.045 200.631 260.502 194.999C257.11 192.465 254.777 189.298 253.502 185.499C253.339 183.142 253.505 180.809 254.002 178.499C256.253 177.587 258.419 176.587 260.502 175.499C262.269 178.333 264.103 181.333 266.002 184.499C274.888 186.468 279.721 182.801 280.502 173.499C282.859 173.662 285.192 173.496 287.502 172.999C284.327 172.506 281.661 171.339 279.502 169.499Z" fill="#AAF9F8"/>
<path fill-rule="evenodd" clip-rule="evenodd" d="M276.5 161.5C278.858 163.129 281.524 164.295 284.5 165C286.864 166.842 289.197 168.675 291.5 170.5C287.548 169.728 283.548 169.395 279.5 169.5C275.215 170.208 270.882 170.708 266.5 171C265.748 171.671 265.414 172.504 265.5 173.5C264.698 174.952 264.198 176.618 264 178.5C263.51 177.207 263.343 175.873 263.5 174.5C262.209 174.263 261.209 174.596 260.5 175.5C258.417 176.588 256.251 177.588 254 178.5C253.503 180.81 253.337 183.143 253.5 185.5C253.672 186.492 253.338 187.158 252.5 187.5C251.94 185.199 251.44 182.866 251 180.5C249.961 181.71 248.794 182.71 247.5 183.5C247.158 182.662 246.492 182.328 245.5 182.5C246.794 180.093 248.461 177.926 250.5 176C255.727 172.228 261.061 168.728 266.5 165.5C269.749 163.972 273.082 162.639 276.5 161.5Z" fill="#192926"/>
<path fill-rule="evenodd" clip-rule="evenodd" d="M360.499 163.5C357.834 166.335 355.334 169.335 352.999 172.5C352.656 176.285 353.156 179.952 354.499 183.5C352.609 183.703 351.109 183.037 349.999 181.5C349.501 178.518 349.334 175.518 349.499 172.5C351.035 166.969 354.702 163.969 360.499 163.5Z" fill="#CC9392"/>
<path fill-rule="evenodd" clip-rule="evenodd" d="M123.502 169.499C121.27 171.194 118.603 172.361 115.502 172.999C118.148 173.496 120.815 173.663 123.502 173.499C123.386 178.101 125.053 181.934 128.502 184.999C135.061 187.216 139.061 185.05 140.502 178.499C140.502 177.499 140.502 176.499 140.502 175.499C144.167 175.501 147.167 176.834 149.502 179.499C150.505 185.327 148.838 190.16 144.502 193.999C128.605 202.876 117.938 198.71 112.502 181.499C111.491 177.887 111.324 174.22 112.002 170.499C115.732 169.539 119.565 169.206 123.502 169.499Z" fill="#A8F7F6"/>
<path fill-rule="evenodd" clip-rule="evenodd" d="M296.5 171.499C294.94 173.155 293.94 175.155 293.5 177.499C293.5 175.832 293.5 174.166 293.5 172.499C294.053 170.447 295.053 170.114 296.5 171.499Z" fill="#808A89"/>
<path fill-rule="evenodd" clip-rule="evenodd" d="M142.5 163.501C142.842 162.663 143.508 162.329 144.5 162.501C150.489 166.824 155.822 171.824 160.5 177.501C160.833 178.168 161.167 178.834 161.5 179.501C161.565 179.939 161.399 180.273 161 180.501C156.293 174.293 150.793 168.959 144.5 164.501C143.833 164.168 143.167 163.834 142.5 163.501Z" fill="#4D4441"/>
<path fill-rule="evenodd" clip-rule="evenodd" d="M373.5 165.5C369.461 171.859 365.461 178.192 361.5 184.5C360.791 183.596 359.791 183.263 358.5 183.5C360.49 182.066 362.157 180.232 363.5 178C361.001 179.276 358.334 180.442 355.5 181.5C355.656 178.934 355.322 176.434 354.5 174C357.341 170.813 359.841 167.313 362 163.5C361.872 156.087 363.038 148.92 365.5 142C365.836 140.97 366.503 140.47 367.5 140.5C368.6 138.723 369.434 136.723 370 134.5C370.893 133.289 371.726 133.289 372.5 134.5C373.359 138.578 374.526 142.578 376 146.5C377.346 154.981 374.846 162.147 368.5 168C365.5 169.667 362.5 171.333 359.5 173C362.419 173.552 365.086 172.885 367.5 171C369.37 168.96 371.37 167.127 373.5 165.5Z" fill="#C38E8F"/>
<path fill-rule="evenodd" clip-rule="evenodd" d="M319.5 173.5C318.468 175.378 317.134 177.045 315.5 178.5C314.153 181.193 312.82 183.86 311.5 186.5C304.199 194.969 295.199 200.803 284.5 204C271.964 204.851 259.63 203.685 247.5 200.5C243.488 201.113 241.488 199.446 241.5 195.5C242.892 192.993 243.892 190.327 244.5 187.5C246.262 186.738 247.262 185.404 247.5 183.5C248.794 182.71 249.961 181.71 251 180.5C251.44 182.866 251.94 185.199 252.5 187.5C259.681 200.614 270.014 203.781 283.5 197C289.089 191.655 292.422 185.155 293.5 177.5C293.94 175.156 294.94 173.156 296.5 171.5C298.435 172.15 300.435 172.483 302.5 172.5C305.278 173.306 308.112 174.306 311 175.5C311.5 175.333 312 175.167 312.5 175C310.423 173.295 308.09 172.128 305.5 171.5C303.505 170.767 303.339 170.1 305 169.5C310.629 170.524 315.463 171.857 319.5 173.5Z" fill="#F7F8F8"/>
<path fill-rule="evenodd" clip-rule="evenodd" d="M305.5 171.5C308.09 172.128 310.423 173.295 312.5 175C312 175.167 311.5 175.333 311 175.5C308.112 174.306 305.278 173.306 302.5 172.5C303.791 172.737 304.791 172.404 305.5 171.5Z" fill="#424544"/>
<path fill-rule="evenodd" clip-rule="evenodd" d="M108.499 170.5C109.253 174.773 110.253 179.106 111.499 183.5C117.877 200.575 129.211 204.741 145.499 196C148.408 193.015 150.408 189.515 151.499 185.5C151.214 183.712 151.547 182.045 152.499 180.5C153.106 180.624 153.439 180.957 153.499 181.5C157.296 185.884 159.962 190.884 161.499 196.5C160.832 197.833 160.166 199.167 159.499 200.5C156.94 200.198 154.606 200.532 152.499 201.5C144.401 202.988 136.234 203.988 127.999 204.5C109.023 203.603 95.5235 194.603 87.4994 177.5C86.0992 176.9 85.0992 175.9 84.4994 174.5C83.4013 173.603 83.4013 172.77 84.4994 172C89.4959 170.857 94.4959 170.19 99.4994 170C97.2655 170.969 95.2655 172.302 93.4994 174C98.4997 173.174 103.5 172.007 108.499 170.5Z" fill="#F4F5F5"/>
<path fill-rule="evenodd" clip-rule="evenodd" d="M264.499 161.5C264.156 163.483 264.823 164.817 266.499 165.5C261.06 168.728 255.726 172.228 250.499 176C248.46 177.926 246.793 180.093 245.499 182.5C244.166 183.5 242.832 184.5 241.499 185.5C238.816 182.519 239.482 180.186 243.499 178.5C249.63 171.696 256.63 166.029 264.499 161.5Z" fill="#E1D1CA"/>
<path fill-rule="evenodd" clip-rule="evenodd" d="M120.5 159.5C123.936 160.192 127.27 161.192 130.5 162.5C134.993 164.579 139.326 166.912 143.5 169.5C147.143 172.135 150.81 174.801 154.5 177.5C154.768 179.099 154.434 180.432 153.5 181.5C153.44 180.957 153.107 180.624 152.5 180.5C151.548 182.045 151.215 183.712 151.5 185.5C150.833 183.5 150.167 181.5 149.5 179.5C147.165 176.835 144.165 175.502 140.5 175.5C140.5 176.5 140.5 177.5 140.5 178.5C139.778 178.918 139.278 179.584 139 180.5C138.536 179.906 138.369 179.239 138.5 178.5C138.66 176.801 138.494 175.134 138 173.5C137.329 172.748 136.496 172.414 135.5 172.5C131.739 170.877 127.739 169.877 123.5 169.5C119.563 169.207 115.73 169.54 112 170.5C111.322 174.221 111.489 177.888 112.5 181.5C112.672 182.492 112.338 183.158 111.5 183.5C110.254 179.106 109.254 174.773 108.5 170.5C111.163 165.839 115.163 163.172 120.5 162.5C120.5 161.5 120.5 160.5 120.5 159.5Z" fill="#131F1D"/>
<path fill-rule="evenodd" clip-rule="evenodd" d="M135.5 172.5C136.496 172.414 137.329 172.748 138 173.5C138.494 175.134 138.66 176.801 138.5 178.5C137.751 179.531 137.085 180.698 136.5 182C127.658 183.99 124.325 180.49 126.5 171.5C128.857 171.337 131.19 171.503 133.5 172C132.833 172.333 132.167 172.667 131.5 173C133.066 173.765 134.399 173.598 135.5 172.5Z" fill="#F1F3F3"/>
<path fill-rule="evenodd" clip-rule="evenodd" d="M279.5 169.5C281.659 171.34 284.325 172.507 287.5 173C285.19 173.497 282.857 173.663 280.5 173.5C279.719 182.802 274.886 186.469 266 184.5C264.101 181.334 262.267 178.334 260.5 175.5C261.209 174.596 262.209 174.263 263.5 174.5C263.343 175.873 263.51 177.207 264 178.5C264.198 176.618 264.698 174.952 265.5 173.5C265.414 172.504 265.748 171.671 266.5 171C270.882 170.708 275.215 170.208 279.5 169.5Z" fill="#30514B"/>
<path fill-rule="evenodd" clip-rule="evenodd" d="M265.499 173.5C267.526 173.662 269.526 173.495 271.499 173C269.064 171.997 269.397 171.497 272.499 171.5C273.893 171.621 275.227 171.954 276.499 172.5C278.523 180.311 275.523 183.478 267.499 182C265.82 179.435 265.153 176.602 265.499 173.5Z" fill="#F7F9F8"/>
<path fill-rule="evenodd" clip-rule="evenodd" d="M265.5 158.5C265.5 159.167 265.833 159.5 266.5 159.5C265.833 160.167 265.167 160.833 264.5 161.5C256.631 166.029 249.631 171.696 243.5 178.5C248.61 169.39 255.943 162.724 265.5 158.5Z" fill="#585754"/>
<path fill-rule="evenodd" clip-rule="evenodd" d="M365.499 139.501C366.491 139.329 367.157 139.663 367.499 140.501C366.502 140.471 365.835 140.971 365.499 142.001C363.037 148.921 361.871 156.088 361.999 163.501C359.84 167.314 357.34 170.814 354.499 174.001C355.321 176.435 355.655 178.935 355.499 181.501C358.333 180.443 361 179.277 363.499 178.001C362.156 180.233 360.489 182.067 358.499 183.501C357.166 183.501 355.832 183.501 354.499 183.501C353.156 179.953 352.656 176.286 352.999 172.501C355.334 169.336 357.834 166.336 360.499 163.501C359.434 154.796 361.101 146.796 365.499 139.501Z" fill="#352929"/>
<path fill-rule="evenodd" clip-rule="evenodd" d="M340.5 162.5C339.508 165.823 338.508 169.156 337.5 172.5C335.199 171.94 332.866 171.44 330.5 171C330.043 170.586 329.709 170.086 329.5 169.5C332.934 166.719 336.601 164.386 340.5 162.5Z" fill="#D7C9CD"/>
<path fill-rule="evenodd" clip-rule="evenodd" d="M135.5 159.5C137.996 160.58 140.33 161.914 142.5 163.5C143.167 163.833 143.833 164.167 144.5 164.5C144.678 165.695 145.011 166.862 145.5 168C145.164 169.03 144.497 169.53 143.5 169.5C139.326 166.912 134.993 164.579 130.5 162.5C130.5 161.5 130.5 160.5 130.5 159.5C132.167 159.5 133.833 159.5 135.5 159.5Z" fill="#F0E7E2"/>
<path fill-rule="evenodd" clip-rule="evenodd" d="M42.5 162.5C51.7962 163.735 54.4629 168.402 50.5 176.5C50.6602 174.801 50.4935 173.134 50 171.5C46.9116 168.919 44.4116 165.919 42.5 162.5Z" fill="#B99390"/>
<path fill-rule="evenodd" clip-rule="evenodd" d="M226.5 159.5C226.833 159.5 227.167 159.5 227.5 159.5C225.205 162.297 222.705 164.964 220 167.5C221.114 164.195 223.281 161.528 226.5 159.5Z" fill="#8E9292"/>
<path fill-rule="evenodd" clip-rule="evenodd" d="M284.501 152.5C286.846 153.988 287.18 155.988 285.501 158.5C282.342 159.331 279.342 160.331 276.501 161.5C273.083 162.639 269.75 163.972 266.501 165.5C264.825 164.817 264.158 163.483 264.501 161.5C265.168 160.833 265.834 160.167 266.501 159.5C272.293 156.603 278.293 154.27 284.501 152.5Z" fill="#F0E9E6"/>
<path fill-rule="evenodd" clip-rule="evenodd" d="M40.5005 178.5C39.6623 178.842 39.3289 179.508 39.5005 180.5C35.8103 175.458 32.477 170.125 29.5005 164.5C31.6416 167.472 34.3083 169.972 37.5005 172C39.6959 173.373 42.0293 173.706 44.5005 173C25.8438 164.148 21.6771 150.648 32.0005 132.5C32.3338 132.833 32.6672 133.167 33.0005 133.5C35.4384 138.18 37.7717 142.846 40.0005 147.5C41.0521 153.117 41.7187 158.784 42.0005 164.5C44.615 167.432 46.7816 170.599 48.5005 174C48.6254 182.02 46.292 183.187 41.5005 177.5C40.8938 177.624 40.5605 177.957 40.5005 178.5Z" fill="#BE9592"/>
<path fill-rule="evenodd" clip-rule="evenodd" d="M325.5 158.5C331.5 158.5 337.5 158.5 343.5 158.5C342.5 159.833 341.5 161.167 340.5 162.5C336.601 164.386 332.934 166.719 329.5 169.5C329.709 170.086 330.043 170.586 330.5 171C332.866 171.44 335.199 171.94 337.5 172.5C337.611 173.117 337.944 173.617 338.5 174C336.333 174.167 334.167 174.333 332 174.5C327.557 174.134 323.39 173.801 319.5 173.5C315.463 171.857 310.629 170.524 305 169.5C303.339 170.1 303.505 170.767 305.5 171.5C304.791 172.404 303.791 172.737 302.5 172.5C300.435 172.483 298.435 172.15 296.5 171.5C295.053 170.115 294.053 170.448 293.5 172.5C292.833 172.167 292.167 171.833 291.5 171.5C291.5 171.167 291.5 170.833 291.5 170.5C289.197 168.675 286.864 166.842 284.5 165C281.524 164.295 278.858 163.129 276.5 161.5C279.341 160.331 282.341 159.331 285.5 158.5C292.282 156.572 298.949 154.239 305.5 151.5C305.833 151.667 306.167 151.833 306.5 152C302.598 155.053 303.431 156.22 309 155.5C314.223 154.638 319.389 153.805 324.5 153C316.415 156.332 316.749 158.166 325.5 158.5Z" fill="#0D0E0E"/>
<path fill-rule="evenodd" clip-rule="evenodd" d="M120.5 159.5C120.5 160.5 120.5 161.5 120.5 162.5C115.163 163.172 111.163 165.839 108.5 170.5C103.5 172.007 98.5003 173.174 93.5 174C95.2661 172.302 97.2661 170.969 99.5 170C94.4965 170.19 89.4965 170.857 84.5 172C83.4019 172.77 83.4019 173.603 84.5 174.5C82.7839 174.371 81.1172 174.038 79.5 173.5C74.3471 174.619 69.3471 174.619 64.5 173.5C67.4805 172.171 70.4805 170.838 73.5 169.5C69.1667 166.167 64.8333 162.833 60.5 159.5C66.1278 158.505 71.7945 158.171 77.5 158.5C84.3676 158.612 85.0342 156.778 79.5 153C79.8333 152.833 80.1667 152.667 80.5 152.5C86.5901 155.16 92.9235 155.993 99.5 155C98.5 154 97.5 153 96.5 152C104.326 154.774 112.326 157.274 120.5 159.5Z" fill="#0D0D0C"/>
<path fill-rule="evenodd" clip-rule="evenodd" d="M321.5 149.5C322.287 151.104 323.62 151.771 325.5 151.5C325.5 153.833 325.5 156.167 325.5 158.5C316.749 158.166 316.415 156.332 324.5 153C319.389 153.805 314.223 154.638 309 155.5C303.431 156.22 302.598 155.053 306.5 152C306.167 151.833 305.833 151.667 305.5 151.5C298.949 154.239 292.282 156.572 285.5 158.5C287.179 155.988 286.845 153.988 284.5 152.5C288.792 151.011 293.125 149.677 297.5 148.5C305.71 146.995 313.71 147.328 321.5 149.5Z" fill="#CFACA9"/>
<path fill-rule="evenodd" clip-rule="evenodd" d="M97.5 139.5C111.457 140.073 124.457 143.906 136.5 151C147.552 157.212 155.552 166.045 160.5 177.5C155.822 171.823 150.489 166.823 144.5 162.5C138.532 157.509 131.866 153.509 124.5 150.5C116.461 147.408 108.128 146.075 99.5 146.5C98.8333 144.167 98.1667 141.833 97.5 139.5Z" fill="#E9D1CD"/>
<path fill-rule="evenodd" clip-rule="evenodd" d="M124.5 150.5C131.866 153.509 138.532 157.509 144.5 162.5C143.508 162.328 142.842 162.662 142.5 163.5C140.33 161.914 137.996 160.58 135.5 159.5C134.833 158.833 134.167 158.167 133.5 157.5C130.173 155.17 126.507 153.337 122.5 152C123.416 151.722 124.082 151.222 124.5 150.5Z" fill="#827976"/>
<path fill-rule="evenodd" clip-rule="evenodd" d="M294.5 146.5C295.29 147.401 296.29 148.068 297.5 148.5C293.125 149.677 288.792 151.011 284.5 152.5C278.292 154.27 272.292 156.603 266.5 159.5C265.833 159.5 265.5 159.167 265.5 158.5C272.074 153.309 279.407 149.642 287.5 147.5C289.861 147.326 292.194 146.993 294.5 146.5Z" fill="#847C7A"/>
<path fill-rule="evenodd" clip-rule="evenodd" d="M96.5 147.5C97.1667 147.833 97.8333 148.167 98.5 148.5C98.7828 149.289 99.2828 149.956 100 150.5C100.839 149.376 102.005 148.709 103.5 148.5C113.899 150.301 123.899 153.301 133.5 157.5C134.167 158.167 134.833 158.833 135.5 159.5C133.833 159.5 132.167 159.5 130.5 159.5C130.5 160.5 130.5 161.5 130.5 162.5C127.27 161.192 123.936 160.192 120.5 159.5C112.326 157.274 104.326 154.774 96.5 152C97.5 153 98.5 154 99.5 155C92.9235 155.993 86.5901 155.16 80.5 152.5C80.1667 152.667 79.8333 152.833 79.5 153C85.0342 156.778 84.3676 158.612 77.5 158.5C78.4196 156.119 78.4196 153.786 77.5 151.5C75.3121 150.759 73.3121 150.426 71.5 150.5C72.325 149.614 73.325 149.281 74.5 149.5C81.8333 148.833 89.1667 148.167 96.5 147.5Z" fill="#D8BCB7"/>
<path fill-rule="evenodd" clip-rule="evenodd" d="M321.5 149.499C313.71 147.327 305.71 146.994 297.5 148.499C296.29 148.067 295.29 147.4 294.5 146.499C307.138 144.497 319.471 145.664 331.5 149.999C328.223 149.798 324.889 149.631 321.5 149.499Z" fill="#473C3A"/>
<path fill-rule="evenodd" clip-rule="evenodd" d="M99.5 146.501C108.128 146.076 116.461 147.409 124.5 150.501C124.082 151.223 123.416 151.723 122.5 152.001C126.507 153.338 130.173 155.171 133.5 157.501C123.899 153.302 113.899 150.302 103.5 148.501C102.005 148.71 100.839 149.377 100 150.501C99.2828 149.957 98.7828 149.29 98.5 148.501C99.3382 148.159 99.6716 147.493 99.5 146.501Z" fill="#6A5C5A"/>
<path fill-rule="evenodd" clip-rule="evenodd" d="M96.5 146.5C96.5 146.833 96.5 147.167 96.5 147.5C89.1667 148.167 81.8333 148.833 74.5 149.5C76.5625 148.224 78.8958 147.39 81.5 147C86.4889 146.501 91.4889 146.334 96.5 146.5Z" fill="#473E3D"/>
<path fill-rule="evenodd" clip-rule="evenodd" d="M20.5 134.5C20.3347 138.182 20.5014 141.848 21 145.5C21.1773 141.644 21.6773 137.977 22.5 134.5C22.8205 139.695 22.4872 144.695 21.5 149.5C19.883 146.811 18.883 143.811 18.5 140.5C19.1667 138.5 19.8333 136.5 20.5 134.5Z" fill="#6D5858"/>
<path fill-rule="evenodd" clip-rule="evenodd" d="M166.5 140.5C170.133 141.262 173.466 142.596 176.5 144.5C175.178 144.33 174.011 144.663 173 145.5C170.486 143.996 167.986 142.662 165.5 141.5C166.167 141.5 166.5 141.167 166.5 140.5Z" fill="#6F6F6E"/>
<path fill-rule="evenodd" clip-rule="evenodd" d="M326.5 135.5C327.5 135.5 328.5 135.5 329.5 135.5C330.791 136.473 330.791 137.473 329.5 138.5C332.996 140.007 336.496 140.34 340 139.5C340.793 143.423 340.626 147.256 339.5 151C340.897 152.31 341.897 153.81 342.5 155.5C342.557 156.609 342.89 157.609 343.5 158.5C337.5 158.5 331.5 158.5 325.5 158.5C325.5 156.167 325.5 153.833 325.5 151.5C323.62 151.771 322.287 151.104 321.5 149.5C324.889 149.632 328.223 149.799 331.5 150C319.471 145.665 307.138 144.498 294.5 146.5C292.194 146.993 289.861 147.326 287.5 147.5C289.277 146.4 291.277 145.566 293.5 145C303.862 143.52 314.195 141.853 324.5 140C328.532 139.539 329.199 138.039 326.5 135.5Z" fill="#DECBCD"/>
<path fill-rule="evenodd" clip-rule="evenodd" d="M149.5 138.5C150.568 137.566 151.901 137.232 153.5 137.5C157.981 137.968 162.314 138.968 166.5 140.5C166.5 141.167 166.167 141.5 165.5 141.5C160.131 140.685 154.798 139.685 149.5 138.5Z" fill="#3A3938"/>
<path fill-rule="evenodd" clip-rule="evenodd" d="M88.5 133.501C89.675 133.282 90.675 133.615 91.5 134.501C92.7837 138.692 94.4504 142.692 96.5 146.501C91.4889 146.335 86.4889 146.502 81.5 147.001C78.8958 147.391 76.5625 148.225 74.5 149.501C73.325 149.282 72.325 149.615 71.5 150.501C73.3121 150.427 75.3121 150.76 77.5 151.501C78.4196 153.787 78.4196 156.12 77.5 158.501C71.7945 158.172 66.1278 158.506 60.5 159.501C64.8333 162.834 69.1667 166.168 73.5 169.501C70.4805 170.839 67.4805 172.172 64.5 173.501C63.9569 173.561 63.6236 173.894 63.5 174.501C65.7427 175.475 68.076 175.809 70.5 175.501C71.7241 181.286 74.0574 186.619 77.5 191.501C77.38 192.587 76.7133 193.254 75.5 193.501C72.8152 193.186 70.1485 192.853 67.5 192.501C67.5674 191.042 67.2341 189.709 66.5 188.501C62.8267 177.825 59.1601 167.158 55.5 156.501C57.5065 157.68 57.8398 157.18 56.5 155.001C58.5436 150.385 60.8769 145.885 63.5 141.501C60.3467 140.791 60.0134 139.791 62.5 138.501C62.56 139.044 62.8933 139.377 63.5 139.501C65.8333 138.334 68.1667 137.168 70.5 136.001C76.5453 135.329 82.5453 134.496 88.5 133.501Z" fill="#E4D4D4"/>
<path fill-rule="evenodd" clip-rule="evenodd" d="M291.5 132.5C291.5 132.833 291.5 133.167 291.5 133.5C278.704 134.233 266.037 135.9 253.5 138.5C252.791 137.596 251.791 137.263 250.5 137.5C263.843 134.355 277.51 132.688 291.5 132.5Z" fill="#5A5A5A"/>
<path fill-rule="evenodd" clip-rule="evenodd" d="M111.5 133.5C111.5 133.167 111.5 132.833 111.5 132.5C120.514 133.001 129.514 133.668 138.5 134.5C143.443 135.827 148.443 136.827 153.5 137.5C151.901 137.232 150.568 137.566 149.5 138.5C136.926 136.182 124.259 134.516 111.5 133.5Z" fill="#616160"/>
<path fill-rule="evenodd" clip-rule="evenodd" d="M291.5 133.5C291.5 133.167 291.5 132.833 291.5 132.5C292.5 132.5 293.5 132.5 294.5 132.5C306.528 132.334 318.528 132.834 330.5 134C333.618 135.059 336.618 136.392 339.5 138C339 138.167 338.5 138.333 338 138.5C335.295 137.061 332.462 136.061 329.5 135.5C328.5 135.5 327.5 135.5 326.5 135.5C314.903 133.851 303.236 133.184 291.5 133.5Z" fill="#414041"/>
<path fill-rule="evenodd" clip-rule="evenodd" d="M88.5 132.5C88.5 132.833 88.5 133.167 88.5 133.5C82.5453 134.495 76.5453 135.328 70.5 136C68.1667 137.167 65.8333 138.333 63.5 139.5C62.8933 139.376 62.56 139.043 62.5 138.5C66.5046 136.498 70.5046 134.498 74.5 132.5C79.1509 133.703 83.8175 133.703 88.5 132.5Z" fill="#4C4C4C"/>
<path fill-rule="evenodd" clip-rule="evenodd" d="M149.5 179.5C150.167 181.5 150.833 183.5 151.5 185.5C150.409 189.515 148.409 193.015 145.5 196C129.212 204.741 117.878 200.575 111.5 183.5C112.338 183.158 112.672 182.492 112.5 181.5C117.936 198.711 128.603 202.877 144.5 194C148.836 190.161 150.503 185.328 149.5 179.5Z" fill="#263E39"/>
<path fill-rule="evenodd" clip-rule="evenodd" d="M291.5 171.5C292.167 171.833 292.833 172.167 293.5 172.5C293.5 174.167 293.5 175.833 293.5 177.5C292.422 185.155 289.089 191.655 283.5 197C270.014 203.781 259.681 200.614 252.5 187.5C253.338 187.158 253.672 186.492 253.5 185.5C254.775 189.299 257.108 192.466 260.5 195C270.043 200.632 278.543 199.466 286 191.5C290.018 185.429 291.851 178.762 291.5 171.5Z" fill="#29443F"/>
<path fill-rule="evenodd" clip-rule="evenodd" d="M96.5 260.5C94.2694 257.164 92.6027 253.497 91.5 249.5C95.754 248.746 100.087 247.746 104.5 246.5C105.442 246.608 106.275 246.941 107 247.5C107.5 246.333 108.333 245.5 109.5 245C116.925 245.887 122.092 243.054 125 236.5C126.667 235.5 128.333 234.5 130 233.5C131.363 229.239 131.696 224.905 131 220.5C130.326 218.483 129.159 216.817 127.5 215.5C128.5 214.833 129.5 214.167 130.5 213.5C129.691 211.929 129.357 210.262 129.5 208.5C128.321 207.423 125.654 207.09 121.5 207.5C120.209 207.737 119.209 207.404 118.5 206.5C128.341 205.618 138.341 204.784 148.5 204C150.919 203.71 152.253 202.876 152.5 201.5C154.607 200.532 156.941 200.198 159.5 200.5C166.192 200.335 172.859 200.668 179.5 201.5C184.368 201.015 189.201 200.348 194 199.5C199.912 200.709 205.412 202.876 210.5 206C212 208.833 214.167 211 217 212.5C217.743 215.511 219.076 218.178 221 220.5C222.086 227.586 222.919 234.42 223.5 241C223.316 243.685 222.15 243.852 220 241.5C220.361 247.44 220.527 253.44 220.5 259.5C221.873 259.343 223.207 259.51 224.5 260C220.441 276.853 210.108 283.187 193.5 279C182.099 270.565 177.432 259.565 179.5 246C179.565 238.536 176.399 233.036 170 229.5C159.9 237.59 149.234 244.923 138 251.5C136.227 249.377 135.06 247.377 134.5 245.5C128.185 247.334 122.185 249.834 116.5 253C109.994 255.206 103.661 256.873 97.5 258C96.7476 258.671 96.4142 259.504 96.5 260.5Z" fill="#FAE3E0"/>
<path fill-rule="evenodd" clip-rule="evenodd" d="M311.5 186.5C306.982 195.121 299.982 200.955 290.5 204C291.793 204.49 293.127 204.657 294.5 204.5C290.536 205.272 286.536 206.272 282.5 207.5C282.918 206.778 283.584 206.278 284.5 206C271.361 205.919 258.361 204.586 245.5 202C246.416 201.722 247.082 201.222 247.5 200.5C259.63 203.685 271.964 204.851 284.5 204C295.199 200.803 304.199 194.969 311.5 186.5Z" fill="#5F6562"/>
<path fill-rule="evenodd" clip-rule="evenodd" d="M305.5 197.5C305.5 198.5 305.5 199.5 305.5 200.5C304.335 203.59 302.002 204.924 298.5 204.5C298.158 203.662 297.492 203.328 296.5 203.5C299.635 201.761 302.635 199.761 305.5 197.5Z" fill="#665552"/>
<path opacity="0.993" fill-rule="evenodd" clip-rule="evenodd" d="M396.5 224.5C395.659 226.379 395.325 228.379 395.5 230.5C383.218 218.032 369.218 208.032 353.5 200.5C354.27 198.728 355.603 197.728 357.5 197.5C361.834 199.226 366.168 201.059 370.5 203C380.206 208.869 388.873 216.036 396.5 224.5Z" fill="#7C8593"/>
<path fill-rule="evenodd" clip-rule="evenodd" d="M91.4999 201.5C95.9565 201.955 100.29 202.955 104.5 204.5C105.275 206.388 105.275 208.388 104.5 210.5C100.264 208.277 96.2635 205.611 92.4999 202.5C91.8332 203.167 91.1666 203.833 90.4999 204.5C89.3346 203.14 89.6679 202.14 91.4999 201.5Z" fill="#CA938E"/>
<path fill-rule="evenodd" clip-rule="evenodd" d="M103.5 201.5C105.5 202.5 107.5 203.5 109.5 204.5C112.345 205.344 115.345 206.01 118.5 206.5C119.209 207.404 120.209 207.737 121.5 207.5C121.5 207.833 121.5 208.167 121.5 208.5C120.833 208.833 120.167 209.167 119.5 209.5C118.064 211.319 116.397 211.652 114.5 210.5C117.255 208.004 116.588 207.004 112.5 207.5C109.459 207.55 106.792 208.55 104.5 210.5C105.275 208.388 105.275 206.388 104.5 204.5C104.047 203.542 103.381 202.708 102.5 202C102.728 201.601 103.062 201.435 103.5 201.5Z" fill="#2D2927"/>
<path fill-rule="evenodd" clip-rule="evenodd" d="M77.5 191.5C78.2719 192.694 79.2719 193.694 80.5 194.5C81.8333 193.833 83.1667 193.167 84.5 192.5C87.277 194.679 89.6103 197.346 91.5 200.5C91.5 200.833 91.5 201.167 91.5 201.5C89.668 202.14 89.3347 203.14 90.5 204.5C91.1667 203.833 91.8333 203.167 92.5 202.5C96.2636 205.611 100.264 208.277 104.5 210.5C106.792 208.55 109.459 207.55 112.5 207.5C116.588 207.004 117.255 208.004 114.5 210.5C116.397 211.652 118.064 211.319 119.5 209.5C119.436 213.062 117.603 214.729 114 214.5C110.14 214.119 106.473 213.119 103 211.5C103.372 213.116 104.039 214.783 105 216.5C106.016 215.366 106.683 215.699 107 217.5C108.143 221.61 107.477 225.276 105 228.5C104.667 228.167 104.333 227.833 104 227.5C103.558 229.679 102.558 230.345 101 229.5C98.6305 231.117 95.9638 232.117 93 232.5C92.228 232.355 91.5613 232.022 91 231.5C88.8687 232.615 87.0354 233.948 85.5 235.5C78.7348 221.552 72.7348 207.218 67.5 192.5C70.1485 192.852 72.8152 193.185 75.5 193.5C76.7133 193.253 77.38 192.586 77.5 191.5Z" fill="#F0C8C8"/>
<path fill-rule="evenodd" clip-rule="evenodd" d="M121.5 208.5C121.5 208.167 121.5 207.833 121.5 207.5C125.654 207.09 128.321 207.423 129.5 208.5C127.043 208.792 124.376 208.792 121.5 208.5Z" fill="#776F6C"/>
<path fill-rule="evenodd" clip-rule="evenodd" d="M296.5 203.501C297.492 203.329 298.158 203.663 298.5 204.501C297.63 206.033 297.964 207.533 299.5 209.001C298.01 210.635 296.676 210.302 295.5 208.001C292.5 207.334 289.5 207.334 286.5 208.001C287.823 208.817 288.489 209.984 288.5 211.501C286.217 211.393 284.217 210.56 282.5 209.001C279.961 208.205 277.628 208.372 275.5 209.501C275.167 209.501 274.833 209.501 274.5 209.501C274.389 208.884 274.056 208.384 273.5 208.001C276.482 207.503 279.482 207.336 282.5 207.501C286.536 206.273 290.536 205.273 294.5 204.501C295.167 204.168 295.833 203.834 296.5 203.501Z" fill="#3C3E3B"/>
<path fill-rule="evenodd" clip-rule="evenodd" d="M317.5 191.5C317.5 192.167 317.833 192.5 318.5 192.5C317.4 193.605 316.733 194.938 316.5 196.5C314.7 198.828 313.533 201.495 313 204.5C312.282 203.549 311.449 203.383 310.5 204C305.777 210.362 299.443 213.528 291.5 213.5C289.97 213.36 288.97 212.693 288.5 211.5C288.489 209.983 287.823 208.816 286.5 208C289.5 207.333 292.5 207.333 295.5 208C296.676 210.301 298.01 210.634 299.5 209C297.964 207.532 297.63 206.032 298.5 204.5C302.002 204.924 304.335 203.59 305.5 200.5C307.262 200.357 308.929 200.691 310.5 201.5C311.594 200.132 311.26 198.965 309.5 198C311.771 195.218 314.437 193.051 317.5 191.5Z" fill="#D6AAA5"/>
<path opacity="0.989" fill-rule="evenodd" clip-rule="evenodd" d="M7.5 227.499C6.962 225.882 6.62867 224.215 6.5 222.499C18.873 214.644 31.873 207.811 45.5 201.999C50.1991 200.286 52.5324 201.786 52.5 206.499C44.8976 208.13 37.5642 210.63 30.5 213.999C22.7782 218.522 15.1115 223.022 7.5 227.499Z" fill="#7F8996"/>
<path fill-rule="evenodd" clip-rule="evenodd" d="M322.5 212.501C319.5 219.834 316.5 227.168 313.5 234.501C312.833 235.501 312.167 236.501 311.5 237.501C309.264 236.612 307.264 235.279 305.5 233.501C304.914 233.71 304.414 234.044 304 234.501C299.298 231.747 295.132 228.413 291.5 224.501C292.968 222.208 293.968 220.042 294.5 218.001C294.167 217.501 293.833 217.001 293.5 216.501C292.228 217.047 290.894 217.38 289.5 217.501C284.186 216.823 278.852 216.323 273.5 216.001C274.5 215.001 275.5 214.001 276.5 213.001C275.663 211.99 275.33 210.823 275.5 209.501C277.628 208.372 279.961 208.205 282.5 209.001C284.217 210.56 286.217 211.393 288.5 211.501C288.97 212.694 289.97 213.361 291.5 213.501C299.443 213.529 305.777 210.363 310.5 204.001C311.449 203.384 312.282 203.55 313 204.501C313.533 201.496 314.7 198.829 316.5 196.501C317.895 194.947 318.561 195.28 318.5 197.501C316.835 199.953 316.168 202.453 316.5 205.001C318.605 206.336 319.271 208.003 318.5 210.001C319.693 211.096 321.027 211.929 322.5 212.501Z" fill="#EED3D3"/>
<path fill-rule="evenodd" clip-rule="evenodd" d="M121.5 208.5C124.376 208.792 127.043 208.792 129.5 208.5C129.357 210.262 129.691 211.929 130.5 213.5C129.5 214.167 128.5 214.833 127.5 215.5C129.159 216.817 130.326 218.483 131 220.5C131.696 224.905 131.363 229.239 130 233.5C128.333 234.5 126.667 235.5 125 236.5C122.092 243.054 116.925 245.887 109.5 245C108.333 245.5 107.5 246.333 107 247.5C106.275 246.941 105.442 246.608 104.5 246.5C100.087 247.746 95.754 248.746 91.5 249.5C88.9822 245.123 86.9822 240.456 85.5 235.5C87.0354 233.948 88.8687 232.615 91 231.5C91.5613 232.022 92.228 232.355 93 232.5C95.9638 232.117 98.6305 231.117 101 229.5C102.558 230.345 103.558 229.679 104 227.5C104.333 227.833 104.667 228.167 105 228.5C107.477 225.276 108.143 221.61 107 217.5C106.683 215.699 106.016 215.366 105 216.5C104.039 214.783 103.372 213.116 103 211.5C106.473 213.119 110.14 214.119 114 214.5C117.603 214.729 119.436 213.062 119.5 209.5C120.167 209.167 120.833 208.833 121.5 208.5Z" fill="#F6D4D4"/>
<path fill-rule="evenodd" clip-rule="evenodd" d="M274.5 209.5C274.833 209.5 275.167 209.5 275.5 209.5C275.33 210.822 275.663 211.989 276.5 213C275.5 214 274.5 215 273.5 216C278.852 216.322 284.186 216.822 289.5 217.5C290.894 217.379 292.228 217.046 293.5 216.5C293.833 217 294.167 217.5 294.5 218C293.968 220.041 292.968 222.207 291.5 224.5C295.132 228.412 299.298 231.746 304 234.5C304.414 234.043 304.914 233.709 305.5 233.5C307.264 235.278 309.264 236.611 311.5 237.5C308.493 250.181 302.826 261.514 294.5 271.5C293.904 268.828 293.57 265.828 293.5 262.5C292.5 262.5 291.5 262.5 290.5 262.5C291.833 260.167 291.833 257.833 290.5 255.5C287.53 255.254 286.197 253.588 286.5 250.5C283.833 249.167 281.167 247.833 278.5 246.5C278.833 243.5 277.5 242.167 274.5 242.5C274.649 241.448 274.483 240.448 274 239.5C272.184 238.671 270.351 237.837 268.5 237C265.899 233.394 262.899 230.061 259.5 227C260.5 226.667 261.5 226.333 262.5 226C261.304 225.346 261.304 224.846 262.5 224.5C263.451 225.326 264.451 225.492 265.5 225C267.278 224.139 268.944 222.639 270.5 220.5C271.293 220.931 272.127 221.265 273 221.5C274.651 220.258 276.485 219.424 278.5 219C274.994 218.617 271.994 217.283 269.5 215C271.137 213.172 272.803 211.339 274.5 209.5Z" fill="#F4E2E1"/>
<path opacity="0.987" fill-rule="evenodd" clip-rule="evenodd" d="M11.5 245.5C10.3881 243.401 9.72148 241.067 9.5 238.5C24.422 230.421 38.422 220.921 51.5 210C54.1766 206.957 56.6766 203.79 59 200.5C60.9101 203.431 60.9101 206.431 59 209.5C45.3004 224.373 29.467 236.373 11.5 245.5Z" fill="#D7D5DC"/>
<path fill-rule="evenodd" clip-rule="evenodd" d="M216.5 267.5C216.083 266.876 215.416 266.543 214.5 266.5C212.149 267.173 209.816 267.84 207.5 268.5C205.634 269.014 203.8 269.68 202 270.5C197.668 267.446 192.835 266.113 187.5 266.5C188.609 265.71 189.942 265.21 191.5 265C188.615 258.83 187.782 252.33 189 245.5C190.853 241.615 192.52 237.615 194 233.5C195.721 230.719 198.221 229.052 201.5 228.5C202.783 235.787 203.783 243.121 204.5 250.5C205.496 244.202 205.83 237.868 205.5 231.5C208.434 232.289 210.268 234.289 211 237.5C211.587 241.928 212.587 246.261 214 250.5C214.708 255.629 214.208 260.629 212.5 265.5C214.288 265.215 215.955 265.548 217.5 266.5C217.376 267.107 217.043 267.44 216.5 267.5Z" fill="#FADBD7"/>
<path fill-rule="evenodd" clip-rule="evenodd" d="M387.498 260.5C387.027 262.579 386.361 264.579 385.498 266.5C365.788 253.956 351.288 236.956 341.998 215.5C340.605 210.905 340.272 206.239 340.998 201.5C341.998 200.167 342.998 200.167 343.998 201.5C351.403 226.404 365.903 246.071 387.498 260.5Z" fill="#D3CDD5"/>
<path fill-rule="evenodd" clip-rule="evenodd" d="M240.5 334.5C229.314 344.674 216.147 350.674 201 352.5C193.192 352.341 186.025 350.174 179.5 346C163.188 335.858 148.188 324.024 134.5 310.5C132.5 308.167 130.5 305.833 128.5 303.5C128.297 301.956 127.63 300.622 126.5 299.5C127.311 298.784 127.978 297.95 128.5 297C127.393 295.56 127.393 294.06 128.5 292.5C128.24 290.813 127.573 289.313 126.5 288C126.958 284.084 126.958 280.418 126.5 277C128.376 275.983 130.376 275.149 132.5 274.5C132.277 273.033 131.944 271.533 131.5 270C135.566 269.021 139.566 267.854 143.5 266.5C142.289 265.28 142.289 264.113 143.5 263C147.07 261.69 150.737 260.857 154.5 260.5C154.64 258.876 153.973 257.71 152.5 257C157.472 254.873 162.306 253.373 167 252.5C168.667 253.5 170 254.833 171 256.5C173.751 268.508 179.918 278.342 189.5 286C197.942 289.923 206.275 289.923 214.5 286C218.736 282.09 223.236 278.59 228 275.5C228.837 273.649 229.671 271.816 230.5 270C229.424 268.274 229.257 266.441 230 264.5C230.333 265.167 230.667 265.833 231 266.5C231.097 256.247 231.43 245.914 232 235.5C232.419 234.328 233.085 233.328 234 232.5C234.667 233.833 235.333 233.833 236 232.5C236.374 233.416 236.874 234.25 237.5 235C241.988 234.652 245.655 236.152 248.5 239.5C248.291 240.086 247.957 240.586 247.5 241C250.344 245.128 254.344 247.295 259.5 247.5C258.632 250.935 258.632 254.269 259.5 257.5C262.686 257.337 265.353 258.337 267.5 260.5C266.865 264.367 266.199 268.2 265.5 272C266.718 273.438 267.385 275.105 267.5 277C267.167 280 266.833 283 266.5 286C266.439 287.711 267.106 289.044 268.5 290C267.833 290.667 267.167 291.333 266.5 292C266.612 296.446 266.612 300.612 266.5 304.5C267.262 304.911 268.262 305.077 269.5 305C260.155 315.011 250.155 324.344 239.5 333C240.056 333.383 240.389 333.883 240.5 334.5Z" fill="#F9EDEA"/>
<path fill-rule="evenodd" clip-rule="evenodd" d="M187.5 266.501C192.835 266.114 197.668 267.447 202 270.501C203.8 269.681 205.634 269.015 207.5 268.501C206.2 269.602 205.7 270.935 206 272.501C208.814 269.42 212.314 267.754 216.5 267.501C213.362 269.808 210.695 272.642 208.5 276.001C206.547 277.634 204.38 278.8 202 279.501C195.447 276.418 190.614 272.085 187.5 266.501Z" fill="#CC9E97"/>
<path fill-rule="evenodd" clip-rule="evenodd" d="M216.498 267.5C212.312 267.753 208.812 269.419 205.998 272.5C205.698 270.934 206.198 269.601 207.498 268.5C209.814 267.84 212.147 267.173 214.498 266.5C215.414 266.543 216.081 266.876 216.498 267.5Z" fill="#866661"/>
<path fill-rule="evenodd" clip-rule="evenodd" d="M215.5 291.5C209.726 292.946 203.726 293.612 197.5 293.5C194.478 293.019 191.478 292.353 188.5 291.5C189.167 291.167 189.833 290.833 190.5 290.5C198.751 292.656 207.084 292.99 215.5 291.5Z" fill="#B5A3A0"/>
<path fill-rule="evenodd" clip-rule="evenodd" d="M215.498 291.5C220.139 293.911 225.139 295.245 230.498 295.5C236.477 294.758 242.477 294.425 248.498 294.5C248.922 298.002 247.588 300.335 244.498 301.5C245.353 300.469 246.02 299.303 246.498 298C246.162 296.97 245.495 296.47 244.498 296.5C216.484 296.247 188.484 296.58 160.498 297.5C158.126 295.852 156.792 296.519 156.498 299.5C154.742 298.448 154.075 296.781 154.498 294.5C156.675 294.586 158.675 295.253 160.498 296.5C169.175 295.765 177.842 294.765 186.498 293.5C190.268 293.654 193.934 294.321 197.498 295.5C198.461 295.03 198.461 294.363 197.498 293.5C203.724 293.612 209.724 292.946 215.498 291.5Z" fill="#EEB9B3"/>
<path fill-rule="evenodd" clip-rule="evenodd" d="M244.5 296.499C245.497 296.469 246.164 296.969 246.5 297.999C246.022 299.302 245.355 300.468 244.5 301.499C243.5 301.499 242.5 301.499 241.5 301.499C240.5 300.832 239.5 300.166 238.5 299.499C241.089 299.538 243.089 298.538 244.5 296.499Z" fill="#130F0E"/>
<path fill-rule="evenodd" clip-rule="evenodd" d="M244.5 296.5C243.089 298.539 241.089 299.539 238.5 299.5C236.5 299.5 234.5 299.5 232.5 299.5C221.816 297.513 211.316 298.513 201 302.5C198.679 302.091 196.513 301.257 194.5 300C186.507 299.5 178.507 299.334 170.5 299.5C167.482 299.665 164.482 299.498 161.5 299C160.944 298.617 160.611 298.117 160.5 297.5C188.486 296.58 216.486 296.247 244.5 296.5Z" fill="#ED9894"/>
<path fill-rule="evenodd" clip-rule="evenodd" d="M160.5 297.499C160.611 298.116 160.944 298.616 161.5 298.999C164.482 299.497 167.482 299.664 170.5 299.499C177.266 301.058 184.266 301.891 191.5 301.999C187.179 302.498 182.846 302.665 178.5 302.499C176.833 302.499 175.167 302.499 173.5 302.499C171.236 301.78 168.903 301.447 166.5 301.499C163.833 301.499 161.167 301.499 158.5 301.499C158.167 300.499 157.5 299.832 156.5 299.499C156.794 296.518 158.128 295.851 160.5 297.499Z" fill="#3A2322"/>
<path fill-rule="evenodd" clip-rule="evenodd" d="M232.5 299.5C234.5 299.5 236.5 299.5 238.5 299.5C239.5 300.167 240.5 300.833 241.5 301.5C239.167 301.5 236.833 301.5 234.5 301.5C231.193 302.051 227.86 302.384 224.5 302.5C220.154 302.666 215.821 302.499 211.5 302C218.63 301.826 225.63 300.993 232.5 299.5Z" fill="#402524"/>
<path fill-rule="evenodd" clip-rule="evenodd" d="M232.5 299.499C225.63 300.992 218.63 301.825 211.5 301.999C215.821 302.498 220.154 302.665 224.5 302.499C224.5 303.166 224.167 303.499 223.5 303.499C218.5 303.499 213.5 303.499 208.5 303.499C204.49 303.531 200.323 303.198 196 302.499C195.5 302.666 195 302.832 194.5 302.999C196.066 303.607 197.4 304.441 198.5 305.499C195.201 306.375 191.868 306.542 188.5 305.999C187.833 305.332 187.167 304.666 186.5 303.999C183.635 303.816 180.969 303.316 178.5 302.499C182.846 302.665 187.179 302.498 191.5 301.999C184.266 301.891 177.266 301.058 170.5 299.499C178.507 299.333 186.507 299.499 194.5 299.999C196.513 301.256 198.679 302.09 201 302.499C211.316 298.512 221.816 297.512 232.5 299.499Z" fill="#D57071"/>
<path fill-rule="evenodd" clip-rule="evenodd" d="M158.5 301.5C161.167 301.5 163.833 301.5 166.5 301.5C170.638 306.571 175.972 309.571 182.5 310.5C183.911 312.539 185.911 313.539 188.5 313.5C188.082 314.222 187.416 314.722 186.5 315C188.589 316.171 190.589 317.504 192.5 319C200.232 319.856 207.898 319.523 215.5 318C218.671 315.911 221.671 313.578 224.5 311C224.167 310.667 223.833 310.333 223.5 310C226.329 307.173 229.663 305.173 233.5 304C234.252 303.329 234.586 302.496 234.5 301.5C236.833 301.5 239.167 301.5 241.5 301.5C239.813 302.918 237.98 304.251 236 305.5C232.525 309.126 229.692 313.126 227.5 317.5C225.181 317.992 223.181 318.992 221.5 320.5C206.61 323.626 191.943 322.959 177.5 318.5C173.642 315.149 169.809 311.482 166 307.5C165.781 306.062 165.281 304.729 164.5 303.5C162.343 302.95 160.343 302.283 158.5 301.5Z" fill="#F4B6AE"/>
<path fill-rule="evenodd" clip-rule="evenodd" d="M166.5 301.499C168.903 301.447 171.236 301.78 173.5 302.499C174.058 303.789 175.058 304.622 176.5 304.999C182.305 305.822 187.639 307.822 192.5 310.999C195.426 311.217 198.26 311.717 201 312.499C201.414 312.042 201.914 311.708 202.5 311.499C204.302 312.985 206.302 313.985 208.5 314.499C208.263 313.208 208.596 312.208 209.5 311.499C209.5 312.499 209.5 313.499 209.5 314.499C213.229 314.423 216.562 313.256 219.5 310.999C217.19 310.502 214.857 310.336 212.5 310.499C215.023 309.745 217.689 309.079 220.5 308.499C221.32 306.68 222.32 305.013 223.5 303.499C224.167 303.499 224.5 303.166 224.5 302.499C227.86 302.383 231.193 302.05 234.5 301.499C234.586 302.495 234.252 303.328 233.5 303.999C229.663 305.172 226.329 307.172 223.5 309.999C223.833 310.332 224.167 310.666 224.5 310.999C221.671 313.577 218.671 315.91 215.5 317.999C207.898 319.522 200.232 319.855 192.5 318.999C190.589 317.503 188.589 316.17 186.5 314.999C187.416 314.721 188.082 314.221 188.5 313.499C190.705 313.153 190.872 312.486 189 311.499C186.901 310.712 184.734 310.379 182.5 310.499C175.972 309.57 170.638 306.57 166.5 301.499Z" fill="#EF9A95"/>
<path fill-rule="evenodd" clip-rule="evenodd" d="M173.5 302.5C175.167 302.5 176.833 302.5 178.5 302.5C180.969 303.317 183.635 303.817 186.5 304C187.167 304.667 187.833 305.333 188.5 306C191.868 306.543 195.201 306.376 198.5 305.5C202.085 305.848 205.418 305.181 208.5 303.5C213.5 303.5 218.5 303.5 223.5 303.5C222.32 305.014 221.32 306.681 220.5 308.5C217.689 309.08 215.023 309.746 212.5 310.5C211.391 310.557 210.391 310.89 209.5 311.5C208.596 312.209 208.263 313.209 208.5 314.5C206.302 313.986 204.302 312.986 202.5 311.5C201.914 311.709 201.414 312.043 201 312.5C198.26 311.718 195.426 311.218 192.5 311C187.639 307.823 182.305 305.823 176.5 305C175.058 304.623 174.058 303.79 173.5 302.5Z" fill="#E57577"/>
<path fill-rule="evenodd" clip-rule="evenodd" d="M208.5 303.5C205.418 305.181 202.085 305.848 198.5 305.5C197.4 304.442 196.066 303.608 194.5 303C195 302.833 195.5 302.667 196 302.5C200.323 303.199 204.49 303.532 208.5 303.5Z" fill="#412323"/>
<path fill-rule="evenodd" clip-rule="evenodd" d="M133.5 311.5C139.899 318.214 146.566 324.714 153.5 331C155.087 331.862 156.754 332.529 158.5 333C166.304 339.735 174.637 345.735 183.5 351C199.403 357.957 214.403 356.29 228.5 346C233.94 342.291 238.94 338.125 243.5 333.5C245.179 333.108 246.846 332.608 248.5 332C258.965 323.203 269.132 314.037 279 304.5C277.993 315.037 278.493 325.537 280.5 336C280.333 336.833 280.167 337.667 280 338.5C271.267 348.089 260.433 353.923 247.5 356C234.573 358.46 221.573 360.46 208.5 362C206.689 364.978 204.356 367.478 201.5 369.5C198.644 367.478 196.311 364.978 194.5 362C178.628 360.521 162.961 357.855 147.5 354C140.111 351.604 133.445 347.937 127.5 343C125.237 340.754 123.904 338.087 123.5 335C124.656 324.465 124.823 313.965 124 303.5C127.105 306.293 130.272 308.96 133.5 311.5Z" fill="#CEA89F"/>
<path fill-rule="evenodd" clip-rule="evenodd" d="M182.5 310.5C184.734 310.38 186.901 310.713 189 311.5C190.872 312.487 190.705 313.154 188.5 313.5C185.911 313.539 183.911 312.539 182.5 310.5Z" fill="#F8E6E6"/>
<path fill-rule="evenodd" clip-rule="evenodd" d="M212.5 310.5C214.857 310.337 217.19 310.503 219.5 311C216.562 313.257 213.229 314.424 209.5 314.5C209.5 313.5 209.5 312.5 209.5 311.5C210.391 310.89 211.391 310.557 212.5 310.5Z" fill="#F9F4F5"/>
<path fill-rule="evenodd" clip-rule="evenodd" d="M227.5 317.5C226.055 319.063 224.389 320.396 222.5 321.5C222.5 320.833 222.167 320.5 221.5 320.5C223.181 318.992 225.181 317.992 227.5 317.5Z" fill="#6C5C59"/>
<path fill-rule="evenodd" clip-rule="evenodd" d="M177.5 318.5C191.943 322.959 206.61 323.626 221.5 320.5C222.167 320.5 222.5 320.833 222.5 321.5C220.632 322.263 218.965 323.263 217.5 324.5C207.147 325.782 196.814 325.782 186.5 324.5C182.946 323.231 179.946 321.231 177.5 318.5Z" fill="#261F1E"/>
<path fill-rule="evenodd" clip-rule="evenodd" d="M186.5 324.5C196.814 325.782 207.147 325.782 217.5 324.5C209.29 328.071 200.624 329.237 191.5 328C189.416 327.303 187.749 326.136 186.5 324.5Z" fill="#D4A9A0"/>
<path fill-rule="evenodd" clip-rule="evenodd" d="M134.5 310.5C148.188 324.024 163.188 335.858 179.5 346C186.025 350.174 193.192 352.341 201 352.5C216.147 350.674 229.314 344.674 240.5 334.5C241.391 333.89 242.391 333.557 243.5 333.5C238.94 338.125 233.94 342.291 228.5 346C214.403 356.29 199.403 357.957 183.5 351C174.637 345.735 166.304 339.735 158.5 333C156.754 332.529 155.087 331.862 153.5 331C146.566 324.714 139.899 318.214 133.5 311.5C134.167 311.5 134.5 311.167 134.5 310.5Z" fill="#1C1919"/>
<path fill-rule="evenodd" clip-rule="evenodd" d="M280.5 349.5C273.758 355.876 265.758 360.209 256.5 362.5C257.557 360.059 258.89 357.725 260.5 355.5C260.376 354.893 260.043 354.56 259.5 354.5C267.846 351.341 275.013 346.341 281 339.5C283.123 342.985 282.956 346.318 280.5 349.5Z" fill="#5D9B93"/>
<path fill-rule="evenodd" clip-rule="evenodd" d="M235.501 360.5C233.076 363.589 231.076 366.922 229.501 370.5C222.266 371.947 214.933 372.78 207.501 373C205.851 375.813 203.851 378.313 201.501 380.5C199.341 378.169 197.341 375.669 195.501 373C168.663 370.967 143.996 362.8 121.501 348.5C120.535 345.339 121.035 342.339 123.001 339.5C128.086 346.137 134.586 350.97 142.501 354C159.17 358.945 176.17 362.279 193.501 364C196.379 366.709 199.045 369.542 201.501 372.5C203.957 369.542 206.623 366.709 209.501 364C218.1 362.319 226.767 361.152 235.501 360.5Z" fill="#5E9F97"/>
<path fill-rule="evenodd" clip-rule="evenodd" d="M295.5 369.5C272.472 382.509 247.805 390.509 221.5 393.5C215.167 393.5 208.833 393.5 202.5 393.5C201.05 390.215 198.717 387.715 195.5 386C184.213 384.809 173.213 385.976 162.5 389.5C142.796 386.379 124.462 379.712 107.5 369.5C112.016 363.132 116.016 356.466 119.5 349.5C142.39 363.853 167.39 372.353 194.5 375C196.724 377.965 199.058 380.798 201.5 383.5C203.942 380.798 206.276 377.965 208.5 375C231.616 373.044 253.616 367.044 274.5 357C277.331 355.334 279.664 353.168 281.5 350.5C281.783 349.711 282.283 349.044 283 348.5C286.673 355.853 290.839 362.853 295.5 369.5Z" fill="#94A4AB"/>
<path fill-rule="evenodd" clip-rule="evenodd" d="M119.5 349.501C119.842 348.663 120.508 348.329 121.5 348.501C143.995 362.801 168.662 370.968 195.5 373.001C197.34 375.67 199.34 378.17 201.5 380.501C203.85 378.314 205.85 375.814 207.5 373.001C214.932 372.781 222.265 371.948 229.5 370.501C238.653 368.337 247.653 365.671 256.5 362.501C265.758 360.21 273.758 355.877 280.5 349.501C280.5 350.168 280.833 350.501 281.5 350.501C279.664 353.169 277.331 355.335 274.5 357.001C253.616 367.045 231.616 373.045 208.5 375.001C206.276 377.966 203.942 380.799 201.5 383.501C199.058 380.799 196.724 377.966 194.5 375.001C167.39 372.354 142.39 363.854 119.5 349.501Z" fill="#1E2424"/>
<path fill-rule="evenodd" clip-rule="evenodd" d="M259.5 354.5C260.043 354.56 260.376 354.893 260.5 355.5C258.89 357.725 257.557 360.059 256.5 362.5C247.653 365.67 238.653 368.336 229.5 370.5C231.075 366.922 233.075 363.589 235.5 360.5C243.633 359.124 251.633 357.124 259.5 354.5Z" fill="#84A0A3"/>
<path opacity="0.965" fill-rule="evenodd" clip-rule="evenodd" d="M202.5 393.5C200.167 393.5 197.833 393.5 195.5 393.5C193.447 390.635 190.613 389.302 187 389.5C182.309 389.849 177.809 390.516 173.5 391.5C169.575 391.57 165.909 390.903 162.5 389.5C173.213 385.976 184.213 384.809 195.5 386C198.717 387.715 201.05 390.215 202.5 393.5Z" fill="#0A0E0E"/>
<path opacity="0.933" fill-rule="evenodd" clip-rule="evenodd" d="M195.5 393.5C191.167 393.5 186.833 393.5 182.5 393.5C179.5 392.833 176.5 392.167 173.5 391.5C177.809 390.516 182.309 389.849 187 389.5C190.613 389.302 193.447 390.635 195.5 393.5Z" fill="#87989E"/>
</g>
</g>
<defs>
<clipPath id="clip0_2288_3326">
<rect width="400" height="400" fill="white"/>
</clipPath>
<clipPath id="clip1_2288_3326">
<rect width="392" height="392" fill="white" transform="translate(6 2)"/>
</clipPath>
</defs>
</svg>
