<svg width="475" height="363" viewBox="0 0 475 363" fill="none" xmlns="http://www.w3.org/2000/svg">
<g clip-path="url(#clip0_1745_3021)">
<path d="M397.03 318.55C395.49 319.01 393.98 319.74 392.42 319.88C386.88 320.37 382.6 323.2 378.27 326.43C353.12 345.22 324.92 356.54 293.7 360.07C263.58 363.48 233.51 362.38 203.44 359.1C180.44 356.59 157.59 353.32 135.29 346.99C119.55 342.52 104.02 337.5 89.4801 329.78C75.8801 322.56 68.2901 310.85 64.0001 296.57C60.2601 284.09 60.0201 271.27 60.3101 258.4C60.5501 247.84 61.3801 237.32 62.8701 226.86C62.9401 226.34 62.8701 225.8 62.8701 224.83C56.5801 231.6 50.2801 237.75 43.3301 243.19C35.4301 249.38 26.9501 254.59 17.6301 258.38C16.7501 258.74 15.8501 259.07 14.9401 259.34C14.2101 259.55 13.3701 259.73 12.8001 259.07C12.1601 258.32 12.4401 257.45 12.8501 256.67C13.0701 256.25 13.3201 255.83 13.6301 255.48C22.4001 245.93 25.1201 234.34 25.1701 221.79C25.1901 216.36 25.7701 210.96 27.1701 205.7C29.3701 197.42 33.6201 190.34 39.8401 184.44C41.0001 183.34 42.1701 182.24 43.5201 180.96C41.0801 179.94 38.7301 179.83 36.4301 179.51C26.0001 178.07 15.7501 178.86 5.69006 182C5.33006 182.11 4.98006 182.3 4.61006 182.35C3.27006 182.53 1.76006 183.82 0.640063 182.36C-0.509937 180.86 0.820063 179.5 1.57006 178.24C7.18006 168.76 12.0901 158.84 19.0001 150.17C27.9001 139.01 38.3301 129.88 52.6601 126.56C64.5801 123.8 75.8801 125.34 86.3801 133C85.8501 130.55 85.4301 128.48 84.9401 126.42C83.9301 122.11 83.8501 117.75 84.1601 113.37C84.5001 108.66 86.7201 104.84 90.1001 101.71C92.1101 99.8603 92.7101 98.0003 92.1501 95.2003C90.6801 87.7903 90.3801 80.3003 91.6401 72.7803C93.4901 61.8003 99.4301 53.3303 107.75 46.3303C121.88 34.4303 138.18 26.3103 155.16 19.4503C180.57 9.18027 207.04 3.47027 234.33 1.35027C258.05 -0.499726 281.66 1.00027 305.24 3.56027C321.88 5.37027 338.4 7.87027 354.7 11.7103C361.92 13.4103 369.02 15.5203 375.91 18.3003C387.31 22.8903 393.48 31.7103 396.31 43.2903C398.1 50.5903 398.3 57.9703 397.53 65.4003C397.32 67.4503 397.88 68.8403 399.47 70.3303C406.95 77.3303 411.06 85.6203 408.06 96.1203C407.58 97.7903 408.72 97.9103 409.51 98.3503C414.24 100.98 419.16 103.26 423.6 106.43C425.91 108.08 427.91 109.89 428.85 112.61C429.25 113.75 429.99 114.16 431.04 114.56C440.6 118.21 450.74 119.47 460.61 121.87C464.39 122.79 468.19 123.64 472 124.47C473.98 124.9 474.87 125.9 474.7 128.05C474.5 130.7 474.45 133.39 474.65 136.04C474.81 138.24 473.78 139.38 472.02 140.25C468.7 141.89 465.4 143.59 462.06 145.2C460.05 146.17 458.85 147.58 458.23 149.81C455.24 160.59 450.13 170.24 442.5 178.51C438.71 182.61 434.27 185.85 429.43 188.54C427.65 189.53 426.11 190.67 424.83 192.26C419.86 198.44 413.54 202.94 406.65 206.73C405.33 207.45 404.02 208.18 402.51 209.02C407.81 214.15 412.6 219.42 416.18 225.64C421.02 234.05 424.31 243.02 424.84 252.81C424.94 254.68 426.02 255.41 427.28 256.32C432.9 260.36 434.67 266.16 432.4 272.89C430.63 272.76 429.67 273.29 429.31 275.31C428.97 277.23 428.01 279.16 425.69 279.62C424.64 279.83 423.53 279.79 422.92 278.71C422.39 277.78 422.57 276.64 423.37 276.11C426.33 274.13 425.44 270.6 426.8 267.98C427.22 267.18 426.74 266.12 426.18 265.31C425.91 264.92 425.52 264.63 425.19 264.3C423.98 263.12 423.62 260.12 422.21 260.56C420.02 261.23 417.54 261.26 415.55 262.72C412.19 265.19 408.03 265.02 404.2 265.84C402.31 266.25 401.27 264.55 401.12 261.69C401.74 260.42 403.02 260.18 404.17 259.78C407.23 258.72 410.26 257.57 413.38 256.73C415.94 256.04 416.32 254.49 415.99 252.23C414.44 241.53 410.29 231.95 403.71 223.42C401.21 220.17 398.35 217.24 395.29 214.51C393.52 212.94 391.64 212.4 389.25 213C381.29 215 373.2 216.16 364.96 215.91C363.18 215.86 362.01 216 362.51 218.37C362.84 219.97 361.61 220.74 360.07 220.84C358.99 220.91 358.02 220.49 357.07 220.04C347.37 215.4 337.66 210.79 328.11 205.84C326.59 205.05 325.07 204.24 323.79 203.08C322.72 202.09 322.29 200.85 322.81 199.46C323.37 197.97 324.68 197.68 326.1 197.77C327.85 197.88 329.38 198.68 330.95 199.37C340.21 203.43 349.55 207.1 359.77 208.1C371.35 209.24 382.52 207.45 393.52 204.03C399.73 202.1 405.64 199.57 411.06 195.25C405.61 196.24 400.42 196.71 395.18 196.53C384.97 196.18 375.11 194.45 366.24 189.01C363.24 187.17 360.36 185.12 357.86 182.63C356.36 181.14 354.63 180.28 352.57 180.12C341.92 179.3 331.53 176.74 320.99 175.24C312.59 174.05 314.54 173.9 310.37 179.7C302.43 190.75 292.03 198.63 279.34 203.48C275.34 205.01 271.33 206.49 267.38 208.17C257.46 212.4 246.93 214.05 236.33 215.28C232.95 215.67 231.06 214.59 230.8 212.58C230.56 210.74 231.87 209.53 235.24 208.61C238.06 207.83 240.92 207.16 243.58 206.53C233.36 204.85 223.79 201.25 215.52 194.56C214.62 193.83 213.61 193.32 212.51 192.97C203.49 190.09 195.75 184.88 188.16 179.44C185.26 177.36 184.51 175.46 185.59 173.83C186.65 172.22 189.3 172.03 192.1 173.72C196.83 176.58 201.79 179 206.69 181.53C206.89 181.64 207.07 181.88 207.23 181.81C203.54 178.4 200.56 174.35 197.7 170.2C196.67 168.71 195.67 167.21 194.69 165.69C193.81 164.33 192.6 163.62 191.02 163.24C185.81 161.99 180.9 159.92 176.27 157.25C173.36 155.57 172.48 153.89 173.36 152.13C174.31 150.24 176.19 150.1 179.37 151.76C182.4 153.34 185.67 154.28 189.02 155.65C188 152.83 186.14 151.65 183.57 151.28C177.45 150.41 172 147.84 166.56 144.95C156.06 139.37 145.12 134.67 134.18 129.99C130.94 128.6 127.71 127.21 124.51 125.75C122.73 124.94 121.67 125.44 120.85 127.12C117.14 134.65 115.16 142.64 114.58 150.98C114.28 155.34 113.78 159.69 113.96 164.08C113.98 164.46 113.93 164.84 113.86 165.22C113.48 167.24 112.29 168.56 110.25 168.66C108.18 168.76 107.16 167.21 106.83 165.44C106.24 162.24 106.41 159 106.77 155.77C107.15 152.46 107.36 149.14 107.6 145.83C107.79 143.15 107.14 142.74 104.6 143.55C99.4501 145.2 95.4701 147.88 92.9501 153.15C83.4801 172.89 77.6901 193.67 74.0001 215.17C71.7101 228.51 70.4001 241.95 69.6501 255.41C68.8701 269.41 69.5101 283.38 73.8701 296.91C77.6201 308.56 84.9901 317.03 95.9401 322.57C109.71 329.54 124.41 333.8 139.2 337.83C158.52 343.1 178.18 346.62 198.07 348.74C209.79 349.99 221.52 351.13 233.29 351.87C247.65 352.78 262.03 352.7 276.36 352.19C301.98 351.28 326.77 346.17 349.9 334.57C356.35 331.33 362.79 328.03 368.64 323.84C368.74 323.31 368.39 323.3 368.13 323.31C360.89 323.6 353.69 322.81 346.47 322.61C335.17 322.29 323.87 321.75 312.62 320.55C310.4 320.31 307.99 320.95 305.99 319.4C305.78 319.2 305.56 319.03 305.33 318.85C304.78 318.43 303.71 318.41 303.91 317.38C304.05 316.66 304.84 316.51 305.44 316.24C305.73 316.11 306.13 316.23 306.32 315.91C303.09 315.92 299.81 317.11 296.68 316.36C290.2 314.82 283.66 315.46 277.15 315.21C275.49 315.15 274.13 314.26 272.53 313.98C265.98 312.83 259.32 312.23 252.88 310.51C252.11 310.3 251.33 309.96 251.34 309.08C251.34 308.02 252.28 307.6 253.12 307.62C255.2 307.66 257.27 307.78 259.3 308.37C261.25 308.94 263.13 309.27 264.87 307.57C266.09 306.38 267.82 306.35 269.03 307.51C270.58 309.01 272.23 308.94 274.04 308.5C274.79 308.32 275.58 308.04 276.25 308.47C279.84 310.82 284.04 310.51 288 311.08C291.9 311.64 295.91 310.81 299.78 312.5C301.62 313.3 303.9 312.19 305.99 312.41C310.99 312.94 316.02 313.03 320.78 315.25C323.24 316.4 326.22 316.01 328.91 315.25C332.57 314.23 336.28 314.83 339.96 314.78C340.64 314.78 341.3 315.04 341.64 315.69C342.82 318.01 344.68 318.93 346.43 317.44C348.52 315.66 350.77 315.81 353.13 315.81C362.45 315.82 371.77 315.91 381.09 315.75C383.99 315.7 386.8 314.81 389.56 313.91C392.75 312.87 396.88 315.38 397 318.53L397.03 318.55Z" fill="#1D011C"/>
<path d="M401.51 261.78C402.72 265.57 402.68 265.43 406.55 264.36C408.76 263.75 411.49 264.65 413.28 262.92C415.62 260.65 419.36 261.71 421.47 258.99C422.34 257.87 423.17 259.14 423.63 259.89C424.75 261.73 425.37 263.9 427.31 265.2C427.62 265.41 427.88 266.14 427.75 266.48C426.58 269.52 427.59 273.24 424.76 275.77C424.05 276.41 422.93 277.03 423.45 278.34C423.71 279 424.35 278.92 424.91 278.97C426.19 279.07 427.03 278.48 427.7 277.4C428.96 275.39 429.01 273.13 429.25 270.7C429.88 272.22 431.32 272.29 432.45 272.86C430.35 279.67 425.1 283.56 419.38 287.03C419 287.23 418.59 287.18 418.32 286.93C415.22 284.14 411.92 285.29 408.77 286.64C406.97 287.42 405.22 288 403.29 287.85C400.48 287.63 397.76 288.31 395.19 289.13C392.67 289.94 390.19 290.36 387.64 290.11C384.38 289.78 381.29 291.21 378.06 290.81C377.68 290.71 378.09 291.29 378 290.92C377.99 290.86 378.07 290.83 378.26 290.84C381.01 291.01 383.87 290.26 386.27 292.58C387.12 293.4 388.64 292.5 389.8 292.12C391.34 291.62 393.55 292.57 394.1 289.86C394.25 289.13 395.67 288.93 396.62 288.76C398.97 288.35 401.34 288.23 403.71 288.4C407.21 288.66 411.38 292.79 411.51 296.29C411.6 298.78 411.59 301.13 413.41 303.21C414.45 304.4 414.09 305.9 412.81 307C412.18 307.54 411.31 307.93 411.43 308.99C411.08 309.16 411.77 309.34 411.47 309.11C411.33 309 411.4 308.96 411.59 308.85C412.29 308.42 412.96 307.99 413 309.36C411.26 312 408.5 313.34 405.95 314.96C404.41 315.97 404.16 313.35 403.76 313.8C402.96 314.69 402.21 315.05 401.1 315.07C399.97 315.09 399.04 314.14 397.84 314.39C398.48 315.85 400.89 315.26 400.97 317.26C399.79 318.07 398.46 318.47 397.04 318.57C396.92 317.66 396.59 316.82 395.55 316.77C394.35 316.71 393.82 316.21 393.3 315.09C392.72 313.84 391.22 314.24 390.23 314.59C386.33 315.95 382.39 316.76 378.23 316.72C369.1 316.62 359.96 316.68 350.83 316.7C349.56 316.7 348.22 316.36 347.65 318.23C347.27 319.49 345.84 318.88 344.86 318.95C343.82 319.03 342.77 319 341.72 318.95C340.8 318.91 339.53 319.3 339.17 318.23C338.69 316.81 340.38 317.54 340.85 316.94C341.08 316.65 341.49 316.37 341.17 315.99C340.96 315.75 340.52 315.54 340.22 315.57C336.42 315.97 332.66 315.3 328.73 316.3C325.58 317.11 321.35 318.37 318.42 314.73C318.27 314.54 317.9 314.43 317.64 314.45C312.21 314.8 306.94 311.91 301.43 313.7C300.68 313.94 299.47 313.95 298.96 313.51C296.74 311.6 294.11 311.89 291.65 312.17C286.93 312.71 282.52 310.53 277.86 310.94C277.77 310.94 277.61 310.95 277.59 310.91C275.99 307.71 273.41 310.25 271.33 309.85C270.17 309.63 269.06 310 268.54 308.2C268.15 306.85 266.24 307.2 265.46 307.99C263.58 309.9 261.81 310.31 259.07 309.29C256.74 308.42 254.3 308.1 251.32 308.79C253.41 310.52 255.63 309.93 257.5 310.65C259.51 311.42 262 311.91 264.26 312C268.41 312.17 272.32 313.02 276.26 314.21C278.01 314.74 280.05 314.54 281.93 314.35C287.84 313.75 293.59 315.42 299.43 315.49C302.61 315.53 305.81 314.23 309.08 315.96C307.6 316.46 306.14 316.96 304.49 317.52C305.27 317.99 306.47 317.91 306.74 319.01C305.27 320.31 303.51 319.92 301.85 319.72C283.57 317.53 265.44 314.43 247.45 310.51C246.36 310.27 245.17 310.17 244.43 309.13C244.73 307.52 246.06 308.41 246.74 308.12C244.96 307.75 243.21 308.69 241.35 308.95C236.6 308.84 232.07 307.42 227.45 306.56C226.81 306.44 226.18 306.13 226.11 305.32C228.35 303.64 230.86 304.2 233.2 304.74C236.88 305.6 240.47 306 244.12 304.73C245.71 304.17 247.33 304.94 248.45 304.73C245.64 303.78 242.2 304.61 238.83 303.14C236.17 301.98 232.78 302.27 229.86 303.21C226.67 304.23 223.93 303.6 221.15 302.01C217.63 300 213.98 298.59 209.87 300.4C208.45 301.02 207.03 300.87 205.99 299.57C205.05 298.39 203.81 298.17 202.43 298.17C197.2 298.17 191.97 297.98 186.75 298.24C183.37 298.41 180.09 299.77 176.61 299.51C178.18 299.81 179.78 299.63 181.34 299.85C182.42 300 183.77 299.98 183.59 301.72C183.03 302.52 182.17 302.63 181.32 302.65C173.81 302.79 166.79 301.32 161.06 296.06C159.5 294.63 157.73 293.15 157.99 290.62C159.75 289.31 160.46 291.08 161.42 291.87C162.74 292.96 163.52 295.1 165.93 293.56C166.57 293.15 167.53 293.92 168.23 294.42C170.46 296.03 173 296.63 175.35 296.68C173.53 296.23 171.37 295.73 169.44 294.59C168.52 294.05 167.58 293.37 169 292.31C173.24 292.73 177.34 293.9 181.64 294.22C187.71 294.67 193.8 294.63 199.87 295.03C213.47 295.94 226.91 297.88 240.31 300.24C262.23 304.11 284.02 308.82 306.22 310.96C317.19 312.02 328.18 312.93 339.2 313.53C349.84 314.1 360.46 314.74 371.12 314.57C377.98 314.46 384.8 313.94 391.49 312.27C394.74 311.46 397.87 310.35 400.86 308.86C403.59 307.51 405.65 305.45 407.19 302.86C408.13 301.27 408.62 299.54 408.43 297.67C408.11 294.51 406.42 293.09 403.28 293.57C397.36 294.48 391.47 295.6 385.52 296.31C376.64 297.36 367.73 298.01 358.79 298.19C354.41 298.28 350.03 298.13 345.66 298.22C325.63 298.61 305.79 296.62 285.95 294.06C265.81 291.46 246.03 287.12 226.23 282.81C217.29 280.86 208.32 279.27 199.12 279.36C195.3 279.39 191.54 279.99 187.76 280.44C185.92 280.66 183.6 281.37 182.96 278.82C182.35 276.4 184.36 275.21 186.27 274.49C193.59 271.7 201.16 270.68 208.97 271.45C223.7 272.89 237.98 276.74 252.43 279.62C269.9 283.1 287.49 285.59 305.22 287.31C322.19 288.95 339.18 290 356.21 289.39C374.27 288.74 392.35 287.82 409.86 282.67C414.97 281.17 419.54 278.71 422.78 274.27C423.75 272.94 424.5 271.52 424.81 269.9C425.46 266.51 423.54 264.14 420.09 263.98C417.35 263.85 414.82 264.71 412.31 265.57C406.37 267.6 400.45 269.71 394.39 271.39C392.02 272.05 389.7 273.03 387.16 272.76C386.7 272.67 386.29 272.43 385.87 272.2C384.77 271.58 383.59 270.96 383.99 269.43C384.4 267.89 385.8 267.88 387.01 267.95C388.78 268.05 390.36 267.66 391.87 266.75C393.55 265.75 395.32 265.23 397.24 266.21C397.72 266.46 398.33 266.64 398.8 266.11C398.92 265.97 398.89 265.76 398.79 265.59C398.44 265.03 397.86 264.94 397.29 265.01C394.94 265.32 392.73 266.2 390.43 266.74C388.34 267.24 386.21 267.91 384.25 266.32C384.4 265.38 385.18 265.17 385.9 264.99C390.31 263.91 394.67 262.6 399.07 261.49C399.9 261.28 400.75 261.11 401.49 261.78H401.51Z" fill="#200216"/>
<path d="M413 309.36C412.62 307.8 410.96 310.47 410.69 308.67C410.49 307.29 411.27 306.71 412.5 306.21C414.16 305.53 413.25 303.7 412.69 303.39C409.98 301.86 410.71 299.42 410.68 297.17C410.64 294.77 407.63 289.81 405.36 289.49C402.3 289.06 399.11 288.79 396.05 289.76C395.27 290 394.56 290.44 393.83 290.78C394.16 291.99 395.59 291.2 395.96 292.64C392.85 292.47 389.9 292.99 386.98 293.79C385.97 294.07 384.7 294.13 384.31 292.47C384.01 291.2 382.79 291.62 381.89 291.57C380.23 291.48 378.48 291.85 377.21 290.84C381.78 289.05 386.68 289.27 391.58 289.24C393.52 289.23 395.47 288.43 397.21 287.83C399.39 287.08 401.44 286.99 403.56 287.03C405.32 287.06 406.93 286.85 408.36 285.77C410.57 284.12 413.28 284.71 415.75 284.22C417.71 283.82 417.85 286.47 419.37 287.05C417.77 287.97 415.41 288.56 414.81 289.92C414.33 291.03 416.15 293.01 416.61 294.7C418.11 300.22 416.56 305.06 412.99 309.37L413 309.36Z" fill="#1D011C"/>
<path d="M400.96 317.24C399.63 316.55 398.28 315.89 396.97 315.14C396.51 314.87 395.96 314.44 396.15 313.79C396.36 313.07 397.07 313.29 397.6 313.25C398.39 313.18 399.02 313.65 399.73 313.88C400.92 314.26 402.64 315.72 402.89 312.78C402.97 311.83 404.11 312.04 404.81 312.22C405.49 312.4 405.65 312.98 405.2 313.54C404.3 314.66 405.22 314.74 405.96 314.94C404.54 316.23 402.84 316.92 400.97 317.23L400.96 317.24Z" fill="#1D011C"/>
<path d="M244.37 308.75C252.9 310.93 261.56 312.47 270.2 314.05C281.55 316.12 292.96 317.83 304.45 318.95C305.2 319.02 305.97 318.99 306.73 319.01C309.76 319.9 312.92 319.76 316.02 319.99C329.01 320.98 342.02 321.59 355.04 321.98C359.6 322.12 364.15 322.32 368.72 322.38C369.42 322.38 370.47 321.94 370.75 322.81C371.09 323.84 369.94 324.23 369.27 324.63C364.88 327.28 360.54 330.07 356 332.44C340.92 340.29 325.2 346.43 308.4 349.49C299.98 351.03 291.49 351.96 282.96 352.62C268.9 353.7 254.81 353.5 240.74 353.13C227.54 352.78 214.41 351.3 201.28 349.89C187.3 348.39 173.4 346.48 159.65 343.56C140.39 339.46 121.38 334.51 103.15 326.92C92.9301 322.66 83.4501 317.34 77.6201 307.31C72.1901 297.96 69.9801 287.71 69.1901 277.09C67.4501 253.49 70.3101 230.21 74.6301 207.09C78.3401 187.28 84.3201 168.19 93.5801 150.2C96.4701 144.59 102.02 143.54 107.24 141.96C108.82 141.48 108.75 143 108.68 144.02C108.43 147.72 108.25 151.42 107.8 155.1C107.42 158.14 107.56 161.18 107.49 164.22C107.45 166.01 107.87 167.94 110.07 167.98C112.43 168.01 113.16 166.3 113.17 164.08C113.18 155.13 113.66 146.21 115.97 137.5C117.1 133.25 118.92 129.28 120.81 125.34C121.35 124.22 121.85 123.53 123.4 124.22C137.54 130.55 151.96 136.32 165.69 143.52C172.07 146.86 178.44 149.83 185.62 150.78C189.09 151.24 189.1 154.63 191.33 157.22C186.69 155.73 182.83 154.42 179.16 152.57C178.4 152.19 177.63 151.83 176.85 151.49C175.62 150.95 174.56 151.22 173.94 152.42C173.32 153.63 173.79 154.66 174.89 155.35C179.99 158.57 185.43 161.12 191.33 162.33C193.39 162.75 194.58 163.62 195.54 165.2C198.61 170.26 202.07 175.01 206.06 179.38C207.26 180.7 208.67 181.82 210.35 183.37C208.35 183.57 207.25 182.78 206.13 182.19C201.42 179.72 196.57 177.51 192.08 174.61C191.06 173.95 189.93 173.37 188.65 173.28C187.56 173.2 186.59 173.23 186.04 174.46C185.5 175.68 186.04 176.49 186.88 177.2C190.89 180.58 195.31 183.38 199.79 186.08C204.12 188.68 208.65 190.87 213.52 192.29C214.15 192.47 214.83 192.71 215.31 193.13C224.3 201.02 235.13 204.46 246.72 206.1C246.69 207.14 245.87 206.91 245.31 207.05C241.44 208.03 237.56 208.95 233.71 209.98C232.44 210.32 231 210.81 231.33 212.62C231.65 214.36 233.1 214.47 234.45 214.39C243.02 213.89 251.46 212.49 259.64 209.94C268.08 207.31 276.26 203.91 284.32 200.3C296.03 195.06 304.98 186.56 311.86 175.84C313.06 173.97 314.19 173.4 316.46 173.67C326.93 174.93 337.16 178 347.68 178.52C354.12 178.84 358.57 181.8 363.11 185.63C370.19 191.6 378.8 193.9 387.79 195.08C395.88 196.15 403.91 195.65 411.91 194.26C412.34 194.18 412.81 193.91 413.45 194.67C408.86 198.22 404 201.17 398.55 203.21C387.58 207.32 376.29 209.54 364.54 209.3C354.39 209.09 344.88 206.24 335.62 202.35C332.82 201.17 330.07 199.85 327.24 198.76C325.85 198.23 324.13 197.71 323.35 199.7C322.63 201.55 323.95 202.47 325.36 203.25C336.12 209.16 347.3 214.22 358.28 219.7C359.41 220.26 360.68 220.77 361.69 219.65C362.6 218.65 361.79 217.67 361.17 216.84C359.75 214.94 361.23 215.08 362.41 215.05C366.59 214.93 370.76 215.08 374.95 214.6C380.06 214.02 385.11 213.21 390.07 211.88C391.79 211.42 393.14 211.63 394.55 212.79C407.75 223.66 415.19 237.6 417.18 254.55C417.39 256.34 416.44 256.64 415.23 257.06C410.65 258.63 406.08 260.22 401.5 261.8C395.77 263.33 390.03 264.87 384.3 266.4C383.53 267.42 382.34 267.5 381.23 267.71C374.21 269 367.12 269.92 360 270.15C342.49 270.72 325.04 269.71 307.64 267.67C288.61 265.44 269.94 261.46 251.37 256.86C237.43 253.41 223.51 249.82 209.3 247.66C199.61 246.18 189.9 245.79 180.74 250.14C167.75 256.3 159.75 266.44 157.13 280.67C156.73 282.86 156.96 285.02 157.59 287.16C157.91 288.24 158.49 289.29 158.06 290.48C161.22 297.11 166.99 299.95 173.78 301.27C176.95 301.89 180.17 302.02 183.39 301.85C184.64 300.7 186.2 300.82 187.71 300.9C198.96 301.53 210.23 302.01 221.39 303.78C223.04 304.04 224.84 303.93 226.15 305.3C231.23 306.46 236.29 307.73 241.51 308.18C242.37 308.82 243.61 307.63 244.37 308.77V308.75Z" fill="#57903F"/>
<path d="M217.59 83.18C209.13 84.84 200.63 86.3 192.22 88.18C174.23 92.22 156.74 97.79 139.75 105.02C126.82 110.52 114.22 116.53 102.86 124.89C100.42 126.69 98.05 128.61 95.82 130.65C94.69 131.68 94.2 131.36 93.83 130.24C91.92 124.46 91.51 118.49 92.33 112.52C92.54 111.02 94.03 109.58 95.19 108.35C103.04 99.99 110.95 91.7 118.83 83.38C119.48 82.7 120.12 81.97 120.59 81.17C121.37 79.84 121.61 78.45 120.2 77.33C118.89 76.29 117.43 76.42 116.27 77.44C114.21 79.25 112.31 81.26 110.33 83.16C106.99 86.36 103.63 89.53 100.3 92.7C99.98 92.45 99.72 92.35 99.71 92.23C98.63 80.9 98.43 69.63 106.2 60.22C112.1 53.09 119.55 47.66 127.48 42.94C135.89 37.94 144.49 33.3 153.55 29.57C156.92 29.07 159.9 27.4 163.09 26.37C166.93 25.13 170.76 23.84 174.67 22.84C174.92 22.72 175.18 22.64 175.45 22.57C176.9 22.35 178.32 21.97 179.73 21.54C180 21.44 180.27 21.38 180.54 21.32C182.31 21.17 183.97 20.59 185.66 20.1C204.39 16.06 223.28 13.47 242.48 12.92C251.13 12.67 259.79 12.36 268.43 12.54C300.42 13.21 332.01 16.75 362.6 26.74C369.91 29.13 377.22 31.61 384.02 35.31C387.55 40.26 388.54 46.07 389.53 51.86C390.01 54.68 390.06 57.53 390.08 60.39C390.09 62.42 389.69 63.22 387.46 62.21C383.16 60.25 378.83 58.33 374.28 56.95C372.99 56.56 371.72 56.29 370.37 56.27C368.9 56.24 367.41 56.13 367.15 58.15C366.91 60.03 367.75 61.18 369.46 61.89C373.22 63.45 377.06 64.88 380.69 66.71C388 70.39 394.35 75.29 398.65 82.42C399.92 84.52 400.87 86.82 401.33 89.27C401.64 90.96 401.25 91.82 399.25 91.05C394.57 89.25 389.74 87.96 384.85 86.78C377.98 85.12 371.01 84.39 364.03 83.75C347.26 82.21 330.42 82.4 313.6 81.86C296.69 81.32 279.78 80.34 262.85 80.31C256.61 80.78 250.35 80.39 244.1 80.51C243.55 80.52 242.92 80.64 242.65 79.95C242.35 79.16 242.96 78.77 243.42 78.29C244.24 77.44 245.45 77.29 246.35 76.6C247.38 75.21 249.43 74.02 248.19 71.98C246.87 69.82 244.69 70.66 242.76 71.18C236.88 72.76 231.14 74.8 225.27 76.41C220.12 77.82 218.72 76.2 218.73 70.98C218.74 64.85 222 61.86 227.02 59.74C231.32 57.92 235.71 56.36 240.08 54.76C243.38 53.55 244.78 51.92 243.78 50.35C242.26 47.98 240.21 49.47 238.42 50.04C234.89 51.18 231.56 52.9 227.9 53.62C224.51 54.29 223.44 53.19 224.08 49.82C224.28 48.79 224.68 47.79 224.67 46.74C224.62 42.03 227.22 39.54 231.42 37.99C236.07 36.27 240.81 34.91 245.61 33.71C249 32.86 250.63 31.05 249.87 29.11C249.19 27.37 246.93 27.01 243.78 28.29C238.39 30.48 232.65 31.56 227.21 33.59C226.05 34.02 224.93 34.57 223.78 34.99C220.58 36.17 219.08 38.2 218.92 41.82C218.65 48.03 216.11 53.82 214.69 59.83C213.88 63.25 212.93 66.63 212.46 70.13C211.87 74.53 212.35 78.5 216.31 81.32C216.92 81.76 217.5 82.29 217.56 83.14L217.59 83.18Z" fill="#E42B34"/>
<path d="M305.83 112.91C296.3 108.69 286.83 104.59 276.64 102.47C249.83 96.8895 224.58 100.99 200.77 114.51C194.23 118.22 188.56 123.23 181.78 126.58C177.66 128.62 173.26 129.12 169.3 127.95C157.96 124.57 146.84 120.46 135.52 115.87C138.94 114.43 142.34 112.94 145.78 111.54C166.18 103.28 187.24 97.2295 208.83 93.0795C219.73 90.9895 230.75 89.6395 241.88 89.2895C250.82 89.0095 259.72 89.0795 268.63 89.8395C270.12 89.9695 271.38 90.5095 272.6 91.2495C281.47 96.5995 290.34 101.95 299.2 107.32C301.69 108.83 304.11 110.45 305.82 112.89L305.83 112.91Z" fill="#57903F"/>
<path d="M66.3101 152.15C57.4801 153.31 48.5001 153.32 39.8101 155.62C39.3501 155.74 38.8401 155.77 38.4401 156C36.8801 156.87 34.8801 157.68 35.5101 159.94C36.1701 162.31 38.3101 161.55 39.8601 161.23C49.9401 159.15 60.2501 159.22 70.4201 158C73.2401 157.66 76.0801 157.44 78.8901 156.99C79.7201 156.86 80.7101 156.56 81.2801 157.37C81.8201 158.13 80.9301 158.74 80.6701 159.4C77.7801 166.65 71.0201 168.96 64.6801 171.6C57.6601 174.53 50.2301 173.66 43.0201 172.59C34.7801 171.36 26.5801 171.29 18.3201 171.63C17.3901 171.67 15.9701 171.86 15.6101 171.37C14.8801 170.38 16.1601 169.55 16.6501 168.69C21.4601 160.15 27.0101 152.18 34.3101 145.54C43.4301 137.24 53.9301 132.8 66.4501 133.9C74.3001 134.59 81.0201 137.77 86.7701 143.08C87.8101 144.04 88.4601 145.04 87.4501 146.53C86.4701 147.99 85.3401 147.51 84.2001 147.04C76.4201 143.85 68.3001 143.7 60.1001 144.3C58.9901 144.38 57.9001 144.86 56.8301 145.24C55.3401 145.77 55.3101 147.04 55.4501 148.31C55.6001 149.66 56.6201 149.93 57.7301 149.94C60.7701 149.97 63.8101 149.96 66.8601 149.97C67.9401 150.6 69.2801 149.74 70.4301 150.63C69.5701 152.64 67.5801 151.45 66.3101 152.14V152.15Z" fill="#E32C32"/>
<path d="M73.67 176.3C72.5 179.91 71.53 183.24 70.31 186.48C69.67 188.17 67.74 188.2 66.29 188.71C59.49 191.07 52.68 193.35 47.46 198.7C45.79 200.41 44.4 202.28 43.45 204.5C42.87 205.85 43.04 207.06 44.21 207.77C45.25 208.4 46.59 208.49 47.63 207.52C48.32 206.88 49.07 206.22 49.52 205.42C52.98 199.18 58.97 197.34 65.36 196.17C67.61 195.76 67.33 197.11 66.98 198.54C64.67 208.01 60.46 216.48 53.73 223.61C47.53 230.18 40.78 236.11 33.31 241.2C32.74 241.59 32.15 242.57 31.38 242.11C30.4 241.53 31.16 240.6 31.32 239.82C32.84 232.25 33.29 224.56 33.7 216.89C34.35 204.72 39.09 194.76 48.86 187.33C53.61 183.72 59.13 181.67 64.67 179.72C67.57 178.7 70.22 176.97 73.67 176.32V176.3Z" fill="#E42D32"/>
<path d="M400.43 100.27C392.77 99.5999 385.15 98.8499 377.48 98.5199C359 97.7299 341.17 101.04 323.73 106.87C320.22 108.04 316.7 109.21 313.22 110.46C312.22 110.82 311.59 110.92 310.81 109.93C307.22 105.38 303.34 101.07 299.3 96.9099C298.77 96.3699 298.31 95.7499 297.9 95.1099C296.04 92.2099 296.79 90.6099 300.18 90.5999C320.71 90.5199 341.26 89.9799 361.74 91.8199C374.42 92.9599 387.02 94.6399 398.91 99.6299C399.42 99.8399 399.92 100.06 400.43 100.28V100.27Z" fill="#53913E"/>
<path d="M217.59 83.1798C213.06 80.9398 211.21 77.2198 211.49 72.2598C211.95 64.1998 214.81 56.6898 216.8 48.9898C217.49 46.3098 218.3 43.6298 218.15 40.8798C217.98 37.6698 219.59 35.9098 222.23 34.7298C225.35 33.3298 228.52 32.0598 231.84 31.1898C236.25 30.0398 240.61 28.7698 244.78 26.8598C247.3 25.7098 250.2 26.6898 250.96 28.6698C251.72 30.6498 250.47 32.7598 247.81 33.8898C247.03 34.2198 246.2 34.4398 245.38 34.6498C240.51 35.9298 235.67 37.2298 230.98 39.1098C227.68 40.4398 225.46 42.2998 225.58 46.2098C225.62 47.5098 225.14 48.8198 224.89 50.1298C224.3 53.1898 224.59 53.5498 227.69 52.8098C232.04 51.7798 236.14 49.9798 240.32 48.3898C241.74 47.8498 243.31 47.4898 244.49 48.9998C245.41 50.1698 245.43 51.4998 244.87 52.7698C244.34 53.9698 243.15 54.4998 241.98 54.9398C237.98 56.4398 233.96 57.9098 229.97 59.4398C227.4 60.4298 224.93 61.6298 222.66 63.2198C220.9 64.4498 219.94 66.0298 219.92 68.2298C219.9 69.7498 219.63 71.2598 219.55 72.7698C219.39 75.8398 220.53 76.8698 223.52 76.0198C229.64 74.2798 235.71 72.3698 241.8 70.5298C242.44 70.3398 243.08 70.1698 243.71 69.9598C245.89 69.2398 248.05 69.2998 249.29 71.4098C250.63 73.6898 249.07 75.3198 247.34 76.6898C243.88 78.4798 240.18 79.6298 236.39 80.3898C233.98 80.8798 231.56 81.3298 229.14 81.8398C225.81 82.4198 222.49 83.0198 219.16 83.5398C218.67 83.6198 218.12 83.2898 217.59 83.1498V83.1798Z" fill="#E42B34"/>
<path d="M384.03 35.3198C382.26 35.9598 380.99 34.6198 379.62 34.0398C362.49 26.7598 344.62 21.9698 326.35 18.7698C299 13.9698 271.41 12.8398 243.68 13.7698C224.72 14.3998 205.99 16.6998 187.45 20.6398C186.71 20.7998 185.95 20.8198 185.19 20.9098C183.45 21.2798 181.65 21.3698 179.98 22.0298C178.47 22.4698 176.82 22.3298 175.41 23.1698H175.39C174.37 23.3498 173.23 24.1098 172.53 22.6198C191.75 16.0398 211.6 12.5098 231.77 10.5698C255.86 8.25982 279.82 10.1198 303.78 12.6498C322.6 14.6398 341.29 17.2698 359.65 21.9698C364.26 23.1498 368.77 24.6098 373.17 26.4198C377.7 28.2798 381.31 31.2498 384.02 35.3198H384.03Z" fill="#E42B34"/>
<path d="M352.94 173.84C345.37 173.41 338.22 172 331.04 170.86C326.73 170.18 322.44 169.4 318.16 168.6C317.28 168.44 315.97 168.62 316.87 166.76C319.84 160.67 321.35 154.08 323.07 147.58C323.88 144.52 325.53 143.09 328.53 142.81C336.37 142.07 340.06 144.24 341.78 150.37C343.99 158.27 347.45 165.66 352.21 172.39C352.47 172.75 352.62 173.19 352.94 173.83V173.84Z" fill="#F8F5E5"/>
<path d="M423.31 114.68C419.52 113.99 415.71 113.35 411.93 112.59C397.01 109.59 381.94 109.6 366.82 110.31C350.33 111.08 334.67 115.74 319.01 120.43C317.52 120.88 316.17 121.41 315.14 119.47C313.63 116.61 313.61 116.06 316.72 114.98C333.45 109.19 350.33 104.35 368.3 104.03C382.91 103.77 397.31 104.53 411.48 108.25C415.84 109.4 419.71 111.49 423.46 113.85C423.4 114.12 423.34 114.4 423.29 114.67L423.31 114.68Z" fill="#559740"/>
<path d="M306.59 121.39C302.95 121.39 300.13 121.41 297.3 121.37C296.87 121.37 296.37 121.15 296.03 120.87C288.47 114.7 279.24 113.01 270.04 111.77C250.62 109.14 232.09 113.15 214.02 120.09C210.13 121.58 206.27 123.28 202.06 123.7C201.41 123.76 200.48 124.62 200.08 123.56C199.76 122.71 200.73 122.32 201.3 121.86C207.48 116.94 214.55 113.76 221.94 111.16C234.02 106.91 246.47 105.44 259.22 106C275.76 106.73 291.2 111.07 305.28 119.93C305.57 120.11 305.76 120.46 306.6 121.41L306.59 121.39Z" fill="#559543"/>
<path d="M324.79 124.84C352.72 116.87 380.98 113.21 409.95 118.48C407.23 118.48 404.51 118.44 401.8 118.49C399.04 118.54 396.29 118.68 393.53 118.77C379.94 119.24 366.34 119.59 352.78 120.71C351.19 120.84 349.55 121.12 348.05 121.67C340.54 124.42 332.77 125.37 324.79 124.84Z" fill="#F8F7F4"/>
<path d="M230.97 193.2C230.79 193.09 230.42 192.96 230.2 192.7C229.68 192.08 229.92 191.37 230.31 190.85C231.35 189.49 232.45 188.18 233.59 186.91C246.5 172.56 259.42 158.22 272.33 143.88C272.65 143.53 272.96 143.17 273.3 142.83C274.1 142.02 275.13 141.46 276.07 142.29C277.26 143.34 276.07 144.13 275.42 144.87C267.59 153.55 259.75 162.23 251.9 170.9C245.58 177.87 239.25 184.84 232.91 191.79C232.41 192.33 232.01 193.05 230.97 193.21V193.2Z" fill="#F6F5F3"/>
<path d="M371.38 182.58C370.32 182.69 369.7 182.5 369.34 181.83C368.81 180.84 369.61 180.28 370.1 179.61C375.32 172.34 381.76 166.13 387.61 159.41C394.53 151.47 401.57 143.63 408.56 135.75C408.94 135.32 409.35 134.93 409.73 134.5C410.6 133.52 411.7 133.05 412.67 134.08C413.59 135.06 412.45 135.82 411.87 136.46C408.6 140.15 405.29 143.81 401.96 147.45C393.33 156.92 385.15 166.79 376.25 176.02C375.29 177.02 374.93 178.28 374.44 179.52C373.83 181.08 372.82 182.3 371.36 182.56L371.38 182.58Z" fill="#F6F5F3"/>
<path d="M225.15 123.57C243.17 117.12 272.65 115.97 283.02 121.29C263.57 121.65 244.37 122.66 225.15 123.57Z" fill="#F6F7F1"/>
<path d="M229.14 81.8697C235.07 79.6697 241.23 78.2997 247.33 76.7197C246.72 78.8097 243.86 77.7897 242.96 80.3297C249.73 80.3297 256.3 80.3297 262.88 80.3297C262.43 80.4597 261.98 80.7097 261.53 80.7097C250.72 80.7397 239.92 81.1697 229.14 81.8697Z" fill="#C33D48"/>
<path d="M66.31 152.15C67.23 151.2 68.75 152 69.79 150.83C68.9 150.17 67.61 150.83 66.86 149.98C69.47 149.78 72.07 149.68 75.07 151.09C71.89 152.07 69.14 152.41 66.3 152.14L66.31 152.15Z" fill="#7B2527"/>
<path d="M386.7 272.17C394.16 270.99 401.16 268.23 408.29 265.92C412.07 264.69 415.72 262.95 419.81 262.91C424.55 262.86 427.11 266.22 425.68 270.82C424.1 275.89 420.33 279.01 415.8 281.29C408.48 284.97 400.46 286.29 392.5 287.4C368.88 290.69 345.18 291.1 321.37 289.59C305.9 288.61 290.54 286.87 275.23 284.67C260.29 282.52 245.55 279.21 230.8 276.04C221.61 274.07 212.41 271.98 202.92 272.25C197.2 272.41 191.58 273.28 186.22 275.47C185.41 275.8 184.69 276.21 184.06 276.81C183.44 277.4 183.26 278.13 183.54 278.89C183.85 279.74 184.65 279.94 185.42 279.84C187.21 279.62 188.98 279.26 190.77 279.02C200.4 277.72 209.94 278.51 219.39 280.45C234.83 283.62 250.2 287.23 265.71 290C281.97 292.9 298.38 294.91 314.87 296.27C330.46 297.56 346.05 297.46 361.64 297.12C375.9 296.82 390.07 295.26 404.07 292.42C406.89 291.85 408.2 293.23 409.03 295.46C410.64 299.78 408.2 305.59 403.35 308.59C396.91 312.58 389.64 314.23 382.25 314.86C365.14 316.31 348.05 315.17 330.97 313.98C319.69 313.19 308.41 312.36 297.2 310.89C288.26 309.72 279.35 308.31 270.48 306.73C252.45 303.52 234.51 299.8 216.34 297.47C207.3 296.32 198.19 295.7 189.06 295.47C182.15 295.3 175.15 295.44 168.61 292.55C164.34 291.36 163.06 287.96 162.6 284.13C162.07 279.71 163.41 275.6 165.56 271.84C172.62 259.48 182.67 252.16 197.58 252.27C207.88 252.35 217.77 254.46 227.68 256.76C249.07 261.72 270.31 267.36 292.03 270.83C302.92 272.57 313.86 273.87 324.86 274.71C330.83 275.17 336.81 275.66 342.78 275.69C355.62 275.77 368.41 274.8 381.09 272.62C382.94 272.3 384.8 271.67 386.73 272.18L386.7 272.17Z" fill="#CD5328"/>
<path d="M386.7 272.17C380.52 274.18 374.06 274.78 367.67 275.39C360.11 276.11 352.51 276.69 344.89 276.58C324.03 276.27 303.39 273.91 282.87 270.18C266.03 267.12 249.49 262.77 232.83 258.92C220.26 256.01 207.76 252.7 194.63 253.2C178.29 253.82 166.37 267.67 163.74 279.34C162.5 284.82 163.97 289.26 168.59 292.56C168.89 294.36 170.71 294.56 171.78 294.78C173.95 295.24 175.85 296.81 178.67 296.03C176.1 298 171.19 297.54 168.19 295.48C167.06 294.71 165.93 292.57 164.76 295.66C164.4 296.62 163.41 295.74 162.89 294.95C161.66 293.07 160.32 291.27 158.06 290.47C154.39 284.05 156 277.65 158.71 271.59C165 257.53 175.64 248.6 191.07 246.16C197.19 245.19 203.39 245.74 209.53 246.72C229.25 249.86 248.4 255.5 267.85 259.81C284.17 263.43 300.61 266.18 317.28 267.72C329.89 268.88 342.49 269.48 355.14 269.3C364.19 269.18 373.15 268.24 382.04 266.58C382.78 266.44 383.55 266.45 384.31 266.4C388.24 266.8 391.89 265.67 395.53 264.4C396.32 264.12 397.2 264.08 398.04 263.96C399.05 263.82 399.62 264.39 400.03 265.23C400.34 265.86 400.56 266.57 400.1 267.12C399.47 267.86 398.26 267.89 397.72 267.46C394.79 265.17 392.62 267.08 390.47 268.67C389.28 269.55 388.28 268.49 387.2 268.73C386.26 268.94 384.94 268.2 384.5 269.61C384.07 270.99 385.59 270.88 386.18 271.49C386.37 271.69 386.51 271.95 386.67 272.19L386.7 272.17Z" fill="#1D011C"/>
<path d="M226.15 305.28C219.09 304.5 212.04 303.75 204.98 302.94C197.8 302.12 190.58 302.29 183.39 301.83C183.16 300.46 182.08 300.7 181.16 300.69C179.36 300.67 177.55 300.72 175.75 300.66C175.18 300.64 174.24 301.05 174.18 300.02C174.14 299.35 174.64 298.79 175.34 298.55C175.52 298.49 175.71 298.46 175.89 298.43C185.44 297.06 195.05 297.19 204.66 297.26C205.37 297.26 206 297.42 206.22 298.2C206.94 300.74 208.68 300.29 210.21 299.33C212.21 298.09 213.91 298.55 216.05 299.04C218.54 299.62 220.67 300.54 222.82 301.84C224.98 303.15 227.21 302.62 229.76 302.23C233.41 301.67 237.75 300.04 241.19 303.49C241.34 303.64 241.75 303.67 241.96 303.58C245.46 301.96 248.5 305.34 251.99 304.56C251.8 304.74 251.59 305.08 251.42 305.06C246.16 304.67 241.06 307.46 235.86 306.26C232.61 305.51 229.44 305.14 226.15 305.26V305.28Z" fill="#1D011C"/>
<path d="M421.57 283.29C420.35 282.68 418.13 283.5 418.11 281.63C418.1 280.22 419.86 280.05 421.25 280.12C422.6 280.19 423.46 280.87 423.39 282.16C423.34 283.05 422.53 283.55 421.57 283.29Z" fill="#1D011C"/>
<path d="M261.69 306.81C260.02 307.79 258.35 307.66 256.71 307.28C256.02 307.12 254.97 306.78 255.12 305.94C255.33 304.77 256.54 305.21 257.26 305.3C258.8 305.5 260.02 306.79 261.68 306.81H261.69Z" fill="#1D011C"/>
<path d="M244.37 308.75C243.4 308.64 242.36 308.89 241.51 308.16C244.21 307.33 246.92 307.34 249.62 307.79L249.67 308.75H244.37Z" fill="#1D011C"/>
<path d="M406.5 307.86C407.56 308.23 408.33 308.78 408.22 309.9C408.2 310.1 407.72 310.47 407.63 310.42C406.62 309.9 406.58 308.88 406.5 307.86Z" fill="#1D011C"/>
<path d="M289.35 316.14C290.89 315.43 291.77 315.37 292.97 316.08C291.8 316.86 290.92 316.74 289.35 316.14Z" fill="#1D011C"/>
<path d="M138.82 290.31C138.93 288.63 138.54 286.89 139.37 285.28C139.83 284.4 140.4 283.64 141.53 283.72C142.74 283.8 143.42 284.52 143.61 285.69C143.95 287.84 144.14 290.02 144.6 292.14C146.77 302.3 152.46 309.41 162.55 312.66C163.81 313.06 165.06 313.51 166.26 314.06C167.15 314.47 167.89 315.17 167.74 316.27C167.58 317.45 166.7 318.07 165.61 318.28C164.01 318.59 162.39 318.5 160.8 318.15C150.69 315.88 144.02 309.76 140.62 300.03C139.52 296.89 138.57 293.7 138.82 290.29V290.31Z" fill="#1B041C"/>
<path d="M324.83 70.01C327.1 72.66 329.39 73.97 332.32 74.17C333.99 74.28 336.11 74.15 335.93 76.69C335.77 78.99 334.08 79.86 331.93 79.88C325.66 79.95 320.53 77.8 317.59 71.97C316.65 70.1 315.24 69.36 313.41 68.99C309.02 68.12 304.78 66.71 300.6 65.15C288.34 60.56 283.78 51.06 287.75 38.53C290.34 30.36 295.8 25.18 304.06 22.96C304.79 22.76 305.56 22.64 306.31 22.63C308.2 22.62 309.69 23.28 310.08 25.35C310.48 27.5 308.88 28.4 307.33 28.68C304.07 29.27 301.64 31.06 299.2 33.1C296.85 35.06 295.71 37.47 295.21 40.39C294.81 42.75 294.64 45.11 294.78 47.49C295.06 52.33 297.07 56.04 301.73 58.03C304.61 59.26 307.53 60.38 310.56 61.2C312.08 61.62 312.67 61.34 312.35 59.63C310.51 49.57 313.67 40.88 320.63 33.83C330.75 23.59 343.35 24.64 353.61 34.17C355.51 35.94 355.73 38.8 354.22 40.04C352.13 41.75 350.14 40.8 348.67 39.15C338.24 27.44 323.89 35.76 320.53 47.54C319.31 51.81 318.8 56.06 319.82 60.47C320.32 62.63 321.39 63.16 323.41 62.9C328.24 62.28 333 61.48 337.33 59.07C337.99 58.7 338.7 58.41 339.39 58.09C342.79 56.51 345.12 56.79 346.17 58.93C347.12 60.86 345.85 63.6 343 65.2C338.54 67.7 333.66 68.89 328.62 69.53C327.51 69.67 326.39 69.79 324.82 69.97L324.83 70.01Z" fill="#E42B34"/>
<path d="M176.55 45.1804C176.44 47.2504 175.18 50.3204 173.35 53.1304C167.5 62.0904 159.54 68.6904 150.14 73.6604C146.53 75.5704 142.9 77.4504 139.55 79.8204C136.91 81.6904 135.1 84.0104 134.2 87.2304C132.98 91.6104 131.39 95.8904 130.25 100.31C129.74 102.31 128.31 103.84 126.12 103.45C123.83 103.04 123.41 100.98 123.58 98.9704C123.69 97.6604 124 96.3404 124.41 95.0804C128.66 82.0904 132.24 68.8604 138.02 56.4104C138.3 55.8104 138.67 55.1904 138.72 54.5504C139.14 49.4104 142.35 46.6504 146.64 44.3804C151.85 41.6304 157.04 38.8604 162.43 36.4904C163.81 35.8904 165.28 35.3704 166.76 35.1404C172.85 34.2204 176.7 37.6804 176.54 45.1904L176.55 45.1804Z" fill="#E42B34"/>
<path d="M168.61 46.6998C164.37 57.0798 155.19 62.2798 146.37 67.8398C144.31 69.1298 142.19 70.3198 139.59 71.8598C141.95 65.5898 144.09 59.8398 146.27 54.1198C146.46 53.6198 146.85 53.0898 147.3 52.8098C152.53 49.5498 157.5 45.8198 163.38 43.7098C167.85 42.7598 168.76 43.2798 168.6 46.7098L168.61 46.6998Z" fill="#E42B34"/>
<path d="M168.61 46.7C168.26 43.27 165.7 43.7 163.39 43.7C163.98 43.44 164.55 43.13 165.16 42.93C166.32 42.54 167.65 42.08 168.59 43.08C169.57 44.13 169.37 45.48 168.62 46.7H168.61Z" fill="#C05E56"/>
<path d="M227.94 41.9804C228.2 41.2504 228.09 40.4704 228.2 39.7204C228.69 36.3204 229.41 33.0204 231.41 30.1304C233.27 27.4404 235.85 26.1304 239.09 26.2504C241.42 26.3404 243.39 27.3304 245.09 28.9104C247.02 30.7004 248.56 32.8304 250.24 34.8304C252.31 37.3004 254.64 39.4304 257.9 40.1004C262.54 41.0604 266.61 39.9904 269.94 36.4704C271.83 34.4704 273.14 32.1104 274.39 29.7004C275.83 26.9304 277.09 24.0804 278.81 21.4604C280.04 19.5804 281.41 17.7904 283.39 16.6404C286.33 14.9404 289.43 14.9804 292.53 16.1504C296.7 17.7304 299.61 20.7304 301.78 24.5204C303.89 28.2104 305.03 32.2304 305.63 36.4204C306.09 39.6304 306.27 42.8504 306.14 46.0804C305.89 52.3104 304.83 58.3704 301.81 63.9304C299.88 67.4804 297.33 70.4604 293.59 72.2004C290.08 73.8304 286.59 73.8204 283.26 71.7004C281.42 70.5304 280.05 68.8704 278.8 67.1104C276.97 64.5304 275.47 61.7304 273.76 59.0704C272.11 56.5104 270.28 54.1004 267.67 52.4304C266.01 51.3704 264.18 50.8004 262.2 50.6204C258.44 50.2704 255.38 51.6104 252.76 54.2304C250.97 56.0104 249.58 58.0904 248.12 60.1304C246.9 61.8404 245.71 63.5604 244.05 64.9004C241.57 66.9004 238.89 66.8304 236.14 65.6504C233.95 64.7104 232.5 62.9304 231.38 60.9004C229.91 58.2204 229.09 55.3204 228.61 52.3204C228.33 50.6104 228.05 48.8904 228.05 47.1504C228.05 47.0504 227.97 46.9504 227.93 46.8504C227.93 45.2204 227.93 43.5904 227.93 41.9604L227.94 41.9804Z" fill="#96FBE3"/>
<path d="M101.15 67.3401C101.15 67.3401 138.19 36.4101 154.11 33.0801Z" fill="#EEDED1"/>
</g>
<defs>
<clipPath id="clip0_1745_3021">
<rect width="475" height="363" fill="white"/>
</clipPath>
</defs>
</svg>
