<svg width="100" height="100" viewBox="0 0 100 100" fill="none" xmlns="http://www.w3.org/2000/svg">
<path fill-rule="evenodd" clip-rule="evenodd" d="M99.667 44.1682C98.5054 34.1474 94.3474 24.7117 87.7379 17.0977C81.1284 9.48368 72.3758 4.04661 62.627 1.49904C71.0355 4.25261 78.5039 9.31262 84.1837 16.104C89.8634 22.8954 93.5266 31.1459 94.757 39.9178C84.527 31.5372 67.982 23.6472 52.377 28.5484C59.247 34.7913 60.877 42.5662 53.592 49.2597C61.532 36.0029 45.742 30.1504 37.842 24.0577C31.462 19.1314 35.287 13.0437 40.212 8.77829C45.617 4.09234 53.632 1.08351 59.597 0.768112C48.287 -1.37962 31.212 0.848213 23.002 9.07867C14.792 17.3091 20.502 28.6035 30.502 37.69C30.502 37.69 17.842 49.7403 10.542 58.5115C3.24202 67.2826 20.152 80.0739 20.152 80.0739C39.762 65.5554 54.867 77.4856 62.152 91.6636C54.4068 94.1007 46.1655 94.5012 38.2209 92.8264C30.2764 91.1516 22.896 87.458 16.7897 82.1008C10.6834 76.7435 6.05678 69.9031 3.35485 62.2374C0.652917 54.5718 -0.0333656 46.3389 1.36202 38.3308C-0.330685 45.4429 -0.447095 52.8399 1.02097 60.0018C2.48904 67.1637 5.50595 73.9168 9.85965 79.7863C14.2133 85.6558 19.7981 90.4992 26.2215 93.9762C32.6448 97.4532 39.7508 99.4793 47.0399 99.9122C54.3291 100.345 61.6244 99.1741 68.4132 96.4816C75.2019 93.7891 81.3193 89.6405 86.3354 84.3274C91.3514 79.0143 95.1443 72.6656 97.4475 65.7277C99.7507 58.7897 100.508 51.4308 99.667 44.1682ZM31.992 48.4337L24.992 47.933L35.637 38.496L31.992 48.4337Z" fill="url(#paint0_linear_4581_14618)"/>
<defs>
<linearGradient id="paint0_linear_4581_14618" x1="20.8333" y1="6.25002" x2="78.393" y2="23.8027" gradientUnits="userSpaceOnUse">
<stop stop-color="#70FFDE"/>
<stop offset="1" stop-color="#8F7DF8"/>
</linearGradient>
</defs>
</svg>
